<svg width="21" height="21" viewBox="0 0 21 21" fill="none" xmlns="http://www.w3.org/2000/svg">
<path fill-rule="evenodd" clip-rule="evenodd" d="M9.39424 2.51637C5.3589 2.51637 2.08761 5.73073 2.08761 9.69585C2.08761 13.661 5.3589 16.8753 9.39424 16.8753C13.4296 16.8753 16.7009 13.661 16.7009 9.69585C16.7009 5.73073 13.4296 2.51637 9.39424 2.51637ZM0 9.69585C0 4.59784 4.20594 0.465088 9.39424 0.465088C14.5825 0.465088 18.7885 4.59784 18.7885 9.69585C18.7885 14.7939 14.5825 18.9266 9.39424 18.9266C4.20594 18.9266 0 14.7939 0 9.69585Z" fill="#00C24F"/>
<path fill-rule="evenodd" clip-rule="evenodd" d="M14.3798 14.5951C14.7649 14.2167 15.3894 14.2167 15.7746 14.5951L20.0649 18.8108C20.45 19.1892 20.45 19.8028 20.0649 20.1813C19.6797 20.5597 19.0552 20.5597 18.6701 20.1813L14.3798 15.9657C13.9946 15.5872 13.9946 14.9736 14.3798 14.5951Z" fill="#00C24F"/>
</svg>
