<svg xmlns="http://www.w3.org/2000/svg" width="263.374" height="175.523" viewBox="0 0 263.374 175.523">
  <g id="image-phongthinghiem" transform="translate(-1009.822 -2.432)">
    <g id="Group_1766" data-name="Group 1766" transform="translate(1009.822 2.432)">
      <g id="Group_1701" data-name="Group 1701" transform="translate(0)">
        <path id="Path_19844" data-name="Path 19844" d="M1280.45,98.811a1.629,1.629,0,1,1-1.63-1.629A1.629,1.629,0,0,1,1280.45,98.811Z" transform="translate(-1159.732 -55.557)" fill="#ffdabf"/>
        <path id="Path_19845" data-name="Path 19845" d="M1201.107,89.277a1.629,1.629,0,1,1-1.629-1.629A1.629,1.629,0,0,1,1201.107,89.277Z" transform="translate(-1115.246 -50.211)" fill="#fff" opacity="0.6"/>
        <path id="Path_19846" data-name="Path 19846" d="M1365.459,223.61a1.629,1.629,0,1,1-1.629-1.629A1.629,1.629,0,0,1,1365.459,223.61Z" transform="translate(-1207.396 -125.53)" fill="#fff" opacity="0.6"/>
        <path id="Path_19847" data-name="Path 19847" d="M1529.414,163.991a.893.893,0,1,1-.893-.893A.893.893,0,0,1,1529.414,163.991Z" transform="translate(-1300.149 -92.515)" fill="#fff" opacity="0.6"/>
        <path id="Path_19848" data-name="Path 19848" d="M1601.644,275.663a.893.893,0,1,1-.893-.893A.893.893,0,0,1,1601.644,275.663Z" transform="translate(-1340.647 -155.128)" fill="#fff" opacity="0.6"/>
        <path id="Path_19849" data-name="Path 19849" d="M1150.337,275.663a.893.893,0,1,1-.893-.893A.893.893,0,0,1,1150.337,275.663Z" transform="translate(-1087.605 -155.128)" fill="#fff" opacity="0.6"/>
        <path id="Path_19850" data-name="Path 19850" d="M1067.148,355.894a.893.893,0,1,1-.893-.893A.893.893,0,0,1,1067.148,355.894Z" transform="translate(-1040.963 -200.113)" fill="#fff" opacity="0.6"/>
        <path id="Path_19851" data-name="Path 19851" d="M1048.9,232.658a.893.893,0,1,1-.893-.893A.893.893,0,0,1,1048.9,232.658Z" transform="translate(-1030.734 -131.016)" fill="#fff" opacity="0.6"/>
        <path id="Path_19852" data-name="Path 19852" d="M1155.073,157.9a.893.893,0,1,1-.893-.893A.893.893,0,0,1,1155.073,157.9Z" transform="translate(-1090.261 -89.1)" fill="#fff" opacity="0.6"/>
        <path id="Path_19853" data-name="Path 19853" d="M1107.478,59.008a.893.893,0,1,1-.893-.893A.893.893,0,0,1,1107.478,59.008Z" transform="translate(-1063.575 -33.653)" fill="#fff" opacity="0.6"/>
        <path id="Path_19854" data-name="Path 19854" d="M1189.644,33.5a.893.893,0,1,1-.893-.893A.893.893,0,0,1,1189.644,33.5Z" transform="translate(-1109.645 -19.35)" fill="#fff" opacity="0.6"/>
        <path id="Path_19855" data-name="Path 19855" d="M1238.846,125.617a.893.893,0,1,1-.893-.893A.893.893,0,0,1,1238.846,125.617Z" transform="translate(-1137.231 -70.999)" fill="#fff" opacity="0.6"/>
        <path id="Path_19856" data-name="Path 19856" d="M1436.863,71.893a.893.893,0,1,1-.893-.893A.893.893,0,0,1,1436.863,71.893Z" transform="translate(-1248.257 -40.877)" fill="#fff" opacity="0.6"/>
        <path id="Path_19857" data-name="Path 19857" d="M1310.685,113.238a.893.893,0,1,1-.893-.893A.893.893,0,0,1,1310.685,113.238Z" transform="translate(-1177.51 -64.059)" fill="#fff" opacity="0.6"/>
        <path id="Path_19858" data-name="Path 19858" d="M1588.348,182.065a.893.893,0,1,1-.893-.893A.893.893,0,0,1,1588.348,182.065Z" transform="translate(-1333.192 -102.649)" fill="#fff" opacity="0.6"/>
        <path id="Path_19859" data-name="Path 19859" d="M1385.09,223.61a1.629,1.629,0,1,1-1.629-1.629A1.629,1.629,0,0,1,1385.09,223.61Z" transform="translate(-1218.402 -125.53)" fill="#ffa05a"/>
        <path id="Path_19860" data-name="Path 19860" d="M1244.305,167.559a.752.752,0,1,1-.752-.752A.752.752,0,0,1,1244.305,167.559Z" transform="translate(-1140.451 -94.595)" fill="#ffdabf"/>
        <path id="Path_19861" data-name="Path 19861" d="M1372.407,186.841a.752.752,0,1,1-.752-.752A.752.752,0,0,1,1372.407,186.841Z" transform="translate(-1212.276 -105.406)" fill="#ffa05a"/>
        <path id="Path_19862" data-name="Path 19862" d="M1157.133,278.588a.752.752,0,1,1-.752-.752A.752.752,0,0,1,1157.133,278.588Z" transform="translate(-1091.575 -156.847)" fill="#ffdabf"/>
        <path id="Path_19863" data-name="Path 19863" d="M1240.6,92.7a.752.752,0,1,1-.752-.752A.752.752,0,0,1,1240.6,92.7Z" transform="translate(-1138.371 -52.621)" fill="#ffdabf"/>
        <path id="Path_19864" data-name="Path 19864" d="M1538.024,208.975a1.629,1.629,0,1,1-1.629-1.629A1.629,1.629,0,0,1,1538.024,208.975Z" transform="translate(-1304.15 -117.324)" fill="#ffa05a"/>
        <path id="Path_19865" data-name="Path 19865" d="M1099.9,4.061a1.629,1.629,0,1,1-1.63-1.629A1.629,1.629,0,0,1,1099.9,4.061Z" transform="translate(-1058.501 -2.432)" fill="#a4e0ea"/>
        <path id="Path_19866" data-name="Path 19866" d="M1013.081,95.1a1.629,1.629,0,1,1-1.629-1.629A1.629,1.629,0,0,1,1013.081,95.1Z" transform="translate(-1009.822 -53.478)" fill="#f58634"/>
        <path id="Path_19867" data-name="Path 19867" d="M1074.349,324.179a1.629,1.629,0,1,1-1.63-1.629A1.629,1.629,0,0,1,1074.349,324.179Z" transform="translate(-1044.174 -181.918)" fill="#ffdabf"/>
        <path id="Path_19868" data-name="Path 19868" d="M1596.313,370.084a1.629,1.629,0,1,1-1.629-1.629A1.63,1.63,0,0,1,1596.313,370.084Z" transform="translate(-1336.832 -207.656)" fill="#ffa05a"/>
      </g>
      <g id="Group_1702" data-name="Group 1702" transform="translate(37.283 39.422)">
        <path id="Path_19869" data-name="Path 19869" d="M1151.359,191.928v-40.72a2.389,2.389,0,0,1,2.389-2.389h0a2.389,2.389,0,0,0,2.39-2.389v-1.05a2.389,2.389,0,0,0-2.39-2.389h-22.8a2.389,2.389,0,0,0-2.389,2.389v1.05a2.389,2.389,0,0,0,2.389,2.389h0a2.389,2.389,0,0,1,2.389,2.389v40.721a2.389,2.389,0,0,1-.372,1.28l-37.9,59.753a2.389,2.389,0,0,0,2.017,3.669h90.535a2.389,2.389,0,0,0,2.018-3.669l-37.9-59.754A2.391,2.391,0,0,1,1151.359,191.928Z" transform="translate(-1094.689 -120.663)" fill="#ffdabf"/>
        <path id="Path_19870" data-name="Path 19870" d="M1285.088,182.231v.9a2.041,2.041,0,0,1-2.029,2.042,2.06,2.06,0,0,0-2.059,2.046v76.369a13.9,13.9,0,0,1-13.9,13.9h0a13.9,13.9,0,0,1-13.9-13.9V187.219a2.048,2.048,0,0,0-2.009-2.046,2.071,2.071,0,0,1-2.083-2.043v-.9a2.047,2.047,0,0,1,2.046-2.046h31.881A2.046,2.046,0,0,1,1285.088,182.231Z" transform="translate(-1181.273 -141.518)" fill="#ffdabf"/>
        <path id="Path_19871" data-name="Path 19871" d="M1475.37,191.853a43.889,43.889,0,0,1-19.33,36.4H1406.95a43.878,43.878,0,0,1,6.938-76.68,10.263,10.263,0,0,0,6.154-9.412v-39.6a3.018,3.018,0,0,0-3.025-3.024,3.019,3.019,0,0,1-3.024-3.019V95.187a3.019,3.019,0,0,1,3.024-3.019h28.853a3.018,3.018,0,0,1,3.019,3.019v1.334a3.029,3.029,0,0,1-2.969,3.019,3.065,3.065,0,0,0-3.08,3.024v39.6a10.27,10.27,0,0,0,6.154,9.418A43.928,43.928,0,0,1,1475.37,191.853Z" transform="translate(-1258.87 -92.168)" fill="#ffdabf"/>
      </g>
      <g id="Group_1710" data-name="Group 1710" transform="translate(59.431 4.547)">
        <g id="Group_1706" data-name="Group 1706">
          <g id="Group_1703" data-name="Group 1703" transform="translate(0 92.763)">
            <path id="Path_19872" data-name="Path 19872" d="M1204.008,270.162a1.258,1.258,0,0,1-.984.478,1.242,1.242,0,0,1-.761-.263l-14.029-10.949A1.243,1.243,0,0,1,1189,257.2a1.228,1.228,0,0,1,.765.263l14.029,10.949A1.242,1.242,0,0,1,1204.008,270.162Z" transform="translate(-1169.019 -242.59)" fill="#f58634"/>
            <path id="Path_19873" data-name="Path 19873" d="M1168.118,242.286a1.781,1.781,0,0,1-1.393.677,1.759,1.759,0,0,1-1.077-.373l-19.867-15.506a1.76,1.76,0,0,1,1.083-3.147,1.739,1.739,0,0,1,1.083.372l19.866,15.506A1.76,1.76,0,0,1,1168.118,242.286Z" transform="translate(-1145.104 -223.937)" fill="#fff"/>
            <path id="Path_19874" data-name="Path 19874" d="M1168.594,242.286l-22.641-17.672a1.761,1.761,0,0,1,2.471-.3l19.866,15.506A1.76,1.76,0,0,1,1168.594,242.286Z" transform="translate(-1145.58 -223.937)" fill="#edeeef"/>
          </g>
          <path id="Path_19875" data-name="Path 19875" d="M1326.324,149.54a53.8,53.8,0,0,1-98.219,30.419c-.218-.3-.429-.616-.632-.928l2.761-1.809,9.123-5.988c.1.156.2.3.3.452a39.612,39.612,0,0,0,72.455-22.145,39.8,39.8,0,0,0-16.25-31.978A38.79,38.79,0,0,0,1290,114c-.179-.1-.359-.187-.546-.273l6.09-12.835a52.6,52.6,0,0,1,9.061,5.466A54.115,54.115,0,0,1,1326.324,149.54Z" transform="translate(-1191.288 -62.184)" fill="#f58634"/>
          <path id="Path_19876" data-name="Path 19876" d="M1327.95,157.588a47.449,47.449,0,0,1-87.146,26l6.332-4.156,4.141-2.714a34.922,34.922,0,1,0,49.219-47.752,34.106,34.106,0,0,0-5.046-2.948l2.027-4.273,3.337-7.041a46.869,46.869,0,0,1,7.392,4.374A47.737,47.737,0,0,1,1327.95,157.588Z" transform="translate(-1198.762 -69.927)" fill="#ffa05a"/>
          <g id="Group_1704" data-name="Group 1704" transform="translate(13.37)">
            <path id="Path_19877" data-name="Path 19877" d="M1249.935,262.209l-.593.749-2.378,3.057-4.756,6.1-4,5.131a53.384,53.384,0,0,1-9.295-10.394l2.129-2.737,9.123-5.988c.1.156.2.3.3.452l4.14-2.714A34.908,34.908,0,0,0,1249.935,262.209Z" transform="translate(-1205.464 -149.074)" fill="#307ab7" opacity="0.5" style="mix-blend-mode: multiply;isolation: isolate"/>
            <path id="Path_19878" data-name="Path 19878" d="M1381.824,106.357l-3.875,4.975-4.866,6.23-2.846,3.657a34.107,34.107,0,0,0-5.046-2.948l2.027-4.273c-.179-.1-.359-.187-.546-.273l6.09-12.835A52.594,52.594,0,0,1,1381.824,106.357Z" transform="translate(-1281.874 -62.184)" fill="#f58634" style="mix-blend-mode: multiply;isolation: isolate"/>
            <path id="Path_19879" data-name="Path 19879" d="M1244,244.969l-1.191,1.535-3,3.829-14.532,18.634-10.817-8.444,14.531-18.634,3-3.829,1.191-1.535Z" transform="translate(-1197.363 -138.232)" fill="#ffa05a"/>
            <path id="Path_19880" data-name="Path 19880" d="M1409.711,25.913l-.468.632-15.271,19.581-3.724,4.755-8.643-6.769.867-1.1,2.834-3.63,15.295-19.6.469-.609,2.74,2.131Z" transform="translate(-1291.077 -16.363)" fill="#ffa05a"/>
            <path id="Path_19881" data-name="Path 19881" d="M1393.971,71.925l-3.724,4.755L1381.6,69.91l.867-1.1,2.834-3.63,1.874,1.452,6.23,4.848Z" transform="translate(-1291.077 -42.161)" fill="#f58634" style="mix-blend-mode: multiply;isolation: isolate"/>
            <path id="Path_19882" data-name="Path 19882" d="M1435.7,22.452a1.373,1.373,0,0,1-1.926.242l-9.552-7.462a1.37,1.37,0,0,1,1.684-2.16l9.559,7.454A1.375,1.375,0,0,1,1435.7,22.452Z" transform="translate(-1314.674 -12.783)" fill="#fff"/>
            <path id="Path_19883" data-name="Path 19883" d="M1433.954,25.908l-.483.624-8.64-6.753.484-.624,2.721,2.129Z" transform="translate(-1315.313 -16.356)" fill="#f55413" style="mix-blend-mode: multiply;isolation: isolate"/>
            <path id="Path_19884" data-name="Path 19884" d="M1353.546,79.694,1325.6,115.5l-16.084-12.546.424-.538,27.519-35.265a4.533,4.533,0,0,1,6.353-.785l4.156,3.247,4.791,3.741A4.513,4.513,0,0,1,1353.546,79.694Z" transform="translate(-1250.659 -42.288)" fill="#ffa05a"/>
            <path id="Path_19885" data-name="Path 19885" d="M1311.1,160.511a2.536,2.536,0,0,1-2.014.992,2.6,2.6,0,0,1-1.591-.555l-28.97-22.592a2.575,2.575,0,0,1,1.591-4.6,2.545,2.545,0,0,1,1.576.54l28.955,22.606A2.562,2.562,0,0,1,1311.1,160.511Z" transform="translate(-1232.729 -80.613)" fill="#fff"/>
            <path id="Path_19886" data-name="Path 19886" d="M1242.093,236.525l-1.191,1.535-3,3.829,6.985,5.452-2.344,2.992-12.193,15.634,3.838,3,14.532-18.634,3-3.829,1.191-1.535Z" transform="translate(-1206.27 -138.232)" fill="#f58634"/>
            <path id="Path_19887" data-name="Path 19887" d="M1225.807,208.166a3.892,3.892,0,0,1-3.043,1.478,3.842,3.842,0,0,1-2.353-.813l-43.393-33.868a3.844,3.844,0,0,1,2.366-6.875,3.8,3.8,0,0,1,2.365.813l43.392,33.868A3.843,3.843,0,0,1,1225.807,208.166Z" transform="translate(-1175.538 -99.86)" fill="#fff"/>
          </g>
          <g id="Group_1705" data-name="Group 1705" transform="translate(102.241 34.934)">
            <path id="Path_19888" data-name="Path 19888" d="M1397.994,102.382a10.08,10.08,0,1,1-10.08-10.08A10.08,10.08,0,0,1,1397.994,102.382Z" transform="translate(-1377.833 -92.302)" fill="#fff"/>
            <path id="Path_19889" data-name="Path 19889" d="M1398.929,106.7a6.694,6.694,0,1,1-6.694-6.694A6.694,6.694,0,0,1,1398.929,106.7Z" transform="translate(-1382.154 -96.623)" fill="#f58634"/>
          </g>
        </g>
        <path id="Rectangle_1223" data-name="Rectangle 1223" d="M5.254,0H19.573a5.254,5.254,0,0,1,5.254,5.254v7.285a0,0,0,0,1,0,0H0a0,0,0,0,1,0,0V5.254A5.254,5.254,0,0,1,5.254,0Z" transform="translate(77.43 49.564) rotate(37.97)" fill="#f58634"/>
        <path id="Path_19890" data-name="Path 19890" d="M1226.846,208.166l-49.454-38.6a3.847,3.847,0,0,1,5.4-.665l43.392,33.868A3.843,3.843,0,0,1,1226.846,208.166Z" transform="translate(-1163.208 -99.86)" fill="#edeeef"/>
        <path id="Path_19891" data-name="Path 19891" d="M1311.793,160.511l-33.013-25.759a2.569,2.569,0,0,1,3.6-.452l28.955,22.606A2.562,2.562,0,0,1,1311.793,160.511Z" transform="translate(-1220.054 -80.613)" fill="#dfe5ea"/>
        <path id="Path_19892" data-name="Path 19892" d="M1436.071,22.452,1424.6,13.5l-.25-.2a1.374,1.374,0,0,1,1.084-.522,1.36,1.36,0,0,1,.842.289l9.56,7.454A1.375,1.375,0,0,1,1436.071,22.452Z" transform="translate(-1301.674 -12.783)" fill="#efefef"/>
        <path id="Rectangle_1224" data-name="Rectangle 1224" d="M9.4,0H87a9.4,9.4,0,0,1,9.4,9.4v6.821a1.061,1.061,0,0,1-1.061,1.061H1.061A1.061,1.061,0,0,1,0,16.219V9.4A9.4,9.4,0,0,1,9.4,0Z" transform="translate(28.406 153.488)" fill="#ffa05a"/>
        <rect id="Rectangle_1225" data-name="Rectangle 1225" width="96.395" height="3.99" transform="translate(28.406 166.777)" fill="#f58634"/>
        <path id="Path_19893" data-name="Path 19893" d="M1269.72,312.5s15.842-1.585,24.312-10.324c4.684-4.832,8.333-15.953,10.375-22.22a9.22,9.22,0,0,1,4.377-5.247h0a9.237,9.237,0,0,1,12.89,4.475l14.311,33.316" transform="translate(-1214.975 -159.016)" fill="#f58634" stroke="rgba(0,0,0,0)" stroke-width="1"/>
        <g id="Group_1707" data-name="Group 1707" transform="translate(53.832 59.235)">
          <rect id="Rectangle_1226" data-name="Rectangle 1226" width="6.168" height="11.031" transform="translate(6.786 2.236) rotate(37.97)" fill="#fff"/>
          <rect id="Rectangle_1227" data-name="Rectangle 1227" width="2.035" height="11.031" transform="matrix(0.788, 0.615, -0.615, 0.788, 10.045, 4.779)" fill="#ffa05a"/>
          <rect id="Rectangle_1228" data-name="Rectangle 1228" width="8.189" height="2.047" transform="translate(7.249) rotate(37.97)" fill="#f58634"/>
        </g>
        <g id="Group_1708" data-name="Group 1708" transform="translate(63.003 66.388)">
          <rect id="Rectangle_1229" data-name="Rectangle 1229" width="6.168" height="11.031" transform="translate(6.787 2.236) rotate(37.97)" fill="#fff"/>
          <rect id="Rectangle_1230" data-name="Rectangle 1230" width="2.035" height="11.031" transform="matrix(0.788, 0.615, -0.615, 0.788, 10.045, 4.779)" fill="#ffa05a"/>
          <rect id="Rectangle_1231" data-name="Rectangle 1231" width="8.189" height="2.047" transform="translate(7.249 0) rotate(37.97)" fill="#f58634"/>
        </g>
        <g id="Group_1709" data-name="Group 1709" transform="translate(72.174 73.54)">
          <rect id="Rectangle_1232" data-name="Rectangle 1232" width="6.168" height="11.031" transform="translate(6.786 2.236) rotate(37.97)" fill="#fff"/>
          <rect id="Rectangle_1233" data-name="Rectangle 1233" width="2.035" height="11.031" transform="matrix(0.788, 0.615, -0.615, 0.788, 10.045, 4.779)" fill="#ffa05a"/>
          <rect id="Rectangle_1234" data-name="Rectangle 1234" width="8.189" height="2.047" transform="translate(7.249 0) rotate(37.97)" fill="#f58634"/>
        </g>
        <circle id="Ellipse_4026" data-name="Ellipse 4026" cx="8.698" cy="8.698" r="8.698" transform="matrix(0.168, -0.986, 0.986, 0.168, 88.523, 135.284)" fill="#c75400"/>
        <path id="Path_20058" data-name="Path 20058" d="M6.452,0A6.452,6.452,0,1,1,0,6.452,6.452,6.452,0,0,1,6.452,0Z" transform="translate(91.151 133.499) rotate(-80.74)" fill="#ffa05a"/>
        <path id="Path_19894" data-name="Path 19894" d="M1224.742,283.849a2.2,2.2,0,1,1-2.2-2.2A2.2,2.2,0,0,1,1224.742,283.849Z" transform="translate(-1187.292 -163.534)" fill="#fff"/>
        <circle id="Ellipse_4028" data-name="Ellipse 4028" cx="1.208" cy="1.208" r="1.208" transform="translate(34.045 119.106)" fill="#f9cb44"/>
      </g>
      <g id="Group_1713" data-name="Group 1713" transform="translate(35.99 90.781)">
        <g id="Group_1711" data-name="Group 1711" transform="translate(2.128)">
          <rect id="Rectangle_1235" data-name="Rectangle 1235" width="32.656" height="10.716" rx="2.201" transform="translate(0 2.931) rotate(-5.149)" fill="#ffa05a"/>
          <path id="Path_19895" data-name="Path 19895" d="M1126.482,225.69" transform="translate(-1113.349 -218.391)" fill="none" stroke="#eb5d62" stroke-linecap="round" stroke-miterlimit="10" stroke-width="2.192"/>
          <path id="Path_19896" data-name="Path 19896" d="M1102.127,227.884" transform="translate(-1099.694 -219.621)" fill="none" stroke="#eb5d62" stroke-linecap="round" stroke-miterlimit="10" stroke-width="2.192"/>
        </g>
        <g id="Group_1712" data-name="Group 1712" transform="translate(25.849 9.148)">
          <path id="Path_19897" data-name="Path 19897" d="M1150.729,234.991s.03-.459.062-.93a1.876,1.876,0,0,0-.186-.825,3.7,3.7,0,0,1,0-.76l.612-.055a8.913,8.913,0,0,0,.515-.856.908.908,0,0,0,.113-.422,4.946,4.946,0,0,1,.033-.649c.026-.307.275-.421.371-.055a4.261,4.261,0,0,1,.08.985,5.731,5.731,0,0,1-.323.948s.935.539.962.717-.4.894-.733,2.19" transform="translate(-1150.584 -230.074)" fill="#fe9393"/>
          <path id="Path_19898" data-name="Path 19898" d="M1153.779,230.384s-.095-.43.1-.481c.16-.043.256.3.3.481s.137.776.172.976a7.205,7.205,0,0,1-.426,1.354l-.529-.467.261-1.347" transform="translate(-1152.163 -229.9)" fill="#fe9393"/>
          <path id="Path_19899" data-name="Path 19899" d="M1154.608,231.092s-.028-.316.123-.385.234.2.282.385.137.777.172.976a7.214,7.214,0,0,1-.426,1.354l-.529-.467.261-1.347" transform="translate(-1152.628 -230.346)" fill="#fe9393"/>
          <path id="Path_19900" data-name="Path 19900" d="M1155.85,231.808a2.309,2.309,0,0,0,.06.565,1.142,1.142,0,0,1-.151.445l-.346,1,.171.43.54-1.255.092-.257a.838.838,0,0,0,.023-.461C1156.161,231.943,1156.007,231.439,1155.85,231.808Z" transform="translate(-1153.291 -230.897)" fill="#fe9393"/>
        </g>
        <path id="Path_19901" data-name="Path 19901" d="M1114.123,239.223a12.8,12.8,0,0,0,.509-1.462c-.009-.165-.33-1.032-.376-1.2a3.769,3.769,0,0,1,.163-1.407c.137-.192.275-.055.329.138a3.206,3.206,0,0,1,.09.708,2,2,0,0,0,.3.551l1.517-.137.537-.048a6.154,6.154,0,0,1-.206.761,1.672,1.672,0,0,1-.481.612,8.568,8.568,0,0,0-.68,1.656" transform="translate(-1104.292 -223.646)" fill="#fe9393"/>
        <path id="Path_19902" data-name="Path 19902" d="M1127.294,387.631v2.213a2.836,2.836,0,0,0,1.539,0l.289-2.213" transform="translate(-1111.677 -309.189)" fill="#fe9393"/>
        <path id="Path_19903" data-name="Path 19903" d="M1094.632,383.868l-.579,2.136a2.835,2.835,0,0,0,1.486.4l.857-2.06" transform="translate(-1093.039 -307.079)" fill="#fe9393"/>
        <path id="Path_19904" data-name="Path 19904" d="M1110.276,243.851a8.888,8.888,0,0,1,1.952.405,49.847,49.847,0,0,1-1.729,7.412c-.692,1.658.63,6.113.63,6.113l-2.511,1.7s-1.172-6.029-1.319-7.532S1110.276,243.851,1110.276,243.851Z" transform="translate(-1100.463 -228.574)" fill="#fff"/>
        <path id="Path_19905" data-name="Path 19905" d="M1106.042,312.063a36.8,36.8,0,0,1-.818,6.654c-.4,1.993-.9,4.064-1.425,6.012s-1.064,3.786-1.544,5.291c-1.557,4.873-5.918,14.267-5.918,14.267a5.211,5.211,0,0,1-2.474-.732s2.309-10.931,3.884-14.252c.114-.831.171-5.484.589-8.91a21.651,21.651,0,0,0-.075-5.256,11.143,11.143,0,0,1,.489-4.543Z" transform="translate(-1092.933 -265.995)" fill="#00803d"/>
        <path id="Path_19906" data-name="Path 19906" d="M1115.513,324.565c-.4,1.993-.9,4.064-1.425,6.012a41.064,41.064,0,0,1-1.873-9.553S1114.555,323.633,1115.513,324.565Z" transform="translate(-1103.222 -271.844)" fill="#102772"/>
        <path id="Path_19907" data-name="Path 19907" d="M1120.941,308.771s1.162,13.634,1.235,18.912-1.387,15.579-1.387,15.579a4.35,4.35,0,0,1-2.4-.076s-1.307-11.125-.7-15.4c0,0-2.844-6.548-4.275-10.989-.274-.848-.748-2.478-.942-3.189a7.238,7.238,0,0,1,1.979-7.183" transform="translate(-1103.214 -263.659)" fill="#00803d"/>
        <path id="Path_19908" data-name="Path 19908" d="M1117.351,240.612a81.944,81.944,0,0,1-2.932,9.309c-3.436,2.32-6.852,4.932-6.852,4.932l-3.52-.937c-1.76,1.035-3.042,3.409-3.812,7.422s-8.491,25.5-8.491,25.5c7.263,3.848,20.437.824,20.437.824s-1.763-19.92-1.754-24.23a9.949,9.949,0,0,1,3.22-7.287,23.654,23.654,0,0,0,3.74-4.155c1.43-3.612,2.144-11,2.144-11A3.052,3.052,0,0,0,1117.351,240.612Z" transform="translate(-1091.745 -226.726)" fill="#fff"/>
        <path id="Path_19909" data-name="Path 19909" d="M1124.738,268.941a3.662,3.662,0,0,0-.167,1.292,2.359,2.359,0,0,1-2.055-.277c-1-.686.015-1.975.015-1.975h2.608A4.751,4.751,0,0,0,1124.738,268.941Z" transform="translate(-1108.752 -242.103)" fill="#fe9393"/>
        <path id="Path_19910" data-name="Path 19910" d="M1126.905,267.982a4.751,4.751,0,0,0-.4.959,1.952,1.952,0,0,1-1.277-.3s.239-.349.455-.66Z" transform="translate(-1110.517 -242.103)" fill="#e15f60"/>
        <path id="Path_19911" data-name="Path 19911" d="M1123.374,255.453a12.086,12.086,0,0,1,1,3,2.191,2.191,0,0,1-.88,2.147,5.107,5.107,0,0,1-.771.458,1.952,1.952,0,0,1-2.232-.38,5.994,5.994,0,0,1-1.029-1.438C1117.978,256.406,1121.236,253.253,1123.374,255.453Z" transform="translate(-1107.077 -234.665)" fill="#fe9393"/>
        <path id="Path_19912" data-name="Path 19912" d="M1113.446,249.543a2.343,2.343,0,0,1,1.233.906,2.952,2.952,0,0,1-1.8,4.435,25.231,25.231,0,0,0-.125,3.482c-.077,1.561,1.312,8.132-1.373,9.364-.729.334-1.672-.21-3.137.677s-4.9.116-4.2-3.084,4.018-4.484,4.982-7.568c.32-1.024-.408-1.809-.614-2.535a4.165,4.165,0,0,1,.592-3.668A4.443,4.443,0,0,1,1113.446,249.543Z" transform="translate(-1098.59 -231.712)"/>
        <path id="Path_19913" data-name="Path 19913" d="M1123.608,261.8s-.223-.458-.543-.2c-.391.311.037,1.706.4,1.469" transform="translate(-1109.218 -238.477)" fill="#fe9393"/>
        <path id="Path_19914" data-name="Path 19914" d="M1126.068,392.9a1.274,1.274,0,0,1,.539-.912s.226-.2.883,0c.2.062.478.3.656.247,0,0,.408.637.783,1.388a5.259,5.259,0,0,0,.683,1.143c.338.371.848.46.87.721.03.34.055.419-.87.419a4.981,4.981,0,0,1-1.613-.666C1127.651,394.886,1126.068,392.9,1126.068,392.9Z" transform="translate(-1110.989 -311.583)" fill="#2b2b2b"/>
        <path id="Path_19915" data-name="Path 19915" d="M1128.075,396.749a1.173,1.173,0,0,1-1.01-.573,17.431,17.431,0,0,1-1.009-1.956c-.339-1,.981-.944,1.3-.586a11.427,11.427,0,0,1,1.04,1.828c.362.715.628,1.14,1.177,1.287Z" transform="translate(-1110.951 -312.423)"/>
        <path id="Path_19916" data-name="Path 19916" d="M1094.276,388.408a1.494,1.494,0,0,1,.115.7c-.036.367-.307,3.97-.754,4.261a1.176,1.176,0,0,1-.667.122c-.422,0-.6-.647-1-1.652-.413-1.032.028-2.682.174-3.574a2.682,2.682,0,0,1,.531-.632.749.749,0,0,1,.568-.187c.3.025.718.152.679.666C1093.915,388.223,1093.885,388.308,1094.276,388.408Z" transform="translate(-1091.776 -309.081)" fill="#2b2b2b"/>
        <path id="Path_19917" data-name="Path 19917" d="M1091.953,389.235a.761.761,0,0,1,.716-.632c.4-.051.978.34.937,1.275s-.08,3.457-.16,3.779c-.183.742-1.005.544-1.266-.06A7.884,7.884,0,0,1,1091.953,389.235Z" transform="translate(-1091.745 -309.732)"/>
        <path id="Path_19918" data-name="Path 19918" d="M1111.529,252.3a12.572,12.572,0,0,1-1.019.872,5.153,5.153,0,0,0-1.533,1.922c-.892,2,.549,3.7.183,4.32s-1.843.732-1.946,2.014.47,1.586,0,2.807,1.853.927,2.467.2,1.284-1.538,2.065-2.6a9.575,9.575,0,0,0,1.4-3.478,9.671,9.671,0,0,0-.7-2.783A22.6,22.6,0,0,1,1111.529,252.3Z" transform="translate(-1100.384 -233.314)"/>
      </g>
      <g id="Group_1718" data-name="Group 1718" transform="translate(126.483 92.422)">
        <g id="Group_1714" data-name="Group 1714" transform="translate(15.57 59.114)">
          <path id="Path_19919" data-name="Path 19919" d="M1343.014,347.674l.234,2.349a2.084,2.084,0,0,1-1.976.287l-.6-2.94" transform="translate(-1337.379 -347.37)" fill="#ff9393"/>
          <path id="Path_19920" data-name="Path 19920" d="M1339.043,353.409a4.7,4.7,0,0,1-1.976.287s-.94.876-1.347,1.344-.758.924-1.2.982-1.181.354-1.324.7.267.532,1.887.532a3.651,3.651,0,0,0,1.6-.238c.718-.32.958-.772,1.306-.934s1.441-.4,1.7-.578A1.816,1.816,0,0,0,1339.043,353.409Z" transform="translate(-1333.174 -350.756)" fill="#2b2b2b"/>
        </g>
        <g id="Group_1715" data-name="Group 1715" transform="translate(23.039 60.364)">
          <path id="Path_19921" data-name="Path 19921" d="M1361.606,350.853l-.106,2.358a2.084,2.084,0,0,1-2,0l-.17-3" transform="translate(-1355.31 -350.216)" fill="#ff9393"/>
          <path id="Path_19922" data-name="Path 19922" d="M1356.366,357.034a1.876,1.876,0,0,1,.467.957,4.292,4.292,0,0,1-.073,1.235c0,.127-.51.187-1.211.2s-1.088-.058-1.378-.064c-.465-.009-1.49.043-2.1.064a5.652,5.652,0,0,1-1.71-.17c-.255-.117-.485-.721.978-1.073a11.661,11.661,0,0,0,2.2-.818,5.659,5.659,0,0,1,.831-.329A8.331,8.331,0,0,0,1356.366,357.034Z" transform="translate(-1350.176 -354.039)" fill="#2b2b2b"/>
        </g>
        <path id="Path_19923" data-name="Path 19923" d="M1321.112,283.933a4.645,4.645,0,0,1-1.1,1.694,8.919,8.919,0,0,1-1.149.691c-.15.086-1.313.2-1.6.286s-.119.275.486.361c.648.093,1.973.305,2.526.305a1.444,1.444,0,0,0,1.1-.545c.3-.4.36-.923.57-1.154" transform="translate(-1308.606 -252.688)" fill="#ff9393"/>
        <path id="Path_19924" data-name="Path 19924" d="M1358.31,279.67a5.8,5.8,0,0,1,1.015,3.563,51.58,51.58,0,0,1-1.592,9.884,5.857,5.857,0,0,1-1.582,2.885c-.908.814-3.1.061-3.45-1.349-.658-2.668-2.078-14.119-2.078-14.119S1356.092,279.131,1358.31,279.67Z" transform="translate(-1327.387 -250.229)" fill="#1d27a5"/>
        <path id="Path_19925" data-name="Path 19925" d="M1347.887,285.372a27.044,27.044,0,0,1-1.741,3.852c-.714,1.36-1.494,2.73-2.091,3.715-.364.608-.659,1.068-.828,1.291a5.876,5.876,0,0,1-2.421,2.229c-1.119.481-2.96-.93-2.84-2.38.226-2.737,2.534-14.04,2.534-14.04s5.631.412,7.561,1.631A5.807,5.807,0,0,1,1347.887,285.372Z" transform="translate(-1320.288 -250.505)" fill="#1d27a5"/>
        <path id="Path_19926" data-name="Path 19926" d="M1353.612,293.094c-.714,1.36-1.494,2.73-2.091,3.715-.185-3.688-.244-9.868-.244-9.868Z" transform="translate(-1327.754 -254.375)" fill="#04207a"/>
        <path id="Path_19927" data-name="Path 19927" d="M1357.188,315.087a14.221,14.221,0,0,1-2.522.077s-.558-3.682-.833-5.925c-.25-2.041-2.565-22.573-2.556-23.625s4.315,6.24,7.706,6.83l-1.245,8.735s-.15,2.992-.042,5.223S1357.182,314.1,1357.188,315.087Z" transform="translate(-1327.754 -253.572)" fill="#00803d"/>
        <path id="Path_19928" data-name="Path 19928" d="M1330.606,252.82s-.93,2.761-1.427,4.664c-.171.654-.705,2.61-.705,2.61a26.709,26.709,0,0,0-1.459,2.341c-.735,1.452-2.719,5.918-2.719,5.918l1.173.32s4.446-4.864,5.39-6.081a28.331,28.331,0,0,0,2.321-4.807" transform="translate(-1312.627 -235.243)" fill="#ff9393"/>
        <path id="Path_19929" data-name="Path 19929" d="M1329.7,259.747s-.9,3.606-1.117,4.119-3.569,7.2-3.569,7.2a7.351,7.351,0,0,0,1.794,1.22s4.393-4.631,5.162-5.894a23.95,23.95,0,0,0,1.556-4.855" transform="translate(-1313.03 -239.127)" fill="#f2e9e9"/>
        <path id="Path_19930" data-name="Path 19930" d="M1302.691,266.956a4.141,4.141,0,0,1-1.624-.135c-.706-.183-1.1.177-1.851.46a5.678,5.678,0,0,0-1.474.6c-.007.119-.071.251.283.259a15.5,15.5,0,0,0,1.666-.377c.141-.008.228.283.417.425s.1.271.267.407.125.316.337.41.269.272.752.172.8-.587,1.556-.711" transform="translate(-1297.732 -243.065)" fill="#ff9393"/>
        <g id="Group_1717" data-name="Group 1717" transform="translate(4.847)">
          <path id="Path_19931" data-name="Path 19931" d="M1331.4,230.349l0,0a2.368,2.368,0,0,1,1.288.645,4.089,4.089,0,0,1,.955,1.386,1.324,1.324,0,0,0,.348.828c.354.379,2.707-.059,3.448-.636s1.023-1.276.593-1.582a8.156,8.156,0,0,0-1.081-.52,4.665,4.665,0,0,1-1.336-.946,2.853,2.853,0,0,1-.509-1.162,7.65,7.65,0,0,1-.079-1.547l-1.307-.021S1329.841,230.121,1331.4,230.349Z" transform="translate(-1321.25 -220.652)" fill="#ff9393"/>
          <path id="Path_19932" data-name="Path 19932" d="M1331.882,231.959a2.367,2.367,0,0,1,1.288.645,4.146,4.146,0,0,0,1.454-2.942l-2.541,1.787S1331.987,231.667,1331.882,231.959Z" transform="translate(-1321.727 -222.259)" fill="#ff5f60"/>
          <path id="Path_19933" data-name="Path 19933" d="M1324.886,219.909s.615,5.092,1.564,6.316c0,0,2.109.218,4.34-2.387s-.241-5.169-1.078-5.708S1325.377,217.257,1324.886,219.909Z" transform="translate(-1317.804 -215.584)" fill="#ff9393"/>
          <path id="Path_19934" data-name="Path 19934" d="M1350.438,256.488c-4.459,2.508-10.855-1.186-10.855-1.186s-.268,0-.382-.5c-.369-1.612-.989-5.483-1.353-6.779-.048-.167-.1-.338-.154-.518-.229-.782-.5-1.661-.743-2.583a17.492,17.492,0,0,1-.593-3.409,16.418,16.418,0,0,1,.329-4.1,4.373,4.373,0,0,0,3.247-2.245c2.544.615,4.806,4.011,5.75,6.572.782,2.126,3.523,9.494,4.991,12.384C1351.014,254.727,1350.438,256.488,1350.438,256.488Z" transform="translate(-1324.227 -225.344)" fill="#fff"/>
          <path id="Path_19935" data-name="Path 19935" d="M1330.53,218.734a4.254,4.254,0,0,0-.553,1.419c-.052.265-.143.479-.3.454-.393-.063-.348-.655-.534-1.1s-.38-.308-.652-.646-.148-.849-.474-1.139-.808-.127-.768.324.191,1.068-.011.991-.48-.982-.651-1.186-.437.089-.89.241-.455-.243-1.09-.663-.937.271-1.518.412-1.922-1.223-1.5-1.964,1.473-.153,1.839-.565-.187-1.842,1.461-2.4c1.516-.517,2.4,1.166,2.96,1.425s1.253-.494,2.135.09.073,2.1.256,2.856a6.272,6.272,0,0,1,.381,1.192A.59.59,0,0,1,1330.53,218.734Z" transform="translate(-1315.91 -212.811)"/>
          <path id="Path_19936" data-name="Path 19936" d="M1342.629,250.614s-.479,2.065-4.156,5.553c-.228-.782-.5-1.661-.742-2.583a29.416,29.416,0,0,1,3.031-2.741Z" transform="translate(-1325.006 -234.007)" fill="#e4f9f9"/>
          <g id="Group_1716" data-name="Group 1716" transform="translate(0.098 13.612)">
            <path id="Path_19937" data-name="Path 19937" d="M1337.246,245.953s-5.142,6.808-6.618,7.525-2.632-1.057-2.166-2.32,5.2-7.362,5.2-7.362" transform="translate(-1319.849 -243.796)" fill="#ff9393"/>
            <path id="Path_19938" data-name="Path 19938" d="M1318.035,259.1s-1.953.8-3.79,1.667a48.843,48.843,0,0,1-5.242,1.889s-.115,1.064.329,1.511c0,0,.75-.116,2.824-.466s6.732-.764,7.861-1.795" transform="translate(-1308.989 -252.376)" fill="#ff9393"/>
          </g>
          <path id="Path_19939" data-name="Path 19939" d="M1325.688,240.823s1.41.152,1.841,2.216c.348,1.666-4.709,6.533-7.156,8.769a69.782,69.782,0,0,1-10.764,2.4,3.511,3.511,0,0,1-.842-2s8.637-3.662,8.786-3.855C1318.815,246.719,1322.962,240.248,1325.688,240.823Z" transform="translate(-1308.766 -228.497)" fill="#fff"/>
        </g>
        <path id="Path_19940" data-name="Path 19940" d="M1338.909,284.664s-3.049,12.664-3.151,13.338c-.246,1.639,2.177,15.745,2.177,15.745a8.967,8.967,0,0,0,2.6-.349s.182-6.034.182-8.032c0-2.636.192-5.738.055-8.182" transform="translate(-1319.043 -253.098)" fill="#00803d"/>
        <path id="Path_19941" data-name="Path 19941" d="M1342.282,272.306s.359,8.2.542,12.081a40.328,40.328,0,0,1,.038,4.43,34.1,34.1,0,0,0,12.668-.1s.214-4.414-.072-8.736a21.981,21.981,0,0,0-1.814-7.434c-.521-1.179-1.011-2.149-1.352-3" transform="translate(-1322.711 -244.62)" fill="#fff"/>
      </g>
      <g id="Group_1719" data-name="Group 1719" transform="translate(174.859 69.724)">
        <path id="Path_19942" data-name="Path 19942" d="M1422.069,266.809l-14.22-105.665H1435.3l14.22,105.665" transform="translate(-1407.849 -161.144)" fill="none" stroke="#fff" stroke-miterlimit="10" stroke-width="2"/>
        <line id="Line_164" data-name="Line 164" x2="27.453" fill="none" stroke="#fff" stroke-miterlimit="10" stroke-width="2"/>
        <line id="Line_165" data-name="Line 165" x2="27.453" transform="translate(1.788 10.963)" fill="none" stroke="#fff" stroke-miterlimit="10" stroke-width="2"/>
        <line id="Line_166" data-name="Line 166" x2="27.453" transform="translate(3.075 21.927)" fill="none" stroke="#fff" stroke-miterlimit="10" stroke-width="2"/>
        <line id="Line_167" data-name="Line 167" x2="27.453" transform="translate(4.613 32.89)" fill="none" stroke="#fff" stroke-miterlimit="10" stroke-width="2"/>
        <line id="Line_168" data-name="Line 168" x2="27.453" transform="translate(5.883 43.854)" fill="none" stroke="#fff" stroke-miterlimit="10" stroke-width="2"/>
        <line id="Line_169" data-name="Line 169" x2="27.453" transform="translate(7.542 54.817)" fill="none" stroke="#fff" stroke-miterlimit="10" stroke-width="2"/>
        <line id="Line_170" data-name="Line 170" x2="27.453" transform="translate(8.86 65.781)" fill="none" stroke="#fff" stroke-miterlimit="10" stroke-width="2"/>
        <line id="Line_171" data-name="Line 171" x2="27.453" transform="translate(10.397 76.744)" fill="none" stroke="#fff" stroke-miterlimit="10" stroke-width="2"/>
        <line id="Line_172" data-name="Line 172" x2="27.453" transform="translate(12.008 87.708)" fill="none" stroke="#fff" stroke-miterlimit="10" stroke-width="2"/>
      </g>
      <g id="Group_1723" data-name="Group 1723" transform="translate(180.019 49.704)">
        <g id="Group_1720" data-name="Group 1720" transform="translate(6.582 48.173)">
          <path id="Path_19943" data-name="Path 19943" d="M1442.258,225.227l.98,2.207a2.27,2.27,0,0,1-2.068.241l-1.341-1.871" transform="translate(-1437.521 -225.227)" fill="#fe9393"/>
          <path id="Path_19944" data-name="Path 19944" d="M1440.093,229.221a4.8,4.8,0,0,1,.712,1.33,3.662,3.662,0,0,1,.013,1.127c.009.121-.467.268-1.134.327a4.97,4.97,0,0,1-1.3-.1c-.276-.02-1.433.28-2.008.343a5.4,5.4,0,0,1-1.64-.041c-.251-.094-.362-.9.854-1.09a6.535,6.535,0,0,0,2.033-.934,2.084,2.084,0,0,1,.6-.272S1439.83,229.791,1440.093,229.221Z" transform="translate(-1434.576 -227.466)" fill="#2b2b2b"/>
        </g>
        <g id="Group_1721" data-name="Group 1721" transform="translate(18.11 58.243)">
          <path id="Path_19945" data-name="Path 19945" d="M1467.665,248.149l.65,2.157a1.988,1.988,0,0,1-1.8.631l-1.1-2.644" transform="translate(-1463.396 -248.149)" fill="#fe9393"/>
          <path id="Path_19946" data-name="Path 19946" d="M1466.46,253.774a1.79,1.79,0,0,0-.723-.714,7.951,7.951,0,0,1-1.8.631,5.363,5.363,0,0,0-.644.559c-.26.263-.566.585-.9.871a2.712,2.712,0,0,1-.513.105c-1.226.11-1.17.92-.926,1.03a5.373,5.373,0,0,0,1.633.152,2.056,2.056,0,0,0,.485-.041,13.11,13.11,0,0,1,1.4-.652,4.97,4.97,0,0,0,1.279-.245c.628-.232,1.05-.5,1.01-.612A3.658,3.658,0,0,0,1466.46,253.774Z" transform="translate(-1460.819 -250.903)" fill="#2b2b2b"/>
        </g>
        <path id="Path_19947" data-name="Path 19947" d="M1452.607,217.546c2.58,6.448,6.137,14.272,6.137,14.272s1.454.155,2.073-.632c0,0-1.1-7.678-1.759-9.538s-2.328-5.322-2.328-5.322Z" transform="translate(-1438.104 -172.064)" fill="#00803d"/>
        <path id="Path_19948" data-name="Path 19948" d="M1452.509,186.633c-.058,1.222-.209,7.445-.209,7.445l-4.258.6c-.321-1.363-.627-2.662-.9-3.8-.292-1.265-.535-2.341-.7-3.105-.019-.083-.034-.165-.054-.243-1-4.764-1.6-9.042-1.6-9.042l6.827-1.654a9.789,9.789,0,0,1,1.066,4.234A36.309,36.309,0,0,1,1452.509,186.633Z" transform="translate(-1433.722 -149.925)" fill="#00803d"/>
        <path id="Path_19949" data-name="Path 19949" d="M1439.949,119.826s0,5.535.852,5.81a5.124,5.124,0,0,0,4.969-3.353c1.281-3.562-1.26-4.8-2.572-4.738S1440.074,117.483,1439.949,119.826Z" transform="translate(-1431.007 -116.677)" fill="#fe9393"/>
        <path id="Path_19950" data-name="Path 19950" d="M1434.925,178.018a9.914,9.914,0,0,1-2.675,3.453,43.18,43.18,0,0,1-4.354,3.466c-.417.294-1.555,1.081-2.737,1.893-1.652,1.147-3.392,2.346-3.392,2.346l-1.661-1.586a3.431,3.431,0,0,1-.408-1.994,4.594,4.594,0,0,1,1-2.359c.009-.009.018-.022.026-.031s.009-.009.009-.013c.98-1.05,1.775-1.766,2.39-2.5,3.189-3.818,6.291-7.025,6.291-7.025Z" transform="translate(-1419.643 -148.144)" fill="#00803d"/>
        <path id="Path_19951" data-name="Path 19951" d="M1431.121,209.281c-.255.9-2.135,1.63-2.135,1.63s-4.112-4.863-8.25-9.485a4.42,4.42,0,0,1-.628-.9,3.431,3.431,0,0,1-.408-1.994l2.478-1.8s1.652,1.6,2.983,3.031c.386.417.747.822,1.032,1.164C1427.453,202.449,1431.121,209.281,1431.121,209.281Z" transform="translate(-1419.643 -161.079)" fill="#00803d"/>
        <path id="Path_19952" data-name="Path 19952" d="M1445.14,131.367a4.99,4.99,0,0,1,.271,2.367,5.254,5.254,0,0,0,2.874,0,20.05,20.05,0,0,1,0-4.832" transform="translate(-1433.917 -123.046)" fill="#fe9393"/>
        <path id="Path_19953" data-name="Path 19953" d="M1437.109,116.986a2.954,2.954,0,0,0,2.862,2.8s.271.114.292.843c0,0,.031-.688.458-.573s.406,1.187.208,1.426a4.77,4.77,0,0,0,.385,2.239,9.578,9.578,0,0,0,2.32,0c.356-.1,1.293-1.979,1.585-3.624s.163-2.047-.691-2.421c0,0,.357-1.161-1.476-1.911S1437.782,116.7,1437.109,116.986Z" transform="translate(-1429.415 -115.573)"/>
        <path id="Path_19954" data-name="Path 19954" d="M1457.815,150.183a2.717,2.717,0,0,1-1.151,1.151,3.856,3.856,0,0,1-.347.193,7.226,7.226,0,0,1-.791.338c-.1.035-.2.07-.29.1-.136.044-.255.075-.356.105l-.286.07-2.073-5.008,3.84-6.765a.942.942,0,0,1,.079.105,3.653,3.653,0,0,1,.531,1.2v.009c.018.083.04.171.057.259a.015.015,0,0,0,0,.009C1457.49,144.142,1458.237,149.264,1457.815,150.183Z" transform="translate(-1438.056 -129.473)" fill="#fff"/>
        <path id="Path_19955" data-name="Path 19955" d="M1460.129,156.268a3.841,3.841,0,0,1-.347.193,7.239,7.239,0,0,1-.791.338c-.1.035-.2.07-.29.1l.422-7.732Z" transform="translate(-1441.521 -134.407)" fill="#dfe5ea"/>
        <path id="Path_19956" data-name="Path 19956" d="M1447.419,154.59c.062.608.109,1.033-.3,1.259s-7.822,1.064-10.976.181c0,0-.339-.145-.156-.664a3.914,3.914,0,0,0,.186-1.249c.039-2.934-.227-11.3.329-15.793a23.4,23.4,0,0,1,6.515-.8,11.637,11.637,0,0,1,2.658.335l.259.065s.008,0,.011.005a2.438,2.438,0,0,1,1.2.935h0a30,30,0,0,0-.766,3.538C1446.16,143.983,1447.3,153.393,1447.419,154.59Z" transform="translate(-1428.755 -127.873)" fill="#fff"/>
        <path id="Path_19957" data-name="Path 19957" d="M1452.194,216.1a4.212,4.212,0,0,0,.181.726c.111.278,2.392.325,2.392.325l.928-.367.8-1.177a1.776,1.776,0,0,1-.039-.474c.008-.31-3.182.251-3.182.251" transform="translate(-1437.873 -171.34)" fill="#00803d"/>
        <g id="Group_1722" data-name="Group 1722" transform="translate(0 7.881)">
          <path id="Path_19958" data-name="Path 19958" d="M1420.7,139.468l-.152-1.764a1.686,1.686,0,0,1-.433-.552,5.617,5.617,0,0,1-.218-1.128,2.239,2.239,0,0,1,.4-.411,3.806,3.806,0,0,1,.735-.272,1.6,1.6,0,0,0-.1-.659,2.336,2.336,0,0,1-.268-1.026s.05-.145.137-.145a5.208,5.208,0,0,1,.572.928c.05.087.187.873.228.937a2.829,2.829,0,0,1,.573.819c.127.382-.145,1.11-.186,1.506a6.228,6.228,0,0,0,.273,1.456" transform="translate(-1419.764 -133.511)" fill="#fe9393"/>
          <path id="Path_19959" data-name="Path 19959" d="M1420.028,139.084s.046.411.053.593-.152.289-.213.213a1.964,1.964,0,0,1-.274-.646,5.329,5.329,0,0,1,.133-.579,2.681,2.681,0,0,1,.132-.369.157.157,0,0,1,.268,0" transform="translate(-1419.594 -136.151)" fill="#fe9393"/>
          <path id="Path_19960" data-name="Path 19960" d="M1421.115,137.913a.33.33,0,0,0-.317-.113c-.1.023-.237.225-.237.225l.107.122" transform="translate(-1420.137 -135.912)" fill="#fe9393"/>
          <path id="Path_19961" data-name="Path 19961" d="M1421.976,137.653a.33.33,0,0,0-.317-.112c-.1.023-.237.225-.237.225l.107.122" transform="translate(-1420.619 -135.767)" fill="#fe9393"/>
        </g>
        <path id="Path_19962" data-name="Path 19962" d="M1424.2,150.714c-.092.672-2.253,4.365-2.443,3.616-.6-2.355-.6-9.392-.6-9.392a3.79,3.79,0,0,1,1.864-.243s.472,1.786.822,3.441c.122.574.229,1.139.3,1.6A4.023,4.023,0,0,1,1424.2,150.714Z" transform="translate(-1420.468 -131.885)" fill="#fff"/>
        <path id="Path_19963" data-name="Path 19963" d="M1425.713,154.161c-.715,1.275-1.966,3.4-1.713,2.195a20.579,20.579,0,0,1,1.416-3.8C1425.538,153.134,1425.645,153.7,1425.713,154.161Z" transform="translate(-1422.046 -136.311)" fill="#dfe5ea"/>
        <path id="Path_19964" data-name="Path 19964" d="M1428.886,139.361s2.111.617,2.473,2.357-5.913,10.461-7.714,10.452c-1.122-.005-1.678-1.087-1-2.331C1423.838,147.664,1426.982,139.792,1428.886,139.361Z" transform="translate(-1421.14 -128.91)" fill="#fff"/>
        <path id="Path_19965" data-name="Path 19965" d="M1433.622,169.913a28.8,28.8,0,0,1-.461,4.68c-.686,3.809-1.478,9.854-1.77,12.48a13.431,13.431,0,0,0,9.139,2.662,31.582,31.582,0,0,0,6.42-1.151l-2.2-17.023Z" transform="translate(-1426.209 -146.04)" fill="#fff"/>
      </g>
      <g id="Group_1728" data-name="Group 1728" transform="translate(198.28 48.216)">
        <g id="Group_1725" data-name="Group 1725">
          <g id="Group_1724" data-name="Group 1724">
            <rect id="Rectangle_1236" data-name="Rectangle 1236" width="8.097" height="4.897" rx="1.646" fill="#f58634"/>
            <path id="Path_19966" data-name="Path 19966" d="M1464.12,122.254s.181,1.684-.849,1.858c0,0,2.052.468,2.005-1.858" transform="translate(-1462.345 -117.83)" fill="#f58634"/>
          </g>
        </g>
        <g id="Group_1727" data-name="Group 1727" transform="translate(1.215 2.034)">
          <g id="Group_1726" data-name="Group 1726">
            <path id="Path_19967" data-name="Path 19967" d="M1464.848,117.275a.46.46,0,1,1-.46-.46A.46.46,0,0,1,1464.848,117.275Z" transform="translate(-1463.928 -116.815)" fill="#fff"/>
            <path id="Path_19968" data-name="Path 19968" d="M1470.251,117.275a.46.46,0,1,1-.46-.46A.46.46,0,0,1,1470.251,117.275Z" transform="translate(-1466.957 -116.815)" fill="#fff"/>
            <path id="Path_19969" data-name="Path 19969" d="M1475.655,117.275a.46.46,0,1,1-.46-.46A.46.46,0,0,1,1475.655,117.275Z" transform="translate(-1469.987 -116.815)" fill="#fff"/>
          </g>
        </g>
      </g>
      <g id="Group_1733" data-name="Group 1733" transform="translate(246.857 99.5)">
        <g id="Group_1730" data-name="Group 1730">
          <g id="Group_1729" data-name="Group 1729">
            <rect id="Rectangle_1237" data-name="Rectangle 1237" width="11.96" height="7.234" rx="2.432" fill="#f58634"/>
            <path id="Path_19970" data-name="Path 19970" d="M1576.1,243.8s.267,2.488-1.254,2.745c0,0,3.031.691,2.962-2.745" transform="translate(-1573.483 -237.262)" fill="#f58634"/>
          </g>
        </g>
        <g id="Group_1732" data-name="Group 1732" transform="translate(1.794 3.005)">
          <g id="Group_1731" data-name="Group 1731">
            <path id="Path_19971" data-name="Path 19971" d="M1577.181,236.443a.68.68,0,1,1-.68-.68A.68.68,0,0,1,1577.181,236.443Z" transform="translate(-1575.821 -235.763)" fill="#fff"/>
            <path id="Path_19972" data-name="Path 19972" d="M1585.163,236.443a.68.68,0,1,1-.68-.68A.68.68,0,0,1,1585.163,236.443Z" transform="translate(-1580.296 -235.763)" fill="#fff"/>
            <path id="Path_19973" data-name="Path 19973" d="M1593.145,236.443a.68.68,0,1,1-.68-.68A.68.68,0,0,1,1593.145,236.443Z" transform="translate(-1584.772 -235.763)" fill="#fff"/>
          </g>
        </g>
      </g>
      <g id="Group_1738" data-name="Group 1738" transform="translate(31.088 106.059)">
        <g id="Group_1735" data-name="Group 1735">
          <g id="Group_1734" data-name="Group 1734">
            <rect id="Rectangle_1238" data-name="Rectangle 1238" width="9.804" height="5.93" rx="1.993" fill="#f58634"/>
            <path id="Path_19974" data-name="Path 19974" d="M1096.224,256.044s-.218,2.039,1.027,2.25c0,0-2.484.566-2.428-2.25" transform="translate(-1088.569 -250.688)" fill="#f58634"/>
          </g>
        </g>
        <g id="Group_1737" data-name="Group 1737" transform="translate(1.47 2.464)">
          <g id="Group_1736" data-name="Group 1736">
            <path id="Path_19975" data-name="Path 19975" d="M1097.02,250.016a.557.557,0,1,0,.557-.557A.557.557,0,0,0,1097.02,250.016Z" transform="translate(-1091.271 -249.459)" fill="#fff"/>
            <path id="Path_19976" data-name="Path 19976" d="M1090.477,250.016a.557.557,0,1,0,.557-.557A.557.557,0,0,0,1090.477,250.016Z" transform="translate(-1087.603 -249.459)" fill="#fff"/>
            <path id="Path_19977" data-name="Path 19977" d="M1083.934,250.016a.557.557,0,1,0,.557-.557A.557.557,0,0,0,1083.934,250.016Z" transform="translate(-1083.934 -249.459)" fill="#fff"/>
          </g>
        </g>
      </g>
      <g id="Group_1753" data-name="Group 1753" transform="translate(213.886 105.341)">
        <g id="Group_1752" data-name="Group 1752">
          <g id="Group_1739" data-name="Group 1739" transform="translate(16.924 63.948)">
            <path id="Path_19978" data-name="Path 19978" d="M1542.848,390.868v2.651a3.735,3.735,0,0,0,1.7,0l.126-2.965" transform="translate(-1539.492 -389.336)" fill="#fe9393"/>
            <path id="Path_19979" data-name="Path 19979" d="M1540.277,396.455s-.23.239-1.062.209a1.123,1.123,0,0,0-1.026-.178,4.342,4.342,0,0,1-1.425.849c-.591.12-1.282.19-1.443.451a.538.538,0,0,0-.1.431s-.04.11.681.14,3.036-.07,3.436-.05a4.444,4.444,0,0,0,1.192-.05C1540.781,398.177,1540.759,396.918,1540.277,396.455Z" transform="translate(-1535.21 -392.629)" fill="#2b2b2b"/>
            <path id="Path_19980" data-name="Path 19980" d="M1576.256,388.617l.781,2.534a3.729,3.729,0,0,0,1.62-.5l-.753-2.871" transform="translate(-1558.224 -387.781)" fill="#fe9393"/>
            <path id="Path_19981" data-name="Path 19981" d="M1577.612,394.845a4.374,4.374,0,0,1-1.026.612c-.2.091-.905.5-1.6.9a1.852,1.852,0,0,1-.9.236h-1.137c-.212,0-.289-.145-.283-.237a.592.592,0,0,1,.548-.5,1.458,1.458,0,0,0,.251-.073,1.847,1.847,0,0,0,.888-.757c.21-.336.359-.63.359-.63a1.125,1.125,0,0,1,.987-.327c.746-.371.833-.689.833-.689C1577.178,393.559,1577.795,394.657,1577.612,394.845Z" transform="translate(-1556.212 -390.921)" fill="#2b2b2b"/>
          </g>
          <path id="Path_19982" data-name="Path 19982" d="M1547.374,316.311a13.022,13.022,0,0,1-.145,1.349c-.13.78-.457,2.017-.852,3.4-.684,2.374-1.58,5.172-2.081,6.79,1.936,3.964-.826,17.088-1.172,18.177a4.182,4.182,0,0,1-2.05-.105c-.413-6.049-1.123-18.346-1.115-18.64.16-6.222.923-11.957.985-12.872s.159-6.029.6-6.2c.968-.361,3.477-1.194,4.609.453C1547.331,310.388,1547.519,313.99,1547.374,316.311Z" transform="translate(-1520.949 -278.918)" fill="#00803d"/>
          <path id="Path_19983" data-name="Path 19983" d="M1555.122,323.948a12.953,12.953,0,0,1-.145,1.349c-.13.78-.457,2.017-.852,3.4-.12-1.96-.347-7.4-.347-7.4Z" transform="translate(-1528.697 -286.555)" fill="#102772"/>
          <g id="Group_1741" data-name="Group 1741" transform="translate(0 12.658)">
            <g id="Group_1740" data-name="Group 1740" transform="translate(0 4.475)">
              <path id="Path_19984" data-name="Path 19984" d="M1503.145,282.723l-1.386-.331a3.42,3.42,0,0,1-.761-.7,1.562,1.562,0,0,0-1.3-.472c-.143.007-.156.188.1.361.169.116.465.061.566.457.045.177-.455.184-.713.1s-1.133-.5-1.357-.6-.413.049.172.478a7.615,7.615,0,0,0,.933.6,2.655,2.655,0,0,0,.207.365.266.266,0,0,0,.1.069,2.36,2.36,0,0,0,.193.339.191.191,0,0,0,.044.038c.054.112.1.221.151.315.181.363.882.261,1.191.222a10.271,10.271,0,0,1,1.63.258Z" transform="translate(-1497.464 -281.217)" fill="#fe9393"/>
              <path id="Path_19985" data-name="Path 19985" d="M1498.993,283.429a3.449,3.449,0,0,1-.884-.185c-.519-.173-1.181-.543-1.316-.557s-.151.158,0,.293a5.082,5.082,0,0,0,.82.5,15.635,15.635,0,0,0,1.542.467" transform="translate(-1496.686 -282.041)" fill="#fe9393"/>
              <path id="Path_19986" data-name="Path 19986" d="M1499.33,284.585a3.447,3.447,0,0,1-.9-.084c-.535-.113-1.234-.405-1.371-.405s-.132.174.033.292a5.122,5.122,0,0,0,.872.408c.3.11,1.585.427,1.585.427" transform="translate(-1496.841 -282.831)" fill="#fe9393"/>
              <path id="Path_19987" data-name="Path 19987" d="M1500.323,285.8a3.448,3.448,0,0,1-.9-.084c-.535-.113-1.234-.405-1.371-.405s-.132.174.033.292a5.053,5.053,0,0,0,.872.408,15.615,15.615,0,0,0,1.585.289" transform="translate(-1497.398 -283.515)" fill="#fe9393"/>
            </g>
            <path id="Path_19988" data-name="Path 19988" d="M1533.79,271.03a89.241,89.241,0,0,0-6.91,6.693,5.14,5.14,0,0,0,1.865,2.081,49.817,49.817,0,0,0,5.439-2.988" transform="translate(-1513.615 -271.03)" fill="#fff"/>
            <path id="Path_19989" data-name="Path 19989" d="M1516.375,284.921l-8.2-.721-.3,1.7s6.2,2.378,8.518,2.378c1.9,0,6.535-3.681,6.535-3.681Z" transform="translate(-1502.959 -278.414)" fill="#fff"/>
          </g>
          <path id="Path_19990" data-name="Path 19990" d="M1562.392,344.57a2.886,2.886,0,0,1-2.048.624c.173.24-5.6-12.708-6.537-15.337-.058-.169-.3-.872-.371-1.108-.443-1.377-1.884-8.4-2.568-11.141l-1.947-8.816s-2.657.36-.755.249a21.3,21.3,0,0,0,5.432-1.348,11.061,11.061,0,0,1,4.232,9.365,18.276,18.276,0,0,0-.052,2.4c.145,2.952-.354,6.9-.239,8.875C1561.914,334.354,1562.15,342.395,1562.392,344.57Z" transform="translate(-1525.166 -278.928)" fill="#00803d"/>
          <g id="Group_1750" data-name="Group 1750" transform="translate(19.017 11.212)">
            <g id="Group_1749" data-name="Group 1749">
              <g id="Group_1742" data-name="Group 1742" transform="translate(0.886)">
                <path id="Path_19991" data-name="Path 19991" d="M1542.262,269.185c.722-.6,1.922-1.122,4.482-1.2a3.032,3.032,0,0,1,2.211-.061c1.7.44,3.669.812,3.961,1.455a37.594,37.594,0,0,1,.169,9.033,35.263,35.263,0,0,0,.956,11.275c.262.934-6.039-2.094-7.788-2.094-1.557,0-3.8-.058-3.854-.572-.1-1.081-.111-1.932-.122-2.711C1542.26,283.063,1541.65,269.886,1542.262,269.185Z" transform="translate(-1541.99 -267.739)" fill="#fff"/>
              </g>
              <path id="Path_19992" data-name="Path 19992" d="M1555.393,306.42a6.5,6.5,0,0,0,.919,2.633,16.89,16.89,0,0,1,2.169,6.754c.272,2.781.247,11,.247,11a48.221,48.221,0,0,1-10.539,0l-.167-19.293Z" transform="translate(-1544.487 -289.427)" fill="#fff"/>
              <g id="Group_1743" data-name="Group 1743" transform="translate(9.944 0.715)">
                <path id="Path_19993" data-name="Path 19993" d="M1568.046,281.915c0-2.167-.255-7.957-2.529-10.938a5.868,5.868,0,0,0-2.906-1.611l.043,5.377a57.753,57.753,0,0,0,1.407,7.446h3.964A2.274,2.274,0,0,0,1568.046,281.915Z" transform="translate(-1562.61 -269.366)" fill="#fff"/>
              </g>
              <g id="Group_1744" data-name="Group 1744" transform="translate(0 3.089)">
                <path id="Path_19994" data-name="Path 19994" d="M1548.084,289.283l-7.913-3.339a.323.323,0,0,1-.18-.4l3.57-10.554a.323.323,0,0,1,.431-.194l7.913,3.339a.323.323,0,0,1,.18.4l-3.57,10.554A.323.323,0,0,1,1548.084,289.283Z" transform="translate(-1539.974 -274.77)" fill="#f58634"/>
              </g>
              <g id="Group_1747" data-name="Group 1747" transform="translate(1.894 8.792)">
                <g id="Group_1745" data-name="Group 1745" transform="translate(0 0.316)">
                  <path id="Path_19995" data-name="Path 19995" d="M1547.57,290.5a7.714,7.714,0,0,1-1.035-.5c-.12-.121-.54-1.306-1.035-1.529a1.026,1.026,0,0,0-.618.277,2.94,2.94,0,0,0-.595,1.561c-.02.482.791.892.9.952a14.533,14.533,0,0,1,1.6.7" transform="translate(-1544.286 -288.471)" fill="#fe9393"/>
                </g>
                <g id="Group_1746" data-name="Group 1746" transform="translate(0.709)">
                  <path id="Path_19996" data-name="Path 19996" d="M1547,288.756a2.778,2.778,0,0,0-.642-.816c-.268-.186-.333-.255-.421-.111a.75.75,0,0,0,.161.686" transform="translate(-1545.899 -287.752)" fill="#fe9393"/>
                </g>
              </g>
              <g id="Group_1748" data-name="Group 1748" transform="translate(4.084 10.915)">
                <path id="Path_19997" data-name="Path 19997" d="M1549.555,293.283a3.414,3.414,0,0,0-.284,1.122s6.989,4.04,9.4,4.551l.333-3.95-8.93-2.421A2.1,2.1,0,0,0,1549.555,293.283Z" transform="translate(-1549.271 -292.585)" fill="#fff"/>
              </g>
            </g>
          </g>
          <g id="Group_1751" data-name="Group 1751" transform="translate(22.164)">
            <path id="Path_19998" data-name="Path 19998" d="M1556.482,260.075l0,0a3.028,3.028,0,0,1-3.667-.3s.256-.489.3-.576a4.4,4.4,0,0,0,.47-1.216c.014-.04.02-.086.032-.133a4.706,4.706,0,0,0,.085-.58,4.917,4.917,0,0,0-.03-1.191l.2-.158,3.224-2.535.367-.286s-.107.616-.253,1.518c-.081.512-.177,1.112-.273,1.745C1556.742,257.65,1556.557,259.058,1556.482,260.075Z" transform="translate(-1550.319 -248.319)" fill="#fe9393"/>
            <path id="Path_19999" data-name="Path 19999" d="M1556.2,260.178l0,0a9.237,9.237,0,0,1-2.864,2.757,4.405,4.405,0,0,0,.47-1.216,2.933,2.933,0,0,1-.594.114c.009-.147.016-.3.011-.462l.216-.129.484-.237,2.547-1.24S1556.379,259.927,1556.2,260.178Z" transform="translate(-1550.543 -252.059)" fill="#e15f60"/>
            <path id="Path_20000" data-name="Path 20000" d="M1548.845,249.577a2.247,2.247,0,0,0,.42,2.3l.456-2.231Z" transform="translate(-1548.011 -246.344)"/>
            <path id="Path_20001" data-name="Path 20001" d="M1554.438,252.09a6.808,6.808,0,0,1-.5.621l0,0a5.762,5.762,0,0,1-1,.862,4.234,4.234,0,0,1-1.284.608,2.818,2.818,0,0,1-.566.109,2.156,2.156,0,0,1-1.293-.246c-.766-1.137-.738-2.979-.562-4.378.068-.566.163-1.058.235-1.4.068-.312.12-.5.12-.5s0-.023.007-.037c.333-1.806,2.746-1.869,4.406-.852a2.993,2.993,0,0,1,.281.194,3.224,3.224,0,0,1,1.071,1.257,3.141,3.141,0,0,1-.248,2.648l-.065.131A7.72,7.72,0,0,1,1554.438,252.09Z" transform="translate(-1548.253 -244.46)" fill="#fe9393"/>
            <path id="Path_20002" data-name="Path 20002" d="M1553.476,245.08a4.339,4.339,0,0,1-5.322.857c-1.18-.576-1.389-3.263-.333-3.091,1.513.246,3.1-1.215,4.768-.351A2.694,2.694,0,0,1,1553.476,245.08Z" transform="translate(-1547.137 -242.218)"/>
            <path id="Path_20003" data-name="Path 20003" d="M1559.326,246.756s-1.144,5.953.065,3.219c0,0,.307-.762.861-.692s.109,2.118.033,2.985c0,0,1.268-.907,1.736-3.608s-1.349-3.811-2.355-2.641Z" transform="translate(-1553.697 -244.09)"/>
            <path id="Path_20004" data-name="Path 20004" d="M1561.319,255.007s-.311.043-.377.613.3.685.375.383-.2-.482-.265-.357A.7.7,0,0,1,1561.319,255.007Z" transform="translate(-1554.873 -249.389)" fill="#e15f60"/>
          </g>
        </g>
        <path id="Path_20005" data-name="Path 20005" d="M1570.834,295.816s.454,5.323-1.9,4.872c-1.747-1.01-1.3-4.268-1.3-4.268a7.48,7.48,0,0,1,1.749-.738A8.739,8.739,0,0,0,1570.834,295.816Z" transform="translate(-1536.437 -272.19)" fill="#fff"/>
        <path id="Path_20006" data-name="Path 20006" d="M1545.15,287.292a5.423,5.423,0,0,1-.631-.755c-.1-.213-.37-1.044-.51-1.1-.069-.027-.225-.027-.145.458.073.449.16.821.2.965a7.51,7.51,0,0,0,.659.881" transform="translate(-1523.125 -266.446)" fill="#fe9393"/>
        <path id="Path_20007" data-name="Path 20007" d="M1544.587,288.292a5.444,5.444,0,0,1-.631-.755c-.1-.213-.37-1.044-.51-1.1-.069-.027-.225-.027-.146.458.073.449.159.821.2.965a7.526,7.526,0,0,0,.659.881" transform="translate(-1522.809 -267.006)" fill="#fe9393"/>
        <path id="Path_20008" data-name="Path 20008" d="M1544.229,289.352a5.475,5.475,0,0,1-.631-.754c-.1-.213-.37-1.044-.51-1.1-.069-.027-.224-.028-.145.458.073.449.16.821.2.965a7.457,7.457,0,0,0,.659.881" transform="translate(-1522.609 -267.601)" fill="#fe9393"/>
        <path id="Path_20009" data-name="Path 20009" d="M1544.072,290.64a4.816,4.816,0,0,1-.556-.664c-.091-.188-.326-.919-.449-.968-.061-.024-.2-.024-.128.4.065.4.14.723.177.85a6.611,6.611,0,0,0,.58.775" transform="translate(-1522.609 -268.448)" fill="#fe9393"/>
        <path id="Path_20010" data-name="Path 20010" d="M1540.317,307.087l-1.843,19.472a9.688,9.688,0,0,0,2.529.368l1.852-18.671Z" transform="translate(-1520.116 -278.589)" fill="#fff"/>
        <path id="Path_20011" data-name="Path 20011" d="M1551.76,267.462l.579-.689a3.978,3.978,0,0,0,1,.689v.829A6.847,6.847,0,0,1,1551.76,267.462Z" transform="translate(-1527.565 -255.986)" fill="#fff"/>
        <path id="Path_20012" data-name="Path 20012" d="M1555.359,268.526l.261-.546a8.177,8.177,0,0,0,2.492-.364l.241.716A3.644,3.644,0,0,1,1555.359,268.526Z" transform="translate(-1529.583 -256.459)" fill="#fff"/>
        <path id="Path_20013" data-name="Path 20013" d="M1560.208,293.59l2.777.753-.5-1.9" transform="translate(-1532.302 -270.377)" fill="none" stroke="#dfe5ea" stroke-miterlimit="10" stroke-width="0.5"/>
      </g>
      <g id="Group_1754" data-name="Group 1754" transform="translate(10.517 52.857)">
        <path id="Path_20014" data-name="Path 20014" d="M1058.786,158.987l-4.507-7.807,4.507-7.807h9.015l4.507,7.807-4.507,7.807Z" transform="translate(-1045.265 -134.312)" fill="none" stroke="#ffdabf" stroke-miterlimit="10" stroke-width="1.087"/>
        <path id="Path_20015" data-name="Path 20015" d="M1115.9,186.721l4.507-7.807h9.015l4.507,7.807" transform="translate(-1079.815 -154.24)" fill="none" stroke="#ffdabf" stroke-miterlimit="10" stroke-width="1.087"/>
        <path id="Path_20016" data-name="Path 20016" d="M1089.626,141.216l-4.507-7.807,4.507-7.807h9.015l4.507,7.807-4.507,7.807Z" transform="translate(-1062.557 -124.349)" fill="none" stroke="#ffdabf" stroke-miterlimit="10" stroke-width="1.087"/>
        <path id="Path_20017" data-name="Path 20017" d="M1033.762,125.6h9.015l4.507,7.807-4.507,7.807h-9.015" transform="translate(-1033.762 -124.349)" fill="none" stroke="#ffdabf" stroke-miterlimit="10" stroke-width="1.087"/>
        <path id="Path_20018" data-name="Path 20018" d="M1089.626,176.758l-4.507-7.807,4.507-7.807h9.015l4.507,7.807-4.507,7.807Z" transform="translate(-1062.557 -144.276)" fill="none" stroke="#ffdabf" stroke-miterlimit="10" stroke-width="1.087"/>
        <circle id="Ellipse_4029" data-name="Ellipse 4029" cx="1.253" cy="1.253" r="1.253" transform="translate(12.269 7.807)" fill="#f58634" stroke="#f58634" stroke-width="1"/>
        <circle id="Ellipse_4030" data-name="Ellipse 4030" cx="1.253" cy="1.253" r="1.253" transform="translate(21.309 7.807)" fill="#f58634" stroke="#f58634" stroke-width="1"/>
        <circle id="Ellipse_4031" data-name="Ellipse 4031" cx="1.253" cy="1.253" r="1.253" transform="translate(25.842)" fill="#f58634" stroke="#f58634" stroke-width="1"/>
        <circle id="Ellipse_4032" data-name="Ellipse 4032" cx="1.253" cy="1.253" r="1.253" transform="translate(34.857)" fill="#f58634" stroke="#f58634" stroke-width="1"/>
        <path id="Path_20019" data-name="Path 20019" d="M1094.973,159.544a1.253,1.253,0,1,1-1.253-1.253A1.253,1.253,0,0,1,1094.973,159.544Z" transform="translate(-1066.676 -142.677)" fill="#f58634" stroke="#f58634" stroke-width="1"/>
        <circle id="Ellipse_4033" data-name="Ellipse 4033" cx="1.253" cy="1.253" r="1.253" transform="translate(39.338 7.807)" fill="#f58634" stroke="#f58634" stroke-width="1"/>
        <path id="Path_20020" data-name="Path 20020" d="M1115.553,159.544a1.253,1.253,0,1,1-1.253-1.253A1.253,1.253,0,0,1,1115.553,159.544Z" transform="translate(-1078.215 -142.677)" fill="#f58634" stroke="#f58634" stroke-width="1"/>
        <path id="Path_20021" data-name="Path 20021" d="M1084.773,177.315a1.253,1.253,0,1,1-1.253-1.253A1.253,1.253,0,0,1,1084.773,177.315Z" transform="translate(-1060.957 -152.641)" fill="#f58634" stroke="#f58634" stroke-width="1"/>
        <path id="Path_20022" data-name="Path 20022" d="M1125.873,177.315a1.253,1.253,0,1,1-1.253-1.253A1.253,1.253,0,0,1,1125.873,177.315Z" transform="translate(-1084.002 -152.641)" fill="#f58634" stroke="#f58634" stroke-width="1"/>
        <circle id="Ellipse_4034" data-name="Ellipse 4034" cx="1.253" cy="1.253" r="1.253" transform="translate(34.831 31.228)" fill="#f58634" stroke="#f58634" stroke-width="1"/>
        <circle id="Ellipse_4035" data-name="Ellipse 4035" cx="1.253" cy="1.253" r="1.253" transform="translate(52.86 31.228)" fill="#f58634" stroke="#f58634" stroke-width="1"/>
        <circle id="Ellipse_4036" data-name="Ellipse 4036" cx="1.253" cy="1.253" r="1.253" transform="translate(25.842 31.228)" fill="#f58634" stroke="#f58634" stroke-width="1"/>
        <path id="Path_20023" data-name="Path 20023" d="M1064.2,177.315a1.253,1.253,0,1,1-1.253-1.253A1.253,1.253,0,0,1,1064.2,177.315Z" transform="translate(-1049.42 -152.641)" fill="#f58634" stroke="#f58634" stroke-width="1"/>
        <path id="Path_20024" data-name="Path 20024" d="M1053.932,159.544a1.253,1.253,0,1,1-1.253-1.253A1.253,1.253,0,0,1,1053.932,159.544Z" transform="translate(-1043.666 -142.677)" fill="#f58634" stroke="#f58634" stroke-width="1"/>
      </g>
      <g id="Group_1755" data-name="Group 1755" transform="translate(200.76 6.342)">
        <path id="Path_20025" data-name="Path 20025" d="M1491.832,53.105l-4.507-7.807,4.507-7.807h9.015l4.507,7.807-4.507,7.807Z" transform="translate(-1478.311 -28.431)" fill="none" stroke="#ffdabf" stroke-miterlimit="10" stroke-width="1.087"/>
        <path id="Path_20026" data-name="Path 20026" d="M1548.944,80.84l4.507-7.807h9.015l4.507,7.807" transform="translate(-1512.86 -48.359)" fill="none" stroke="#ffdabf" stroke-miterlimit="10" stroke-width="1.087"/>
        <path id="Path_20027" data-name="Path 20027" d="M1522.672,35.334l-4.507-7.807,4.507-7.807h9.015l4.508,7.807-4.508,7.807Z" transform="translate(-1495.603 -18.467)" fill="none" stroke="#ffdabf" stroke-miterlimit="10" stroke-width="1.087"/>
        <path id="Path_20028" data-name="Path 20028" d="M1475.822,19.721l4.507,7.807-4.507,7.807h-9.015" transform="translate(-1466.807 -18.467)" fill="none" stroke="#ffdabf" stroke-miterlimit="10" stroke-width="1.087"/>
        <path id="Path_20029" data-name="Path 20029" d="M1518.165,63.069l4.507-7.807h9.015l4.508,7.807-4.508,7.807" transform="translate(-1495.603 -38.395)" fill="none" stroke="#ffdabf" stroke-miterlimit="10" stroke-width="1.087"/>
        <path id="Path_20030" data-name="Path 20030" d="M1497.241,35.892a1.253,1.253,0,1,1-1.253-1.253A1.253,1.253,0,0,1,1497.241,35.892Z" transform="translate(-1482.466 -26.832)" fill="#f58634"/>
        <circle id="Ellipse_4037" data-name="Ellipse 4037" cx="1.253" cy="1.253" r="1.253" transform="translate(7.76 0.237)" fill="#f58634"/>
        <circle id="Ellipse_4038" data-name="Ellipse 4038" cx="1.253" cy="1.253" r="1.253" transform="translate(21.309 7.807)" fill="#f58634"/>
        <circle id="Ellipse_4039" data-name="Ellipse 4039" cx="1.253" cy="1.253" r="1.253" transform="translate(25.842 0)" fill="#f58634"/>
        <circle id="Ellipse_4040" data-name="Ellipse 4040" cx="1.253" cy="1.253" r="1.253" transform="translate(34.857)" fill="#f58634"/>
        <path id="Path_20031" data-name="Path 20031" d="M1528.018,53.663a1.253,1.253,0,1,1-1.253-1.253A1.253,1.253,0,0,1,1528.018,53.663Z" transform="translate(-1499.722 -36.796)" fill="#f58634"/>
        <circle id="Ellipse_4041" data-name="Ellipse 4041" cx="1.253" cy="1.253" r="1.253" transform="translate(39.338 7.807)" fill="#f58634"/>
        <path id="Path_20032" data-name="Path 20032" d="M1548.6,53.663a1.253,1.253,0,1,1-1.253-1.253A1.253,1.253,0,0,1,1548.6,53.663Z" transform="translate(-1511.261 -36.796)" fill="#f58634"/>
        <path id="Path_20033" data-name="Path 20033" d="M1517.818,71.433a1.253,1.253,0,1,1-1.253-1.253A1.253,1.253,0,0,1,1517.818,71.433Z" transform="translate(-1494.003 -46.759)" fill="#f58634"/>
        <path id="Path_20034" data-name="Path 20034" d="M1558.918,71.433a1.253,1.253,0,1,1-1.253-1.253A1.253,1.253,0,0,1,1558.918,71.433Z" transform="translate(-1517.047 -46.759)" fill="#f58634"/>
        <path id="Path_20035" data-name="Path 20035" d="M1548.6,89.2a1.253,1.253,0,1,1-1.253-1.253A1.253,1.253,0,0,1,1548.6,89.2Z" transform="translate(-1511.261 -56.723)" fill="#f58634"/>
        <circle id="Ellipse_4042" data-name="Ellipse 4042" cx="1.253" cy="1.253" r="1.253" transform="translate(52.86 31.228)" fill="#f58634"/>
        <path id="Path_20036" data-name="Path 20036" d="M1531.337,90.8" transform="translate(-1502.988 -58.323)" fill="#a4e0ea"/>
        <path id="Path_20037" data-name="Path 20037" d="M1497.241,71.433a1.253,1.253,0,1,1-1.253-1.253A1.253,1.253,0,0,1,1497.241,71.433Z" transform="translate(-1482.466 -46.759)" fill="#f58634"/>
        <path id="Path_20038" data-name="Path 20038" d="M1486.978,53.663a1.253,1.253,0,1,1-1.253-1.253A1.253,1.253,0,0,1,1486.978,53.663Z" transform="translate(-1476.712 -36.796)" fill="#f58634"/>
      </g>
      <g id="Group_1760" data-name="Group 1760" transform="translate(107.931 16.665)">
        <path id="Path_20039" data-name="Path 20039" d="M1269.14,40.366c3.45,3.45-2.763,9.663.688,13.114s9.664-2.762,13.114.688-2.762,9.664.689,13.114" transform="translate(-1262.927 -40.366)" fill="none" stroke="#ffa05a" stroke-linecap="round" stroke-miterlimit="10" stroke-width="2"/>
        <path id="Path_20040" data-name="Path 20040" d="M1255.5,54c3.45,3.45,9.663-2.763,13.113.688s-2.762,9.663.688,13.114,9.664-2.762,13.114.688" transform="translate(-1255.502 -47.792)" fill="none" stroke="#ffa05a" stroke-linecap="round" stroke-miterlimit="10" stroke-width="2"/>
        <g id="Group_1756" data-name="Group 1756" transform="translate(5.886 5.885)">
          <line id="Line_174" data-name="Line 174" y1="6.213" x2="6.213" transform="translate(1.014 1.016)" fill="none" stroke="#ffa05a" stroke-linecap="round" stroke-miterlimit="10" stroke-width="2"/>
          <line id="Line_175" data-name="Line 175" y1="5.252" x2="5.252" fill="none" stroke="#ffa05a" stroke-linecap="round" stroke-miterlimit="10" stroke-width="2"/>
          <line id="Line_176" data-name="Line 176" y1="5.252" x2="5.252" transform="translate(2.991 2.991)" fill="none" stroke="#ffa05a" stroke-linecap="round" stroke-miterlimit="10" stroke-width="2"/>
        </g>
        <g id="Group_1757" data-name="Group 1757" transform="translate(1.977 1.976)">
          <line id="Line_177" data-name="Line 177" y1="5.252" x2="5.252" fill="none" stroke="#ffa05a" stroke-linecap="round" stroke-miterlimit="10" stroke-width="2"/>
        </g>
        <g id="Group_1758" data-name="Group 1758" transform="translate(12.79 12.789)">
          <line id="Line_178" data-name="Line 178" y1="6.213" x2="6.213" transform="translate(1.014 1.016)" fill="none" stroke="#ffa05a" stroke-linecap="round" stroke-miterlimit="10" stroke-width="2"/>
          <line id="Line_179" data-name="Line 179" y1="5.252" x2="5.252" fill="none" stroke="#ffa05a" stroke-linecap="round" stroke-miterlimit="10" stroke-width="2"/>
          <line id="Line_180" data-name="Line 180" y1="5.252" x2="5.252" transform="translate(2.991 2.991)" fill="none" stroke="#ffa05a" stroke-linecap="round" stroke-miterlimit="10" stroke-width="2"/>
        </g>
        <g id="Group_1759" data-name="Group 1759" transform="translate(19.759 19.758)">
          <line id="Line_181" data-name="Line 181" y1="5.252" x2="5.252" fill="none" stroke="#ffa05a" stroke-linecap="round" stroke-miterlimit="10" stroke-width="2"/>
        </g>
      </g>
      <g id="Group_1765" data-name="Group 1765" transform="translate(1.629 103.62)">
        <path id="Path_20041" data-name="Path 20041" d="M1027.169,238.3c3.45,3.45-2.763,9.663.688,13.114s9.664-2.762,13.114.688-2.762,9.664.689,13.114" transform="translate(-1020.956 -238.301)" fill="none" stroke="#f58634" stroke-linecap="round" stroke-miterlimit="10" stroke-width="2"/>
        <path id="Path_20042" data-name="Path 20042" d="M1013.531,251.94c3.45,3.45,9.663-2.763,13.113.688s-2.762,9.663.688,13.114,9.664-2.762,13.114.688" transform="translate(-1013.531 -245.727)" fill="none" stroke="#f58634" stroke-linecap="round" stroke-miterlimit="10" stroke-width="2"/>
        <g id="Group_1761" data-name="Group 1761" transform="translate(5.886 5.885)">
          <line id="Line_182" data-name="Line 182" y1="6.213" x2="6.213" transform="translate(1.014 1.016)" fill="none" stroke="#f58634" stroke-linecap="round" stroke-miterlimit="10" stroke-width="2"/>
          <line id="Line_183" data-name="Line 183" y1="5.252" x2="5.252" fill="none" stroke="#f58634" stroke-linecap="round" stroke-miterlimit="10" stroke-width="2"/>
          <line id="Line_184" data-name="Line 184" y1="5.252" x2="5.252" transform="translate(2.991 2.991)" fill="none" stroke="#f58634" stroke-linecap="round" stroke-miterlimit="10" stroke-width="2"/>
        </g>
        <g id="Group_1762" data-name="Group 1762" transform="translate(1.977 1.976)">
          <line id="Line_185" data-name="Line 185" y1="5.252" x2="5.252" fill="none" stroke="#f58634" stroke-linecap="round" stroke-miterlimit="10" stroke-width="2"/>
        </g>
        <g id="Group_1763" data-name="Group 1763" transform="translate(12.79 12.789)">
          <line id="Line_186" data-name="Line 186" y1="6.213" x2="6.213" transform="translate(1.014 1.016)" fill="none" stroke="#f58634" stroke-linecap="round" stroke-miterlimit="10" stroke-width="2"/>
          <line id="Line_187" data-name="Line 187" y1="5.252" x2="5.252" fill="none" stroke="#f58634" stroke-linecap="round" stroke-miterlimit="10" stroke-width="2"/>
          <line id="Line_188" data-name="Line 188" y1="5.252" x2="5.252" transform="translate(2.991 2.991)" fill="none" stroke="#f58634" stroke-linecap="round" stroke-miterlimit="10" stroke-width="2"/>
        </g>
        <g id="Group_1764" data-name="Group 1764" transform="translate(19.759 19.758)">
          <line id="Line_189" data-name="Line 189" y1="5.252" x2="5.252" fill="none" stroke="#f58634" stroke-linecap="round" stroke-miterlimit="10" stroke-width="2"/>
        </g>
      </g>
    </g>
    <g id="Group_1768" data-name="Group 1768" transform="translate(1058.68 21.244)">
      <g id="Group_1767" data-name="Group 1767">
        <ellipse id="Ellipse_4043" data-name="Ellipse 4043" cx="5.287" cy="17.035" rx="5.287" ry="17.035" transform="translate(12.108)" fill="none" stroke="#fff" stroke-miterlimit="10" stroke-width="0.867"/>
        <ellipse id="Ellipse_4044" data-name="Ellipse 4044" cx="17.035" cy="5.287" rx="17.035" ry="5.287" transform="matrix(0.866, -0.5, 0.5, 0.866, 0, 20.979)" fill="none" stroke="#fff" stroke-miterlimit="10" stroke-width="0.867"/>
        <ellipse id="Ellipse_4045" data-name="Ellipse 4045" cx="5.287" cy="17.035" rx="5.287" ry="17.035" transform="matrix(0.5, -0.866, 0.866, 0.5, 0, 13.091)" fill="none" stroke="#fff" stroke-miterlimit="10" stroke-width="0.867"/>
      </g>
      <path id="Path_20043" data-name="Path 20043" d="M1159.913,80.708a2.6,2.6,0,1,1-2.6-2.6A2.6,2.6,0,0,1,1159.913,80.708Z" transform="translate(-1139.915 -63.673)" fill="#fff"/>
      <circle id="Ellipse_4046" data-name="Ellipse 4046" cx="1.194" cy="1.194" r="1.194" transform="translate(7.653 6.635)" fill="#fff"/>
      <circle id="Ellipse_4047" data-name="Ellipse 4047" cx="1.194" cy="1.194" r="1.194" transform="translate(20.833 23.878)" fill="#fff"/>
      <path id="Path_20044" data-name="Path 20044" d="M1187.684,76.582a1.194,1.194,0,1,1-1.194-1.193A1.193,1.193,0,0,1,1187.684,76.582Z" transform="translate(-1157.066 -62.15)" fill="#fff"/>
    </g>
    <g id="Group_1769" data-name="Group 1769" transform="translate(1254.376 53.365)">
      <circle id="Ellipse_4048" data-name="Ellipse 4048" cx="3.982" cy="3.982" r="3.982" transform="translate(0.012 6.123) rotate(-50.253)" fill="#fff"/>
      <path id="Path_20045" data-name="Path 20045" d="M1602.4,158.1a2.553,2.553,0,1,1-.743-3.533A2.552,2.552,0,0,1,1602.4,158.1Z" transform="translate(-1583.998 -138.435)" fill="#fff"/>
      <circle id="Ellipse_4049" data-name="Ellipse 4049" cx="1.45" cy="1.45" r="1.45" transform="translate(0 22.039) rotate(-42.109)" fill="#fff"/>
      <path id="Path_20046" data-name="Path 20046" d="M1579.286,131.134l1.074,11.071,9.574,1.6" transform="translate(-1573.667 -125.527)" fill="none" stroke="#fff" stroke-miterlimit="10" stroke-width="1.544"/>
      <line id="Line_190" data-name="Line 190" x1="4.646" y2="5.464" transform="translate(2.047 16.678)" fill="none" stroke="#fff" stroke-miterlimit="10" stroke-width="1.544"/>
      <path id="Path_20047" data-name="Path 20047" d="M1580.559,154.387a2.668,2.668,0,1,1-.776-3.693A2.668,2.668,0,0,1,1580.559,154.387Z" transform="translate(-1571.632 -136.251)" fill="#f58634"/>
    </g>
    <g id="Group_1770" data-name="Group 1770" transform="translate(1015.863 136.342)">
      <path id="Path_20048" data-name="Path 20048" d="M1049.048,330.764a2.958,2.958,0,1,1,3.468,2.339A2.958,2.958,0,0,1,1049.048,330.764Z" transform="translate(-1037.826 -318.458)" fill="#fff"/>
      <path id="Path_20049" data-name="Path 20049" d="M1023.609,329.074a1.9,1.9,0,1,1,2.223,1.5A1.9,1.9,0,0,1,1023.609,329.074Z" transform="translate(-1023.574 -318.219)" fill="#fff"/>
      <path id="Path_20050" data-name="Path 20050" d="M1038.167,308.53a1.077,1.077,0,1,1,1.263.851A1.077,1.077,0,0,1,1038.167,308.53Z" transform="translate(-1031.745 -307.248)" fill="#fff"/>
      <path id="Path_20051" data-name="Path 20051" d="M1040.12,327.149l-6.3-5.349-5.931,4.1" transform="translate(-1025.995 -315.407)" fill="none" stroke="#fff" stroke-miterlimit="10" stroke-width="1.147"/>
      <line id="Line_191" data-name="Line 191" x1="0.348" y1="5.316" transform="translate(7.479 1.077)" fill="none" stroke="#fff" stroke-miterlimit="10" stroke-width="1.147"/>
      <path id="Path_20052" data-name="Path 20052" d="M1036.916,319.648a1.982,1.982,0,1,1,2.323,1.567A1.982,1.982,0,0,1,1036.916,319.648Z" transform="translate(-1031.034 -312.877)" fill="#f9cb44"/>
    </g>
    <g id="Group_1771" data-name="Group 1771" transform="translate(1081.095 136.852)">
      <path id="Path_20053" data-name="Path 20053" d="M1174.5,325.654a2.19,2.19,0,1,1-2.426,1.926A2.19,2.19,0,0,1,1174.5,325.654Z" transform="translate(-1172.06 -318.07)" fill="#fff"/>
      <path id="Path_20054" data-name="Path 20054" d="M1183.636,308.419a1.4,1.4,0,1,1-1.555,1.235A1.4,1.4,0,0,1,1183.636,308.419Z" transform="translate(-1177.673 -308.41)" fill="#fff"/>
      <path id="Path_20055" data-name="Path 20055" d="M1196.637,323.554a.8.8,0,1,1-.883.7A.8.8,0,0,1,1196.637,323.554Z" transform="translate(-1185.342 -316.898)" fill="#fff"/>
      <path id="Path_20056" data-name="Path 20056" d="M1177.046,319.962l5.182-3.252-1.57-5.1" transform="translate(-1174.856 -310.202)" fill="none" stroke="#fff" stroke-miterlimit="10" stroke-width="0.849"/>
      <line id="Line_192" data-name="Line 192" x2="3.831" y2="0.941" transform="translate(7.373 6.507)" fill="none" stroke="#fff" stroke-miterlimit="10" stroke-width="0.849"/>
      <path id="Path_20057" data-name="Path 20057" d="M1187.137,319.891a1.468,1.468,0,1,1-1.625,1.291A1.467,1.467,0,0,1,1187.137,319.891Z" transform="translate(-1179.597 -314.841)" fill="#f9cb44"/>
    </g>
  </g>
</svg>
