<svg xmlns="http://www.w3.org/2000/svg" xmlns:xlink="http://www.w3.org/1999/xlink" width="236.203" height="193.875" viewBox="0 0 236.203 193.875">
  <defs>
    <linearGradient id="linear-gradient" y1="0.5" x2="1" y2="0.5" gradientUnits="objectBoundingBox">
      <stop offset="0" stop-color="#ff9f55"/>
      <stop offset="1" stop-color="#ffd255"/>
    </linearGradient>
  </defs>
  <g id="image-quantrinhansu" transform="translate(-212.839 -59.774)">
    <g id="Group_1473" data-name="Group 1473" transform="translate(389.868 59.774)">
      <path id="Path_19682" data-name="Path 19682" d="M489,75.593a17.319,17.319,0,0,0-1.85-4.461l1.883-2.833-2.613-2.613-2.613-2.614-2.833,1.884a17.345,17.345,0,0,0-4.462-1.851l-.67-3.332H468.45l-.671,3.332a17.344,17.344,0,0,0-4.462,1.851l-2.833-1.884-2.613,2.614L455.258,68.3l1.883,2.833a17.345,17.345,0,0,0-1.85,4.461l-3.332.671v7.392l3.332.671a17.328,17.328,0,0,0,1.85,4.461l-1.883,2.833,2.613,2.613,2.613,2.613,2.833-1.883a17.3,17.3,0,0,0,4.461,1.85l.671,3.332h7.391l.67-3.332a17.317,17.317,0,0,0,4.462-1.85l2.833,1.883,2.613-2.613,2.613-2.613-1.883-2.833A17.3,17.3,0,0,0,489,84.327l3.333-.671V76.265ZM472.146,92.911a12.95,12.95,0,1,1,12.95-12.95A12.95,12.95,0,0,1,472.146,92.911Z" transform="translate(-451.959 -59.774)" fill="url(#linear-gradient)"/>
    </g>
    <g id="Group_1474" data-name="Group 1474" transform="translate(414.97 99.772)">
      <path id="Path_19683" data-name="Path 19683" d="M502.846,121.053a7.921,7.921,0,0,0-.848-2.044l.864-1.3-1.2-1.2-1.2-1.2-1.3.863a7.925,7.925,0,0,0-2.045-.848l-.307-1.527h-3.389l-.307,1.527a7.919,7.919,0,0,0-2.046.848l-1.3-.863-1.2,1.2-1.2,1.2.864,1.3a7.921,7.921,0,0,0-.849,2.044l-1.527.309v3.389l1.527.307a7.926,7.926,0,0,0,.849,2.045l-.864,1.3,1.2,1.2,1.2,1.2,1.3-.863a7.917,7.917,0,0,0,2.046.848l.307,1.528h3.389l.307-1.528a7.923,7.923,0,0,0,2.045-.848l1.3.863,1.2-1.2,1.2-1.2L502,127.1a7.926,7.926,0,0,0,.848-2.045l1.528-.307v-3.389Zm-7.727,7.939a5.937,5.937,0,1,1,5.937-5.937A5.937,5.937,0,0,1,495.119,128.992Z" transform="translate(-485.865 -113.801)" fill="url(#linear-gradient)"/>
    </g>
    <g id="Group_1475" data-name="Group 1475" transform="translate(324.56 169.546)">
      <rect id="Rectangle_1183" data-name="Rectangle 1183" width="18.181" height="55.223" transform="translate(18.181 55.223) rotate(180)" fill="#aebecc"/>
    </g>
    <g id="Group_1476" data-name="Group 1476" transform="translate(255.153 85.396)">
      <path id="Rectangle_1184" data-name="Rectangle 1184" d="M10.785,0H146.209a10.785,10.785,0,0,1,10.785,10.785v89.18a10.786,10.786,0,0,1-10.786,10.786H10.786A10.786,10.786,0,0,1,0,99.966V10.785A10.785,10.785,0,0,1,10.785,0Z" transform="translate(156.994 110.752) rotate(180)" fill="#f0f0f0"/>
    </g>
    <g id="Group_1477" data-name="Group 1477" transform="translate(261.302 73.608)">
      <rect id="Rectangle_1185" data-name="Rectangle 1185" width="144.698" height="105.183" transform="translate(144.698 105.183) rotate(180)" fill="#fff"/>
    </g>
    <g id="Group_1478" data-name="Group 1478" transform="translate(261.302 73.608)">
      <rect id="Rectangle_1186" data-name="Rectangle 1186" width="144.698" height="12.704" transform="translate(144.698 12.704) rotate(180)" fill="url(#linear-gradient)"/>
    </g>
    <g id="Group_1479" data-name="Group 1479" transform="translate(328.587 181.67)">
      <path id="Path_19684" data-name="Path 19684" d="M369.184,229.487a5.064,5.064,0,1,0,5.064-5.063A5.064,5.064,0,0,0,369.184,229.487Z" transform="translate(-369.184 -224.424)" fill="#757575"/>
    </g>
    <g id="Group_1482" data-name="Group 1482" transform="translate(304.262 95.349)">
      <g id="Group_1481" data-name="Group 1481" transform="translate(0)">
        <g id="Group_1480" data-name="Group 1480">
          <path id="Rectangle_1187" data-name="Rectangle 1187" d="M1.882,0H48.972a1.882,1.882,0,0,1,1.882,1.882v0a1.882,1.882,0,0,1-1.882,1.882H1.882A1.882,1.882,0,0,1,0,1.883v0A1.882,1.882,0,0,1,1.882,0Z" transform="translate(50.854 3.765) rotate(180)" fill="#dfe1e8"/>
        </g>
      </g>
    </g>
    <g id="Group_1485" data-name="Group 1485" transform="translate(304.262 102.138)">
      <g id="Group_1484" data-name="Group 1484" transform="translate(0)">
        <g id="Group_1483" data-name="Group 1483">
          <rect id="Rectangle_1188" data-name="Rectangle 1188" width="50.854" height="3.765" rx="1.882" transform="translate(50.854 3.765) rotate(180)" fill="#dfe1e8"/>
        </g>
      </g>
    </g>
    <g id="Group_1488" data-name="Group 1488" transform="translate(304.262 108.928)">
      <g id="Group_1487" data-name="Group 1487" transform="translate(0)">
        <g id="Group_1486" data-name="Group 1486">
          <path id="Rectangle_1189" data-name="Rectangle 1189" d="M1.882,0H48.972a1.882,1.882,0,0,1,1.882,1.882v0a1.882,1.882,0,0,1-1.882,1.882H1.882A1.882,1.882,0,0,1,0,1.883v0A1.882,1.882,0,0,1,1.882,0Z" transform="translate(50.854 3.765) rotate(180)" fill="#dfe1e8"/>
        </g>
      </g>
    </g>
    <g id="Group_1492" data-name="Group 1492" transform="translate(268.001 121.992)">
      <g id="Group_1491" data-name="Group 1491">
        <g id="Group_1490" data-name="Group 1490">
          <g id="Group_1489" data-name="Group 1489">
            <path id="Path_19685" data-name="Path 19685" d="M349.791,193.214h-54.24a8.212,8.212,0,0,1-8.2-8.2V152.017a8.212,8.212,0,0,1,8.2-8.2h54.24a8.212,8.212,0,0,1,8.2,8.2v32.994A8.213,8.213,0,0,1,349.791,193.214Zm-54.24-48.371a7.183,7.183,0,0,0-7.175,7.174v32.994a7.182,7.182,0,0,0,7.175,7.175h54.24a7.182,7.182,0,0,0,7.174-7.175V152.017a7.183,7.183,0,0,0-7.174-7.174Z" transform="translate(-287.349 -143.815)" fill="#dfe1e8"/>
          </g>
        </g>
      </g>
    </g>
    <g id="Group_1495" data-name="Group 1495" transform="translate(276.871 126.493)">
      <g id="Group_1494" data-name="Group 1494" transform="translate(0)">
        <g id="Group_1493" data-name="Group 1493">
          <rect id="Rectangle_1190" data-name="Rectangle 1190" width="52.904" height="7.934" rx="3.967" transform="translate(52.904 7.934) rotate(180)" fill="#dfe1e8"/>
        </g>
      </g>
    </g>
    <rect id="Rectangle_1191" data-name="Rectangle 1191" width="81.795" height="4.169" transform="translate(292.753 222.685)" fill="#f0f0f0"/>
    <g id="Group_1504" data-name="Group 1504" transform="translate(366.179 121.059)">
      <path id="Path_19686" data-name="Path 19686" d="M443.509,154.328a11.774,11.774,0,0,1-8.064,11.176c-.07.024-.141.047-.213.069a11.776,11.776,0,1,1,8.276-11.245Z" transform="translate(-419.961 -142.554)" fill="#eef0f7"/>
      <g id="Group_1496" data-name="Group 1496" transform="translate(8.902 5.424)">
        <path id="Path_19687" data-name="Path 19687" d="M432.045,154.988s-.8-5.2,3.5-5.106,4.252,2.668,4.175,5.221-1.727,2.362.135,5.914-1.612,3.551-1.612,3.551l-2.7-3.705Z" transform="translate(-431.986 -149.88)" fill="#3c4145"/>
      </g>
      <g id="Group_1497" data-name="Group 1497" transform="translate(8.952 5.863)">
        <path id="Path_19688" data-name="Path 19688" d="M435.1,150.534s-2.918.462-3.033,4.608.787,5.03,3.34,4.166,3.36-5.2,3.417-5.875S439.031,150.036,435.1,150.534Z" transform="translate(-432.053 -150.473)" fill="#eea886"/>
      </g>
      <g id="Group_1498" data-name="Group 1498" transform="translate(6.429 16.219)">
        <path id="Path_19689" data-name="Path 19689" d="M439.335,168.589a2.818,2.818,0,0,1-1.635,2.6c-.07.024-.141.047-.212.069a11.815,11.815,0,0,1-8.731-.7c-.355-.708.159-1.714,1.2-3.257a6.613,6.613,0,0,1,2.623-2.669,7.987,7.987,0,0,1,4.977.448A3.707,3.707,0,0,1,439.335,168.589Z" transform="translate(-428.645 -164.461)" fill="#e55353"/>
      </g>
      <g id="Group_1499" data-name="Group 1499" transform="translate(6.974 16.728)">
        <path id="Path_19690" data-name="Path 19690" d="M430.723,167.426l-1.342,2.115c0-.012.093-.332.244-1.259.029-.177.059-.374.093-.6a1.758,1.758,0,0,1,.042-.2h0a6.2,6.2,0,0,1,2.43-2.342Z" transform="translate(-429.381 -165.149)" fill="#e55353"/>
      </g>
      <g id="Group_1500" data-name="Group 1500" transform="translate(13.763 16.822)">
        <path id="Path_19691" data-name="Path 19691" d="M442.506,170.394a11.675,11.675,0,0,1-2.234,1.011c-.07.024-.141.047-.213.069-.3-.768-.556-1.433-.612-1.605-.016-.05-.055-.143-.107-.269a8.92,8.92,0,0,1-.791-2.918c0-.66.213-1.2.877-1.354a1.728,1.728,0,0,1,.7-.027,2.067,2.067,0,0,1,1.414,1.39l.012.03a4.561,4.561,0,0,1,.264.941l.033.13c.042.164.121.477.225.887C442.2,169.147,442.347,169.745,442.506,170.394Z" transform="translate(-438.551 -165.276)" fill="#eea886"/>
      </g>
      <g id="Group_1501" data-name="Group 1501" transform="translate(10.193 12.769)">
        <path id="Path_19692" data-name="Path 19692" d="M437.48,159.863a22.4,22.4,0,0,0-.52,3.442s-3.569,1.349-3.2.586a2.911,2.911,0,0,0,.218-1.184,5.628,5.628,0,0,0-.039-.72c-.009-.078-.016-.123-.016-.123S437.733,159.384,437.48,159.863Z" transform="translate(-433.73 -159.801)" fill="#eea886"/>
      </g>
      <g id="Group_1502" data-name="Group 1502" transform="translate(8.962 5.793)">
        <path id="Path_19693" data-name="Path 19693" d="M433.909,153.485a14.444,14.444,0,0,0,2.861,3.4c1.363.96.672,1.728.672,1.728s3.556-7.487.175-8.006-5.454-.557-5.55,4.512C432.066,155.117,433.6,153.447,433.909,153.485Z" transform="translate(-432.066 -150.379)" fill="#3c4145"/>
      </g>
      <g id="Group_1503" data-name="Group 1503" transform="translate(10.398 14.65)">
        <path id="Path_19694" data-name="Path 19694" d="M436.04,162.342a3.392,3.392,0,0,1-1.994,1.025h0a5.632,5.632,0,0,0-.039-.72A4.076,4.076,0,0,0,436.04,162.342Z" transform="translate(-434.006 -162.342)" fill="#a77860"/>
      </g>
      <path id="Path_19695" data-name="Path 19695" d="M429.852,167.471h0a2.945,2.945,0,0,0-.141.806l.526-.794s.939-1.346,1.26-1.7a4.952,4.952,0,0,1,.788-.657A5.36,5.36,0,0,0,429.852,167.471Z" transform="translate(-422.493 -148.416)" fill="#bd4444"/>
      <path id="Path_19696" data-name="Path 19696" d="M439.209,169.506a20.1,20.1,0,0,1,2.968-.951s-.46-3.679-2.711-3.289S439.209,169.506,439.209,169.506Z" transform="translate(-424.748 -148.444)" fill="#e55353"/>
      <path id="Path_19697" data-name="Path 19697" d="M433.533,164.561s-1.681,2.586-1.112,2.812a5.473,5.473,0,0,0,4.961-2.758A4.62,4.62,0,0,0,433.533,164.561Z" transform="translate(-423.166 -148.162)" fill="#eea886"/>
    </g>
    <g id="Group_1514" data-name="Group 1514" transform="translate(363.436 83.163)">
      <path id="Path_19698" data-name="Path 19698" d="M446.9,106.687a15.254,15.254,0,0,1-3.591,9.855,15.41,15.41,0,0,1-1.712,1.736c-.175.152-.355.3-.538.443q-.309.244-.63.473a15.235,15.235,0,0,1-6.967,2.7q-.681.084-1.379.107c-.167.006-.334.008-.5.008q-.744,0-1.47-.07a15.057,15.057,0,0,1-1.594-.237,15.335,15.335,0,0,1-7.808-4.22c-.095-.095-.188-.191-.278-.289a14.951,14.951,0,0,1-.973-1.137,15.32,15.32,0,1,1,27.443-9.367Z" transform="translate(-416.256 -91.367)" fill="#eef0f7"/>
      <g id="Group_1513" data-name="Group 1513" transform="translate(3.198 6.721)">
        <g id="Group_1505" data-name="Group 1505" transform="translate(2.143 13.489)">
          <path id="Path_19699" data-name="Path 19699" d="M443.429,122.228l-1.13,4.055a15.235,15.235,0,0,1-6.967,2.7q-.681.084-1.379.107c-.167.006-.334.008-.5.008q-.744,0-1.47-.07a15.053,15.053,0,0,1-1.594-.237,15.242,15.242,0,0,1-6.262-2.858c-.217-1.34-.449-2.824-.654-4.211,1.127-.42,4.71-1.638,6.972-2.4l.094-.032.147-.05.383-.129.352-.12.907-.3h0l.047-.016h.026l3.041.227.51.038.158.013.07.017c.184.047.717.187,1.422.4h0C439.406,119.915,442.327,120.962,443.429,122.228Z" transform="translate(-423.47 -118.665)" fill="#d9c7c1"/>
        </g>
        <g id="Group_1506" data-name="Group 1506" transform="translate(8.498 0.951)">
          <path id="Path_19700" data-name="Path 19700" d="M436.476,101.771s3.648.615,3.029,6.325-3.838,5.207-4.053,5.2-3.238.069-3.4-6.913C432.053,106.381,432.007,101.22,436.476,101.771Z" transform="translate(-432.053 -101.729)" fill="#eea987"/>
        </g>
        <g id="Group_1507" data-name="Group 1507" transform="translate(9.728 10.2)">
          <path id="Path_19701" data-name="Path 19701" d="M438.506,114.883a13.135,13.135,0,0,0,.1,2.861c.222.512-2.929,2.13-4.887.287a20.14,20.14,0,0,0,.272-3.476C433.865,113.648,438.506,114.883,438.506,114.883Z" transform="translate(-433.715 -114.223)" fill="#eea987"/>
        </g>
        <g id="Group_1508" data-name="Group 1508" transform="translate(15.785 5.519)">
          <path id="Path_19702" data-name="Path 19702" d="M442.134,108.084s.4-.423.546.012-.646,2.358-.6,2.446c0,0-.075.167-.17.073A20.981,20.981,0,0,1,442.134,108.084Z" transform="translate(-441.896 -107.9)" fill="#eea987"/>
        </g>
        <g id="Group_1509" data-name="Group 1509" transform="translate(7.966 5.351)">
          <path id="Path_19703" data-name="Path 19703" d="M431.909,107.871s-.387-.439-.546-.011a7.35,7.35,0,0,0,.5,2.469s.126.2.224.107A20.989,20.989,0,0,0,431.909,107.871Z" transform="translate(-431.335 -107.673)" fill="#eea987"/>
        </g>
        <g id="Group_1510" data-name="Group 1510" transform="translate(8.242)">
          <path id="Path_19704" data-name="Path 19704" d="M439.723,105.664c-.126.782-.244,1.362-.244,1.362l-.532.693a13.924,13.924,0,0,0-.05-1.774c-.031-.091-.067-.253-.1-.428-.061-.289-.124-.614-.167-.723a7.813,7.813,0,0,0-5.849.187s.023.235.021.5c0,.306-.035.649-.175.7-.261.1-.152,1.795-.152,1.795l-.425-.49s-.123-.887-.244-1.907v-.007c-.027-.238-.055-.482-.081-.725a4.771,4.771,0,0,1,1.376-3.982,6.574,6.574,0,0,1,4.74.021,1.65,1.65,0,0,1,.7.185C440.035,102.713,439.723,105.664,439.723,105.664Z" transform="translate(-431.708 -100.445)" fill="#e8734d"/>
        </g>
        <path id="Path_19705" data-name="Path 19705" d="M434.422,116.32a2.323,2.323,0,0,0,1.935.778,2.633,2.633,0,0,0,1.939-.736,2.361,2.361,0,0,1-1.946,1.325A2.389,2.389,0,0,1,434.422,116.32Z" transform="translate(-424.171 -104.567)" fill="#c78d71"/>
        <path id="Path_19706" data-name="Path 19706" d="M433.213,119.191a3.975,3.975,0,0,0,2.832,1.862c1.176.1,2.2-1.389,2.673-2.121A7.123,7.123,0,0,0,433.213,119.191Z" transform="translate(-423.857 -105.133)" fill="#eea987"/>
        <path id="Path_19707" data-name="Path 19707" d="M439.372,118.356a10.089,10.089,0,0,1-2.334,2.023l.988,1.522,1.685-3.006Z" transform="translate(-424.85 -105.096)" fill="#eddad3"/>
        <path id="Path_19708" data-name="Path 19708" d="M433.608,118.664a6.783,6.783,0,0,0,2.385,1.795l-1.084,1.568-1.9-2.743Z" transform="translate(-423.805 -105.176)" fill="#eddad3"/>
        <path id="Path_19709" data-name="Path 19709" d="M436.733,121.088l.847,1.288a1.761,1.761,0,0,1-1.715-.032Z" transform="translate(-424.545 -105.805)" fill="#5073ab"/>
        <path id="Path_19710" data-name="Path 19710" d="M448.567,122.1s-.007.029-.024.084c-.093.331-.451,1.6-.916,3.293-.175.152-.355.3-.538.443q-.309.244-.63.473a15.235,15.235,0,0,1-6.967,2.7c.227-5.3.856-10.006.856-10.006q.745.2,1.413.389h0a32.455,32.455,0,0,1,6.53,2.466l.016.008C448.486,122.045,448.567,122.1,448.567,122.1Z" transform="translate(-425.487 -105.285)" fill="#323657"/>
        <path id="Path_19711" data-name="Path 19711" d="M429.815,129.016a15.335,15.335,0,0,1-7.808-4.22c-.095-.095-.188-.191-.278-.289-.268-1.139-.446-1.882-.458-1.93v0s1.9-1.245,8.6-3.034v0C429.87,119.7,429.874,124,429.815,129.016Z" transform="translate(-420.755 -105.403)" fill="#323657"/>
        <path id="Path_19712" data-name="Path 19712" d="M436.985,122.855c-.063,1.4-.069,4.107-.048,7.2-.167.006-.334.008-.5.008q-.744,0-1.47-.07a47.14,47.14,0,0,1,1.018-7.141c.075-.309.119-.463.119-.463l.9.149C436.995,122.635,436.99,122.74,436.985,122.855Z" transform="translate(-424.312 -106.143)" fill="#5073ab"/>
        <g id="Group_1511" data-name="Group 1511" transform="translate(21.602 16.652)">
          <path id="Path_19713" data-name="Path 19713" d="M452,124.74a15.41,15.41,0,0,1-1.712,1.736c-.175.152-.355.3-.538.443l1.205-3.98h0a.064.064,0,0,1,.015.01,1.015,1.015,0,0,1,.233.235A7.445,7.445,0,0,1,452,124.74Z" transform="translate(-449.754 -122.938)" fill="#323657"/>
        </g>
        <g id="Group_1512" data-name="Group 1512" transform="translate(0 17.171)">
          <path id="Path_19714" data-name="Path 19714" d="M421.826,125.86c-.095-.095-.188-.191-.278-.289a14.951,14.951,0,0,1-.973-1.137,1.773,1.773,0,0,1,.514-.8v0Z" transform="translate(-420.575 -123.638)" fill="#323657"/>
        </g>
      </g>
    </g>
    <rect id="Rectangle_1192" data-name="Rectangle 1192" width="20.638" height="4.801" rx="2.331" transform="translate(267.345 77.56)" fill="#f5f7ff"/>
    <g id="Group_1517" data-name="Group 1517" transform="translate(366.178 149.117)">
      <path id="Path_19715" data-name="Path 19715" d="M443.509,192.227a11.775,11.775,0,1,1-11.774-11.774A11.775,11.775,0,0,1,443.509,192.227Z" transform="translate(-419.96 -180.453)" fill="#eef0f7"/>
      <g id="Group_1515" data-name="Group 1515" transform="translate(11.182 7.079)">
        <path id="Path_19716" data-name="Path 19716" d="M435.656,199.4a.593.593,0,0,1-.592-.593v-8.2a.593.593,0,1,1,1.185,0v8.2A.593.593,0,0,1,435.656,199.4Z" transform="translate(-435.064 -190.015)" fill="#949494"/>
      </g>
      <g id="Group_1516" data-name="Group 1516" transform="translate(7.08 11.181)">
        <path id="Path_19717" data-name="Path 19717" d="M438.319,196.742h-8.2a.593.593,0,1,1,0-1.186h8.2a.593.593,0,1,1,0,1.186Z" transform="translate(-429.523 -195.556)" fill="#949494"/>
      </g>
    </g>
    <g id="Group_1522" data-name="Group 1522" transform="translate(344.074 122.507)">
      <g id="Group_1518" data-name="Group 1518">
        <path id="Rectangle_1193" data-name="Rectangle 1193" d="M3.12,0h4.8a3.121,3.121,0,0,1,3.121,3.121v4.8a3.121,3.121,0,0,1-3.121,3.121h-4.8A3.121,3.121,0,0,1,0,7.921V3.12A3.12,3.12,0,0,1,3.12,0Z" fill="#ffbf55"/>
      </g>
      <g id="Group_1521" data-name="Group 1521" transform="translate(2.191 3.089)">
        <g id="Group_1520" data-name="Group 1520">
          <g id="Group_1519" data-name="Group 1519">
            <path id="Path_19718" data-name="Path 19718" d="M396.043,153.547l-2.791-2.433a.55.55,0,0,1,.722-.829l1.974,1.721,2.815-3.141a.55.55,0,0,1,.82.734Z" transform="translate(-393.063 -148.682)" fill="#f3f3f3"/>
          </g>
        </g>
      </g>
    </g>
    <g id="Group_1527" data-name="Group 1527" transform="translate(344.074 136.657)">
      <g id="Group_1523" data-name="Group 1523">
        <rect id="Rectangle_1194" data-name="Rectangle 1194" width="11.042" height="11.043" rx="3.121" fill="#ffbf55"/>
      </g>
      <g id="Group_1526" data-name="Group 1526" transform="translate(2.191 3.089)">
        <g id="Group_1525" data-name="Group 1525">
          <g id="Group_1524" data-name="Group 1524">
            <path id="Path_19719" data-name="Path 19719" d="M396.043,172.66l-2.791-2.433a.55.55,0,0,1,.722-.829l1.974,1.721,2.815-3.14a.55.55,0,1,1,.82.734Z" transform="translate(-393.063 -167.796)" fill="#f3f3f3"/>
          </g>
        </g>
      </g>
    </g>
    <g id="Group_1529" data-name="Group 1529" transform="translate(344.074 150.808)">
      <g id="Group_1528" data-name="Group 1528">
        <path id="Rectangle_1195" data-name="Rectangle 1195" d="M3.121,0h4.8a3.121,3.121,0,0,1,3.121,3.121v4.8a3.12,3.12,0,0,1-3.12,3.12H3.12A3.12,3.12,0,0,1,0,7.922v-4.8A3.121,3.121,0,0,1,3.121,0Z" fill="#ffbf55"/>
      </g>
    </g>
    <g id="Group_1536" data-name="Group 1536" transform="translate(296.311 132.988)">
      <path id="Path_19720" data-name="Path 19720" d="M328.919,290.057a8.462,8.462,0,0,1-1.035,1.763c-.474.5-2.287,1.395-2.3,2.881-.01,1.612,3.056,1.164,4.255,1.105s1.29-.919,1.8-1.832,1.014-.758,1.109-1.493a8.788,8.788,0,0,0-.387-2.384Z" transform="translate(-325.588 -192.784)" fill="#131c24"/>
      <path id="Path_19721" data-name="Path 19721" d="M329.986,289.354l-.087.764a6.666,6.666,0,0,0,3.67.066l-.1-1.045Z" transform="translate(-326.707 -192.546)" fill="#4f4946"/>
      <path id="Path_19722" data-name="Path 19722" d="M358.61,290.057a8.478,8.478,0,0,0,1.036,1.763c.474.5,2.286,1.395,2.3,2.881.01,1.612-3.055,1.164-4.255,1.105s-1.29-.919-1.795-1.832-1.015-.758-1.109-1.493a8.8,8.8,0,0,1,.386-2.384Z" transform="translate(-333.166 -192.784)" fill="#131c24"/>
      <path id="Path_19723" data-name="Path 19723" d="M358.772,289.354l.088.764a6.666,6.666,0,0,1-3.67.066l.1-1.045Z" transform="translate(-333.275 -192.546)" fill="#4f4946"/>
      <path id="Path_19724" data-name="Path 19724" d="M350.852,251.132c0,1.986,1.854,20.125,1.854,20.125-.212.663-4.766.582-5.476.25s-2.774-18.3-2.906-20.308-3.095-19.425-3.717-19.358-3.574,18.736-4.071,20.259-2.753,19.581-2.753,19.581c-1.562.861-5.276-.216-5.276-.216s.779-18.54.868-19.1c.132-.828-.006-3.062.355-8.016.324-4.433,1.491-14.084,2.231-19.31q.04-.279.076-.536c.145-1.016.254-1.764.306-2.123l.036-.238c.2-.086.408-.164.625-.238,5.2-1.742,15.1-1.631,15.1-1.631s.135,1.779.147,1.866c.013.1.034.269.061.483.058.461.144,1.148.243,1.943l0,.018.009.073c.35,2.834.845,6.984.8,7.416C349.3,232.732,350.852,249.146,350.852,251.132Z" transform="translate(-326.346 -174.663)" fill="#293e4f"/>
      <g id="Group_1530" data-name="Group 1530" transform="translate(4.656 14.016)">
        <path id="Path_19725" data-name="Path 19725" d="M352.467,181.3l-2.555,9.168c-.088.3-.193.664-.3,1.089l0,.016,0,.011a35.981,35.981,0,0,0-1.111,6.893c-.107,1.887.243,9.472.243,9.472a25.5,25.5,0,0,1-9.653,1.077s-6.224-.146-5.716-3.962c1.343-10.1.03-14.264-.147-15.279,0,0-.735-4.653-1.34-8.763,1.752-.652,9.124-3.42,9.124-3.42l3.876.29S350.766,179.339,352.467,181.3Z" transform="translate(-331.877 -177.598)" fill="#d9c7c1"/>
      </g>
      <g id="Group_1531" data-name="Group 1531" transform="translate(11.136 1.013)">
        <path id="Path_19726" data-name="Path 19726" d="M345.218,160.077s3.782.638,3.141,6.561-3.981,5.4-4.2,5.391-3.359.072-3.525-7.169C340.63,164.86,340.583,159.505,345.218,160.077Z" transform="translate(-340.63 -160.034)" fill="#eea987"/>
      </g>
      <g id="Group_1532" data-name="Group 1532" transform="translate(12.412 10.606)">
        <path id="Path_19727" data-name="Path 19727" d="M347.322,173.678a13.633,13.633,0,0,0,.1,2.968c.23.529-3.038,2.208-5.068.3a20.963,20.963,0,0,0,.284-3.605C342.51,172.4,347.322,173.678,347.322,173.678Z" transform="translate(-342.354 -172.992)" fill="#eea987"/>
      </g>
      <g id="Group_1533" data-name="Group 1533" transform="translate(18.695 5.75)">
        <path id="Path_19728" data-name="Path 19728" d="M351.086,166.625s.421-.438.567.013-.67,2.446-.62,2.537c0,0-.078.173-.175.076A21.591,21.591,0,0,1,351.086,166.625Z" transform="translate(-350.84 -166.434)" fill="#eea987"/>
      </g>
      <g id="Group_1534" data-name="Group 1534" transform="translate(10.584 5.577)">
        <path id="Path_19729" data-name="Path 19729" d="M340.48,166.4s-.4-.455-.567-.011a7.612,7.612,0,0,0,.515,2.56s.13.2.232.112A21.907,21.907,0,0,0,340.48,166.4Z" transform="translate(-339.885 -166.199)" fill="#eea987"/>
      </g>
      <g id="Group_1535" data-name="Group 1535" transform="translate(10.871)">
        <path id="Path_19730" data-name="Path 19730" d="M348.585,164.105c-.13.81-.253,1.413-.253,1.413l-.552.719a14.585,14.585,0,0,0-.051-1.84,4.568,4.568,0,0,1-.107-.444c-.063-.3-.128-.637-.173-.749a8.1,8.1,0,0,0-6.067.193s.024.246.022.518c0,.317-.036.673-.181.726-.271.1-.158,1.86-.158,1.86l-.44-.509s-.127-.92-.252-1.977v-.007c-.028-.247-.057-.5-.085-.752a4.945,4.945,0,0,1,1.427-4.13c.935-.4,3.488-.8,4.915.021a10.9,10.9,0,0,1,.924.629A5.509,5.509,0,0,1,348.585,164.105Z" transform="translate(-340.272 -158.667)" fill="#e8734d"/>
      </g>
      <path id="Path_19731" data-name="Path 19731" d="M343.087,175.167a2.409,2.409,0,0,0,2.006.807,2.73,2.73,0,0,0,2.012-.763,2.45,2.45,0,0,1-2.019,1.375A2.478,2.478,0,0,1,343.087,175.167Z" transform="translate(-330.132 -162.951)" fill="#c78d71"/>
      <path id="Path_19732" data-name="Path 19732" d="M341.833,178.145a4.125,4.125,0,0,0,2.938,1.932c1.221.105,2.268-1.445,2.762-2.2A7.377,7.377,0,0,0,341.833,178.145Z" transform="translate(-329.806 -163.538)" fill="#eea987"/>
      <path id="Path_19733" data-name="Path 19733" d="M348.222,177.279a10.474,10.474,0,0,1-2.421,2.1l1.025,1.579,1.747-3.13Z" transform="translate(-330.837 -163.5)" fill="#eddad3"/>
      <path id="Path_19734" data-name="Path 19734" d="M342.246,177.6a7.041,7.041,0,0,0,2.475,1.861l-1.125,1.626-1.954-2.776Z" transform="translate(-329.757 -163.582)" fill="#eddad3"/>
      <path id="Path_19735" data-name="Path 19735" d="M345.485,180.112l.878,1.336a1.826,1.826,0,0,1-1.779-.033Z" transform="translate(-330.521 -164.235)" fill="#5073ab"/>
      <path id="Path_19736" data-name="Path 19736" d="M333.6,220.325s4.746,1.751,15.48.1l-.143-1.944a36.169,36.169,0,0,1-15.149.264Z" transform="translate(-327.668 -174.199)" fill="#1a2833"/>
      <path id="Path_19737" data-name="Path 19737" d="M349.2,178.017a118.5,118.5,0,0,0-.958,15.454c.152,7.152,2.474,20.563,2.474,20.563s4.14-.406,5.168-1.7c0,0-2.375-12.908-2.308-14.821s3.046-16.3,3.046-16.3S355.461,179.664,349.2,178.017Z" transform="translate(-331.468 -163.691)" fill="#385369"/>
      <path id="Path_19738" data-name="Path 19738" d="M338.824,178.6s-.01,7.868-.162,15.019-1.093,20.465-1.093,20.465-4.857-.692-5.884-1.986c0,0,1.712-12.523,1.644-14.437s-2.2-16.157-2.2-16.157S331.868,180.459,338.824,178.6Z" transform="translate(-327.028 -163.844)" fill="#385369"/>
      <rect id="Rectangle_1196" data-name="Rectangle 1196" width="2.916" height="2.168" transform="translate(12.404 44.883)" fill="#3e5e78"/>
      <path id="Path_19739" data-name="Path 19739" d="M344.738,181.461s-1.3,4.446-1.417,13.275.16,11.362.16,11.362l1.017,2.012,1.355-2.1s-.435-20.318-.183-24.395Z" transform="translate(-330.186 -164.585)" fill="#5073ab"/>
      <path id="Path_19740" data-name="Path 19740" d="M352.589,197.622s1.928-.97,2.2-1.14a25.429,25.429,0,0,1,3.893-.635c.406.013.423.336.309.452s-3.334.643-3.389.72.272.049.272.049a20.941,20.941,0,0,1,3.712.179c.242.232-.036.452-.177.511,0,0,.315.363-.049.512a5.49,5.49,0,0,1-.858.244s.458.236.156.447-3.977,1.349-3.977,1.349S353.31,197.7,352.589,197.622Z" transform="translate(-332.599 -168.321)" fill="#eea886"/>
      <path id="Path_19741" data-name="Path 19741" d="M355.832,200.182c-2.506.6-8.3-.374-10.5-.86-.468-.1-1-.211-1.539-.317h0c-.9-.178-1.845-.35-2.609-.487h0c-.942-.168-1.615-.281-1.615-.281s12.154-2.73,12.6-2.73-1.122-7.106-1.122-7.106-1.566-5.95-.752-8.289a21.564,21.564,0,0,1,4.081,1.649c.557.4.966,2.978,1.345,4.733.482,2.223,1.6,7.289,1.725,8.358C357.56,195.826,358.337,199.583,355.832,200.182Z" transform="translate(-329.217 -164.235)" fill="#385369"/>
      <path id="Path_19742" data-name="Path 19742" d="M333.991,180.151s-3.734,1.276-3.912,1.76a45.6,45.6,0,0,0-1.35,5.192c-.3,1.1-.974,4.381-1.147,5.451a44.018,44.018,0,0,0-.461,6.948c.233.942,2.453.874,3.65.687s17.827-4.234,17.827-4.234-.948-3.094-1-3.367c0,0-12.818,1.465-14.451,1.813a11.132,11.132,0,0,0-1.134.275S334.84,183.073,333.991,180.151Z" transform="translate(-325.974 -164.245)" fill="#385369"/>
      <path id="Path_19743" data-name="Path 19743" d="M336.984,197.785s-1.673-1.363-1.9-1.587a25.465,25.465,0,0,0-3.665-1.458.336.336,0,0,0-.437.4c.053.278,3.155,1.317,3.192,1.4s-.276-.011-.276-.011a20.931,20.931,0,0,0-3.662-.625c-.287.175-.063.449.062.537,0,0-.386.286-.062.511a5.407,5.407,0,0,0,.785.423s-.5.132-.249.4a8.484,8.484,0,0,0,2.026.676A29.937,29.937,0,0,1,336.984,197.785Z" transform="translate(-326.759 -168.031)" fill="#eea886"/>
      <path id="Path_19744" data-name="Path 19744" d="M349.993,202.289l-5.638,2.474h0c-.9-.178-1.845-.35-2.609-.487Z" transform="translate(-329.784 -169.994)" fill="#263947"/>
      <path id="Path_19745" data-name="Path 19745" d="M349.215,159.973s.939-.473,1.446.147.563,3.991-.057,5.285S350.7,160.811,349.215,159.973Z" transform="translate(-331.723 -158.961)" fill="#e8734d"/>
    </g>
    <rect id="Rectangle_1197" data-name="Rectangle 1197" width="1.678" height="76.299" transform="translate(276.398 167.414)" fill="#706865"/>
    <path id="Rectangle_1198" data-name="Rectangle 1198" d="M6.8,0H48.427a6.806,6.806,0,0,1,6.806,6.806V88.775a6.806,6.806,0,0,1-6.806,6.806H6.805A6.805,6.805,0,0,1,0,88.775V6.8A6.8,6.8,0,0,1,6.8,0Z" transform="translate(230.242 135.539)" fill="#bdafaa"/>
    <path id="Rectangle_1199" data-name="Rectangle 1199" d="M6.725,0H45.477A6.724,6.724,0,0,1,52.2,6.724V83.583a6.725,6.725,0,0,1-6.725,6.725H6.724A6.724,6.724,0,0,1,0,83.583V6.725A6.725,6.725,0,0,1,6.725,0Z" transform="translate(231.757 137.078)" fill="#fff"/>
    <rect id="Rectangle_1200" data-name="Rectangle 1200" width="16.458" height="3.716" transform="translate(249.629 134.815)" fill="#706865"/>
    <g id="Group_1540" data-name="Group 1540" transform="translate(235.587 194.938)">
      <g id="Group_1539" data-name="Group 1539">
        <g id="Group_1538" data-name="Group 1538">
          <g id="Group_1537" data-name="Group 1537">
            <path id="Path_19746" data-name="Path 19746" d="M281.889,271.183H248.475a4.915,4.915,0,0,1-4.909-4.909V247.253a4.914,4.914,0,0,1,4.909-4.908h33.414a4.914,4.914,0,0,1,4.908,4.908v19.021A4.914,4.914,0,0,1,281.889,271.183Zm-33.414-28.206a4.281,4.281,0,0,0-4.276,4.275v19.021a4.281,4.281,0,0,0,4.276,4.276h33.414a4.281,4.281,0,0,0,4.276-4.276V247.253a4.281,4.281,0,0,0-4.276-4.275Z" transform="translate(-243.566 -242.345)" fill="#b5deff"/>
          </g>
        </g>
      </g>
    </g>
    <g id="Group_1542" data-name="Group 1542" transform="translate(243.923 177.767)">
      <g id="Group_1541" data-name="Group 1541">
        <path id="Path_19747" data-name="Path 19747" d="M254.832,219.152h-.007C254.858,219.166,254.862,219.167,254.832,219.152Z" transform="translate(-254.825 -219.151)" fill="#323657"/>
      </g>
    </g>
    <g id="Group_1543" data-name="Group 1543" transform="translate(267.502 164.822)">
      <path id="Path_19748" data-name="Path 19748" d="M292.12,212.557a5.445,5.445,0,1,1,5.445-5.446A5.452,5.452,0,0,1,292.12,212.557Zm0-10.258a4.813,4.813,0,1,0,4.813,4.812A4.818,4.818,0,0,0,292.12,202.3Z" transform="translate(-286.675 -201.667)" fill="#b5deff"/>
    </g>
    <g id="Group_1544" data-name="Group 1544" transform="translate(267.502 177.37)">
      <path id="Path_19749" data-name="Path 19749" d="M292.12,229.5a5.445,5.445,0,1,1,5.445-5.444A5.451,5.451,0,0,1,292.12,229.5Zm0-10.257a4.812,4.812,0,1,0,4.813,4.812A4.818,4.818,0,0,0,292.12,219.248Z" transform="translate(-286.675 -218.615)" fill="#b5deff"/>
    </g>
    <g id="Group_1545" data-name="Group 1545" transform="translate(234.301 142.299)">
      <path id="Path_19750" data-name="Path 19750" d="M255.933,199.454c-.449,0-.9-.021-1.352-.063a14.116,14.116,0,0,1-8.658-4.1c-.091-.093-.178-.183-.257-.267-.312-.33-.614-.683-.894-1.047a13.965,13.965,0,0,1-2.944-8.623,14.122,14.122,0,0,1,14.1-14.106v.632A13.489,13.489,0,0,0,242.46,185.35a13.344,13.344,0,0,0,2.811,8.237c.269.347.556.683.856,1,.076.081.158.167.245.255a13.411,13.411,0,0,0,8.269,3.919c.428.041.863.061,1.292.061.157,0,.3,0,.442-.007.409-.013.817-.044,1.213-.094a13.446,13.446,0,0,0,6.127-2.372c.19-.135.378-.275.555-.415.154-.121.312-.252.473-.391a13.628,13.628,0,0,0,1.505-1.526,13.487,13.487,0,0,0,3.158-8.667,13.639,13.639,0,0,0-.144-1.977l.626-.092a14.1,14.1,0,0,1-4.731,12.74c-.167.145-.335.283-.5.409-.185.146-.38.292-.58.434a14.082,14.082,0,0,1-6.417,2.485c-.414.051-.841.084-1.268.1C256.248,199.452,256.1,199.454,255.933,199.454Z" transform="translate(-241.828 -171.244)" fill="#b5deff"/>
    </g>
    <path id="Path_19751" data-name="Path 19751" d="M266.894,195.052a1.084,1.084,0,0,0-.138-.154.228.228,0,0,0-.072-.059l-.013-.007h0a29.215,29.215,0,0,0-5.878-2.22h0c-.635-.193-1.115-.32-1.28-.362l-.062-.015-.144-.011a.14.14,0,0,0-.007-.03,8.1,8.1,0,0,1-.107-2.071,5.865,5.865,0,0,0,1.189-2.858c.079.059.14-.076.14-.076-.044-.078.666-1.811.538-2.2a.205.205,0,0,0-.335-.132c.017-.1.034-.2.053-.315,0,0,.281-2.656-1.064-4.136a1.49,1.49,0,0,0-.634-.167,5.924,5.924,0,0,0-4.266-.019,4.293,4.293,0,0,0-1.239,3.585c.024.218.05.439.074.653v.007c.01.084.02.167.03.249a.2.2,0,0,0-.341.117,6.61,6.61,0,0,0,.446,2.222s.113.178.2.1h0a6.348,6.348,0,0,0,1.166,3.032c-.047.853-.2,1.919-.242,2.2h0l-.345.117c-.044.014-.088.029-.133.045l-.084.028v0c-6.036,1.611-7.742,2.732-7.742,2.732a1.593,1.593,0,0,0-.463.715,13.26,13.26,0,0,0,.875,1.024c.082.088.166.175.251.261a13.8,13.8,0,0,0,7.028,3.8,13.61,13.61,0,0,0,1.435.213c.435.041.877.063,1.322.063q.228,0,.453-.007c.418-.014.833-.046,1.24-.1a13.715,13.715,0,0,0,6.271-2.428q.29-.207.568-.426c.164-.129.327-.263.484-.4a13.894,13.894,0,0,0,1.541-1.562A6.77,6.77,0,0,0,266.894,195.052Z" transform="translate(-8.648 -31.178)" fill="#b5deff"/>
    <g id="Group_1640" data-name="Group 1640" transform="translate(365.441 159.706)">
      <g id="Group_1546" data-name="Group 1546" transform="translate(40.724 34.929)">
        <rect id="Rectangle_1201" data-name="Rectangle 1201" width="16.339" height="0.97" transform="translate(16.339 0.97) rotate(180)" fill="#e2d2ca"/>
      </g>
      <g id="Group_1547" data-name="Group 1547" transform="translate(53.442 38.422)">
        <rect id="Rectangle_1202" data-name="Rectangle 1202" width="1.431" height="44.108" fill="#706865"/>
      </g>
      <g id="Group_1548" data-name="Group 1548" transform="translate(31.925 34.653)">
        <rect id="Rectangle_1203" data-name="Rectangle 1203" width="11.357" height="1.385" transform="translate(11.357 1.385) rotate(180)" fill="#ccbdb7"/>
      </g>
      <g id="Group_1549" data-name="Group 1549" transform="translate(35.453 22.836)">
        <rect id="Rectangle_1204" data-name="Rectangle 1204" width="4.3" height="13.062" transform="translate(4.3 13.062) rotate(180)" fill="#4667a8"/>
      </g>
      <g id="Group_1550" data-name="Group 1550" transform="translate(0 35.915)">
        <rect id="Rectangle_1205" data-name="Rectangle 1205" width="62.923" height="2.507" transform="translate(62.923 2.507) rotate(180)" fill="#b59074"/>
      </g>
      <g id="Group_1551" data-name="Group 1551" transform="translate(68.048 16.522)">
        <path id="Path_19752" data-name="Path 19752" d="M517.833,221.286s.688,9.652-1.2,10.807c-1.182.723-5.892,3.164-5.752,3.622s2.66,4.072,2.66,4.072,9.047-5.957,9.339-7.835c.285-1.835-.445-14.132-1.689-14.7-.931-.424-1.423-.073-2.6.8A2.748,2.748,0,0,0,517.833,221.286Z" transform="translate(-510.88 -217.073)" fill="#323657"/>
      </g>
      <g id="Group_1554" data-name="Group 1554" transform="translate(57.714 20.917)">
        <g id="Group_1553" data-name="Group 1553">
          <g id="Group_1552" data-name="Group 1552">
            <path id="Path_19753" data-name="Path 19753" d="M497.719,225.583l-.8-.295s.994-2.334,1.428-2.277a10.723,10.723,0,0,1,1.125.23Z" transform="translate(-496.922 -223.01)" fill="#ead8cf"/>
          </g>
        </g>
      </g>
      <g id="Group_1557" data-name="Group 1557" transform="translate(58.329 20.761)">
        <g id="Group_1556" data-name="Group 1556">
          <g id="Group_1555" data-name="Group 1555">
            <path id="Path_19754" data-name="Path 19754" d="M497.753,225.931c.1-.076,1.695-3.132,1.695-3.132l3.4.463-1.839,3.62Z" transform="translate(-497.753 -222.799)" fill="#da9b5b"/>
          </g>
        </g>
      </g>
      <g id="Group_1560" data-name="Group 1560" transform="translate(63.869 76.256)">
        <g id="Group_1559" data-name="Group 1559">
          <g id="Group_1558" data-name="Group 1558">
            <path id="Path_19755" data-name="Path 19755" d="M505.236,298.01s.281,1.953.316,2.246,3.129-.173,3.129-.173l.251-2.324A18.331,18.331,0,0,0,505.236,298.01Z" transform="translate(-505.236 -297.758)" fill="#424773"/>
          </g>
        </g>
      </g>
      <g id="Group_1563" data-name="Group 1563" transform="translate(58.782 78.374)">
        <g id="Group_1562" data-name="Group 1562">
          <g id="Group_1561" data-name="Group 1561">
            <path id="Path_19756" data-name="Path 19756" d="M503.735,300.751a8.366,8.366,0,0,1-1.929,1.689c-.948.512-2.438.716-3,1.247-.4.383-1.474,2.034,2.464,2s5.838.232,6.26-.4-.612-4.669-.612-4.669A8.344,8.344,0,0,1,503.735,300.751Z" transform="translate(-498.365 -300.618)" fill="#292c47"/>
          </g>
        </g>
      </g>
      <g id="Group_1566" data-name="Group 1566" transform="translate(44.042 76.274)">
        <g id="Group_1565" data-name="Group 1565">
          <g id="Group_1564" data-name="Group 1564">
            <path id="Path_19757" data-name="Path 19757" d="M478.455,298.035s.281,1.953.317,2.246,3.13-.172,3.13-.172l.25-2.325A18.347,18.347,0,0,0,478.455,298.035Z" transform="translate(-478.455 -297.782)" fill="#424773"/>
          </g>
        </g>
      </g>
      <g id="Group_1569" data-name="Group 1569" transform="translate(37.137 78.392)">
        <g id="Group_1568" data-name="Group 1568">
          <g id="Group_1567" data-name="Group 1567">
            <path id="Path_19758" data-name="Path 19758" d="M476.317,300.775a8.355,8.355,0,0,1-1.929,1.689c-.948.514-4.438.935-5,1.466-.4.383-1.078,1.926,4.463,1.781,3.937-.1,5.838.233,6.259-.4s-.61-4.669-.61-4.669A7.569,7.569,0,0,1,476.317,300.775Z" transform="translate(-469.128 -300.643)" fill="#292c47"/>
          </g>
        </g>
      </g>
      <g id="Group_1572" data-name="Group 1572" transform="translate(41.558 42.776)">
        <g id="Group_1571" data-name="Group 1571">
          <g id="Group_1570" data-name="Group 1570">
            <path id="Path_19759" data-name="Path 19759" d="M507.391,252.535s-11.25,1.9-13.792,2.3-16.318,3.828-18.041,4.872c-1.371.831.72,20.8,1.208,28.423h5.427l.394-22.856c6.512.163,11.159-1.524,15.9-.8s8.7,1.743,11.709-2.3C510.2,262.174,510.308,253.417,507.391,252.535Z" transform="translate(-475.099 -252.535)" fill="#292c47"/>
          </g>
        </g>
      </g>
      <g id="Group_1575" data-name="Group 1575" transform="translate(61.081 45.209)">
        <g id="Group_1574" data-name="Group 1574">
          <g id="Group_1573" data-name="Group 1573">
            <path id="Path_19760" data-name="Path 19760" d="M503.15,289l5.288-.327.516-22.548a32.214,32.214,0,0,0,6.033-.384l4.27-9.925c-3.742.748-15.732,3.773-17.331,4.742C500.555,261.394,502.662,281.384,503.15,289Z" transform="translate(-501.469 -255.821)" fill="#292c47"/>
          </g>
        </g>
      </g>
      <g id="Group_1578" data-name="Group 1578" transform="translate(62.119 0.408)">
        <g id="Group_1577" data-name="Group 1577">
          <g id="Group_1576" data-name="Group 1576">
            <path id="Path_19761" data-name="Path 19761" d="M509.424,195.5s-4.124-1.139-5.7,2.062-.86,9.271,1.218,9.842,5.068-.087,5.931-2.079a15.275,15.275,0,0,0,1.344-6.658A4.018,4.018,0,0,0,509.424,195.5Z" transform="translate(-502.872 -195.307)" fill="#eea886"/>
          </g>
        </g>
      </g>
      <g id="Group_1581" data-name="Group 1581" transform="translate(65.038 9.064)">
        <g id="Group_1580" data-name="Group 1580">
          <g id="Group_1579" data-name="Group 1579">
            <path id="Path_19762" data-name="Path 19762" d="M507.046,209.8a12.585,12.585,0,0,1-.223,2.954c-.269.519,5.742.389,5.742.389a12.2,12.2,0,0,1-.409-5.415C512.687,205.267,507.046,209.8,507.046,209.8Z" transform="translate(-506.814 -206.999)" fill="#eea886"/>
          </g>
        </g>
      </g>
      <g id="Group_1584" data-name="Group 1584" transform="translate(61.991)">
        <g id="Group_1583" data-name="Group 1583">
          <g id="Group_1582" data-name="Group 1582">
            <path id="Path_19763" data-name="Path 19763" d="M511.411,203.632s-.321.654-1.878.548-3.608-1.983-4.269-2.15-.7-.544-.7-.544l-.35.621-.677.1s.46-1.882-.542-2.545.451-6,5.525-4.711c0,0,3.872.709,3.924,2.872S512.163,202.486,511.411,203.632Z" transform="translate(-502.699 -194.756)" fill="#3a3f47"/>
          </g>
        </g>
      </g>
      <g id="Group_1587" data-name="Group 1587" transform="translate(64.73 13.16)">
        <g id="Group_1586" data-name="Group 1586">
          <g id="Group_1585" data-name="Group 1585">
            <path id="Path_19764" data-name="Path 19764" d="M506.4,214.133s.017-.991.466-1.087,4.726-.683,5.277-.466l.237,1.31S511.316,214.543,506.4,214.133Z" transform="translate(-506.399 -212.532)" fill="#e2d2ca"/>
          </g>
        </g>
      </g>
      <g id="Group_1590" data-name="Group 1590" transform="translate(63.44 5.185)">
        <g id="Group_1589" data-name="Group 1589">
          <g id="Group_1588" data-name="Group 1588">
            <path id="Path_19765" data-name="Path 19765" d="M504.709,202.861c.116-.813,1.039-1.746,1.569-.48s-.357,3.11-.951,3.012S504.553,203.964,504.709,202.861Z" transform="translate(-504.656 -201.76)" fill="#eea886"/>
          </g>
        </g>
      </g>
      <g id="Group_1593" data-name="Group 1593" transform="translate(46.803 26.478)">
        <g id="Group_1592" data-name="Group 1592">
          <g id="Group_1591" data-name="Group 1591">
            <path id="Path_19766" data-name="Path 19766" d="M482.2,230.522h.007C482.179,230.535,482.174,230.537,482.2,230.522Z" transform="translate(-482.184 -230.521)" fill="#323657"/>
          </g>
        </g>
      </g>
      <g id="Group_1596" data-name="Group 1596" transform="translate(69.874 1.185)">
        <g id="Group_1595" data-name="Group 1595">
          <g id="Group_1594" data-name="Group 1594">
            <path id="Path_19767" data-name="Path 19767" d="M513.347,196.357s5.028-.236.878,7.613Z" transform="translate(-513.347 -196.356)" fill="#3a3f47"/>
          </g>
        </g>
      </g>
      <g id="Group_1598" data-name="Group 1598" transform="translate(64.899 75.091)">
        <g id="Group_1597" data-name="Group 1597">
          <path id="Path_19768" data-name="Path 19768" d="M522.805,302.16l-.374,1.052-15.805-4.9.758-2.131Z" transform="translate(-506.626 -296.184)" fill="#918783"/>
        </g>
      </g>
      <g id="Group_1600" data-name="Group 1600" transform="translate(64.356 59.288)">
        <g id="Group_1599" data-name="Group 1599">
          <rect id="Rectangle_1206" data-name="Rectangle 1206" width="1.797" height="17.184" transform="translate(1.797 17.184) rotate(180)" fill="#918783"/>
        </g>
      </g>
      <g id="Group_1602" data-name="Group 1602" transform="translate(59.957 58.375)">
        <g id="Group_1601" data-name="Group 1601">
          <rect id="Rectangle_1207" data-name="Rectangle 1207" width="10.595" height="1.013" transform="translate(10.595 1.013) rotate(180)" fill="#5e5854"/>
        </g>
      </g>
      <g id="Group_1604" data-name="Group 1604" transform="translate(49.292 74.957)">
        <g id="Group_1603" data-name="Group 1603">
          <path id="Path_19769" data-name="Path 19769" d="M485.546,302.113l.374,1.052,15.806-4.9L501.031,296Z" transform="translate(-485.546 -296.004)" fill="#918783"/>
        </g>
      </g>
      <g id="Group_1606" data-name="Group 1606" transform="translate(60.428 74.957)">
        <g id="Group_1605" data-name="Group 1605">
          <path id="Path_19770" data-name="Path 19770" d="M500.588,303.053v1.224l5.044-6.009L504.937,296Z" transform="translate(-500.588 -296.004)" fill="#918783"/>
        </g>
      </g>
      <g id="Group_1608" data-name="Group 1608" transform="translate(47.815 81.053)">
        <g id="Group_1607" data-name="Group 1607">
          <path id="Path_19771" data-name="Path 19771" d="M483.551,305.714a1.477,1.477,0,1,0,1.477-1.477A1.477,1.477,0,0,0,483.551,305.714Z" transform="translate(-483.551 -304.237)" fill="#bfb2ac"/>
        </g>
      </g>
      <g id="Group_1610" data-name="Group 1610" transform="translate(60.302 81.053)">
        <g id="Group_1609" data-name="Group 1609">
          <path id="Path_19772" data-name="Path 19772" d="M500.418,305.714a1.477,1.477,0,1,0,1.477-1.477A1.477,1.477,0,0,0,500.418,305.714Z" transform="translate(-500.418 -304.237)" fill="#bfb2ac"/>
        </g>
      </g>
      <g id="Group_1612" data-name="Group 1612" transform="translate(79.601 81.053)">
        <g id="Group_1611" data-name="Group 1611">
          <path id="Path_19773" data-name="Path 19773" d="M526.485,305.714a1.477,1.477,0,1,0,1.477-1.477A1.476,1.476,0,0,0,526.485,305.714Z" transform="translate(-526.485 -304.237)" fill="#bfb2ac"/>
        </g>
      </g>
      <g id="Group_1613" data-name="Group 1613" transform="translate(52.635 54.54)">
        <path id="Rectangle_1208" data-name="Rectangle 1208" d="M1.917,0H23.184A1.918,1.918,0,0,1,25.1,1.918v0a1.918,1.918,0,0,1-1.918,1.918H1.917A1.917,1.917,0,0,1,0,1.918v0A1.917,1.917,0,0,1,1.917,0Z" transform="translate(25.101 3.835) rotate(-180)" fill="#e2d2ca"/>
      </g>
      <g id="Group_1614" data-name="Group 1614" transform="translate(8.051 38.422)">
        <rect id="Rectangle_1209" data-name="Rectangle 1209" width="1.432" height="44.108" transform="translate(1.432 44.108) rotate(180)" fill="#706865"/>
      </g>
      <g id="Group_1615" data-name="Group 1615" transform="translate(19.035 2.932)">
        <rect id="Rectangle_1210" data-name="Rectangle 1210" width="37.135" height="26.197" rx="2.551" transform="translate(37.135 26.197) rotate(180)" fill="#5f8be3"/>
      </g>
      <g id="Group_1616" data-name="Group 1616" transform="translate(20.49 4.347)">
        <rect id="Rectangle_1211" data-name="Rectangle 1211" width="34.226" height="20.676" transform="translate(34.226 20.676) rotate(180)" fill="#f5f7ff"/>
      </g>
      <g id="Group_1617" data-name="Group 1617" transform="translate(20.49 4.347)">
        <rect id="Rectangle_1212" data-name="Rectangle 1212" width="34.226" height="1.645" transform="translate(34.226 1.645) rotate(180)" fill="#cecfd6"/>
      </g>
      <g id="Group_1618" data-name="Group 1618" transform="translate(21.755 7.231)">
        <rect id="Rectangle_1213" data-name="Rectangle 1213" width="4.127" height="16.519" rx="1.579" transform="translate(4.127 16.519) rotate(180)" fill="#cecfd6"/>
      </g>
      <g id="Group_1619" data-name="Group 1619" transform="translate(46.22 7.231)">
        <path id="Rectangle_1214" data-name="Rectangle 1214" d="M.765,0h6a.765.765,0,0,1,.765.765v0a.764.764,0,0,1-.764.764h-6A.765.765,0,0,1,0,.765v0A.765.765,0,0,1,.765,0Z" transform="translate(7.528 1.531) rotate(180)" fill="#cecfd6"/>
      </g>
      <g id="Group_1620" data-name="Group 1620" transform="translate(46.22 9.786)">
        <path id="Rectangle_1215" data-name="Rectangle 1215" d="M1.761,0H5.767A1.761,1.761,0,0,1,7.528,1.761V12.623a1.762,1.762,0,0,1-1.762,1.762h-4A1.762,1.762,0,0,1,0,12.623V1.761A1.761,1.761,0,0,1,1.761,0Z" transform="translate(7.528 14.385) rotate(180)" fill="#cecfd6"/>
      </g>
      <g id="Group_1621" data-name="Group 1621" transform="translate(36.405 25.808)">
        <path id="Path_19774" data-name="Path 19774" d="M468.139,230.814a1.2,1.2,0,1,0,1.2-1.2A1.2,1.2,0,0,0,468.139,230.814Z" transform="translate(-468.139 -229.616)" fill="#59524f"/>
      </g>
      <g id="Group_1622" data-name="Group 1622" transform="translate(29.915 32.582)">
        <path id="Path_19775" data-name="Path 19775" d="M459.373,242.132v-.466s.655-2.9,5.291-2.9,4.543,3.366,4.543,3.366Z" transform="translate(-459.373 -238.766)" fill="#314875"/>
      </g>
      <g id="Group_1624" data-name="Group 1624" transform="translate(31.482 31.217)">
        <g id="Group_1623" data-name="Group 1623">
          <path id="Path_19776" data-name="Path 19776" d="M469.812,238.717a4.565,4.565,0,0,1-1.376-.3c-.369-.223-2.576-1.706-3.095-1.469s-3.97,1.294-3.849,1.8.438.456.682.366a17.835,17.835,0,0,1,2.97-.526s-2.461.9-2.471,1.552.516.815.748,1.063.514.862,1.148.91,3.729-1.03,4.366-1.079a15.521,15.521,0,0,0,1.9-.064A17.64,17.64,0,0,0,469.812,238.717Z" transform="translate(-461.489 -236.922)" fill="#eea886"/>
        </g>
      </g>
      <g id="Group_1627" data-name="Group 1627" transform="translate(38.764 14.517)">
        <g id="Group_1626" data-name="Group 1626">
          <g id="Group_1625" data-name="Group 1625">
            <path id="Path_19777" data-name="Path 19777" d="M490.7,215.984c3.21-.565,6.59-1.376,6.59-1.376l5.98-.244a58.177,58.177,0,0,1,7.65,2.185c.205.093.206,4.9.768,6.157l-1.792,3.78s-1.034,7.489-1.249,10.82c-.1,1.53.278,14.777.278,14.777a22.961,22.961,0,0,1-4.619.715c-4.081.451-14.28-.163-14.344-.644s1.975-17.95,2.066-18.855c.139-1.389-.4-7.8-.4-7.8-.768,1.033-2.729,5.7-4.772,7.917-1.2,1.305-7.154,2.106-8.276,2.143-2.442.081-6.9.568-7.027.33-.1-.142-.388-3.954-.108-4.047.244-.082,8.517-.558,10.636-1.683.776-.412,3.094-5.466,3.094-5.466S488.929,216.78,490.7,215.984Z" transform="translate(-471.325 -214.365)" fill="#323657"/>
          </g>
        </g>
      </g>
      <g id="Group_1628" data-name="Group 1628" transform="translate(66.29 27.879)">
        <path id="Rectangle_1216" data-name="Rectangle 1216" d="M4.911,0H12.4A4.911,4.911,0,0,1,17.31,4.911V19.065a4.91,4.91,0,0,1-4.91,4.91H4.91A4.91,4.91,0,0,1,0,19.065V4.911A4.911,4.911,0,0,1,4.911,0Z" transform="translate(17.31 23.975) rotate(180)" fill="#e2d2ca"/>
      </g>
      <g id="Group_1629" data-name="Group 1629" transform="translate(68.393 43.185)">
        <path id="Path_19778" data-name="Path 19778" d="M512.31,267.323a7.931,7.931,0,0,0,6.153-2.547c3.46-3.82,2.839-10.536,2.81-10.82a.963.963,0,0,0-1.917.189c.007.077.559,6.165-2.325,9.342a6.007,6.007,0,0,1-4.722,1.911.963.963,0,1,0,0,1.926Z" transform="translate(-511.347 -253.087)" fill="#e2d2ca"/>
      </g>
      <g id="Group_1639" data-name="Group 1639" transform="translate(28.431 7.964)">
        <path id="Path_19779" data-name="Path 19779" d="M467.037,210.347A4.824,4.824,0,0,1,465.364,214c-.056.049-.112.1-.17.141s-.132.1-.2.149a4.811,4.811,0,0,1-2.2.851q-.214.027-.435.033c-.053,0-.106,0-.159,0-.156,0-.311-.008-.463-.022a4.882,4.882,0,0,1-.5-.075,4.808,4.808,0,0,1-1.976-.9,4.631,4.631,0,0,1-.488-.429c-.03-.03-.059-.061-.088-.091a4.587,4.587,0,0,1-.307-.359,4.834,4.834,0,1,1,8.66-2.955Z" transform="translate(-457.368 -205.513)" fill="#eef0f7"/>
        <g id="Group_1638" data-name="Group 1638" transform="translate(1.009 2.121)">
          <g id="Group_1630" data-name="Group 1630" transform="translate(0.677 4.257)">
            <path id="Path_19780" data-name="Path 19780" d="M465.943,215.252l-.358,1.279a4.811,4.811,0,0,1-2.2.851q-.214.027-.435.033c-.053,0-.106,0-.159,0-.156,0-.311-.008-.463-.022a4.882,4.882,0,0,1-.5-.075,4.808,4.808,0,0,1-1.976-.9c-.069-.423-.141-.891-.206-1.328.355-.133,1.486-.518,2.2-.758l.03-.01.047-.016.121-.041.112-.039.285-.1h0l.015-.005h.009l.96.071.161.013.05,0,.021.006c.058.014.227.058.449.127h0A4.717,4.717,0,0,1,465.943,215.252Z" transform="translate(-459.645 -214.127)" fill="#d9c7c1"/>
          </g>
          <g id="Group_1631" data-name="Group 1631" transform="translate(2.682 0.301)">
            <path id="Path_19781" data-name="Path 19781" d="M463.749,208.8s1.15.193.956,2-1.211,1.643-1.279,1.641-1.022.021-1.072-2.182C462.353,210.251,462.338,208.622,463.749,208.8Z" transform="translate(-462.353 -208.783)" fill="#eea987"/>
          </g>
          <g id="Group_1632" data-name="Group 1632" transform="translate(3.069 3.219)">
            <path id="Path_19782" data-name="Path 19782" d="M464.389,212.934a4.172,4.172,0,0,0,.03.9c.07.161-.925.673-1.542.09a6.385,6.385,0,0,0,.087-1.1C462.924,212.544,464.389,212.934,464.389,212.934Z" transform="translate(-462.877 -212.725)" fill="#eea987"/>
          </g>
          <g id="Group_1633" data-name="Group 1633" transform="translate(4.981 1.742)">
            <path id="Path_19783" data-name="Path 19783" d="M465.534,210.788s.128-.133.173,0-.2.745-.189.772c0,0-.023.053-.053.024A6.68,6.68,0,0,1,465.534,210.788Z" transform="translate(-465.459 -210.73)" fill="#eea987"/>
          </g>
          <g id="Group_1634" data-name="Group 1634" transform="translate(2.514 1.688)">
            <path id="Path_19784" data-name="Path 19784" d="M462.307,210.721s-.123-.139-.172,0a2.317,2.317,0,0,0,.156.78s.04.062.071.034A6.68,6.68,0,0,0,462.307,210.721Z" transform="translate(-462.126 -210.658)" fill="#eea987"/>
          </g>
          <g id="Group_1635" data-name="Group 1635" transform="translate(2.6)">
            <path id="Path_19785" data-name="Path 19785" d="M464.773,210.024c-.04.247-.077.429-.077.429l-.167.219a4.385,4.385,0,0,0-.016-.56c-.01-.028-.021-.079-.033-.134-.019-.091-.039-.195-.053-.229a2.461,2.461,0,0,0-1.846.059s.007.075.007.157-.011.206-.056.221c-.082.03-.047.566-.047.566l-.134-.155s-.039-.28-.077-.6v0c-.009-.075-.018-.152-.027-.229a1.506,1.506,0,0,1,.435-1.257,2.077,2.077,0,0,1,1.5.007.53.53,0,0,1,.223.059A2.14,2.14,0,0,1,464.773,210.024Z" transform="translate(-462.243 -208.377)" fill="#e8734d"/>
          </g>
          <path id="Path_19786" data-name="Path 19786" d="M463.1,213.388a.736.736,0,0,0,.611.245.829.829,0,0,0,.612-.232.744.744,0,0,1-.614.418A.754.754,0,0,1,463.1,213.388Z" transform="translate(-459.866 -209.678)" fill="#c78d71"/>
          <path id="Path_19787" data-name="Path 19787" d="M462.719,214.293a1.252,1.252,0,0,0,.894.588c.371.032.693-.439.843-.669A2.244,2.244,0,0,0,462.719,214.293Z" transform="translate(-459.767 -209.857)" fill="#eea987"/>
          <path id="Path_19788" data-name="Path 19788" d="M464.663,214.03a3.193,3.193,0,0,1-.737.637l.312.481.532-.948Z" transform="translate(-460.08 -209.845)" fill="#eddad3"/>
          <path id="Path_19789" data-name="Path 19789" d="M462.843,214.127a2.13,2.13,0,0,0,.753.566l-.342.5-.6-.865Z" transform="translate(-459.75 -209.87)" fill="#eddad3"/>
          <path id="Path_19790" data-name="Path 19790" d="M463.83,214.891l.267.407a.557.557,0,0,1-.541-.01Z" transform="translate(-459.984 -210.069)" fill="#5073ab"/>
          <path id="Path_19791" data-name="Path 19791" d="M467.564,215.211l-.008.027c-.03.1-.142.506-.289,1.039-.055.049-.112.1-.169.141s-.132.1-.2.149a4.811,4.811,0,0,1-2.2.851c.071-1.674.27-3.157.27-3.157q.235.061.446.122h0a10.256,10.256,0,0,1,2.062.778l0,0C467.538,215.194,467.564,215.211,467.564,215.211Z" transform="translate(-460.281 -209.905)" fill="#323657"/>
          <path id="Path_19792" data-name="Path 19792" d="M461.646,217.393a4.808,4.808,0,0,1-1.976-.9,4.631,4.631,0,0,1-.488-.429c-.03-.03-.059-.061-.088-.091-.084-.359-.141-.593-.144-.609h0a10.947,10.947,0,0,1,2.714-.958h0C461.664,214.453,461.666,215.81,461.646,217.393Z" transform="translate(-458.788 -209.942)" fill="#323657"/>
          <path id="Path_19793" data-name="Path 19793" d="M463.909,215.449c-.02.44-.022,1.3-.015,2.271-.053,0-.106,0-.159,0-.156,0-.311-.008-.463-.022a14.925,14.925,0,0,1,.321-2.253c.024-.1.038-.147.038-.147l.284.047C463.912,215.38,463.911,215.413,463.909,215.449Z" transform="translate(-459.91 -210.175)" fill="#5073ab"/>
          <g id="Group_1636" data-name="Group 1636" transform="translate(6.817 5.255)">
            <path id="Path_19794" data-name="Path 19794" d="M468.649,216.044a4.837,4.837,0,0,1-.54.547c-.056.049-.112.1-.17.141l.381-1.256h0l0,0a.321.321,0,0,1,.074.075A2.374,2.374,0,0,1,468.649,216.044Z" transform="translate(-467.939 -215.475)" fill="#323657"/>
          </g>
          <g id="Group_1637" data-name="Group 1637" transform="translate(0 5.419)">
            <path id="Path_19795" data-name="Path 19795" d="M459.126,216.4l-.088-.091a4.584,4.584,0,0,1-.307-.359.551.551,0,0,1,.162-.25h0Z" transform="translate(-458.731 -215.697)" fill="#323657"/>
          </g>
        </g>
      </g>
    </g>
    <g id="Group_1655" data-name="Group 1655" transform="translate(345.132 141.56)">
      <path id="Path_19796" data-name="Path 19796" d="M413.166,294.514a4.212,4.212,0,0,0-1.493-1.431c-.863-.4-2.635,1-2.79,1.78l-2.052,2.994.389.267,1.095-1.6c-.745,1.8-1.812,3.944-1.063,5.024,1.005,1.45,3.283,2.915,3.886,2.662s.481-4.47.481-4.47C410.969,296.019,413.166,294.514,413.166,294.514Z" transform="translate(-395.505 -202.124)" fill="#1d3b54"/>
      <g id="Group_1641" data-name="Group 1641" transform="translate(13.374 90.959)">
        <path id="Path_19797" data-name="Path 19797" d="M413.884,294.539a23.085,23.085,0,0,0-1.132,2.555c-.385,1.117-.456,4.208-.7,4.423s-2.151-.748-2.407-1.9.52-3.466,1.257-4.681a7.543,7.543,0,0,1,1.487-1.823A1.917,1.917,0,0,1,413.884,294.539Z" transform="translate(-409.597 -293.108)" fill="#de9673"/>
      </g>
      <path id="Path_19798" data-name="Path 19798" d="M421.588,258.446s-1.17,6.207-1.17,7.691a13.671,13.671,0,0,1-1.349,5.712c-.945,1.8-5.089,14.089-5.449,15.521s-.668,2.784-.668,2.784-2.069-.944-2.069-2.294,1.8-12.5,2.114-14.708,2.923-13.493,2.923-13.493Z" transform="translate(-396.557 -193.148)" fill="#de9673"/>
      <path id="Path_19799" data-name="Path 19799" d="M413.791,257.811s.4,5.173.36,6.522-.674,4.407-.674,5.217,0,17.584.67,19.607-1.885.632-1.885.632-4.453-11.034-4.453-15.637.54-6.9.225-9.82a35.707,35.707,0,0,0-1.714-6.773Z" transform="translate(-395.372 -192.919)" fill="#eea886"/>
      <path id="Path_19800" data-name="Path 19800" d="M406.2,224.271a16.086,16.086,0,0,0-3.023,6.846c-.63,3.913.745,11.292,1.235,13.427.429,1.873,1.249,7.869,1.294,8.5,0,0,8.048.911,14.165-1.023,0,0,.56-8.374.919-11.928s-1.4-15.55-1.4-15.55Z" transform="translate(-394.513 -184.274)" fill="#eb4747"/>
      <path id="Path_19801" data-name="Path 19801" d="M417.854,305.256c-2.883-2.518-2.111-5.1-2.111-5.1a4.269,4.269,0,0,0-2.088-.175c-.936.233-1.438,2.466-1.064,3.179l.292,3.665.475-.038-.155-1.957c.556,1.889,1.085,4.259,2.363,4.634,1.715.5,4.444.205,4.757-.378S417.854,305.256,417.854,305.256Z" transform="translate(-396.969 -203.914)" fill="#1d3b54"/>
      <path id="Path_19802" data-name="Path 19802" d="M420.847,187.23s-.713,4.246-.1,5.672-3.274-1.667-3.274-1.667S419.09,186.558,420.847,187.23Z" transform="translate(-398.269 -174.639)" fill="#754836"/>
      <path id="Path_19803" data-name="Path 19803" d="M417.547,171.277s-6.243-1.43-7.021,5.242,2.031,7.508.13,12.029,4.643-1.473,4.643-1.473Z" transform="translate(-396.408 -170.48)" fill="#754836"/>
      <path id="Path_19804" data-name="Path 19804" d="M417.453,171.191a5.425,5.425,0,0,1,5.557,5.13,13.188,13.188,0,0,1-.463,2.031c-.3.89.427,3.563.213,3.687a5.775,5.775,0,0,1-1.086.267s-1.016,2.868-2.031,2.815a8.43,8.43,0,0,1-6.549-4.608C411.384,176.86,410.981,171.321,417.453,171.191Z" transform="translate(-396.851 -170.491)" fill="#eea886"/>
      <g id="Group_1643" data-name="Group 1643" transform="translate(3.139 50.44)">
        <g id="Group_1642" data-name="Group 1642">
          <path id="Path_19805" data-name="Path 19805" d="M395.772,241.456s.15-2.568.829-2.967.287.4.287.4-.383,1.863-.466,2.618A3.886,3.886,0,0,1,395.772,241.456Z" transform="translate(-395.772 -238.378)" fill="#1d3b54"/>
        </g>
      </g>
      <g id="Group_1645" data-name="Group 1645" transform="translate(3.237 46.004)">
        <g id="Group_1644" data-name="Group 1644">
          <path id="Path_19806" data-name="Path 19806" d="M398.953,234.12a18.934,18.934,0,0,0,.537,2.26c.349,1.11.671,1.464.53,2.1-.1.479-.648.84-.785.686s-.2-2.02-.977-2.011.232,2.311-.228,2.142-2.232-1.14-2.12-2.08.82-1.62.774-3.024a3.027,3.027,0,0,1,.356-1.807Z" transform="translate(-395.905 -232.385)" fill="#eea886"/>
        </g>
      </g>
      <g id="Group_1647" data-name="Group 1647" transform="translate(5.143 50.684)">
        <g id="Group_1646" data-name="Group 1646">
          <path id="Path_19807" data-name="Path 19807" d="M399,238.718s1.03.263.968,3.745l-1.166-.195a11.993,11.993,0,0,0-.326-2.973S398.539,238.615,399,238.718Z" transform="translate(-398.48 -238.708)" fill="#1d3b54"/>
        </g>
      </g>
      <g id="Group_1649" data-name="Group 1649" transform="translate(0.863 52.651)">
        <g id="Group_1648" data-name="Group 1648">
          <path id="Path_19808" data-name="Path 19808" d="M401.777,243.939l-9.078-2.575.027,11.181,9.035,5.414Z" transform="translate(-392.699 -241.364)" fill="#eddad3"/>
        </g>
      </g>
      <g id="Group_1650" data-name="Group 1650" transform="translate(0 52.651)">
        <path id="Path_19809" data-name="Path 19809" d="M401.458,257.959l-1.138.21-8.787-5.464.109-11.289.754-.051Z" transform="translate(-391.533 -241.364)" fill="#eddad3"/>
      </g>
      <path id="Path_19810" data-name="Path 19810" d="M416.182,192.057s2.419.994,2.852,1.3,1.3,3.8,1.512,4.105,2.3,2.9,2.015,5a5.428,5.428,0,0,1-1.767,3.176c-.6.648-1.165,4.137-1.355,4.656s.414,7.325.414,7.325-7.1,2.764-13.453-1.947a53.4,53.4,0,0,0,1.268-5.378c0-.822-.821-6.612-3.024-10.026s.389-7.044,2.074-7.476,4.925-1.642,4.925-1.642Z" transform="translate(-394.717 -175.674)" fill="#eb4747"/>
      <path id="Path_19811" data-name="Path 19811" d="M406.475,192.669s-3.554-.219-5.336,1.855-1.685,4.537-2.14,5.607-1.49,5.672-1.718,6.417-.449,4.935-.772,8.306-.258,9.664-.258,9.664l3.4-.616s.137-6,.224-9.479,2.916-9.625,3.986-12.315S409.188,194.356,406.475,192.669Z" transform="translate(-392.756 -176.067)" fill="#eb4747"/>
      <path id="Path_19812" data-name="Path 19812" d="M423.382,193.86a2.935,2.935,0,0,1,2.308,1.655c.746,1.555,1.031,2.85,1.225,3.239s2.892,5.512,3.053,6.646-.1,3.209-1.523,3.759-6.547.615-6.547.615,1.3-2.633.1-3.995c0,0,3.716-.671,4.6-.761C427.519,204.926,422.2,195.027,423.382,193.86Z" transform="translate(-399.418 -176.378)" fill="#eb4747"/>
      <g id="Group_1651" data-name="Group 1651" transform="translate(15.452 18.456)">
        <path id="Path_19813" data-name="Path 19813" d="M412.4,198.6l6.924,16.172,8.632-4.067-6.385-15.53Z" transform="translate(-412.404 -195.176)" fill="#1d3b54"/>
      </g>
      <g id="Group_1652" data-name="Group 1652" transform="translate(18.08 29.826)">
        <path id="Path_19814" data-name="Path 19814" d="M417.3,210.533s-.938.249-1.235.292.07.593.435.609S417.3,210.533,417.3,210.533Z" transform="translate(-415.954 -210.533)" fill="#eea886"/>
      </g>
      <g id="Group_1653" data-name="Group 1653" transform="translate(18.081 29.402)">
        <path id="Path_19815" data-name="Path 19815" d="M417.927,214.986a1.959,1.959,0,0,0,.62-.124s.324-.212.563-.349c.077-.043.144-.078.19-.1a3.612,3.612,0,0,0,1.042-.508c.407-.316,1.731-1.578,1.731-1.578l-.874-1.319-.677-1.051a17.041,17.041,0,0,0-3.259.329,1.1,1.1,0,0,0-.114.078,4.724,4.724,0,0,0-.629.716c-.057.056-.594.641-.562.877a.776.776,0,0,0,.412.632,1.854,1.854,0,0,0,.447.917,1.154,1.154,0,0,0,.6.823S417.573,214.919,417.927,214.986Z" transform="translate(-415.955 -209.961)" fill="#eea886"/>
      </g>
      <path id="Path_19816" data-name="Path 19816" d="M422.029,207.666s4.215-.754,5.38-.877a14.557,14.557,0,0,0-.133-2.732,10.639,10.639,0,0,0-1.242-2.935l2.156,1.974a24.555,24.555,0,0,1,1.812,4.19,4.044,4.044,0,0,1-.8,3.262c-1.048,1.243-6,.674-6,.674S423.617,209.7,422.029,207.666Z" transform="translate(-399.452 -178.263)" fill="#eb4747"/>
      <path id="Path_19817" data-name="Path 19817" d="M418.6,187.908s-.136.4-.3,1c-.081.306-.168.663-.246,1.042a7.132,7.132,0,0,0-.107,3.112s-2.268.714-3.953-2.51c0,0,.859-3.4-.073-5.5S418.6,187.908,418.6,187.908Z" transform="translate(-397.32 -173.955)" fill="#eea886"/>
      <path id="Path_19818" data-name="Path 19818" d="M422.891,176.075a14.393,14.393,0,0,1-5.237,1.983c-2.588.284-4.028,4.2-4.028,4.2s-4.07-6.337-.792-10.232S423.591,171.148,422.891,176.075Z" transform="translate(-396.732 -170.246)" fill="#754836"/>
      <path id="Path_19819" data-name="Path 19819" d="M417.758,180.3a.794.794,0,0,0-1.371-.6c-.837.66.2,3.064.872,2.85S417.758,180.812,417.758,180.3Z" transform="translate(-397.905 -172.632)" fill="#eea886"/>
      <path id="Path_19820" data-name="Path 19820" d="M418.712,192.024s1.068,3.149-1.429,3.133-3.581-1.979-4.294-3.719a9.043,9.043,0,0,1,1.685-.64A25.279,25.279,0,0,1,418.712,192.024Z" transform="translate(-397.104 -175.582)" fill="#eea886"/>
      <path id="Path_19821" data-name="Path 19821" d="M400.088,243.438l-1.17.151v-.546Z" transform="translate(-393.45 -189.149)" fill="#1d3b54"/>
      <path id="Path_19822" data-name="Path 19822" d="M396.436,242.421l-.647.077s0-.195,0-.26S396.413,242.38,396.436,242.421Z" transform="translate(-392.638 -188.937)" fill="#1d3b54"/>
      <g id="Group_1654" data-name="Group 1654" transform="translate(16.558 95.841)">
        <path id="Path_19823" data-name="Path 19823" d="M416.115,300.1a23.5,23.5,0,0,0,.736,2.733c.409,1.125,2.321,3.605,2.268,3.928s-2.172.782-3.109.033-1.8-3.061-1.992-4.488a10.591,10.591,0,0,1-.091-2.347A2.092,2.092,0,0,1,416.115,300.1Z" transform="translate(-413.899 -299.702)" fill="#eea886"/>
      </g>
      <path id="Path_19824" data-name="Path 19824" d="M418.985,188.835c-.081.306-.2.674-.3,1.037a10.8,10.8,0,0,1-3.029-3.026A12.765,12.765,0,0,0,418.985,188.835Z" transform="translate(-397.798 -174.556)" fill="#a77860"/>
    </g>
    <path id="Rectangle_1217" data-name="Rectangle 1217" d="M4.813,0H26.457a4.812,4.812,0,0,1,4.812,4.812v7.261a4.812,4.812,0,0,1-4.812,4.812H4.812A4.812,4.812,0,0,1,0,12.073V4.813A4.813,4.813,0,0,1,4.813,0Z" transform="translate(267.819 95.235)" fill="#dfe1e8"/>
    <g id="Group_1657" data-name="Group 1657" transform="translate(251.723 180.016)">
      <g id="Group_1656" data-name="Group 1656">
        <path id="Path_19825" data-name="Path 19825" d="M265.368,222.19h-.007C265.393,222.2,265.4,222.206,265.368,222.19Z" transform="translate(-265.361 -222.19)" fill="#323657"/>
      </g>
    </g>
    <g id="Group_1660" data-name="Group 1660" transform="translate(235.692 174.285)">
      <g id="Group_1659" data-name="Group 1659">
        <g id="Group_1658" data-name="Group 1658">
          <rect id="Rectangle_1218" data-name="Rectangle 1218" width="25.427" height="3.039" rx="1.519" transform="translate(25.427 3.039) rotate(180)" fill="#b5deff"/>
        </g>
      </g>
    </g>
    <g id="Group_1663" data-name="Group 1663" transform="translate(235.692 179.766)">
      <g id="Group_1662" data-name="Group 1662">
        <g id="Group_1661" data-name="Group 1661">
          <rect id="Rectangle_1219" data-name="Rectangle 1219" width="25.427" height="3.039" rx="1.519" transform="translate(25.427 3.039) rotate(180)" fill="#b5deff"/>
        </g>
      </g>
    </g>
    <g id="Group_1666" data-name="Group 1666" transform="translate(235.692 185.246)">
      <g id="Group_1665" data-name="Group 1665">
        <g id="Group_1664" data-name="Group 1664">
          <path id="Rectangle_1220" data-name="Rectangle 1220" d="M1.518,0H23.908a1.519,1.519,0,0,1,1.519,1.519v0a1.519,1.519,0,0,1-1.519,1.519H1.519A1.519,1.519,0,0,1,0,1.519v0A1.518,1.518,0,0,1,1.518,0Z" transform="translate(25.427 3.039) rotate(180)" fill="#b5deff"/>
        </g>
      </g>
    </g>
    <path id="Rectangle_1221" data-name="Rectangle 1221" d="M2.931,0H6.925A2.931,2.931,0,0,1,9.856,2.931V18.462a2.931,2.931,0,0,1-2.931,2.931h-4A2.93,2.93,0,0,1,0,18.463V2.931A2.931,2.931,0,0,1,2.931,0Z" transform="translate(268.019 141.174)" fill="#b5deff"/>
    <g id="Group_1699" data-name="Group 1699" transform="translate(212.839 153.909)">
      <g id="Group_1669" data-name="Group 1669" transform="translate(0.029 46.506)">
        <g id="Group_1668" data-name="Group 1668">
          <g id="Group_1667" data-name="Group 1667">
            <path id="Path_19826" data-name="Path 19826" d="M216.4,250.189a3.28,3.28,0,0,1,.426,1.127,5.393,5.393,0,0,0,.521,1.33,12.7,12.7,0,0,1,.632,2.218,10.19,10.19,0,0,0-.3,1.485c.05.321.234.958-.055,1s-.615-.479-.615-.479a.424.424,0,0,1-.217.409.714.714,0,0,1-.726.027s-.175.324-.4.369a.893.893,0,0,1-.721-.1.876.876,0,0,1-.549.175.717.717,0,0,1-.609-.378s-.542.11-.7-.144a2.437,2.437,0,0,1-.195-.752,8.756,8.756,0,0,1,.687-3.791,3.357,3.357,0,0,0-.179-2.945Z" transform="translate(-212.879 -249.743)" fill="#eea886"/>
          </g>
        </g>
      </g>
      <g id="Group_1671" data-name="Group 1671" transform="translate(0 50.702)">
        <g id="Group_1670" data-name="Group 1670">
          <path id="Path_19827" data-name="Path 19827" d="M217.076,258.147s.048-1.858-.441-2.254-.545.275-.545.275.067-.663-.468-.751-.557.7-.557.7a.517.517,0,0,0-.649-.406c-.562.105-.428.757-.428.757s-.536-.64-.884-.025a2.737,2.737,0,0,0-.021,2.262s.166.281.7.144a.739.739,0,0,0,1.157.2s.818.45,1.116-.271A.678.678,0,0,0,217.076,258.147Z" transform="translate(-212.839 -255.41)" fill="#db9c7c"/>
        </g>
      </g>
      <path id="Path_19828" data-name="Path 19828" d="M222.734,212.672s-3.18,10.6-4.255,14.511c-.337,1.226-1.153,12.937-1.3,13.409S213,241.71,213,241.71s.489-14.65.535-15.45,4.452-17.159,5.732-17.744c.96-.437,1.467-.076,2.676.823A2.832,2.832,0,0,1,222.734,212.672Z" transform="translate(-212.882 -192.484)" fill="#323657"/>
      <g id="Group_1672" data-name="Group 1672" transform="translate(40.87 0.574)">
        <rect id="Rectangle_1222" data-name="Rectangle 1222" width="8.701" height="0.646" transform="matrix(0.837, -0.548, 0.548, 0.837, 0, 4.765)" fill="#4da8f2"/>
      </g>
      <path id="Path_19829" data-name="Path 19829" d="M277.525,190.622a1.9,1.9,0,0,1-.187.577s-.238.285-.4.5a1.988,1.988,0,0,0-.115.17,3.474,3.474,0,0,1-.6.935c-.346.351-1.7,1.47-1.7,1.47l-1.157-.982-1.2-.539a22.624,22.624,0,0,1,.958-3.289,1.288,1.288,0,0,1,.087-.1,4.422,4.422,0,0,1,.754-.518c.058-.049.677-.494.9-.437a.744.744,0,0,1,.555.463,1.773,1.773,0,0,1,.823.529,1.105,1.105,0,0,1,.715.663S277.5,190.278,277.525,190.622Z" transform="translate(-228.245 -187.309)" fill="#efaa88"/>
      <g id="Group_1674" data-name="Group 1674" transform="translate(3.463 92.306)">
        <g id="Group_1673" data-name="Group 1673">
          <path id="Path_19830" data-name="Path 19830" d="M221.325,311.868s-.29,2.012-.326,2.314-3.226-.178-3.226-.178l-.258-2.4S220.926,311.583,221.325,311.868Z" transform="translate(-217.516 -311.607)" fill="#424773"/>
        </g>
      </g>
      <g id="Group_1676" data-name="Group 1676" transform="translate(2.964 94.489)">
        <g id="Group_1675" data-name="Group 1675">
          <path id="Path_19831" data-name="Path 19831" d="M220.858,314.691a8.585,8.585,0,0,0,1.987,1.741c.977.529,2.513.738,3.091,1.285.417.395,1.519,2.1-2.539,2.06s-6.016.241-6.451-.412.629-4.811.629-4.811A8.6,8.6,0,0,0,220.858,314.691Z" transform="translate(-216.842 -314.555)" fill="#292c47"/>
        </g>
      </g>
      <g id="Group_1678" data-name="Group 1678" transform="translate(26.312 92.306)">
        <g id="Group_1677" data-name="Group 1677">
          <path id="Path_19832" data-name="Path 19832" d="M252.188,311.868s-.289,2.012-.326,2.314-3.226-.178-3.226-.178l-.258-2.4S251.79,311.583,252.188,311.868Z" transform="translate(-248.379 -311.607)" fill="#424773"/>
        </g>
      </g>
      <g id="Group_1680" data-name="Group 1680" transform="translate(25.813 94.489)">
        <g id="Group_1679" data-name="Group 1679">
          <path id="Path_19833" data-name="Path 19833" d="M251.721,314.691a8.6,8.6,0,0,0,1.987,1.741c.977.529,4.574.962,5.151,1.51.418.395,1.111,1.984-4.6,1.835-4.057-.105-6.015.241-6.45-.412s.629-4.811.629-4.811A7.8,7.8,0,0,0,251.721,314.691Z" transform="translate(-247.706 -314.555)" fill="#292c47"/>
        </g>
      </g>
      <g id="Group_1682" data-name="Group 1682" transform="translate(2.964 40.857)">
        <g id="Group_1681" data-name="Group 1681">
          <path id="Path_19834" data-name="Path 19834" d="M223.791,242.113s-3,4.761-2.773,9.064-1.086,9-1.536,13.5c-.5,5.011-2.556,16.876-2.63,19.557s.319,11.241.319,11.241l4.11.094s3.452-20.741,4.347-22.858,5.329-17.2,5.478-18.9S223.791,242.113,223.791,242.113Z" transform="translate(-216.842 -242.113)" fill="#292c47"/>
        </g>
      </g>
      <g id="Group_1684" data-name="Group 1684" transform="translate(8.404 40.037)">
        <g id="Group_1683" data-name="Group 1683">
          <path id="Path_19835" data-name="Path 19835" d="M241.473,242.47s2.258,11.795,2.556,14.428.5,12.746.646,14.393,1.393,21.491,1.789,23.986h-5.256s-4.034-14.462-4.034-21.305-3.117-14.877-5.128-19.392-6.617-4.623-7.854-13C224.191,241.582,239.8,239.813,241.473,242.47Z" transform="translate(-224.191 -241.005)" fill="#292c47"/>
        </g>
      </g>
      <g id="Group_1686" data-name="Group 1686" transform="translate(12.395 0.464)">
        <g id="Group_1685" data-name="Group 1685">
          <path id="Path_19836" data-name="Path 19836" d="M232.1,187.921s4.021-1.5,5.876,1.559,1.676,9.191-.352,9.944-5.072.36-6.11-1.556a15.339,15.339,0,0,1-1.93-6.536A4.031,4.031,0,0,1,232.1,187.921Z" transform="translate(-229.582 -187.552)" fill="#eea886"/>
        </g>
      </g>
      <g id="Group_1688" data-name="Group 1688" transform="translate(13.541 8.659)">
        <g id="Group_1687" data-name="Group 1687">
          <path id="Path_19837" data-name="Path 19837" d="M237.589,202.438a3.485,3.485,0,0,0,.109,1.621c.277.535-5.21.549-5.21.549a36.192,36.192,0,0,0-1.29-5.367C230.353,196.782,237.589,202.438,237.589,202.438Z" transform="translate(-231.129 -198.622)" fill="#eea886"/>
        </g>
      </g>
      <g id="Group_1690" data-name="Group 1690" transform="translate(12.061)">
        <g id="Group_1689" data-name="Group 1689">
          <path id="Path_19838" data-name="Path 19838" d="M230.679,196.2s.378.625,1.924.381,3.432-2.3,4.078-2.525.652-.6.652-.6l.4.591.686.043s-.626-1.84.318-2.59-.979-5.955-5.937-4.222c0,0-3.808,1.05-3.669,3.215S229.827,195.125,230.679,196.2Z" transform="translate(-229.13 -186.926)" fill="#d88a51"/>
        </g>
      </g>
      <g id="Group_1692" data-name="Group 1692" transform="translate(14.273 12.529)">
        <g id="Group_1691" data-name="Group 1691">
          <path id="Path_19839" data-name="Path 19839" d="M238.281,205.353s-.017-1.022-.48-1.12a33.1,33.1,0,0,0-5.682-.322V205.1S233.214,205.775,238.281,205.353Z" transform="translate(-232.118 -203.849)" fill="#e2d2ca"/>
        </g>
      </g>
      <g id="Group_1694" data-name="Group 1694" transform="translate(18.715 4.953)">
        <g id="Group_1693" data-name="Group 1693">
          <path id="Path_19840" data-name="Path 19840" d="M239.564,194.405c-.087-.363-1.011-1.4-1.364-.289s.535,2.606,1.03,2.478S239.784,195.327,239.564,194.405Z" transform="translate(-238.118 -193.616)" fill="#eea886"/>
        </g>
      </g>
      <g id="Group_1696" data-name="Group 1696" transform="translate(5.597 4.952)">
        <g id="Group_1695" data-name="Group 1695">
          <path id="Path_19841" data-name="Path 19841" d="M242.929,204.242c-3.188-.421-7.691-1.547-7.691-1.547l-6.163-.251a59.942,59.942,0,0,0-7.884,2.251c-.211.1-.212,5.046-.792,6.344l1.847,3.9s1.067,7.718,1.288,11.15c.1,1.575-2.2,14.776-2.2,14.776a42.534,42.534,0,0,0,6.673,1.19c4.206.463,14.715-.168,14.782-.665s-2.035-18.5-2.128-19.43c-.143-1.43.493-9.034.493-9.034.971-.753,9.5-4.711,11.824-6.773.623-.552,3.25-3.111,4-3.994a71.754,71.754,0,0,0,5.077-6.389c.3-.329-2.874-2.054-3.162-2.15-.252-.084-3.827,4.549-5.2,6.039a38.58,38.58,0,0,1-3.165,2.521S244.923,204.357,242.929,204.242Z" transform="translate(-220.399 -193.614)" fill="#323657"/>
        </g>
      </g>
      <g id="Group_1698" data-name="Group 1698" transform="translate(11.44 1.194)">
        <g id="Group_1697" data-name="Group 1697">
          <path id="Path_19842" data-name="Path 19842" d="M230.618,188.538s-5.128.4-.157,8.084Z" transform="translate(-228.292 -188.538)" fill="#d88a51"/>
        </g>
      </g>
      <path id="Path_19843" data-name="Path 19843" d="M278.23,188.206l.421-.642-.775.1Z" transform="translate(-229.727 -187.091)" fill="#dfe1e8"/>
    </g>
  </g>
</svg>
