<svg xmlns="http://www.w3.org/2000/svg" width="884.931" height="884.225" viewBox="0 0 884.931 884.225">
  <g id="img-login" opacity="0.4">
    <path id="Path_19589" data-name="Path 19589" d="M1009.813,488.959h25.339c.007-.124.016-.247.023-.373h.31a309.333,309.333,0,0,1,49.034-153.671h-.095C1139.806,249.2,1236.19,192.46,1345.836,192.46c166.906,0,303.09,131.471,310.683,296.5h25.34c-.005-.124-.016-.247-.022-.373h.353a334.528,334.528,0,0,0-44.708-153.671h-.545c-58.207-100.316-166.772-167.778-291.1-167.778C1164.943,167.137,1017.426,309.941,1009.813,488.959Z" transform="translate(-903.536 -61.193)" fill="#fff"/>
    <path id="Path_19590" data-name="Path 19590" d="M1265.555,160.324v-38.03c-1.917-.027-3.831-.073-5.755-.073s-3.838.046-5.755.073v38.03c1.916-.031,3.831-.073,5.755-.073S1263.638,160.293,1265.555,160.324Z" transform="translate(-817.5 -77.016)" fill="#fff"/>
    <path id="Path_19591" data-name="Path 19591" d="M1277.95,122.842l-2.994,37.914q5.762.357,11.475.89l2.994-37.912Q1283.711,123.2,1277.95,122.842Z" transform="translate(-810.134 -76.797)" fill="#fff"/>
    <path id="Path_19592" data-name="Path 19592" d="M1301.727,125.206l-5.969,37.566c3.809.538,7.6,1.124,11.372,1.781l5.968-37.562Q1307.441,126.015,1301.727,125.206Z" transform="translate(-802.806 -75.964)" fill="#fff"/>
    <path id="Path_19593" data-name="Path 19593" d="M1325.229,129.369l-8.906,36.986c3.753.837,7.492,1.711,11.2,2.664l8.9-36.979C1332.715,131.093,1328.98,130.211,1325.229,129.369Z" transform="translate(-795.561 -74.498)" fill="#fff"/>
    <path id="Path_19594" data-name="Path 19594" d="M1347.772,135.154l-11.72,36.2q5.513,1.686,10.953,3.538l11.72-36.2Q1353.285,136.842,1347.772,135.154Z" transform="translate(-788.612 -72.46)" fill="#fff"/>
    <path id="Path_19595" data-name="Path 19595" d="M1370.334,142.825,1355.8,177.977c3.574,1.412,7.11,2.9,10.627,4.421l14.532-35.159Q1375.686,144.963,1370.334,142.825Z" transform="translate(-781.653 -69.758)" fill="#fff"/>
    <path id="Path_19596" data-name="Path 19596" d="M1374.93,186.11q5.174,2.536,10.253,5.233l17.25-33.9q-5.083-2.686-10.253-5.232Z" transform="translate(-774.916 -66.452)" fill="#fff"/>
    <path id="Path_19597" data-name="Path 19597" d="M1393.321,195.661q4.958,2.933,9.818,6.009L1423,169.235q-4.858-3.079-9.815-6.014Z" transform="translate(-768.437 -62.573)" fill="#fff"/>
    <path id="Path_19598" data-name="Path 19598" d="M1442.977,182.882q-4.6-3.46-9.293-6.793l-22.41,30.739q4.7,3.323,9.293,6.791Z" transform="translate(-762.113 -58.039)" fill="#fff"/>
    <path id="Path_19599" data-name="Path 19599" d="M1427.875,219.069q4.428,3.677,8.726,7.505l24.755-28.872q-4.312-3.809-8.729-7.5Z" transform="translate(-756.265 -53.069)" fill="#fff"/>
    <path id="Path_19600" data-name="Path 19600" d="M1443.414,232.525q4.125,4.012,8.127,8.152l26.947-26.832q-4-4.138-8.124-8.154Z" transform="translate(-750.791 -47.612)" fill="#fff"/>
    <path id="Path_19601" data-name="Path 19601" d="M1457.814,247.1c2.533,2.882,5.033,5.792,7.474,8.755l28.978-24.634c-2.443-2.959-4.944-5.87-7.471-8.756Z" transform="translate(-745.718 -41.704)" fill="#fff"/>
    <path id="Path_19602" data-name="Path 19602" d="M1470.692,262.32q3.456,4.6,6.76,9.316l30.787-22.34q-3.318-4.706-6.757-9.319Z" transform="translate(-741.181 -35.533)" fill="#fff"/>
    <path id="Path_19603" data-name="Path 19603" d="M1482.59,278.875q3.083,4.854,6.006,9.819l32.449-19.846q-2.939-4.953-6.009-9.818Z" transform="translate(-736.99 -28.821)" fill="#fff"/>
    <path id="Path_19604" data-name="Path 19604" d="M1494.636,295.492h-.4l-.81.411c.029.054.055.109.084.162l-.415.212q2.69,5.081,5.228,10.254l33.909-17.231q-2.539-5.173-5.226-10.256Z" transform="translate(-733.291 -21.771)" fill="#fff"/>
    <path id="Path_19605" data-name="Path 19605" d="M989.608,538.489l35.166-14.514-.085-.2.418-.172c-1.521-3.519-3.008-7.055-4.417-10.63l-35.16,14.511c.027.068.055.135.083.2l-.414.17Q987.322,533.215,989.608,538.489Z" transform="translate(-912.208 60.635)" fill="#fff"/>
    <path id="Path_19606" data-name="Path 19606" d="M981.406,517.191l36.164-11.82c-.027-.08-.053-.161-.081-.239l.413-.135q-1.872-5.432-3.585-10.938L978.15,505.881c.026.08.053.16.077.239l-.408.134C978.959,509.925,980.164,513.567,981.406,517.191Z" transform="translate(-914.807 53.972)" fill="#fff"/>
    <path id="Path_19607" data-name="Path 19607" d="M974.531,494.342l36.977-8.937c-.024-.092-.045-.185-.069-.277l.4-.1c-.956-3.707-1.836-7.443-2.676-11.2l-36.979,8.937.065.279-.4.095C972.7,486.9,973.58,490.633,974.531,494.342Z" transform="translate(-916.909 46.848)" fill="#fff"/>
    <path id="Path_19608" data-name="Path 19608" d="M969.462,471.007l37.557-6c-.017-.1-.034-.208-.051-.312l.383-.061c-.659-3.769-1.247-7.563-1.788-11.371l-37.561,6c.015.105.031.21.046.314l-.379.061Q968.49,465.347,969.462,471.007Z" transform="translate(-918.382 39.601)" fill="#fff"/>
    <path id="Path_19609" data-name="Path 19609" d="M966.187,447.348l37.908-3.025c-.011-.115-.019-.23-.03-.345l.362-.03q-.542-5.712-.9-11.475L965.619,435.5c.007.115.016.23.024.345l-.356.028Q965.657,441.633,966.187,447.348Z" transform="translate(-919.221 32.277)" fill="#fff"/>
    <path id="Path_19610" data-name="Path 19610" d="M1561.825,422.028h.327c.018-1.548.058-3.091.058-4.644,0-2.3-.047-4.58-.087-6.867l-38.029.105c0,.124,0,.25.005.373h-.337c.042,2.25.087,4.5.087,6.761,0,1.588-.041,3.166-.061,4.749l38.03-.107C1561.821,422.275,1561.824,422.151,1561.825,422.028Z" transform="translate(-722.485 24.543)" fill="#fff"/>
    <path id="Path_19611" data-name="Path 19611" d="M1560.655,445.849l.3.023q.511-5.716.863-11.478l-37.92-2.887c-.008.133-.019.265-.027.4l-.305-.024q-.339,5.765-.863,11.478l37.921,2.889C1560.633,446.114,1560.643,445.982,1560.655,445.849Z" transform="translate(-722.86 31.937)" fill="#fff"/>
    <path id="Path_19612" data-name="Path 19612" d="M1557.636,469.512l.265.042q.959-5.661,1.757-11.375l-37.581-5.864c-.019.139-.04.277-.061.417l-.271-.042q-.791,5.716-1.755,11.375l37.578,5.862C1557.593,469.789,1557.613,469.651,1557.636,469.512Z" transform="translate(-723.815 39.267)" fill="#fff"/>
    <path id="Path_19613" data-name="Path 19613" d="M1552.765,492.84l.227.054q1.406-5.57,2.645-11.2l-37.009-8.8c-.032.143-.066.285-.1.429l-.234-.055c-.828,3.755-1.7,7.494-2.64,11.2l37,8.8C1552.7,493.125,1552.73,492.982,1552.765,492.84Z" transform="translate(-725.341 46.515)" fill="#fff"/>
    <path id="Path_19614" data-name="Path 19614" d="M1545.886,516.213l.187.061q1.854-5.438,3.552-10.948l-36.187-11.753c-.045.146-.093.291-.138.437l-.193-.064q-1.692,5.513-3.553,10.949l36.187,11.753C1545.79,516.5,1545.838,516.357,1545.886,516.213Z" transform="translate(-727.491 53.801)" fill="#fff"/>
    <path id="Path_19615" data-name="Path 19615" d="M1537.318,538.445l.147.061q2.28-5.278,4.422-10.628l-35.14-14.56c-.058.146-.121.291-.179.437l-.153-.063c-1.416,3.574-2.9,7.11-4.429,10.626l35.146,14.563C1537.194,538.735,1537.255,538.589,1537.318,538.445Z" transform="translate(-730.157 60.757)" fill="#fff"/>
    <path id="Path_19616" data-name="Path 19616" d="M994.757,288.92l33.885,17.281c.072-.145.146-.288.217-.433l.115.058q2.528-5.148,5.216-10.2h-.948L1000,278.671Q997.305,283.752,994.757,288.92Z" transform="translate(-908.84 -21.903)" fill="#fff"/>
    <path id="Path_19617" data-name="Path 19617" d="M1005.785,268.492l32.421,19.892q2.939-4.955,6.016-9.813l-32.417-19.889Q1008.722,263.535,1005.785,268.492Z" transform="translate(-904.955 -28.945)" fill="#fff"/>
    <path id="Path_19618" data-name="Path 19618" d="M1018.051,249.431l30.8,22.322q3.309-4.714,6.753-9.323l-30.8-22.325Q1021.354,244.712,1018.051,249.431Z" transform="translate(-900.635 -35.488)" fill="#fff"/>
    <path id="Path_19619" data-name="Path 19619" d="M1032.1,230.9l28.937,24.671c2.445-2.959,4.952-5.863,7.489-8.741l-28.944-24.676Q1035.783,226.477,1032.1,230.9Z" transform="translate(-895.686 -41.813)" fill="#fff"/>
    <path id="Path_19620" data-name="Path 19620" d="M1047.547,213.538l26.907,26.872q4-4.136,8.135-8.143l-26.909-26.872Q1051.555,209.409,1047.547,213.538Z" transform="translate(-890.244 -47.716)" fill="#fff"/>
    <path id="Path_19621" data-name="Path 19621" d="M1064.276,197.425l24.715,28.909c2.875-2.541,5.778-5.049,8.734-7.5l-24.711-28.9Q1068.586,193.612,1064.276,197.425Z" transform="translate(-884.351 -53.163)" fill="#fff"/>
    <path id="Path_19622" data-name="Path 19622" d="M1081.885,182.881l22.409,30.737q4.592-3.467,9.294-6.791l-22.41-30.738Q1086.478,179.418,1081.885,182.881Z" transform="translate(-878.148 -58.04)" fill="#fff"/>
    <path id="Path_19623" data-name="Path 19623" d="M1101.335,169.234l19.859,32.436q4.854-3.087,9.817-6.01l-19.862-32.44Q1106.2,166.161,1101.335,169.234Z" transform="translate(-871.296 -62.573)" fill="#fff"/>
    <path id="Path_19624" data-name="Path 19624" d="M1121.353,157.431l17.248,33.9q5.079-2.692,10.253-5.232l-17.247-33.9Q1126.435,154.742,1121.353,157.431Z" transform="translate(-864.244 -66.455)" fill="#fff"/>
    <path id="Path_19625" data-name="Path 19625" d="M1152.842,142.816q-5.357,2.126-10.63,4.414l14.529,35.16c3.517-1.523,7.053-3.009,10.629-4.421Z" transform="translate(-856.896 -69.761)" fill="#fff"/>
    <path id="Path_19626" data-name="Path 19626" d="M1174.737,135.154q-5.509,1.694-10.953,3.535l11.72,36.2q5.436-1.856,10.953-3.538Z" transform="translate(-849.297 -72.46)" fill="#fff"/>
    <path id="Path_19627" data-name="Path 19627" d="M1196.611,129.369c-3.751.841-7.486,1.723-11.2,2.671l8.9,36.978c3.707-.952,7.446-1.827,11.2-2.663Z" transform="translate(-841.677 -74.498)" fill="#fff"/>
    <path id="Path_19628" data-name="Path 19628" d="M1219.414,125.2q-5.712.815-11.371,1.785l5.965,37.562c3.77-.657,7.563-1.243,11.373-1.78Z" transform="translate(-833.706 -75.965)" fill="#fff"/>
    <path id="Path_19629" data-name="Path 19629" d="M1242.445,122.84q-5.763.365-11.477.891l2.991,37.912q5.712-.537,11.475-.888Z" transform="translate(-825.63 -76.798)" fill="#fff"/>
    <path id="Path_19630" data-name="Path 19630" d="M1430.467,161.161a17.7,17.7,0,1,0-17.7-17.7A17.7,17.7,0,0,0,1430.467,161.161Zm0-25.423a7.724,7.724,0,1,1-7.724,7.723A7.723,7.723,0,0,1,1430.467,135.739Z" transform="translate(-761.587 -75.768)" fill="#fff"/>
    <path id="Path_19631" data-name="Path 19631" d="M1590.042,514.9a267.105,267.105,0,0,0,2.125-33.691,263.516,263.516,0,0,0-60.336-168.2h-.681a264.929,264.929,0,0,0-123.879-83.692l-4.6,17.892a246.44,246.44,0,0,0-234.884,46.836l-11.272-14.614a265.664,265.664,0,0,0-66.54,84.917l.122.042a262.724,262.724,0,0,0-25.048,83.551l-.3-.045a267.341,267.341,0,0,0-2.125,33.69,263.514,263.514,0,0,0,60.336,168.2h.683a264.939,264.939,0,0,0,123.879,83.692l4.6-17.892a246.437,246.437,0,0,0,234.884-46.837l11.271,14.614a265.657,265.657,0,0,0,66.541-84.916l-.123-.043a262.738,262.738,0,0,0,25.049-83.55Zm-21.526-19.31a240.517,240.517,0,0,1-18.047,78.77l0,.005q-1.046,2.515-2.15,5c-.043.1-.084.192-.127.288q-1.055,2.375-2.162,4.721c-.08.169-.157.338-.236.507q-1.069,2.26-2.187,4.491c-.111.222-.22.445-.333.667q-1.087,2.166-2.222,4.3c-.136.26-.273.521-.411.779q-1.111,2.087-2.265,4.146c-.162.289-.323.58-.485.87q-1.136,2.01-2.308,4-.278.473-.559.947-1.16,1.945-2.354,3.867c-.205.331-.413.664-.621.994q-1.189,1.892-2.41,3.76-.335.511-.672,1.021-1.219,1.844-2.47,3.665-.357.519-.72,1.037-1.249,1.8-2.533,3.575c-.251.349-.507.7-.761,1.044q-1.284,1.757-2.6,3.49c-.265.35-.534.7-.8,1.048q-1.316,1.718-2.662,3.413c-.275.345-.553.687-.829,1.03q-1.359,1.688-2.744,3.354c-.277.333-.56.661-.84.993q-1.388,1.645-2.8,3.27-1.71,1.943-3.455,3.855c-.149.162-.3.32-.449.483q-1.779,1.929-3.6,3.82c-.17.178-.343.352-.515.529q-1.8,1.856-3.632,3.677c-.191.188-.384.373-.575.561q-1.817,1.787-3.669,3.536c-.214.2-.43.4-.645.6q-1.832,1.714-3.7,3.394c-.235.211-.473.419-.71.63q-1.844,1.643-3.72,3.251A241.965,241.965,0,0,1,1252.7,711.077q-2.842-.927-5.652-1.919c-.273-.1-.548-.191-.82-.288a240.331,240.331,0,0,1-25.27-10.694c-.187-.092-.373-.187-.561-.279q-2.8-1.389-5.559-2.845-.278-.148-.556-.293a241.728,241.728,0,0,1-23.431-14.216c-.07-.047-.139-.1-.209-.145q-2.7-1.858-5.34-3.786l-.333-.242a243.262,243.262,0,0,1-26.13-22.115l-.161-.157a243.227,243.227,0,0,1-22.84-25.716l-.021-.03a241.148,241.148,0,0,1-36.374-67.115h0a241.273,241.273,0,0,1-13.581-80.022c0-4.7.149-9.37.414-14.005a240.494,240.494,0,0,1,18.048-78.771l0,0q1.045-2.517,2.15-5l.125-.289q1.057-2.373,2.164-4.719c.078-.169.157-.339.237-.507q1.069-2.26,2.187-4.491c.111-.223.221-.445.331-.667q1.089-2.166,2.223-4.3c.137-.26.273-.521.411-.78q1.112-2.085,2.265-4.145c.162-.291.323-.58.486-.869q1.134-2.01,2.307-4c.186-.316.372-.632.56-.947q1.159-1.945,2.354-3.867.308-.5.62-1,1.187-1.89,2.41-3.759.335-.511.672-1.021,1.219-1.844,2.471-3.665c.238-.346.479-.692.718-1.037q1.251-1.8,2.533-3.575c.253-.349.508-.7.763-1.044q1.284-1.757,2.6-3.49c.266-.352.536-.7.8-1.048q1.319-1.718,2.663-3.413c.276-.345.553-.687.83-1.03q1.359-1.688,2.744-3.354c.277-.333.56-.661.839-.993.926-1.1,1.857-2.188,2.8-3.268q1.708-1.945,3.455-3.857c.149-.162.3-.322.45-.483q1.779-1.929,3.594-3.822c.172-.177.345-.352.517-.527q1.8-1.856,3.632-3.677c.191-.188.384-.375.574-.561q1.818-1.787,3.669-3.536c.214-.2.43-.4.644-.6q1.833-1.714,3.7-3.394c.235-.211.475-.421.711-.63q1.844-1.643,3.719-3.251a241.967,241.967,0,0,1,231.838-46.091q2.842.925,5.652,1.918l.82.289a240.339,240.339,0,0,1,25.27,10.694l.56.279q2.8,1.387,5.56,2.845l.556.293a241.789,241.789,0,0,1,23.431,14.216l.208.143q2.7,1.858,5.341,3.788l.333.242a243.057,243.057,0,0,1,26.13,22.115l.159.157a242.907,242.907,0,0,1,22.841,25.716l.022.028a241.208,241.208,0,0,1,36.373,67.116h0a241.291,241.291,0,0,1,13.581,80.022C1568.93,486.29,1568.781,490.957,1568.516,495.594Z" transform="translate(-884.932 -39.289)" fill="#fff"/>
    <path id="Path_19632" data-name="Path 19632" d="M1682.191,426.341h-25.34c-.005.126-.015.249-.021.375h-.31a309.334,309.334,0,0,1-49.035,153.671h.1C1552.2,666.1,1455.813,722.84,1346.168,722.84c-166.906,0-303.091-131.469-310.683-296.5h-25.34c.006.126.015.249.02.375h-.352a334.52,334.52,0,0,0,44.708,153.671h.545c58.207,100.314,166.77,167.778,291.1,167.778C1527.06,748.164,1674.577,605.36,1682.191,426.341Z" transform="translate(-903.536 30.117)" fill="#fff"/>
    <path id="Path_19633" data-name="Path 19633" d="M1254.29,681.067V719.1c1.917.027,3.831.072,5.755.072s3.838-.044,5.755-.072v-38.03c-1.917.03-3.831.073-5.755.073S1256.206,681.1,1254.29,681.067Z" transform="translate(-817.414 119.85)" fill="#fff"/>
    <path id="Path_19634" data-name="Path 19634" d="M1242.667,718.731l2.994-37.914q-5.763-.357-11.477-.89l-2.994,37.912Q1236.906,718.368,1242.667,718.731Z" transform="translate(-825.551 119.449)" fill="#fff"/>
    <path id="Path_19635" data-name="Path 19635" d="M1219.638,716.508l5.967-37.566q-5.711-.806-11.371-1.78l-5.968,37.562Q1213.924,715.7,1219.638,716.508Z" transform="translate(-833.627 118.475)" fill="#fff"/>
    <path id="Path_19636" data-name="Path 19636" d="M1196.855,712.425l8.9-36.986c-3.752-.837-7.49-1.711-11.2-2.664l-8.9,36.978C1189.367,710.7,1193.1,711.582,1196.855,712.425Z" transform="translate(-841.591 116.929)" fill="#fff"/>
    <path id="Path_19637" data-name="Path 19637" d="M1174.981,706.661l11.72-36.2q-5.513-1.686-10.953-3.538l-11.72,36.2Q1169.468,704.974,1174.981,706.661Z" transform="translate(-849.211 114.869)" fill="#fff"/>
    <path id="Path_19638" data-name="Path 19638" d="M1153.068,698.949,1167.6,663.8c-3.576-1.412-7.112-2.9-10.627-4.421l-14.533,35.159Q1147.716,696.811,1153.068,698.949Z" transform="translate(-856.817 112.209)" fill="#fff"/>
    <path id="Path_19639" data-name="Path 19639" d="M1149.082,655.548q-5.177-2.534-10.253-5.232l-17.251,33.9q5.085,2.686,10.254,5.231Z" transform="translate(-864.165 109.018)" fill="#fff"/>
    <path id="Path_19640" data-name="Path 19640" d="M1131.256,645.82q-4.955-2.933-9.818-6.01l-19.859,32.436q4.858,3.079,9.815,6.013Z" transform="translate(-871.21 105.317)" fill="#fff"/>
    <path id="Path_19641" data-name="Path 19641" d="M1113.832,634.413q-4.7-3.323-9.294-6.792l-22.408,30.739q4.6,3.46,9.293,6.792Z" transform="translate(-878.061 101.023)" fill="#fff"/>
    <path id="Path_19642" data-name="Path 19642" d="M1097.694,621.872q-4.428-3.679-8.726-7.506l-24.755,28.874q4.312,3.809,8.729,7.5Z" transform="translate(-884.373 96.353)" fill="#fff"/>
    <path id="Path_19643" data-name="Path 19643" d="M1082.568,608.054q-4.126-4.014-8.126-8.153L1047.5,626.734q4,4.138,8.124,8.154Z" transform="translate(-890.262 91.258)" fill="#fff"/>
    <path id="Path_19644" data-name="Path 19644" d="M1068.528,593.067q-3.8-4.322-7.473-8.755l-28.979,24.634c2.445,2.959,4.945,5.869,7.472,8.755Z" transform="translate(-895.694 85.766)" fill="#fff"/>
    <path id="Path_19645" data-name="Path 19645" d="M1055.936,577.392q-3.456-4.6-6.76-9.316l-30.787,22.34q3.316,4.706,6.757,9.318Z" transform="translate(-900.515 80.047)" fill="#fff"/>
    <path id="Path_19646" data-name="Path 19646" d="M1044.275,560.317q-3.083-4.854-6.005-9.819l-32.449,19.844q2.937,4.953,6.008,9.819Z" transform="translate(-904.943 73.854)" fill="#fff"/>
    <path id="Path_19647" data-name="Path 19647" d="M1032.406,543.133h.4l.811-.412-.085-.162.416-.211q-2.692-5.081-5.228-10.254l-33.909,17.231q2.539,5.173,5.226,10.256Z" transform="translate(-908.82 67.371)" fill="#fff"/>
    <path id="Path_19648" data-name="Path 19648" d="M1537.635,299.623l-35.167,14.514c.03.066.057.134.087.2l-.418.172c1.52,3.519,3.006,7.055,4.417,10.629l35.159-14.51c-.026-.068-.055-.135-.083-.2l.415-.172C1540.629,306.683,1539.15,303.143,1537.635,299.623Z" transform="translate(-730.104 -14.522)" fill="#fff"/>
    <path id="Path_19649" data-name="Path 19649" d="M1545.881,320.3l-36.163,11.82c.027.08.053.16.08.239l-.412.135q1.874,5.432,3.585,10.937l36.167-11.822c-.024-.08-.052-.16-.076-.241l.408-.133C1548.33,327.566,1547.124,323.924,1545.881,320.3Z" transform="translate(-727.551 -7.238)" fill="#fff"/>
    <path id="Path_19650" data-name="Path 19650" d="M1552.732,342.465l-36.975,8.937c.023.092.044.184.067.277l-.4.1c.958,3.707,1.836,7.443,2.676,11.2l36.98-8.937c-.021-.093-.043-.185-.064-.279l.4-.1C1554.567,349.909,1553.682,346.174,1552.732,342.465Z" transform="translate(-725.424 0.57)" fill="#fff"/>
    <path id="Path_19651" data-name="Path 19651" d="M1557.721,365.08l-37.555,6c.017.1.032.21.051.314l-.384.061c.66,3.769,1.247,7.562,1.787,11.371l37.562-6c-.015-.105-.033-.21-.047-.314l.379-.061Q1558.695,370.74,1557.721,365.08Z" transform="translate(-723.87 8.537)" fill="#fff"/>
    <path id="Path_19652" data-name="Path 19652" d="M1560.856,387.992l-37.91,3.025c.011.115.019.23.03.345l-.361.028q.541,5.712.9,11.477l37.912-3.026c-.007-.115-.017-.23-.024-.345l.355-.028Q1561.386,393.707,1560.856,387.992Z" transform="translate(-722.89 16.608)" fill="#fff"/>
    <path id="Path_19653" data-name="Path 19653" d="M965.037,412.561h-.327c-.018,1.548-.058,3.091-.058,4.644,0,2.295.047,4.58.087,6.867l38.027-.107q0-.187,0-.373h.335c-.04-2.25-.085-4.5-.085-6.761,0-1.588.039-3.167.061-4.749l-38.031.107C965.04,412.312,965.039,412.436,965.037,412.561Z" transform="translate(-919.445 25.094)" fill="#fff"/>
    <path id="Path_19654" data-name="Path 19654" d="M966.381,389.454l-.3-.023q-.513,5.718-.863,11.479l37.92,2.887c.008-.133.019-.265.027-.4l.3.023q.341-5.765.864-11.478l-37.922-2.887C966.4,389.19,966.394,389.323,966.381,389.454Z" transform="translate(-919.245 16.984)" fill="#fff"/>
    <path id="Path_19655" data-name="Path 19655" d="M969.544,366.54l-.265-.041q-.96,5.659-1.757,11.375l37.58,5.863c.02-.139.042-.277.061-.416l.272.042q.791-5.716,1.755-11.375l-37.58-5.863C969.588,366.263,969.568,366.4,969.544,366.54Z" transform="translate(-918.434 8.905)" fill="#fff"/>
    <path id="Path_19656" data-name="Path 19656" d="M974.5,343.934l-.227-.054q-1.406,5.568-2.645,11.2l37.009,8.8c.031-.143.066-.285.1-.43l.234.057c.826-3.755,1.7-7.494,2.64-11.2l-37-8.8C974.564,343.648,974.531,343.792,974.5,343.934Z" transform="translate(-916.989 0.936)" fill="#fff"/>
    <path id="Path_19657" data-name="Path 19657" d="M981.4,321.262l-.188-.06q-1.854,5.438-3.552,10.948l36.188,11.753c.045-.146.092-.291.138-.437l.193.063q1.692-5.513,3.553-10.949l-36.188-11.753C981.494,320.973,981.448,321.119,981.4,321.262Z" transform="translate(-914.863 -7.052)" fill="#fff"/>
    <path id="Path_19658" data-name="Path 19658" d="M989.923,299.678l-.147-.061q-2.28,5.278-4.422,10.628l35.14,14.561c.058-.147.119-.291.177-.438l.154.064c1.414-3.573,2.9-7.109,4.427-10.625l-35.145-14.563C990.045,299.389,989.985,299.535,989.923,299.678Z" transform="translate(-912.153 -14.656)" fill="#fff"/>
    <path id="Path_19659" data-name="Path 19659" d="M1532.361,549.717l-33.884-17.281c-.072.145-.146.288-.217.433l-.115-.058q-2.529,5.148-5.216,10.2h.948l33.244,16.953Q1529.814,554.882,1532.361,549.717Z" transform="translate(-733.348 67.492)" fill="#fff"/>
    <path id="Path_19660" data-name="Path 19660" d="M1521.075,570.711l-32.422-19.892q-2.938,4.956-6.016,9.813l32.418,19.889Q1518.138,575.666,1521.075,570.711Z" transform="translate(-736.974 73.968)" fill="#fff"/>
    <path id="Path_19661" data-name="Path 19661" d="M1508.577,590.278l-30.8-22.322q-3.309,4.712-6.752,9.321l30.8,22.325Q1505.274,595,1508.577,590.278Z" transform="translate(-741.064 80.004)" fill="#fff"/>
    <path id="Path_19662" data-name="Path 19662" d="M1494.238,609.27,1465.3,584.6c-2.445,2.959-4.952,5.863-7.488,8.741l28.944,24.675Q1490.553,613.694,1494.238,609.27Z" transform="translate(-745.719 85.868)" fill="#fff"/>
    <path id="Path_19663" data-name="Path 19663" d="M1478.429,627.047l-26.909-26.871q-4,4.136-8.135,8.143l26.91,26.872Q1474.419,631.178,1478.429,627.047Z" transform="translate(-750.801 91.355)" fill="#fff"/>
    <path id="Path_19664" data-name="Path 19664" d="M1461.283,643.523l-24.714-28.909c-2.875,2.541-5.78,5.049-8.734,7.5l24.712,28.9Q1456.975,647.336,1461.283,643.523Z" transform="translate(-756.279 96.441)" fill="#fff"/>
    <path id="Path_19665" data-name="Path 19665" d="M1443.221,658.36l-22.41-30.739q-4.59,3.466-9.293,6.791l22.41,30.74Q1438.626,661.824,1443.221,658.36Z" transform="translate(-762.027 101.023)" fill="#fff"/>
    <path id="Path_19666" data-name="Path 19666" d="M1423.243,672.248l-19.861-32.436q-4.852,3.085-9.818,6.009l19.862,32.438Q1418.38,675.319,1423.243,672.248Z" transform="translate(-768.351 105.317)" fill="#fff"/>
    <path id="Path_19667" data-name="Path 19667" d="M1402.658,684.228l-17.248-33.9q-5.081,2.694-10.253,5.233l17.247,33.9Q1397.574,686.918,1402.658,684.228Z" transform="translate(-774.836 109.021)" fill="#fff"/>
    <path id="Path_19668" data-name="Path 19668" d="M1370.557,698.958q5.357-2.126,10.632-4.414l-14.529-35.161c-3.519,1.523-7.055,3.009-10.629,4.421Z" transform="translate(-781.573 112.212)" fill="#fff"/>
    <path id="Path_19669" data-name="Path 19669" d="M1348.015,706.662q5.511-1.693,10.955-3.536l-11.72-36.2q-5.438,1.858-10.953,3.538Z" transform="translate(-788.525 114.869)" fill="#fff"/>
    <path id="Path_19670" data-name="Path 19670" d="M1325.473,712.425c3.75-.842,7.486-1.724,11.2-2.671l-8.9-36.979c-3.706.953-7.445,1.827-11.2,2.664Z" transform="translate(-795.475 116.929)" fill="#fff"/>
    <path id="Path_19671" data-name="Path 19671" d="M1301.948,716.512q5.712-.815,11.372-1.785l-5.965-37.562q-5.655.984-11.372,1.78Z" transform="translate(-802.727 118.476)" fill="#fff"/>
    <path id="Path_19672" data-name="Path 19672" d="M1278.171,718.733q5.761-.365,11.477-.891l-2.991-37.912q-5.712.535-11.475.888Z" transform="translate(-810.055 119.45)" fill="#fff"/>
    <path id="Path_19673" data-name="Path 19673" d="M938.688,530.717a433.793,433.793,0,0,1,33.715-168.2h-.178c65.871-156.615,220.737-266.587,401.3-266.587a433.241,433.241,0,0,1,201.372,49.328,27.62,27.62,0,0,1,3.729-6.1,440.341,440.341,0,0,0-205.1-50.363c-244.276,0-442.3,198.024-442.3,442.3a440.948,440.948,0,0,0,33.14,168.2h.475a443.9,443.9,0,0,0,157.131,195,27.6,27.6,0,0,1,3.692-6.122C1012.667,809.571,938.688,678.794,938.688,530.717Z" transform="translate(-931.222 -88.792)" fill="#fff"/>
    <path id="Path_19674" data-name="Path 19674" d="M1721.134,342.007h-.473A443.908,443.908,0,0,0,1563.53,147a27.6,27.6,0,0,1-3.692,6.123c112.993,78.6,186.971,209.38,186.971,357.457a433.8,433.8,0,0,1-33.713,168.2h.178c-65.87,156.615-220.738,266.587-401.3,266.587A433.223,433.223,0,0,1,1110.6,896.046a27.635,27.635,0,0,1-3.729,6.1,440.338,440.338,0,0,0,205.1,50.363c244.275,0,442.3-198.024,442.3-442.3A440.94,440.94,0,0,0,1721.134,342.007Z" transform="translate(-869.345 -68.285)" fill="#fff"/>
    <path id="Path_19675" data-name="Path 19675" d="M1095.6,679.525a17.7,17.7,0,1,0,17.7,17.7A17.7,17.7,0,0,0,1095.6,679.525Zm0,25.423a7.723,7.723,0,1,1,7.724-7.724A7.724,7.724,0,0,1,1095.6,704.948Z" transform="translate(-879.55 119.307)" fill="#fff"/>
  </g>
</svg>
