<svg xmlns="http://www.w3.org/2000/svg" width="272.465" height="178.864" viewBox="0 0 272.465 178.864">
  <g id="img-khoahoccongnghe" transform="translate(-196.028 -134.349)">
    <path id="Path_20059" data-name="Path 20059" d="M220.277,312.911s-38.711-23.705-18.311-70.424c12.9-29.544,42.882-20.555,41.425-65.671s69.262-48.993,91.772-35.911,20.509,20.955,66.723,13.822c39.582-6.109,49.99,37.691,33.394,62.216-20.064,29.65,59.594,34.217,18.788,95.968Z" fill="#d6e4dc"/>
    <g id="Group_1774" data-name="Group 1774" transform="translate(288.696 288.949)">
      <g id="Group_1772" data-name="Group 1772">
        <path id="Path_20060" data-name="Path 20060" d="M1066.727,1495.83H985.687l5.425-21.257h70.468Z" transform="translate(-985.687 -1471.896)" fill="#fff"/>
        <ellipse id="Ellipse_4050" data-name="Ellipse 4050" cx="35.229" cy="2.677" rx="35.229" ry="2.677" transform="translate(5.435)" fill="#2b2b2b"/>
      </g>
    </g>
    <g id="Group_1776" data-name="Group 1776" transform="translate(220.183 224.433)">
      <path id="Path_20064" data-name="Path 20064" d="M472.875,1629.236h4.883a11.8,11.8,0,0,0-.39-1.752,4.975,4.975,0,0,0-.276-.7c-.475-.948-3.491-.345-3.491-.345a2.323,2.323,0,0,0-.5,1.157A9.713,9.713,0,0,0,472.875,1629.236Z" transform="translate(-464.541 -1541.254)" fill="#233862"/>
      <path id="Path_20065" data-name="Path 20065" d="M545.142,1016.2s3.891.683,4.77,2.98,5.849,39.391,5.849,39.391-2.461,1.95-7.743,1.25S545.142,1016.2,545.142,1016.2Z" transform="translate(-527.845 -1002.802)" fill="#ff9f55"/>
      <path id="Path_20066" data-name="Path 20066" d="M598.585,1612.749a2.65,2.65,0,0,0,.338,1.541h9.657a1.667,1.667,0,0,0-1.462-1.036,7.323,7.323,0,0,1-3.908-1.809,2.907,2.907,0,0,1-.757-1.37c-.454-2.023-3.757.62-3.757.62A16.387,16.387,0,0,0,598.585,1612.749Z" transform="translate(-575.497 -1526.307)" fill="#233862"/>
      <path id="Path_20067" data-name="Path 20067" d="M517.931,1287.862c-1.079.344-3.142,1.4-4.452.9-.847-.319-5.58-14.012-5.887-20a15.323,15.323,0,0,0-.242-1.784c-.281-1.546-.771-3.67-1.336-6.013-1.515-6.28-3.564-14.136-3.519-16.647.069-3.9,11.615-.817,11.615-.817a41.714,41.714,0,0,1,.952,7.826c.314,9.188,1.175,24.707,3.52,35.484A.926.926,0,0,1,517.931,1287.862Z" transform="translate(-490.684 -1202.404)" fill="#ed7d2b"/>
      <path id="Path_20068" data-name="Path 20068" d="M468.341,1248.686l-6.1,44.237a11.943,11.943,0,0,1-4.765.129s-1.787-23.527-1.638-29.215-1.282-15.22.327-16.271S468.341,1248.686,468.341,1248.686Z" transform="translate(-449.108 -1206.759)" fill="#f99746"/>
      <path id="Path_20069" data-name="Path 20069" d="M455.39,1013.689s6.414-4.148,11.015-2.027a8.624,8.624,0,0,1,2.168,1.941c1.663,1.832,4.913,30.942,4.913,30.942s-9.225,3.124-18.1-1.06Z" transform="translate(-449.108 -998.26)" fill="#fff"/>
      <path id="Path_20070" data-name="Path 20070" d="M552.364,1015.309s6.494,2.661,7.373,4.706a124.845,124.845,0,0,1,3.738,16.074c0,1.473-4.977.329-5.779-2.046-.665-1.972-2.909-8.03-4.093-11.862Z" transform="translate(-534.702 -1002.011)" fill="#ff9f55"/>
      <g id="Group_1775" data-name="Group 1775" transform="translate(8.455 0)">
        <path id="Path_20071" data-name="Path 20071" d="M503.08,988.953a7.306,7.306,0,0,1-5.025-1.023,14.462,14.462,0,0,0,1.071-3.782c.006-.045.01-.088.015-.13a3.864,3.864,0,0,0,.017-.866h3.665s1,.458,1,.775q0,.254,0,.486c.007.421.024.789.046,1.105a10.037,10.037,0,0,0,.188,1.513S504.511,988.672,503.08,988.953Z" transform="translate(-495.221 -973.627)" fill="#ffb27d"/>
        <path id="Path_20072" data-name="Path 20072" d="M511.346,990.6a5.065,5.065,0,0,1-4.75-1.37c-.051-.056-.078-.089-.078-.089.029-.015.06-.028.092-.041,1.034-.419,3.379-.086,4.689.394C511.307,989.915,511.324,990.283,511.346,990.6Z" transform="translate(-502.692 -978.709)" fill="#e2915a"/>
        <path id="Path_20073" data-name="Path 20073" d="M494.2,927.435c.5,2.67,3.942,2.582,5.431,2.415.419-.047.683-.1.683-.1.473-.126.736-.87.859-1.845a15.187,15.187,0,0,0-.39-5.486c-.491-1.09-1.414-2.269-4.884-1.418S493.561,924.013,494.2,927.435Z" transform="translate(-491.2 -918.513)" fill="#ffb27d"/>
        <path id="Path_20074" data-name="Path 20074" d="M483.616,904.409a7.931,7.931,0,0,0-2.393-1.953c-1.962-1.062-4.473.033-4.484.038-2.834,1.246-3.574,3.414-2.072,6.792,1.589,3.572,3.1,3.17,3.1,3.17s-.321-.2-.292-1.313c0-.063,0-.116.007-.162a.748.748,0,0,0-.236-.609c-.352-.314-.524-1.264-.229-1.529.356-.319.855.069,1.015.367a.435.435,0,0,0,.622.137c.882-.558.309-1.673,1.152-2.355s2.553-.109,3.818-.653C485.281,905.722,483.973,904.9,483.616,904.409Z" transform="translate(-473.907 -901.993)"/>
      </g>
      <path id="Path_20075" data-name="Path 20075" d="M453.891,1060.589q-.838.216-1.661.353c-.486.083-.97.145-1.454.186a23.64,23.64,0,0,1-8.725-1.072q-1.088-.313-2.254-.706c-.083-.028.212-8.55.552-17.341.035-.907.07-1.818.106-2.723q.023-.575.046-1.145c.308-7.775.614-14.8.679-15.174.147-.855.285-1.585.435-2.216a5.617,5.617,0,0,1,2.173-3.721c.116-.088,1.066-.567,1.905-.984.695-.345,1.312-.647,1.312-.647h0a3.664,3.664,0,0,1,.956,1.658,59.907,59.907,0,0,1,1.807,6.023.047.047,0,0,1,0,.009h0c.308,1.21.53,2.153.593,2.423.107.456.249,1.34.415,2.539.226,1.631.5,3.844.781,6.356q.044.387.088.784c.034.3.068.606.1.914q.017.148.032.3c.11.995.221,2.021.331,3.065.091.863,1.4,1.486,1.49,2.364.052.515.161,5.269.3,6.786C454,1049.7,453.93,1060.08,453.891,1060.589Z" transform="translate(-435.332 -1002.091)" fill="#ff9f55"/>
      <path id="Path_20076" data-name="Path 20076" d="M452.01,1106.6c0,.018-.222,7.862,5.678,8.815s1.98,1.2,1.98,1.2-11.1-.472-11.285-.765S452.01,1106.6,452.01,1106.6Z" transform="translate(-442.917 -1082.588)" fill="#e26917"/>
      <path id="Path_20077" data-name="Path 20077" d="M443.463,1198.459s-.111.079-.323.216l-.011.007a27.709,27.709,0,0,1-7.462,3.191c-.408.111-.83.216-1.265.312.034-.907.07-1.819.106-2.723a11.385,11.385,0,0,1-1.462-.2c.015-.12.031-.239.047-.358.495-.2.987-.4,1.461-.584.386-.151.76-.295,1.114-.428,1.6-.607,2.783-1.018,2.783-1.018l4.73,1.5Z" transform="translate(-429.385 -1162.267)" fill="#e26917"/>
      <path id="Path_20078" data-name="Path 20078" d="M417.188,1038.152s-.608.152-1.575.347l-.01,0a38.752,38.752,0,0,1-7.462.834c-.4,0-.784-.02-1.16-.049a11.385,11.385,0,0,1-1.462-.2,4.548,4.548,0,0,1-2.336-1.1c-3.985-4.059,2.175-18.628,3.47-20.045,1.512-1.655,4.272-2.236,5.8-2.435l.184-.024c.536-.064.879-.077.9-.078h0s-.119.384-.32,1.036c-.078.252-.168.544-.267.871-.936,3.065-2.742,9.09-3.538,12.487a8.6,8.6,0,0,0-.377,2.4c.311,1.16,3.531,1.757,5.571,2.021.851.11,1.5.162,1.641.173l.03,0,.118.484.282,1.16.278,1.14Z" transform="translate(-401.858 -1002.091)" fill="#ff9f55"/>
      <path id="Path_20079" data-name="Path 20079" d="M524.26,1136.167l-13.687-.576,2.777-17.057,13.687.577Z" transform="translate(-497.815 -1093.122)"/>
      <path id="Path_20080" data-name="Path 20080" d="M518.95,1177.027s2.664-.186,2.8.435c.311,1.448-2.291,2.636-3.134,2.555S518.337,1176.93,518.95,1177.027Z" transform="translate(-504.537 -1144.728)" fill="#ffb27d"/>
      <path id="Path_20081" data-name="Path 20081" d="M622.415,1149.72s-2.549-.8-2.823-.224c-.638,1.336,1.619,3.095,2.458,3.211S623.034,1149.767,622.415,1149.72Z" transform="translate(-593.942 -1120.268)" fill="#ffb27d"/>
      <path id="Path_20082" data-name="Path 20082" d="M491.025,1008.1a4.972,4.972,0,0,0-1.683,1.34s4.19,7.274,4.171,7.206S492.1,1009.033,491.025,1008.1Z" transform="translate(-479.076 -995.649)" fill="#e26917"/>
      <path id="Path_20083" data-name="Path 20083" d="M548.149,1008.975a3.2,3.2,0,0,1,1.236,1.265l.5,6.35s-1.063-4.661-1.6-6.767A3.568,3.568,0,0,1,548.149,1008.975Z" transform="translate(-530.982 -996.42)" fill="#e26917"/>
      <path id="Path_20084" data-name="Path 20084" d="M572.9,1116.983a.622.622,0,0,1,.731-.418c.623.055,4.123.227,4.123.227s.675-.011.612.421Z" transform="translate(-552.825 -1091.38)" fill="#c65447"/>
    </g>
    <g id="Group_1792" data-name="Group 1792" transform="translate(372.728 240.984)">
      <g id="Group_1786" data-name="Group 1786" transform="translate(12.963)">
        <g id="Group_1784" data-name="Group 1784">
          <g id="Group_1779" data-name="Group 1779" transform="translate(10.046 20.523)" opacity="0.4">
            <g id="Group_1777" data-name="Group 1777" transform="translate(14.006 27.79)">
              <path id="Path_20085" data-name="Path 20085" d="M2017.772,1478.445h-.041a.568.568,0,0,1-.561-.616l2.23-23.109,1.946.18-3.2,23.234A.366.366,0,0,1,2017.772,1478.445Z" transform="translate(-2017.168 -1454.719)" fill="#75a58c"/>
            </g>
            <g id="Group_1778" data-name="Group 1778" transform="translate(32.509 27.79)">
              <path id="Path_20086" data-name="Path 20086" d="M2178.411,1478.445h.041a.568.568,0,0,0,.561-.616l-2.23-23.109-1.946.18,3.2,23.234A.366.366,0,0,0,2178.411,1478.445Z" transform="translate(-2174.837 -1454.719)" fill="#75a58c"/>
            </g>
            <path id="Path_20087" data-name="Path 20087" d="M2051.8,1242.462l3.958-19.547a4.332,4.332,0,0,0-4.533-5l-7.633.175a6.03,6.03,0,0,0-5.655,4.353l-5.791,20.021Z" transform="translate(-2016.386 -1217.912)" fill="#75a58c"/>
            <path id="Path_20088" data-name="Path 20088" d="M2031.4,1242.462l3.958-19.547a4.332,4.332,0,0,0-4.532-5l-7.634.175a6.03,6.03,0,0,0-5.655,4.353l-5.791,20.021Z" transform="translate(-1998.374 -1217.912)" fill="#75a58c"/>
            <path id="Rectangle_1239" data-name="Rectangle 1239" d="M1.782,0H32.409a0,0,0,0,1,0,0V1.782a1.783,1.783,0,0,1-1.783,1.783H1.783A1.783,1.783,0,0,1,0,1.782v0A1.782,1.782,0,0,1,1.782,0Z" transform="translate(3.01 24.55)" fill="#75a58c"/>
            <path id="Rectangle_1240" data-name="Rectangle 1240" d="M1.783,0H19.249a1.782,1.782,0,0,1,1.782,1.782v0a1.782,1.782,0,0,1-1.782,1.782H1.783A1.783,1.783,0,0,1,0,1.783v0A1.783,1.783,0,0,1,1.783,0Z" transform="translate(0 24.55)" fill="#75a58c"/>
          </g>
          <g id="Group_1783" data-name="Group 1783">
            <g id="Group_1782" data-name="Group 1782">
              <g id="Group_1781" data-name="Group 1781">
                <path id="Path_20089" data-name="Path 20089" d="M2059.8,1047.023s.918-2.835,4.952-2.706a2.691,2.691,0,0,1,2.744-1.259c1.937.258,3,7.262,1.162,8.973s-2.981,1.762-2.981,1.762l-5.877-6.507Z" transform="translate(-2030.747 -1043.029)"/>
                <path id="Path_20090" data-name="Path 20090" d="M2004.577,1220.779l-3.208,8.118s-3.091,3.643-5.576,2.469l7.862-15.266Z" transform="translate(-1974.25 -1195.789)" fill="#abddda"/>
                <path id="Path_20091" data-name="Path 20091" d="M1820.742,1588.147c.093.9-1.155,1.129-2.6,1.216s-1.006.38-2.986.76-2.781-.154-2.928-.42c-.13-.237.788-.618,1.766-1.049l.37-.165a8.673,8.673,0,0,0,2.564-2.427,12.719,12.719,0,0,0,1.553-3.678l2.69-.6s-.73,2.519-.981,3.594a3.321,3.321,0,0,0,.3,1.869A3.528,3.528,0,0,1,1820.742,1588.147Z" transform="translate(-1812.213 -1518.556)" fill="#ffb27d"/>
                <path id="Path_20092" data-name="Path 20092" d="M1818.14,1630.455c-1.447.088-1.006.379-2.986.76s-2.781-.154-2.928-.42c-.13-.236.788-.618,1.766-1.049l.016.016a5.65,5.65,0,0,0,3.006,0c1.309-.37,2.569-1.168,3.471-1.431a3.531,3.531,0,0,1,.258.9C1820.835,1630.135,1819.587,1630.367,1818.14,1630.455Z" transform="translate(-1812.213 -1559.648)" fill="#0f2549"/>
                <path id="Path_20093" data-name="Path 20093" d="M1863.6,1309.986c1.448-1.016,10.839-5.475,15.725-6l5.585-2.041s4.6,6.809,4.633,12.018c.017,2.429-1.1,2.67-1.1,2.671s-17.313.128-18.072.207c-1.242.128-2.881,3.223-3.29,6.042s-7.629,14.283-7.629,14.283a9.048,9.048,0,0,1-2.2.441,2.2,2.2,0,0,1-1.1-.295S1860.338,1312.278,1863.6,1309.986Z" transform="translate(-1850.997 -1271.561)" fill="#ed7d2b"/>
                <path id="Path_20094" data-name="Path 20094" d="M1867.882,1588.147c.092.9-1.155,1.129-2.6,1.216s-1.006.38-2.986.76-2.14-1.039-1.161-1.47l.37-.165a8.676,8.676,0,0,0,2.564-2.427,12.726,12.726,0,0,0,1.553-3.678l2.69-.6s-.73,2.519-.981,3.594a3.321,3.321,0,0,0,.3,1.869A3.523,3.523,0,0,1,1867.882,1588.147Z" transform="translate(-1854.875 -1518.556)" fill="#ffb27d"/>
                <path id="Path_20095" data-name="Path 20095" d="M1856.3,1630.455c-1.447.088-1.006.379-2.986.76s-2.781-.154-2.928-.42c-.13-.236.788-.618,1.766-1.049l.016.016a5.65,5.65,0,0,0,3.006,0c1.309-.37,2.569-1.168,3.471-1.431a3.516,3.516,0,0,1,.258.9C1859,1630.135,1857.748,1630.367,1856.3,1630.455Z" transform="translate(-1845.896 -1559.648)" fill="#233862"/>
                <path id="Path_20096" data-name="Path 20096" d="M1902.1,1309.986c1.257-.883,4.421-1.283,9.02-2.781,1.108-.361,5.372-2.416,5.654-3.546l-2.1-.971,8.739-.742a23.4,23.4,0,0,1,2.248,9.5c.017,2.429-2.131,5.193-2.132,5.194s-13.9.128-14.657.207c-1.242.128-2.881,3.223-3.29,6.042s-7.629,14.283-7.629,14.283a9.048,9.048,0,0,1-2.2.441,2.2,2.2,0,0,1-1.1-.295S1898.836,1312.278,1902.1,1309.986Z" transform="translate(-1884.978 -1271.561)" fill="#f99746"/>
                <path id="Path_20097" data-name="Path 20097" d="M2075.556,1139.22a4.908,4.908,0,0,0,3.033.392,5.449,5.449,0,0,0,2.245-2.21c-.522-.076-1.053-.591-1.2-3.643l-.231.058-3.887.982s.154,1.232.217,2.4C2075.786,1138.173,2075.775,1139.1,2075.556,1139.22Z" transform="translate(-2044.616 -1123.112)" fill="#ffb27d"/>
                <path id="Path_20098" data-name="Path 20098" d="M2075.515,1137.221s0,.254.145,1.4a6.53,6.53,0,0,0,3.852-2.118Z" transform="translate(-2044.616 -1125.533)" fill="#ed975d"/>
                <path id="Path_20099" data-name="Path 20099" d="M2060.816,1079.968s5.141.837,5.613-2.372,1.453-5.262-1.809-5.933-4.081.461-4.5,1.493S2059.491,1079.667,2060.816,1079.968Z" transform="translate(-2030.747 -1068.125)" fill="#ffb27d"/>
                <path id="Path_20100" data-name="Path 20100" d="M2068.406,1067.714s2.335,3.685,4.418,4.558,3.108.43,3.108.43a8.781,8.781,0,0,1-1.2-3.368,1.581,1.581,0,0,0-.976-1.27C2072.266,1067.465,2069.373,1066.52,2068.406,1067.714Z" transform="translate(-2038.341 -1064.31)"/>
                <path id="Path_20101" data-name="Path 20101" d="M2061.656,1067.655a8.141,8.141,0,0,0-1.932,1.359,6.248,6.248,0,0,0-1.127,3.129s-.675-3.7.731-4.979A1.376,1.376,0,0,1,2061.656,1067.655Z" transform="translate(-2029.541 -1063.895)"/>
                <path id="Path_20102" data-name="Path 20102" d="M2020.032,1171.491c.156,10.449-3.695,7.524-2.552,8.516.276.239,1.4,2.017,5.654,2.229,3.207.159,8.989-1.354,9.2-1.946.739-2.049.217-2.685.834-5.822.064-.334.144-.695.237-1.088.514-2.154,1.014-2.887-.81-6.348-1.654-3.135-3.6-5.682-3.753-5.59-4.364,2.59-4.513.419-4.513.419S2019.956,1166.395,2020.032,1171.491Z" transform="translate(-1993.205 -1147.543)" fill="#fff"/>
                <path id="Path_20103" data-name="Path 20103" d="M1992.6,1165.029s-4.466.757-4.993,2.69-6.289,17.163-6.289,17.163,5.2,1.055,6.252,0,3.414-14.292,3.414-14.292Z" transform="translate(-1961.476 -1150.712)" fill="#ff9f55"/>
                <path id="Path_20104" data-name="Path 20104" d="M2053.487,1159.217l.04.682c-.507,1.745-1.751,7.622-2.82,11.794l-.362-6.458.615-.5-.231-.845,2.014-3.822Z" transform="translate(-2022.399 -1145.582)" fill="#e26917"/>
                <path id="Path_20105" data-name="Path 20105" d="M2077.46,1208.58a22.726,22.726,0,0,0,12.347.756l-1.126-6.66-.614-3.631-1.317-7.795-2.251-7.414-1.969-1.192-1.72,8.606Z" transform="translate(-2046.333 -1166.261)" fill="#ff9f55"/>
                <path id="Path_20106" data-name="Path 20106" d="M2118.07,1262.873a4.365,4.365,0,0,1-3.216,4.589c-3.336.866,4.886,1.71,4.886,1.71s2.651-2.035,2.613-2.534S2118.07,1262.873,2118.07,1262.873Z" transform="translate(-2078.636 -1237.074)" fill="#e26917"/>
                <path id="Path_20107" data-name="Path 20107" d="M2096.417,1323.127a24.525,24.525,0,0,0,9,2.906l-.615-3.631Z" transform="translate(-2063.065 -1289.617)" fill="#e26917"/>
                <g id="Group_1780" data-name="Group 1780" transform="translate(28.683 31.404)">
                  <path id="Path_20108" data-name="Path 20108" d="M2064.341,1324.023a6.1,6.1,0,0,1-.556,1.174.648.648,0,0,1-.319.179l.188-.9Z" transform="translate(-2062.665 -1322.452)" fill="#ffb27d"/>
                  <path id="Path_20109" data-name="Path 20109" d="M2058.194,1316.477l-1.561,1.465a.344.344,0,0,0,.341.023,4.582,4.582,0,0,0,.729-.467Z" transform="translate(-2056.633 -1315.792)" fill="#ffb27d"/>
                  <path id="Path_20110" data-name="Path 20110" d="M2063.522,1310.635s-3.227.266-3.631.686a7.427,7.427,0,0,0-1.335,2.151c-.043.386,1-.595,1.372-.827a3.74,3.74,0,0,1,1.37-.118,4.462,4.462,0,0,0,2.369-.484Z" transform="translate(-2058.33 -1310.635)" fill="#ffb27d"/>
                </g>
                <path id="Path_20111" data-name="Path 20111" d="M2097.885,1161.459s4.474.261,5.943,2.311c2.068,2.885,6.171,15.179,3.82,16.818-2.648,1.847-12.052.483-12.052.483a3.819,3.819,0,0,1,.123-2.17c.435-.708,7.511-1.851,7.838-2.177s-4.082-6.368-4.082-7.348S2097.885,1161.459,2097.885,1161.459Z" transform="translate(-2062.244 -1147.561)" fill="#ff9f55"/>
                <path id="Path_20112" data-name="Path 20112" d="M2106.909,1156.563l-.907,11.667,2.075-4.467-.355-.8a12.679,12.679,0,0,0,.759-1.46c0-.153-.216-4.244-.216-4.244Z" transform="translate(-2071.525 -1143.24)" fill="#e26917"/>
              </g>
            </g>
          </g>
        </g>
        <g id="Group_1785" data-name="Group 1785" transform="translate(4.498 19.264)">
          <path id="Path_20113" data-name="Path 20113" d="M1858.714,1219.373h18.135l-3.3-12.187h-18.135Z" transform="translate(-1854.846 -1207.187)" fill="#142d5e"/>
          <path id="Path_20114" data-name="Path 20114" d="M1853.834,1219.373h18.135l-3.295-12.187h-18.135Z" transform="translate(-1850.539 -1207.187)"/>
          <path id="Path_20115" data-name="Path 20115" d="M1924.641,1275.871l3.8.035-2.632-8.024-3.8-.035Z" transform="translate(-1913.622 -1260.728)" fill="#393939"/>
          <rect id="Rectangle_1241" data-name="Rectangle 1241" width="8.305" height="0.383" transform="translate(17.17 15.178) rotate(180)" fill="#142d5e"/>
        </g>
        <rect id="Rectangle_1242" data-name="Rectangle 1242" width="5.955" height="0.797" transform="translate(30.174 34.531) rotate(180)" fill="#233862"/>
      </g>
      <g id="Group_1791" data-name="Group 1791" transform="translate(0 34.442)">
        <g id="Group_1788" data-name="Group 1788" transform="translate(58.712 1.735)">
          <g id="Group_1787" data-name="Group 1787" transform="translate(0.077 0.234)">
            <path id="Path_20116" data-name="Path 20116" d="M2209.65,1388.591a.463.463,0,0,1-.464-.362l-2.275-12.274-3.272-17.653-.915-4.936,2.331-.063.4,2.866,2.839,20.137,1.683,11.936A.319.319,0,0,1,2209.65,1388.591Z" transform="translate(-2202.724 -1353.302)"/>
          </g>
          <path id="Path_20117" data-name="Path 20117" d="M2204.878,1354.408a3.2,3.2,0,0,0-1.82,2.134l-.992-5.234,2.408.234Z" transform="translate(-2202.066 -1351.309)"/>
        </g>
        <g id="Group_1790" data-name="Group 1790" transform="translate(0.973 1.908)">
          <g id="Group_1789" data-name="Group 1789" transform="translate(0 0.061)">
            <path id="Path_20118" data-name="Path 20118" d="M1710.382,1388.47a.462.462,0,0,0,.464-.361l2.275-12.232,3.272-17.592.915-4.919-2.33-.063-.4,2.856-2.839,20.068-1.683,11.9A.318.318,0,0,0,1710.382,1388.47Z" transform="translate(-1710.048 -1353.302)"/>
          </g>
          <path id="Path_20119" data-name="Path 20119" d="M1748.609,1355.7a3.189,3.189,0,0,1,1.82,2.127l1.35-5.043-2.766.061Z" transform="translate(-1744.084 -1352.783)"/>
        </g>
        <path id="Rectangle_1243" data-name="Rectangle 1243" d="M.985,0H67.662a.985.985,0,0,1,.985.985v0a.985.985,0,0,1-.985.985H.985A.985.985,0,0,1,0,.985v0A.985.985,0,0,1,.985,0Z"/>
      </g>
    </g>
    <path id="Path_20120" data-name="Path 20120" d="M867.835,501.537l-30.7-113.89s52.878-34.829,109.939,0l-25.993,113.89Z" transform="translate(-565.873 -209.911)" fill="#f5f9fd"/>
    <path id="Path_20121" data-name="Path 20121" d="M1048.294,566.3s-1.03-17.382,1.1-22.714,23.46-35.545,8.886-54.384-43.365-13.863-55.805-6.4-3.91,22.393-8.886,29.5-9.914,11.226-7.07,12.826,6.752,1.066,6.752,4.442-1.355,4.315.067,6.526-.474,2.132.474,4.028,1.313,1.669.987,2.231-2.133,3.85-1.422,6.338,5.094,3.436,11.018,2.962,9.6-1.066,9.952,2.014.582,12.626.582,12.626S1047.919,566.164,1048.294,566.3Z" transform="translate(-696.99 -301.672)" fill="#ff9f54"/>
    <path id="Path_20122" data-name="Path 20122" d="M1171.7,567.368s17.605-24.011,10.206-40.177S1155.37,507.7,1142.358,509.6s-16.33,8.083-13.523,13.313,3.062,13.076,10.716,17.117,16.277,4.171,17.425,9.52S1162.887,571.637,1171.7,567.368Z" transform="translate(-822.523 -330.789)" fill="#f77d48"/>
    <path id="Path_20123" data-name="Path 20123" d="M1268.254,1234.95c0,.7-7.469,1.268-16.682,1.268s-16.682-.568-16.682-1.268,7.469-1.268,16.682-1.268S1268.254,1234.25,1268.254,1234.95Z" transform="translate(-916.95 -970.325)" fill="#2b2b2b"/>
    <ellipse id="Ellipse_4051" data-name="Ellipse 4051" cx="26.609" cy="2.021" rx="26.609" ry="2.021" transform="translate(301.962 289.606)" fill="#f5f9fd"/>
    <g id="Group_1859" data-name="Group 1859" transform="translate(311.743 183.327)">
      <g id="Group_1796" data-name="Group 1796" transform="translate(7.575 3.504)">
        <g id="Group_1793" data-name="Group 1793" transform="translate(0.397 0.125)">
          <path id="Path_20124" data-name="Path 20124" d="M1282.492,587.542h-13.522l-4.358-4.358h-14.6v-.545h14.822l4.358,4.358h13.3Z" transform="translate(-1250.015 -582.639)" fill="#ebf3fa"/>
        </g>
        <g id="Group_1794" data-name="Group 1794">
          <path id="Path_20125" data-name="Path 20125" d="M1246.631,581.972a.4.4,0,1,1,.4.4A.4.4,0,0,1,1246.631,581.972Z" transform="translate(-1246.631 -581.575)" fill="#ebf3fa"/>
        </g>
        <g id="Group_1795" data-name="Group 1795" transform="translate(32.509 4.39)">
          <path id="Path_20126" data-name="Path 20126" d="M1523.654,619.353a.365.365,0,1,1,.365.365A.365.365,0,0,1,1523.654,619.353Z" transform="translate(-1523.654 -618.988)" fill="#ebf3fa"/>
        </g>
      </g>
      <g id="Group_1800" data-name="Group 1800" transform="translate(7.591 5.27)">
        <g id="Group_1797" data-name="Group 1797" transform="translate(0.397 0.125)">
          <path id="Path_20127" data-name="Path 20127" d="M1282.629,602.589h-13.522l-4.358-4.358h-14.6v-.545h14.822l4.359,4.358h13.3Z" transform="translate(-1250.152 -597.685)" fill="#ebf3fa"/>
        </g>
        <g id="Group_1798" data-name="Group 1798">
          <path id="Path_20128" data-name="Path 20128" d="M1246.768,597.019a.4.4,0,1,1,.4.4A.4.4,0,0,1,1246.768,597.019Z" transform="translate(-1246.768 -596.622)" fill="#ebf3fa"/>
        </g>
        <g id="Group_1799" data-name="Group 1799" transform="translate(32.509 4.39)">
          <path id="Path_20129" data-name="Path 20129" d="M1523.791,634.4a.365.365,0,1,1,.365.365A.365.365,0,0,1,1523.791,634.4Z" transform="translate(-1523.791 -634.034)" fill="#ebf3fa"/>
        </g>
      </g>
      <g id="Group_1804" data-name="Group 1804" transform="translate(7.591 7.1)">
        <g id="Group_1801" data-name="Group 1801" transform="translate(0.397 0.125)">
          <path id="Path_20130" data-name="Path 20130" d="M1282.629,618.185h-13.522l-4.358-4.358h-14.6v-.545h14.822l4.358,4.358h13.3Z" transform="translate(-1250.152 -613.282)" fill="#ebf3fa"/>
        </g>
        <g id="Group_1802" data-name="Group 1802">
          <path id="Path_20131" data-name="Path 20131" d="M1246.768,612.616a.4.4,0,1,1,.4.4A.4.4,0,0,1,1246.768,612.616Z" transform="translate(-1246.768 -612.219)" fill="#ebf3fa"/>
        </g>
        <g id="Group_1803" data-name="Group 1803" transform="translate(32.509 4.39)">
          <path id="Path_20132" data-name="Path 20132" d="M1523.791,650a.365.365,0,1,1,.365.365A.365.365,0,0,1,1523.791,650Z" transform="translate(-1523.791 -649.632)" fill="#ebf3fa"/>
        </g>
      </g>
      <g id="Group_1808" data-name="Group 1808" transform="translate(7.693 13.489)">
        <g id="Group_1805" data-name="Group 1805" transform="translate(0.5 0.125)">
          <path id="Path_20133" data-name="Path 20133" d="M1263.6,679.489h-.545v-9.324l-1.9-1.9H1251.9v-.545h9.479l2.217,2.217Z" transform="translate(-1251.9 -667.723)" fill="#ebf3fa"/>
        </g>
        <g id="Group_1806" data-name="Group 1806">
          <path id="Path_20134" data-name="Path 20134" d="M1248.035,666.658a.4.4,0,1,1-.4.4A.4.4,0,0,1,1248.035,666.658Z" transform="translate(-1247.638 -666.658)" fill="#ebf3fa"/>
        </g>
        <g id="Group_1807" data-name="Group 1807" transform="translate(11.526 11.403)">
          <path id="Path_20135" data-name="Path 20135" d="M1345.858,764.227a.4.4,0,1,1,.4.4A.4.4,0,0,1,1345.858,764.227Z" transform="translate(-1345.858 -763.83)" fill="#ebf3fa"/>
        </g>
      </g>
      <g id="Group_1812" data-name="Group 1812" transform="translate(7.693 11.9)">
        <g id="Group_1809" data-name="Group 1809" transform="translate(0.692 0.125)">
          <path id="Path_20136" data-name="Path 20136" d="M1266.744,669.466h-.545V657.5l-2.777-2.777h-9.884v-.545h10.11l3.1,3.1Z" transform="translate(-1253.538 -654.181)" fill="#ebf3fa"/>
        </g>
        <g id="Group_1810" data-name="Group 1810">
          <path id="Path_20137" data-name="Path 20137" d="M1248.035,653.117a.4.4,0,1,1-.4.4A.4.4,0,0,1,1248.035,653.117Z" transform="translate(-1247.638 -653.117)" fill="#ebf3fa"/>
        </g>
        <g id="Group_1811" data-name="Group 1811" transform="translate(13.229 15.012)">
          <path id="Path_20138" data-name="Path 20138" d="M1360.365,781.441a.4.4,0,1,1,.4.4A.4.4,0,0,1,1360.365,781.441Z" transform="translate(-1360.365 -781.044)" fill="#ebf3fa"/>
        </g>
      </g>
      <g id="Group_1816" data-name="Group 1816" transform="translate(7.693 9.765)">
        <g id="Group_1813" data-name="Group 1813" transform="translate(0.279 0.125)">
          <path id="Path_20139" data-name="Path 20139" d="M1265.723,655.727h-.545v-15.55l-3.64-3.64h-11.523v-.545h11.748l3.959,3.96Z" transform="translate(-1250.015 -635.991)" fill="#ebf3fa"/>
        </g>
        <g id="Group_1814" data-name="Group 1814">
          <path id="Path_20140" data-name="Path 20140" d="M1247.638,635.325a.4.4,0,1,1,.4.4A.4.4,0,0,1,1247.638,635.325Z" transform="translate(-1247.638 -634.928)" fill="#ebf3fa"/>
        </g>
        <g id="Group_1815" data-name="Group 1815" transform="translate(15.291 19.463)">
          <path id="Path_20141" data-name="Path 20141" d="M1378.177,800.815a.4.4,0,1,1-.2.524A.4.4,0,0,1,1378.177,800.815Z" transform="translate(-1377.94 -800.781)" fill="#ebf3fa"/>
        </g>
      </g>
      <g id="Group_1817" data-name="Group 1817" transform="translate(25.452 13.216)">
        <path id="Path_20142" data-name="Path 20142" d="M1399.512,684.4h-.545V665.949l1.611-1.611h13.386v.545H1400.8l-1.292,1.292Z" transform="translate(-1398.967 -664.338)" fill="#ebf3fa"/>
      </g>
      <g id="Group_1818" data-name="Group 1818" transform="translate(27.108 14.825)">
        <path id="Path_20143" data-name="Path 20143" d="M1413.619,698.474h-.545V679.43l1.385-1.385h11.956v.545h-11.731l-1.066,1.066Z" transform="translate(-1413.074 -678.045)" fill="#ebf3fa"/>
      </g>
      <g id="Group_1819" data-name="Group 1819" transform="translate(29.151 16.936)">
        <path id="Path_20144" data-name="Path 20144" d="M1430.892,714.351h-.408V696.033h11.3v.409h-10.89Z" transform="translate(-1430.483 -696.033)" fill="#ebf3fa"/>
      </g>
      <g id="Group_1820" data-name="Group 1820" transform="translate(40.052 13.092)">
        <path id="Path_20145" data-name="Path 20145" d="M1523.379,663.67a.4.4,0,1,1,.4.4A.4.4,0,0,1,1523.379,663.67Z" transform="translate(-1523.379 -663.273)" fill="#ebf3fa"/>
      </g>
      <g id="Group_1821" data-name="Group 1821" transform="translate(40.052 14.7)">
        <path id="Path_20146" data-name="Path 20146" d="M1523.776,676.98a.4.4,0,1,1-.4.4A.4.4,0,0,1,1523.776,676.98Z" transform="translate(-1523.379 -676.98)" fill="#ebf3fa"/>
      </g>
      <g id="Group_1822" data-name="Group 1822" transform="translate(40.052 16.743)">
        <path id="Path_20147" data-name="Path 20147" d="M1523.776,694.389a.4.4,0,1,1-.4.4A.4.4,0,0,1,1523.776,694.389Z" transform="translate(-1523.379 -694.389)" fill="#ebf3fa"/>
      </g>
      <g id="Group_1823" data-name="Group 1823" transform="translate(28.958 34.857)">
        <path id="Path_20148" data-name="Path 20148" d="M1428.839,849.142a.4.4,0,1,1,.4.4A.4.4,0,0,1,1428.839,849.142Z" transform="translate(-1428.839 -848.745)" fill="#ebf3fa"/>
      </g>
      <g id="Group_1824" data-name="Group 1824" transform="translate(26.983 34.857)">
        <path id="Path_20149" data-name="Path 20149" d="M1412.012,849.142a.4.4,0,1,1,.4.4A.4.4,0,0,1,1412.012,849.142Z" transform="translate(-1412.012 -848.745)" fill="#ebf3fa"/>
      </g>
      <g id="Group_1825" data-name="Group 1825" transform="translate(25.327 32.882)">
        <path id="Path_20150" data-name="Path 20150" d="M1397.9,832.313a.4.4,0,1,1,.4.4A.4.4,0,0,1,1397.9,832.313Z" transform="translate(-1397.904 -831.916)" fill="#ebf3fa"/>
      </g>
      <g id="Group_1826" data-name="Group 1826" transform="translate(31.342 19.361)">
        <path id="Path_20151" data-name="Path 20151" d="M1462.472,731.01h-.545v-9.6l-4.174-4.174h-8.6v-.545h8.823l4.493,4.493Z" transform="translate(-1449.156 -716.694)" fill="#ebf3fa"/>
      </g>
      <g id="Group_1827" data-name="Group 1827" transform="translate(31.342 21.414)">
        <path id="Path_20152" data-name="Path 20152" d="M1460.231,751.216h-.545v-13.3l-3.179-3.179h-7.351v-.545h7.577l3.5,3.5Z" transform="translate(-1449.156 -734.193)" fill="#ebf3fa"/>
      </g>
      <g id="Group_1828" data-name="Group 1828" transform="translate(31.342 23.112)">
        <path id="Path_20153" data-name="Path 20153" d="M1458.395,763.984h-.545v-12.5l-2.284-2.284h-6.409v-.545h6.635l2.6,2.6Z" transform="translate(-1449.156 -748.659)" fill="#ebf3fa"/>
      </g>
      <g id="Group_1829" data-name="Group 1829" transform="translate(31.503 25.414)">
        <path id="Path_20154" data-name="Path 20154" d="M1457.417,784.234h-.545v-14.2l-1.212-1.212h-4.582V781.3h-.545V768.279h5.353l1.531,1.531Z" transform="translate(-1450.533 -768.279)" fill="#ebf3fa"/>
      </g>
      <g id="Group_1830" data-name="Group 1830" transform="translate(33.642 27.037)">
        <path id="Path_20155" data-name="Path 20155" d="M1471.213,796.806h-.545V782.653H1469.3V796.44h-.545V782.108h2.455Z" transform="translate(-1468.758 -782.108)" fill="#ebf3fa"/>
      </g>
      <g id="Group_1831" data-name="Group 1831" transform="translate(5.045 17.856)">
        <path id="Path_20156" data-name="Path 20156" d="M1237.129,710.908h-.545v-6.491h-11.516v-.545h12.06Z" transform="translate(-1225.068 -703.872)" fill="#ebf3fa"/>
      </g>
      <g id="Group_1832" data-name="Group 1832" transform="translate(5.978 19.895)">
        <path id="Path_20157" data-name="Path 20157" d="M1241.817,725.494h-.545v-3.7h-8.255v-.545h8.8Z" transform="translate(-1233.018 -721.251)" fill="#ebf3fa"/>
      </g>
      <g id="Group_1833" data-name="Group 1833" transform="translate(9.428 21.881)">
        <path id="Path_20158" data-name="Path 20158" d="M1265.748,740.427h-.545v-1.713h-2.787v-.545h3.332Z" transform="translate(-1262.416 -738.169)" fill="#ebf3fa"/>
      </g>
      <g id="Group_1834" data-name="Group 1834" transform="translate(0.77 1.421)">
        <path id="Path_20159" data-name="Path 20159" d="M1192.317,578.607h-3.673v-.545h3.448l1.488-1.487V563.825h.545V576.8Z" transform="translate(-1188.644 -563.825)" fill="#ebf3fa"/>
      </g>
      <g id="Group_1835" data-name="Group 1835" transform="translate(0.38 1.682)">
        <path id="Path_20160" data-name="Path 20160" d="M1188.843,578.521h-3.527v-.545h2.982V566.044h.545Z" transform="translate(-1185.315 -566.044)" fill="#ebf3fa"/>
      </g>
      <g id="Group_1836" data-name="Group 1836" transform="translate(0.823 2.658)">
        <rect id="Rectangle_1244" data-name="Rectangle 1244" width="0.545" height="9.242" fill="#ebf3fa"/>
      </g>
      <g id="Group_1837" data-name="Group 1837" transform="translate(7.972 1.149)">
        <path id="Path_20161" data-name="Path 20161" d="M1276.4,565.63h-7.078l-3.58-3.58h-15.728V561.5h15.953l3.58,3.58h6.852Z" transform="translate(-1250.015 -561.505)" fill="#ebf3fa"/>
      </g>
      <g id="Group_1838" data-name="Group 1838" transform="translate(26.81 0.187)">
        <path id="Path_20162" data-name="Path 20162" d="M1416.263,555.532h-3.888l-1.837-1.837.385-.385,1.678,1.678h3.662Z" transform="translate(-1410.537 -553.31)" fill="#ebf3fa"/>
      </g>
      <g id="Group_1839" data-name="Group 1839" transform="translate(21.522 9.041)">
        <rect id="Rectangle_1245" data-name="Rectangle 1245" width="0.545" height="4.294" transform="matrix(0.714, -0.7, 0.7, 0.714, 0, 0.382)" fill="#ebf3fa"/>
      </g>
      <g id="Group_1840" data-name="Group 1840" transform="translate(26.623 0)">
        <path id="Path_20163" data-name="Path 20163" d="M1408.943,552.095a.38.38,0,1,1,.38.38A.38.38,0,0,1,1408.943,552.095Z" transform="translate(-1408.943 -551.715)" fill="#ebf3fa"/>
      </g>
      <g id="Group_1841" data-name="Group 1841" transform="translate(32.156 1.757)">
        <path id="Path_20164" data-name="Path 20164" d="M1456.091,567.071a.38.38,0,1,1,.38.38A.38.38,0,0,1,1456.091,567.071Z" transform="translate(-1456.091 -566.691)" fill="#ebf3fa"/>
      </g>
      <g id="Group_1842" data-name="Group 1842" transform="translate(21.431 8.867)">
        <path id="Path_20165" data-name="Path 20165" d="M1364.7,627.658a.38.38,0,1,1,.38.38A.38.38,0,0,1,1364.7,627.658Z" transform="translate(-1364.699 -627.278)" fill="#ebf3fa"/>
      </g>
      <g id="Group_1843" data-name="Group 1843" transform="translate(24.345 11.917)">
        <path id="Path_20166" data-name="Path 20166" d="M1389.529,653.647a.38.38,0,1,1,.38.38A.38.38,0,0,1,1389.529,653.647Z" transform="translate(-1389.529 -653.267)" fill="#ebf3fa"/>
      </g>
      <g id="Group_1844" data-name="Group 1844" transform="translate(5.598 1.041)">
        <path id="Path_20167" data-name="Path 20167" d="M1229.782,560.97a.38.38,0,1,1,.38.38A.38.38,0,0,1,1229.782,560.97Z" transform="translate(-1229.782 -560.59)" fill="#ebf3fa"/>
      </g>
      <g id="Group_1845" data-name="Group 1845" transform="translate(0.391 15.551)">
        <path id="Path_20168" data-name="Path 20168" d="M1185.41,684.573a.38.38,0,1,1,.344.413A.38.38,0,0,1,1185.41,684.573Z" transform="translate(-1185.408 -684.228)" fill="#ebf3fa"/>
      </g>
      <g id="Group_1846" data-name="Group 1846" transform="translate(0 13.506)">
        <path id="Path_20169" data-name="Path 20169" d="M1182.08,667.188a.38.38,0,1,1,.38.38A.38.38,0,0,1,1182.08,667.188Z" transform="translate(-1182.08 -666.808)" fill="#ebf3fa"/>
      </g>
      <g id="Group_1847" data-name="Group 1847" transform="translate(3.255 1.378)">
        <path id="Path_20170" data-name="Path 20170" d="M1209.815,563.835a.38.38,0,1,1,.38.38A.38.38,0,0,1,1209.815,563.835Z" transform="translate(-1209.815 -563.455)" fill="#ebf3fa"/>
      </g>
      <g id="Group_1848" data-name="Group 1848" transform="translate(0.716 2.278)">
        <path id="Path_20171" data-name="Path 20171" d="M1188.182,571.509a.38.38,0,1,1,.38.38A.38.38,0,0,1,1188.182,571.509Z" transform="translate(-1188.182 -571.129)" fill="#ebf3fa"/>
      </g>
      <g id="Group_1849" data-name="Group 1849" transform="translate(0.716 11.476)">
        <path id="Path_20172" data-name="Path 20172" d="M1188.182,649.886a.38.38,0,1,1,.38.38A.38.38,0,0,1,1188.182,649.886Z" transform="translate(-1188.182 -649.506)" fill="#ebf3fa"/>
      </g>
      <g id="Group_1850" data-name="Group 1850" transform="translate(9.149 21.773)">
        <path id="Path_20173" data-name="Path 20173" d="M1260.041,737.634a.38.38,0,1,1,.38.38A.38.38,0,0,1,1260.041,737.634Z" transform="translate(-1260.041 -737.254)" fill="#ebf3fa"/>
      </g>
      <g id="Group_1851" data-name="Group 1851" transform="translate(12.107 23.629)">
        <path id="Path_20174" data-name="Path 20174" d="M1285.25,753.444a.38.38,0,1,1,.38.38A.38.38,0,0,1,1285.25,753.444Z" transform="translate(-1285.25 -753.064)" fill="#ebf3fa"/>
      </g>
      <g id="Group_1852" data-name="Group 1852" transform="translate(5.679 19.788)">
        <path id="Path_20175" data-name="Path 20175" d="M1230.476,720.717a.38.38,0,1,1,.38.38A.38.38,0,0,1,1230.476,720.717Z" transform="translate(-1230.476 -720.337)" fill="#ebf3fa"/>
      </g>
      <g id="Group_1853" data-name="Group 1853" transform="translate(14.125 23.759)">
        <path id="Path_20176" data-name="Path 20176" d="M1302.445,754.552a.38.38,0,1,1,.38.38A.38.38,0,0,1,1302.445,754.552Z" transform="translate(-1302.445 -754.172)" fill="#ebf3fa"/>
      </g>
      <g id="Group_1854" data-name="Group 1854" transform="translate(16.453 24.388)">
        <path id="Path_20177" data-name="Path 20177" d="M1322.284,759.913a.38.38,0,1,1,.38.38A.38.38,0,0,1,1322.284,759.913Z" transform="translate(-1322.284 -759.533)" fill="#ebf3fa"/>
      </g>
      <g id="Group_1855" data-name="Group 1855" transform="translate(4.665 17.748)">
        <path id="Path_20178" data-name="Path 20178" d="M1221.832,703.337a.38.38,0,1,1,.38.38A.38.38,0,0,1,1221.832,703.337Z" transform="translate(-1221.832 -702.957)" fill="#ebf3fa"/>
      </g>
      <g id="Group_1856" data-name="Group 1856" transform="translate(6.737 15.658)">
        <rect id="Rectangle_1246" data-name="Rectangle 1246" width="9.2" height="0.545" fill="#ebf3fa"/>
      </g>
      <g id="Group_1857" data-name="Group 1857" transform="translate(15.562 15.551)">
        <path id="Path_20179" data-name="Path 20179" d="M1314.688,684.609a.38.38,0,1,1,.38.38A.38.38,0,0,1,1314.688,684.609Z" transform="translate(-1314.688 -684.229)" fill="#ebf3fa"/>
      </g>
      <g id="Group_1858" data-name="Group 1858" transform="translate(6.357 15.551)">
        <path id="Path_20180" data-name="Path 20180" d="M1236.254,684.609a.38.38,0,1,1,.38.38A.38.38,0,0,1,1236.254,684.609Z" transform="translate(-1236.254 -684.229)" fill="#ebf3fa"/>
      </g>
    </g>
    <path id="Rectangle_1247" data-name="Rectangle 1247" d="M.4,0H260.772a.4.4,0,0,1,.4.4v0a.4.4,0,0,1-.4.4H.4A.4.4,0,0,1,0,.4v0A.4.4,0,0,1,.4,0Z" transform="translate(207.323 312.416)" fill="#2e3552"/>
    <path id="Path_20181" data-name="Path 20181" d="M1973.412,807.545l1.682-.106a.374.374,0,0,1,.343.186q.134.233.289.457a6.274,6.274,0,0,0,.626.773.369.369,0,0,1,.071.41l-.723,1.606a.362.362,0,0,0,.155.467l1.406.785a.358.358,0,0,0,.465-.1l.939-1.322a.359.359,0,0,1,.409-.135,6.525,6.525,0,0,0,2.031.3.371.371,0,0,1,.358.275l.249.955a.375.375,0,0,0,.413.274l1.581-.239a.331.331,0,0,0,.092-.026.359.359,0,0,0,.218-.357l-.077-1.257-.019-.306a6.446,6.446,0,0,0,.784-.464,6.534,6.534,0,0,0,.932-.78.359.359,0,0,1,.405-.077l1.293.584a.373.373,0,0,0,.479-.159l.6-1.075.172-.309a.377.377,0,0,0-.11-.492l-1.1-.786a.359.359,0,0,1-.141-.4,6.49,6.49,0,0,0,.242-1.361c.006-.04.007-.077.009-.116a.188.188,0,0,1,0-.039.368.368,0,0,1,.275-.3l1.55-.407a.261.261,0,0,0,.051-.017.374.374,0,0,0,.221-.394l-.236-1.577a.372.372,0,0,0-.391-.316l-1.755.111a.36.36,0,0,1-.351-.207,6.553,6.553,0,0,0-.5-.863q-.154-.222-.323-.428a.379.379,0,0,1-.052-.4l.694-1.544a.361.361,0,0,0-.153-.464l-1.392-.775a.378.378,0,0,0-.494.111l-.743,1.046a.371.371,0,0,1-.439.131,6.5,6.5,0,0,0-1.951-.451.369.369,0,0,1-.334-.277l-.366-1.4a.382.382,0,0,0-.424-.28l-1.571.234a.365.365,0,0,0-.311.385l0,.073.09,1.46a.372.372,0,0,1-.22.364h0a6.451,6.451,0,0,0-1,.565c-.171.118-.332.243-.49.374a.366.366,0,0,1-.388.056l-1.313-.593a.379.379,0,0,0-.487.16l-.773,1.386a.417.417,0,0,0-.042.123.377.377,0,0,0,.151.361l.884.625a.376.376,0,0,1,.154.336.411.411,0,0,1-.024.1,6.471,6.471,0,0,0-.454,2.519.364.364,0,0,1-.213.339.37.37,0,0,1-.059.021l-1.255.329a.371.371,0,0,0-.272.412l.005.037.229,1.537A.377.377,0,0,0,1973.412,807.545Zm10.939-4.22a4.347,4.347,0,0,1,.189.784,3.4,3.4,0,0,1-.333,1.824c-.028.05-.056.1-.085.148a3.517,3.517,0,0,1-6.38-2.919,2.284,2.284,0,0,1,.144-.31,4,4,0,0,1,.853-1.059A3.492,3.492,0,0,1,1984.351,803.325Z" transform="translate(-1568.245 -584.019)" fill="#ff9f55"/>
    <g id="Group_1861" data-name="Group 1861" transform="translate(358.774 236.038)">
      <path id="Rectangle_1248" data-name="Rectangle 1248" d="M13.954,0h0A13.954,13.954,0,0,1,27.909,13.954v.7A13.954,13.954,0,0,1,13.955,28.608h0A13.955,13.955,0,0,1,0,14.654v-.7A13.954,13.954,0,0,1,13.954,0Z" fill="#fff"/>
      <g id="Group_1860" data-name="Group 1860" transform="translate(5.527 4.281)">
        <path id="Path_20182" data-name="Path 20182" d="M1646.794,1051.463a8.428,8.428,0,1,1-8.428-8.428,8.343,8.343,0,0,1,1.55.143c-1.052,3.833-2.448,8.911-2.542,9.227.173-.274,5.3-2.571,8.8-4.12A8.377,8.377,0,0,1,1646.794,1051.463Z" transform="translate(-1629.939 -1042.369)" fill="#f77d48"/>
        <path id="Path_20183" data-name="Path 20183" d="M1709.286,1042.36c-3.091,1.362-8.211,3.644-8.375,3.9.089-.3,1.5-5.449,2.454-8.9A9.257,9.257,0,0,1,1709.286,1042.36Z" transform="translate(-1692.582 -1037.363)" fill="#f78248"/>
      </g>
    </g>
    <g id="Group_1874" data-name="Group 1874" transform="translate(254.391 191.895)">
      <path id="Rectangle_1249" data-name="Rectangle 1249" d="M10.565,0H25.229A10.565,10.565,0,0,1,35.794,10.565v0A10.564,10.564,0,0,1,25.229,21.13H10.565A10.565,10.565,0,0,1,0,10.565v0A10.565,10.565,0,0,1,10.565,0Z" transform="translate(0 0)" fill="#aecabb"/>
      <g id="Group_1864" data-name="Group 1864" transform="translate(2.978 13.185)">
        <g id="Group_1862" data-name="Group 1862">
          <path id="Path_20184" data-name="Path 20184" d="M731.971,741.291H718.737V737.08h13.234Zm-13.072-.162h12.91v-3.886H718.9Z" transform="translate(-718.737 -737.08)" fill="#fff"/>
        </g>
        <g id="Group_1863" data-name="Group 1863" transform="translate(0.959 1.132)">
          <rect id="Rectangle_1250" data-name="Rectangle 1250" width="5.119" height="0.334" fill="#fff"/>
          <rect id="Rectangle_1251" data-name="Rectangle 1251" width="3.633" height="0.334" transform="translate(5.658)" fill="#fff"/>
          <rect id="Rectangle_1252" data-name="Rectangle 1252" width="2.825" height="0.334" transform="translate(0 0.953)" fill="#fff"/>
          <rect id="Rectangle_1253" data-name="Rectangle 1253" width="3.632" height="0.334" transform="translate(3.303 0.953)" fill="#fff"/>
          <rect id="Rectangle_1254" data-name="Rectangle 1254" width="3.632" height="0.334" transform="translate(7.312 0.953)" fill="#fff"/>
        </g>
      </g>
      <g id="Group_1867" data-name="Group 1867" transform="translate(18.759 13.185)">
        <g id="Group_1865" data-name="Group 1865">
          <path id="Path_20185" data-name="Path 20185" d="M866.447,741.291H853.213V737.08h13.234Zm-13.072-.162h12.909v-3.886H853.375Z" transform="translate(-853.213 -737.08)" fill="#fff"/>
        </g>
        <g id="Group_1866" data-name="Group 1866" transform="translate(0.959 1.132)">
          <rect id="Rectangle_1255" data-name="Rectangle 1255" width="5.119" height="0.334" fill="#fff"/>
          <rect id="Rectangle_1256" data-name="Rectangle 1256" width="3.632" height="0.334" transform="translate(5.658)" fill="#fff"/>
          <rect id="Rectangle_1257" data-name="Rectangle 1257" width="2.825" height="0.334" transform="translate(0 0.953)" fill="#fff"/>
          <rect id="Rectangle_1258" data-name="Rectangle 1258" width="3.632" height="0.334" transform="translate(3.303 0.953)" fill="#fff"/>
          <rect id="Rectangle_1259" data-name="Rectangle 1259" width="3.632" height="0.334" transform="translate(7.312 0.953)" fill="#fff"/>
        </g>
      </g>
      <g id="Group_1870" data-name="Group 1870" transform="translate(2.978 9.095)">
        <g id="Group_1869" data-name="Group 1869">
          <g id="Group_1868" data-name="Group 1868">
            <path id="Path_20186" data-name="Path 20186" d="M748.575,704.646H718.737v-2.42h29.838Zm-29.554-.283h29.271v-1.853H719.02Z" transform="translate(-718.737 -702.226)" fill="#fff"/>
          </g>
          <rect id="Rectangle_1260" data-name="Rectangle 1260" width="23.16" height="2.137" transform="translate(0.142 0.142)" fill="#fff"/>
        </g>
      </g>
      <g id="Group_1873" data-name="Group 1873" transform="translate(2.978 4.284)">
        <g id="Group_1872" data-name="Group 1872">
          <g id="Group_1871" data-name="Group 1871">
            <path id="Path_20187" data-name="Path 20187" d="M748.575,663.651H718.737v-2.42h29.838Zm-29.554-.283h29.271v-1.853H719.02Z" transform="translate(-718.737 -661.231)" fill="#c0d4ff"/>
          </g>
          <rect id="Rectangle_1261" data-name="Rectangle 1261" width="15.515" height="2.42" transform="translate(0 0)" fill="#f99746"/>
        </g>
      </g>
    </g>
    <g id="Group_1881" data-name="Group 1881" transform="translate(268.803 228.484)">
      <path id="Path_20188" data-name="Path 20188" d="M888.313,1288.646l-1.537.545s-6.675-8.819-7.5-16.578a11.241,11.241,0,0,1,.22-3.967s-.065-.355-.179-.982c-.053-.293-.118-.646-.192-1.049-.217-1.184-.516-2.8-.857-4.65-.785-4.247-1.8-9.675-2.593-13.665l.414-.127,4.48-1.377.926-2.8,3.336-.837s.745,1.389,1.411,7.949c.123.86.235,1.809.319,2.839a53.521,53.521,0,0,1-.317,11.491q-.23,1.71-.586,3.527a14.989,14.989,0,0,0-.128,3.483C885.869,1278.789,888.313,1288.646,888.313,1288.646Z" transform="translate(-868.694 -1207.173)" fill="#f99746"/>
      <path id="Path_20189" data-name="Path 20189" d="M886.564,1253.946l-7.244,13.719c-.053-.293-.118-.646-.192-1.049-.217-1.184-.516-2.8-.857-4.65-.785-4.247-1.8-9.675-2.593-13.665l.414-.127,4.48-1.377.926-2.8,3.336-.837s.745,1.389,1.411,7.949C886.368,1251.968,886.48,1252.917,886.564,1253.946Z" transform="translate(-868.694 -1207.173)" fill="#ed7d2b"/>
      <path id="Path_20190" data-name="Path 20190" d="M833.016,1232.916l-.168-1.37c-2.81.711-10.317-1.986-10.317-1.986s-2.722,2.279-2.364,7.742c.174,2.667.493,14,.826,17.351.12,1.215.226,2.08.269,2.426a.006.006,0,0,1,0,0,.461.461,0,0,1-.082.3,15.428,15.428,0,0,0-1.228,2.461c-3.266,8.291.5,18.5.5,18.5l.978-.375s2.145-11.363,3.888-16.383a9.683,9.683,0,0,1,.839-1.921,21.069,21.069,0,0,0,2.1-5.333,125.6,125.6,0,0,0,2.824-14.147C831.174,1240.186,833.016,1232.916,833.016,1232.916Z" transform="translate(-818.334 -1195.171)" fill="#f99746"/>
      <path id="Path_20191" data-name="Path 20191" d="M824.179,1620.466h-7.74a3.867,3.867,0,0,1,.219-1.976c.387-.818.994-1.19.849-2.18a2.859,2.859,0,0,0,2.412.879,8.148,8.148,0,0,0,1.343,1.658C821.768,1619.194,824.024,1619.071,824.179,1620.466Z" transform="translate(-816.37 -1536.535)" fill="#1d4677"/>
      <path id="Path_20192" data-name="Path 20192" d="M965.5,1622.954h-7.74a2.93,2.93,0,0,1,.219-1.976,1.368,1.368,0,0,0-.056-1.7,3.142,3.142,0,0,0,1.3.234,2.817,2.817,0,0,0,1.151-.386,27.138,27.138,0,0,0,2.205,2.207C963.088,1621.682,965.343,1621.559,965.5,1622.954Z" transform="translate(-941.071 -1539.023)" fill="#1d4677"/>
      <path id="Path_20193" data-name="Path 20193" d="M922.727,938.977c-.008-.2-.17-2.349-3.607-2.461,0,0,1.69.192,1.982.9a2.855,2.855,0,0,0-2.088-.593c-.937.281-1.488,1.845-1.493,2.36s.515,2.173,1.11,2.314a1.9,1.9,0,0,0,.72,0,7.624,7.624,0,0,0-.462.785c-1.371,2.682.043,5.3,1.2,5.013.745-.186.956,1.025.956,1.025l7.235-5.579S925.627,937.5,922.727,938.977Z" transform="translate(-905.627 -936.516)"/>
      <path id="Path_20194" data-name="Path 20194" d="M931.024,1042.364c-4.83.252-3.769-6.607-3.474-6.572.591-.294,1.652-1.722,2.266-4.111l.208.092,3.485,1.561s-.37,1.08-.644,2.114a4.024,4.024,0,0,0-.238,1.81c.275.106.439.173.439.173a.008.008,0,0,0,0,0C933.1,1037.519,932.312,1042.3,931.024,1042.364Z" transform="translate(-914.209 -1020.513)" fill="#ffb27d"/>
      <path id="Path_20195" data-name="Path 20195" d="M820.226,1076.266c.416-1.286.846-2.52,1.282-3.658a48.76,48.76,0,0,1,2.155-4.987c1.016-1.991,5.56-1.866,5.56-1.866a10.6,10.6,0,0,0,3.28,4.877c1.282-.717,2.237-3.239,2.237-3.239a8.831,8.831,0,0,1,4.432,3.99c1.377,2.992,2.953,7.467,4.221,8.807a9.74,9.74,0,0,0,2.21,1.287h0c.023.032.04.049.051.049a9.776,9.776,0,0,1-.867,1.549,4.33,4.33,0,0,1-1.549,1.453c-.478-.22-1.339-.543-1.7-.757-1.321-.769-3.205-2.949-4.744-5.286l-.513,6.567-.777,9.942c-1.194.354-2.33.63-3.408.842a11.6,11.6,0,0,0-.354-1.83,5.183,5.183,0,0,1-1.01,2.068c-9.912,1.513-14.558-2.606-14.558-2.606A103.977,103.977,0,0,1,820.226,1076.266Z" transform="translate(-816.171 -1050.587)" fill="#fff"/>
      <path id="Path_20196" data-name="Path 20196" d="M999.882,1178.126a4.33,4.33,0,0,1-1.549,1.453c-.478-.22-1.339-.543-1.7-.757-1.321-.769-3.205-2.949-4.744-5.286.057-.735,4.095,3.039,4.608,3.723C996.878,1177.774,998.876,1178.031,999.882,1178.126Z" transform="translate(-971.264 -1145.638)" fill="#bcbcbc"/>
      <path id="Path_20197" data-name="Path 20197" d="M954.418,1034.031s-.371,1.079-.644,2.114c-2.037-.542-2.656-2.582-2.842-3.675Z" transform="translate(-935.118 -1021.21)" fill="#ed985f"/>
      <path id="Path_20198" data-name="Path 20198" d="M952.676,992s-4.874-1.075-4.125-3.956.625-4.96,3.769-4.4,3.46,1.806,3.456,2.825S953.964,992.2,952.676,992Z" transform="translate(-932.947 -978.032)" fill="#ffb27d"/>
      <path id="Path_20199" data-name="Path 20199" d="M946.834,980.885c-.524-1.044-1.141-.988-1.526-.8a3.628,3.628,0,0,0-4.537-.37,5.825,5.825,0,0,1-2.739,2.8s.749.73,2.919.714a3.681,3.681,0,0,0,1.936-.695,11.669,11.669,0,0,1-2.542,1.806c2.717-.5,4.538-3.491,4.725-3.809a3.644,3.644,0,0,1,.707,1.595c.05.791-.235,2.326.24,2.385C946.018,984.51,947.62,982.451,946.834,980.885Z" transform="translate(-923.731 -974.083)"/>
      <path id="Path_20200" data-name="Path 20200" d="M928.4,1061.035s-.825.053-1,.555c0,0,1.076,4.126,3.28,4.877Z" transform="translate(-914.346 -1046.422)" fill="#bcbcbc"/>
      <path id="Path_20201" data-name="Path 20201" d="M955.346,1079.14s1.815-3.123,2.048-3.747c0,0,.849.315.8.817C958.191,1076.21,956.418,1078.915,955.346,1079.14Z" transform="translate(-939.014 -1059.095)" fill="#bcbcbc"/>
      <path id="Path_20202" data-name="Path 20202" d="M1027.947,1229.2a13.737,13.737,0,0,0,1.505-.865c.412-.317.471-.068.356.147a1.808,1.808,0,0,1-.766.748C1028.583,1229.508,1027.825,1229.416,1027.947,1229.2Z" transform="translate(-1003.083 -1193.959)" fill="#ffb27d"/>
      <path id="Path_20203" data-name="Path 20203" d="M907.248,1094.816c.06.2,7.48,11.481,7.642,13.728s-3.12.977-3.172.684S907.248,1094.816,907.248,1094.816Z" transform="translate(-896.56 -1076.239)" fill="#bcbcbc"/>
      <path id="Path_20204" data-name="Path 20204" d="M897.442,1122.587l-.777,9.942c-10.615-2.913-11.2-24.25-11.2-24.25l6.561,11.282,5.357,2.95S897.405,1122.537,897.442,1122.587Z" transform="translate(-877.335 -1088.122)" fill="#bcbcbc"/>
      <path id="Path_20205" data-name="Path 20205" d="M1067.437,1199.9c0,.011-.008.018-.016.018l.009-.021C1067.439,1199.877,1067.442,1199.877,1067.437,1199.9Z" transform="translate(-1037.936 -1168.975)" fill="#abddda"/>
      <g id="Group_1879" data-name="Group 1879" transform="translate(25.814 27.804)">
        <g id="Group_1875" data-name="Group 1875">
          <path id="Rectangle_1262" data-name="Rectangle 1262" d="M9.911,0H34.277a9.911,9.911,0,0,1,9.911,9.911v0a9.911,9.911,0,0,1-9.911,9.911H9.911A9.911,9.911,0,0,1,0,9.911v0A9.911,9.911,0,0,1,9.911,0Z" fill="#fff"/>
        </g>
        <g id="Group_1876" data-name="Group 1876" transform="translate(7.78 3.497)">
          <path id="Path_20206" data-name="Path 20206" d="M1102.911,1204.109l-.373.121-.1-.51.615-.243h.321v2.851h-.465Z" transform="translate(-1102.44 -1203.45)" fill="#bdd1f9"/>
          <path id="Path_20207" data-name="Path 20207" d="M1119.431,1204.7c0-.821.385-1.464.954-1.464s.948.635.948,1.464-.382,1.464-.954,1.464S1119.431,1205.531,1119.431,1204.7Zm1.419,0c0-.514-.189-.9-.471-.9s-.465.376-.465.9.187.9.471.9S1120.85,1205.224,1120.85,1204.7Z" transform="translate(-1117.437 -1203.238)" fill="#bdd1f9"/>
          <path id="Path_20208" data-name="Path 20208" d="M1143.665,1204.7c0-.821.385-1.464.954-1.464s.948.635.948,1.464-.382,1.464-.954,1.464S1143.665,1205.531,1143.665,1204.7Zm1.419,0c0-.514-.19-.9-.471-.9s-.465.376-.465.9.186.9.471.9S1145.084,1205.224,1145.084,1204.7Z" transform="translate(-1138.827 -1203.238)" fill="#f77d48"/>
          <path id="Path_20209" data-name="Path 20209" d="M1167.458,1204.109l-.373.121-.1-.51.615-.243h.321v2.851h-.465Z" transform="translate(-1159.412 -1203.45)" fill="#f77d48"/>
          <path id="Path_20210" data-name="Path 20210" d="M1277.78,1204.109l-.373.121-.1-.51.615-.243h.321v2.851h-.465Z" transform="translate(-1256.788 -1203.45)" fill="#bdd1f9"/>
          <path id="Path_20211" data-name="Path 20211" d="M1294.3,1204.7c0-.821.385-1.464.954-1.464s.948.635.948,1.464-.382,1.464-.954,1.464S1294.3,1205.531,1294.3,1204.7Zm1.419,0c0-.514-.19-.9-.471-.9s-.465.376-.465.9.187.9.471.9S1295.717,1205.224,1295.717,1204.7Z" transform="translate(-1271.783 -1203.238)" fill="#bdd1f9"/>
          <path id="Path_20212" data-name="Path 20212" d="M1318.532,1204.7c0-.821.385-1.464.954-1.464s.948.635.948,1.464-.382,1.464-.954,1.464S1318.532,1205.531,1318.532,1204.7Zm1.419,0c0-.514-.19-.9-.471-.9s-.465.376-.465.9.187.9.471.9S1319.951,1205.224,1319.951,1204.7Z" transform="translate(-1293.173 -1203.238)" fill="#f77d48"/>
          <path id="Path_20213" data-name="Path 20213" d="M1342.326,1204.109l-.373.121-.1-.51.615-.243h.321v2.851h-.465Z" transform="translate(-1313.759 -1203.45)" fill="#f77d48"/>
          <path id="Path_20214" data-name="Path 20214" d="M1183.979,1204.7c0-.821.385-1.464.954-1.464s.948.635.948,1.464-.382,1.464-.954,1.464S1183.979,1205.531,1183.979,1204.7Zm1.419,0c0-.514-.19-.9-.471-.9s-.465.376-.465.9.187.9.471.9S1185.4,1205.224,1185.4,1204.7Z" transform="translate(-1174.41 -1203.238)" fill="#bdd1f9"/>
          <path id="Path_20215" data-name="Path 20215" d="M1208.213,1204.7c0-.821.385-1.464.954-1.464s.948.635.948,1.464-.382,1.464-.954,1.464S1208.213,1205.531,1208.213,1204.7Zm1.419,0c0-.514-.19-.9-.471-.9s-.465.376-.465.9.187.9.471.9S1209.632,1205.224,1209.632,1204.7Z" transform="translate(-1195.8 -1203.238)" fill="#bdd1f9"/>
          <path id="Path_20216" data-name="Path 20216" d="M1232.448,1204.7c0-.821.385-1.464.954-1.464s.948.635.948,1.464-.382,1.464-.954,1.464S1232.448,1205.531,1232.448,1204.7Zm1.419,0c0-.514-.19-.9-.471-.9s-.465.376-.465.9.187.9.471.9S1233.867,1205.224,1233.867,1204.7Z" transform="translate(-1217.191 -1203.238)" fill="#bdd1f9"/>
          <path id="Path_20217" data-name="Path 20217" d="M1256.683,1204.7c0-.821.385-1.464.954-1.464s.948.635.948,1.464-.382,1.464-.954,1.464S1256.683,1205.531,1256.683,1204.7Zm1.419,0c0-.514-.189-.9-.471-.9s-.465.376-.465.9.187.9.471.9S1258.1,1205.224,1258.1,1204.7Z" transform="translate(-1238.582 -1203.238)" fill="#bdd1f9"/>
        </g>
        <g id="Group_1877" data-name="Group 1877" transform="translate(7.78 12.76)">
          <path id="Path_20218" data-name="Path 20218" d="M1102.911,1283.048l-.373.121-.1-.51.615-.243h.321v2.851h-.465Z" transform="translate(-1102.44 -1282.389)" fill="#bdd1f9"/>
          <path id="Path_20219" data-name="Path 20219" d="M1119.431,1283.641c0-.821.385-1.464.954-1.464s.948.635.948,1.464-.382,1.464-.954,1.464S1119.431,1284.47,1119.431,1283.641Zm1.419,0c0-.514-.189-.9-.471-.9s-.465.376-.465.9.187.9.471.9S1120.85,1284.163,1120.85,1283.641Z" transform="translate(-1117.437 -1282.177)" fill="#bdd1f9"/>
          <path id="Path_20220" data-name="Path 20220" d="M1143.665,1283.641c0-.821.385-1.464.954-1.464s.948.635.948,1.464-.382,1.464-.954,1.464S1143.665,1284.47,1143.665,1283.641Zm1.419,0c0-.514-.19-.9-.471-.9s-.465.376-.465.9.186.9.471.9S1145.084,1284.163,1145.084,1283.641Z" transform="translate(-1138.827 -1282.177)" fill="#f77d48"/>
          <path id="Path_20221" data-name="Path 20221" d="M1167.458,1283.048l-.373.121-.1-.51.615-.243h.321v2.851h-.465Z" transform="translate(-1159.412 -1282.389)" fill="#f77d48"/>
          <path id="Path_20222" data-name="Path 20222" d="M1277.78,1283.048l-.373.121-.1-.51.615-.243h.321v2.851h-.465Z" transform="translate(-1256.788 -1282.389)" fill="#bdd1f9"/>
          <path id="Path_20223" data-name="Path 20223" d="M1294.3,1283.641c0-.821.385-1.464.954-1.464s.948.635.948,1.464-.382,1.464-.954,1.464S1294.3,1284.47,1294.3,1283.641Zm1.419,0c0-.514-.19-.9-.471-.9s-.465.376-.465.9.187.9.471.9S1295.717,1284.163,1295.717,1283.641Z" transform="translate(-1271.783 -1282.177)" fill="#bdd1f9"/>
          <path id="Path_20224" data-name="Path 20224" d="M1318.532,1283.641c0-.821.385-1.464.954-1.464s.948.635.948,1.464-.382,1.464-.954,1.464S1318.532,1284.47,1318.532,1283.641Zm1.419,0c0-.514-.19-.9-.471-.9s-.465.376-.465.9.187.9.471.9S1319.951,1284.163,1319.951,1283.641Z" transform="translate(-1293.173 -1282.177)" fill="#f77d48"/>
          <path id="Path_20225" data-name="Path 20225" d="M1342.326,1283.048l-.373.121-.1-.51.615-.243h.321v2.851h-.465Z" transform="translate(-1313.759 -1282.389)" fill="#f77d48"/>
          <path id="Path_20226" data-name="Path 20226" d="M1183.979,1283.641c0-.821.385-1.464.954-1.464s.948.635.948,1.464-.382,1.464-.954,1.464S1183.979,1284.47,1183.979,1283.641Zm1.419,0c0-.514-.19-.9-.471-.9s-.465.376-.465.9.187.9.471.9S1185.4,1284.163,1185.4,1283.641Z" transform="translate(-1174.41 -1282.177)" fill="#bdd1f9"/>
          <path id="Path_20227" data-name="Path 20227" d="M1208.213,1283.641c0-.821.385-1.464.954-1.464s.948.635.948,1.464-.382,1.464-.954,1.464S1208.213,1284.47,1208.213,1283.641Zm1.419,0c0-.514-.19-.9-.471-.9s-.465.376-.465.9.187.9.471.9S1209.632,1284.163,1209.632,1283.641Z" transform="translate(-1195.8 -1282.177)" fill="#bdd1f9"/>
          <path id="Path_20228" data-name="Path 20228" d="M1232.448,1283.641c0-.821.385-1.464.954-1.464s.948.635.948,1.464-.382,1.464-.954,1.464S1232.448,1284.47,1232.448,1283.641Zm1.419,0c0-.514-.19-.9-.471-.9s-.465.376-.465.9.187.9.471.9S1233.867,1284.163,1233.867,1283.641Z" transform="translate(-1217.191 -1282.177)" fill="#bdd1f9"/>
          <path id="Path_20229" data-name="Path 20229" d="M1256.683,1283.641c0-.821.385-1.464.954-1.464s.948.635.948,1.464-.382,1.464-.954,1.464S1256.683,1284.47,1256.683,1283.641Zm1.419,0c0-.514-.189-.9-.471-.9s-.465.376-.465.9.187.9.471.9S1258.1,1284.163,1258.1,1283.641Z" transform="translate(-1238.582 -1282.177)" fill="#bdd1f9"/>
        </g>
        <g id="Group_1878" data-name="Group 1878" transform="translate(7.558 8.131)">
          <path id="Path_20230" data-name="Path 20230" d="M1185.381,1243.6l-.373.121-.1-.51.615-.243h.321v2.851h-.465Z" transform="translate(-1175.01 -1242.941)" fill="#bdd1f9"/>
          <path id="Path_20231" data-name="Path 20231" d="M1168.692,1243.6l-.373.121-.1-.51.615-.243h.321v2.851h-.465Z" transform="translate(-1160.279 -1242.941)" fill="#bdd1f9"/>
          <path id="Path_20232" data-name="Path 20232" d="M1201.9,1244.192c0-.821.385-1.464.954-1.464s.948.635.948,1.464-.382,1.464-.954,1.464S1201.9,1245.021,1201.9,1244.192Zm1.419,0c0-.514-.19-.9-.471-.9s-.465.376-.465.9.186.9.471.9S1203.32,1244.714,1203.32,1244.192Z" transform="translate(-1190.007 -1242.728)" fill="#bdd1f9"/>
          <path id="Path_20233" data-name="Path 20233" d="M1226.136,1244.192c0-.821.385-1.464.954-1.464s.948.635.948,1.464-.382,1.464-.954,1.464S1226.136,1245.021,1226.136,1244.192Zm1.419,0c0-.514-.19-.9-.471-.9s-.465.376-.465.9.187.9.471.9S1227.555,1244.714,1227.555,1244.192Z" transform="translate(-1211.398 -1242.728)" fill="#f77d48"/>
          <path id="Path_20234" data-name="Path 20234" d="M1249.93,1243.6l-.373.121-.1-.51.615-.243h.321v2.851h-.465Z" transform="translate(-1231.984 -1242.941)" fill="#f77d48"/>
          <path id="Path_20235" data-name="Path 20235" d="M1266.449,1244.192c0-.821.385-1.464.954-1.464s.948.635.948,1.464-.382,1.464-.954,1.464S1266.449,1245.021,1266.449,1244.192Zm1.419,0c0-.514-.19-.9-.471-.9s-.465.376-.465.9.187.9.471.9S1267.868,1244.714,1267.868,1244.192Z" transform="translate(-1246.98 -1242.728)" fill="#bdd1f9"/>
          <path id="Path_20236" data-name="Path 20236" d="M1290.683,1244.192c0-.821.385-1.464.954-1.464s.948.635.948,1.464-.382,1.464-.954,1.464S1290.683,1245.021,1290.683,1244.192Zm1.419,0c0-.514-.19-.9-.471-.9s-.465.376-.465.9.187.9.471.9S1292.1,1244.714,1292.1,1244.192Z" transform="translate(-1268.37 -1242.728)" fill="#bdd1f9"/>
          <path id="Path_20237" data-name="Path 20237" d="M1314.918,1244.192c0-.821.385-1.464.954-1.464s.948.635.948,1.464-.382,1.464-.954,1.464S1314.918,1245.021,1314.918,1244.192Zm1.419,0c0-.514-.19-.9-.471-.9s-.465.376-.465.9.187.9.471.9S1316.337,1244.714,1316.337,1244.192Z" transform="translate(-1289.761 -1242.728)" fill="#bdd1f9"/>
          <path id="Path_20238" data-name="Path 20238" d="M1100.545,1244.192c0-.821.385-1.464.954-1.464s.948.635.948,1.464-.382,1.464-.954,1.464S1100.545,1245.021,1100.545,1244.192Zm1.419,0c0-.514-.19-.9-.471-.9s-.465.376-.465.9.187.9.471.9S1101.964,1244.714,1101.964,1244.192Z" transform="translate(-1100.545 -1242.728)" fill="#bdd1f9"/>
          <path id="Path_20239" data-name="Path 20239" d="M1124.779,1244.192c0-.821.385-1.464.954-1.464s.948.635.948,1.464-.382,1.464-.954,1.464S1124.779,1245.021,1124.779,1244.192Zm1.419,0c0-.514-.189-.9-.471-.9s-.465.376-.465.9.187.9.471.9S1126.2,1244.714,1126.2,1244.192Z" transform="translate(-1121.935 -1242.728)" fill="#bdd1f9"/>
          <path id="Path_20240" data-name="Path 20240" d="M1149.014,1244.192c0-.821.385-1.464.954-1.464s.948.635.948,1.464-.382,1.464-.954,1.464S1149.014,1245.021,1149.014,1244.192Zm1.419,0c0-.514-.19-.9-.471-.9s-.465.376-.465.9.187.9.471.9S1150.433,1244.714,1150.433,1244.192Z" transform="translate(-1143.326 -1242.728)" fill="#bdd1f9"/>
          <path id="Path_20241" data-name="Path 20241" d="M1339.152,1244.192c0-.821.385-1.464.954-1.464s.948.635.948,1.464-.382,1.464-.954,1.464S1339.152,1245.021,1339.152,1244.192Zm1.419,0c0-.514-.19-.9-.471-.9s-.465.376-.465.9.186.9.471.9S1340.571,1244.714,1340.571,1244.192Z" transform="translate(-1311.151 -1242.728)" fill="#bdd1f9"/>
        </g>
      </g>
      <path id="Path_20242" data-name="Path 20242" d="M940.02,1204.54l-.407,1.418-1.326-.233c-.244-.045-.384-.078-.384-.078-.651-.121-1.43-.287-2.279-.465h-.012c-1.454-.332-3.081-.731-4.454-1.174l-.362-.123a11.425,11.425,0,0,1-2.01-.885,1.421,1.421,0,0,1-.163-.11c-1.36-.942,2.93-3.213,3.64-2.725.188.13.39.264.6.4,1.176.761,2.674,1.609,4,2.323.651.355,1.268.676,1.78.942C939.473,1204.263,940.02,1204.54,940.02,1204.54Z" transform="translate(-915.192 -1169.165)" fill="#ffb27d"/>
      <path id="Path_20243" data-name="Path 20243" d="M886.922,1101.471a4.514,4.514,0,0,1-2.547,3.981c-3.043-1.046-4.671-5.369-5.927-8.338-.174-.409-.337-.82-.5-1.219a29.2,29.2,0,0,1-1.326-4.21,11.409,11.409,0,0,1-.314-2.005c-.012-.2,3.523-2.548,3.954-1.65.663,1.428,1.36,3.279,2.012,5.118.361,1.008.71,2.017,1.059,2.947.2.565.4,1.1.582,1.584a14.912,14.912,0,0,0,.977,2.16,5.537,5.537,0,0,0,1.431,1.23C886.508,1101.2,886.71,1101.333,886.922,1101.471Z" transform="translate(-869.251 -1070.07)" fill="#fff"/>
      <g id="Group_1880" data-name="Group 1880" transform="translate(23.375 35.054)">
        <path id="Path_20244" data-name="Path 20244" d="M1016.148,1235.282a4.514,4.514,0,0,0,1.643.159c.322-.169,1.759-.4,2.083.034.435.585.925,1.713.654,1.984s-.952-.485-1.9-.21c-.478.139-1.43.544-2.009.155s-1.261-.96-1.261-.96Z" transform="translate(-1015.362 -1235.226)" fill="#ffb27d"/>
      </g>
    </g>
    <path id="Path_20245" data-name="Path 20245" d="M846.752,289.953l3.221.08a.714.714,0,0,1,.622.41q.216.465.475.919a12.019,12.019,0,0,0,1.062,1.575.7.7,0,0,1,.066.792l-1.644,2.938a.692.692,0,0,0,.218.916l2.546,1.73a.684.684,0,0,0,.9-.121l2.009-2.361a.686.686,0,0,1,.8-.19,12.454,12.454,0,0,0,3.815.919.709.709,0,0,1,.636.584l.314,1.86a.716.716,0,0,0,.74.59l3.05-.191a.622.622,0,0,0,.179-.033.687.687,0,0,0,.476-.643l.063-2.406.014-.586a12.322,12.322,0,0,0,1.57-.752,12.518,12.518,0,0,0,1.9-1.331.686.686,0,0,1,.785-.079l2.365,1.327a.712.712,0,0,0,.937-.222l1.323-1.946.378-.559a.721.721,0,0,0-.127-.955l-1.972-1.681a.686.686,0,0,1-.2-.783,12.352,12.352,0,0,0,.688-2.551,2.135,2.135,0,0,0,.037-.219.367.367,0,0,1,.015-.073.7.7,0,0,1,.573-.528l3.018-.517a.513.513,0,0,0,.1-.024.714.714,0,0,0,.487-.714l-.186-3.041a.711.711,0,0,0-.691-.666l-3.359-.082a.687.687,0,0,1-.634-.452,12.572,12.572,0,0,0-.817-1.727q-.256-.449-.543-.868a.724.724,0,0,1-.033-.762l1.58-2.824a.691.691,0,0,0-.214-.909l-2.521-1.708a.723.723,0,0,0-.958.129l-1.59,1.868a.71.71,0,0,1-.858.177,12.419,12.419,0,0,0-3.639-1.185.705.705,0,0,1-.59-.582l-.465-2.721a.73.73,0,0,0-.76-.6l-3.03.184a.7.7,0,0,0-.656.681l-.005.141-.071,2.8a.713.713,0,0,1-.479.657l0,0a12.358,12.358,0,0,0-1.99.91c-.345.2-.674.408-1,.632a.7.7,0,0,1-.749.042l-2.4-1.348a.724.724,0,0,0-.953.223l-1.7,2.51a.783.783,0,0,0-.1.228.72.72,0,0,0,.227.712l1.579,1.338a.719.719,0,0,1,.237.666.76.76,0,0,1-.062.189,12.367,12.367,0,0,0-1.286,4.72.7.7,0,0,1-.462.61.71.71,0,0,1-.116.03l-2.445.417a.708.708,0,0,0-.587.738l0,.071.178,2.964A.721.721,0,0,0,846.752,289.953Zm21.532-6.208a8.294,8.294,0,0,1,.229,1.524,6.5,6.5,0,0,1-.939,3.418c-.061.092-.124.18-.187.268a6.721,6.721,0,0,1-11.66-6.622,4.379,4.379,0,0,1,.325-.565,7.648,7.648,0,0,1,1.8-1.874A6.674,6.674,0,0,1,868.284,283.745Z" transform="translate(-573.578 -119)" fill="#ff9f55"/>
    <path id="Path_20246" data-name="Path 20246" d="M1691.585,464.585l4.478-.5a1,1,0,0,1,.94.45q.389.6.833,1.183a16.765,16.765,0,0,0,1.773,1.98.985.985,0,0,1,.243,1.084l-1.718,4.386a.968.968,0,0,0,.477,1.227l3.859,1.911a.956.956,0,0,0,1.226-.34l2.333-3.656a.961.961,0,0,1,1.075-.416,17.414,17.414,0,0,0,5.463.544.991.991,0,0,1,.993.688l.791,2.517a1,1,0,0,0,1.138.676l4.19-.848a.869.869,0,0,0,.242-.08.961.961,0,0,0,.536-.982l-.373-3.346-.093-.815a17.218,17.218,0,0,0,2.032-1.342,17.472,17.472,0,0,0,2.384-2.208.96.96,0,0,1,1.072-.259l3.531,1.387a1,1,0,0,0,1.256-.487l1.462-2.95.417-.846a1.009,1.009,0,0,0-.359-1.3l-3.054-1.952a.959.959,0,0,1-.431-1.046,17.275,17.275,0,0,0,.465-3.667,2.986,2.986,0,0,0,.009-.311.531.531,0,0,1,.007-.1.982.982,0,0,1,.693-.842l4.084-1.293a.728.728,0,0,0,.133-.053,1,1,0,0,0,.539-1.083l-.839-4.179a1,1,0,0,0-1.085-.792l-4.671.528a.961.961,0,0,1-.964-.506,17.59,17.59,0,0,0-1.462-2.237q-.44-.573-.918-1.1a1.013,1.013,0,0,1-.192-1.049l1.65-4.216a.967.967,0,0,0-.471-1.219l-3.82-1.885a1.011,1.011,0,0,0-1.3.361l-1.847,2.892a.993.993,0,0,1-1.155.409,17.361,17.361,0,0,0-5.269-.946.987.987,0,0,1-.929-.694l-1.163-3.681a1.02,1.02,0,0,0-1.168-.69l-4.164.833a.975.975,0,0,0-.779,1.069l.02.2.435,3.887a1,1,0,0,1-.539,1l0,0a17.284,17.284,0,0,0-2.583,1.641c-.441.338-.856.694-1.259,1.065a.978.978,0,0,1-1.03.2l-3.585-1.408a1.012,1.012,0,0,0-1.278.491l-1.879,3.8a1.085,1.085,0,0,0-.1.334,1.008,1.008,0,0,0,.451.943l2.443,1.553a1.007,1.007,0,0,1,.456.877,1.075,1.075,0,0,1-.05.274,17.31,17.31,0,0,0-.88,6.786.973.973,0,0,1-.523.934,1,1,0,0,1-.156.064l-3.308,1.044a.991.991,0,0,0-.672,1.135l.019.1.814,4.074A1.008,1.008,0,0,0,1691.585,464.585Zm28.651-12.717a11.6,11.6,0,0,1,.608,2.069,9.1,9.1,0,0,1-.647,4.916c-.068.138-.138.273-.208.408a9.4,9.4,0,0,1-17.423-6.948,6.12,6.12,0,0,1,.343-.846,10.691,10.691,0,0,1,2.137-2.942A9.335,9.335,0,0,1,1720.236,451.867Z" transform="translate(-1318.328 -263.488)" fill="#f58634"/>
  </g>
</svg>
