<svg xmlns="http://www.w3.org/2000/svg" xmlns:xlink="http://www.w3.org/1999/xlink" width="296" height="243" viewBox="0 0 296 243">
  <defs>
    <clipPath id="clip-path">
      <rect width="296" height="243" fill="none"/>
    </clipPath>
  </defs>
  <g id="Line-book" clip-path="url(#clip-path)">
    <g transform="translate(-399.5 -279.5)">
      <rect id="Rectangle_459" data-name="Rectangle 459" width="5" height="296" transform="translate(695.5 279.5) rotate(90)" fill="#d4ecdf" opacity="0.3"/>
    </g>
    <g transform="translate(-399.5 -254.5)">
      <rect id="Rectangle_459-2" data-name="Rectangle 459" width="5" height="296" transform="translate(695.5 279.5) rotate(90)" fill="#d4ecdf" opacity="0.3"/>
    </g>
    <g transform="translate(-399.5 -229.5)">
      <rect id="Rectangle_459-3" data-name="Rectangle 459" width="5" height="296" transform="translate(695.5 279.5) rotate(90)" fill="#d4ecdf" opacity="0.3"/>
    </g>
    <g transform="translate(-399.5 -204.5)">
      <rect id="Rectangle_459-4" data-name="Rectangle 459" width="5" height="296" transform="translate(695.5 279.5) rotate(90)" fill="#d4ecdf" opacity="0.3"/>
    </g>
    <g transform="translate(-399.5 -179.5)">
      <rect id="Rectangle_459-5" data-name="Rectangle 459" width="5" height="296" transform="translate(695.5 279.5) rotate(90)" fill="#d4ecdf" opacity="0.3"/>
    </g>
    <g transform="translate(-399.5 -154.5)">
      <rect id="Rectangle_459-6" data-name="Rectangle 459" width="5" height="296" transform="translate(695.5 279.5) rotate(90)" fill="#d4ecdf" opacity="0.3"/>
    </g>
    <g transform="translate(-399.5 -129.5)">
      <rect id="Rectangle_459-7" data-name="Rectangle 459" width="5" height="296" transform="translate(695.5 279.5) rotate(90)" fill="#d4ecdf" opacity="0.3"/>
    </g>
    <g transform="translate(-399.5 -104.5)">
      <rect id="Rectangle_459-8" data-name="Rectangle 459" width="5" height="296" transform="translate(695.5 279.5) rotate(90)" fill="#d4ecdf" opacity="0.3"/>
    </g>
    <g transform="translate(-399.5 -79.5)">
      <rect id="Rectangle_459-9" data-name="Rectangle 459" width="5" height="296" transform="translate(695.5 279.5) rotate(90)" fill="#d4ecdf" opacity="0.3"/>
    </g>
    <g transform="translate(-399.5 -54.5)">
      <rect id="Rectangle_459-10" data-name="Rectangle 459" width="5" height="296" transform="translate(695.5 279.5) rotate(90)" fill="#d4ecdf" opacity="0.3"/>
    </g>
  </g>
</svg>
