<svg xmlns="http://www.w3.org/2000/svg" width="18.222" height="16" viewBox="0 0 18.222 16">
  <path id="ico-kydientu" d="M7.444,6A2.444,2.444,0,0,0,5,8.444V19.333A2.667,2.667,0,0,0,7.667,22H19.222a2.666,2.666,0,0,0,2.667-2.667V16.682L20.111,18.46v.873a.889.889,0,0,1-.889.889H7.667a.889.889,0,0,1-.889-.889V10H20.111v1.372a2.485,2.485,0,0,1,1.015-.441,2.6,2.6,0,0,1,.457-.042h.005a2.508,2.508,0,0,1,.3.03V8.444A2.444,2.444,0,0,0,19.444,6Zm0,1.333A.667.667,0,1,1,6.778,8,.667.667,0,0,1,7.444,7.333Zm2.222,0A.667.667,0,1,1,9,8,.667.667,0,0,1,9.667,7.333Zm11.918,4.444a1.709,1.709,0,0,0-.3.028,1.687,1.687,0,0,0-.888.484l-3.846,3.846a1.1,1.1,0,0,0-.276.467L15.7,18.6a.55.55,0,0,0-.036.215.539.539,0,0,0,.521.521A.554.554,0,0,0,16.4,19.3l1.993-.571a1.086,1.086,0,0,0,.467-.276L22.709,14.6a1.685,1.685,0,0,0,.484-.888,1.638,1.638,0,0,0-1.608-1.938ZM8.323,13.546a.667.667,0,0,0-.656.676v3.333a1.778,1.778,0,0,0,3.556,0v-.889a.444.444,0,0,1,.889,0v.889a1.788,1.788,0,0,0,1.778,1.778h.222a.667.667,0,1,0,0-1.333h-.222a.434.434,0,0,1-.444-.444v-.889a1.778,1.778,0,0,0-3.556,0v.889a.444.444,0,0,1-.889,0V14.222a.667.667,0,0,0-.677-.676Z" transform="translate(-5 -6)"/>
</svg>
