<svg xmlns="http://www.w3.org/2000/svg" width="19.002" height="16.196" viewBox="0 0 19.002 16.196">
  <path id="ico-dongbo" d="M2655.6,860.786h-.937a.658.658,0,0,1-.465-1.125l2.06-2.058a.658.658,0,0,1,.931,0l2.058,2.058a.658.658,0,0,1-.465,1.125h-.461a5.7,5.7,0,0,0,5.184,3.779,5.474,5.474,0,0,0,5.05-3.378l.337.337a1.967,1.967,0,0,0,2.189.409,8.1,8.1,0,0,1-7.576,5.263A8.02,8.02,0,0,1,2655.6,860.786Zm6.111-1.687a1.794,1.794,0,1,1,1.794,1.794A1.794,1.794,0,0,1,2661.707,859.1Zm8.112,1.495-2.06-2.058a.658.658,0,0,1,.465-1.124h.461a5.537,5.537,0,0,0-5.184-3.78,5.473,5.473,0,0,0-5.049,3.378l-.337-.336a1.964,1.964,0,0,0-2.191-.409,8.076,8.076,0,0,1,13.983-2.1,8.5,8.5,0,0,1,1.506,3.245h.93a.658.658,0,0,1,.466,1.124l-2.058,2.058a.659.659,0,0,1-.931,0Z" transform="translate(-2654 -851)"/>
</svg>
