<svg xmlns="http://www.w3.org/2000/svg" width="13.5" height="15" viewBox="0 0 13.5 15">
  <path id="ico-xuatpdf" d="M8.437,4A1.69,1.69,0,0,0,6.75,5.687v5.082a.949.949,0,0,0-.75.918v4.125a.949.949,0,0,0,.75.918v.582A1.69,1.69,0,0,0,8.437,19h8.625a1.69,1.69,0,0,0,1.687-1.687v-.582a.949.949,0,0,0,.75-.918V11.687a.949.949,0,0,0-.75-.918V10H14.437A1.69,1.69,0,0,1,12.75,8.312V4Zm5.437.33V8.312a.563.563,0,0,0,.562.562H18.42Zm-6.75,7.545h11.25v3.75H7.125Zm2.625.375a.375.375,0,0,0-.375.375v2.25a.375.375,0,1,0,.75,0V14.5H10.5a1.125,1.125,0,1,0,0-2.25Zm2.625,0a.375.375,0,0,0-.375.375v2.25a.375.375,0,0,0,.375.375h.375a1.5,1.5,0,0,0,0-3Zm2.625,0a.375.375,0,0,0-.375.375v2.25a.375.375,0,0,0,.75,0v-.75h.562a.375.375,0,0,0,0-.75h-.562V13h.75a.375.375,0,1,0,0-.75ZM10.125,13H10.5a.375.375,0,1,1,0,.75h-.375Zm2.625,0a.75.75,0,0,1,0,1.5Z" transform="translate(-6 -4)"/>
</svg>
