<svg xmlns="http://www.w3.org/2000/svg" width="14.297" height="15" viewBox="0 0 14.297 15">
  <path id="ico-xuatexcel" d="M11.989,4.066a1.284,1.284,0,0,0-.3.027L6.344,5.219A1.7,1.7,0,0,0,5,6.875v9.381a1.7,1.7,0,0,0,1.344,1.656l5.345,1.125a1.329,1.329,0,0,0,1.588-1.288V5.382A1.333,1.333,0,0,0,11.989,4.066Zm2.417,1.48V17.962h3.2A1.7,1.7,0,0,0,19.3,16.268V7.239A1.7,1.7,0,0,0,17.6,5.546ZM16.1,8.179h1.129a.564.564,0,1,1,0,1.129H16.1a.564.564,0,1,1,0-1.129Zm-8.263.752a.567.567,0,0,1,.464.26l.839,1.325.839-1.325a.567.567,0,0,1,.955.61L9.808,11.565l1.125,1.764a.573.573,0,0,1-.173.783.6.6,0,0,1-.3.087.577.577,0,0,1-.478-.259l-.839-1.325L8.3,13.94a.577.577,0,0,1-.478.259.6.6,0,0,1-.3-.087.573.573,0,0,1-.173-.783l1.125-1.764L7.344,9.8a.565.565,0,0,1,.492-.87ZM16.1,11.189h1.129a.564.564,0,1,1,0,1.129H16.1a.564.564,0,1,1,0-1.129Zm0,3.01h1.129a.564.564,0,1,1,0,1.129H16.1a.564.564,0,1,1,0-1.129Z" transform="translate(-5 -4.065)"/>
</svg>
