<svg xmlns="http://www.w3.org/2000/svg" width="18" height="18" viewBox="0 0 18 18">
  <path id="ico-luuvagui" d="M2722.154,1070a4.846,4.846,0,1,1,4.846-4.846A4.852,4.852,0,0,1,2722.154,1070Zm1.48-6.322h0l-2.489,3.123,1.256,1.582a.237.237,0,0,0,.425-.039l1.659-5.215a.071.071,0,0,1,0-.012.234.234,0,0,0,.011-.07.237.237,0,0,0-.237-.237.25.25,0,0,0-.068.01l-.019.006-5.21,1.657a.239.239,0,0,0-.154.222.236.236,0,0,0,.114.2l1.583,1.256Zm-7.348,3.553h-5.9a1.386,1.386,0,0,1-1.384-1.384v-12.462a1.386,1.386,0,0,1,1.384-1.384h2.077v4.154a.693.693,0,0,0,.692.693h6.231a.694.694,0,0,0,.693-.693V1052h1.384l2.769,2.769v4.516a6.187,6.187,0,0,0-5.989,1.022h-5.089a1.386,1.386,0,0,0-1.384,1.384v4.154h4.194a6.183,6.183,0,0,0,.322,1.383Zm2.406-11.769h-1.384V1052h1.384v3.46Z" transform="translate(-2709 -1052)"/>
</svg>
