<svg xmlns="http://www.w3.org/2000/svg" width="15" height="15" viewBox="0 0 15 15">
  <path id="ico-khongduyet" d="M2716.01,1064.858H2709v-1.786a1.988,1.988,0,0,1,.833-1.523,5.91,5.91,0,0,1,1.632-.909,11.389,11.389,0,0,1,3.964-.783,9.309,9.309,0,0,1,1.041.068,4.285,4.285,0,1,1-.459,4.932Zm.826-2.111a2.91,2.91,0,1,0,2.91-2.91A2.913,2.913,0,0,0,2716.836,1062.746Zm3.543,1.265-.634-.633-.634.633a.447.447,0,1,1-.633-.633l.633-.634-.633-.633a.448.448,0,0,1,.633-.634l.634.634.634-.634a.448.448,0,0,1,.633.634l-.633.633.633.634a.447.447,0,1,1-.633.633ZM2709,1059.14a3.149,3.149,0,0,1,.713-2.138,3.064,3.064,0,0,1,2.048-.716c.058,0,.092,0,.093,0a3.152,3.152,0,0,1-.715,2.14,3.051,3.051,0,0,1-2.042.715C2709.039,1059.142,2709,1059.14,2709,1059.14Zm3.569-4.283a2.857,2.857,0,1,1,2.857,2.858A2.86,2.86,0,0,1,2712.571,1054.857Z" transform="translate(-2709 -1052)"/>
</svg>
