<svg xmlns="http://www.w3.org/2000/svg" width="18" height="15.997" viewBox="0 0 18 15.997">
  <path id="ico-sua" d="M12.581,2.6,15.4,5.423a.306.306,0,0,1,0,.431L8.575,12.679,5.675,13A.608.608,0,0,1,5,12.329l.322-2.9L12.15,2.6A.306.306,0,0,1,12.581,2.6Zm5.062-.716L16.118.363a1.222,1.222,0,0,0-1.725,0L13.287,1.469a.306.306,0,0,0,0,.431l2.819,2.819a.306.306,0,0,0,.431,0l1.106-1.106a1.222,1.222,0,0,0,0-1.725ZM12,10.822V14H2V4H9.181a.384.384,0,0,0,.266-.109l1.25-1.25A.375.375,0,0,0,10.431,2H1.5A1.5,1.5,0,0,0,0,3.5v11A1.5,1.5,0,0,0,1.5,16h11A1.5,1.5,0,0,0,14,14.5V9.572a.376.376,0,0,0-.641-.266l-1.25,1.25A.384.384,0,0,0,12,10.822Z" transform="translate(0 -0.007)"/>
</svg>
