<svg xmlns="http://www.w3.org/2000/svg" width="15" height="18" viewBox="0 0 15 18">
  <g id="ico-luunhap" transform="translate(-643 -436)">
    <path id="Subtraction_3" data-name="Subtraction 3" d="M2711,1068h-1.25a.751.751,0,0,1-.75-.751v-14.5a.751.751,0,0,1,.75-.75H2716v1h-4.251a.751.751,0,0,0-.75.75V1068Zm8.625-3h-5.25a.375.375,0,0,1-.375-.374v-.25a.376.376,0,0,1,.375-.375h5.25a.376.376,0,0,1,.375.375v.25A.375.375,0,0,1,2719.625,1065Zm0-2h-5.25a.376.376,0,0,1-.375-.375v-.249a.376.376,0,0,1,.375-.375h5.25a.376.376,0,0,1,.375.375v.249A.376.376,0,0,1,2719.625,1063Zm0-2h-5.25a.376.376,0,0,1-.375-.375v-.25a.375.375,0,0,1,.375-.374h5.25a.375.375,0,0,1,.375.374v.25A.376.376,0,0,1,2719.625,1061Zm1.375-3h-2.25a.751.751,0,0,1-.75-.75V1057h3v1Zm-2-2h-1v-3h-1v-1h.191a.744.744,0,0,1,.531.219L2719,1053.5v2.5Z" transform="translate(-2066 -616)"/>
    <path id="Icon_awesome-file-alt" data-name="Icon awesome-file-alt" d="M7,4.25V0H.75A.748.748,0,0,0,0,.75v14.5A.748.748,0,0,0,.75,16h10.5a.748.748,0,0,0,.75-.75V5H7.75A.752.752,0,0,1,7,4.25Zm2,7.375A.376.376,0,0,1,8.625,12H3.375A.376.376,0,0,1,3,11.625v-.25A.376.376,0,0,1,3.375,11h5.25A.376.376,0,0,1,9,11.375Zm0-2A.376.376,0,0,1,8.625,10H3.375A.376.376,0,0,1,3,9.625v-.25A.376.376,0,0,1,3.375,9h5.25A.376.376,0,0,1,9,9.375Zm0-2.25v.25A.376.376,0,0,1,8.625,8H3.375A.376.376,0,0,1,3,7.625v-.25A.376.376,0,0,1,3.375,7h5.25A.376.376,0,0,1,9,7.375Zm3-3.566V4H8V0h.191a.749.749,0,0,1,.531.219l3.059,3.063A.748.748,0,0,1,12,3.809Z" transform="translate(646 438)"/>
  </g>
</svg>
