<svg xmlns="http://www.w3.org/2000/svg" width="16.874" height="15" viewBox="0 0 16.874 15">
  <path id="ico-xuatfile" d="M11.25,3.571a.7.7,0,0,0-.205-.5L8.177.205A.7.7,0,0,0,7.679,0H7.5V3.75h3.75Zm5.479,5.452L13.925,6.2a.47.47,0,0,0-.8.331V8.438H11.247v1.875h1.875v1.91a.47.47,0,0,0,.8.331l2.8-2.827A.5.5,0,0,0,16.729,9.023Zm-11.1.82V8.906a.47.47,0,0,1,.469-.469H11.25V4.688H7.266a.705.705,0,0,1-.7-.7V0H.7A.7.7,0,0,0,0,.7V14.3a.7.7,0,0,0,.7.7h9.844a.7.7,0,0,0,.7-.7V10.313H6.094A.47.47,0,0,1,5.625,9.844Z"/>
</svg>
