<svg xmlns="http://www.w3.org/2000/svg" width="13.447" height="15" viewBox="0 0 13.447 15">
  <path id="ico-xemhoso" d="M5.508,14.414A.586.586,0,0,1,4.922,15H2.344A2.346,2.346,0,0,1,0,12.656V2.344A2.346,2.346,0,0,1,2.344,0h7.2a2.346,2.346,0,0,1,2.344,2.344v5.6a.586.586,0,1,1-1.172,0v-5.6A1.173,1.173,0,0,0,9.548,1.172h-7.2A1.173,1.173,0,0,0,1.172,2.344V12.656a1.173,1.173,0,0,0,1.172,1.172H4.922a.586.586,0,0,1,.586.586Zm3.454-10.9H2.926a.586.586,0,0,0,0,1.172H8.962a.586.586,0,0,0,0-1.172Zm.586,2.93a.586.586,0,0,0-.586-.586H2.926a.586.586,0,1,0,0,1.172H8.962A.586.586,0,0,0,9.548,6.445ZM2.926,8.2a.586.586,0,0,0,0,1.172H6.006a.586.586,0,0,0,0-1.172Zm10.414,4.292c-.021.029-.091.129-.135.185a8.246,8.246,0,0,1-1.295,1.335A4.018,4.018,0,0,1,9.4,15,4.018,4.018,0,0,1,6.9,14.014,8.243,8.243,0,0,1,5.6,12.68c-.044-.055-.115-.155-.135-.185a.586.586,0,0,1,0-.674c.021-.029.091-.129.135-.185A8.244,8.244,0,0,1,6.9,10.3,4.018,4.018,0,0,1,9.4,9.316a4.018,4.018,0,0,1,2.507.986,8.243,8.243,0,0,1,1.295,1.335c.044.055.115.155.135.185A.586.586,0,0,1,13.341,12.495Zm-1.222-.337A3.808,3.808,0,0,0,9.4,10.488a3.808,3.808,0,0,0-2.714,1.67A3.808,3.808,0,0,0,9.4,13.828,3.808,3.808,0,0,0,12.119,12.158ZM9.434,11.045a1.113,1.113,0,1,0,1.113,1.113A1.113,1.113,0,0,0,9.434,11.045Zm0,0"/>
</svg>
