<svg xmlns="http://www.w3.org/2000/svg" width="13.125" height="15" viewBox="0 0 13.125 15">
  <path id="ico-dinhkem" d="M12.819,6.719l-.951-.951L7.11,10.525a2.018,2.018,0,0,0,2.855,2.854l5.71-5.709a3.364,3.364,0,1,0-4.758-4.757L4.922,8.907l-.013.012a4.692,4.692,0,0,0,6.636,6.634l.012-.013h0l4.092-4.091L14.7,10.5,10.605,14.59l-.012.012A3.346,3.346,0,0,1,5.86,9.872l.013-.012h0l6-5.994a2.018,2.018,0,1,1,2.855,2.854l-5.71,5.708a.673.673,0,0,1-.952-.951l4.758-4.758Z" transform="translate(-3.535 -1.928)"/>
</svg>
