<svg xmlns="http://www.w3.org/2000/svg" width="14.297" height="15" viewBox="0 0 14.297 15">
  <path id="ico-xuatword" d="M11.989,4.066a1.284,1.284,0,0,0-.3.027L6.344,5.219A1.7,1.7,0,0,0,5,6.875v9.381a1.7,1.7,0,0,0,1.344,1.656l5.345,1.125a1.329,1.329,0,0,0,1.588-1.288V5.382A1.333,1.333,0,0,0,11.989,4.066Zm2.417,1.48V8.179h2.446a.564.564,0,1,1,0,1.129H14.406v1.881h2.446a.564.564,0,1,1,0,1.129H14.406V14.2h2.446a.564.564,0,1,1,0,1.129H14.406v2.634h3.2A1.7,1.7,0,0,0,19.3,16.268V7.239A1.7,1.7,0,0,0,17.6,5.546ZM7.09,8.932a.567.567,0,0,1,.536.47l.406,2.438L8.424,10.8a.563.563,0,0,1,1.054,0l.391,1.038L10.275,9.4a.565.565,0,0,1,1.114.188l-.752,4.515a.56.56,0,0,1-.5.467.234.234,0,0,1-.053,0,.561.561,0,0,1-.527-.365l-.6-1.6-.6,1.6a.564.564,0,0,1-1.084-.105L6.512,9.59a.564.564,0,0,1,.578-.658Z" transform="translate(-5 -4.065)"/>
</svg>
