<svg width="29" height="29" viewBox="0 0 29 29" fill="none" xmlns="http://www.w3.org/2000/svg">
<path d="M21.75 9.66666C21.75 7.74384 20.9862 5.89978 19.6265 4.54014C18.2669 3.1805 16.4228 2.41666 14.5 2.41666C12.5772 2.41666 10.7331 3.1805 9.37348 4.54014C8.01384 5.89978 7.25 7.74384 7.25 9.66666C7.25 18.125 3.625 20.5417 3.625 20.5417H25.375C25.375 20.5417 21.75 18.125 21.75 9.66666Z" fill="#00803D"/>
<path d="M16.59 25.375C16.3776 25.7412 16.0727 26.0452 15.7058 26.2565C15.3389 26.4678 14.923 26.5791 14.4996 26.5791C14.0762 26.5791 13.6603 26.4678 13.2934 26.2565C12.9265 26.0452 12.6216 25.7412 12.4092 25.375" stroke="#00803D" stroke-width="2" stroke-linecap="round" stroke-linejoin="round"/>
</svg>
