<svg width="16" height="16" viewBox="0 0 16 16" fill="none" xmlns="http://www.w3.org/2000/svg">
<path d="M2.00051 8.66667H2.66718V13.3333C2.66718 14.0687 3.26518 14.6667 4.00051 14.6667H12.0005C12.7358 14.6667 13.3338 14.0687 13.3338 13.3333V8.66667H14.0005C14.1323 8.66664 14.2612 8.62752 14.3708 8.55427C14.4804 8.48101 14.5658 8.3769 14.6163 8.2551C14.6667 8.1333 14.6799 7.99928 14.6542 7.86998C14.6285 7.74068 14.565 7.6219 14.4718 7.52867L8.47184 1.52867C8.40998 1.4667 8.33651 1.41754 8.25564 1.384C8.17476 1.35046 8.08807 1.3332 8.00051 1.3332C7.91295 1.3332 7.82626 1.35046 7.74538 1.384C7.6645 1.41754 7.59103 1.4667 7.52918 1.52867L1.52918 7.52867C1.43597 7.6219 1.3725 7.74068 1.34679 7.86998C1.32107 7.99928 1.33428 8.1333 1.38472 8.2551C1.43517 8.3769 1.5206 8.48101 1.6302 8.55427C1.73981 8.62752 1.86868 8.66664 2.00051 8.66667ZM6.66718 13.3333V10H9.33384V13.3333H6.66718ZM8.00051 2.94267L12.0005 6.94267V10L12.0012 13.3333H10.6672V10C10.6672 9.26467 10.0692 8.66667 9.33384 8.66667H6.66718C5.93184 8.66667 5.33384 9.26467 5.33384 10V13.3333H4.00051V6.94267L8.00051 2.94267Z" fill="white"/>
</svg>
