<svg width="34" height="34" viewBox="0 0 34 34" fill="none" xmlns="http://www.w3.org/2000/svg">
<path d="M11.3337 8.5C11.3337 9.25144 11.0351 9.97211 10.5038 10.5035C9.97244 11.0348 9.25177 11.3333 8.50033 11.3333C7.74888 11.3333 7.02821 11.0348 6.49686 10.5035C5.9655 9.97211 5.66699 9.25144 5.66699 8.5C5.66699 7.74855 5.9655 7.02788 6.49686 6.49653C7.02821 5.96518 7.74888 5.66666 8.50033 5.66666C9.25177 5.66666 9.97244 5.96518 10.5038 6.49653C11.0351 7.02788 11.3337 7.74855 11.3337 8.5Z" fill="#00803D"/>
<path d="M11.3337 17C11.3337 17.7514 11.0351 18.4721 10.5038 19.0035C9.97244 19.5348 9.25177 19.8333 8.50033 19.8333C7.74888 19.8333 7.02821 19.5348 6.49686 19.0035C5.9655 18.4721 5.66699 17.7514 5.66699 17C5.66699 16.2486 5.9655 15.5279 6.49686 14.9965C7.02821 14.4652 7.74888 14.1667 8.50033 14.1667C9.25177 14.1667 9.97244 14.4652 10.5038 14.9965C11.0351 15.5279 11.3337 16.2486 11.3337 17Z" fill="#00803D"/>
<path d="M8.50033 28.3333C9.25177 28.3333 9.97244 28.0348 10.5038 27.5035C11.0351 26.9721 11.3337 26.2514 11.3337 25.5C11.3337 24.7485 11.0351 24.0279 10.5038 23.4965C9.97244 22.9652 9.25177 22.6667 8.50033 22.6667C7.74888 22.6667 7.02821 22.9652 6.49686 23.4965C5.9655 24.0279 5.66699 24.7485 5.66699 25.5C5.66699 26.2514 5.9655 26.9721 6.49686 27.5035C7.02821 28.0348 7.74888 28.3333 8.50033 28.3333Z" fill="#00803D"/>
<path d="M19.8337 8.5C19.8337 9.25144 19.5352 9.97211 19.0038 10.5035C18.4724 11.0348 17.7518 11.3333 17.0003 11.3333C16.2489 11.3333 15.5282 11.0348 14.9969 10.5035C14.4655 9.97211 14.167 9.25144 14.167 8.5C14.167 7.74855 14.4655 7.02788 14.9969 6.49653C15.5282 5.96518 16.2489 5.66666 17.0003 5.66666C17.7518 5.66666 18.4724 5.96518 19.0038 6.49653C19.5352 7.02788 19.8337 7.74855 19.8337 8.5Z" fill="#00803D"/>
<path d="M17.0003 19.8333C17.7518 19.8333 18.4724 19.5348 19.0038 19.0035C19.5352 18.4721 19.8337 17.7514 19.8337 17C19.8337 16.2486 19.5352 15.5279 19.0038 14.9965C18.4724 14.4652 17.7518 14.1667 17.0003 14.1667C16.2489 14.1667 15.5282 14.4652 14.9969 14.9965C14.4655 15.5279 14.167 16.2486 14.167 17C14.167 17.7514 14.4655 18.4721 14.9969 19.0035C15.5282 19.5348 16.2489 19.8333 17.0003 19.8333Z" fill="#00803D"/>
<path d="M19.8337 25.5C19.8337 26.2514 19.5352 26.9721 19.0038 27.5035C18.4724 28.0348 17.7518 28.3333 17.0003 28.3333C16.2489 28.3333 15.5282 28.0348 14.9969 27.5035C14.4655 26.9721 14.167 26.2514 14.167 25.5C14.167 24.7485 14.4655 24.0279 14.9969 23.4965C15.5282 22.9652 16.2489 22.6667 17.0003 22.6667C17.7518 22.6667 18.4724 22.9652 19.0038 23.4965C19.5352 24.0279 19.8337 24.7485 19.8337 25.5Z" fill="#00803D"/>
<path d="M25.5003 11.3333C26.2518 11.3333 26.9724 11.0348 27.5038 10.5035C28.0351 9.97211 28.3337 9.25144 28.3337 8.5C28.3337 7.74855 28.0351 7.02788 27.5038 6.49653C26.9724 5.96518 26.2518 5.66666 25.5003 5.66666C24.7489 5.66666 24.0282 5.96518 23.4969 6.49653C22.9655 7.02788 22.667 7.74855 22.667 8.5C22.667 9.25144 22.9655 9.97211 23.4969 10.5035C24.0282 11.0348 24.7489 11.3333 25.5003 11.3333Z" fill="#00803D"/>
<path d="M28.3337 17C28.3337 17.7514 28.0351 18.4721 27.5038 19.0035C26.9724 19.5348 26.2518 19.8333 25.5003 19.8333C24.7489 19.8333 24.0282 19.5348 23.4969 19.0035C22.9655 18.4721 22.667 17.7514 22.667 17C22.667 16.2486 22.9655 15.5279 23.4969 14.9965C24.0282 14.4652 24.7489 14.1667 25.5003 14.1667C26.2518 14.1667 26.9724 14.4652 27.5038 14.9965C28.0351 15.5279 28.3337 16.2486 28.3337 17Z" fill="#00803D"/>
<path d="M25.5003 28.3333C26.2518 28.3333 26.9724 28.0348 27.5038 27.5035C28.0351 26.9721 28.3337 26.2514 28.3337 25.5C28.3337 24.7485 28.0351 24.0279 27.5038 23.4965C26.9724 22.9652 26.2518 22.6667 25.5003 22.6667C24.7489 22.6667 24.0282 22.9652 23.4969 23.4965C22.9655 24.0279 22.667 24.7485 22.667 25.5C22.667 26.2514 22.9655 26.9721 23.4969 27.5035C24.0282 28.0348 24.7489 28.3333 25.5003 28.3333Z" fill="#00803D"/>
</svg>
