<svg width="22" height="24" viewBox="0 0 22 24" fill="none" xmlns="http://www.w3.org/2000/svg">
<path d="M21.3555 12.7969L14.1367 20.6719C13.4922 21.375 12.375 20.8828 12.375 19.875V15.375H6.53125C5.95977 15.375 5.5 14.8734 5.5 14.25V9.75C5.5 9.12656 5.95977 8.625 6.53125 8.625H12.375V4.125C12.375 3.12187 13.4879 2.625 14.1367 3.32812L21.3555 11.2031C21.7551 11.6438 21.7551 12.3563 21.3555 12.7969ZM8.25 20.4375V18.5625C8.25 18.2531 8.01797 18 7.73438 18H4.125C3.36445 18 2.75 17.3297 2.75 16.5V7.5C2.75 6.67031 3.36445 6 4.125 6H7.73438C8.01797 6 8.25 5.74687 8.25 5.4375V3.5625C8.25 3.25312 8.01797 3 7.73438 3H4.125C1.84766 3 0 5.01562 0 7.5V16.5C0 18.9844 1.84766 21 4.125 21H7.73438C8.01797 21 8.25 20.7469 8.25 20.4375Z" fill="#00803D"/>
</svg>
