<svg width="24" height="25" viewBox="0 0 24 25" fill="none" xmlns="http://www.w3.org/2000/svg">
<mask id="mask0" mask-type="alpha" maskUnits="userSpaceOnUse" x="0" y="0" width="25" height="25">
<circle cx="12.3575" cy="12.5292" r="11.6426" fill="#E4FDF0"/>
</mask>
<g mask="url(#mask0)">
<circle cx="12.3575" cy="12.5292" r="11.1426" fill="#00803D" stroke="#00803D"/>
<path d="M19.5521 25.5589V23.1806C19.5521 21.919 19.1731 20.7092 18.4984 19.8171C17.8237 18.9251 16.9087 18.4239 15.9546 18.4239H8.7596C7.80549 18.4239 6.89045 18.9251 6.21579 19.8171C5.54113 20.7092 5.16211 21.919 5.16211 23.1806V25.5589" fill="white"/>
<path d="M12.3563 14.8259C14.3431 14.8259 15.9538 13.2152 15.9538 11.2284C15.9538 9.24157 14.3431 7.63091 12.3563 7.63091C10.3694 7.63091 8.75879 9.24157 8.75879 11.2284C8.75879 13.2152 10.3694 14.8259 12.3563 14.8259Z" fill="white"/>
</g>
</svg>
