<svg xmlns="http://www.w3.org/2000/svg" width="422.333" height="360.572" viewBox="0 0 422.333 360.572">
  <g id="Hinh" transform="translate(-150.367 -18.066)">
    <g id="Group_666" data-name="Group 666" transform="translate(318.29 288.505)">
      <path id="Path_1593" data-name="Path 1593" d="M397.6,337.551l34.672-20.018c3.911-2.257,3.421-6.2-1.1-8.809l-81.528-47.07c-4.516-2.607-11.348-2.891-15.259-.633l-34.672,20.018c-3.91,2.257-3.42,6.2,1.1,8.809l81.528,47.07C386.853,339.525,393.685,339.809,397.6,337.551Z" transform="translate(-297.073 -253.59)" fill="#92b4d1" opacity="0.2"/>
      <path id="Path_1594" data-name="Path 1594" d="M397.6,334.986l34.672-20.018a4.556,4.556,0,0,0,2.641-3.766c0-.125,0-2.843-.014-2.969-.144-1.636-1.4-.735-3.722-2.074l-81.528-47.07c-4.516-2.607-11.348-2.891-15.259-.633l-34.672,20.018c-1.746,1.008-2.614-.767-2.639.644,0,.124,0,3.365.013,3.489.141,1.638,1.4,3.334,3.723,4.676l81.528,47.07C386.853,336.96,393.686,337.244,397.6,334.986Z" transform="translate(-297.074 -253.96)" fill="#2672ab"/>
      <path id="Path_1595" data-name="Path 1595" d="M397.6,332.39l34.672-20.017c3.911-2.258,3.421-6.2-1.1-8.81l-81.528-47.07c-4.516-2.607-11.348-2.89-15.259-.632l-34.672,20.017c-3.91,2.258-3.42,6.2,1.1,8.81l81.528,47.07C386.853,334.365,393.685,334.648,397.6,332.39Z" transform="translate(-297.073 -254.336)" fill="#d1ebff"/>
      <path id="Path_1596" data-name="Path 1596" d="M432.267,308.8,397.6,328.82c-3.911,2.257-10.743,1.974-15.259-.633l-81.528-47.07c-2.377-1.372-3.638-3.116-3.729-4.788-.1,1.789,1.166,3.7,3.729,5.178l81.528,47.07c4.516,2.607,11.348,2.89,15.259.632l34.671-20.017c1.853-1.07,2.716-2.517,2.634-4.022A4.611,4.611,0,0,1,432.267,308.8Z" transform="translate(-297.073 -251.155)" fill="#fff"/>
      <path id="Path_1597" data-name="Path 1597" d="M428.232,304.574l-81.221-46.893c-3.314-1.914-8.326-2.121-11.2-.465L302.063,276.7c-2.87,1.656-2.509,4.551.8,6.464l81.221,46.893c3.314,1.914,8.326,2.121,11.2.465l33.753-19.487C431.906,309.381,431.545,306.486,428.232,304.574Z" transform="translate(-296.632 -254.081)" fill="#022652"/>
      <path id="Path_1598" data-name="Path 1598" d="M335.986,257.767a10.79,10.79,0,0,1,9.764-.017l82.117,47.41c2.688,1.551,2.674,4.075-.031,5.637l-32.97,19.035a10.793,10.793,0,0,1-9.765.017l-82.116-47.41c-2.688-1.551-2.674-4.075.031-5.637Z" transform="translate(-296.509 -254.01)" fill="#03336e"/>
    </g>
    <g id="Group_667" data-name="Group 667" transform="translate(369.061 227.172)">
      <path id="Path_1599" data-name="Path 1599" d="M407.964,277.434,344.029,240.3c-3.85-2.223-3.367-6.107,1.078-8.673l56.11-21.584c4.447-2.566,11.171-2.846,15.022-.623L459.209,234.6c3.85,2.223,3.367,6.107-1.078,8.673l-35.144,33.542C418.541,279.377,411.815,279.656,407.964,277.434Z" transform="translate(-341.43 -199.715)" fill="#92b4d1" opacity="0.2"/>
      <path id="Path_1600" data-name="Path 1600" d="M407.964,274.406l-63.935-37.133a4.488,4.488,0,0,1-2.6-3.7c0-.045,0-4.786,0-4.83.031-1.685,1.275,1.242,3.677-.145l56.11-21.583c4.447-2.567,11.171-2.846,15.022-.623l42.969,25.175c1.285.742,2.218-2.408,2.551-1.407.111.334.04,4.752.048,5.1.037,1.726-1.21,3.555-3.678,4.98l-35.144,33.541C418.541,276.35,411.815,276.628,407.964,274.406Z" transform="translate(-341.43 -200.153)" fill="#2672ab"/>
      <path id="Path_1601" data-name="Path 1601" d="M407.964,270.263l-63.935-37.131c-3.85-2.223-3.367-6.107,1.078-8.673l56.11-21.584c4.447-2.566,11.171-2.846,15.022-.623l42.969,25.175c3.85,2.223,3.367,6.107-1.078,8.673l-35.144,33.541C418.541,272.208,411.815,272.487,407.964,270.263Z" transform="translate(-341.43 -200.752)" fill="#d1ebff"/>
      <path id="Path_1602" data-name="Path 1602" d="M455.227,227.427l-42.969-25.175c-3.85-2.223-10.576-1.944-15.022.623l-28.269,10.874a7.033,7.033,0,0,0,.878.606l63.935,37.133a10.807,10.807,0,0,0,3.058,1.134l17.31-16.521C458.594,233.534,459.077,229.65,455.227,227.427Z" transform="translate(-337.448 -200.752)" fill="#a8cff0" opacity="0.5"/>
      <path id="Path_1603" data-name="Path 1603" d="M458.131,231.737l-35.144,33.541c-4.446,2.567-11.171,2.846-15.022.623l-63.935-37.133a4.6,4.6,0,0,1-2.57-3.412c-.2,1.574.641,3.1,2.57,4.218l63.935,37.131c3.85,2.224,10.576,1.945,15.022-.623l35.144-33.541c2.6-1.5,3.834-3.453,3.648-5.261C461.579,228.848,460.349,230.456,458.131,231.737Z" transform="translate(-341.43 -197.194)" fill="#fff"/>
    </g>
    <g id="Group_668" data-name="Group 668" transform="translate(344.849 18.066)">
      <path id="Path_1604" data-name="Path 1604" d="M510.209,298.426,336.369,197.979c-8.888-5.131-16.092-18.9-16.092-30.748V34.28c0-11.85,7.2-17.3,16.092-12.166l173.84,100.448c8.887,5.131,16.092,18.9,16.092,30.747V286.261C526.3,298.111,519.1,303.557,510.209,298.426Z" transform="translate(-320.277 -17.76)" fill="#a8cff0"/>
      <path id="Path_1605" data-name="Path 1605" d="M511.139,287.86,339.75,188.843c-7.153-4.545-11.577-13.628-11.577-22.922V32.1a2.853,2.853,0,0,1,4.3-2.456l.5.293,171.572,99.144c8.514,4.908,11.576,13.629,11.576,22.923V285.4a3.08,3.08,0,0,1-4.606,2.673Z" transform="translate(-319.135 -16.45)" fill="#084c94"/>
      <path id="Path_1606" data-name="Path 1606" d="M504.545,129.076,332.974,29.932l-.5-.293a2.853,2.853,0,0,0-4.3,2.456V165.921c0,9.294,4.424,18.377,11.577,22.922L511.139,287.86l.377.215a3.08,3.08,0,0,0,4.606-2.673V152C516.122,142.705,513.06,133.985,504.545,129.076ZM514.313,285.4a1.279,1.279,0,0,1-1.277,1.274,1.243,1.243,0,0,1-.625-.172L340.654,187.277c-6.459-4.106-10.674-12.5-10.674-21.356V32.1a1.052,1.052,0,0,1,1.052-1.045,1.04,1.04,0,0,1,.524.148l172.084,99.443c8.822,5.084,10.672,14.421,10.672,21.359Z" transform="translate(-319.135 -16.45)" fill="#03336e"/>
      <path id="Path_1607" data-name="Path 1607" d="M514,120.445,340.163,20c-3.516-2.031-6.769-2.4-9.417-1.383-.337.13-4.823,2.515-5.14,2.689l-.023.015c2.751-1.337,6.228-1.087,10.019,1.1l173.84,100.448c8.887,5.13,16.092,18.9,16.092,30.748V286.567c0,7.4-2.807,12.3-7.077,13.688a2.673,2.673,0,0,0,1.41-.48c.2-.118,5.073-2.865,5.268-3,3.057-2.142,4.96-6.54,4.96-12.631V151.193C530.094,139.343,522.89,125.576,514,120.445Z" transform="translate(-319.51 -18.066)" fill="#3f92d1"/>
      <path id="Path_1608" data-name="Path 1608" d="M510.074,122.222,336.236,21.775c-3.644-2.1-6.995-2.4-9.693-1.238a11.879,11.879,0,0,1,7.762,1.818L508.145,122.8c8.887,5.131,16.092,18.9,16.092,30.748V286.5c0,6.99-2.519,11.727-6.4,13.4,4.964-.787,8.329-5.887,8.329-13.983V152.97C526.167,141.12,518.962,127.353,510.074,122.222Z" transform="translate(-319.371 -17.807)" fill="#fff"/>
    </g>
    <g id="Group_673" data-name="Group 673" transform="translate(476.727 124.009)">
      <path id="Path_1609" data-name="Path 1609" d="M485.176,125.973l-24.9-14.4c-4.353-2.514-7.882.155-7.882,5.959v28.824c0,5.8,3.529,12.547,7.882,15.061l24.9,14.4c4.353,2.514,7.882-.155,7.882-5.959V141.035C493.058,135.231,489.529,128.487,485.176,125.973Z" transform="translate(-433.049 -110.624)" fill="#03336e"/>
      <path id="Path_1610" data-name="Path 1610" d="M488.253,173.465l-24.9-14.4C459,156.547,455.469,149.8,455.469,144V115.176a9.447,9.447,0,0,1,.975-4.5c-2.416.4-4.052,2.892-4.052,6.843v28.824c0,5.8,3.529,12.547,7.882,15.061l24.9,14.4c2.977,1.718,5.567,1.012,6.909-1.461A5.8,5.8,0,0,1,488.253,173.465Z" transform="translate(-433.049 -110.616)" fill="#001a46"/>
      <g id="Group_669" data-name="Group 669" transform="translate(0 5.682)">
        <path id="Path_1611" data-name="Path 1611" d="M468.277,133.014l-24.9-14.4c-4.354-2.514-7.883.155-7.883,5.959v28.824c0,5.8,3.529,12.547,7.883,15.061l24.9,14.405c4.353,2.514,7.883-.155,7.883-5.959V148.076C476.16,142.272,472.63,135.529,468.277,133.014Z" transform="translate(-435.493 -115.287)" fill="#f0f8ff"/>
        <path id="Path_1612" data-name="Path 1612" d="M472,130.934l-24.9-14.4a5.149,5.149,0,0,0-4.924-.532l-.044-.047-4.308,2.53.016.053c1.388-.826,3.2-.773,5.2.379l24.9,14.4c4.354,2.514,7.883,9.257,7.883,15.062V177.2c0,2.82-.839,4.892-2.2,6l2.4-1.582a7.094,7.094,0,0,0,3.855-6.8V145.995C479.885,140.191,476.355,133.448,472,130.934Z" transform="translate(-435.156 -115.587)" fill="#a8cff0"/>
        <path id="Path_1613" data-name="Path 1613" d="M476.16,148.076c0-5.8-3.53-12.547-7.883-15.062l-24.9-14.4c-4.354-2.514-7.883.155-7.883,5.959Z" transform="translate(-435.493 -115.287)" fill="#f76195"/>
        <path id="Path_1614" data-name="Path 1614" d="M479.885,145.995c0-5.8-3.53-12.547-7.883-15.061l-24.9-14.4a5.149,5.149,0,0,0-4.924-.532l-.044-.047-4.308,2.53.016.053c1.388-.826,3.2-.773,5.2.379l24.9,14.4c4.354,2.514,7.883,9.257,7.883,15.062Z" transform="translate(-435.156 -115.587)" fill="#d62d69"/>
        <path id="Path_1615" data-name="Path 1615" d="M468.369,132.692l-24.9-14.4c-2.162-1.249-4.119-1.217-5.543-.159a5.323,5.323,0,0,1,4.585.675l24.9,14.4c4.354,2.514,7.883,9.257,7.883,15.062v28.823c0,2.922-.9,5.047-2.338,6.118,1.994-.755,3.3-3.112,3.3-6.634V147.754C476.25,141.949,472.722,135.206,468.369,132.692Z" transform="translate(-435.142 -115.333)" fill="#fff" opacity="0.7"/>
      </g>
      <g id="Group_670" data-name="Group 670" transform="translate(7.038 25.194)">
        <path id="Path_1616" data-name="Path 1616" d="M441.642,155.339a10.363,10.363,0,0,1,.824-4.585,7.778,7.778,0,0,1,2.951-2.961,8.974,8.974,0,0,0,2.9-2.7,6.335,6.335,0,0,0,.807-3.314,6.167,6.167,0,0,0-.5-2.749,3.665,3.665,0,0,0-1.458-1.532q-1.956-1.128-1.956,1.589v2.953l-3.569-2.06V137.3q0-3.346,1.441-4.306t4.187.625a10.851,10.851,0,0,1,4.187,4.209A12.208,12.208,0,0,1,452.9,143.8a8.433,8.433,0,0,1-1.047,4.317,10.6,10.6,0,0,1-3.62,3.424,7.226,7.226,0,0,0-2.265,2.019,4.492,4.492,0,0,0-.583,2.4v.591l7.172,4.141v3.938l-10.913-6.3Z" transform="translate(-441.642 -132.635)" fill="#3f92d1"/>
        <path id="Path_1617" data-name="Path 1617" d="M455.045,164.857a12.2,12.2,0,0,1-1.441-5.97v-2.166l3.569,2.06v2.48a4.039,4.039,0,0,0,1.956,3.807q1.956,1.13,1.956-1.549v-6.182a4.074,4.074,0,0,0-1.956-3.846q-1.956-1.13-1.956,1.588v.236l-3.569-2.06.686-15L464.242,144v3.937l-6.588-3.8-.309,6.4.069.039q1.063-1.394,3.26-.125a7.633,7.633,0,0,1,3.122,3.417,12.2,12.2,0,0,1,1.064,5.3v6.221q0,3.348-1.441,4.307t-4.188-.626A10.84,10.84,0,0,1,455.045,164.857Z" transform="translate(-439.912 -131.822)" fill="#3f92d1"/>
      </g>
      <g id="Group_671" data-name="Group 671" transform="translate(20.73 31.627)">
        <path id="Path_1618" data-name="Path 1618" d="M460.421,162.829c.468-.157.709-.761.709-1.833v-6.182a4.074,4.074,0,0,0-1.956-3.846c-.969-.561-1.577-.409-1.826.45a1.576,1.576,0,0,1,1.24.283,4.074,4.074,0,0,1,1.956,3.846v6.182A4.126,4.126,0,0,1,460.421,162.829Z" transform="translate(-453.063 -136.464)" fill="#2672ab"/>
        <path id="Path_1619" data-name="Path 1619" d="M457.66,142.751l-.051,1.042,6.053,3.5v-1.071Z" transform="translate(-453.025 -137.605)" fill="#2672ab"/>
        <path id="Path_1620" data-name="Path 1620" d="M457.173,155.08a4.881,4.881,0,0,1,.064-.8l-3.047-1.759.639-13.957-.539-.31-.686,15,3.569,2.06Z" transform="translate(-453.604 -138.255)" fill="#2672ab"/>
        <path id="Path_1621" data-name="Path 1621" d="M464.005,166.626q-1.442.96-4.188-.626a10.841,10.841,0,0,1-4.186-4.209,12.2,12.2,0,0,1-1.441-5.97v-1.094l-.586-.339v2.166a12.2,12.2,0,0,0,1.441,5.97,10.84,10.84,0,0,0,4.186,4.209q2.745,1.585,4.188.626a2.518,2.518,0,0,0,.786-.9A2.464,2.464,0,0,1,464.005,166.626Z" transform="translate(-453.604 -135.922)" fill="#2672ab"/>
      </g>
      <g id="Group_672" data-name="Group 672" transform="translate(7.038 25.197)">
        <path id="Path_1622" data-name="Path 1622" d="M445.211,141.072l-2.4-1.384v-2.678q0-3.346,1.441-4.306c.04-.027.085-.044.126-.066a2.244,2.244,0,0,0-1.3.359q-1.44.961-1.441,4.306v2.678l3.569,2.06Z" transform="translate(-441.642 -132.637)" fill="#2672ab"/>
        <path id="Path_1623" data-name="Path 1623" d="M442.814,157.5v-2.993a10.364,10.364,0,0,1,.824-4.585,7.773,7.773,0,0,1,2.952-2.961,9,9,0,0,0,2.9-2.7,6.345,6.345,0,0,0,.806-3.314,6.163,6.163,0,0,0-.5-2.749,3.665,3.665,0,0,0-1.458-1.531c-.8-.46-1.348-.435-1.657.064a3.08,3.08,0,0,1,.485.229,3.665,3.665,0,0,1,1.458,1.532,6.167,6.167,0,0,1,.5,2.749,6.335,6.335,0,0,1-.807,3.314,8.974,8.974,0,0,1-2.9,2.7,7.79,7.79,0,0,0-2.952,2.961,10.381,10.381,0,0,0-.823,4.585V157.8l10.913,6.3v-.97Z" transform="translate(-441.642 -132.101)" fill="#2672ab"/>
      </g>
      <path id="Path_1624" data-name="Path 1624" d="M447.638,123.182c-1.473-.85-2.668-.169-2.668,1.522a5.883,5.883,0,0,0,2.668,4.6c1.474.85,2.669.169,2.669-1.522A5.883,5.883,0,0,0,447.638,123.182Z" transform="translate(-434.122 -108.86)" fill="#3f92d1"/>
      <path id="Path_1625" data-name="Path 1625" d="M461.379,131.354c-1.474-.85-2.669-.169-2.669,1.522a5.881,5.881,0,0,0,2.669,4.6c1.474.85,2.669.169,2.669-1.522A5.883,5.883,0,0,0,461.379,131.354Z" transform="translate(-432.135 -107.678)" fill="#2672ab"/>
      <path id="Path_1626" data-name="Path 1626" d="M449.837,128.135a5.883,5.883,0,0,1-2.669-4.6,2.979,2.979,0,0,1,.05-.544c-1.273-.5-2.248.189-2.248,1.716a5.883,5.883,0,0,0,2.668,4.6c1.3.752,2.385.3,2.619-.979A3.086,3.086,0,0,1,449.837,128.135Z" transform="translate(-434.122 -108.859)" fill="#d62d69"/>
      <path id="Path_1627" data-name="Path 1627" d="M463.577,136.306a5.881,5.881,0,0,1-2.668-4.6,2.979,2.979,0,0,1,.05-.544c-1.273-.5-2.249.189-2.249,1.716a5.883,5.883,0,0,0,2.669,4.6c1.3.752,2.384.3,2.619-.979A2.917,2.917,0,0,1,463.577,136.306Z" transform="translate(-432.135 -107.677)" fill="#d62d69"/>
    </g>
    <g id="Group_688" data-name="Group 688" transform="translate(316.696 24.114)">
      <path id="Path_1628" data-name="Path 1628" d="M295.681,136.057V29.52c0-4.51,2.741-6.582,6.124-4.63L426.579,97.084c3.382,1.953,6.124,7.19,6.124,11.7V215.323Z" transform="translate(-295.681 -23.233)" fill="#f0f8ff"/>
      <path id="Path_1629" data-name="Path 1629" d="M434.147,214.517V107.98c0-4.51-2.742-9.749-6.125-11.7L303.247,24.085a4.141,4.141,0,0,0-3.583-.527c-.128.05-1.836.957-1.956,1.023l-.006,0a4.006,4.006,0,0,1,3.809.42L426.287,97.2c3.382,1.953,6.124,7.19,6.124,11.7V215.44Z" transform="translate(-295.389 -23.35)" fill="#a8cff0"/>
      <path id="Path_1630" data-name="Path 1630" d="M434.147,115.342V107.98c0-4.51-2.742-9.749-6.125-11.7L303.247,24.085a4.141,4.141,0,0,0-3.583-.527c-.128.05-1.836.957-1.956,1.023l-.006,0a4.006,4.006,0,0,1,3.809.42L426.287,97.2c3.382,1.953,6.124,7.19,6.124,11.7v7.362Z" transform="translate(-295.389 -23.35)" fill="#0ba19f"/>
      <path id="Path_1631" data-name="Path 1631" d="M426.579,97.084,301.8,24.89c-3.382-1.953-6.124.12-6.124,4.63v7.223L432.7,116.007v-7.223C432.7,104.275,429.962,99.037,426.579,97.084Z" transform="translate(-295.681 -23.234)" fill="#0fbab8"/>
      <path id="Path_1632" data-name="Path 1632" d="M321.271,43.657c0,1.668-1.178,2.34-2.631,1.5a5.8,5.8,0,0,1-2.633-4.541c0-1.668,1.179-2.34,2.633-1.5A5.8,5.8,0,0,1,321.271,43.657Z" transform="translate(-292.742 -21.122)" fill="#f0f8ff"/>
      <path id="Path_1633" data-name="Path 1633" d="M314.018,39.614c0,1.668-1.178,2.34-2.631,1.5a5.8,5.8,0,0,1-2.631-4.54c0-1.668,1.178-2.34,2.631-1.5A5.8,5.8,0,0,1,314.018,39.614Z" transform="translate(-293.79 -21.707)" fill="#f0f8ff"/>
      <path id="Path_1634" data-name="Path 1634" d="M306.706,35.473c0,1.668-1.178,2.34-2.631,1.5a5.8,5.8,0,0,1-2.631-4.54c0-1.669,1.178-2.341,2.631-1.5A5.8,5.8,0,0,1,306.706,35.473Z" transform="translate(-294.848 -22.306)" fill="#f0f8ff"/>
      <path id="Path_1635" data-name="Path 1635" d="M374.54,98.061,361.555,90.6v2.633l12.985,7.458Zm1.882,3.718,9.618,5.531v-2.631l-9.618-5.531ZM359.674,89.516l-6.468-3.734v2.631l6.468,3.735Zm-8.351-4.821-14.959-8.606V78.72l14.959,8.608Zm-1.2-9.521-42.4-24.842v3.994l42.4,24.843ZM334.482,75l-15.573-8.985v2.631l15.573,8.985ZM317.027,64.929l-9.3-5.5v2.631l9.3,5.5Z" transform="translate(-293.939 -19.448)" fill="#3f92d1"/>
      <path id="Path_1636" data-name="Path 1636" d="M388.465,148.055l3.11,1.8v-2.631l-3.11-1.8Zm-9.339-5.368,7.457,4.282v-2.631l-7.457-4.282Zm-24.393-14.046,8,4.617v-2.631l-8-4.617Zm-9.784-5.619,7.9,4.533v-2.631l-7.9-4.533Zm19.663,11.323,12.632,7.256v-2.633l-12.632-7.255Zm-43.7-25.2,22.159,12.788V119.3l-22.159-12.788Zm-1.882-3.719-11.3-6.657V101.4l11.3,6.657Zm31.1,8.98-42.4-24.842v3.994l42.4,24.843Z" transform="translate(-293.939 -13.774)" fill="#3f92d1"/>
      <g id="Group_674" data-name="Group 674" transform="translate(20.953 99.132)">
        <path id="Path_1637" data-name="Path 1637" d="M323.76,126.961a.538.538,0,0,1-.272-.073l-9.229-5.327a.546.546,0,0,1-.271-.472V110.5a.544.544,0,0,1,.816-.472l9.228,5.328a.542.542,0,0,1,.272.47v10.589a.545.545,0,0,1-.544.544Zm-8.684-6.187,8.139,4.7v-9.331l-8.139-4.7Z" transform="translate(-313.987 -109.957)" fill="#a8cff0"/>
      </g>
      <g id="Group_675" data-name="Group 675" transform="translate(11.912 97.271)">
        <path id="Path_1638" data-name="Path 1638" d="M306.143,114.2a.369.369,0,0,1-.055-.19l.017-.082,2.184-5.474c.061-.14.169-.164.327-.072l1,.578a.72.72,0,0,1,.327.45l2.183,8,.019.105a.12.12,0,0,1-.06.121.135.135,0,0,1-.132-.013l-.81-.468a.58.58,0,0,1-.263-.35l-.418-1.506-2.693-1.554-.42,1.022c-.048.1-.136.12-.263.046l-.809-.468A.363.363,0,0,1,306.143,114.2Zm1.946-1.487,2.057,1.187-1.028-3.809Z" transform="translate(-306.088 -108.331)" fill="#084c94"/>
      </g>
      <g id="Group_676" data-name="Group 676" transform="translate(49.122 115.395)">
        <path id="Path_1639" data-name="Path 1639" d="M348.37,141.171a.538.538,0,0,1-.272-.073l-9.228-5.328a.542.542,0,0,1-.272-.47V124.71a.544.544,0,0,1,.816-.47l9.229,5.327a.546.546,0,0,1,.271.472v10.588a.546.546,0,0,1-.271.472A.54.54,0,0,1,348.37,141.171Zm-8.684-6.187,8.139,4.7v-9.331l-8.139-4.7Z" transform="translate(-338.597 -124.165)" fill="#a8cff0"/>
      </g>
      <g id="Group_677" data-name="Group 677" transform="translate(40.664 112.556)">
        <path id="Path_1640" data-name="Path 1640" d="M331.27,128.866a.425.425,0,0,1-.063-.214v-6.8a.169.169,0,0,1,.058-.153c.04-.026.093-.019.159.018l2.639,1.525a4.435,4.435,0,0,1,1.592,1.456,3.3,3.3,0,0,1,.529,1.772,1.126,1.126,0,0,1-.234.791.684.684,0,0,1-.541.236,3.675,3.675,0,0,1,.646,1.02,2.915,2.915,0,0,1,.266,1.176q0,.972-.575,1.235a1.821,1.821,0,0,1-1.6-.33l-2.721-1.572A.429.429,0,0,1,331.27,128.866Zm2.63-2.722c.309.179.547.23.714.152s.251-.262.251-.555a1.486,1.486,0,0,0-.247-.821,2.053,2.053,0,0,0-.718-.655l-1.411-.814v1.878Zm.09,3.248q.472.273.737.128a.63.63,0,0,0,.263-.6,1.767,1.767,0,0,0-.269-.912,1.979,1.979,0,0,0-.731-.72l-1.5-.868v2.11Z" transform="translate(-331.207 -121.685)" fill="#084c94"/>
      </g>
      <g id="Group_678" data-name="Group 678" transform="translate(76.563 131.238)">
        <path id="Path_1641" data-name="Path 1641" d="M372.343,155.012a.538.538,0,0,1-.272-.073l-9.228-5.328a.543.543,0,0,1-.271-.47V138.551a.544.544,0,0,1,.816-.47l9.228,5.327a.546.546,0,0,1,.271.472v10.588a.546.546,0,0,1-.271.472A.541.541,0,0,1,372.343,155.012Zm-8.683-6.187,8.138,4.7v-9.331l-8.138-4.7Z" transform="translate(-362.571 -138.007)" fill="#a8cff0"/>
      </g>
      <g id="Group_679" data-name="Group 679" transform="translate(67.877 129.136)">
        <path id="Path_1642" data-name="Path 1642" d="M355.723,142.315a5.088,5.088,0,0,1-.731-2.515c-.006-.192-.009-.5-.009-.926s0-.742.009-.933q.045-1.312.737-1.659a2.119,2.119,0,0,1,1.938.373,5.77,5.77,0,0,1,1.41,1.132,5.39,5.39,0,0,1,.933,1.411,3.757,3.757,0,0,1,.35,1.445v.021a.1.1,0,0,1-.06.108.15.15,0,0,1-.13-.019l-.884-.51a.438.438,0,0,1-.164-.151.826.826,0,0,1-.092-.258,2.9,2.9,0,0,0-.472-1.185,2.85,2.85,0,0,0-.893-.782q-1.3-.752-1.355.888c-.007.183-.009.472-.009.862s0,.687.009.892a2.722,2.722,0,0,0,1.355,2.453,1.343,1.343,0,0,0,.888.246c.227-.046.386-.258.476-.638.024-.082.055-.134.092-.151s.092,0,.164.037l.884.51a.4.4,0,0,1,.14.144.286.286,0,0,1,.05.185,1.539,1.539,0,0,1-.35,1.039,1.127,1.127,0,0,1-.933.334,3.268,3.268,0,0,1-1.41-.5A5.348,5.348,0,0,1,355.723,142.315Z" transform="translate(-354.982 -136.171)" fill="#084c94"/>
      </g>
      <g id="Group_680" data-name="Group 680" transform="translate(20.953 54.495)">
        <path id="Path_1643" data-name="Path 1643" d="M323.76,87.965a.538.538,0,0,1-.272-.073l-9.229-5.328a.543.543,0,0,1-.271-.47V71.5a.544.544,0,0,1,.816-.47l9.228,5.327a.545.545,0,0,1,.272.472V87.42a.545.545,0,0,1-.272.472A.537.537,0,0,1,323.76,87.965Zm-8.684-6.187,8.139,4.7v-9.33l-8.139-4.7Z" transform="translate(-313.987 -70.96)" fill="#a8cff0"/>
      </g>
      <g id="Group_681" data-name="Group 681" transform="translate(11.912 52.635)">
        <path id="Path_1644" data-name="Path 1644" d="M306.143,75.206a.362.362,0,0,1-.055-.189l.017-.082,2.184-5.474c.061-.14.169-.164.327-.072l1,.578a.72.72,0,0,1,.327.45l2.183,8,.019.105a.12.12,0,0,1-.06.121.138.138,0,0,1-.132-.013l-.81-.468a.579.579,0,0,1-.263-.351l-.418-1.505-2.693-1.554-.42,1.022c-.048.1-.136.12-.263.046l-.809-.468A.359.359,0,0,1,306.143,75.206Zm1.946-1.486,2.057,1.186L309.118,71.1Z" transform="translate(-306.088 -69.334)" fill="#084c94"/>
      </g>
      <g id="Group_682" data-name="Group 682" transform="translate(49.122 70.759)">
        <path id="Path_1645" data-name="Path 1645" d="M348.37,102.174a.549.549,0,0,1-.272-.073l-9.228-5.328a.542.542,0,0,1-.272-.47V85.713a.544.544,0,0,1,.816-.47l9.229,5.327a.546.546,0,0,1,.271.472v10.588a.546.546,0,0,1-.271.472A.552.552,0,0,1,348.37,102.174Zm-8.684-6.187,8.139,4.7v-9.33l-8.139-4.7Z" transform="translate(-338.597 -85.169)" fill="#a8cff0"/>
      </g>
      <g id="Group_683" data-name="Group 683" transform="translate(40.664 67.919)">
        <path id="Path_1646" data-name="Path 1646" d="M331.27,89.869a.425.425,0,0,1-.063-.215v-6.8a.172.172,0,0,1,.058-.155.153.153,0,0,1,.159.019l2.639,1.523a4.437,4.437,0,0,1,1.592,1.457,3.3,3.3,0,0,1,.529,1.772,1.123,1.123,0,0,1-.234.79.686.686,0,0,1-.541.237,3.685,3.685,0,0,1,.646,1.019,2.916,2.916,0,0,1,.266,1.177q0,.97-.575,1.235a1.82,1.82,0,0,1-1.6-.33l-2.721-1.572A.438.438,0,0,1,331.27,89.869Zm2.63-2.722c.309.179.547.23.714.152s.251-.263.251-.555a1.486,1.486,0,0,0-.247-.821,2.053,2.053,0,0,0-.718-.655l-1.411-.815v1.879Zm.09,3.248q.472.273.737.128a.63.63,0,0,0,.263-.6,1.764,1.764,0,0,0-.269-.912,1.979,1.979,0,0,0-.731-.72l-1.5-.868v2.11Z" transform="translate(-331.207 -82.688)" fill="#084c94"/>
      </g>
      <g id="Group_684" data-name="Group 684" transform="translate(76.563 86.601)">
        <path id="Path_1647" data-name="Path 1647" d="M372.343,116.015a.549.549,0,0,1-.272-.073l-9.228-5.328a.543.543,0,0,1-.271-.47V99.554a.544.544,0,0,1,.816-.47l9.228,5.327a.546.546,0,0,1,.271.472V115.47a.546.546,0,0,1-.271.472A.553.553,0,0,1,372.343,116.015Zm-8.683-6.187,8.138,4.7V105.2l-8.138-4.7Z" transform="translate(-362.571 -99.009)" fill="#a8cff0"/>
      </g>
      <g id="Group_685" data-name="Group 685" transform="translate(67.877 84.5)">
        <path id="Path_1648" data-name="Path 1648" d="M355.723,103.318a5.1,5.1,0,0,1-.731-2.516q-.009-.287-.009-.925c0-.432,0-.742.009-.933q.045-1.312.737-1.659a2.119,2.119,0,0,1,1.938.373,5.77,5.77,0,0,1,1.41,1.132,5.4,5.4,0,0,1,.933,1.41,3.762,3.762,0,0,1,.35,1.446v.019c0,.057-.019.093-.06.108a.149.149,0,0,1-.13-.018l-.884-.51a.447.447,0,0,1-.164-.151.837.837,0,0,1-.092-.258,2.909,2.909,0,0,0-.472-1.186,2.847,2.847,0,0,0-.893-.781q-1.3-.752-1.355.888c-.007.183-.009.472-.009.861s0,.688.009.893a2.722,2.722,0,0,0,1.355,2.453,1.343,1.343,0,0,0,.888.246c.227-.047.386-.259.476-.638.024-.084.055-.134.092-.151s.092-.006.164.037l.884.509a.407.407,0,0,1,.14.145.282.282,0,0,1,.05.184,1.54,1.54,0,0,1-.35,1.04,1.123,1.123,0,0,1-.933.333,3.249,3.249,0,0,1-1.41-.494A5.357,5.357,0,0,1,355.723,103.318Z" transform="translate(-354.982 -97.174)" fill="#084c94"/>
      </g>
      <g id="Group_686" data-name="Group 686" transform="translate(105.519 147.956)">
        <path id="Path_1649" data-name="Path 1649" d="M397.64,169.616a.537.537,0,0,1-.271-.073l-9.228-5.327a.545.545,0,0,1-.272-.472V153.157a.545.545,0,0,1,.817-.472l9.227,5.328a.542.542,0,0,1,.272.47v10.589a.545.545,0,0,1-.545.544Zm-8.683-6.187,8.139,4.7V158.8l-8.139-4.7Z" transform="translate(-387.868 -152.612)" fill="#a8cff0"/>
      </g>
      <g id="Group_687" data-name="Group 687" transform="translate(97.06 145.117)">
        <path id="Path_1650" data-name="Path 1650" d="M380.542,157.314a.434.434,0,0,1-.064-.215v-6.8a.171.171,0,0,1,.058-.153.15.15,0,0,1,.16.019l2.219,1.281a4.98,4.98,0,0,1,2.74,4.422q.017.616.017.825t-.017.793c-.025.961-.254,1.546-.688,1.759s-1.1.057-2.006-.465l-2.265-1.307A.429.429,0,0,1,380.542,157.314Zm2.374.231c.5.292.868.372,1.092.245s.342-.489.355-1.079c.013-.412.018-.668.018-.773s-.006-.372-.018-.783a3.011,3.011,0,0,0-.373-1.473,2.962,2.962,0,0,0-1.118-1.048l-1.111-.642v4.887Z" transform="translate(-380.478 -150.132)" fill="#084c94"/>
      </g>
      <path id="Path_1651" data-name="Path 1651" d="M339.775,130.049l3.266,5.625,8.347-4.718-2-2.722-5.9,5.806-1.089-4.355Z" transform="translate(-289.304 -8.182)" fill="#eb4680"/>
      <path id="Path_1652" data-name="Path 1652" d="M315.707,77.306l3.266,5.625,8.347-4.718-2-2.722-5.9,5.806-1.089-4.355Z" transform="translate(-292.785 -15.809)" fill="#eb4680"/>
    </g>
    <g id="Group_689" data-name="Group 689" transform="translate(391.372 134.162)">
      <path id="Path_1653" data-name="Path 1653" d="M379.345,144.755c0,23.492,16.659,52.222,37.135,64.043,5.606,3.238,11.147,4.948,16.025,4.948,11.578,0,18.773-9.488,18.773-24.76,0-23.492-16.659-52.222-37.135-64.043C408.537,121.705,403,120,398.118,120,386.54,120,379.345,129.483,379.345,144.755Z" transform="translate(-358.258 -119.422)" fill="#03336e" opacity="0.3"/>
      <path id="Path_1654" data-name="Path 1654" d="M365.007,149.875c0,23.493,16.659,52.223,37.135,64.044,5.605,3.237,11.147,4.947,16.025,4.947,11.578,0,18.773-9.487,18.773-24.759,0-23.492-16.659-52.222-37.135-64.043-5.606-3.238-11.147-4.948-16.025-4.948C372.2,125.116,365.007,134.6,365.007,149.875Z" transform="translate(-360.331 -118.681)" fill="#fff"/>
      <path id="Path_1655" data-name="Path 1655" d="M392.051,191.642a2.194,2.194,0,0,0,.49-.055l27.376-6.324c2.1-.486,2.1-4.067,0-6.982l-27.376-37.935c-1.218-1.688-2.664-2.527-3.815-2.527-1.179,0-2.049.881-2.049,2.633v44.259c0,3.236,2.973,6.931,5.374,6.932Z" transform="translate(-357.197 -116.844)" fill="#fc0"/>
      <path id="Path_1656" data-name="Path 1656" d="M402.784,217.023c-21.766-12.567-39.472-43.112-39.472-68.093,0-17.882,9.2-29.436,23.449-29.436,5.779,0,11.956,1.875,18.362,5.574,21.766,12.567,39.473,43.112,39.473,68.093,0,17.882-9.2,29.436-23.45,29.436C415.368,222.6,409.192,220.723,402.784,217.023Zm-34.8-68.093c0,23.492,16.659,52.223,37.135,64.044,5.605,3.237,11.146,4.947,16.023,4.947,11.579,0,18.773-9.487,18.773-24.759,0-23.492-16.659-52.223-37.135-64.044-5.605-3.237-11.146-4.947-16.023-4.947C375.182,124.171,367.988,133.658,367.988,148.93Z" transform="translate(-360.576 -119.494)" fill="#fc0"/>
      <path id="Path_1657" data-name="Path 1657" d="M390.118,192.875a2.129,2.129,0,0,0,.49-.055l27.376-6.324c2.1-.485,2.1-4.066,0-6.981l-27.376-37.936c-1.218-1.687-2.664-2.526-3.815-2.526-1.179,0-2.049.88-2.049,2.631v44.26c0,3.236,2.973,6.931,5.374,6.931Z" transform="translate(-357.477 -116.665)" fill="#fff"/>
      <path id="Path_1658" data-name="Path 1658" d="M389.734,193.131a2.131,2.131,0,0,0,.49-.055l27.376-6.324c2.1-.485,2.1-4.066,0-6.981l-27.376-37.936c-1.218-1.687-2.664-2.526-3.815-2.526-1.179,0-2.05.88-2.05,2.631V186.2c0,3.236,2.974,6.931,5.375,6.931Z" transform="translate(-357.533 -116.628)" fill="#ffde17"/>
      <path id="Path_1659" data-name="Path 1659" d="M400.907,218.3c-21.766-12.567-39.473-43.112-39.473-68.093,0-17.882,9.2-29.435,23.449-29.435,5.779,0,11.956,1.874,18.362,5.573,21.767,12.567,39.473,43.112,39.473,68.093,0,17.882-9.2,29.436-23.449,29.436C413.49,223.878,407.314,222,400.907,218.3Zm-34.8-68.093c0,23.493,16.659,52.223,37.135,64.044,5.606,3.237,11.147,4.947,16.025,4.947,11.578,0,18.773-9.487,18.773-24.759,0-23.492-16.659-52.222-37.135-64.043-5.605-3.238-11.147-4.948-16.025-4.948C373.3,125.451,366.11,134.937,366.11,150.21Z" transform="translate(-360.848 -119.309)" fill="#fff"/>
      <path id="Path_1660" data-name="Path 1660" d="M400.4,218.56c-21.767-12.568-39.473-43.113-39.473-68.094,0-17.882,9.2-29.435,23.449-29.435,5.779,0,11.956,1.874,18.362,5.573,21.766,12.567,39.473,43.112,39.473,68.093,0,17.882-9.2,29.436-23.449,29.436C412.978,224.134,406.8,222.259,400.4,218.56Zm-34.8-68.094c0,23.493,16.659,52.223,37.135,64.044,5.605,3.237,11.147,4.947,16.025,4.947,11.578,0,18.773-9.487,18.773-24.759,0-23.492-16.659-52.222-37.135-64.043-5.606-3.238-11.147-4.948-16.025-4.948C372.793,125.707,365.6,135.193,365.6,150.466Z" transform="translate(-360.922 -119.272)" fill="#ffde17"/>
    </g>
    <g id="Group_705" data-name="Group 705" transform="translate(150.367 87.909)">
      <g id="Group_702" data-name="Group 702" transform="translate(29.616)">
        <g id="Group_690" data-name="Group 690" transform="translate(116.442 104.411)">
          <path id="Path_1661" data-name="Path 1661" d="M277.971,225.862v18.81a4.068,4.068,0,0,0,6.367,3.356l54.467-41.486V173.035a2.726,2.726,0,0,0-4.266-2.25l-46.493,35.97A23.154,23.154,0,0,0,277.971,225.862Z" transform="translate(-277.971 -170.304)" fill="#72b5e8"/>
        </g>
        <path id="Path_1662" data-name="Path 1662" d="M290.206,251.739V232.93a23.154,23.154,0,0,1,10.075-19.107l46.493-35.97a2.686,2.686,0,0,1,2.658-.231L252.608,121.68a2.689,2.689,0,0,0-2.672.225l-46.492,35.97a23.154,23.154,0,0,0-10.075,19.107v18.81a4.039,4.039,0,0,0,2.657,3.816l96.444,55.833.046-.041A4.021,4.021,0,0,1,290.206,251.739Z" transform="translate(-173.764 -72.961)" fill="#a8cff0"/>
        <path id="Path_1663" data-name="Path 1663" d="M278.223,244.873v-18.81A23.157,23.157,0,0,1,288.3,206.957l46.493-35.97a2.679,2.679,0,0,1,1.718-.472,2.724,2.724,0,0,0-3.711-.6l-46.492,35.97A23.154,23.154,0,0,0,276.23,224.99V243.8a4.053,4.053,0,0,0,3.216,3.978A4,4,0,0,1,278.223,244.873Z" transform="translate(-161.781 -66.018)" fill="#d1ebff"/>
        <g id="Group_692" data-name="Group 692" transform="translate(128.81 103.341)">
          <path id="Path_1664" data-name="Path 1664" d="M293.063,239.665V222.786c0-5.486,3.338-13.194,8.922-17.016l38.5-35.023a2.381,2.381,0,0,1,2.354-.2l-1.5-.949a2.379,2.379,0,0,0-2.365.2l-38.5,35.023c-5.583,3.822-8.922,11.53-8.922,17.017v22.029l-1.513-.684-1.265.92,4.287,2.4,2.045-3.592A3.563,3.563,0,0,1,293.063,239.665Z" transform="translate(-288.776 -169.369)" fill="#2672ab"/>
          <g id="Group_691" data-name="Group 691" transform="translate(4.287 0.952)">
            <path id="Path_1665" data-name="Path 1665" d="M292.521,222.666v23.713l43.937-24.048a16.711,16.711,0,0,0,7.265-13.785V172.62a2.415,2.415,0,0,0-3.778-1.993l-38.5,35.023C295.859,209.472,292.521,217.18,292.521,222.666Z" transform="translate(-292.521 -170.201)" fill="#03336e"/>
          </g>
        </g>
        <path id="Path_1666" data-name="Path 1666" d="M298.463,206.773a25.773,25.773,0,0,0-11.22,21.277V244.7l-90.425-52.359-.2-.077a1.421,1.421,0,0,1-.948-1.352V172.1a20.514,20.514,0,0,1,8.931-16.937Z" transform="translate(-173.432 -68.082)" fill="#d1ebff" opacity="0.5"/>
        <path id="Path_1667" data-name="Path 1667" d="M287.243,222.161v20.4L196.819,190.2l-.2-.077a1.421,1.421,0,0,1-.948-1.352V169.963Z" transform="translate(-173.432 -65.942)" fill="#a8cff0"/>
        <path id="Path_1668" data-name="Path 1668" d="M199.385,196.973l-.2-.076a1.423,1.423,0,0,1-.947-1.353V176.734a20.517,20.517,0,0,1,8.93-16.937l46.493-35.97,1.281-.726-1.184-.68-2.665,1.51L204.6,159.9a20.514,20.514,0,0,0-8.931,16.937v18.811a1.421,1.421,0,0,0,.948,1.352l.2.077,90.425,52.359v-1.585Z" transform="translate(-173.432 -72.817)" fill="#3f92d1"/>
        <path id="Path_1669" data-name="Path 1669" d="M317.233,186.588,330.64,176.2l-83.868-48.89L233,137.949a2.954,2.954,0,0,0,.18,4.992l75.4,43.96A8.107,8.107,0,0,0,317.233,186.588Z" transform="translate(-168.219 -72.11)" fill="#001a46"/>
        <path id="Path_1670" data-name="Path 1670" d="M203.621,180.189v11.531l73.868,42.894V222.941Z" transform="translate(-172.281 -64.463)" fill="#001a46"/>
        <path id="Path_1671" data-name="Path 1671" d="M205.46,190.913v-9.383l-1.839-1.059V191.68l73.868,42.894v-1.831Z" transform="translate(-172.281 -64.422)" fill="#9d9eb3" style="mix-blend-mode: multiply;isolation: isolate"/>
        <g id="Group_693" data-name="Group 693" transform="translate(111.959 105.391)">
          <path id="Path_1672" data-name="Path 1672" d="M284.819,178.164a3.879,3.879,0,0,1-3.786.179l-6.161-3.535a1.3,1.3,0,0,1-.064-2.388,3.874,3.874,0,0,1,3.785-.18l6.161,3.535A1.3,1.3,0,0,1,284.819,178.164Z" transform="translate(-274.055 -171.063)" fill="#2672ab"/>
          <path id="Path_1673" data-name="Path 1673" d="M295.4,184.237a3.879,3.879,0,0,1-3.786.179l-6.16-3.535a1.3,1.3,0,0,1-.065-2.388,3.876,3.876,0,0,1,3.786-.18l6.161,3.535A1.3,1.3,0,0,1,295.4,184.237Z" transform="translate(-272.524 -170.185)" fill="#2672ab"/>
          <path id="Path_1674" data-name="Path 1674" d="M284.754,175.1l-6.161-3.535a3.877,3.877,0,0,0-3.785.179,1.3,1.3,0,0,0,.064,2.389l6.161,3.535a3.876,3.876,0,0,0,3.786-.18A1.3,1.3,0,0,0,284.754,175.1Z" transform="translate(-274.055 -171.16)" fill="#eb4680"/>
          <path id="Path_1675" data-name="Path 1675" d="M295.34,181.177l-6.161-3.535a3.879,3.879,0,0,0-3.786.179,1.3,1.3,0,0,0,.065,2.388l6.16,3.536a3.876,3.876,0,0,0,3.786-.18A1.3,1.3,0,0,0,295.34,181.177Z" transform="translate(-272.524 -170.282)" fill="#0fbab8"/>
          <path id="Path_1676" data-name="Path 1676" d="M295.4,182.861a3.876,3.876,0,0,1-3.786.18l-6.16-3.535a1.509,1.509,0,0,1-.779-.949,1.315,1.315,0,0,0,.779,1.461l6.16,3.536a3.876,3.876,0,0,0,3.786-.18,1.393,1.393,0,0,0,.714-1.44A1.661,1.661,0,0,1,295.4,182.861Z" transform="translate(-272.523 -170.09)" fill="#3ecfcd"/>
          <path id="Path_1677" data-name="Path 1677" d="M284.819,176.789a3.879,3.879,0,0,1-3.786.179l-6.161-3.535a1.507,1.507,0,0,1-.778-.949,1.317,1.317,0,0,0,.778,1.462l6.161,3.535a3.876,3.876,0,0,0,3.786-.18,1.393,1.393,0,0,0,.714-1.44A1.666,1.666,0,0,1,284.819,176.789Z" transform="translate(-274.054 -170.968)" fill="#f76195"/>
        </g>
        <g id="Group_695" data-name="Group 695" transform="translate(5.34 121.891)">
          <g id="Group_694" data-name="Group 694">
            <path id="Path_1678" data-name="Path 1678" d="M182.911,199.865v4.759l-2.005-1.223v-4.759Z" transform="translate(-180.906 -183.686)" fill="#a8cff0"/>
            <path id="Path_1679" data-name="Path 1679" d="M182.645,201.6v4.759L208.3,191.4v-4.743Z" transform="translate(-180.654 -185.419)" fill="#72b5e8"/>
            <path id="Path_1680" data-name="Path 1680" d="M208.551,186.815,182.9,201.754l-1.991-1.224,25.681-14.955Z" transform="translate(-180.906 -185.575)" fill="#d1ebff"/>
          </g>
        </g>
        <g id="Group_697" data-name="Group 697" transform="translate(0 125.038)">
          <g id="Group_696" data-name="Group 696">
            <path id="Path_1681" data-name="Path 1681" d="M247.875,245.77v2.376l-71.635-40.563v-2.376Z" transform="translate(-176.241 -185.883)" fill="#a8cff0"/>
            <path id="Path_1682" data-name="Path 1682" d="M238.809,243.084v2.376l33.148-19.324v-2.355Z" transform="translate(-167.192 -183.197)" fill="#72b5e8"/>
            <path id="Path_1683" data-name="Path 1683" d="M281,228.908l-33.148,19.3-71.616-40.563,33.183-19.324Z" transform="translate(-176.241 -188.325)" fill="#d1ebff"/>
          </g>
        </g>
        <g id="Group_699" data-name="Group 699" transform="translate(77.858 163.838)">
          <g id="Group_698" data-name="Group 698">
            <path id="Path_1684" data-name="Path 1684" d="M246.266,236.511v4.759l-2.005-1.224v-4.759Z" transform="translate(-244.261 -220.333)" fill="#a8cff0"/>
            <path id="Path_1685" data-name="Path 1685" d="M246,238.244V243l25.654-14.955v-4.743Z" transform="translate(-244.01 -222.066)" fill="#72b5e8"/>
            <path id="Path_1686" data-name="Path 1686" d="M271.906,223.462,246.252,238.4l-1.991-1.224,25.681-14.955Z" transform="translate(-244.261 -222.222)" fill="#d1ebff"/>
          </g>
        </g>
        <g id="Group_701" data-name="Group 701" transform="translate(74.837)">
          <g id="Group_700" data-name="Group 700">
            <path id="Path_1687" data-name="Path 1687" d="M324.63,127.139v58.367l-83.008-47V80.136Z" transform="translate(-241.622 -78.932)" fill="#a8cff0"/>
            <path id="Path_1688" data-name="Path 1688" d="M314.124,121.349v58.367l2.248-1.2V120.17Z" transform="translate(-231.137 -73.143)" fill="#72b5e8"/>
            <path id="Path_1689" data-name="Path 1689" d="M326.857,126.112l-2.248,1.179-82.986-47,2.289-1.2Z" transform="translate(-241.622 -79.084)" fill="#d1ebff"/>
            <path id="Path_1690" data-name="Path 1690" d="M317.81,138.588v44.586l-71.732-40.618V97.97Z" transform="translate(-240.978 -76.353)" fill="#fff"/>
          </g>
        </g>
      </g>
      <path id="Path_1691" data-name="Path 1691" d="M218.133,266.038l-67.766-39.125,65.173-38.842L283.306,227.2Z" transform="translate(-150.367 -63.323)" fill="#92b4d1"/>
      <path id="Path_1692" data-name="Path 1692" d="M218.263,264.371,150.5,225.246,215.5,187.973,283.271,227.1Z" transform="translate(-150.348 -63.337)" fill="#fff"/>
      <g id="Group_704" data-name="Group 704" transform="translate(21.138 132.634)">
        <path id="Path_1693" data-name="Path 1693" d="M211.328,226.145l1.853-1.07-6.661-3.846-1.854,1.07Zm10.223-.824-14.989-8.654-1.853,1.07,14.988,8.654Zm-33.472-12.6,14.989,8.653,1.854-1.07-14.989-8.653Zm52.5,19L219.66,219.642l-1.853,1.07,20.918,12.077Zm-22.516-13-14.989-8.654-1.854,1.07,14.989,8.654Zm5.088,7.524-1.854,1.07,3.73,2.154,1.854-1.07Zm19.027,6.4-1.854,1.069,8.35,4.821,1.853-1.07Zm2.889,6.254-16.587-9.577-1.854,1.07,16.588,9.577Zm-43.592-29.754-9.3-5.372-1.853,1.07,9.3,5.372Zm-4.9,30.022-14.989-8.653-1.853,1.07,14.989,8.653Zm-16.587-9.577-9.3-5.372-1.853,1.07,9.3,5.372Zm8.342-18.859-4.108-2.372-1.853,1.07,4.108,2.372Zm16.629,5.015L188.2,206.065l-1.853,1.069,16.765,9.68Z" transform="translate(-168.834 -193.687)" fill="#3f92d1"/>
        <path id="Path_1694" data-name="Path 1694" d="M211.522,250.028a1.676,1.676,0,0,1-.224-.015.587.587,0,0,1-.492-.445c-.617-2.532.263-5.31,2.686-8.485a4.156,4.156,0,0,0-1.148-1.361c-.119-.093-.569-.418-.663-.488a4.811,4.811,0,0,1-.868,1.871.589.589,0,0,1-.472.233l-.12-.011a.592.592,0,0,1-.451-.443,8.762,8.762,0,0,1-.242-4.327,4.516,4.516,0,0,1,.948-1.755l-1.756.261a8.014,8.014,0,0,1-.5,6.568.588.588,0,0,1-.252.244,3.976,3.976,0,0,1-1.8.4,5,5,0,0,1-.928-.087,11.28,11.28,0,0,1-1.264,4.782.585.585,0,0,1-.522.318,2.75,2.75,0,0,1-2.21-1.411,4.206,4.206,0,0,1-.37-2c-.011-1.6.006-3.207.049-4.791a6.081,6.081,0,0,1-1.038-2.308,1.068,1.068,0,0,1-.136-.247,6.912,6.912,0,0,1-.731-3.04,5.726,5.726,0,0,0-.618-2.6l-.153-.32,1.061-.507.153.322a6.913,6.913,0,0,1,.733,3.048c.011.262.022.516.057.789a.593.593,0,0,1,.325-.149l1.09-.125a.615.615,0,0,1,.456.159.575.575,0,0,1,.18.464c-.056.939-.1,1.884-.142,2.829a4.917,4.917,0,0,0,.548.088,3.3,3.3,0,0,1,1.314.349,2.064,2.064,0,0,1,.9,1.372,10.752,10.752,0,0,1,.29,1.765,4.031,4.031,0,0,0,.952.117,3.015,3.015,0,0,0,1.108-.192,6.969,6.969,0,0,0,.093-6.076.587.587,0,0,1,.454-.815l5.527-.822a.608.608,0,0,1,.65.484.591.591,0,0,1-.474.675,3.62,3.62,0,0,0-2.856,2.5.585.585,0,0,1,.354-.139h0a.572.572,0,0,1,.587.426,4.042,4.042,0,0,1,.12.565,4.515,4.515,0,0,0,.92.783c.141.1.28.2.41.3a5.348,5.348,0,0,1,1.214,1.307c.128-.153.256-.3.382-.45.452-.523.918-1.045,1.386-1.566.943-1.05,1.916-2.135,2.756-3.252.087-.539.214-1.119.373-1.726a3,3,0,0,1,2.124-2.44l.04-.009.1-.006a.588.588,0,0,1,.562.766,13.52,13.52,0,0,1-2.077,3.884,9.362,9.362,0,0,0,.063,3.357,7.017,7.017,0,0,0,3.133,4.448l.3.191-.632.992-.3-.191a8.179,8.179,0,0,1-3.65-5.192,9.4,9.4,0,0,1-.211-1.969c-.56.663-1.137,1.306-1.7,1.933-.462.516-.925,1.03-1.371,1.548-.228.266-.465.546-.7.84a5.813,5.813,0,0,1,.275,2.575,14.4,14.4,0,0,1-1.8,4.873A2.111,2.111,0,0,1,211.522,250.028Zm2.414-7.564c-1.656,2.35-2.343,4.41-2.091,6.268a1.7,1.7,0,0,0,.433-.563,13.552,13.552,0,0,0,1.678-4.465A4.866,4.866,0,0,0,213.936,242.465Zm-11.866-2.04q-.031,1.725-.018,3.44a3.184,3.184,0,0,0,.235,1.464,1.551,1.551,0,0,0,.839.7,10.016,10.016,0,0,0,.945-4.208A6.751,6.751,0,0,1,202.07,240.425Zm.043-1.714a8.674,8.674,0,0,0,.572.663,6.63,6.63,0,0,0,1.285,1.07,9.583,9.583,0,0,0-.188-.945c-.093-.37-.191-.546-.362-.647a2.376,2.376,0,0,0-.852-.193c-.149-.017-.3-.035-.453-.062Zm8.406-.816a6.2,6.2,0,0,0,.046.9,3.177,3.177,0,0,0,.029-.714A1.491,1.491,0,0,1,210.52,237.9Zm-9.442-2.7a2.778,2.778,0,0,0-.056,1.266c.019-.422.041-.844.065-1.267Z" transform="translate(-164.58 -189.884)" fill="#084c94"/>
        <g id="Group_703" data-name="Group 703" transform="translate(30.555)">
          <path id="Path_1695" data-name="Path 1695" d="M195.53,200.677q.05-.788,1.339-1.531l5.907-3.411a5.486,5.486,0,0,1,2.652-.773,4.919,4.919,0,0,1,2.612.691q1.25.721,1.2,1.509t-1.339,1.53l-1.163.672-1.644-.95,1.273-.735q1.02-.589.151-1.092a1.787,1.787,0,0,0-1.891.088l-6.144,3.547q-1,.58-.136,1.083a1.771,1.771,0,0,0,1.876-.079l1.681-.971,1.644.95-1.556.9a5.468,5.468,0,0,1-2.651.774,4.938,4.938,0,0,1-2.613-.692Q195.479,201.464,195.53,200.677Z" transform="translate(-195.528 -194.961)" fill="#0fbab8"/>
          <path id="Path_1696" data-name="Path 1696" d="M210.863,197.464l4.743,2.738-1.572.908-3-1.735-2.906,1.679,2.388,1.378-1.572.908-2.388-1.379-3.378,1.95,3,1.735-1.572.907-4.743-2.738Z" transform="translate(-194.901 -194.599)" fill="#0fbab8"/>
          <path id="Path_1697" data-name="Path 1697" d="M215.877,200.359l2.578,1.488q1.343.776,1.339,1.49T218.5,204.8l-.675.389a4.367,4.367,0,0,1-3.307.6l-.032.018a.71.71,0,0,1,.124.96,3.868,3.868,0,0,1-1.295,1.048l-1.932,1.116q-.472.273-.73.458a1.614,1.614,0,0,0-.415.422l-1.772-1.022a2.251,2.251,0,0,1,.377-.363,9.4,9.4,0,0,1,.817-.508l2.011-1.162c.5-.29.771-.54.808-.749s-.148-.43-.548-.662l-.6-.347-4.714,2.722-1.739-1Zm-2.342,4.091a2.057,2.057,0,0,0,1.05.3,2.383,2.383,0,0,0,1.156-.366l.849-.49q.6-.345.65-.623t-.405-.543l-.79-.456-3.143,1.814Z" transform="translate(-194.176 -194.18)" fill="#0fbab8"/>
          <path id="Path_1698" data-name="Path 1698" d="M221.033,205.282l-1.819-1.05,1.572-.908,5.376,3.1-1.572.908-1.819-1.05-9.428,5.443-1.739-1Z" transform="translate(-193.203 -193.751)" fill="#0fbab8"/>
          <path id="Path_1699" data-name="Path 1699" d="M226.445,206.46l1.739,1-11,6.35-1.74-1Z" transform="translate(-192.648 -193.298)" fill="#0fbab8"/>
          <path id="Path_1700" data-name="Path 1700" d="M229.1,207.991l4.6,2.657-1.572.908-2.862-1.653-3.064,1.77,2.245,1.3-1.572.908-2.245-1.3-4.793,2.767-1.74-1Z" transform="translate(-192.264 -193.077)" fill="#0fbab8"/>
          <path id="Path_1701" data-name="Path 1701" d="M233.849,210.735l1.739,1-11,6.35-1.74-1Z" transform="translate(-191.577 -192.68)" fill="#0fbab8"/>
          <path id="Path_1702" data-name="Path 1702" d="M226.459,218.534q.05-.788,1.339-1.531l5.907-3.411a5.489,5.489,0,0,1,2.652-.774,4.931,4.931,0,0,1,2.612.693q1.25.721,1.2,1.509t-1.339,1.53l-1.163.671-1.644-.949,1.272-.735q1.022-.589.152-1.092a1.785,1.785,0,0,0-1.891.088l-6.144,3.547q-1,.58-.136,1.083a1.771,1.771,0,0,0,1.876-.079l1.681-.971,1.644.949-1.556.9a5.48,5.48,0,0,1-2.651.774,4.937,4.937,0,0,1-2.613-.692Q226.408,219.321,226.459,218.534Z" transform="translate(-191.055 -192.379)" fill="#0fbab8"/>
          <path id="Path_1703" data-name="Path 1703" d="M243.194,216l2.356,1.361-9.2,7.391-1.739-1,1.868-1.445-.032.018-1.977-1.141L232,222.24l-1.613-.932Zm-5.456,5.342,4.662-3.586-.032-.018-6.2,2.7Z" transform="translate(-190.486 -191.919)" fill="#0fbab8"/>
          <path id="Path_1704" data-name="Path 1704" d="M246.311,219.877l-1.818-1.05,1.572-.908,5.375,3.1-1.57.908-1.819-1.051-9.428,5.444-1.739-1.005Z" transform="translate(-189.547 -191.641)" fill="#0fbab8"/>
          <path id="Path_1705" data-name="Path 1705" d="M251.724,221.055l4.743,2.738-1.572.908-3-1.734-2.906,1.678,2.388,1.378-1.572.908-2.388-1.379-3.378,1.95,3,1.735-1.572.907-4.743-2.738Z" transform="translate(-188.992 -191.187)" fill="#0fbab8"/>
        </g>
      </g>
    </g>
    <g id="Group_708" data-name="Group 708" transform="translate(446.705 210.057)">
      <g id="Group_706" data-name="Group 706" transform="translate(0 8.924)">
        <path id="Path_1706" data-name="Path 1706" d="M465.146,229.269V260l4.636-2.554V226.477Z" transform="translate(-401.183 -188.841)" fill="#0ba19f"/>
        <path id="Path_1707" data-name="Path 1707" d="M473.262,233.682v30.735l-64-37.482V195.962Z" transform="translate(-409.264 -193.254)" fill="#0fbab8"/>
        <path id="Path_1708" data-name="Path 1708" d="M409.264,196.3l64,37.721,4.6-2.792L413.806,193.6Z" transform="translate(-409.264 -193.596)" fill="#3ecfcd"/>
        <path id="Path_1709" data-name="Path 1709" d="M409.264,195.962l64,37.721,4.6-2.792L473.03,232.2Z" transform="translate(-409.264 -193.254)" fill="#fff" opacity="0.5"/>
      </g>
      <g id="Group_707" data-name="Group 707" transform="translate(43.772)">
        <path id="Path_1710" data-name="Path 1710" d="M512.906,227.194v46.041l4.687-2.7V224.106Z" transform="translate(-438.048 -180.26)" fill="#2672ab"/>
        <path id="Path_1711" data-name="Path 1711" d="M447.506,188.751l74.914,43.982,4.632-3.088L452.041,185.8Z" transform="translate(-447.506 -185.8)" fill="#72b5e8"/>
        <path id="Path_1712" data-name="Path 1712" d="M447.506,188.379,522.42,232.36l4.632-3.088-4.43,2.02Z" transform="translate(-447.506 -185.427)" fill="#fff" opacity="0.7"/>
      </g>
      <path id="Path_1713" data-name="Path 1713" d="M447.506,188.379v30.808l23.448,13.751v15.414L522.42,278.4V232.36Z" transform="translate(-403.734 -185.427)" fill="#3f92d1"/>
    </g>
    <g id="Group_709" data-name="Group 709" transform="translate(453.4 222.404)">
      <path id="Path_1714" data-name="Path 1714" d="M471.04,206.862,453.7,196.851c-1.063-.614-1.926-.122-1.926,1.1V209.7a4.248,4.248,0,0,0,1.926,3.323l10.837,6.256,5.419,9.346V222.4l1.084.625c1.063.615,1.926.122,1.926-1.1V210.185A4.248,4.248,0,0,0,471.04,206.862Zm-12.223,2.2c-.564.322-1.479-.207-2.043-1.18s-.564-2.023,0-2.344,1.479.206,2.043,1.179S459.381,208.739,458.817,209.061Zm4.7,2.71c-.563.322-1.479-.206-2.043-1.179s-.564-2.024,0-2.345,1.48.207,2.043,1.18S464.076,211.45,463.512,211.771Zm4.7,2.712c-.564.322-1.479-.206-2.043-1.18s-.564-2.023,0-2.344,1.479.206,2.043,1.179S468.773,214.161,468.208,214.483Z" transform="translate(-409.811 -196.587)" fill="#fff"/>
      <path id="Path_1715" data-name="Path 1715" d="M475.9,224.1v2.932l36.8,21.191v-2.932Z" transform="translate(-406.322 -192.608)" fill="#fff"/>
      <path id="Path_1716" data-name="Path 1716" d="M498.374,247.68,475.9,234.746v2.932l22.474,12.933Z" transform="translate(-406.322 -191.069)" fill="#fff"/>
      <path id="Path_1717" data-name="Path 1717" d="M475.9,232.356l36.8,21.191v-2.932l-36.8-21.191Z" transform="translate(-406.322 -191.838)" fill="#fff"/>
      <path id="Path_1718" data-name="Path 1718" d="M438.006,219.765V222.7l25.756,14.887v-2.932Z" transform="translate(-411.802 -193.235)" fill="#fff"/>
      <path id="Path_1719" data-name="Path 1719" d="M449.433,237.039l-11.427-6.629v2.932l11.427,6.629Z" transform="translate(-411.802 -191.696)" fill="#fff"/>
      <path id="Path_1720" data-name="Path 1720" d="M438.006,228.02l25.756,14.886v-2.932l-25.756-14.886Z" transform="translate(-411.802 -192.465)" fill="#fff"/>
      <path id="Path_1721" data-name="Path 1721" d="M475.9,213.562v2.932l36.8,21.192v-2.932Z" transform="translate(-406.322 -194.132)" fill="#fff"/>
      <path id="Path_1722" data-name="Path 1722" d="M475.9,221.818l36.8,21.191v-2.932l-36.8-21.191Z" transform="translate(-406.322 -193.362)" fill="#fff"/>
      <path id="Path_1723" data-name="Path 1723" d="M434.549,215.233l-17.492-10.1c-1.073-.62-1.944-.124-1.944,1.108V218.09a4.285,4.285,0,0,0,1.944,3.353l1.093.631v6.272l5.467-3.117,10.932,6.313c1.073.619,1.944.124,1.944-1.108V218.585A4.287,4.287,0,0,0,434.549,215.233Zm-12.574,2.077c-.57.325-1.493-.208-2.061-1.19s-.57-2.041,0-2.365,1.491.208,2.061,1.189S422.544,216.985,421.975,217.31Zm4.736,2.736c-.569.324-1.491-.209-2.061-1.19s-.569-2.041,0-2.366,1.493.208,2.061,1.19S427.281,219.721,426.711,220.046Zm4.738,2.734c-.569.324-1.493-.208-2.061-1.19s-.569-2.041,0-2.365,1.493.208,2.061,1.189S432.018,222.455,431.449,222.78Z" transform="translate(-415.113 -195.39)" fill="#fff"/>
    </g>
    <g id="Group_715" data-name="Group 715" transform="translate(341.113 296.193)">
      <g id="Group_710" data-name="Group 710" transform="translate(0)">
        <path id="Path_1724" data-name="Path 1724" d="M351.881,269.861H317.013v5.38c0,5.606,7.805,10.152,17.435,10.152s17.434-4.545,17.434-10.152c0-.047,0-.094-.006-.141h.006Z" transform="translate(-317.013 -259.779)" fill="#d62d69"/>
        <ellipse id="Ellipse_10" data-name="Ellipse 10" cx="17.434" cy="10.153" rx="17.434" ry="10.153" transform="translate(0)" fill="#f76195"/>
        <ellipse id="Ellipse_11" data-name="Ellipse 11" cx="14.051" cy="8.182" rx="14.051" ry="8.182" transform="translate(3.383 1.97)" fill="#f0f8ff"/>
        <path id="Path_1725" data-name="Path 1725" d="M334.02,263.975c7.411,0,13.469,3.343,14,7.582a4.777,4.777,0,0,0,.052-.6c0-4.52-6.291-8.183-14.05-8.183s-14.051,3.663-14.051,8.183a5.005,5.005,0,0,0,.052.6C320.55,267.318,326.608,263.975,334.02,263.975Z" transform="translate(-316.586 -260.804)" fill="#a8cff0"/>
        <path id="Path_1726" data-name="Path 1726" d="M334.448,280.017c-9.524,0-17.26-4.448-17.427-9.971,0,.061-.008.12-.008.182,0,5.606,7.805,10.152,17.435,10.152s17.434-4.545,17.434-10.152c0-.062-.006-.121-.008-.182C351.708,275.569,343.972,280.017,334.448,280.017Z" transform="translate(-317.013 -259.752)" fill="#fff" opacity="0.7"/>
      </g>
      <g id="Group_713" data-name="Group 713" transform="translate(28.321 6.241)">
        <ellipse id="Ellipse_12" data-name="Ellipse 12" cx="18.183" cy="10.589" rx="18.183" ry="10.589" transform="translate(0 16.965)" fill="#084c94"/>
        <path id="Path_1727" data-name="Path 1727" d="M359.938,282.88c9.592,0,17.431,4.328,18.116,9.812a6.252,6.252,0,0,0,.068-.776c0-5.848-8.141-10.589-18.183-10.589s-18.182,4.741-18.182,10.589a6.263,6.263,0,0,0,.066.776C342.508,287.208,350.346,282.88,359.938,282.88Z" transform="translate(-341.756 -264.362)" fill="#001a46"/>
        <path id="Path_1728" data-name="Path 1728" d="M377.278,275.314H342.41v5.379c0,5.607,7.805,10.153,17.434,10.153s17.435-4.545,17.435-10.153c0-.047,0-.093-.006-.14h.006Z" transform="translate(-341.661 -265.232)" fill="#fc0"/>
        <ellipse id="Ellipse_13" data-name="Ellipse 13" cx="17.434" cy="10.153" rx="17.434" ry="10.153" transform="translate(0.749)" fill="#ffde17"/>
        <path id="Path_1729" data-name="Path 1729" d="M345.366,276.409c0,4.519,6.291,8.183,14.05,8.183s14.051-3.664,14.051-8.183-6.291-8.182-14.051-8.182S345.366,271.89,345.366,276.409Z" transform="translate(-341.234 -266.256)" fill="#f0f8ff"/>
        <path id="Path_1730" data-name="Path 1730" d="M359.416,269.427c7.413,0,13.47,3.345,14,7.583a5,5,0,0,0,.051-.6c0-4.519-6.291-8.182-14.051-8.182s-14.05,3.663-14.05,8.182a4.777,4.777,0,0,0,.052.6C345.947,272.771,352,269.427,359.416,269.427Z" transform="translate(-341.234 -266.256)" fill="#a8cff0"/>
        <path id="Path_1731" data-name="Path 1731" d="M359.844,285.47c-9.523,0-17.259-4.448-17.426-9.971,0,.061-.008.12-.008.181,0,5.607,7.805,10.153,17.434,10.153s17.435-4.545,17.435-10.153c0-.061-.006-.12-.008-.181C377.1,281.022,369.368,285.47,359.844,285.47Z" transform="translate(-341.661 -265.205)" fill="#fff"/>
        <g id="Group_711" data-name="Group 711" transform="translate(10.111 7.192)">
          <path id="Path_1732" data-name="Path 1732" d="M359.454,279.713l-8.293-4.787a1.145,1.145,0,0,1,1.145-1.984l7.148,4.129,6.506-3.758A1.145,1.145,0,0,1,367.1,275.3Z" transform="translate(-350.589 -272.789)" fill="#a8cff0"/>
        </g>
        <g id="Group_712" data-name="Group 712" transform="translate(10.111 5.748)">
          <path id="Path_1733" data-name="Path 1733" d="M359.454,278.452l-8.293-4.788a1.145,1.145,0,0,1,1.145-1.984l7.148,4.129,6.506-3.755a1.145,1.145,0,1,1,1.145,1.982Z" transform="translate(-350.589 -271.527)" fill="#ffde17"/>
        </g>
      </g>
      <path id="Path_1734" data-name="Path 1734" d="M334.279,277.307l8.833-5.1a.5.5,0,0,0,0-.945l-1.648-.951a5.044,5.044,0,0,0-3.93-.263,7.981,7.981,0,0,1-2.536.442.926.926,0,0,1-.465-.105.362.362,0,0,1-.214-.294,2.347,2.347,0,0,0-.387-1.267.607.607,0,0,0-.175-.973,2.267,2.267,0,0,0-1.372-.268,6.038,6.038,0,0,0-6.032.051c-1.892,1.092-1.921,2.263-.088,3.483-.108.254.064.562.464.792a2.467,2.467,0,0,0,1.684.1,10.613,10.613,0,0,0,2.194.224,1.032,1.032,0,0,1,.509.122.313.313,0,0,1,.184.269,2.177,2.177,0,0,1-.765,1.464c-.779.731-.593,1.664.453,2.269l1.649.952A1.809,1.809,0,0,0,334.279,277.307Z" transform="translate(-315.87 -260.221)" fill="#a8cff0"/>
      <path id="Path_1735" data-name="Path 1735" d="M334.279,276.466l8.833-5.1a.5.5,0,0,0,0-.945l-1.648-.951a5.049,5.049,0,0,0-3.93-.263,7.982,7.982,0,0,1-2.536.442.926.926,0,0,1-.465-.105.362.362,0,0,1-.214-.294,2.347,2.347,0,0,0-.387-1.267.607.607,0,0,0-.175-.973,2.267,2.267,0,0,0-1.372-.268,6.038,6.038,0,0,0-6.032.052c-1.892,1.092-1.921,2.263-.088,3.483-.108.254.064.562.464.792a2.467,2.467,0,0,0,1.684.1,10.613,10.613,0,0,0,2.194.224,1.032,1.032,0,0,1,.509.122.313.313,0,0,1,.184.269,2.177,2.177,0,0,1-.765,1.464c-.779.731-.593,1.664.453,2.269l1.649.952A1.809,1.809,0,0,0,334.279,276.466Z" transform="translate(-315.87 -260.343)" fill="#f76195"/>
      <g id="Group_714" data-name="Group 714" transform="translate(59.487 33.497)">
        <path id="Path_1736" data-name="Path 1736" d="M403.852,299.127H368.984v5.379c0,5.606,7.805,10.153,17.435,10.153s17.434-4.546,17.434-10.153c0-.047,0-.094-.006-.141h.006Z" transform="translate(-368.984 -289.044)" fill="#0ba19f"/>
        <ellipse id="Ellipse_14" data-name="Ellipse 14" cx="17.434" cy="10.153" rx="17.434" ry="10.153" fill="#3ecfcd"/>
        <path id="Path_1737" data-name="Path 1737" d="M371.94,300.222c0,4.519,6.291,8.182,14.051,8.182s14.05-3.663,14.05-8.182-6.291-8.183-14.05-8.183S371.94,295.7,371.94,300.222Z" transform="translate(-368.556 -290.069)" fill="#f0f8ff"/>
        <path id="Path_1738" data-name="Path 1738" d="M385.991,293.24c7.411,0,13.469,3.345,14,7.582a4.771,4.771,0,0,0,.051-.6c0-4.519-6.291-8.183-14.05-8.183s-14.051,3.664-14.051,8.183a4.771,4.771,0,0,0,.051.6C372.521,296.584,378.579,293.24,385.991,293.24Z" transform="translate(-368.556 -290.069)" fill="#a8cff0"/>
        <path id="Path_1739" data-name="Path 1739" d="M386.418,309.282c-9.523,0-17.259-4.448-17.426-9.971,0,.061-.008.121-.008.182,0,5.606,7.805,10.153,17.434,10.153s17.435-4.546,17.435-10.153c0-.061-.006-.121-.008-.182C403.677,304.834,395.942,309.282,386.418,309.282Z" transform="translate(-368.984 -289.017)" fill="#fff" opacity="0.5"/>
      </g>
      <path id="Path_1740" data-name="Path 1740" d="M378.93,305.027l11.444,1.109-3.583-11.763-5.019,1.587,4.441,7.773L380.678,303Z" transform="translate(-308.059 -256.234)" fill="#a8cff0"/>
      <path id="Path_1741" data-name="Path 1741" d="M378.93,304.186l11.444,1.109-3.583-11.763-5.019,1.588,4.441,7.773-5.535-.736Z" transform="translate(-308.059 -256.356)" fill="#0fbab8"/>
    </g>
    <g id="Group_726" data-name="Group 726" transform="translate(151.672 96.773)">
      <g id="Group_719" data-name="Group 719" transform="translate(230.388 20.48)">
        <g id="Group_716" data-name="Group 716" transform="translate(1.197 52.627)">
          <path id="Path_1742" data-name="Path 1742" d="M354.6,152.97a.573.573,0,0,1-.562-.47q-.1-.567-.2-1.133a.573.573,0,0,1,1.13-.191q.093.56.2,1.121a.573.573,0,0,1-.462.665A.515.515,0,0,1,354.6,152.97Z" transform="translate(-353.833 -150.699)" fill="#0fbab8"/>
        </g>
        <g id="Group_717" data-name="Group 717">
          <path id="Path_1743" data-name="Path 1743" d="M354.044,155.047a.573.573,0,0,1-.567-.5q-.149-1.162-.269-2.32a.573.573,0,0,1,.509-.628.581.581,0,0,1,.628.51q.118,1.142.267,2.292a.573.573,0,0,1-.493.641C354.093,155.045,354.069,155.047,354.044,155.047Zm-.551-5.777a.571.571,0,0,1-.571-.537q-.07-1.173-.108-2.336a.573.573,0,0,1,.554-.589h.018a.572.572,0,0,1,.572.554q.036,1.147.105,2.3a.572.572,0,0,1-.537.606Zm-.134-5.8h-.009a.572.572,0,0,1-.563-.581q.017-1.186.076-2.338a.572.572,0,1,1,1.142.057q-.055,1.133-.073,2.3A.573.573,0,0,1,353.359,143.471Zm.34-5.791-.06,0a.573.573,0,0,1-.511-.628c.084-.79.179-1.565.29-2.327a.573.573,0,0,1,1.134.166q-.165,1.121-.285,2.279A.573.573,0,0,1,353.7,137.68Zm.9-5.729a.53.53,0,0,1-.12-.013.573.573,0,0,1-.442-.679q.249-1.164.541-2.284a.572.572,0,0,1,1.107.288q-.285,1.1-.528,2.233A.573.573,0,0,1,354.6,131.951Zm1.545-5.587a.573.573,0,0,1-.54-.76q.393-1.13.837-2.2a.572.572,0,0,1,1.058.438q-.431,1.042-.813,2.138A.574.574,0,0,1,356.141,126.364Zm2.3-5.316a.564.564,0,0,1-.268-.068.57.57,0,0,1-.237-.774c.371-.7.767-1.387,1.176-2.044a.573.573,0,0,1,.973.6c-.4.635-.778,1.3-1.139,1.977A.57.57,0,0,1,358.445,121.049Zm57.359-2.6a.569.569,0,0,1-.34-.111q-.931-.688-1.871-1.345a.573.573,0,0,1,.655-.94q.955.668,1.9,1.363a.572.572,0,0,1-.34,1.032Zm-54.2-2.255a.574.574,0,0,1-.45-.928c.494-.624,1.012-1.227,1.54-1.794a.572.572,0,0,1,.838.779c-.507.545-1.005,1.124-1.479,1.725A.569.569,0,0,1,361.6,116.191Zm49.425-1.032a.579.579,0,0,1-.308-.089q-.975-.623-1.961-1.21a.572.572,0,1,1,.586-.983q1,.6,1.989,1.227a.573.573,0,0,1-.307,1.055Zm-5.007-2.933a.568.568,0,0,1-.269-.068q-1.028-.549-2.049-1.05a.573.573,0,0,1,.506-1.028q1.035.51,2.082,1.068a.572.572,0,0,1-.27,1.077Zm-40.382-.184a.572.572,0,0,1-.365-1.013c.608-.506,1.243-.988,1.887-1.434a.573.573,0,0,1,.651.942c-.617.427-1.226.888-1.807,1.372A.568.568,0,0,1,365.635,112.042Zm35.152-2.324a.573.573,0,0,1-.223-.046q-1.073-.455-2.134-.854a.573.573,0,0,1,.4-1.071q1.08.407,2.176.871a.573.573,0,0,1-.223,1.1Zm-30.32-.861a.573.573,0,0,1-.26-1.083c.7-.356,1.425-.686,2.154-.979a.572.572,0,1,1,.427,1.062c-.7.28-1.392.6-2.063.937A.577.577,0,0,1,370.468,108.858Zm24.868-1.124a.554.554,0,0,1-.165-.025q-1.114-.337-2.211-.612a.572.572,0,1,1,.279-1.109q1.121.282,2.263.626a.573.573,0,0,1-.166,1.121Zm-19.457-.92a.572.572,0,0,1-.144-1.126c.753-.195,1.53-.363,2.312-.5a.572.572,0,0,1,.2,1.127c-.751.13-1.5.292-2.221.48A.58.58,0,0,1,375.879,106.813ZM389.7,106.4a.546.546,0,0,1-.1-.008q-1.145-.192-2.266-.312a.573.573,0,0,1,.124-1.139q1.154.125,2.333.323a.572.572,0,0,1-.094,1.137Zm-8.095-.474a.572.572,0,0,1-.033-1.143c.647-.038,1.276-.07,1.964-.057l.4,0a.572.572,0,0,1-.008,1.145h-.008l-.381,0H383.5c-.63,0-1.253.019-1.869.055Z" transform="translate(-352.787 -104.722)" fill="#0fbab8"/>
        </g>
        <g id="Group_718" data-name="Group 718" transform="translate(65.255 14.743)">
          <path id="Path_1744" data-name="Path 1744" d="M411.26,119.467a.572.572,0,0,1-.364-.129q-.439-.362-.884-.717a.572.572,0,0,1,.715-.894q.45.359.9.726a.572.572,0,0,1-.363,1.014Z" transform="translate(-409.797 -117.601)" fill="#0fbab8"/>
        </g>
      </g>
      <g id="Group_720" data-name="Group 720" transform="translate(5.749 98.13)">
        <path id="Path_1745" data-name="Path 1745" d="M157.1,209.072a.571.571,0,0,1-.291-1.064l1.973-1.161a.572.572,0,1,1,.579.986l-1.972,1.161A.569.569,0,0,1,157.1,209.072Zm4.932-2.9a.572.572,0,0,1-.291-1.064l1.973-1.161a.572.572,0,1,1,.58.986l-1.973,1.161A.566.566,0,0,1,162.035,206.17Zm4.933-2.9a.572.572,0,0,1-.291-1.066l1.973-1.159a.572.572,0,1,1,.579.986l-1.972,1.161A.569.569,0,0,1,166.968,203.269Zm4.933-2.9a.572.572,0,0,1-.291-1.066l1.973-1.159a.572.572,0,1,1,.58.986l-1.974,1.161A.577.577,0,0,1,171.9,200.367Zm4.932-2.9a.572.572,0,0,1-.291-1.066l1.973-1.161a.572.572,0,1,1,.58.987l-1.973,1.16A.57.57,0,0,1,176.833,197.466Zm4.933-2.9a.572.572,0,0,1-.291-1.066l1.973-1.161a.572.572,0,0,1,.58.987l-1.973,1.16A.57.57,0,0,1,181.767,194.564Zm4.933-2.9a.571.571,0,0,1-.291-1.064l1.972-1.161a.572.572,0,1,1,.58.986l-1.972,1.161A.569.569,0,0,1,186.7,191.661Zm2.626-4.22a.572.572,0,0,1-.572-.572v-2.289a.572.572,0,1,1,1.145,0v2.289A.573.573,0,0,1,189.326,187.441Zm0-5.723a.572.572,0,0,1-.572-.572v-2.289a.572.572,0,0,1,1.145,0v2.289A.573.573,0,0,1,189.326,181.718Zm0-5.723a.572.572,0,0,1-.572-.572v-2.289a.572.572,0,1,1,1.145,0v2.289A.573.573,0,0,1,189.326,175.995Z" transform="translate(-156.529 -172.561)" fill="#0fbab8"/>
      </g>
      <g id="Group_721" data-name="Group 721" transform="translate(230.474 236.334)">
        <path id="Path_1746" data-name="Path 1746" d="M384.452,338.835a.572.572,0,0,1-.016-1.145c.755-.021,1.506-.077,2.23-.163a.572.572,0,1,1,.136,1.135c-.758.092-1.542.149-2.333.172Zm-3.429-.121a.489.489,0,0,1-.057,0c-.779-.077-1.558-.188-2.314-.328a.572.572,0,0,1,.211-1.125c.723.135,1.47.24,2.217.316a.572.572,0,0,1-.056,1.141ZM390.1,338a.573.573,0,0,1-.154-1.124,18.8,18.8,0,0,0,2.1-.722.573.573,0,1,1,.436,1.06,20.234,20.234,0,0,1-2.227.765A.553.553,0,0,1,390.1,338Zm-14.671-.457a.569.569,0,0,1-.179-.027c-.754-.246-1.491-.526-2.192-.832a.572.572,0,0,1,.459-1.048c.666.291,1.369.557,2.089.792a.572.572,0,0,1-.177,1.116Zm19.88-1.866a.572.572,0,0,1-.286-1.067L397,333.47a.572.572,0,1,1,.572.99l-1.981,1.146A.562.562,0,0,1,395.309,335.682Zm-25.059-.538a.562.562,0,0,1-.288-.079l-1.978-1.152a.572.572,0,1,1,.577-.989l1.978,1.153a.572.572,0,0,1-.288,1.067Zm30.014-2.325a.572.572,0,0,1-.286-1.068l1.981-1.146a.572.572,0,1,1,.572.99l-1.981,1.146A.564.564,0,0,1,400.264,332.82Zm-34.96-.555a.56.56,0,0,1-.288-.078l-1.979-1.153a.572.572,0,0,1,.577-.988l1.979,1.151a.572.572,0,0,1-.288,1.067Zm39.915-2.309a.572.572,0,0,1-.286-1.068l1.981-1.145a.572.572,0,1,1,.572.99l-1.981,1.145A.567.567,0,0,1,405.219,329.956Zm-44.861-.571a.575.575,0,0,1-.288-.078l-1.979-1.151a.573.573,0,0,1,.577-.99l1.979,1.152a.573.573,0,0,1-.288,1.068Zm49.816-2.292a.572.572,0,0,1-.286-1.068l1.982-1.146a.572.572,0,0,1,.572.99l-1.982,1.146A.564.564,0,0,1,410.174,327.093Zm-54.762-.588a.582.582,0,0,1-.288-.077l-1.978-1.152a.573.573,0,0,1,.577-.991l1.978,1.152a.573.573,0,0,1-.288,1.068Zm59.717-2.276a.573.573,0,0,1-.286-1.068l1.982-1.146a.572.572,0,0,1,.572.99l-1.982,1.146A.564.564,0,0,1,415.129,324.229Zm4.955-2.864a.573.573,0,0,1-.286-1.068l1.984-1.146a.572.572,0,0,1,.572.99l-1.984,1.146A.567.567,0,0,1,420.084,321.366Zm4.955-2.864a.573.573,0,0,1-.286-1.068l1.984-1.145a.572.572,0,0,1,.572.99l-1.984,1.145A.567.567,0,0,1,425.039,318.5ZM430,315.639a.572.572,0,0,1-.286-1.068l1.982-1.146a.572.572,0,1,1,.572.99l-1.982,1.146A.573.573,0,0,1,430,315.639Zm4.955-2.864a.572.572,0,0,1-.286-1.068l1.982-1.146a.572.572,0,1,1,.572.99l-1.982,1.146A.567.567,0,0,1,434.951,312.775Zm4.956-2.864a.572.572,0,0,1-.286-1.068L441.6,307.7a.572.572,0,1,1,.572.99l-1.981,1.145A.567.567,0,0,1,439.907,309.911Zm4.955-2.863a.572.572,0,0,1-.286-1.068l1.981-1.146a.572.572,0,0,1,.572.991l-1.981,1.145A.564.564,0,0,1,444.862,307.049Zm4.955-2.864a.572.572,0,0,1-.286-1.068l1.981-1.146a.572.572,0,1,1,.572.991l-1.981,1.146A.574.574,0,0,1,449.817,304.185Zm4.955-2.864a.572.572,0,0,1-.286-1.068l1.981-1.146a.572.572,0,0,1,.572.991l-1.981,1.146A.574.574,0,0,1,454.772,301.321Zm4.955-2.864a.572.572,0,0,1-.286-1.068l1.982-1.145a.572.572,0,0,1,.572.991l-1.982,1.145A.565.565,0,0,1,459.727,298.457Zm4.955-2.863a.573.573,0,0,1-.286-1.068l1.982-1.146a.572.572,0,0,1,.572.991l-1.982,1.146A.563.563,0,0,1,464.682,295.594Z" transform="translate(-352.862 -293.303)" fill="#0fbab8"/>
      </g>
      <path id="Path_1747" data-name="Path 1747" d="M353.229,155.875a5.538,5.538,0,0,0,2.511,4.33,2.227,2.227,0,0,0,1.083.334c.783,0,1.269-.641,1.269-1.673a5.54,5.54,0,0,0-2.51-4.33,2.231,2.231,0,0,0-1.084-.334C353.715,154.2,353.229,154.843,353.229,155.875Z" transform="translate(-122.335 -77.086)" fill="#0fbab8"/>
      <path id="Path_1748" data-name="Path 1748" d="M183.229,167.875a5.538,5.538,0,0,0,2.511,4.33,2.227,2.227,0,0,0,1.083.334c.783,0,1.269-.641,1.269-1.673a5.539,5.539,0,0,0-2.51-4.33,2.231,2.231,0,0,0-1.084-.334C183.715,166.2,183.229,166.843,183.229,167.875Z" transform="translate(-146.92 -75.35)" fill="#0fbab8"/>
      <path id="Path_1749" data-name="Path 1749" d="M411.13,116.239l2.862,4.96-5.151-.954Z" transform="translate(-114.292 -82.576)" fill="#0fbab8"/>
      <path id="Path_1750" data-name="Path 1750" d="M347.091,318.823c0,1.1,1.526,1.986,3.409,1.986s3.41-.889,3.41-1.986-1.527-1.985-3.41-1.985S347.091,317.726,347.091,318.823Z" transform="translate(-123.222 -53.566)" fill="#0fbab8"/>
      <g id="Group_722" data-name="Group 722" transform="translate(238.533 196.716)">
        <path id="Path_1751" data-name="Path 1751" d="M378.587,270.383a.573.573,0,0,1-.572-.572,5.857,5.857,0,0,0-.372-2.039.572.572,0,0,1,1.073-.4,7.007,7.007,0,0,1,.444,2.436A.572.572,0,0,1,378.587,270.383Zm-2.255-5.1a.571.571,0,0,1-.414-.179,12.123,12.123,0,0,0-1.647-1.43.572.572,0,1,1,.672-.925,13,13,0,0,1,1.805,1.566.573.573,0,0,1-.415.967Zm-4.7-3.208a.587.587,0,0,1-.238-.052,20.489,20.489,0,0,0-2.074-.814.573.573,0,0,1,.363-1.086,21.766,21.766,0,0,1,2.187.858.572.572,0,0,1-.238,1.093Zm-5.451-1.7a.6.6,0,0,1-.11-.01c-.722-.14-1.47-.254-2.218-.337a.573.573,0,0,1-.5-.633.566.566,0,0,1,.632-.5c.778.087,1.556.2,2.309.349a.573.573,0,0,1-.108,1.135Zm-5.691-.536h-.018a.572.572,0,0,1,0-1.145.581.581,0,0,1,.583.572A.565.565,0,0,1,360.494,259.836Z" transform="translate(-359.903 -258.691)" fill="#eb4680"/>
      </g>
      <path id="Path_1752" data-name="Path 1752" d="M451.341,291.825l4.292,2.862,2.862-4.865Z" transform="translate(-108.146 -57.473)" fill="#0fbab8"/>
      <path id="Path_1753" data-name="Path 1753" d="M158.661,206.184l-4.292-2.862-2.862,4.865Z" transform="translate(-151.507 -69.982)" fill="#0fbab8"/>
      <g id="Group_723" data-name="Group 723" transform="translate(387.099)">
        <path id="Path_1754" data-name="Path 1754" d="M523.054,146.263a.572.572,0,0,1-.572-.572V143.4a.572.572,0,0,1,1.145,0v2.289A.571.571,0,0,1,523.054,146.263Zm0-5.723a.572.572,0,0,1-.572-.572v-2.289a.572.572,0,0,1,1.145,0v2.289A.571.571,0,0,1,523.054,140.54Zm0-5.723a.572.572,0,0,1-.572-.572v-2.289a.572.572,0,0,1,1.145,0v2.289A.571.571,0,0,1,523.054,134.817Zm0-5.723a.572.572,0,0,1-.572-.572v-2.289a.572.572,0,0,1,1.145,0v2.289A.571.571,0,0,1,523.054,129.094Zm0-5.723a.572.572,0,0,1-.572-.572v-2.289a.572.572,0,0,1,1.145,0V122.8A.571.571,0,0,1,523.054,123.371Zm0-5.723a.572.572,0,0,1-.572-.572v-.208a15.151,15.151,0,0,0-.137-2,.573.573,0,0,1,.493-.643.583.583,0,0,1,.642.492,16.445,16.445,0,0,1,.147,2.15v.208A.571.571,0,0,1,523.054,117.648Zm-.907-5.627a.571.571,0,0,1-.544-.4,21.157,21.157,0,0,0-.8-2.081.573.573,0,0,1,1.047-.465,21.906,21.906,0,0,1,.839,2.194.573.573,0,0,1-.369.721A.59.59,0,0,1,522.148,112.021Zm-2.464-5.147a.573.573,0,0,1-.477-.256,17.126,17.126,0,0,0-1.336-1.767.572.572,0,0,1,.865-.75,18.386,18.386,0,0,1,1.425,1.885.572.572,0,0,1-.477.888Zm-3.919-4.124a.573.573,0,0,1-.32-.1q-.276-.187-.556-.349l-1.378-.8a.572.572,0,0,1,.572-.991l1.377.8c.21.121.42.253.626.393a.572.572,0,0,1-.32,1.046Zm-4.941-2.887a.56.56,0,0,1-.286-.077l-1.981-1.147a.572.572,0,0,1,.572-.99l1.981,1.147a.572.572,0,0,1-.286,1.067ZM505.87,97a.562.562,0,0,1-.286-.077L503.6,95.773a.572.572,0,0,1,.572-.99l1.982,1.147A.572.572,0,0,1,505.87,97Zm-4.954-2.865a.564.564,0,0,1-.286-.078l-1.982-1.146a.572.572,0,1,1,.572-.99l1.982,1.146a.573.573,0,0,1-.286,1.068Zm-4.955-2.866a.577.577,0,0,1-.286-.077l-1.981-1.147a.572.572,0,1,1,.572-.99l1.981,1.146a.572.572,0,0,1-.286,1.068ZM491.007,88.4a.562.562,0,0,1-.286-.077l-.736-.426a.572.572,0,1,1,.572-.991l.736.426a.572.572,0,0,1-.286,1.068Z" transform="translate(-489.698 -86.829)" fill="#a8cff0"/>
      </g>
      <g id="Group_724" data-name="Group 724" transform="translate(390.247 14.021)">
        <path id="Path_1755" data-name="Path 1755" d="M513.214,136.127a.572.572,0,0,1-.572-.572v-2.289a.572.572,0,1,1,1.145,0v2.289A.571.571,0,0,1,513.214,136.127Zm0-5.723a.572.572,0,0,1-.572-.572v-2.289a.572.572,0,1,1,1.145,0v2.289A.571.571,0,0,1,513.214,130.4Zm0-5.723a.572.572,0,0,1-.572-.572v-2.289a.572.572,0,1,1,1.145,0v2.289A.571.571,0,0,1,513.214,124.681Zm0-5.723a.572.572,0,0,1-.572-.572V117.8a9.441,9.441,0,0,0-.143-1.6.573.573,0,0,1,1.13-.193,10.747,10.747,0,0,1,.158,1.792v.585A.571.571,0,0,1,513.214,118.958Zm-1.2-5.541a.573.573,0,0,1-.517-.326,12.072,12.072,0,0,0-1.109-1.878.572.572,0,1,1,.925-.672,12.99,12.99,0,0,1,1.218,2.058.571.571,0,0,1-.271.762A.551.551,0,0,1,512.014,113.417Zm-3.944-4.4.3-.485-.3.485L506.1,107.88a.572.572,0,0,1,.572-.99l1.969,1.139Zm-4.651-2.778a.564.564,0,0,1-.286-.078l-1.982-1.146a.572.572,0,0,1,.572-.99l1.982,1.146a.573.573,0,0,1-.286,1.068Zm-4.954-2.866a.574.574,0,0,1-.286-.077l-1.982-1.147a.572.572,0,0,1,.572-.99l1.982,1.146a.573.573,0,0,1-.286,1.068Zm-4.955-2.865a.567.567,0,0,1-.286-.078l-.489-.283a.572.572,0,1,1,.572-.991l.489.284a.572.572,0,0,1-.286,1.068Z" transform="translate(-492.448 -99.079)" fill="#eb4680"/>
      </g>
      <g id="Group_725" data-name="Group 725" transform="translate(51.508 192.002)">
        <path id="Path_1756" data-name="Path 1756" d="M212.088,264.164a.572.572,0,0,1-.279-1.071l2-1.116a.572.572,0,0,1,.557,1l-2,1.116A.57.57,0,0,1,212.088,264.164Zm-3-.25a.582.582,0,0,1-.278-.072l-2-1.111a.573.573,0,0,1,.556-1l2,1.111a.573.573,0,0,1-.278,1.074Zm8-2.539a.572.572,0,0,1-.278-1.073l2-1.115a.572.572,0,0,1,.556,1l-2,1.115A.568.568,0,0,1,217.084,261.376Zm-13-.242a.574.574,0,0,1-.277-.071l-2-1.111a.573.573,0,0,1,.556-1l2,1.111a.572.572,0,0,1-.278,1.073Zm18-2.549a.572.572,0,0,1-.279-1.071l2-1.116a.572.572,0,1,1,.559,1l-2,1.116A.571.571,0,0,1,222.081,258.585Zm-23-.23a.577.577,0,0,1-.277-.071l-2-1.113a.573.573,0,1,1,.555-1l2,1.113a.572.572,0,0,1-.279,1.073Zm28-2.558a.573.573,0,0,1-.279-1.072l.142-.079a.572.572,0,1,1,.559,1l-.142.079A.572.572,0,0,1,227.079,255.8Z" transform="translate(-196.507 -254.572)" fill="#eb4680"/>
      </g>
    </g>
  </g>
</svg>
