<svg xmlns="http://www.w3.org/2000/svg" width="97.941" height="49.996" viewBox="0 0 97.941 49.996">
  <g id="logo-ASC-big" transform="translate(-13 -36.02)" style="isolation: isolate">
    <path id="Path_1" data-name="Path 1" d="M52.285,74.061,35.166,36.02,22.84,63.068l9.732-10.8,9.763,21.8Z" transform="translate(0.412 0)" fill="#ec1c24"/>
    <path id="Path_2" data-name="Path 2" d="M80.332,64.305q0,4.834-2.678,7.148t-8.2,2.313H52.6L49.7,67.4H68.455a10.294,10.294,0,0,0,2.084-.188,2.792,2.792,0,0,0,1.354-.542,2.49,2.49,0,0,0,.917-2.157,2.949,2.949,0,0,0-.854-2.3,2.761,2.761,0,0,0-1.1-.448,11.721,11.721,0,0,0-1.907-.125H61.536q-5.21,0-7.846-2.219-2.511-2.24-2.511-6.929,0-4.96,2.678-7.346T62.078,42.8H82.916l-2.9,6.4-17.015.063a5.147,5.147,0,0,0-3.313.813,2.99,2.99,0,0,0-.938,2.532,2.636,2.636,0,0,0,.771,2.011,4.168,4.168,0,0,0,2.594.709h8.242q5.4,0,7.689,2.084T80.332,64.305Z" transform="translate(1.538 0.284)" fill="#005aa9"/>
    <path id="Path_3" data-name="Path 3" d="M104.53,73.776H93.695a20.349,20.349,0,0,1-5.564-.6,11.034,11.034,0,0,1-4-2.157,12.138,12.138,0,0,1-3.532-5,19.8,19.8,0,0,1-1.177-7.2q0-8.158,3.532-12.1T93.872,42.8h11.461l-2.74,6.252H93.986a8.335,8.335,0,0,0-3.126.5,5.21,5.21,0,0,0-2.084,1.719q-1.459,2.23-1.459,7.814,0,4.762,1.459,6.575t5.21,1.823h7.741Z" transform="translate(2.784 0.284)" fill="#005aa9"/>
    <path id="Path_4" data-name="Path 4" d="M33.765,76.966H108.94l-.906-2.073H40.507l-8.4-18.942L13,85.155h9.554l7.429-16.681Z" transform="translate(0 0.835)" fill="#005aa9"/>
    <path id="Path_5" data-name="Path 5" d="M39.275,84.059c0,.063,0,.094-.073.1H37.754a2.365,2.365,0,0,1-.875-.146,1.042,1.042,0,0,1-.521-.448,1.573,1.573,0,0,1-.177-.781v-2.8a1.292,1.292,0,0,1,.386-1.042,1.8,1.8,0,0,1,1.177-.333h1.448s.073,0,.073.1v.365c0,.063,0,.094-.083.094H37.764a1.74,1.74,0,0,0-.583.073.427.427,0,0,0-.26.229,1.3,1.3,0,0,0-.063.458v1.042h2.261a.074.074,0,1,1,.1.1v.281a.135.135,0,0,1,0,.1.146.146,0,0,1-.1,0H36.857V82.7a1.281,1.281,0,0,0,.063.458.417.417,0,0,0,.26.24,1.74,1.74,0,0,0,.583.073h1.427c.052,0,.083,0,.083.094Z" transform="translate(0.972 1.785)" fill="#005aa9"/>
    <path id="Path_6" data-name="Path 6" d="M43.576,83.9a.177.177,0,0,1,0,.115.208.208,0,0,1-.125.052,7.293,7.293,0,0,1-1.386.156,1.688,1.688,0,0,1-.9-.219,1.334,1.334,0,0,1-.542-.636,2.469,2.469,0,0,1-.177-.969V81.87a2.678,2.678,0,0,1,.1-.771,1.48,1.48,0,0,1,.3-.563,1.25,1.25,0,0,1,.5-.344,1.907,1.907,0,0,1,.709-.135,4.616,4.616,0,0,1,.865.073v-1.4a.07.07,0,1,1,.1-.094h.375a.125.125,0,0,1,.094,0,.156.156,0,0,1,0,.1Zm-.646-.323V80.662h-.865a.844.844,0,0,0-.74.313,1.615,1.615,0,0,0-.219.927v.531a1.657,1.657,0,0,0,.219.948.834.834,0,0,0,.74.313,6.314,6.314,0,0,1,.865-.1Z" transform="translate(1.151 1.786)" fill="#005aa9"/>
    <path id="Path_7" data-name="Path 7" d="M44.941,82.6V80.185a.156.156,0,0,1,0-.1.135.135,0,0,1,.1,0H45.4a.146.146,0,0,1,.146.146V82.6a1.157,1.157,0,0,0,.2.771.844.844,0,0,0,.656.219h.458l.5-.094V80.185a.146.146,0,0,1,0-.1.135.135,0,0,1,.1,0h.365a.135.135,0,0,1,.1,0,.156.156,0,0,1,0,.1v3.563a.167.167,0,0,1-.135.177,6.252,6.252,0,0,1-1.532.229,1.761,1.761,0,0,1-.865-.177.979.979,0,0,1-.448-.521,2.386,2.386,0,0,1-.01-.854Z" transform="translate(1.338 1.847)" fill="#005aa9"/>
    <path id="Path_8" data-name="Path 8" d="M50.883,84.167a1.74,1.74,0,0,1-.677-.125,1.292,1.292,0,0,1-.5-.354,1.553,1.553,0,0,1-.3-.563,2.657,2.657,0,0,1-.094-.75V81.8a2.386,2.386,0,0,1,.177-.959,1.313,1.313,0,0,1,.531-.615,1.636,1.636,0,0,1,.865-.219,2.083,2.083,0,0,1,.573.073,1.708,1.708,0,0,1,.4.146l.083.063a.156.156,0,0,1,0,.094v.26c0,.1-.052.135-.167.094a2.709,2.709,0,0,0-.906-.167q-.927,0-.927,1.229v.573a1.49,1.49,0,0,0,.24.917.813.813,0,0,0,.688.313,2.7,2.7,0,0,0,.906-.167c.115,0,.167,0,.167.094V83.8a.156.156,0,0,1,0,.094l-.083.063a2.085,2.085,0,0,1-.4.146A2.177,2.177,0,0,1,50.883,84.167Z" transform="translate(1.522 1.844)" fill="#005aa9"/>
    <path id="Path_9" data-name="Path 9" d="M56.06,83.818c0,.094,0,.146-.115.167a4.352,4.352,0,0,1-.583.125,4.45,4.45,0,0,1-.667,0,2.084,2.084,0,0,1-1.24-.292,1.1,1.1,0,0,1-.375-.927v-.063a1.209,1.209,0,0,1,.177-.677,1.042,1.042,0,0,1,.563-.4,3.407,3.407,0,0,1,1.042-.125h.552v-.292a.917.917,0,0,0-.177-.636.854.854,0,0,0-.615-.177,3.292,3.292,0,0,0-.573,0l-.552.135a.146.146,0,0,1-.125,0,.094.094,0,0,1,0-.094v-.292a.146.146,0,0,1,.1-.135,3.26,3.26,0,0,1,.5-.156,2.927,2.927,0,0,1,.7-.083q1.438,0,1.438,1.386Zm-.646-.24V82.14h-.552a3.27,3.27,0,0,0-.563,0,.886.886,0,0,0-.333.125.49.49,0,0,0-.177.219.969.969,0,0,0,0,.344v.063a.906.906,0,0,0,.083.417.479.479,0,0,0,.292.229,1.886,1.886,0,0,0,.583.073h.531Z" transform="translate(1.68 1.839)" fill="#005aa9"/>
    <path id="Path_10" data-name="Path 10" d="M59.66,84.017c0,.073,0,.115-.135.125a3.446,3.446,0,0,1-.448.063A1.156,1.156,0,0,1,58.306,84a1.042,1.042,0,0,1-.271-.834V80.62l-.719-.083a.129.129,0,0,1-.146-.135v-.2c0-.083,0-.135.146-.135h.719v-.729a.135.135,0,0,1,.125-.146l.386-.052h0a.1.1,0,0,1,.083,0,.125.125,0,0,1,0,.094v.8h.8a.074.074,0,0,1,.1.1v.25a.135.135,0,0,1,0,.1.156.156,0,0,1-.1,0h-.8v2.667a.573.573,0,0,0,.083.375.438.438,0,0,0,.313.083h.417c.1,0,.156,0,.156.1Z" transform="translate(1.852 1.807)" fill="#005aa9"/>
    <path id="Path_11" data-name="Path 11" d="M61.526,79.288a.135.135,0,0,1,0,.1.146.146,0,0,1-.1,0H61a.146.146,0,0,1-.1,0,.135.135,0,0,1,0-.1V78.7a.156.156,0,0,1,0-.1.146.146,0,0,1,.1,0h.375a.146.146,0,0,1,.1,0,.156.156,0,0,1,0,.1Zm0,4.709a.074.074,0,1,1-.1.1H61a.146.146,0,0,1-.1,0,.135.135,0,0,1,0-.1V80.247a.074.074,0,0,1,.1-.1h.354a.077.077,0,1,1,.1.115Z" transform="translate(2.008 1.785)" fill="#005aa9"/>
    <path id="Path_12" data-name="Path 12" d="M66.223,82.345a1.928,1.928,0,0,1-.427,1.313,1.771,1.771,0,0,1-2.438,0,1.928,1.928,0,0,1-.427-1.313v-.563a1.938,1.938,0,0,1,.427-1.323,1.771,1.771,0,0,1,2.438,0,1.938,1.938,0,0,1,.427,1.323Zm-.646,0v-.563a1.823,1.823,0,0,0-.1-.656.865.865,0,0,0-.323-.427,1.042,1.042,0,0,0-.563-.146.875.875,0,0,0-.75.323,1.48,1.48,0,0,0-.25.906v.563q0,1.229,1.042,1.229a.886.886,0,0,0,.75-.323A1.459,1.459,0,0,0,65.577,82.345Z" transform="translate(2.093 1.843)" fill="#005aa9"/>
    <path id="Path_13" data-name="Path 13" d="M70.583,81.521v2.428a.135.135,0,0,1,0,.1.146.146,0,0,1-.1,0H70.1a.146.146,0,0,1-.146-.146V81.521a1.584,1.584,0,0,0-.094-.583.573.573,0,0,0-.281-.313,1.125,1.125,0,0,0-.49-.094,3.668,3.668,0,0,0-.948.135v3.282a.156.156,0,0,1-.146.146h-.365a.07.07,0,0,1-.094-.1V80.386a.167.167,0,0,1,.135-.177A6.334,6.334,0,0,1,69.135,80a2.084,2.084,0,0,1,.7.1,1.042,1.042,0,0,1,.448.3,1.209,1.209,0,0,1,.229.469A2.834,2.834,0,0,1,70.583,81.521Z" transform="translate(2.286 1.844)" fill="#005aa9"/>
    <path id="Path_14" data-name="Path 14" d="M77.612,82.726a1.469,1.469,0,0,1-.406,1.042,1.823,1.823,0,0,1-1.354.427,3.355,3.355,0,0,1-.75-.094,3.063,3.063,0,0,1-.656-.208.344.344,0,0,1-.115-.083.219.219,0,0,1,0-.115v-.3c0-.094,0-.125.146-.083a5.831,5.831,0,0,0,.709.2,3.417,3.417,0,0,0,.709.083,1.532,1.532,0,0,0,.6-.1.667.667,0,0,0,.333-.3,1.042,1.042,0,0,0,.1-.458.688.688,0,0,0-.177-.479,3.293,3.293,0,0,0-.7-.511l-.719-.438a2.844,2.844,0,0,1-.781-.646,1.177,1.177,0,0,1-.24-.74,1.282,1.282,0,0,1,.2-.729,1.167,1.167,0,0,1,.573-.438,2.4,2.4,0,0,1,.865-.146,3.251,3.251,0,0,1,.771.094,2.9,2.9,0,0,1,.563.177h.094a.1.1,0,0,1,0,.083v.375c0,.094,0,.125-.146.094l-.458-.135-.427-.094a3.051,3.051,0,0,0-.438,0,1.313,1.313,0,0,0-.729.156.7.7,0,0,0,0,.979,3.219,3.219,0,0,0,.625.458l.677.406a3,3,0,0,1,.9.719A1.292,1.292,0,0,1,77.612,82.726Z" transform="translate(2.571 1.785)" fill="#005aa9"/>
    <path id="Path_15" data-name="Path 15" d="M82.053,82.345a1.917,1.917,0,0,1-.427,1.313,1.771,1.771,0,0,1-2.438,0,1.917,1.917,0,0,1-.427-1.313v-.563a1.927,1.927,0,0,1,.427-1.323,1.771,1.771,0,0,1,2.438,0,1.927,1.927,0,0,1,.427,1.323Zm-.646,0v-.563a1.865,1.865,0,0,0-.1-.656.875.875,0,0,0-.333-.427,1.042,1.042,0,0,0-.563-.146.875.875,0,0,0-.75.323,1.49,1.49,0,0,0-.25.906v.563q0,1.229,1.042,1.229a.886.886,0,0,0,.75-.323A1.459,1.459,0,0,0,81.407,82.345Z" transform="translate(2.757 1.843)" fill="#005aa9"/>
    <path id="Path_16" data-name="Path 16" d="M84.023,84.006a.156.156,0,0,1,0,.1.125.125,0,0,1-.094,0h-.386a.125.125,0,0,1-.094,0,.146.146,0,0,1,0-.1V78.734a.156.156,0,0,1,0-.094.115.115,0,0,1,.1,0h.386a.125.125,0,0,1,.094,0,.146.146,0,0,1,0,.1Z" transform="translate(2.953 1.786)" fill="#005aa9"/>
    <path id="Path_17" data-name="Path 17" d="M85.532,82.6V80.185a.156.156,0,0,1,0-.1.146.146,0,0,1,.1,0h.386a.074.074,0,0,1,.1.1V82.6a1.157,1.157,0,0,0,.2.771.844.844,0,0,0,.656.219h.458l.5-.094V80.185a.156.156,0,0,1,0-.1.146.146,0,0,1,.1,0H88.4a.135.135,0,0,1,.1,0,.156.156,0,0,1,0,.1v3.563a.167.167,0,0,1-.135.177,6.252,6.252,0,0,1-1.532.229,1.761,1.761,0,0,1-.865-.177,1.042,1.042,0,0,1-.448-.521A2.428,2.428,0,0,1,85.532,82.6Z" transform="translate(3.039 1.847)" fill="#005aa9"/>
    <path id="Path_18" data-name="Path 18" d="M92.23,84.017c0,.073,0,.115-.135.125a3.446,3.446,0,0,1-.479,0,1.156,1.156,0,0,1-.771-.208,1.042,1.042,0,0,1-.229-.781V80.62l-.719-.083a.129.129,0,0,1-.146-.135v-.2c0-.083,0-.135.146-.135h.719v-.729a.135.135,0,0,1,.125-.146l.386-.052h0a.1.1,0,0,1,.083,0,.135.135,0,0,1,0,.094v.8h.886a.146.146,0,0,1,.146.146v.25a.136.136,0,0,1,0,.1.146.146,0,0,1-.1,0h-.875v2.626a.584.584,0,0,0,.083.375.438.438,0,0,0,.313.083h.438c.1,0,.156,0,.156.1Z" transform="translate(3.217 1.807)" fill="#005aa9"/>
    <path id="Path_19" data-name="Path 19" d="M94.094,79.29a.074.074,0,0,1-.1.1h-.375a.074.074,0,1,1-.1-.1v-.583a.146.146,0,0,1,.146-.146h.375a.074.074,0,0,1,.1.1Zm0,4.709a.135.135,0,0,1,0,.1.146.146,0,0,1-.1,0h-.354a.146.146,0,0,1-.1,0,.135.135,0,0,1,0-.1V80.248a.074.074,0,0,1,.1-.1h.354a.135.135,0,0,1,.146.146Z" transform="translate(3.375 1.783)" fill="#005aa9"/>
    <path id="Path_20" data-name="Path 20" d="M98.793,82.345a1.917,1.917,0,0,1-.427,1.313,1.771,1.771,0,0,1-2.438,0,1.928,1.928,0,0,1-.427-1.313v-.563a1.938,1.938,0,0,1,.427-1.323,1.771,1.771,0,0,1,2.438,0,1.928,1.928,0,0,1,.427,1.323Zm-.646,0v-.563a1.8,1.8,0,0,0-.1-.656.865.865,0,0,0-.323-.427,1.042,1.042,0,0,0-.563-.146.875.875,0,0,0-.75.323,1.479,1.479,0,0,0-.25.906v.563q0,1.229,1.042,1.229a.886.886,0,0,0,.75-.323,1.469,1.469,0,0,0,.156-.906Z" transform="translate(3.458 1.843)" fill="#005aa9"/>
    <path id="Path_21" data-name="Path 21" d="M103.118,81.522V83.95a.074.074,0,1,1-.1.1h-.354a.135.135,0,0,1-.1,0,.146.146,0,0,1,0-.1V81.522a1.6,1.6,0,0,0-.083-.583.573.573,0,0,0-.281-.313,1.115,1.115,0,0,0-.49-.094,3.668,3.668,0,0,0-.948.135V83.95a.146.146,0,0,1,0,.1.135.135,0,0,1-.1,0h-.365a.125.125,0,0,1-.094,0,.146.146,0,0,1,0-.1V80.386a.167.167,0,0,1,.135-.177,6.323,6.323,0,0,1,1.521-.229,2.083,2.083,0,0,1,.7.1,1.042,1.042,0,0,1,.448.3,1.2,1.2,0,0,1,.229.469,2.75,2.75,0,0,1-.1.667Z" transform="translate(3.655 1.843)" fill="#005aa9"/>
    <path id="Path_22" data-name="Path 22" d="M105.65,83.6q.8,0,.8-.563a.417.417,0,0,0-.115-.292,1.709,1.709,0,0,0-.438-.292l-.75-.386a1.646,1.646,0,0,1-.563-.458,1.042,1.042,0,0,1-.188-.625.875.875,0,0,1,.2-.6,1.042,1.042,0,0,1,.511-.313,2.5,2.5,0,0,1,.7-.094,2.855,2.855,0,0,1,.594.062,1.689,1.689,0,0,1,.438.146h.083a.115.115,0,0,1,0,.073v.3a.1.1,0,0,1,0,.094.135.135,0,0,1-.125,0,2.76,2.76,0,0,0-.479-.135,2.573,2.573,0,0,0-.49-.052,1.428,1.428,0,0,0-.552.083.344.344,0,0,0-.208.354.458.458,0,0,0,.115.323,1.417,1.417,0,0,0,.386.271l.729.375a2.084,2.084,0,0,1,.49.323.969.969,0,0,1,.25.344,1.148,1.148,0,0,1-.115,1.031,1.094,1.094,0,0,1-.521.386,2.084,2.084,0,0,1-.75.125,2.709,2.709,0,0,1-.625-.073,2.313,2.313,0,0,1-.479-.156c-.073,0-.1-.083-.1-.135v-.3a.115.115,0,0,1,0-.094.125.125,0,0,1,.125,0A2.855,2.855,0,0,0,105.65,83.6Z" transform="translate(3.831 1.842)" fill="#005aa9"/>
  </g>
</svg>
