<svg xmlns="http://www.w3.org/2000/svg" width="15" height="15" viewBox="0 0 15 15">
  <path id="icon-duyet-khongduyet" d="M9.429,3a2.857,2.857,0,1,0,2.857,2.857A2.868,2.868,0,0,0,9.429,3ZM5.856,7.287A3.149,3.149,0,0,0,3.716,8,3.142,3.142,0,0,0,3,10.14a3.142,3.142,0,0,0,2.139-.713A3.149,3.149,0,0,0,5.856,7.287Zm7.859,2.141a4.277,4.277,0,0,0-3.245,1.5,9.321,9.321,0,0,0-1.041-.068,11.391,11.391,0,0,0-3.965.783,5.963,5.963,0,0,0-1.631.91A2.015,2.015,0,0,0,3,14.071v1.786h7.01a4.283,4.283,0,1,0,3.7-6.429Zm0,1.429a2.835,2.835,0,0,1,1.861.7l-1.861,1.861-.924-.924-1.01,1.01,1.934,1.934L16.4,12.756a2.852,2.852,0,1,1-2.683-1.9Z" transform="translate(-3 -3)" fill="#fff"/>
</svg>
