<svg xmlns="http://www.w3.org/2000/svg" width="18.749" height="15" viewBox="0 0 18.749 15">
  <path id="icon-nhapykien" d="M6.562,7.5a3.75,3.75,0,1,0-3.75-3.75A3.75,3.75,0,0,0,6.562,7.5Zm2.625.937H8.7a5.1,5.1,0,0,1-4.271,0H3.937A3.938,3.938,0,0,0,0,12.375v1.219A1.407,1.407,0,0,0,1.406,15H9.46a1.407,1.407,0,0,1-.076-.624l.2-1.784.035-.325.231-.231L12.114,9.77A3.9,3.9,0,0,0,9.187,8.437Zm1.327,4.257-.2,1.787a.466.466,0,0,0,.516.516l1.784-.2,4.04-4.04-2.1-2.1-4.04,4.037Zm8.03-4.816-1.11-1.11a.7.7,0,0,0-.99,0L15.337,7.875l-.12.12,2.1,2.1,1.225-1.225a.706.706,0,0,0,0-.993Z" fill="#fff"/>
</svg>
