<svg id="icon-xinykien" xmlns="http://www.w3.org/2000/svg" width="15" height="15" viewBox="0 0 15 15">
  <path id="Path_18904" data-name="Path 18904" d="M11.719,2.161a.469.469,0,0,1-.469-.469V.469a.469.469,0,0,1,.938,0V1.692A.469.469,0,0,1,11.719,2.161Z" transform="translate(-4.219)" fill="#fff"/>
  <path id="Path_18905" data-name="Path 18905" d="M18.29,5.1a.469.469,0,0,1-.331-.8l.865-.865a.469.469,0,0,1,.663.663l-.865.865A.47.47,0,0,1,18.29,5.1Z" transform="translate(-6.683 -1.235)" fill="#fff"/>
  <path id="Path_18906" data-name="Path 18906" d="M22.235,12.188H21.012a.469.469,0,1,1,0-.937h1.223a.469.469,0,0,1,0,.938Z" transform="translate(-7.704 -4.219)" fill="#fff"/>
  <path id="Path_18907" data-name="Path 18907" d="M19.155,19.623a.465.465,0,0,1-.331-.138l-.865-.865a.469.469,0,0,1,.663-.663l.865.865a.469.469,0,0,1-.332.8Z" transform="translate(-6.683 -6.683)" fill="#fff"/>
  <path id="Path_18908" data-name="Path 18908" d="M3.764,19.623a.469.469,0,0,1-.331-.8l.865-.865a.469.469,0,0,1,.663.663l-.865.865A.468.468,0,0,1,3.764,19.623Z" transform="translate(-1.236 -6.683)" fill="#fff"/>
  <path id="Path_18909" data-name="Path 18909" d="M1.692,12.188H.469a.469.469,0,0,1,0-.937H1.692a.469.469,0,1,1,0,.938Z" transform="translate(0 -4.219)" fill="#fff"/>
  <path id="Path_18910" data-name="Path 18910" d="M4.629,5.1A.465.465,0,0,1,4.3,4.96l-.865-.865A.469.469,0,0,1,4.1,3.432l.865.865a.469.469,0,0,1-.332.8Z" transform="translate(-1.236 -1.235)" fill="#fff"/>
  <path id="Path_18911" data-name="Path 18911" d="M12.75,21v.781a1.1,1.1,0,0,1-1.094,1.094H10.094A1.139,1.139,0,0,1,9,21.6V21Z" transform="translate(-3.375 -7.875)" fill="#fff"/>
  <path id="Path_18912" data-name="Path 18912" d="M12.131,5.976a4.375,4.375,0,1,0-5.388,6.894,1.887,1.887,0,0,1,.713,1.194v.006a.106.106,0,0,1,.044-.006h3.75a.056.056,0,0,1,.031.006v-.006a2.085,2.085,0,0,1,.8-1.25,4.377,4.377,0,0,0,.05-6.837Zm-.413,3.712a.472.472,0,0,1-.469-.469A1.718,1.718,0,0,0,9.531,7.5a.469.469,0,0,1,0-.937,2.662,2.662,0,0,1,2.656,2.656A.472.472,0,0,1,11.718,9.688Z" transform="translate(-1.875 -1.876)" fill="#fff"/>
  <path id="Path_18913" data-name="Path 18913" d="M8.93,19.5h.044a.106.106,0,0,0-.044.006Z" transform="translate(-3.349 -7.313)" fill="#fff"/>
  <path id="Path_18914" data-name="Path 18914" d="M15.031,19.5v.006A.056.056,0,0,0,15,19.5Z" transform="translate(-5.625 -7.313)" fill="#fff"/>
</svg>
