<svg xmlns="http://www.w3.org/2000/svg" xmlns:xlink="http://www.w3.org/1999/xlink" width="225.448" height="141.521" viewBox="0 0 225.448 141.521">
  <defs>
    <linearGradient id="linear-gradient" y1="0.5" x2="1" y2="0.5" gradientUnits="objectBoundingBox">
      <stop offset="0.005" stop-color="#00803d"/>
      <stop offset="1" stop-color="#00c23d"/>
    </linearGradient>
    <linearGradient id="linear-gradient-3" x1="-44.137" y1="0.5" x2="-43.137" y2="0.5" xlink:href="#linear-gradient"/>
    <linearGradient id="linear-gradient-4" x1="-47.291" y1="0.5" x2="-46.291" y2="0.5" xlink:href="#linear-gradient"/>
    <linearGradient id="linear-gradient-5" x1="-63.111" y1="0.5" x2="-62.111" y2="0.5" xlink:href="#linear-gradient"/>
    <linearGradient id="linear-gradient-6" x1="-54.669" y1="0.5" x2="-53.669" y2="0.5" xlink:href="#linear-gradient"/>
    <linearGradient id="linear-gradient-7" x1="-0.055" y1="0.5" x2="0.945" y2="0.5" gradientUnits="objectBoundingBox">
      <stop offset="0" stop-color="#e59148"/>
      <stop offset="1" stop-color="#f1cc52"/>
    </linearGradient>
    <linearGradient id="linear-gradient-8" x1="-0.055" y1="0.5" x2="0.945" y2="0.5" gradientUnits="objectBoundingBox">
      <stop offset="0" stop-color="#b37239"/>
      <stop offset="1" stop-color="#f1cc52"/>
    </linearGradient>
    <linearGradient id="linear-gradient-11" x1="0.5" y1="0.155" x2="0.5" y2="1.196" gradientUnits="objectBoundingBox">
      <stop offset="0" stop-color="#d3d8de"/>
      <stop offset="1" stop-color="#fff"/>
    </linearGradient>
  </defs>
  <g id="img-baocaothongke" transform="translate(-1297.843 -481.658)">
    <path id="Path_2719" data-name="Path 2719" d="M1518.844,1355.637c0,2.856-49.473,5.172-110.5,5.172s-110.5-2.315-110.5-5.172,49.472-5.172,110.5-5.172S1518.844,1352.781,1518.844,1355.637Z" transform="translate(0 -737.63)" fill="url(#linear-gradient)"/>
    <g id="Group_260" data-name="Group 260" transform="translate(1408.963 557.595)">
      <rect id="Rectangle_157" data-name="Rectangle 157" width="14.391" height="43.71" transform="translate(14.391 43.71) rotate(180)" fill="#8d8d8d"/>
    </g>
    <path id="Rectangle_158" data-name="Rectangle 158" d="M41.861,0H183.4a41.861,41.861,0,0,1,41.861,41.861V62.8a41.86,41.86,0,0,1-41.86,41.86H41.861A41.861,41.861,0,0,1,0,62.8V41.861A41.861,41.861,0,0,1,41.861,0Z" transform="translate(1298.027 494.989)" fill="#ecf4f3"/>
    <g id="Group_261" data-name="Group 261" transform="translate(1358.893 481.658)">
      <rect id="Rectangle_159" data-name="Rectangle 159" width="114.531" height="83.255" transform="translate(114.531 83.255) rotate(180)" fill="#fff"/>
    </g>
    <g id="Group_262" data-name="Group 262" transform="translate(1358.893 481.658)">
      <rect id="Rectangle_160" data-name="Rectangle 160" width="114.531" height="10.056" transform="translate(114.531 10.056) rotate(180)" fill="url(#linear-gradient)"/>
    </g>
    <g id="Group_263" data-name="Group 263" transform="translate(1459.487 567.191)">
      <path id="Path_2720" data-name="Path 2720" d="M2368.429,1052.158c0,2.214,2.11,4.009,4.713,4.009s4.713-1.795,4.713-4.009-2.11-4.008-4.713-4.008S2368.429,1049.944,2368.429,1052.158Z" transform="translate(-2368.429 -1048.15)" fill="#cacaca"/>
    </g>
    <rect id="Rectangle_161" data-name="Rectangle 161" width="64.742" height="3.3" transform="translate(1383.788 599.655)" fill="#cacaca"/>
    <path id="Path_2721" data-name="Path 2721" d="M1748.306,506.176H1735.77a1.9,1.9,0,0,1-1.9-1.9h0a1.9,1.9,0,0,1,1.9-1.9h12.536a1.9,1.9,0,0,1,1.9,1.9h0A1.9,1.9,0,0,1,1748.306,506.176Z" transform="translate(-370.194 -17.591)" fill="#f4f6ff"/>
    <rect id="Rectangle_162" data-name="Rectangle 162" width="59.964" height="2.061" transform="translate(1367.284 526.75)" fill="#e4e4e4"/>
    <rect id="Rectangle_163" data-name="Rectangle 163" width="44.475" height="2.061" transform="translate(1367.284 530.463)" fill="#e4e4e4"/>
    <rect id="Rectangle_164" data-name="Rectangle 164" width="28.201" height="2.061" transform="translate(1367.284 538.529)" fill="#e4e4e4"/>
    <rect id="Rectangle_165" data-name="Rectangle 165" width="50.664" height="2.061" transform="translate(1367.284 542.242)" fill="#e4e4e4"/>
    <rect id="Rectangle_166" data-name="Rectangle 166" width="47.462" height="2.061" transform="translate(1367.284 551.112)" fill="#e4e4e4"/>
    <rect id="Rectangle_167" data-name="Rectangle 167" width="57.956" height="2.061" transform="translate(1367.284 554.824)" fill="#e4e4e4"/>
    <rect id="Rectangle_168" data-name="Rectangle 168" width="1.506" height="5.773" transform="translate(1364.358 526.75)" fill="#d7e5dd"/>
    <rect id="Rectangle_169" data-name="Rectangle 169" width="1.506" height="5.773" transform="translate(1364.358 538.529)" fill="#d7e5dd"/>
    <rect id="Rectangle_170" data-name="Rectangle 170" width="1.506" height="5.774" transform="translate(1364.358 551.112)" fill="#d7e5dd"/>
    <g id="Group_268" data-name="Group 268" transform="translate(1440.632 551.226)">
      <g id="Group_264" data-name="Group 264" transform="translate(0 0)">
        <path id="Path_2722" data-name="Path 2722" d="M2247.683,950.674h0a4.13,4.13,0,0,1-4.129-4.129h0a4.13,4.13,0,0,1,4.129-4.129h0a4.13,4.13,0,0,1,4.13,4.129h0A4.13,4.13,0,0,1,2247.683,950.674Z" transform="translate(-2243.554 -942.415)" fill="#d7e5dd"/>
      </g>
      <g id="Group_267" data-name="Group 267" transform="translate(1.639 2.31)">
        <g id="Group_266" data-name="Group 266">
          <g id="Group_265" data-name="Group 265">
            <path id="Path_2723" data-name="Path 2723" d="M2256.639,961.356l-2.088-1.82a.411.411,0,1,1,.54-.62l1.476,1.287,2.106-2.349a.411.411,0,0,1,.613.549Z" transform="translate(-2254.41 -957.718)" fill="#f2f2f2"/>
          </g>
        </g>
      </g>
    </g>
    <g id="Group_271" data-name="Group 271" transform="translate(1440.628 538.639)">
      <g id="Group_270" data-name="Group 270" transform="translate(0 0)">
        <g id="Group_269" data-name="Group 269">
          <path id="Path_2724" data-name="Path 2724" d="M2249.912,867.319h-4.5a1.884,1.884,0,0,1-1.883-1.882v-4.5a1.885,1.885,0,0,1,1.883-1.882h4.5a1.885,1.885,0,0,1,1.882,1.882v4.5A1.885,1.885,0,0,1,2249.912,867.319Zm-4.5-7.743a1.36,1.36,0,0,0-1.358,1.358v4.5a1.36,1.36,0,0,0,1.358,1.358h4.5a1.36,1.36,0,0,0,1.358-1.358v-4.5a1.36,1.36,0,0,0-1.358-1.358Z" transform="translate(-2243.527 -859.052)" fill="#d7e5dd"/>
        </g>
      </g>
    </g>
    <g id="Group_274" data-name="Group 274" transform="translate(1453.064 526.057)">
      <g id="Group_273" data-name="Group 273">
        <g id="Group_272" data-name="Group 272">
          <path id="Path_2725" data-name="Path 2725" d="M2332.273,783.985h-4.5a1.885,1.885,0,0,1-1.882-1.882v-4.5a1.885,1.885,0,0,1,1.882-1.882h4.5a1.885,1.885,0,0,1,1.883,1.882v4.5A1.884,1.884,0,0,1,2332.273,783.985Zm-4.5-7.743a1.36,1.36,0,0,0-1.358,1.358v4.5a1.36,1.36,0,0,0,1.358,1.358h4.5a1.36,1.36,0,0,0,1.358-1.358v-4.5a1.36,1.36,0,0,0-1.358-1.358Z" transform="translate(-2325.889 -775.718)" fill="#d7e5dd"/>
        </g>
      </g>
    </g>
    <g id="Group_277" data-name="Group 277" transform="translate(1453.064 551.222)">
      <g id="Group_276" data-name="Group 276" transform="translate(0 0)">
        <g id="Group_275" data-name="Group 275">
          <path id="Path_2726" data-name="Path 2726" d="M2332.273,950.656h-4.5a1.884,1.884,0,0,1-1.882-1.882v-4.5a1.884,1.884,0,0,1,1.882-1.882h4.5a1.884,1.884,0,0,1,1.883,1.882v4.5A1.884,1.884,0,0,1,2332.273,950.656Zm-4.5-7.743a1.36,1.36,0,0,0-1.358,1.358v4.5a1.36,1.36,0,0,0,1.358,1.358h4.5a1.36,1.36,0,0,0,1.358-1.358v-4.5a1.36,1.36,0,0,0-1.358-1.358Z" transform="translate(-2325.889 -942.389)" fill="#d7e5dd"/>
        </g>
      </g>
    </g>
    <g id="Group_282" data-name="Group 282" transform="translate(1453.068 538.643)">
      <g id="Group_278" data-name="Group 278" transform="translate(0 0)">
        <path id="Path_2727" data-name="Path 2727" d="M2330.045,867.337h0a4.129,4.129,0,0,1-4.129-4.129h0a4.13,4.13,0,0,1,4.129-4.13h0a4.13,4.13,0,0,1,4.13,4.13h0A4.13,4.13,0,0,1,2330.045,867.337Z" transform="translate(-2325.915 -859.078)" fill="#d7e5dd"/>
      </g>
      <g id="Group_281" data-name="Group 281" transform="translate(1.639 2.311)">
        <g id="Group_280" data-name="Group 280">
          <g id="Group_279" data-name="Group 279">
            <path id="Path_2728" data-name="Path 2728" d="M2339,878.02l-2.088-1.82a.411.411,0,1,1,.54-.62l1.477,1.287,2.105-2.348a.411.411,0,1,1,.613.549Z" transform="translate(-2336.769 -874.382)" fill="#f2f2f2"/>
          </g>
        </g>
      </g>
    </g>
    <g id="Group_287" data-name="Group 287" transform="translate(1440.632 526.061)">
      <g id="Group_283" data-name="Group 283" transform="translate(0 0)">
        <path id="Path_2729" data-name="Path 2729" d="M2247.683,784h0a4.13,4.13,0,0,1-4.129-4.13h0a4.13,4.13,0,0,1,4.129-4.129h0a4.13,4.13,0,0,1,4.13,4.129h0A4.13,4.13,0,0,1,2247.683,784Z" transform="translate(-2243.554 -775.744)" fill="#d7e5dd"/>
      </g>
      <g id="Group_286" data-name="Group 286" transform="translate(1.639 2.311)">
        <g id="Group_285" data-name="Group 285">
          <g id="Group_284" data-name="Group 284">
            <path id="Path_2730" data-name="Path 2730" d="M2256.639,794.685l-2.088-1.82a.411.411,0,1,1,.54-.62l1.476,1.287,2.106-2.349a.411.411,0,0,1,.613.549Z" transform="translate(-2254.41 -791.047)" fill="#f2f2f2"/>
          </g>
        </g>
      </g>
    </g>
    <g id="Group_292" data-name="Group 292" transform="translate(1302.257 550.061)">
      <path id="Path_2731" data-name="Path 2731" d="M1443.246,934.8c-1.95-.933-3.89,5.274-3.89,5.274-3.314,4.379-7.945-1.446-7.492,5.1.792,11.455-13.185,3.6-6.737,15.561s-5.694,6.762-1.687,16.4-1.187,21.144,4.843,16.418c0,0,5.309-11.642,10.784-15.244s-3.28-7.876-1.567-12.768c2.488-7.107,8.483-6.827,4.16-14.463S1449.873,937.966,1443.246,934.8Z" transform="translate(-1408.186 -934.701)" fill="url(#linear-gradient-3)"/>
      <g id="Group_288" data-name="Group 288" transform="translate(17.939 12.144)">
        <path id="Path_2732" data-name="Path 2732" d="M1446.143,1057.459c2.614-1.838,5.672-14.647,5.855-22.277a10.745,10.745,0,0,1,2.267-6.972,5.894,5.894,0,0,0,1.326-5.282c-.937-5.2,1.526-7.45,1.551-7.472l-.285-.325c-.11.1-2.674,2.412-1.691,7.873a5.482,5.482,0,0,1-1.253,4.955,11.242,11.242,0,0,0-2.348,7.212c-.2,8.188-3.323,20.281-5.671,21.933Z" transform="translate(-1445.894 -1015.131)" fill="#fff"/>
      </g>
      <g id="Group_289" data-name="Group 289" transform="translate(0 29.763)">
        <path id="Path_2733" data-name="Path 2733" d="M1339.789,1152.8c-.247-.559-.5-1.138-.791-1.747-1.493-3.152-2.815-3.671-5.007-4.531-.535-.21-1.142-.448-1.808-.748-3.139-1.411-2.531-3.49-1.995-5.324.075-.256.15-.512.214-.765.276-1.078-.254-1.62-1.057-2.439a9.151,9.151,0,0,1-1.912-2.563c-.626-1.309-.307-2.012.071-2.37.8-.755,2.632-.615,4.366.331h0a6.309,6.309,0,0,1,1.451,1.25,7.191,7.191,0,0,0,5.959,2.614c1.983.009,3.07.283,3.632.915.639.718.518,1.792.352,3.278-.058.514-.123,1.1-.163,1.727a10.076,10.076,0,0,0,2,6.493c1.325,1.578,2.957,4.851,2.252,6.866a2.41,2.41,0,0,1-1.963,1.579,5.555,5.555,0,0,1-1.105.12C1341.856,1157.484,1340.966,1155.467,1339.789,1152.8Zm-8.126-19.777c-1.548-.846-3.208-1.016-3.861-.4-.5.47-.262,1.277.022,1.87a8.658,8.658,0,0,0,1.831,2.447c.84.857,1.5,1.535,1.167,2.849-.066.258-.142.518-.219.78-.534,1.826-1.038,3.551,1.757,4.807.657.295,1.258.531,1.789.74,2.212.868,3.673,1.442,5.24,4.748.291.615.548,1.2.8,1.758,1.352,3.064,2.168,4.914,5.124,4.316a2.007,2.007,0,0,0,1.641-1.3c.621-1.776-.865-4.884-2.176-6.446a10.324,10.324,0,0,1-2.1-6.8c.04-.64.106-1.229.164-1.748.154-1.376.266-2.369-.245-2.943-.467-.524-1.488-.762-3.312-.771a7.563,7.563,0,0,1-6.269-2.747,5.9,5.9,0,0,0-1.346-1.169Z" transform="translate(-1327.079 -1131.827)" fill="url(#linear-gradient-4)"/>
      </g>
      <g id="Group_290" data-name="Group 290" transform="translate(3.353 33.215)">
        <path id="Path_2734" data-name="Path 2734" d="M1364.2,1179.391l.432-.022c-.021-.406-.566-9.965-4.4-12.762a15.361,15.361,0,0,1-6.17-8.581c-.745-2.609-4.537-3.307-4.7-3.335l-.075.425c.037.007,3.687.679,4.357,3.027a15.772,15.772,0,0,0,6.332,8.812C1363.647,1169.634,1364.195,1179.295,1364.2,1179.391Z" transform="translate(-1349.284 -1154.691)" fill="url(#linear-gradient-5)"/>
      </g>
      <path id="Path_2735" data-name="Path 2735" d="M1372.384,998.609c2.728-.935,2.161,4.322,3.314,8.212s12.824,1.7,7.925,11.439,6.2,3.258,2.882,11.759-.289,17.593-3.891,15.28-2.024-13.017-5.77-14.289-4.357-2.756-.648-6.214-9.719-6.891-6.405-13.874S1369.232,999.689,1372.384,998.609Z" transform="translate(-1362.891 -988.867)" fill="url(#linear-gradient-6)"/>
      <g id="Group_291" data-name="Group 291" transform="translate(10.865 21.936)">
        <path id="Path_2736" data-name="Path 2736" d="M1406.226,1114.076c.343-1.455,3.273-14.262.539-15.81-2.409-1.364-2.35-6.671-1.974-11.682.333-4.436-5.365-6.51-5.607-6.6l-.145.408c.056.02,5.629,2.05,5.321,6.156-.386,5.146-.427,10.607,2.192,12.091,2.076,1.176.165,11.468-.747,15.335Z" transform="translate(-1399.039 -1079.987)" fill="#fff"/>
      </g>
      <path id="Path_2737" data-name="Path 2737" d="M1422.06,1275.557l-3.9,14.777h-8.7l-3.9-14.777Z" transform="translate(-1393.716 -1224.092)" fill="url(#linear-gradient-7)"/>
      <path id="Path_2738" data-name="Path 2738" d="M1422.06,1275.557s-8.574,1.61-8.574,14.776h-4.025l-3.895-14.776Z" transform="translate(-1393.715 -1224.092)" fill="url(#linear-gradient-8)"/>
    </g>
    <rect id="Rectangle_171" data-name="Rectangle 171" width="8.824" height="1.087" transform="translate(1370.21 519.511)" fill="#d4d4d4"/>
    <rect id="Rectangle_172" data-name="Rectangle 172" width="13.105" height="1.087" transform="translate(1368.069 517.575)" fill="#d4d4d4"/>
    <path id="Path_2739" data-name="Path 2739" d="M1795.957,607.894a2.278,2.278,0,1,1-2.278-2.278A2.278,2.278,0,0,1,1795.957,607.894Z" transform="translate(-419.038 -105.242)" fill="url(#linear-gradient)"/>
    <path id="Path_2740" data-name="Path 2740" d="M1787.266,646.675v4.333a10.022,10.022,0,0,1-8.259,0v-4.333a4.13,4.13,0,1,1,8.259,0Z" transform="translate(-408.515 -136.595)" fill="url(#linear-gradient)"/>
    <g id="Group_293" data-name="Group 293" transform="translate(1364.358 495.047)">
      <path id="Path_2741" data-name="Path 2741" d="M1748.646,590.861a10.177,10.177,0,0,1-4.242-.915,10.264,10.264,0,1,1,8.484,0A10.18,10.18,0,0,1,1748.646,590.861Zm0-19.985a9.724,9.724,0,1,0,9.722,9.722A9.733,9.733,0,0,0,1748.646,570.876Z" transform="translate(-1738.382 -570.334)" fill="url(#linear-gradient-11)"/>
    </g>
    <rect id="Rectangle_173" data-name="Rectangle 173" width="4.761" height="1.055" transform="translate(1390.607 495.41)" fill="#e4e4e4"/>
    <rect id="Rectangle_174" data-name="Rectangle 174" width="5.58" height="1.055" transform="translate(1404.495 495.41)" fill="#e4e4e4"/>
    <rect id="Rectangle_175" data-name="Rectangle 175" width="3.492" height="1.055" transform="translate(1418.429 495.41)" fill="#e4e4e4"/>
    <rect id="Rectangle_176" data-name="Rectangle 176" width="6.377" height="1.055" transform="translate(1432.065 495.41)" fill="#e4e4e4"/>
    <rect id="Rectangle_177" data-name="Rectangle 177" width="5.274" height="1.055" transform="translate(1444.762 495.41)" fill="#e4e4e4"/>
    <rect id="Rectangle_178" data-name="Rectangle 178" width="6.657" height="1.055" transform="translate(1457.197 495.41)" fill="#e4e4e4"/>
    <rect id="Rectangle_179" data-name="Rectangle 179" width="0.159" height="16.295" transform="translate(1390.607 498.43)" fill="#e4e4e4"/>
    <rect id="Rectangle_180" data-name="Rectangle 180" width="0.159" height="16.295" transform="translate(1404.416 498.43)" fill="#e4e4e4"/>
    <rect id="Rectangle_181" data-name="Rectangle 181" width="0.159" height="16.295" transform="translate(1418.429 498.43)" fill="#e4e4e4"/>
    <rect id="Rectangle_182" data-name="Rectangle 182" width="0.158" height="16.295" transform="translate(1431.985 498.43)" fill="#e4e4e4"/>
    <rect id="Rectangle_183" data-name="Rectangle 183" width="0.159" height="16.295" transform="translate(1444.683 498.43)" fill="#e4e4e4"/>
    <rect id="Rectangle_184" data-name="Rectangle 184" width="0.159" height="16.295" transform="translate(1457.118 498.43)" fill="#e4e4e4"/>
    <g id="Group_294" data-name="Group 294" transform="translate(1390.607 501.578)" opacity="0.54">
      <path id="Path_2742" data-name="Path 2742" d="M1912.228,626.735l4.325-6.092,3.265,4.6,5.066-7.134h2.332l3.461,2.108,4.162-5.861,5.717,8.052,3.562-5.016h.954l1.889-2.66,5.086,7.164,2.389-3.364,2.432,3.425,4.191-5.9,3.193,4.5h2.335l4.942-6.96,5.166,7.276,8.783-7.276v13.148Z" transform="translate(-1912.228 -613.588)" fill="url(#linear-gradient)"/>
    </g>
    <g id="Group_295" data-name="Group 295" transform="translate(1402.714 503.733)">
      <path id="Path_2743" data-name="Path 2743" d="M1992.418,638.857l3.54-4.986,2.071,2.917,4.217-5.94,4,5.635h3.153l2.837-4h3.716l4.031,5.678,2.626-3.7,1.467,2.066,4.811-6.778,3.573,5.033h3.113l3.531-4.973,1.553,2.187,1.27-1.789,3.282,4.623h3.4l4.949-6.97v10.992Z" transform="translate(-1992.418 -627.865)" fill="url(#linear-gradient)"/>
    </g>
    <g id="Group_322" data-name="Group 322" transform="translate(1455.92 543.068)">
      <path id="Path_2744" data-name="Path 2744" d="M2544.717,927.393s.484,4.771-.4,5.968c0,0,2.333-.508,2.874-1.312S2544.717,927.393,2544.717,927.393Z" transform="translate(-2514.196 -921.503)" fill="#cd7250"/>
      <g id="Group_296" data-name="Group 296" transform="translate(12.634 20.414)">
        <path id="Path_2745" data-name="Path 2745" d="M2431.8,1024.3s-.846-.569-.978-.652a2.465,2.465,0,0,0-1.065-.01,2.848,2.848,0,0,0-1.183.439.438.438,0,0,0-.083.357.84.84,0,0,0,.179.388.512.512,0,0,0,.108.483.446.446,0,0,0,.189.46.373.373,0,0,0,.138.388,3.413,3.413,0,0,1,.6.029,7.112,7.112,0,0,0,1.921-.267S2432.574,1025.715,2431.8,1024.3Z" transform="translate(-2428.48 -1023.594)" fill="#dba585"/>
      </g>
      <g id="Group_297" data-name="Group 297" transform="translate(14.179 21.519)">
        <path id="Path_2746" data-name="Path 2746" d="M2439.046,1030.91a2.5,2.5,0,0,0,.39.533c.134.088-.652.934-.652.934S2438.514,1031.235,2439.046,1030.91Z" transform="translate(-2438.715 -1030.91)" fill="#bd8a6d"/>
      </g>
      <g id="Group_298" data-name="Group 298" transform="translate(15.458 20.986)">
        <path id="Path_2747" data-name="Path 2747" d="M2448.181,1027.6a3.486,3.486,0,0,1-.862-.211c-.329-.152.061,1.658.061,1.658a3.411,3.411,0,0,1,1.318-.566C2449.219,1028.465,2448.181,1027.6,2448.181,1027.6Z" transform="translate(-2447.187 -1027.38)" fill="#dba585"/>
      </g>
      <g id="Group_299" data-name="Group 299" transform="translate(35.048 69.369)">
        <path id="Path_2748" data-name="Path 2748" d="M2580.4,1347.876a29.927,29.927,0,0,1-2.246,2.95s-1.162.6-1.2,1.085c-.067.911-.149,1.759,1.378,1.8s2.517-.318,2.8-1.243a5.622,5.622,0,0,1,.948-1.722v1.937h.344s.086-1.872.107-2.217.248-1.668-.479-2.255A2.015,2.015,0,0,0,2580.4,1347.876Z" transform="translate(-2576.928 -1347.824)" fill="#243141"/>
      </g>
      <g id="Group_300" data-name="Group 300" transform="translate(36.053 68.737)">
        <path id="Path_2749" data-name="Path 2749" d="M2583.588,1347.4a3.85,3.85,0,0,0,1.809-.014c.982-.247,1.926-2.6,2.213-2.8l.255-.949h-1.916a3.4,3.4,0,0,1-.326,1.3A22.716,22.716,0,0,1,2583.588,1347.4Z" transform="translate(-2583.588 -1343.641)" fill="#243141"/>
      </g>
      <g id="Group_301" data-name="Group 301" transform="translate(22.969 68.023)">
        <path id="Path_2750" data-name="Path 2750" d="M2501.672,1339.4a6.185,6.185,0,0,1-.72,1.206c-.346.451-1.421,2.3-1.894,2.432s-1.937.387-2.066,1.205-.193,1.4,1.248,1.464,2.389.151,3.078-.861a7.5,7.5,0,0,1,1.786-1.743v2.639h.56a23.928,23.928,0,0,1,.409-2.941,3.318,3.318,0,0,0-.8-3.4C2501.941,1338.3,2501.672,1339.4,2501.672,1339.4Z" transform="translate(-2496.929 -1338.913)" fill="#243141"/>
      </g>
      <g id="Group_302" data-name="Group 302" transform="translate(25.097 68.221)">
        <path id="Path_2751" data-name="Path 2751" d="M2511.027,1344.149s1.291.323,1.786,0,2.178-3.167,2.736-3.338c0,0-.541-1.1-1.907-.3C2513.642,1340.512,2511.393,1343.676,2511.027,1344.149Z" transform="translate(-2511.027 -1340.222)" fill="#243141"/>
      </g>
      <g id="Group_303" data-name="Group 303" transform="translate(33.636 28.222)">
        <path id="Path_2752" data-name="Path 2752" d="M2573.2,1076.065a13.51,13.51,0,0,1,2.315,5.176c.493,2.808-.292,12.235-.271,13.624s1.225,5.707.967,8.322-1.611,13.53-1.611,13.53l-3.154-.057s.632-11.777.47-12.875-.675-5.767-.74-6.219-3.594-12.4-3.594-14.429S2568.806,1072.762,2573.2,1076.065Z" transform="translate(-2567.579 -1075.301)" fill="#2c3d54"/>
      </g>
      <g id="Group_304" data-name="Group 304" transform="translate(25.726 29.318)">
        <path id="Path_2753" data-name="Path 2753" d="M2519.57,1083.159s-2.992,11.418-3.347,13-1.065,3.648-1.033,3.938.377,5.166.377,5.166l.85,16.593h3.154s1.011-10.557,1.172-12.687-1.162-5.423-.84-6.328,5.2-11.331,5.2-11.331S2528.792,1079.845,2519.57,1083.159Z" transform="translate(-2515.189 -1082.566)" fill="#2c3d54"/>
      </g>
      <g id="Group_305" data-name="Group 305" transform="translate(15.276 12.823)">
        <path id="Path_2754" data-name="Path 2754" d="M2461.735,973.315a3.62,3.62,0,0,0-2.1,1.082,13.833,13.833,0,0,0-1.989,3.029c-.237.516-3.555,5.3-3.728,5.411s-1.622-.273-2.785-.37a25.477,25.477,0,0,1-4.733-1.124l-.421,2.143s6.977,2.252,8.587,1.855c1.969-.485,6.5-6.3,6.5-6.3S2464.447,975.08,2461.735,973.315Z" transform="translate(-2445.979 -973.315)" fill="#cb4949"/>
      </g>
      <g id="Group_306" data-name="Group 306" transform="translate(27.897 11.903)">
        <path id="Path_2755" data-name="Path 2755" d="M2534.794,967.3a16.2,16.2,0,0,1-2.087.839c-.538.107-2.626,2.819-2.991,3.809s0,2.475.753,4.219.043,2.324.387,4.067a48.681,48.681,0,0,1,.279,7.464c-.064.969,9.964,2.8,11.965,1.03,0,0-1.355-4.467-2.959-6.145-.347-.363-.31-2.781-.073-3.383s2.905-5.1,2.905-5.1.2-4.562-.968-5.467c-1.012-.785-3.769-1.066-4.263-1.237A8.451,8.451,0,0,0,2534.794,967.3Z" transform="translate(-2529.572 -967.219)" fill="#cb4949"/>
      </g>
      <g id="Group_307" data-name="Group 307" transform="translate(31.683 11.432)">
        <path id="Path_2756" data-name="Path 2756" d="M2555.588,968.109l-.941-1.1.817-2.9A19.136,19.136,0,0,1,2555.588,968.109Z" transform="translate(-2554.647 -964.103)" fill="#cabeb8"/>
      </g>
      <g id="Group_308" data-name="Group 308" transform="translate(37.97 12.758)">
        <path id="Path_2757" data-name="Path 2757" d="M2596.841,972.947a2.7,2.7,0,0,1,3.072,1.593c1.119,2.152.839,3.314,1.1,4.283s1.291,7.446,1.356,7.726,1.055,3.573.925,4.584-1.054,8.673-1.011,8.931-1.787-.247-1.787-.247.075-7.823.011-8.469-.13-4.035-.613-4.907-1.679-6.2-1.937-6.747S2595.194,973.646,2596.841,972.947Z" transform="translate(-2596.283 -972.881)" fill="#dba585"/>
      </g>
      <g id="Group_309" data-name="Group 309" transform="translate(32.38 8.075)">
        <path id="Path_2758" data-name="Path 2758" d="M2559.259,943.987a36.957,36.957,0,0,1,.245,3.768s1.61,1.614,3.442-1.883a4.8,4.8,0,0,1-.191-3.405C2563.335,940.5,2559.259,943.987,2559.259,943.987Z" transform="translate(-2559.259 -941.866)" fill="#dba585"/>
      </g>
      <g id="Group_310" data-name="Group 310" transform="translate(32.625 13.904)">
        <path id="Path_2759" data-name="Path 2759" d="M2560.883,980.537v1.474l1.73-1.534Z" transform="translate(-2560.883 -980.477)" fill="#dba585"/>
      </g>
      <g id="Group_311" data-name="Group 311" transform="translate(32.625 11.903)">
        <path id="Path_2760" data-name="Path 2760" d="M2560.883,970.754l.769-.953,2.592-2.583.971.431Z" transform="translate(-2560.883 -967.219)" fill="#cabeb8"/>
      </g>
      <g id="Group_312" data-name="Group 312" transform="translate(30.497 11.432)">
        <path id="Path_2761" data-name="Path 2761" d="M2547.973,967.007l-1.187.327,2-3.231Z" transform="translate(-2546.786 -964.103)" fill="#f3e4dc"/>
      </g>
      <g id="Group_313" data-name="Group 313" transform="translate(33.394 11.723)">
        <path id="Path_2762" data-name="Path 2762" d="M2565.977,968.79l1.083,1.737,2.519-3.95-1.079-.549Z" transform="translate(-2565.977 -966.027)" fill="#f3e4dc"/>
      </g>
      <path id="Path_2763" data-name="Path 2763" d="M2528.479,1007.429a13.181,13.181,0,0,1,.025-4.146s.228,1.265.783,3.235Z" transform="translate(-2500.607 -985.935)" fill="#933636"/>
      <path id="Path_2764" data-name="Path 2764" d="M2602.747,1007.448s-1.072-3.544-1.135-3.738a30.126,30.126,0,0,0,.484,4.87S2602.491,1007.892,2602.747,1007.448Z" transform="translate(-2562.837 -986.298)" fill="#933636"/>
      <path id="Path_2765" data-name="Path 2765" d="M2344.8,910.813l16.861,21.244-.588.454Z" transform="translate(-2344.803 -907.427)" fill="#4c2c21"/>
      <g id="Group_314" data-name="Group 314" transform="translate(12.614 20.846)">
        <path id="Path_2766" data-name="Path 2766" d="M2428.59,1026.489s1.265-.119,1.31.082a.323.323,0,0,1-.062.3l.544.187s.289.327-.151.547c0,0,.3.277-.149.439,0,0,.118.272-.078.384a4.269,4.269,0,0,1-1.013.155s-.176-.068-.138-.388a.439.439,0,0,1-.189-.459.482.482,0,0,1-.108-.483s-.39-.393-.1-.745A1.3,1.3,0,0,1,2428.59,1026.489Z" transform="translate(-2428.35 -1026.454)" fill="#c99a7d"/>
      </g>
      <g id="Group_315" data-name="Group 315" transform="translate(13.83 20.472)">
        <path id="Path_2767" data-name="Path 2767" d="M2437.5,1023.976a4.314,4.314,0,0,0-1.025.9c-.065.1-.111.2-.045.3s.292.125.62-.061a3.17,3.17,0,0,1,.84-.278S2438.174,1024.549,2437.5,1023.976Z" transform="translate(-2436.399 -1023.976)" fill="#dba585"/>
      </g>
      <path id="Path_2768" data-name="Path 2768" d="M2548.193,891.824a3.486,3.486,0,0,0-3.377,3.3c-.525,3.377.688,6.345,1.164,6.82s3.328.115,4-1.64,1.656-3.033,1.509-4.542S2551.7,891.767,2548.193,891.824Z" transform="translate(-2514.508 -891.305)" fill="#dba585"/>
      <path id="Path_2769" data-name="Path 2769" d="M2544.382,893.488s-.764-4.213,3.024-4.967,5.115,1.836,5.476,3.377a29.488,29.488,0,0,1-.066,5.886,19.674,19.674,0,0,1-4.033,2.787s1.263-4.623.787-7.935a16.172,16.172,0,0,1-5.121-.021S2544.388,893.307,2544.382,893.488Z" transform="translate(-2514.195 -888.386)" fill="#cd7250"/>
      <path id="Path_2770" data-name="Path 2770" d="M2559.685,955.148a4.81,4.81,0,0,0,2.338-.882,5.558,5.558,0,0,1-2.27,1.627S2559.674,955.3,2559.685,955.148Z" transform="translate(-2527.24 -944.319)" fill="#997761"/>
      <rect id="Rectangle_185" data-name="Rectangle 185" width="11.164" height="8.256" transform="translate(47.764 42.529) rotate(-170.729)" fill="#4c6e98"/>
      <g id="Group_320" data-name="Group 320" transform="translate(41.129 38.311)">
        <g id="Group_319" data-name="Group 319">
          <g id="Group_318" data-name="Group 318">
            <g id="Group_317" data-name="Group 317">
              <g id="Group_316" data-name="Group 316">
                <path id="Path_2771" data-name="Path 2771" d="M2620.427,1146.2a1.492,1.492,0,0,0,.188-.441s.006-.292.024-.5a1.347,1.347,0,0,1,.02-.16,2.738,2.738,0,0,0,.128-.868,18.361,18.361,0,0,0-.555-2.042l-.975.034-.917-.1a18.514,18.514,0,0,0-1.129,2.481.817.817,0,0,0,0,.1,3.528,3.528,0,0,0,.178.7c.01.06.146.646.306.726a.585.585,0,0,0,.571.013,1.4,1.4,0,0,0,.764.113.872.872,0,0,0,.77-.023S2620.233,1146.4,2620.427,1146.2Z" transform="translate(-2617.209 -1142.128)" fill="#dba585"/>
              </g>
            </g>
          </g>
        </g>
      </g>
      <g id="Group_321" data-name="Group 321" transform="translate(37.929 12.758)">
        <path id="Path_2772" data-name="Path 2772" d="M2596.613,972.947a2.7,2.7,0,0,1,3.072,1.593,9.824,9.824,0,0,1,1.263,4.121c.141.992,1.506,6.887,1.57,7.167s.579,3.812.61,5.152c.023,1.019-.281,7.857-.238,8.116s-3.091-.452-3.091-.452.347-6.166.282-6.812a35.759,35.759,0,0,0-.518-4.81c-.37-1.111-1.833-6.71-2.092-7.259S2594.965,973.646,2596.613,972.947Z" transform="translate(-2596.014 -972.881)" fill="#cb4949"/>
      </g>
    </g>
    <g id="Group_364" data-name="Group 364" transform="translate(1338.22 537.027)">
      <g id="Group_324" data-name="Group 324" transform="translate(30.93 18.609)">
        <g id="Group_323" data-name="Group 323">
          <path id="Path_2773" data-name="Path 2773" d="M1770.118,974.776s.249-1.291.293-1.487a2.375,2.375,0,0,1,1.058-.9,10.356,10.356,0,0,1,1.39-.758.535.535,0,0,1,.388.244,1.085,1.085,0,0,1,.193.516.66.66,0,0,1,.343.538.575.575,0,0,1,.248.59.482.482,0,0,1,.23.479,4.371,4.371,0,0,0-.517.574,9.181,9.181,0,0,1-1.989,1.515S1770.646,976.321,1770.118,974.776Z" transform="translate(-1770.118 -971.626)" fill="#dba585"/>
        </g>
      </g>
      <g id="Group_326" data-name="Group 326" transform="translate(30.451 21.159)">
        <g id="Group_325" data-name="Group 325">
          <path id="Path_2774" data-name="Path 2774" d="M1769.065,990.418a4.139,4.139,0,0,1-1.761.407c-.508-.146-.321-1.608-.321-1.608l.705-.707Z" transform="translate(-1766.95 -988.51)" fill="#dba585"/>
        </g>
      </g>
      <g id="Group_327" data-name="Group 327" transform="translate(0 11.382)">
        <path id="Path_2775" data-name="Path 2775" d="M1585.085,936.226c1.037-.572.025-2.077.019-2.13l0,0c.036.079.3,1.03.636,2.2.575,1.985,1.38,4.608,1.723,4.734.5.184,8.18-4.389,9.512-5.216l-.82-2.149-7.323,3.438-3.673-9.671a6.047,6.047,0,0,0-1.376-.977c-.735-.35-1.621-.864-2.424-1.3-.409-.224-.8-.428-1.131-.582l-.051-.024h0l-.921-.421h0l-.24-.023c-.772-.073-3.171-.3-3.974-.345-.067,0-.122-.007-.165-.008s-.064,0-.081,0a10.1,10.1,0,0,0-1.246.426h0l-.074.029-.092.034-.172.066-.357.14-.127.05a25.521,25.521,0,0,0-3.144,1.408,19.308,19.308,0,0,0-1.807,3.239,71.738,71.738,0,0,0-2.509,10.135c0,.021,0,.041,0,.06a8.033,8.033,0,0,0,.743,1.63c.669-1.336,1.193-2.434,1.365-2.838.563-1.33,3.466-4.38,3.466-4.38a.025.025,0,0,0,0,.006s0,0,0,0,0,0,0,0,0,.008,0,.012l.007.026,0,.016s0,.008,0,.012a35.767,35.767,0,0,1,1.164,6.081c.039,1.973.554,5.624.554,5.624h0l.606.085,1.341.189.16.022.391.055,3.556.5,1.261.177.17.025.721.1,1.991.28.508.071h0l.38.054.526.073h0a3.559,3.559,0,0,0,.435-2.211S1583.1,937.321,1585.085,936.226Z" transform="translate(-1565.266 -923.757)" fill="#d7c9c2"/>
      </g>
      <g id="Group_328" data-name="Group 328" transform="translate(8.867 1.146)">
        <path id="Path_2776" data-name="Path 2776" d="M1627.4,856.1s4.036-1.294,3.554,3.973-1.436,5.761-4.017,4.909-2.651-4.194-2.919-5.811S1626.087,856.276,1627.4,856.1Z" transform="translate(-1623.992 -855.963)" fill="#dba585"/>
      </g>
      <g id="Group_329" data-name="Group 329" transform="translate(9.411 6.673)">
        <path id="Path_2777" data-name="Path 2777" d="M1632.574,898.726s-1.653,2.1-4.691.593a27.981,27.981,0,0,0-.246-6.259c-.519-2.011,4.041,2.83,4.041,2.83-.051.033-.07.231-.053.509a5.591,5.591,0,0,0,.116.826C1631.885,897.9,1632.16,898.595,1632.574,898.726Z" transform="translate(-1627.595 -892.571)" fill="#dba585"/>
      </g>
      <g id="Group_330" data-name="Group 330" transform="translate(8.411 0)">
        <path id="Path_2778" data-name="Path 2778" d="M1621.886,855.372s-.038-1.642.554-1.746.742.546.742.546l.612.061s-.317-1.414.256-1.717,3.928.447,4.37-.016-.042-3.346-.941-3.667-3.366-1-5.011.339c0,0-1.377-.034-1.482,1.084A15.153,15.153,0,0,0,1621.886,855.372Z" transform="translate(-1620.973 -848.373)" fill="#3e4148"/>
      </g>
      <g id="Group_331" data-name="Group 331" transform="translate(10.114 8.875)">
        <path id="Path_2779" data-name="Path 2779" d="M1635.692,909.608c-3.055-.654-3.438-2.425-3.443-2.452a4.5,4.5,0,0,0,3.327,1.626A5.591,5.591,0,0,0,1635.692,909.608Z" transform="translate(-1632.249 -907.156)" fill="#997761"/>
      </g>
      <g id="Group_333" data-name="Group 333" transform="translate(32.515 20.758)">
        <g id="Group_332" data-name="Group 332">
          <path id="Path_2780" data-name="Path 2780" d="M1780.614,985.871a3.221,3.221,0,0,1,.086.847c-.053.2,1.32.154,1.32.154S1781.4,985.724,1780.614,985.871Z" transform="translate(-1780.614 -985.858)" fill="#bd8a6d"/>
        </g>
      </g>
      <g id="Group_335" data-name="Group 335" transform="translate(32.394 18.607)">
        <g id="Group_334" data-name="Group 334">
          <path id="Path_2781" data-name="Path 2781" d="M1780.944,971.707s-1.259,1.049-1.115,1.273a.417.417,0,0,0,.332.219l-.322.667s.036.562.637.359c0,0-.021.528.537.263,0,0,.141.354.422.277a5.455,5.455,0,0,0,1.062-.786s.1-.224-.23-.479a.566.566,0,0,0-.248-.59.855.855,0,0,0-.376-.667.805.805,0,0,0-.562-.635S1781,971.663,1780.944,971.707Z" transform="translate(-1779.818 -971.607)" fill="#c99a7d"/>
        </g>
      </g>
      <g id="Group_337" data-name="Group 337" transform="translate(31.249 20.08)">
        <g id="Group_336" data-name="Group 336">
          <path id="Path_2782" data-name="Path 2782" d="M1772.242,981.518A5.587,5.587,0,0,1,1774,981.4c.149.029.287.084.316.234s-.15.381-.62.512a4.112,4.112,0,0,0-1.017.516S1772.156,982.654,1772.242,981.518Z" transform="translate(-1772.233 -981.363)" fill="#dba585"/>
        </g>
      </g>
      <g id="Group_338" data-name="Group 338" transform="translate(18.9 74.516)">
        <path id="Path_2783" data-name="Path 2783" d="M1693.432,1342.14a5.885,5.885,0,0,0,2.422,1.623c1.22.281,2.074.64,2.084,1.41s-3.512,1.277-4.909.5c-2.084-1.159-2.3-.81-2.527-1.389s.277-2.127.263-2.312C1690.746,1341.746,1693.432,1342.14,1693.432,1342.14Z" transform="translate(-1690.442 -1341.903)" fill="#393d3f"/>
      </g>
      <g id="Group_339" data-name="Group 339" transform="translate(19.221 73.733)">
        <path id="Path_2784" data-name="Path 2784" d="M1695.1,1337.1a5.536,5.536,0,0,1,.135.642c-.023.013-2.749.338-2.667-.166.067-.409.162-.854.162-.854Z" transform="translate(-1692.569 -1336.718)" fill="#807f7d"/>
      </g>
      <g id="Group_340" data-name="Group 340" transform="translate(6.822 75.009)">
        <path id="Path_2785" data-name="Path 2785" d="M1613.255,1345.262a4.31,4.31,0,0,0,2.067,1.608c1.166.3,1.922.863,1.979,1.612s-2.75,1.729-4.721.413c-1.3-.864-1.78-.814-2.041-1.364s.137-2.087.111-2.265C1610.618,1345.047,1613.255,1345.262,1613.255,1345.262Z" transform="translate(-1610.451 -1345.167)" fill="#393d3f"/>
      </g>
      <g id="Group_341" data-name="Group 341" transform="translate(7.022 74.221)">
        <path id="Path_2786" data-name="Path 2786" d="M1614.343,1340.183a6.1,6.1,0,0,1,.036.646c-.022.014-2.62.5-2.6,0a4.066,4.066,0,0,1,.165-.888Z" transform="translate(-1611.774 -1339.946)" fill="#807f7d"/>
      </g>
      <g id="Group_342" data-name="Group 342" transform="translate(5.97 33.583)">
        <path id="Path_2787" data-name="Path 2787" d="M1618.112,1073.691s1.222,8.853,1.739,12.149c.6,3.854.71,5.978.878,7.973.211,2.509.119,16.687.267,17.42s-3.284.2-3.284.2-1.689-16.126-2.318-18.8c-.587-2.488-2.763-13.2-3.3-12.52s-1.2,12.5-1.6,14.462-1.613,17.467-1.613,17.467-2.72.4-3.447-.214c0,0-.331-13.239-.078-16.918.1-1.4-1.643-16.811.587-23.014C1607.126,1068.624,1618.112,1073.691,1618.112,1073.691Z" transform="translate(-1604.805 -1070.798)" fill="#323436"/>
      </g>
      <g id="Group_343" data-name="Group 343" transform="translate(7.109 33.167)">
        <path id="Path_2788" data-name="Path 2788" d="M1624.172,1069.678a3.3,3.3,0,0,1,.345,1.676s-11-1.283-12.164-1.789c0,0-.045-1.493.2-1.519C1612.826,1068.016,1624.172,1069.678,1624.172,1069.678Z" transform="translate(-1612.35 -1068.044)" fill="#4c5155"/>
      </g>
      <g id="Group_344" data-name="Group 344" transform="translate(9.057 33.369)">
        <path id="Path_2789" data-name="Path 2789" d="M1626.022,1069.444s-.24,1.514-.261,1.908l-.509-.1s.141-1.6.223-1.87Z" transform="translate(-1625.252 -1069.381)" fill="#323436"/>
      </g>
      <g id="Group_345" data-name="Group 345" transform="translate(17.501 34.552)">
        <path id="Path_2790" data-name="Path 2790" d="M1681.688,1077.287s.193,1.376.2,1.9l-.538-.07s-.11-1.719-.172-1.9Z" transform="translate(-1681.175 -1077.215)" fill="#323436"/>
      </g>
      <g id="Group_346" data-name="Group 346" transform="translate(0 11.809)">
        <path id="Path_2791" data-name="Path 2791" d="M1575.032,928.475a21.834,21.834,0,0,0-1.475-1.886l-.007-.007-.075.029-.092.034-.172.066-.357.14-.127.05c-1.337.525-4.021,1.435-4.375,1.689a32.517,32.517,0,0,0-1.112,3.681,50.784,50.784,0,0,0-1.973,9.412c0,.021,0,.041,0,.059a8.046,8.046,0,0,0,.743,1.631c.707,1.348,1.823,3.333,2.924,5.257-.2.379-.4.753-.581,1.12a14.668,14.668,0,0,0-.675,1.544c-.251.7-.6,2.5.068,2.839l3.519,1.942c.383-1.286,3.467-7.911,3.467-7.911,1.017-1.856,2.163-3.408,2.528-5.683.036-.22.069-.438.1-.655.053-.362.1-.718.147-1.067.016-.133.032-.263.049-.393.183-1.518.293-2.871.381-3.813C1578.21,933.617,1576.413,930.439,1575.032,928.475Zm-4.241,16.506a12.539,12.539,0,0,1-1.533-3.819c-.169-2.322,1.583-5,1.583-5s0,0,0,0a0,0,0,0,1,0,0l0,.013a.183.183,0,0,1,.007.026.122.122,0,0,1,0,.016s0,.008,0,.012a56.157,56.157,0,0,1,.495,6.481A3.887,3.887,0,0,1,1570.791,944.981Z" transform="translate(-1565.266 -926.582)" fill="#cb4949"/>
      </g>
      <g id="Group_347" data-name="Group 347" transform="translate(14.938 12.204)">
        <path id="Path_2792" data-name="Path 2792" d="M1680.786,940.855c-.073.412-9.1,5.218-9.658,5.013a2.594,2.594,0,0,1-.594-.991c-.255-.564-.552-1.31-.845-2.084-.219-.577-.436-1.17-.633-1.714,0-.011-.007-.022-.012-.033a14.624,14.624,0,0,0-.531,3.915.009.009,0,0,0,0,0,36.451,36.451,0,0,0,2.365,12.894c.092.295-.146.63-.374.84l-.451.416-.643.593s-.835-3.811-1.425-6.3c-.015-.067-.031-.134-.046-.2a13.75,13.75,0,0,1-.273-1.483v0c-.21-1.973-.869-4.617-1.158-7.194h0c-.366-3.269-.747-6.508-1.018-8.41q-.035-.24-.069-.472c-.009-.064-.018-.127-.027-.189a.29.29,0,0,1,0-.032c-.014-.093-.028-.184-.042-.274,0-.016,0-.032-.006-.048-.021-.136-.042-.27-.062-.4h0a46.988,46.988,0,0,0-1.079-5.475l.026-.021,1.1.507c.843.389,1.793.83,2.543,1.187.72.343,1.388.688,1.472.755l3.79,9.664,6.592-3.149C1680.117,939.072,1680.786,940.855,1680.786,940.855Z" transform="translate(-1664.2 -929.198)" fill="#cb4949"/>
      </g>
      <g id="Group_348" data-name="Group 348" transform="translate(7.588 11.808)">
        <path id="Path_2793" data-name="Path 2793" d="M1617.145,930.864l1.626.917-.695.709,1.85,9.989c.377-2.341.549-4.565.676-5.928.426-4.538-4.1-9.657-4.385-9.971-.218.083-.453.174-.7.27Z" transform="translate(-1615.522 -926.579)" fill="#9b3a3a"/>
      </g>
      <g id="Group_349" data-name="Group 349" transform="translate(14.426 11.957)">
        <path id="Path_2794" data-name="Path 2794" d="M1660.814,927.567a26.071,26.071,0,0,1,1.8,7.161c.271,1.9.652,5.141,1.019,8.41l.379-9.355-.775-.839.689-.861-1.652-3.845-.923-.425Z" transform="translate(-1660.814 -927.567)" fill="#9b3a3a"/>
      </g>
      <g id="Group_350" data-name="Group 350" transform="translate(8.202 11.009)">
        <path id="Path_2795" data-name="Path 2795" d="M1619.587,922.108l1.569-.819s.372,1.284,3.156,2.671l-.948,2.671Z" transform="translate(-1619.587 -921.289)" fill="#eee0d7"/>
      </g>
      <g id="Group_351" data-name="Group 351" transform="translate(12.927 11.328)">
        <path id="Path_2796" data-name="Path 2796" d="M1651.512,923.4a3.607,3.607,0,0,1-.63,2.353l1.851,2.413-.351-4.136Z" transform="translate(-1650.883 -923.398)" fill="#eee0d7"/>
      </g>
      <g id="Group_352" data-name="Group 352" transform="translate(12.664 13.68)">
        <path id="Path_2797" data-name="Path 2797" d="M1649.4,938.98a6.316,6.316,0,0,0-.23,1.837,1.755,1.755,0,0,0,1.356-.072A6.313,6.313,0,0,0,1649.4,938.98Z" transform="translate(-1649.143 -938.98)" fill="#4c5155"/>
      </g>
      <g id="Group_354" data-name="Group 354" transform="translate(14.606 30.198)">
        <g id="Group_353" data-name="Group 353">
          <path id="Path_2798" data-name="Path 2798" d="M1662.172,1052.549a27.054,27.054,0,0,0,0-4.174l-.172.011a27.777,27.777,0,0,1,0,4.129Z" transform="translate(-1662.002 -1048.375)" fill="#a79d97"/>
        </g>
      </g>
      <g id="Group_355" data-name="Group 355" transform="translate(13.336 33.905)">
        <path id="Path_2799" data-name="Path 2799" d="M1653.629,1072.933s1.619.193,2.154.327l-.07,1.814-2.119-.226Z" transform="translate(-1653.594 -1072.933)" fill="#547fb1"/>
      </g>
      <g id="Group_356" data-name="Group 356" transform="translate(12.827 15.115)">
        <path id="Path_2800" data-name="Path 2800" d="M1651.117,948.682a25.475,25.475,0,0,1,1.511,9.662,43.225,43.225,0,0,1-.806,7.209l-1.113,1.4-.491-1.716a42.076,42.076,0,0,0,.529-13.309c-.174-1.19-.434-3.443-.434-3.443Z" transform="translate(-1650.218 -948.481)" fill="#4c5155"/>
      </g>
      <g id="Group_357" data-name="Group 357" transform="translate(19.309 18.697)">
        <path id="Path_2801" data-name="Path 2801" d="M1694.269,979.3c-.219-.577-.436-1.17-.633-1.714,0-.011-.007-.022-.012-.033h0s.01-1.087-.052-2.312a11.657,11.657,0,0,0-.422-3.042,11.505,11.505,0,0,1,1.167,5.233A18.362,18.362,0,0,1,1694.269,979.3Z" transform="translate(-1693.151 -972.204)" fill="#8e3535"/>
      </g>
      <g id="Group_358" data-name="Group 358" transform="translate(6.658 37.077)">
        <path id="Path_2802" data-name="Path 2802" d="M1611.125,1093.947s.387.775.775.9a3.347,3.347,0,0,1,.953.758l-2.728,1.437a7.458,7.458,0,0,1-.758-2.324C1609.333,1093.818,1611.125,1093.947,1611.125,1093.947Z" transform="translate(-1609.365 -1093.941)" fill="#dba585"/>
      </g>
      <g id="Group_359" data-name="Group 359" transform="translate(6.381 36.919)">
        <path id="Path_2803" data-name="Path 2803" d="M1609.71,1092.891l.18.363a12.908,12.908,0,0,1-2.2,1.348l-.16-.485Z" transform="translate(-1607.531 -1092.891)" fill="#d7c9c2"/>
      </g>
      <g id="Group_360" data-name="Group 360" transform="translate(3.667 30.207)">
        <path id="Path_2804" data-name="Path 2804" d="M1591.411,1048.44l3.341,6.619-2.651,1.527-2.549-4.5S1589.766,1049.094,1591.411,1048.44Z" transform="translate(-1589.553 -1048.44)" fill="#cb4949"/>
      </g>
      <g id="Group_361" data-name="Group 361" transform="translate(32.282 18.609)">
        <path id="Path_2805" data-name="Path 2805" d="M1781.009,972.257a13.727,13.727,0,0,0-1.569,1.1c-.077.163-.435-.382-.359-.516a12.674,12.674,0,0,1,1.31-1.2A.58.58,0,0,1,1781.009,972.257Z" transform="translate(-1779.07 -971.625)" fill="#dba585"/>
      </g>
      <g id="Group_362" data-name="Group 362" transform="translate(32.829 17.863)">
        <path id="Path_2806" data-name="Path 2806" d="M1783.184,967.585s2.415-1.15,2.543-.853-.105.41-2.039,1.534C1781.808,969.359,1783.184,967.585,1783.184,967.585Z" transform="translate(-1782.699 -966.683)" fill="#dba585"/>
      </g>
      <g id="Group_363" data-name="Group 363" transform="translate(3.086 33.856)">
        <path id="Path_2807" data-name="Path 2807" d="M1588.588,1076.669l-2.885-2.944c.182-.367.378-.741.581-1.12Z" transform="translate(-1585.704 -1072.606)" fill="#8e3535"/>
      </g>
    </g>
    <g id="Group_397" data-name="Group 397" transform="translate(1404.299 541.791)">
      <g id="Group_367" data-name="Group 367" transform="translate(0.023 36.81)">
        <g id="Group_366" data-name="Group 366">
          <g id="Group_365" data-name="Group 365">
            <path id="Path_2808" data-name="Path 2808" d="M2005.853,1124.077a2.6,2.6,0,0,1,.337.892,4.279,4.279,0,0,0,.412,1.053,10.028,10.028,0,0,1,.5,1.756,8.121,8.121,0,0,0-.237,1.176c.04.254.186.758-.042.792s-.488-.38-.488-.38a.335.335,0,0,1-.171.323.566.566,0,0,1-.575.021s-.138.258-.312.292a.708.708,0,0,1-.572-.077.688.688,0,0,1-.434.139.569.569,0,0,1-.482-.3s-.429.087-.553-.113a1.941,1.941,0,0,1-.155-.6,6.94,6.94,0,0,1,.544-3,2.659,2.659,0,0,0-.141-2.331Z" transform="translate(-2003.066 -1123.724)" fill="#dba585"/>
          </g>
        </g>
      </g>
      <g id="Group_369" data-name="Group 369" transform="translate(0 40.131)">
        <g id="Group_368" data-name="Group 368">
          <path id="Path_2809" data-name="Path 2809" d="M2006.267,1147.886s.039-1.47-.349-1.784-.431.218-.431.218.053-.524-.37-.595-.441.552-.441.552a.41.41,0,0,0-.514-.322c-.444.083-.338.6-.338.6s-.424-.506-.7-.02a2.167,2.167,0,0,0-.017,1.79s.131.223.553.113a.584.584,0,0,0,.916.161s.648.357.884-.215A.536.536,0,0,0,2006.267,1147.886Z" transform="translate(-2002.914 -1145.72)" fill="#c99a7d"/>
        </g>
      </g>
      <path id="Path_2810" data-name="Path 2810" d="M2011.258,966.439s-2.518,8.39-3.368,11.485c-.267.971-.912,10.24-1.026,10.613s-3.307.884-3.307.884.387-11.6.423-12.229,3.523-13.582,4.537-14.044c.76-.346,1.161-.06,2.118.65A2.241,2.241,0,0,1,2011.258,966.439Z" transform="translate(-2003.46 -950.46)" fill="#363957"/>
      <g id="Group_370" data-name="Group 370" transform="translate(32.349 0.454)">
        <rect id="Rectangle_186" data-name="Rectangle 186" width="6.887" height="0.511" transform="matrix(0.837, -0.548, 0.548, 0.837, 0, 3.772)" fill="#70a5ee"/>
      </g>
      <path id="Path_2811" data-name="Path 2811" d="M2237.426,887.413a1.482,1.482,0,0,1-.149.456s-.188.225-.312.393a1.438,1.438,0,0,0-.091.134,2.771,2.771,0,0,1-.476.74c-.274.278-1.343,1.164-1.343,1.164l-.916-.778-.951-.426a17.911,17.911,0,0,1,.758-2.6c.022-.028.045-.055.068-.079a3.5,3.5,0,0,1,.6-.41c.046-.039.535-.391.709-.346a.587.587,0,0,1,.44.367,1.41,1.41,0,0,1,.651.419.874.874,0,0,1,.566.525S2237.406,887.14,2237.426,887.413Z" transform="translate(-2198.42 -884.79)" fill="#dca787"/>
      <g id="Group_372" data-name="Group 372" transform="translate(2.741 73.062)">
        <g id="Group_371" data-name="Group 371">
          <path id="Path_2812" data-name="Path 2812" d="M2024.08,1364.032s-.229,1.592-.258,1.832-2.552-.141-2.552-.141l-.2-1.9A14.9,14.9,0,0,1,2024.08,1364.032Z" transform="translate(-2021.065 -1363.826)" fill="#454971"/>
        </g>
      </g>
      <g id="Group_374" data-name="Group 374" transform="translate(2.346 74.789)">
        <g id="Group_373" data-name="Group 373">
          <path id="Path_2813" data-name="Path 2813" d="M2021.629,1375.373a6.8,6.8,0,0,0,1.573,1.378c.773.419,1.989.584,2.447,1.017.33.313,1.2,1.659-2.01,1.632s-4.761.19-5.105-.326.5-3.808.5-3.808A6.8,6.8,0,0,0,2021.629,1375.373Z" transform="translate(-2018.45 -1375.265)" fill="#2e3048"/>
        </g>
      </g>
      <g id="Group_376" data-name="Group 376" transform="translate(20.826 73.062)">
        <g id="Group_375" data-name="Group 375">
          <path id="Path_2814" data-name="Path 2814" d="M2143.861,1364.032s-.229,1.592-.258,1.832-2.553-.141-2.553-.141l-.2-1.9A14.9,14.9,0,0,1,2143.861,1364.032Z" transform="translate(-2140.846 -1363.826)" fill="#454971"/>
        </g>
      </g>
      <g id="Group_378" data-name="Group 378" transform="translate(20.431 74.789)">
        <g id="Group_377" data-name="Group 377">
          <path id="Path_2815" data-name="Path 2815" d="M2141.412,1375.373a6.8,6.8,0,0,0,1.573,1.378c.773.419,3.62.762,4.077,1.2.33.312.879,1.571-3.641,1.453-3.212-.084-4.761.19-5.106-.326s.5-3.808.5-3.808A6.178,6.178,0,0,0,2141.412,1375.373Z" transform="translate(-2138.233 -1375.265)" fill="#2e3048"/>
        </g>
      </g>
      <g id="Group_380" data-name="Group 380" transform="translate(2.346 32.339)">
        <g id="Group_379" data-name="Group 379">
          <path id="Path_2816" data-name="Path 2816" d="M2023.948,1094.114s-2.371,3.768-2.194,7.174-.86,7.125-1.216,10.683c-.4,3.967-2.023,13.358-2.082,15.479s.252,8.9.252,8.9l3.254.074s2.732-16.417,3.44-18.093,4.218-13.618,4.336-14.958S2023.948,1094.114,2023.948,1094.114Z" transform="translate(-2018.449 -1094.114)" fill="#2e3048"/>
        </g>
      </g>
      <g id="Group_382" data-name="Group 382" transform="translate(6.652 31.69)">
        <g id="Group_381" data-name="Group 381">
          <path id="Path_2817" data-name="Path 2817" d="M2060.651,1090.972s1.788,9.336,2.023,11.421.393,10.089.511,11.392,1.1,17.011,1.416,18.986h-4.16s-3.193-11.448-3.193-16.864-2.467-11.775-4.06-15.349-5.238-3.658-6.217-10.289C2046.973,1090.269,2059.326,1088.869,2060.651,1090.972Z" transform="translate(-2046.973 -1089.813)" fill="#2e3048"/>
        </g>
      </g>
      <g id="Group_384" data-name="Group 384" transform="translate(9.811 0.367)">
        <g id="Group_383" data-name="Group 383">
          <path id="Path_2818" data-name="Path 2818" d="M2069.885,882.648s3.183-1.189,4.651,1.235,1.326,7.274-.279,7.871-4.015.284-4.837-1.232a12.144,12.144,0,0,1-1.527-5.173A3.193,3.193,0,0,1,2069.885,882.648Z" transform="translate(-2067.892 -882.356)" fill="#dba585"/>
        </g>
      </g>
      <g id="Group_386" data-name="Group 386" transform="translate(10.718 6.853)">
        <g id="Group_385" data-name="Group 385">
          <path id="Path_2819" data-name="Path 2819" d="M2079.012,928.34a2.754,2.754,0,0,0,.087,1.283c.219.423-4.125.435-4.125.435a28.638,28.638,0,0,0-1.021-4.249C2073.284,923.862,2079.012,928.34,2079.012,928.34Z" transform="translate(-2073.899 -925.318)" fill="#dba585"/>
        </g>
      </g>
      <g id="Group_388" data-name="Group 388" transform="translate(9.546 0)">
        <g id="Group_387" data-name="Group 387">
          <path id="Path_2820" data-name="Path 2820" d="M2067.364,887.272s.3.495,1.524.3,2.716-1.82,3.227-2,.516-.479.516-.479l.32.467.543.034s-.5-1.456.252-2.05-.775-4.714-4.7-3.342c0,0-3.014.831-2.9,2.545A9.525,9.525,0,0,0,2067.364,887.272Z" transform="translate(-2066.139 -879.929)" fill="#c38855"/>
        </g>
      </g>
      <g id="Group_390" data-name="Group 390" transform="translate(11.297 9.917)">
        <g id="Group_389" data-name="Group 389">
          <path id="Path_2821" data-name="Path 2821" d="M2082.615,946.8s-.014-.809-.381-.886a26.192,26.192,0,0,0-4.5-.254v.942S2078.6,947.133,2082.615,946.8Z" transform="translate(-2077.737 -945.608)" fill="#dcd0c8"/>
        </g>
      </g>
      <g id="Group_392" data-name="Group 392" transform="translate(14.814 3.92)">
        <g id="Group_391" data-name="Group 391">
          <path id="Path_2822" data-name="Path 2822" d="M2102.169,906.518c-.069-.287-.8-1.109-1.08-.229s.423,2.063.815,1.961S2102.344,907.247,2102.169,906.518Z" transform="translate(-2101.025 -905.893)" fill="#dba585"/>
        </g>
      </g>
      <g id="Group_394" data-name="Group 394" transform="translate(4.43 3.919)">
        <g id="Group_393" data-name="Group 393">
          <path id="Path_2823" data-name="Path 2823" d="M2050.089,914.3c-2.524-.333-6.089-1.225-6.089-1.225l-4.877-.2a47.394,47.394,0,0,0-6.24,1.782c-.167.075-.168,3.993-.627,5.021l1.462,3.084s.845,6.109,1.02,8.826c.08,1.247-1.742,11.695-1.742,11.695a33.621,33.621,0,0,0,5.282.942c3.329.367,11.647-.133,11.7-.526s-1.611-14.642-1.685-15.379c-.113-1.133.391-7.15.391-7.15.768-.6,7.517-3.729,9.359-5.361.492-.437,2.572-2.462,3.163-3.161a56.705,56.705,0,0,0,4.018-5.057c.238-.26-2.275-1.625-2.5-1.7-.2-.067-3.03,3.6-4.119,4.78a30.583,30.583,0,0,1-2.5,1.995S2051.667,914.391,2050.089,914.3Z" transform="translate(-2032.256 -905.888)" fill="#363957"/>
        </g>
      </g>
      <g id="Group_396" data-name="Group 396" transform="translate(9.055 0.944)">
        <g id="Group_395" data-name="Group 395">
          <path id="Path_2824" data-name="Path 2824" d="M2064.729,886.183s-4.058.317-.125,6.4Z" transform="translate(-2062.888 -886.183)" fill="#c38855"/>
        </g>
      </g>
      <path id="Path_2825" data-name="Path 2825" d="M2255.608,882.914l.333-.508-.614.08Z" transform="translate(-2217.217 -882.032)" fill="#dedfe6"/>
    </g>
  </g>
</svg>
