<svg xmlns="http://www.w3.org/2000/svg" xmlns:xlink="http://www.w3.org/1999/xlink" width="211.053" height="163.845" viewBox="0 0 211.053 163.845">
  <defs>
    <linearGradient id="linear-gradient" y1="0.5" x2="1" y2="0.5" gradientUnits="objectBoundingBox">
      <stop offset="0.005" stop-color="#00803d"/>
      <stop offset="1" stop-color="#00c23d"/>
    </linearGradient>
  </defs>
  <g id="img-danhmuc" transform="translate(-67.324 -27.051)">
    <path id="Path_3429" data-name="Path 3429" d="M261.348,225.4c30.356-11.269,61.208-1.306,82.133,20.394s64.839-14.978,88.128,6.687c15.894,14.785,8.614,52.8-13.18,69.262-29.622,22.379-119.708,11.023-139.195,7.215-22.451-4.388-38.864-17.7-45.532-33.857C217.635,256.17,247.934,230.38,261.348,225.4Z" transform="translate(-161.796 -146.003)" fill="#ecf4f3"/>
    <g id="Group_621" data-name="Group 621" transform="translate(227.555 27.051)">
      <path id="Path_3199" data-name="Path 3199" d="M447.409,40.42a14.6,14.6,0,0,0-1.564-3.77l1.592-2.394-2.209-2.209-2.209-2.209-2.394,1.592a14.616,14.616,0,0,0-3.77-1.564l-.567-2.816h-6.247l-.567,2.816a14.6,14.6,0,0,0-3.77,1.564l-2.394-1.592L421.1,32.048l-2.209,2.209,1.592,2.394a14.6,14.6,0,0,0-1.564,3.77l-2.817.567v6.247l2.817.567a14.612,14.612,0,0,0,1.564,3.77l-1.592,2.394,2.209,2.209,2.209,2.209,2.394-1.592a14.619,14.619,0,0,0,3.77,1.564l.567,2.816h6.247l.567-2.816a14.633,14.633,0,0,0,3.77-1.564l2.394,1.592,2.209-2.209,2.209-2.209-1.592-2.394a14.612,14.612,0,0,0,1.564-3.77l2.816-.567V40.987ZM433.166,55.055A10.944,10.944,0,1,1,444.11,44.111,10.945,10.945,0,0,1,433.166,55.055Z" transform="translate(-416.106 -27.051)" fill="url(#linear-gradient)"/>
    </g>
    <g id="Group_622" data-name="Group 622" transform="translate(248.769 60.853)">
      <path id="Path_3200" data-name="Path 3200" d="M478.407,109.583a6.692,6.692,0,0,0-.717-1.729l.73-1.1-1.013-1.013-1.012-1.012-1.1.73a6.711,6.711,0,0,0-1.728-.717l-.26-1.291h-2.864l-.26,1.291a6.706,6.706,0,0,0-1.728.717l-1.1-.73-1.013,1.012-1.012,1.013.73,1.1a6.691,6.691,0,0,0-.717,1.729l-1.291.26v2.864l1.291.26a6.688,6.688,0,0,0,.717,1.728l-.73,1.1,1.012,1.012,1.013,1.013,1.1-.73a6.7,6.7,0,0,0,1.728.717l.26,1.291h2.864l.26-1.291a6.71,6.71,0,0,0,1.728-.717l1.1.73,1.012-1.013,1.013-1.012-.73-1.1a6.69,6.69,0,0,0,.717-1.728l1.291-.26v-2.864Zm-6.53,6.709a5.017,5.017,0,1,1,5.018-5.017A5.017,5.017,0,0,1,471.877,116.292Z" transform="translate(-464.056 -103.454)" fill="url(#linear-gradient)"/>
    </g>
    <g id="Group_623" data-name="Group 623" transform="translate(172.364 119.82)">
      <rect id="Rectangle_309" data-name="Rectangle 309" width="15.365" height="46.669" transform="translate(15.365 46.669) rotate(180)" fill="#aebecc"/>
    </g>
    <g id="Group_624" data-name="Group 624" transform="translate(113.708 48.704)">
      <rect id="Rectangle_310" data-name="Rectangle 310" width="132.677" height="93.597" rx="15.253" transform="translate(132.677 93.597) rotate(180)" fill="#f0f0f0"/>
    </g>
    <g id="Group_625" data-name="Group 625" transform="translate(118.903 38.742)">
      <rect id="Rectangle_311" data-name="Rectangle 311" width="122.285" height="88.892" transform="translate(122.285 88.892) rotate(180)" fill="#fff"/>
    </g>
    <g id="Group_626" data-name="Group 626" transform="translate(118.903 38.742)">
      <rect id="Rectangle_312" data-name="Rectangle 312" width="122.285" height="10.737" transform="translate(122.285 10.737) rotate(180)" fill="url(#linear-gradient)"/>
    </g>
    <g id="Group_627" data-name="Group 627" transform="translate(175.767 130.066)">
      <path id="Path_3201" data-name="Path 3201" d="M299.048,264.174a4.28,4.28,0,1,0,4.28-4.28A4.279,4.279,0,0,0,299.048,264.174Z" transform="translate(-299.048 -259.895)" fill="#757575"/>
    </g>
    <g id="Group_630" data-name="Group 630" transform="translate(155.209 57.115)">
      <g id="Group_629" data-name="Group 629" transform="translate(0 0)">
        <g id="Group_628" data-name="Group 628">
          <rect id="Rectangle_313" data-name="Rectangle 313" width="42.977" height="3.181" rx="1.591" transform="translate(42.977 3.181) rotate(180)" fill="#dfe1e8"/>
        </g>
      </g>
    </g>
    <g id="Group_633" data-name="Group 633" transform="translate(155.209 62.853)">
      <g id="Group_632" data-name="Group 632" transform="translate(0 0)">
        <g id="Group_631" data-name="Group 631">
          <rect id="Rectangle_314" data-name="Rectangle 314" width="42.977" height="3.182" rx="1.591" transform="translate(42.977 3.182) rotate(180)" fill="#dfe1e8"/>
        </g>
      </g>
    </g>
    <g id="Group_636" data-name="Group 636" transform="translate(155.209 68.591)">
      <g id="Group_635" data-name="Group 635" transform="translate(0 0)">
        <g id="Group_634" data-name="Group 634">
          <path id="Rectangle_315" data-name="Rectangle 315" d="M1.591,0h39.8a1.591,1.591,0,0,1,1.591,1.591v0a1.59,1.59,0,0,1-1.59,1.59H1.591A1.591,1.591,0,0,1,0,1.591v0A1.591,1.591,0,0,1,1.591,0Z" transform="translate(42.977 3.181) rotate(180)" fill="#dfe1e8"/>
        </g>
      </g>
    </g>
    <g id="Group_640" data-name="Group 640" transform="translate(124.565 79.632)">
      <g id="Group_639" data-name="Group 639">
        <g id="Group_638" data-name="Group 638">
          <g id="Group_637" data-name="Group 637">
            <path id="Path_3202" data-name="Path 3202" d="M236.088,187.647H190.249a6.94,6.94,0,0,1-6.932-6.932V152.832a6.94,6.94,0,0,1,6.932-6.932h45.839a6.94,6.94,0,0,1,6.932,6.932v27.883A6.94,6.94,0,0,1,236.088,187.647Zm-45.839-40.878a6.07,6.07,0,0,0-6.063,6.063v27.883a6.07,6.07,0,0,0,6.063,6.063h45.839a6.07,6.07,0,0,0,6.063-6.063V152.832a6.07,6.07,0,0,0-6.063-6.063Z" transform="translate(-183.317 -145.9)" fill="#dfe1e8"/>
          </g>
        </g>
      </g>
    </g>
    <g id="Group_643" data-name="Group 643" transform="translate(132.061 83.436)">
      <g id="Group_642" data-name="Group 642" transform="translate(0 0)">
        <g id="Group_641" data-name="Group 641">
          <path id="Rectangle_316" data-name="Rectangle 316" d="M3.353,0h38A3.353,3.353,0,0,1,44.71,3.353v0a3.353,3.353,0,0,1-3.353,3.353h-38A3.352,3.352,0,0,1,0,3.353v0A3.353,3.353,0,0,1,3.353,0Z" transform="translate(44.71 6.705) rotate(-180)" fill="#dfe1e8"/>
        </g>
      </g>
    </g>
    <rect id="Rectangle_317" data-name="Rectangle 317" width="69.125" height="3.523" transform="translate(145.484 164.728)" fill="#f0f0f0"/>
    <g id="Group_652" data-name="Group 652" transform="translate(207.536 78.843)">
      <path id="Path_3203" data-name="Path 3203" d="M390.756,154.067a9.953,9.953,0,0,1-6.814,9.445c-.06.02-.12.04-.18.058a9.952,9.952,0,1,1,6.994-9.5Z" transform="translate(-370.856 -144.117)" fill="#eef0f7"/>
      <g id="Group_644" data-name="Group 644" transform="translate(7.524 4.583)">
        <path id="Path_3204" data-name="Path 3204" d="M387.912,158.793s-.68-4.4,2.962-4.315,3.592,2.255,3.528,4.413-1.46,2,.113,5-1.363,3-1.363,3l-2.279-3.131Z" transform="translate(-387.861 -154.476)" fill="#3c4145"/>
      </g>
      <g id="Group_645" data-name="Group 645" transform="translate(7.566 4.955)">
        <path id="Path_3205" data-name="Path 3205" d="M390.528,155.368s-2.466.389-2.563,3.893.664,4.251,2.823,3.521,2.839-4.4,2.888-4.964S393.854,154.946,390.528,155.368Z" transform="translate(-387.956 -155.317)" fill="#eea886"/>
      </g>
      <g id="Group_646" data-name="Group 646" transform="translate(5.433 13.706)">
        <path id="Path_3206" data-name="Path 3206" d="M392.171,178.586a2.385,2.385,0,0,1-1.382,2.2c-.06.02-.12.04-.18.058a9.987,9.987,0,0,1-7.379-.588c-.3-.6.134-1.448,1.017-2.751a5.586,5.586,0,0,1,2.217-2.256,6.746,6.746,0,0,1,4.206.379A3.134,3.134,0,0,1,392.171,178.586Z" transform="translate(-383.136 -175.097)" fill="#e55353"/>
      </g>
      <g id="Group_647" data-name="Group 647" transform="translate(5.894 14.137)">
        <path id="Path_3207" data-name="Path 3207" d="M385.312,178l-1.134,1.787c0-.01.078-.28.206-1.064.025-.149.051-.316.079-.5a1.338,1.338,0,0,1,.036-.165h0a5.237,5.237,0,0,1,2.054-1.979Z" transform="translate(-384.178 -176.071)" fill="#e55353"/>
      </g>
      <g id="Group_648" data-name="Group 648" transform="translate(11.631 14.217)">
        <path id="Path_3208" data-name="Path 3208" d="M400.487,180.576a9.889,9.889,0,0,1-1.886.854c-.06.02-.12.04-.18.058-.251-.649-.47-1.211-.517-1.356-.014-.042-.046-.121-.09-.228a7.552,7.552,0,0,1-.668-2.466c0-.557.181-1.014.741-1.144a1.47,1.47,0,0,1,.6-.023,1.748,1.748,0,0,1,1.2,1.175l.01.025a3.86,3.86,0,0,1,.223.8l.028.11.19.749C400.227,179.522,400.353,180.027,400.487,180.576Z" transform="translate(-397.145 -176.251)" fill="#eea886"/>
      </g>
      <g id="Group_649" data-name="Group 649" transform="translate(8.615 10.791)">
        <path id="Path_3209" data-name="Path 3209" d="M393.5,168.559a18.911,18.911,0,0,0-.44,2.909s-3.016,1.14-2.707.5a2.475,2.475,0,0,0,.184-1,4.857,4.857,0,0,0-.034-.609c-.008-.066-.014-.1-.014-.1S393.711,168.155,393.5,168.559Z" transform="translate(-390.328 -168.507)" fill="#eea886"/>
      </g>
      <g id="Group_650" data-name="Group 650" transform="translate(7.574 4.896)">
        <path id="Path_3210" data-name="Path 3210" d="M389.532,157.808a12.2,12.2,0,0,0,2.417,2.872c1.152.811.568,1.46.568,1.46s3.005-6.327.148-6.766-4.61-.471-4.691,3.812C387.975,159.187,389.273,157.776,389.532,157.808Z" transform="translate(-387.975 -155.183)" fill="#3c4145"/>
      </g>
      <g id="Group_651" data-name="Group 651" transform="translate(8.787 12.38)">
        <path id="Path_3211" data-name="Path 3211" d="M392.438,172.1a2.867,2.867,0,0,1-1.686.867h0a4.845,4.845,0,0,0-.034-.609A3.447,3.447,0,0,0,392.438,172.1Z" transform="translate(-390.718 -172.1)" fill="#a77860"/>
      </g>
      <path id="Path_3212" data-name="Path 3212" d="M384.763,178.022h0a2.565,2.565,0,0,0-.119.681l.445-.67s.793-1.137,1.065-1.433a4.159,4.159,0,0,1,.665-.555A4.528,4.528,0,0,0,384.763,178.022Z" transform="translate(-378.543 -161.919)" fill="#bd4444"/>
      <path id="Path_3213" data-name="Path 3213" d="M397.613,179.8a17.025,17.025,0,0,1,2.508-.8s-.389-3.108-2.291-2.779S397.613,179.8,397.613,179.8Z" transform="translate(-385.392 -162.003)" fill="#e55353"/>
      <path id="Path_3214" data-name="Path 3214" d="M389.349,175.006s-1.421,2.185-.94,2.376a4.626,4.626,0,0,0,4.193-2.33A3.9,3.9,0,0,0,389.349,175.006Z" transform="translate(-380.588 -161.147)" fill="#eea886"/>
    </g>
    <g id="Group_662" data-name="Group 662" transform="translate(205.218 46.817)">
      <path id="Path_3215" data-name="Path 3215" d="M391.51,84.676a12.947,12.947,0,1,1-12.946-12.947A12.947,12.947,0,0,1,391.51,84.676Z" transform="translate(-365.617 -71.729)" fill="#eef0f7"/>
      <g id="Group_661" data-name="Group 661" transform="translate(2.702 5.68)">
        <g id="Group_653" data-name="Group 653" transform="translate(1.812 11.399)">
          <path id="Path_3216" data-name="Path 3216" d="M392.685,113.345l-.955,3.426a12.877,12.877,0,0,1-5.888,2.28c-.383.047-.772.077-1.164.09-.142,0-.283.007-.425.007q-.628,0-1.242-.058a12.908,12.908,0,0,1-6.639-2.616c-.183-1.133-.38-2.387-.553-3.559.952-.354,3.98-1.384,5.892-2.031l.079-.027.125-.042.324-.11.3-.1.766-.257h0l.039-.013h.022l2.57.192.431.032.134.01.059.015c.154.039.605.158,1.2.34h0C389.286,111.39,391.755,112.274,392.685,113.345Z" transform="translate(-375.819 -110.333)" fill="#d9c7c1"/>
        </g>
        <g id="Group_654" data-name="Group 654" transform="translate(7.181 0.804)">
          <path id="Path_3217" data-name="Path 3217" d="M391.694,86.418s3.083.52,2.559,5.346-3.243,4.4-3.425,4.393-2.737.058-2.872-5.842C387.956,90.315,387.917,85.953,391.694,86.418Z" transform="translate(-387.956 -86.383)" fill="#eea987"/>
        </g>
        <g id="Group_655" data-name="Group 655" transform="translate(8.221 8.62)">
          <path id="Path_3218" data-name="Path 3218" d="M394.355,104.609a11.109,11.109,0,0,0,.081,2.418c.187.432-2.475,1.8-4.13.242a17.066,17.066,0,0,0,.231-2.937C390.434,103.566,394.355,104.609,394.355,104.609Z" transform="translate(-390.307 -104.051)" fill="#eea987"/>
        </g>
        <g id="Group_656" data-name="Group 656" transform="translate(13.34 4.664)">
          <path id="Path_3219" data-name="Path 3219" d="M402.077,95.265s.342-.357.462.009-.546,1.994-.5,2.067c0,0-.063.141-.144.062A17.643,17.643,0,0,1,402.077,95.265Z" transform="translate(-401.876 -95.109)" fill="#eea987"/>
        </g>
        <g id="Group_657" data-name="Group 657" transform="translate(6.731 4.522)">
          <path id="Path_3220" data-name="Path 3220" d="M387.424,94.957s-.327-.371-.462-.009a6.194,6.194,0,0,0,.419,2.086s.107.167.19.091A17.786,17.786,0,0,0,387.424,94.957Z" transform="translate(-386.939 -94.789)" fill="#eea987"/>
        </g>
        <g id="Group_658" data-name="Group 658" transform="translate(6.965)">
          <path id="Path_3221" data-name="Path 3221" d="M394.241,88.977c-.106.66-.207,1.151-.207,1.151l-.449.586a11.8,11.8,0,0,0-.042-1.5c-.026-.077-.057-.214-.088-.362-.052-.244-.1-.519-.141-.611a6.6,6.6,0,0,0-4.943.158s.019.2.018.422c0,.258-.03.548-.148.592-.221.081-.129,1.516-.129,1.516l-.359-.414s-.1-.75-.206-1.612V88.9c-.023-.2-.046-.407-.069-.613a4.031,4.031,0,0,1,1.163-3.365,5.559,5.559,0,0,1,4.005.017,1.4,1.4,0,0,1,.6.157C394.505,86.483,394.241,88.977,394.241,88.977Z" transform="translate(-387.468 -84.567)" fill="#e8734d"/>
        </g>
        <path id="Path_3222" data-name="Path 3222" d="M391.306,107.017a1.964,1.964,0,0,0,1.635.657,2.227,2.227,0,0,0,1.639-.622,2,2,0,0,1-1.645,1.119A2.017,2.017,0,0,1,391.306,107.017Z" transform="translate(-382.643 -97.085)" fill="#c78d71"/>
        <path id="Path_3223" data-name="Path 3223" d="M389.6,110.684a3.358,3.358,0,0,0,2.393,1.574c.994.086,1.855-1.174,2.258-1.793A6.021,6.021,0,0,0,389.6,110.684Z" transform="translate(-381.69 -98.803)" fill="#eea987"/>
        <path id="Path_3224" data-name="Path 3224" d="M396.979,109.9a8.551,8.551,0,0,1-1.972,1.709l.834,1.287,1.424-2.541Z" transform="translate(-384.706 -98.69)" fill="#eddad3"/>
        <path id="Path_3225" data-name="Path 3225" d="M389.816,110.332a5.733,5.733,0,0,0,2.017,1.517l-.917,1.325-1.6-2.318Z" transform="translate(-381.532 -98.933)" fill="#eddad3"/>
        <path id="Path_3226" data-name="Path 3226" d="M394.081,113.76l.715,1.089a1.49,1.49,0,0,1-1.45-.027Z" transform="translate(-383.781 -100.844)" fill="#5073ab"/>
        <path id="Path_3227" data-name="Path 3227" d="M406.145,113.472c-.123.442-.308,1.086-.794,2.854-.148.128-.3.254-.455.375-.174.138-.352.27-.533.4a12.877,12.877,0,0,1-5.888,2.28c.192-4.482.724-8.456.724-8.456q.63.165,1.194.328h0a27.476,27.476,0,0,1,5.52,2.084l.012.007C406.076,113.428,406.145,113.472,406.145,113.472Z" transform="translate(-386.64 -99.264)" fill="#323657"/>
        <path id="Path_3228" data-name="Path 3228" d="M379.928,119.578a12.948,12.948,0,0,1-6.6-3.566c-.079-.08-.158-.161-.235-.244-.227-.962-.378-1.59-.387-1.631v0s1.6-1.053,7.269-2.565v0C379.975,111.7,379.978,115.338,379.928,119.578Z" transform="translate(-372.272 -99.623)" fill="#323657"/>
        <path id="Path_3229" data-name="Path 3229" d="M393.782,115.994c-.053,1.18-.058,3.47-.04,6.083-.142,0-.283.007-.425.007q-.628,0-1.242-.058a39.807,39.807,0,0,1,.86-6.035c.063-.261.1-.391.1-.391l.76.125C393.79,115.806,393.786,115.9,393.782,115.994Z" transform="translate(-383.071 -101.87)" fill="#5073ab"/>
        <g id="Group_659" data-name="Group 659" transform="translate(18.256 14.209)">
          <path id="Path_3230" data-name="Path 3230" d="M414.891,118.07a13.062,13.062,0,0,1-1.447,1.467c-.148.128-.3.254-.455.375l1.249-3.229A4.389,4.389,0,0,1,414.891,118.07Z" transform="translate(-412.989 -116.683)" fill="#323657"/>
        </g>
        <g id="Group_660" data-name="Group 660" transform="translate(0 14.511)">
          <path id="Path_3231" data-name="Path 3231" d="M372.781,119.244c-.079-.08-.158-.161-.235-.244a12.617,12.617,0,0,1-.822-.962,1.5,1.5,0,0,1,.434-.672v0Z" transform="translate(-371.724 -117.367)" fill="#323657"/>
        </g>
      </g>
    </g>
    <rect id="Rectangle_318" data-name="Rectangle 318" width="17.441" height="4.057" rx="2.029" transform="translate(124.011 42.082)" fill="#f5f7ff"/>
    <g id="Group_665" data-name="Group 665" transform="translate(207.406 102.426)">
      <circle id="Ellipse_35" data-name="Ellipse 35" cx="9.95" cy="9.95" r="9.95" transform="translate(0 0.262) rotate(-0.754)" fill="#eef0f7"/>
      <g id="Group_663" data-name="Group 663" transform="translate(9.579 6.112)">
        <path id="Path_3232" data-name="Path 3232" d="M392.715,219.17a.5.5,0,0,1-.5-.5v-6.932a.5.5,0,1,1,1,0v6.932A.5.5,0,0,1,392.715,219.17Z" transform="translate(-392.214 -211.235)" fill="#949494"/>
      </g>
      <g id="Group_664" data-name="Group 664" transform="translate(6.113 9.578)">
        <path id="Path_3233" data-name="Path 3233" d="M391.813,220.073h-6.932a.5.5,0,0,1,0-1h6.932a.5.5,0,0,1,0,1Z" transform="translate(-384.38 -219.07)" fill="#949494"/>
      </g>
    </g>
    <g id="Group_670" data-name="Group 670" transform="translate(188.855 80.067)">
      <g id="Group_666" data-name="Group 666" transform="translate(0 0)">
        <path id="Rectangle_319" data-name="Rectangle 319" d="M4.414,0h.5A4.413,4.413,0,0,1,9.332,4.413v.505A4.413,4.413,0,0,1,4.918,9.332h-.5A4.414,4.414,0,0,1,0,4.918v-.5A4.414,4.414,0,0,1,4.414,0Z" fill="#00803d"/>
      </g>
      <g id="Group_669" data-name="Group 669" transform="translate(1.852 2.61)">
        <g id="Group_668" data-name="Group 668">
          <g id="Group_667" data-name="Group 667">
            <path id="Path_3234" data-name="Path 3234" d="M335.335,156.894l-2.359-2.057a.465.465,0,1,1,.611-.7l1.668,1.454,2.379-2.654a.465.465,0,1,1,.692.621Z" transform="translate(-332.816 -152.783)" fill="#f3f3f3"/>
          </g>
        </g>
      </g>
    </g>
    <g id="Group_675" data-name="Group 675" transform="translate(188.855 92.025)">
      <g id="Group_671" data-name="Group 671">
        <path id="Rectangle_320" data-name="Rectangle 320" d="M4.414,0h.505A4.413,4.413,0,0,1,9.332,4.413v.5A4.414,4.414,0,0,1,4.918,9.332h-.5A4.414,4.414,0,0,1,0,4.918v-.5A4.414,4.414,0,0,1,4.414,0Z" fill="#00803d"/>
      </g>
      <g id="Group_674" data-name="Group 674" transform="translate(1.852 2.611)">
        <g id="Group_673" data-name="Group 673">
          <g id="Group_672" data-name="Group 672">
            <path id="Path_3235" data-name="Path 3235" d="M335.335,183.924l-2.359-2.057a.465.465,0,1,1,.611-.7l1.668,1.454,2.379-2.654a.465.465,0,1,1,.692.621Z" transform="translate(-332.816 -179.813)" fill="#f3f3f3"/>
          </g>
        </g>
      </g>
    </g>
    <g id="Group_677" data-name="Group 677" transform="translate(188.855 103.984)">
      <g id="Group_676" data-name="Group 676">
        <path id="Rectangle_321" data-name="Rectangle 321" d="M4.414,0h.5A4.413,4.413,0,0,1,9.332,4.413v.505A4.414,4.414,0,0,1,4.918,9.332h-.5A4.414,4.414,0,0,1,0,4.918v-.5A4.414,4.414,0,0,1,4.414,0Z" fill="#00803d"/>
      </g>
    </g>
    <g id="Group_684" data-name="Group 684" transform="translate(148.49 88.924)">
      <path id="Path_3236" data-name="Path 3236" d="M240.211,352.714a7.175,7.175,0,0,1-.875,1.49c-.4.423-1.933,1.179-1.941,2.435-.009,1.362,2.583.984,3.6.934s1.091-.777,1.517-1.548.857-.64.937-1.262a7.429,7.429,0,0,0-.327-2.014Z" transform="translate(-237.395 -270.508)" fill="#131c24"/>
      <path id="Path_3237" data-name="Path 3237" d="M243.565,351.6l-.074.646a5.631,5.631,0,0,0,3.1.056l-.084-.883Z" transform="translate(-240.794 -269.783)" fill="#4f4946"/>
      <path id="Path_3238" data-name="Path 3238" d="M281.909,352.714a7.167,7.167,0,0,0,.874,1.49c.4.423,1.933,1.179,1.941,2.435.009,1.362-2.583.984-3.6.934s-1.091-.777-1.517-1.548-.857-.64-.937-1.262a7.443,7.443,0,0,1,.327-2.014Z" transform="translate(-260.406 -270.508)" fill="#131c24"/>
      <path id="Path_3239" data-name="Path 3239" d="M282.285,351.6l.074.646a5.631,5.631,0,0,1-3.1.056l.084-.883Z" transform="translate(-260.737 -269.783)" fill="#4f4946"/>
      <path id="Path_3240" data-name="Path 3240" d="M260.406,280.1c0,1.679,1.568,17.007,1.568,17.007-.18.56-4.028.491-4.628.212s-2.345-15.471-2.456-17.163-2.616-16.416-3.142-16.36-3.02,15.833-3.441,17.121-2.326,16.548-2.326,16.548c-1.32.727-4.459-.183-4.459-.183s.658-15.668.734-16.142c.111-.7-.005-2.587.3-6.775.273-3.746,1.26-11.9,1.886-16.319.023-.157.044-.308.065-.453.123-.86.215-1.491.258-1.794.019-.131.03-.2.03-.2.169-.072.345-.139.529-.2,4.4-1.473,12.763-1.379,12.763-1.379s.115,1.5.125,1.577l.051.408c.049.389.122.969.206,1.643,0,0,0,.009,0,.014l.008.061c.3,2.4.714,5.9.674,6.267C259.092,264.554,260.406,278.425,260.406,280.1Z" transform="translate(-239.697 -215.479)" fill="#293e4f"/>
      <g id="Group_678" data-name="Group 678" transform="translate(3.935 11.845)">
        <path id="Path_3241" data-name="Path 3241" d="M263.69,196.8l-2.159,7.748c-.074.251-.162.561-.256.92l0,.014a.068.068,0,0,0,0,.01,30.477,30.477,0,0,0-.939,5.825c-.09,1.594.206,8,.206,8a21.528,21.528,0,0,1-8.158.911s-5.26-.123-4.831-3.348c1.134-8.536.025-12.055-.124-12.912,0,0-.622-3.933-1.133-7.406,1.48-.551,7.711-2.89,7.711-2.89l3.275.245S262.252,195.147,263.69,196.8Z" transform="translate(-246.289 -193.676)" fill="#d9c7c1"/>
      </g>
      <g id="Group_679" data-name="Group 679" transform="translate(9.412 0.856)">
        <path id="Path_3242" data-name="Path 3242" d="M262.545,168.873s3.2.539,2.655,5.544-3.365,4.564-3.553,4.556-2.838.06-2.978-6.059C258.668,172.915,258.627,168.39,262.545,168.873Z" transform="translate(-258.668 -168.837)" fill="#eea987"/>
      </g>
      <g id="Group_680" data-name="Group 680" transform="translate(10.49 8.963)">
        <path id="Path_3243" data-name="Path 3243" d="M265.3,187.741a11.522,11.522,0,0,0,.085,2.509c.194.448-2.567,1.867-4.284.251a17.679,17.679,0,0,0,.239-3.046C261.237,186.658,265.3,187.741,265.3,187.741Z" transform="translate(-261.105 -187.162)" fill="#eea987"/>
      </g>
      <g id="Group_681" data-name="Group 681" transform="translate(15.799 4.86)">
        <path id="Path_3244" data-name="Path 3244" d="M273.314,178.049s.355-.371.479.01-.566,2.068-.523,2.144c0,0-.065.146-.149.065A18.289,18.289,0,0,1,273.314,178.049Z" transform="translate(-273.105 -177.887)" fill="#eea987"/>
      </g>
      <g id="Group_682" data-name="Group 682" transform="translate(8.945 4.713)">
        <path id="Path_3245" data-name="Path 3245" d="M258.117,177.729s-.339-.385-.479-.01a6.418,6.418,0,0,0,.435,2.164s.11.173.2.094A18.538,18.538,0,0,0,258.117,177.729Z" transform="translate(-257.613 -177.555)" fill="#eea987"/>
      </g>
      <g id="Group_683" data-name="Group 683" transform="translate(9.187)">
        <path id="Path_3246" data-name="Path 3246" d="M265.186,171.5c-.11.685-.214,1.194-.214,1.194l-.465.608a12.319,12.319,0,0,0-.044-1.555c-.027-.08-.059-.222-.091-.375-.054-.253-.108-.539-.146-.634a6.848,6.848,0,0,0-5.127.165s.02.207.019.437c0,.268-.03.569-.153.614-.229.083-.133,1.572-.133,1.572l-.372-.43s-.107-.778-.214-1.671v-.006c-.024-.209-.049-.423-.072-.636a4.181,4.181,0,0,1,1.206-3.491,5.733,5.733,0,0,1,4.154.018,9.209,9.209,0,0,1,.78.531A4.658,4.658,0,0,1,265.186,171.5Z" transform="translate(-258.161 -166.903)" fill="#e8734d"/>
      </g>
      <path id="Path_3247" data-name="Path 3247" d="M262.143,190.237a2.035,2.035,0,0,0,1.7.682,2.307,2.307,0,0,0,1.7-.645,2.069,2.069,0,0,1-1.706,1.161A2.092,2.092,0,0,1,262.143,190.237Z" transform="translate(-251.194 -179.914)" fill="#c78d71"/>
      <path id="Path_3248" data-name="Path 3248" d="M260.369,194.04a3.483,3.483,0,0,0,2.482,1.632c1.031.089,1.916-1.221,2.335-1.863A6.233,6.233,0,0,0,260.369,194.04Z" transform="translate(-250.205 -181.695)" fill="#eea987"/>
      <path id="Path_3249" data-name="Path 3249" d="M268.026,193.225A8.87,8.87,0,0,1,265.98,195l.866,1.334,1.476-2.645Z" transform="translate(-253.333 -181.58)" fill="#eddad3"/>
      <path id="Path_3250" data-name="Path 3250" d="M260.61,193.676a5.946,5.946,0,0,0,2.091,1.573l-.95,1.374-1.651-2.347Z" transform="translate(-250.055 -181.831)" fill="#eddad3"/>
      <path id="Path_3251" data-name="Path 3251" d="M265.02,197.231l.742,1.129a1.543,1.543,0,0,1-1.5-.028Z" transform="translate(-252.374 -183.813)" fill="#5073ab"/>
      <path id="Path_3252" data-name="Path 3252" d="M248.724,253.05s4.011,1.48,13.083.086l-.121-1.643a30.582,30.582,0,0,1-12.8.223Z" transform="translate(-243.712 -214.069)" fill="#1a2833"/>
      <path id="Path_3253" data-name="Path 3253" d="M270.239,194.269a100.212,100.212,0,0,0-.809,13.06c.128,6.043,2.091,17.377,2.091,17.377s3.5-.343,4.367-1.436c0,0-2.007-10.907-1.95-12.524s2.573-13.774,2.573-13.774S275.527,195.661,270.239,194.269Z" transform="translate(-255.25 -182.162)" fill="#385369"/>
      <path id="Path_3254" data-name="Path 3254" d="M251.736,195.1s-.009,6.65-.137,12.693-.925,17.295-.925,17.295-4.1-.584-4.972-1.678c0,0,1.447-10.584,1.39-12.2s-1.856-13.655-1.856-13.655S245.858,196.666,251.736,195.1Z" transform="translate(-241.767 -182.624)" fill="#385369"/>
      <rect id="Rectangle_322" data-name="Rectangle 322" width="2.465" height="1.832" transform="translate(10.483 37.93)" fill="#3e5e78"/>
      <path id="Path_3255" data-name="Path 3255" d="M263.655,199.138a46.315,46.315,0,0,0-1.2,11.219c-.1,7.462.135,9.6.135,9.6l.859,1.7,1.145-1.775s-.367-17.171-.154-20.616Z" transform="translate(-251.356 -184.877)" fill="#5073ab"/>
      <path id="Path_3256" data-name="Path 3256" d="M275.58,220.983s1.629-.819,1.855-.964a21.555,21.555,0,0,1,3.29-.536c.343.011.358.284.261.381s-2.817.544-2.864.609.23.041.23.041a17.624,17.624,0,0,1,3.136.151c.205.2-.03.382-.149.431,0,0,.267.307-.042.433a4.559,4.559,0,0,1-.726.207s.388.2.133.377-3.362,1.14-3.362,1.14S276.189,221.045,275.58,220.983Z" transform="translate(-258.686 -196.22)" fill="#eea886"/>
      <path id="Path_3257" data-name="Path 3257" d="M270.907,214.191c-2.117.506-7.011-.315-8.876-.726-.4-.087-.841-.178-1.3-.269h0c-.763-.15-1.559-.3-2.205-.411h0c-.8-.142-1.364-.238-1.364-.238s10.272-2.308,10.651-2.308-.948-6-.948-6-1.323-5.029-.636-7.005a18.246,18.246,0,0,1,3.45,1.393c.471.336.817,2.517,1.137,4,.407,1.879,1.351,6.16,1.458,7.064C272.368,210.511,273.025,213.686,270.907,214.191Z" transform="translate(-248.415 -183.813)" fill="#385369"/>
      <path id="Path_3258" data-name="Path 3258" d="M245.342,197.286s-3.155,1.078-3.306,1.487a38.507,38.507,0,0,0-1.141,4.387c-.252.928-.822,3.7-.97,4.607a37.261,37.261,0,0,0-.39,5.872c.2.8,2.073.738,3.085.58s15.064-3.578,15.064-3.578-.8-2.614-.842-2.846c0,0-10.833,1.238-12.213,1.533a9.067,9.067,0,0,0-.959.232S246.06,199.756,245.342,197.286Z" transform="translate(-238.567 -183.844)" fill="#385369"/>
      <path id="Path_3259" data-name="Path 3259" d="M249.592,220.484s-1.415-1.151-1.6-1.341a21.576,21.576,0,0,0-3.1-1.232.284.284,0,0,0-.369.34,20.315,20.315,0,0,0,2.7,1.187c.032.073-.233-.009-.233-.009a17.628,17.628,0,0,0-3.1-.528c-.242.147-.053.379.053.453,0,0-.327.242-.053.432a4.567,4.567,0,0,0,.664.358s-.421.112-.211.34a7.149,7.149,0,0,0,1.712.572A25.267,25.267,0,0,1,249.592,220.484Z" transform="translate(-240.95 -195.339)" fill="#eea886"/>
      <path id="Path_3260" data-name="Path 3260" d="M267.215,228.593l-4.765,2.09h0c-.763-.15-1.559-.3-2.2-.411Z" transform="translate(-250.135 -201.3)" fill="#263947"/>
      <path id="Path_3261" data-name="Path 3261" d="M270.809,168.653s.793-.4,1.222.124.475,3.373-.048,4.466S272.065,169.361,270.809,168.653Z" transform="translate(-256.026 -167.798)" fill="#e8734d"/>
    </g>
    <rect id="Rectangle_323" data-name="Rectangle 323" width="1.418" height="64.481" transform="translate(131.661 118.019)" fill="#706865"/>
    <path id="Rectangle_324" data-name="Rectangle 324" d="M9.624,0H37.053a9.624,9.624,0,0,1,9.624,9.624V71.151a9.624,9.624,0,0,1-9.624,9.624H9.625A9.625,9.625,0,0,1,0,71.151V9.624A9.624,9.624,0,0,1,9.624,0Z" transform="translate(92.655 91.081)" fill="#bdafaa"/>
    <rect id="Rectangle_325" data-name="Rectangle 325" width="44.116" height="76.319" rx="9.509" transform="translate(93.935 92.382)" fill="#fff"/>
    <rect id="Rectangle_326" data-name="Rectangle 326" width="13.909" height="3.141" transform="translate(109.039 90.468)" fill="#706865"/>
    <g id="Group_688" data-name="Group 688" transform="translate(97.172 141.278)">
      <g id="Group_687" data-name="Group 687">
        <g id="Group_686" data-name="Group 686">
          <g id="Group_685" data-name="Group 685">
            <path id="Path_3262" data-name="Path 3262" d="M153.788,309.61H125.551a4.153,4.153,0,0,1-4.149-4.148V289.387a4.153,4.153,0,0,1,4.149-4.149h28.237a4.153,4.153,0,0,1,4.149,4.149v16.075A4.153,4.153,0,0,1,153.788,309.61Zm-28.237-23.837a3.618,3.618,0,0,0-3.614,3.614v16.075a3.618,3.618,0,0,0,3.614,3.614h28.237a3.618,3.618,0,0,0,3.614-3.614V289.387a3.618,3.618,0,0,0-3.614-3.614Z" transform="translate(-121.402 -285.238)" fill="#b5deff"/>
          </g>
        </g>
      </g>
    </g>
    <g id="Group_690" data-name="Group 690" transform="translate(104.216 126.768)">
      <g id="Group_689" data-name="Group 689">
        <path id="Path_3263" data-name="Path 3263" d="M137.33,252.44h-.007C137.35,252.452,137.354,252.453,137.33,252.44Z" transform="translate(-137.323 -252.44)" fill="#323657"/>
      </g>
    </g>
    <g id="Group_691" data-name="Group 691" transform="translate(124.144 115.828)">
      <path id="Path_3264" data-name="Path 3264" d="M186.967,236.917a4.6,4.6,0,1,1,4.6-4.6A4.607,4.607,0,0,1,186.967,236.917Zm0-8.669a4.067,4.067,0,1,0,4.067,4.067A4.071,4.071,0,0,0,186.967,228.247Z" transform="translate(-182.365 -227.713)" fill="#63a581"/>
    </g>
    <g id="Group_692" data-name="Group 692" transform="translate(124.144 126.431)">
      <path id="Path_3265" data-name="Path 3265" d="M186.967,260.884a4.6,4.6,0,1,1,4.6-4.6A4.607,4.607,0,0,1,186.967,260.884Zm0-8.669a4.067,4.067,0,1,0,4.067,4.067A4.072,4.072,0,0,0,186.967,252.215Z" transform="translate(-182.365 -251.68)" fill="#63a581"/>
    </g>
    <g id="Group_693" data-name="Group 693" transform="translate(96.085 96.794)">
      <path id="Path_3266" data-name="Path 3266" d="M130.864,208.531c-.38,0-.764-.019-1.143-.054a11.914,11.914,0,0,1-7.317-3.468c-.077-.078-.15-.154-.218-.225-.264-.279-.519-.577-.756-.884a11.806,11.806,0,0,1-2.487-7.288,11.934,11.934,0,0,1,11.921-11.921v.535a11.4,11.4,0,0,0-11.386,11.386,11.272,11.272,0,0,0,2.376,6.961,11.043,11.043,0,0,0,.723.845c.064.069.134.142.207.215a11.341,11.341,0,0,0,6.988,3.312c.362.034.73.052,1.092.052.132,0,.254,0,.373-.006.346-.011.69-.038,1.025-.08a11.372,11.372,0,0,0,5.178-2c.161-.115.319-.234.469-.352.13-.1.265-.213.4-.33a11.56,11.56,0,0,0,1.272-1.29,11.4,11.4,0,0,0,2.668-7.325,11.547,11.547,0,0,0-.122-1.671l.529-.078a12.124,12.124,0,0,1,.127,1.748,11.932,11.932,0,0,1-2.793,7.668,12.078,12.078,0,0,1-1.332,1.351c-.142.122-.283.238-.419.345-.156.123-.321.247-.49.367a11.912,11.912,0,0,1-5.422,2.1c-.35.044-.711.071-1.072.083C131.13,208.528,131,208.531,130.864,208.531Z" transform="translate(-118.943 -184.69)" fill="#63a581"/>
    </g>
    <path id="Path_3267" data-name="Path 3267" d="M142.582,209.7a1,1,0,0,0-.116-.13.2.2,0,0,0-.061-.05l-.011-.007h0a32.946,32.946,0,0,0-6.232-2.231,6.829,6.829,0,0,1-.09-1.749,4.963,4.963,0,0,0,1-2.416c.068.05.119-.065.119-.065-.037-.066.562-1.53.454-1.86a.173.173,0,0,0-.283-.111q.022-.126.044-.266a5.15,5.15,0,0,0-.9-3.5,1.258,1.258,0,0,0-.536-.141,5,5,0,0,0-3.6-.016,3.627,3.627,0,0,0-1.047,3.029c.02.184.042.371.062.551v.006c.008.071.017.142.025.211a.173.173,0,0,0-.288.1,5.569,5.569,0,0,0,.377,1.878s.1.15.171.082h0a5.36,5.36,0,0,0,.985,2.562c-.04.721-.169,1.622-.2,1.86h0c-.932.294-5.6,1.537-7.017,2.466a1.342,1.342,0,0,0-.391.6,11.21,11.21,0,0,0,.74.866c.069.074.14.147.212.22a11.617,11.617,0,0,0,7.152,3.39c.367.035.741.053,1.118.053.128,0,.256,0,.382-.007q.531-.017,1.049-.081A11.59,11.59,0,0,0,141,212.9c.163-.116.323-.236.48-.36.139-.109.276-.222.409-.337a11.763,11.763,0,0,0,1.3-1.32A5.7,5.7,0,0,0,142.582,209.7Z" transform="translate(-26.26 -94.676)" fill="#63a581"/>
    <g id="Group_788" data-name="Group 788" transform="translate(206.913 111.504)">
      <g id="Group_694" data-name="Group 694" transform="translate(34.416 29.519)">
        <rect id="Rectangle_327" data-name="Rectangle 327" width="13.807" height="0.819" transform="translate(13.807 0.819) rotate(180)" fill="#e2d2ca"/>
      </g>
      <g id="Group_695" data-name="Group 695" transform="translate(45.164 32.471)">
        <rect id="Rectangle_328" data-name="Rectangle 328" width="1.21" height="37.276" fill="#706865"/>
      </g>
      <g id="Group_696" data-name="Group 696" transform="translate(26.979 29.286)">
        <rect id="Rectangle_329" data-name="Rectangle 329" width="9.598" height="1.171" transform="translate(9.598 1.171) rotate(180)" fill="#ccbdb7"/>
      </g>
      <g id="Group_697" data-name="Group 697" transform="translate(29.961 19.299)">
        <rect id="Rectangle_330" data-name="Rectangle 330" width="3.634" height="11.038" transform="translate(3.634 11.038) rotate(180)" fill="#00803d"/>
      </g>
      <g id="Group_698" data-name="Group 698" transform="translate(0 30.352)">
        <rect id="Rectangle_331" data-name="Rectangle 331" width="53.177" height="2.119" transform="translate(53.177 2.119) rotate(180)" fill="#b59074"/>
      </g>
      <g id="Group_699" data-name="Group 699" transform="translate(57.507 13.963)">
        <path id="Path_3268" data-name="Path 3268" d="M505.308,253.061s.581,8.156-1.012,9.132c-1,.611-4.979,2.674-4.861,3.061s2.247,3.441,2.247,3.441,7.646-5.035,7.892-6.622c.241-1.55-.376-11.942-1.427-12.421-.788-.359-1.2-.062-2.195.675A2.321,2.321,0,0,0,505.308,253.061Z" transform="translate(-499.432 -249.5)" fill="#323657"/>
      </g>
      <g id="Group_702" data-name="Group 702" transform="translate(48.774 17.677)">
        <g id="Group_701" data-name="Group 701">
          <g id="Group_700" data-name="Group 700">
            <path id="Path_3269" data-name="Path 3269" d="M480.366,260.07l-.674-.25s.841-1.973,1.207-1.925a9.13,9.13,0,0,1,.95.195Z" transform="translate(-479.692 -257.895)" fill="#ead8cf"/>
          </g>
        </g>
      </g>
      <g id="Group_705" data-name="Group 705" transform="translate(49.294 17.546)">
        <g id="Group_704" data-name="Group 704">
          <g id="Group_703" data-name="Group 703">
            <path id="Path_3270" data-name="Path 3270" d="M480.868,260.245c.086-.064,1.432-2.647,1.432-2.647l2.877.391-1.554,3.059Z" transform="translate(-480.868 -257.598)" fill="#da9b5b"/>
          </g>
        </g>
      </g>
      <g id="Group_708" data-name="Group 708" transform="translate(53.976 64.444)">
        <g id="Group_707" data-name="Group 707">
          <g id="Group_706" data-name="Group 706">
            <path id="Path_3271" data-name="Path 3271" d="M491.449,363.815s.238,1.651.268,1.9,2.644-.146,2.644-.146l.212-1.965A15.5,15.5,0,0,0,491.449,363.815Z" transform="translate(-491.449 -363.602)" fill="#424773"/>
          </g>
        </g>
      </g>
      <g id="Group_711" data-name="Group 711" transform="translate(49.677 66.234)">
        <g id="Group_710" data-name="Group 710">
          <g id="Group_709" data-name="Group 709">
            <path id="Path_3272" data-name="Path 3272" d="M486.272,367.759a7.063,7.063,0,0,1-1.63,1.428c-.8.434-2.061.6-2.535,1.054-.342.323-1.246,1.718,2.083,1.69s4.933.2,5.29-.338-.516-3.945-.516-3.945A7.045,7.045,0,0,1,486.272,367.759Z" transform="translate(-481.734 -367.648)" fill="#292c47"/>
          </g>
        </g>
      </g>
      <g id="Group_714" data-name="Group 714" transform="translate(37.221 64.461)">
        <g id="Group_713" data-name="Group 713">
          <g id="Group_712" data-name="Group 712">
            <path id="Path_3273" data-name="Path 3273" d="M453.578,363.852s.238,1.65.268,1.9,2.645-.146,2.645-.146l.212-1.964A15.5,15.5,0,0,0,453.578,363.852Z" transform="translate(-453.578 -363.639)" fill="#424773"/>
          </g>
        </g>
      </g>
      <g id="Group_717" data-name="Group 717" transform="translate(31.385 66.25)">
        <g id="Group_716" data-name="Group 716">
          <g id="Group_715" data-name="Group 715">
            <path id="Path_3274" data-name="Path 3274" d="M446.463,367.8a7.055,7.055,0,0,1-1.63,1.427c-.8.434-3.75.79-4.224,1.238-.342.324-.911,1.628,3.772,1.506,3.327-.086,4.933.2,5.29-.337s-.516-3.946-.516-3.946A6.4,6.4,0,0,1,446.463,367.8Z" transform="translate(-440.387 -367.683)" fill="#292c47"/>
          </g>
        </g>
      </g>
      <g id="Group_720" data-name="Group 720" transform="translate(35.12 36.15)">
        <g id="Group_719" data-name="Group 719">
          <g id="Group_718" data-name="Group 718">
            <path id="Path_3275" data-name="Path 3275" d="M476.121,299.649s-9.509,1.609-11.655,1.947-13.791,3.234-15.247,4.117c-1.159.7.608,17.581,1.021,24.021h4.586l.333-19.316c5.5.138,9.43-1.287,13.438-.679s7.349,1.474,9.9-1.942C478.492,307.8,478.586,300.4,476.121,299.649Z" transform="translate(-448.831 -299.649)" fill="#292c47"/>
          </g>
        </g>
      </g>
      <g id="Group_723" data-name="Group 723" transform="translate(51.619 38.207)">
        <g id="Group_722" data-name="Group 722">
          <g id="Group_721" data-name="Group 721">
            <path id="Path_3276" data-name="Path 3276" d="M487.543,332.341l4.469-.276.436-19.056a27.183,27.183,0,0,0,5.1-.323l3.609-8.387c-3.163.632-13.3,3.188-14.646,4.007C485.35,309.008,487.13,325.9,487.543,332.341Z" transform="translate(-486.123 -304.298)" fill="#292c47"/>
          </g>
        </g>
      </g>
      <g id="Group_726" data-name="Group 726" transform="translate(52.497 0.345)">
        <g id="Group_725" data-name="Group 725">
          <g id="Group_724" data-name="Group 724">
            <path id="Path_3277" data-name="Path 3277" d="M493.644,218.885s-3.485-.963-4.815,1.742-.727,7.835,1.03,8.318,4.283-.073,5.012-1.757a12.918,12.918,0,0,0,1.137-5.626A3.4,3.4,0,0,0,493.644,218.885Z" transform="translate(-488.107 -218.718)" fill="#eea886"/>
          </g>
        </g>
      </g>
      <g id="Group_729" data-name="Group 729" transform="translate(54.964 7.66)">
        <g id="Group_728" data-name="Group 728">
          <g id="Group_727" data-name="Group 727">
            <path id="Path_3278" data-name="Path 3278" d="M493.878,237.624a10.646,10.646,0,0,1-.188,2.5c-.227.439,4.853.329,4.853.329a10.31,10.31,0,0,1-.346-4.576C498.646,233.79,493.878,237.624,493.878,237.624Z" transform="translate(-493.682 -235.253)" fill="#eea886"/>
          </g>
        </g>
      </g>
      <g id="Group_732" data-name="Group 732" transform="translate(52.389)">
        <g id="Group_731" data-name="Group 731">
          <g id="Group_730" data-name="Group 730">
            <path id="Path_3279" data-name="Path 3279" d="M495.225,225.441s-.271.552-1.587.463-3.05-1.676-3.607-1.817-.592-.459-.592-.459l-.3.526-.572.087s.388-1.59-.458-2.15.381-5.069,4.669-3.981c0,0,3.273.6,3.316,2.427A10.141,10.141,0,0,1,495.225,225.441Z" transform="translate(-487.863 -217.939)" fill="#3a3f47"/>
          </g>
        </g>
      </g>
      <g id="Group_735" data-name="Group 735" transform="translate(54.704 11.122)">
        <g id="Group_734" data-name="Group 734">
          <g id="Group_733" data-name="Group 733">
            <path id="Path_3280" data-name="Path 3280" d="M493.095,244.432s.014-.838.394-.918a24.776,24.776,0,0,1,4.46-.394l.2,1.107S497.25,244.779,493.095,244.432Z" transform="translate(-493.095 -243.079)" fill="#e2d2ca"/>
          </g>
        </g>
      </g>
      <g id="Group_738" data-name="Group 738" transform="translate(53.613 4.382)">
        <g id="Group_737" data-name="Group 737">
          <g id="Group_736" data-name="Group 736">
            <path id="Path_3281" data-name="Path 3281" d="M490.674,228.775c.1-.687.879-1.476,1.326-.406s-.3,2.628-.8,2.545S490.542,229.707,490.674,228.775Z" transform="translate(-490.629 -227.845)" fill="#eea886"/>
          </g>
        </g>
      </g>
      <g id="Group_741" data-name="Group 741" transform="translate(39.553 22.378)">
        <g id="Group_740" data-name="Group 740">
          <g id="Group_739" data-name="Group 739">
            <path id="Path_3282" data-name="Path 3282" d="M458.866,268.52a.007.007,0,0,1,.006,0C458.846,268.53,458.842,268.531,458.866,268.52Z" transform="translate(-458.85 -268.519)" fill="#323657"/>
          </g>
        </g>
      </g>
      <g id="Group_744" data-name="Group 744" transform="translate(59.051 1.001)">
        <g id="Group_743" data-name="Group 743">
          <g id="Group_742" data-name="Group 742">
            <path id="Path_3283" data-name="Path 3283" d="M502.92,220.2s4.249-.2.742,6.434Z" transform="translate(-502.92 -220.203)" fill="#3a3f47"/>
          </g>
        </g>
      </g>
      <g id="Group_746" data-name="Group 746" transform="translate(54.846 63.46)">
        <g id="Group_745" data-name="Group 745">
          <path id="Path_3284" data-name="Path 3284" d="M507.09,366.428l-.316.89-13.357-4.139.64-1.8Z" transform="translate(-493.416 -361.378)" fill="#918783"/>
        </g>
      </g>
      <g id="Group_748" data-name="Group 748" transform="translate(54.388 50.105)">
        <g id="Group_747" data-name="Group 747" transform="translate(0 0)">
          <rect id="Rectangle_332" data-name="Rectangle 332" width="1.518" height="14.522" transform="translate(1.518 14.522) rotate(180)" fill="#918783"/>
        </g>
      </g>
      <g id="Group_750" data-name="Group 750" transform="translate(50.67 49.334)">
        <g id="Group_749" data-name="Group 749" transform="translate(0 0)">
          <rect id="Rectangle_333" data-name="Rectangle 333" width="8.954" height="0.855" transform="translate(8.954 0.855) rotate(180)" fill="#5e5854"/>
        </g>
      </g>
      <g id="Group_752" data-name="Group 752" transform="translate(41.657 63.347)">
        <g id="Group_751" data-name="Group 751">
          <path id="Path_3285" data-name="Path 3285" d="M463.605,366.285l.316.89,13.357-4.139-.587-1.914Z" transform="translate(-463.605 -361.122)" fill="#918783"/>
        </g>
      </g>
      <g id="Group_754" data-name="Group 754" transform="translate(51.068 63.347)">
        <g id="Group_753" data-name="Group 753">
          <path id="Path_3286" data-name="Path 3286" d="M484.877,367.079v1.034l4.263-5.077-.587-1.914Z" transform="translate(-484.877 -361.122)" fill="#918783"/>
        </g>
      </g>
      <g id="Group_756" data-name="Group 756" transform="translate(40.409 68.499)">
        <g id="Group_755" data-name="Group 755">
          <path id="Path_3287" data-name="Path 3287" d="M460.784,374.015a1.248,1.248,0,1,0,1.248-1.248A1.248,1.248,0,0,0,460.784,374.015Z" transform="translate(-460.784 -372.767)" fill="#bfb2ac"/>
        </g>
      </g>
      <g id="Group_758" data-name="Group 758" transform="translate(50.962 68.499)">
        <g id="Group_757" data-name="Group 757">
          <path id="Path_3288" data-name="Path 3288" d="M484.638,374.015a1.248,1.248,0,1,0,1.248-1.248A1.248,1.248,0,0,0,484.638,374.015Z" transform="translate(-484.638 -372.767)" fill="#bfb2ac"/>
        </g>
      </g>
      <g id="Group_760" data-name="Group 760" transform="translate(67.271 68.499)">
        <g id="Group_759" data-name="Group 759">
          <path id="Path_3289" data-name="Path 3289" d="M521.5,374.015a1.248,1.248,0,1,0,1.248-1.248A1.249,1.249,0,0,0,521.5,374.015Z" transform="translate(-521.5 -372.767)" fill="#bfb2ac"/>
        </g>
      </g>
      <g id="Group_761" data-name="Group 761" transform="translate(44.481 46.092)">
        <path id="Rectangle_334" data-name="Rectangle 334" d="M1.621,0H19.593a1.621,1.621,0,0,1,1.621,1.621v0a1.62,1.62,0,0,1-1.62,1.62H1.621A1.621,1.621,0,0,1,0,1.621v0A1.621,1.621,0,0,1,1.621,0Z" transform="translate(21.214 3.242) rotate(-180)" fill="#e2d2ca"/>
      </g>
      <g id="Group_762" data-name="Group 762" transform="translate(6.804 32.471)">
        <rect id="Rectangle_335" data-name="Rectangle 335" width="1.21" height="37.276" transform="translate(1.21 37.276) rotate(180)" fill="#706865"/>
      </g>
      <g id="Group_763" data-name="Group 763" transform="translate(16.087 2.478)">
        <path id="Rectangle_336" data-name="Rectangle 336" d="M3.607,0H27.776a3.607,3.607,0,0,1,3.607,3.607V18.532a3.607,3.607,0,0,1-3.607,3.607H3.608A3.608,3.608,0,0,1,0,18.531V3.607A3.607,3.607,0,0,1,3.607,0Z" transform="translate(31.383 22.139) rotate(180)" fill="#63a581"/>
      </g>
      <g id="Group_764" data-name="Group 764" transform="translate(17.316 3.674)">
        <rect id="Rectangle_337" data-name="Rectangle 337" width="28.925" height="17.473" transform="translate(28.925 17.473) rotate(180)" fill="#f5f7ff"/>
      </g>
      <g id="Group_765" data-name="Group 765" transform="translate(17.316 3.674)">
        <rect id="Rectangle_338" data-name="Rectangle 338" width="28.925" height="1.39" transform="translate(28.925 1.39) rotate(180)" fill="#cecfd6"/>
      </g>
      <g id="Group_766" data-name="Group 766" transform="translate(18.385 6.111)">
        <rect id="Rectangle_339" data-name="Rectangle 339" width="3.488" height="13.961" rx="1.744" transform="translate(3.488 13.961) rotate(180)" fill="#cecfd6"/>
      </g>
      <g id="Group_767" data-name="Group 767" transform="translate(39.061 6.111)">
        <path id="Rectangle_340" data-name="Rectangle 340" d="M.646,0H5.715a.646.646,0,0,1,.646.646v0a.647.647,0,0,1-.647.647H.647A.647.647,0,0,1,0,.646v0A.646.646,0,0,1,.646,0Z" transform="translate(6.362 1.293) rotate(180)" fill="#cecfd6"/>
      </g>
      <g id="Group_768" data-name="Group 768" transform="translate(39.061 8.27)">
        <path id="Rectangle_341" data-name="Rectangle 341" d="M2.491,0h1.38a2.49,2.49,0,0,1,2.49,2.49V9.666A2.491,2.491,0,0,1,3.87,12.157H2.49A2.49,2.49,0,0,1,0,9.667V2.491A2.491,2.491,0,0,1,2.491,0Z" transform="translate(6.362 12.157) rotate(180)" fill="#cecfd6"/>
      </g>
      <g id="Group_769" data-name="Group 769" transform="translate(30.766 21.811)">
        <path id="Path_3290" data-name="Path 3290" d="M438.988,268.251A1.012,1.012,0,1,0,440,267.238,1.013,1.013,0,0,0,438.988,268.251Z" transform="translate(-438.988 -267.238)" fill="#59524f"/>
      </g>
      <g id="Group_770" data-name="Group 770" transform="translate(25.282 27.536)">
        <path id="Path_3291" data-name="Path 3291" d="M426.592,283.023v-.394s.554-2.451,4.472-2.451,3.838,2.845,3.838,2.845Z" transform="translate(-426.592 -280.178)" fill="#314875"/>
      </g>
      <g id="Group_772" data-name="Group 772" transform="translate(26.605 26.382)">
        <g id="Group_771" data-name="Group 771">
          <path id="Path_3292" data-name="Path 3292" d="M436.617,279.088a3.858,3.858,0,0,1-1.163-.254c-.312-.188-2.177-1.443-2.616-1.242s-3.354,1.094-3.253,1.521.371.385.577.31a14.969,14.969,0,0,1,2.51-.445s-2.08.759-2.088,1.313.435.689.632.9.434.73.971.769,3.151-.87,3.69-.912a13.122,13.122,0,0,0,1.6-.054A14.948,14.948,0,0,0,436.617,279.088Z" transform="translate(-429.583 -277.57)" fill="#eea886"/>
        </g>
      </g>
      <g id="Group_775" data-name="Group 775" transform="translate(32.759 12.269)">
        <g id="Group_774" data-name="Group 774">
          <g id="Group_773" data-name="Group 773">
            <path id="Path_3293" data-name="Path 3293" d="M459.868,247.039c2.714-.477,5.57-1.161,5.57-1.161l5.054-.206a49.177,49.177,0,0,1,6.466,1.846c.173.078.174,4.138.649,5.2l-1.514,3.195s-.875,6.329-1.057,9.144c-.083,1.292.235,12.488.235,12.488a19.433,19.433,0,0,1-3.9.6c-3.45.38-12.067-.138-12.122-.545s1.669-15.17,1.745-15.934c.117-1.173-.339-6.6-.339-6.6-.65.873-2.307,4.815-4.034,6.691-1.016,1.1-6.046,1.779-6.994,1.811-2.064.069-5.828.48-5.939.279-.088-.12-.328-3.342-.092-3.42.206-.069,7.2-.472,8.989-1.422.655-.348,2.614-4.619,2.614-4.619S458.371,247.711,459.868,247.039Z" transform="translate(-443.493 -245.671)" fill="#323657"/>
          </g>
        </g>
      </g>
      <g id="Group_776" data-name="Group 776" transform="translate(56.021 23.561)">
        <path id="Rectangle_342" data-name="Rectangle 342" d="M6.945,0h.74a6.944,6.944,0,0,1,6.944,6.944v6.373a6.944,6.944,0,0,1-6.944,6.944H6.944A6.944,6.944,0,0,1,0,13.317V6.945A6.945,6.945,0,0,1,6.945,0Z" transform="translate(14.629 20.261) rotate(180)" fill="#e2d2ca"/>
      </g>
      <g id="Group_777" data-name="Group 777" transform="translate(57.8 36.496)">
        <path id="Path_3294" data-name="Path 3294" d="M500.907,312.461a6.7,6.7,0,0,0,5.2-2.153c2.925-3.229,2.4-8.9,2.375-9.145a.814.814,0,0,0-1.62.16c.006.065.472,5.21-1.965,7.9a5.074,5.074,0,0,1-3.99,1.615.814.814,0,1,0,0,1.628Z" transform="translate(-500.093 -300.431)" fill="#e2d2ca"/>
      </g>
      <g id="Group_787" data-name="Group 787" transform="translate(24.027 6.731)">
        <path id="Path_3295" data-name="Path 3295" d="M431.927,237.238a4.086,4.086,0,1,1-4.086-4.086A4.086,4.086,0,0,1,431.927,237.238Z" transform="translate(-423.756 -233.152)" fill="#eef0f7"/>
        <g id="Group_786" data-name="Group 786" transform="translate(0.853 1.792)">
          <g id="Group_778" data-name="Group 778" transform="translate(0.572 3.597)">
            <path id="Path_3296" data-name="Path 3296" d="M432.3,246.285l-.3,1.081a4.063,4.063,0,0,1-1.858.719c-.121.015-.244.025-.368.028-.045,0-.089,0-.134,0-.132,0-.263-.006-.392-.019a4.174,4.174,0,0,1-.425-.063,4.064,4.064,0,0,1-1.67-.763c-.058-.357-.12-.753-.174-1.123.3-.111,1.256-.437,1.859-.641l.025-.008.039-.013.1-.034.094-.032.242-.081h0l.012,0h.007l.811.061.136.01.042,0,.019,0c.049.012.191.05.379.107h0A3.971,3.971,0,0,1,432.3,246.285Z" transform="translate(-426.976 -245.334)" fill="#d9c7c1"/>
          </g>
          <g id="Group_779" data-name="Group 779" transform="translate(2.266 0.254)">
            <path id="Path_3297" data-name="Path 3297" d="M431.986,237.787s.972.165.807,1.687-1.024,1.389-1.081,1.387-.864.018-.906-1.844C430.806,239.017,430.793,237.641,431.986,237.787Z" transform="translate(-430.806 -237.776)" fill="#eea987"/>
          </g>
          <g id="Group_780" data-name="Group 780" transform="translate(2.594 2.72)">
            <path id="Path_3298" data-name="Path 3298" d="M432.825,243.528a3.524,3.524,0,0,0,.025.763c.06.136-.781.568-1.3.077a5.383,5.383,0,0,0,.073-.927C431.587,243.2,432.825,243.528,432.825,243.528Z" transform="translate(-431.547 -243.352)" fill="#eea987"/>
          </g>
          <g id="Group_781" data-name="Group 781" transform="translate(4.209 1.472)">
            <path id="Path_3299" data-name="Path 3299" d="M435.262,240.579s.108-.112.146,0-.173.629-.159.652c0,0-.019.045-.045.019A5.517,5.517,0,0,1,435.262,240.579Z" transform="translate(-435.198 -240.53)" fill="#eea987"/>
          </g>
          <g id="Group_782" data-name="Group 782" transform="translate(2.124 1.427)">
            <path id="Path_3300" data-name="Path 3300" d="M430.638,240.482s-.1-.118-.146,0a1.95,1.95,0,0,0,.133.658s.033.053.059.029A5.566,5.566,0,0,0,430.638,240.482Z" transform="translate(-430.484 -240.429)" fill="#eea987"/>
          </g>
          <g id="Group_783" data-name="Group 783" transform="translate(2.198)">
            <path id="Path_3301" data-name="Path 3301" d="M432.789,238.595c-.034.208-.065.363-.065.363l-.142.185a3.716,3.716,0,0,0-.013-.473c-.008-.025-.018-.068-.027-.114-.016-.077-.033-.164-.045-.193a2.083,2.083,0,0,0-1.559.05s.006.062.006.133-.01.173-.047.187c-.069.026-.041.478-.041.478l-.113-.131s-.033-.236-.065-.508v0c-.008-.064-.015-.129-.022-.193a1.274,1.274,0,0,1,.367-1.063,1.757,1.757,0,0,1,1.264.006.436.436,0,0,1,.188.05A1.8,1.8,0,0,1,432.789,238.595Z" transform="translate(-430.651 -237.203)" fill="#e8734d"/>
          </g>
          <path id="Path_3302" data-name="Path 3302" d="M431.862,244.287a.622.622,0,0,0,.516.208.7.7,0,0,0,.517-.2.629.629,0,0,1-.519.353A.636.636,0,0,1,431.862,244.287Z" transform="translate(-429.129 -241.153)" fill="#c78d71"/>
          <path id="Path_3303" data-name="Path 3303" d="M431.323,245.445a1.06,1.06,0,0,0,.755.5c.314.027.585-.371.713-.566A1.9,1.9,0,0,0,431.323,245.445Z" transform="translate(-428.828 -241.696)" fill="#eea987"/>
          <path id="Path_3304" data-name="Path 3304" d="M433.652,245.2a2.7,2.7,0,0,1-.623.54l.264.406.449-.8Z" transform="translate(-429.78 -241.66)" fill="#eddad3"/>
          <path id="Path_3305" data-name="Path 3305" d="M431.392,245.334a1.81,1.81,0,0,0,.636.479l-.289.418-.506-.731Z" transform="translate(-428.779 -241.737)" fill="#eddad3"/>
          <path id="Path_3306" data-name="Path 3306" d="M432.738,246.416l.226.343a.47.47,0,0,1-.457-.008Z" transform="translate(-429.488 -242.34)" fill="#5073ab"/>
          <path id="Path_3307" data-name="Path 3307" d="M436.545,246.325l-.007.023c-.025.088-.12.427-.244.878-.046.04-.095.08-.143.118s-.111.085-.169.126a4.062,4.062,0,0,1-1.858.719c.061-1.414.228-2.668.228-2.668.132.035.258.069.377.1h0a8.674,8.674,0,0,1,1.742.657l0,0C436.524,246.311,436.545,246.325,436.545,246.325Z" transform="translate(-430.391 -241.841)" fill="#323657"/>
          <path id="Path_3308" data-name="Path 3308" d="M428.272,248.252a4.065,4.065,0,0,1-1.67-.763,4.021,4.021,0,0,1-.413-.363l-.074-.077c-.072-.3-.119-.5-.122-.515h0a9.245,9.245,0,0,1,2.294-.809h0C428.287,245.767,428.288,246.914,428.272,248.252Z" transform="translate(-425.856 -241.955)" fill="#323657"/>
          <path id="Path_3309" data-name="Path 3309" d="M432.643,247.12c-.016.372-.018,1.1-.012,1.92-.045,0-.089,0-.134,0-.132,0-.263-.006-.392-.019a12.518,12.518,0,0,1,.272-1.9c.02-.082.032-.123.032-.123l.24.04C432.646,247.061,432.645,247.089,432.643,247.12Z" transform="translate(-429.264 -242.663)" fill="#5073ab"/>
          <g id="Group_784" data-name="Group 784" transform="translate(5.761 4.484)">
            <path id="Path_3310" data-name="Path 3310" d="M439.3,247.776a4.106,4.106,0,0,1-.457.463c-.046.04-.095.08-.143.118,0,0,.235-.685.394-1.019C439.207,247.41,439.256,247.655,439.3,247.776Z" transform="translate(-438.705 -247.338)" fill="#323657"/>
          </g>
          <g id="Group_785" data-name="Group 785" transform="translate(0 4.579)">
            <path id="Path_3311" data-name="Path 3311" d="M426.017,248.146l-.074-.077a3.858,3.858,0,0,1-.259-.3.466.466,0,0,1,.137-.211h0Z" transform="translate(-425.684 -247.554)" fill="#323657"/>
          </g>
        </g>
      </g>
    </g>
    <g id="Group_803" data-name="Group 803" transform="translate(189.749 96.169)">
      <path id="Path_3312" data-name="Path 3312" d="M357.641,358.162a3.566,3.566,0,0,0-1.263-1.21c-.73-.339-2.226.845-2.357,1.5l-1.734,2.53.328.226.926-1.351c-.63,1.517-1.531,3.333-.9,4.245.849,1.225,2.775,2.464,3.284,2.25s.407-3.777.407-3.777C355.784,359.434,357.641,358.162,357.641,358.162Z" transform="translate(-342.716 -280.082)" fill="#1d3b54"/>
      <g id="Group_789" data-name="Group 789" transform="translate(11.303 76.87)">
        <path id="Path_3313" data-name="Path 3313" d="M359.823,358.237a19.591,19.591,0,0,0-.957,2.159c-.325.943-.386,3.556-.59,3.738s-1.818-.633-2.034-1.61a7.155,7.155,0,0,1,1.062-3.956,6.383,6.383,0,0,1,1.256-1.54A1.622,1.622,0,0,1,359.823,358.237Z" transform="translate(-356.201 -357.027)" fill="#de9673"/>
      </g>
      <path id="Path_3314" data-name="Path 3314" d="M367.065,308.009s-.989,5.245-.989,6.5a11.535,11.535,0,0,1-1.14,4.827c-.8,1.521-4.3,11.908-4.6,13.118s-.565,2.352-.565,2.352-1.748-.8-1.748-1.939,1.521-10.566,1.786-12.429,2.471-11.4,2.471-11.4Z" transform="translate(-345.911 -252.826)" fill="#de9673"/>
      <path id="Path_3315" data-name="Path 3315" d="M357.878,306.969s.342,4.371.3,5.511-.57,3.725-.57,4.41,0,14.86.567,16.57-1.593.534-1.593.534-3.763-9.324-3.763-13.214.456-5.828.19-8.3a30.133,30.133,0,0,0-1.449-5.723Z" transform="translate(-342.313 -252.128)" fill="#eea886"/>
      <path id="Path_3316" data-name="Path 3316" d="M349.578,259.681a13.592,13.592,0,0,0-2.555,5.785c-.532,3.307.63,9.543,1.044,11.347.362,1.583,1.056,6.65,1.094,7.182,0,0,6.8.77,11.971-.864,0,0,.473-7.077.777-10.08s-1.18-13.143-1.18-13.143Z" transform="translate(-339.704 -225.879)" fill="#eb4747"/>
      <path id="Path_3317" data-name="Path 3317" d="M364.811,371.162c-2.436-2.128-1.784-4.312-1.784-4.312a3.612,3.612,0,0,0-1.765-.149c-.791.2-1.215,2.084-.9,2.686l.246,3.1.4-.033-.131-1.653c.47,1.6.917,3.6,2,3.916,1.449.424,3.755.173,4.02-.32S364.811,371.162,364.811,371.162Z" transform="translate(-347.16 -285.517)" fill="#1d3b54"/>
      <path id="Path_3318" data-name="Path 3318" d="M370.19,207.259s-.6,3.588-.082,4.793-2.766-1.409-2.766-1.409S368.706,206.69,370.19,207.259Z" transform="translate(-351.11 -196.619)" fill="#754836"/>
      <path id="Path_3319" data-name="Path 3319" d="M363.324,184.663s-5.276-1.208-5.933,4.43,1.717,6.346.11,10.166,3.923-1.245,3.923-1.245Z" transform="translate(-345.46 -183.99)" fill="#754836"/>
      <path id="Path_3320" data-name="Path 3320" d="M364.214,184.613a4.585,4.585,0,0,1,4.7,4.336,11.212,11.212,0,0,1-.392,1.716c-.256.753.361,3.01.181,3.116a4.954,4.954,0,0,1-.918.226s-.858,2.424-1.716,2.378a7.12,7.12,0,0,1-5.534-3.894C359.086,189.4,358.744,184.724,364.214,184.613Z" transform="translate(-346.804 -184.022)" fill="#eea886"/>
      <g id="Group_791" data-name="Group 791" transform="translate(2.652 42.628)">
        <g id="Group_790" data-name="Group 790">
          <path id="Path_3321" data-name="Path 3321" d="M336.648,282.231s.127-2.17.7-2.506.242.334.242.334-.323,1.574-.394,2.212A3.257,3.257,0,0,1,336.648,282.231Z" transform="translate(-336.648 -279.63)" fill="#1d3b54"/>
        </g>
      </g>
      <g id="Group_793" data-name="Group 793" transform="translate(2.736 38.877)">
        <g id="Group_792" data-name="Group 792">
          <path id="Path_3322" data-name="Path 3322" d="M339.412,272.62a15.94,15.94,0,0,0,.455,1.91c.295.938.566,1.237.448,1.774-.089.406-.548.71-.664.581s-.172-1.707-.825-1.7.2,1.953-.194,1.81-1.886-.963-1.791-1.758.693-1.369.654-2.556a2.558,2.558,0,0,1,.3-1.528Z" transform="translate(-336.836 -271.153)" fill="#eea886"/>
        </g>
      </g>
      <g id="Group_795" data-name="Group 795" transform="translate(4.346 42.834)">
        <g id="Group_794" data-name="Group 794">
          <path id="Path_3323" data-name="Path 3323" d="M340.92,280.1s.87.223.819,3.166l-.985-.165a10.111,10.111,0,0,0-.276-2.513S340.527,280.016,340.92,280.1Z" transform="translate(-340.477 -280.095)" fill="#1d3b54"/>
        </g>
      </g>
      <g id="Group_797" data-name="Group 797" transform="translate(0.73 44.496)">
        <g id="Group_796" data-name="Group 796">
          <path id="Path_3324" data-name="Path 3324" d="M339.975,286.029l-7.672-2.176.022,9.449,7.635,4.576Z" transform="translate(-332.303 -283.853)" fill="#eddad3"/>
        </g>
      </g>
      <g id="Group_798" data-name="Group 798" transform="translate(0 44.496)">
        <path id="Path_3325" data-name="Path 3325" d="M339.041,297.877l-.961.177-7.426-4.618.092-9.541.638-.043Z" transform="translate(-330.653 -283.853)" fill="#eddad3"/>
      </g>
      <path id="Path_3326" data-name="Path 3326" d="M358.462,213.606s2.045.84,2.41,1.1,1.1,3.214,1.278,3.469,1.947,2.449,1.7,4.227a4.583,4.583,0,0,1-1.493,2.684c-.511.548-.985,3.5-1.145,3.935s.349,6.191.349,6.191a12.615,12.615,0,0,1-11.369-1.645,45.148,45.148,0,0,0,1.072-4.546c0-.694-.694-5.587-2.556-8.472s.329-5.953,1.753-6.317,4.163-1.388,4.163-1.388Z" transform="translate(-340.322 -199.761)" fill="#eb4747"/>
      <path id="Path_3327" data-name="Path 3327" d="M345.962,214.984s-3-.185-4.51,1.568-1.424,3.834-1.808,4.738-1.26,4.793-1.452,5.423-.379,4.171-.653,7.019-.219,8.168-.219,8.168l2.874-.521s.116-5.07.189-8.01,2.465-8.134,3.369-10.408S348.256,216.41,345.962,214.984Z" transform="translate(-334.369 -200.954)" fill="#eb4747"/>
      <path id="Path_3328" data-name="Path 3328" d="M374.849,216.674a2.479,2.479,0,0,1,1.951,1.4c.63,1.315.871,2.408,1.035,2.737a44.153,44.153,0,0,1,2.58,5.617c.137.958-.082,2.712-1.287,3.177s-5.532.52-5.532.52,1.1-2.226.082-3.377c0,0,3.141-.567,3.884-.642C378.345,226.026,373.854,217.66,374.849,216.674Z" transform="translate(-354.597 -201.899)" fill="#eb4747"/>
      <g id="Group_799" data-name="Group 799" transform="translate(13.058 15.597)">
        <path id="Path_3329" data-name="Path 3329" d="M360.168,221.427l5.852,13.667,7.3-3.437-5.4-13.124Z" transform="translate(-360.168 -218.533)" fill="#1d3b54"/>
      </g>
      <g id="Group_800" data-name="Group 800" transform="translate(15.28 25.206)">
        <path id="Path_3330" data-name="Path 3330" d="M366.324,240.252s-.792.211-1.043.247.059.5.367.515S366.324,240.252,366.324,240.252Z" transform="translate(-365.189 -240.252)" fill="#eea886"/>
      </g>
      <g id="Group_801" data-name="Group 801" transform="translate(15.28 24.848)">
        <path id="Path_3331" data-name="Path 3331" d="M366.857,243.689a1.678,1.678,0,0,0,.525-.1s.273-.18.475-.295a1.581,1.581,0,0,1,.16-.083,3.067,3.067,0,0,0,.881-.429c.344-.267,1.463-1.333,1.463-1.333l-.74-1.115-.572-.887a14.419,14.419,0,0,0-2.754.278.98.98,0,0,0-.1.066,3.914,3.914,0,0,0-.531.605c-.049.046-.5.542-.476.741a.657.657,0,0,0,.348.534,1.572,1.572,0,0,0,.378.775.974.974,0,0,0,.507.695S366.557,243.633,366.857,243.689Z" transform="translate(-365.19 -239.442)" fill="#eea886"/>
      </g>
      <path id="Path_3332" data-name="Path 3332" d="M373.78,232.472s3.563-.637,4.547-.741a12.292,12.292,0,0,0-.112-2.309,9.012,9.012,0,0,0-1.05-2.481l1.822,1.668a20.784,20.784,0,0,1,1.532,3.542,3.422,3.422,0,0,1-.675,2.757c-.887,1.05-5.071.569-5.071.569A3.686,3.686,0,0,0,373.78,232.472Z" transform="translate(-354.7 -207.624)" fill="#eb4747"/>
      <path id="Path_3333" data-name="Path 3333" d="M366.213,206.333s-.115.34-.25.845c-.069.258-.142.56-.208.88a6.036,6.036,0,0,0-.09,2.63s-1.917.6-3.341-2.121c0,0,.725-2.873-.062-4.649S366.213,206.333,366.213,206.333Z" transform="translate(-348.228 -194.542)" fill="#eea886"/>
      <path id="Path_3334" data-name="Path 3334" d="M368.549,188.205a12.172,12.172,0,0,1-4.426,1.676c-2.187.241-3.4,3.55-3.4,3.55s-3.44-5.356-.67-8.648S369.141,184.04,368.549,188.205Z" transform="translate(-346.442 -183.279)" fill="#754836"/>
      <path id="Path_3335" data-name="Path 3335" d="M366.782,197a.671.671,0,0,0-1.159-.512c-.707.557.165,2.589.737,2.409S366.782,197.437,366.782,197Z" transform="translate(-350.004 -190.524)" fill="#eea886"/>
      <path id="Path_3336" data-name="Path 3336" d="M365.833,213.376s.9,2.662-1.207,2.647-3.027-1.672-3.629-3.143a7.659,7.659,0,0,1,1.424-.541A21.412,21.412,0,0,1,365.833,213.376Z" transform="translate(-347.572 -199.481)" fill="#eea886"/>
      <path id="Path_3337" data-name="Path 3337" d="M342.086,286.561l-.989.128v-.461Z" transform="translate(-336.476 -240.681)" fill="#1d3b54"/>
      <path id="Path_3338" data-name="Path 3338" d="M337.219,285.235l-.546.065s0-.165,0-.219S337.2,285.2,337.219,285.235Z" transform="translate(-334.009 -240.036)" fill="#1d3b54"/>
      <g id="Group_802" data-name="Group 802" transform="translate(13.993 80.996)">
        <path id="Path_3339" data-name="Path 3339" d="M364.156,366.689a19.969,19.969,0,0,0,.622,2.31c.345.95,1.961,3.046,1.916,3.319a2.594,2.594,0,0,1-2.627.028,7.247,7.247,0,0,1-1.684-3.793,8.956,8.956,0,0,1-.077-1.983A1.767,1.767,0,0,1,364.156,366.689Z" transform="translate(-362.283 -366.352)" fill="#eea886"/>
      </g>
      <path id="Path_3340" data-name="Path 3340" d="M367.582,208.434c-.069.258-.17.569-.25.877a9.139,9.139,0,0,1-2.561-2.558A10.794,10.794,0,0,0,367.582,208.434Z" transform="translate(-349.677 -196.368)" fill="#a77860"/>
    </g>
    <rect id="Rectangle_343" data-name="Rectangle 343" width="26.426" height="14.269" rx="6.805" transform="translate(124.411 57.019)" fill="#dfe1e8"/>
    <g id="Group_805" data-name="Group 805" transform="translate(110.808 128.668)">
      <g id="Group_804" data-name="Group 804" transform="translate(0)">
        <path id="Path_3341" data-name="Path 3341" d="M152.229,256.736h-.006C152.25,256.748,152.254,256.749,152.229,256.736Z" transform="translate(-152.223 -256.736)" fill="#323657"/>
      </g>
    </g>
    <g id="Group_808" data-name="Group 808" transform="translate(97.26 123.825)">
      <g id="Group_807" data-name="Group 807" transform="translate(0 0)">
        <g id="Group_806" data-name="Group 806">
          <rect id="Rectangle_344" data-name="Rectangle 344" width="21.489" height="2.568" rx="1.284" transform="translate(21.489 2.568) rotate(180)" fill="#63a581"/>
        </g>
      </g>
    </g>
    <g id="Group_811" data-name="Group 811" transform="translate(97.26 128.457)">
      <g id="Group_810" data-name="Group 810" transform="translate(0 0)">
        <g id="Group_809" data-name="Group 809">
          <rect id="Rectangle_345" data-name="Rectangle 345" width="21.489" height="2.568" rx="1.284" transform="translate(21.489 2.568) rotate(180)" fill="#63a581"/>
        </g>
      </g>
    </g>
    <g id="Group_814" data-name="Group 814" transform="translate(97.26 133.088)">
      <g id="Group_813" data-name="Group 813" transform="translate(0 0)">
        <g id="Group_812" data-name="Group 812">
          <path id="Rectangle_346" data-name="Rectangle 346" d="M1.284,0H20.2a1.284,1.284,0,0,1,1.284,1.284v0a1.283,1.283,0,0,1-1.283,1.283H1.284A1.284,1.284,0,0,1,0,1.284v0A1.284,1.284,0,0,1,1.284,0Z" transform="translate(21.489 2.568) rotate(180)" fill="#63a581"/>
        </g>
      </g>
    </g>
    <path id="Rectangle_347" data-name="Rectangle 347" d="M4.145,0h.041A4.144,4.144,0,0,1,8.329,4.144v9.792A4.144,4.144,0,0,1,4.185,18.08h-.04A4.144,4.144,0,0,1,0,13.935V4.145A4.145,4.145,0,0,1,4.145,0Z" transform="translate(124.581 95.843)" fill="#63a581"/>
    <g id="Group_847" data-name="Group 847" transform="translate(77.947 106.605)">
      <g id="Group_817" data-name="Group 817" transform="translate(0.025 39.301)">
        <g id="Group_816" data-name="Group 816">
          <g id="Group_815" data-name="Group 815">
            <path id="Path_3342" data-name="Path 3342" d="M80.978,296.078a2.767,2.767,0,0,1,.36.952,4.567,4.567,0,0,0,.44,1.125,10.773,10.773,0,0,1,.534,1.875,8.638,8.638,0,0,0-.252,1.255c.042.272.2.809-.046.845s-.52-.4-.52-.4a.358.358,0,0,1-.183.345.6.6,0,0,1-.613.022s-.148.275-.334.312a.756.756,0,0,1-.61-.083.741.741,0,0,1-.464.149.608.608,0,0,1-.514-.32s-.458.093-.591-.121a2.056,2.056,0,0,1-.165-.636,7.4,7.4,0,0,1,.581-3.2,2.84,2.84,0,0,0-.151-2.489Z" transform="translate(-78.003 -295.7)" fill="#eea886"/>
          </g>
        </g>
      </g>
      <g id="Group_819" data-name="Group 819" transform="translate(0 42.848)">
        <g id="Group_818" data-name="Group 818">
          <path id="Path_3343" data-name="Path 3343" d="M81.528,306.029s.041-1.57-.373-1.9-.46.232-.46.232.056-.561-.4-.636-.471.59-.471.59a.437.437,0,0,0-.548-.343c-.474.088-.361.64-.361.64s-.453-.541-.747-.022a2.314,2.314,0,0,0-.018,1.912s.14.237.591.121a.624.624,0,0,0,.978.171s.692.38.944-.23A.572.572,0,0,0,81.528,306.029Z" transform="translate(-77.947 -303.715)" fill="#db9c7c"/>
        </g>
      </g>
      <path id="Path_3344" data-name="Path 3344" d="M86.4,240.806s-2.688,8.959-3.6,12.263c-.284,1.036-.974,10.933-1.1,11.332s-3.531.945-3.531.945.413-12.382.452-13.057,3.762-14.5,4.845-15c.811-.369,1.24-.064,2.262.7A2.393,2.393,0,0,1,86.4,240.806Z" transform="translate(-78.078 -223.745)" fill="#323657"/>
      <g id="Group_820" data-name="Group 820" transform="translate(34.539 0.486)">
        <rect id="Rectangle_348" data-name="Rectangle 348" width="7.353" height="0.546" transform="translate(0 4.025) rotate(-33.188)" fill="#4da8f2"/>
      </g>
      <path id="Path_3345" data-name="Path 3345" d="M166.379,210.83a1.608,1.608,0,0,1-.159.488s-.2.24-.334.419a1.534,1.534,0,0,0-.1.143,2.952,2.952,0,0,1-.508.79c-.293.3-1.434,1.242-1.434,1.242l-.978-.83-1.015-.455a19.142,19.142,0,0,1,.81-2.779.914.914,0,0,1,.073-.084,3.7,3.7,0,0,1,.636-.438c.05-.041.572-.418.758-.369a.628.628,0,0,1,.469.392,1.5,1.5,0,0,1,.7.447.935.935,0,0,1,.6.561S166.358,210.539,166.379,210.83Z" transform="translate(-124.732 -208.03)" fill="#efaa88"/>
      <g id="Group_822" data-name="Group 822" transform="translate(2.926 78.008)">
        <g id="Group_821" data-name="Group 821">
          <path id="Path_3346" data-name="Path 3346" d="M87.78,383.409s-.245,1.7-.276,1.956-2.726-.151-2.726-.151l-.218-2.025A15.983,15.983,0,0,1,87.78,383.409Z" transform="translate(-84.561 -383.189)" fill="#424773"/>
        </g>
      </g>
      <g id="Group_824" data-name="Group 824" transform="translate(2.505 79.853)">
        <g id="Group_823" data-name="Group 823">
          <path id="Path_3347" data-name="Path 3347" d="M87,387.473a7.261,7.261,0,0,0,1.679,1.471c.826.446,2.124.623,2.612,1.086.353.334,1.284,1.771-2.146,1.742s-5.083.2-5.451-.348.532-4.066.532-4.066A7.26,7.26,0,0,0,87,387.473Z" transform="translate(-83.608 -387.358)" fill="#292c47"/>
        </g>
      </g>
      <g id="Group_826" data-name="Group 826" transform="translate(22.236 78.008)">
        <g id="Group_825" data-name="Group 825">
          <path id="Path_3348" data-name="Path 3348" d="M131.426,383.409s-.245,1.7-.276,1.956-2.726-.151-2.726-.151l-.218-2.025A15.981,15.981,0,0,1,131.426,383.409Z" transform="translate(-128.207 -383.189)" fill="#424773"/>
        </g>
      </g>
      <g id="Group_828" data-name="Group 828" transform="translate(21.815 79.853)">
        <g id="Group_827" data-name="Group 827">
          <path id="Path_3349" data-name="Path 3349" d="M130.649,387.473a7.267,7.267,0,0,0,1.68,1.471c.826.446,3.865.814,4.353,1.276.353.334.939,1.677-3.887,1.552-3.429-.089-5.084.2-5.451-.348s.531-4.066.531-4.066A6.588,6.588,0,0,0,130.649,387.473Z" transform="translate(-127.255 -387.358)" fill="#292c47"/>
        </g>
      </g>
      <g id="Group_830" data-name="Group 830" transform="translate(2.505 34.528)">
        <g id="Group_829" data-name="Group 829">
          <path id="Path_3350" data-name="Path 3350" d="M89.481,284.911s-2.532,4.023-2.343,7.66-.918,7.607-1.3,11.406c-.424,4.235-2.159,14.262-2.223,16.527s.269,9.5.269,9.5l3.474.079s2.918-17.529,3.673-19.317,4.5-14.54,4.629-15.971S89.481,284.911,89.481,284.911Z" transform="translate(-83.608 -284.911)" fill="#292c47"/>
        </g>
      </g>
      <g id="Group_832" data-name="Group 832" transform="translate(7.103 33.835)">
        <g id="Group_831" data-name="Group 831">
          <path id="Path_3351" data-name="Path 3351" d="M108.606,284.583s1.908,9.968,2.16,12.193.42,10.772.546,12.163,1.176,18.163,1.511,20.272h-4.441s-3.409-12.222-3.409-18.006-2.634-12.572-4.334-16.388S95.046,290.911,94,283.831C94,283.831,107.191,282.337,108.606,284.583Z" transform="translate(-94.001 -283.344)" fill="#292c47"/>
        </g>
      </g>
      <g id="Group_834" data-name="Group 834" transform="translate(10.476 0.392)">
        <g id="Group_833" data-name="Group 833">
          <path id="Path_3352" data-name="Path 3352" d="M103.752,208.064s3.4-1.269,4.966,1.318,1.416,7.767-.3,8.4-4.287.3-5.164-1.315a12.968,12.968,0,0,1-1.631-5.524A3.408,3.408,0,0,1,103.752,208.064Z" transform="translate(-101.625 -207.752)" fill="#eea886"/>
        </g>
      </g>
      <g id="Group_836" data-name="Group 836" transform="translate(11.444 7.317)">
        <g id="Group_835" data-name="Group 835">
          <path id="Path_3353" data-name="Path 3353" d="M109.272,226.632a2.94,2.94,0,0,0,.092,1.37c.234.452-4.4.464-4.4.464a30.574,30.574,0,0,0-1.09-4.537C103.157,221.852,109.272,226.632,109.272,226.632Z" transform="translate(-103.813 -223.406)" fill="#eea886"/>
        </g>
      </g>
      <g id="Group_838" data-name="Group 838" transform="translate(10.193)">
        <g id="Group_837" data-name="Group 837">
          <path id="Path_3354" data-name="Path 3354" d="M102.295,214.707s.32.528,1.627.323,2.9-1.943,3.446-2.134.551-.511.551-.511l.342.5.579.037s-.528-1.555.269-2.189-.827-5.033-5.017-3.569c0,0-3.218.887-3.1,2.717A10.168,10.168,0,0,0,102.295,214.707Z" transform="translate(-100.986 -206.867)" fill="#d88a51"/>
        </g>
      </g>
      <g id="Group_840" data-name="Group 840" transform="translate(12.062 10.588)">
        <g id="Group_839" data-name="Group 839">
          <path id="Path_3355" data-name="Path 3355" d="M110.42,232.07s-.014-.864-.406-.947a28.006,28.006,0,0,0-4.8-.272v1.006S106.138,232.428,110.42,232.07Z" transform="translate(-105.212 -230.799)" fill="#e2d2ca"/>
        </g>
      </g>
      <g id="Group_842" data-name="Group 842" transform="translate(15.817 4.186)">
        <g id="Group_841" data-name="Group 841">
          <path id="Path_3356" data-name="Path 3356" d="M114.919,217c-.073-.307-.854-1.184-1.153-.245s.452,2.2.87,2.094S115.1,217.773,114.919,217Z" transform="translate(-113.697 -216.328)" fill="#eea886"/>
        </g>
      </g>
      <g id="Group_844" data-name="Group 844" transform="translate(4.73 4.185)">
        <g id="Group_843" data-name="Group 843">
          <path id="Path_3357" data-name="Path 3357" d="M107.679,225.307c-2.695-.355-6.5-1.308-6.5-1.308l-5.208-.212a50.662,50.662,0,0,0-6.662,1.9c-.179.081-.179,4.264-.669,5.361l1.561,3.293s.9,6.523,1.089,9.424c.086,1.331-1.859,12.486-1.859,12.486a35.968,35.968,0,0,0,5.639,1.006c3.554.392,12.436-.142,12.492-.561s-1.72-15.633-1.8-16.421c-.121-1.209.417-7.634.417-7.634.821-.637,8.026-3.981,9.992-5.724.526-.467,2.747-2.629,3.378-3.375a60.65,60.65,0,0,0,4.29-5.4c.253-.278-2.428-1.736-2.672-1.817-.213-.071-3.235,3.844-4.4,5.1a32.573,32.573,0,0,1-2.674,2.13S109.365,225.4,107.679,225.307Z" transform="translate(-88.639 -216.326)" fill="#323657"/>
        </g>
      </g>
      <g id="Group_846" data-name="Group 846" transform="translate(9.668 1.008)">
        <g id="Group_845" data-name="Group 845">
          <path id="Path_3358" data-name="Path 3358" d="M101.767,209.146s-4.334.339-.133,6.832Z" transform="translate(-99.801 -209.146)" fill="#d88a51"/>
        </g>
      </g>
      <path id="Path_3359" data-name="Path 3359" d="M170.222,208.312l.356-.542-.655.086Z" transform="translate(-129.231 -207.37)" fill="#dfe1e8"/>
    </g>
  </g>
</svg>
