<svg xmlns="http://www.w3.org/2000/svg" xmlns:xlink="http://www.w3.org/1999/xlink" width="223.138" height="118.276" viewBox="0 0 223.138 118.276">
  <defs>
    <linearGradient id="linear-gradient" y1="0.5" x2="1" y2="0.5" gradientUnits="objectBoundingBox">
      <stop offset="0.005" stop-color="#00803d"/>
      <stop offset="1" stop-color="#00c23d"/>
    </linearGradient>
  </defs>
  <g id="img-phongthinghiem" transform="translate(-291.902 -231.456)">
    <path id="Path_2826" data-name="Path 2826" d="M523.478,366.655c9.6-8.912,24.15-19.974,53.935-15.65,19.666,2.855,63.889,11.844,85.829,23.831s27.138,32.217,13.945,54.445-32.954,30.059-32.954,30.059H516.289s-38.953,10.151-37.9-27.9C479.117,405.291,512.5,376.846,523.478,366.655Z" transform="translate(-174.288 -110.836)" fill="#d7e5dd" opacity="0.5"/>
    <path id="Path_2827" data-name="Path 2827" d="M303.328,296.753c-18.246,4.3-16.255-59.233,17.795-64.519,22.906-3.556,42.516,6.079,36.978,8.812C322.29,258.716,308.087,295.633,303.328,296.753Z" transform="translate(0 0)" fill="#d7e5dd" opacity="0.5"/>
    <g id="Group_404" data-name="Group 404" transform="translate(298.119 255.89)">
      <g id="Group_399" data-name="Group 399" transform="translate(0 0)">
        <path id="Path_2828" data-name="Path 2828" d="M449.65,638.454H387.235a.163.163,0,0,1-.163-.163V605.705a.163.163,0,0,1,.163-.163H449.65a.163.163,0,0,1,.163.163V638.29A.163.163,0,0,1,449.65,638.454Zm-62.251-.327h62.088V605.869H387.4Z" transform="translate(-387.072 -605.542)" fill="#bcd8c7"/>
      </g>
      <g id="Group_400" data-name="Group 400" transform="translate(0 21.723)">
        <path id="Path_2829" data-name="Path 2829" d="M449.65,938.45H387.235a.163.163,0,0,1,0-.327H449.65a.163.163,0,0,1,0,.327Z" transform="translate(-387.072 -938.123)" fill="#bcd8c7"/>
      </g>
      <g id="Group_401" data-name="Group 401" transform="translate(0 10.862)">
        <path id="Path_2830" data-name="Path 2830" d="M449.65,772.159H387.235a.163.163,0,1,1,0-.327H449.65a.163.163,0,1,1,0,.327Z" transform="translate(-387.072 -771.832)" fill="#bcd8c7"/>
      </g>
      <g id="Group_402" data-name="Group 402" transform="translate(41.61 0)">
        <path id="Path_2831" data-name="Path 2831" d="M1024.272,638.454a.163.163,0,0,1-.163-.163V605.705a.163.163,0,0,1,.327,0V638.29A.163.163,0,0,1,1024.272,638.454Z" transform="translate(-1024.109 -605.542)" fill="#bcd8c7"/>
      </g>
      <g id="Group_403" data-name="Group 403" transform="translate(20.805 0)">
        <path id="Path_2832" data-name="Path 2832" d="M705.753,638.454a.163.163,0,0,1-.163-.163V605.705a.163.163,0,1,1,.327,0V638.29A.163.163,0,0,1,705.753,638.454Z" transform="translate(-705.59 -605.542)" fill="#bcd8c7"/>
      </g>
    </g>
    <g id="Group_426" data-name="Group 426" transform="translate(297.045 255.819)">
      <path id="Path_2833" data-name="Path 2833" d="M1118.592,1239.594l-27.327,8.349-28.888,20.649-3.474,22.2s11.369.022,27.276.028c34.467.013,90.243-.047,97.847-.56-12.238-16.289-32.467-44.764-32.467-44.764l-20.979-4.653Z" transform="translate(-1013.947 -1198.108)" fill="#fff"/>
      <path id="Path_2834" data-name="Path 2834" d="M1457.563,1925.834s-7.462,4.752-12.006,5.842,13.579.5,13.579.5Z" transform="translate(-1374.662 -1839.524)" fill="#d7e5dd" opacity="0.5"/>
      <path id="Path_2835" data-name="Path 2835" d="M1811.548,1283.358l.416,10.185,9.623,4.833-4.13,6.276,16.664,25.762h1.264l10.639-29.129-2.617-4.648,4.619-4.02-4.653-9.162-30.571-.48Z" transform="translate(-1717.431 -1238.655)" fill="#d7e5dd" opacity="0.5"/>
      <path id="Path_2836" data-name="Path 2836" d="M1843.648,1148.621l-12.165,8.776,3.265,12.061,8.243,1.311s-3.923,5.432-3.367,6.182,14.676,24.781,14.676,24.781l9.135-26.556-3.822-5.109s5.927-2.732,5.74-3.481-3.3-8.71-3.3-8.71l-8.129-6.161Z" transform="translate(-1736.064 -1113.077)" fill="#fff"/>
      <path id="Path_2837" data-name="Path 2837" d="M2009.729,677.232s-9.552.375-12.737,4.87.375,10.747-1.5,14.364.014,9.416,1.422,9.78S2009.729,677.232,2009.729,677.232Z" transform="translate(-1888.628 -672.477)" fill="#303c60"/>
      <path id="Path_2838" data-name="Path 2838" d="M1970.319,952.8l-9.053,21.391,12.98,26.34,3.83-25.071-1.576-2.1,5.744-18.8Z" transform="translate(-1857.37 -930.044)" fill="#f09959"/>
      <path id="Path_2839" data-name="Path 2839" d="M2404.06,1523.085c.125,13.861-5,32.467-5,32.467s1.624.711,1.873,0,1.623,0,1.623,0,1.5-9.174,1.873-16.075A151.74,151.74,0,0,0,2404.06,1523.085Z" transform="translate(-2266.573 -1463.082)" fill="#9bd6e8" opacity="0.5"/>
      <path id="Path_2840" data-name="Path 2840" d="M1119.344,1394.994c2.265-2.073,14.423-11.153,17.815-16.519.711-1.125.13-3.126,0-3.71,7.659-1.275,9.15-4.251,9.15-4.251l-7.651-9.721s-10.3,2.508-18.606,5.463c-4.433,1.577-12.846,5.654-19.731,9.114l-8.1,6.5-1.389,8.873a16.737,16.737,0,0,0,.658,3.16c.429.494.9,9.564.926,10.138l.254,0C1094.8,1403.781,1108.23,1405.163,1119.344,1394.994Z" transform="translate(-1043.794 -1311.389)" fill="#d7e5dd" opacity="0.5"/>
      <path id="Path_2841" data-name="Path 2841" d="M1826.331,1318.67c2.824-.879,5.014-.585,4.083.839a11.245,11.245,0,0,1-1.3,1.449l-6.134-.924Z" transform="translate(-1728.116 -1271.555)" fill="#b6d3c2"/>
      <path id="Path_2842" data-name="Path 2842" d="M1864.585,1321.035l-.373,1.009-45.495-15.99.906-2.451Z" transform="translate(-1724.131 -1257.935)" fill="#fff"/>
      <g id="Group_405" data-name="Group 405" transform="translate(94.417 45.498)">
        <path id="Path_2843" data-name="Path 2843" d="M1861.878,1319.78l-.121-.043-45.62-16.034,1-2.7.124.048,45.082,17.479Zm-45.4-16.235,45.248,15.9.284-.768-44.718-17.338Z" transform="translate(-1816.137 -1301.003)" fill="#2e5b9a"/>
      </g>
      <path id="Path_2844" data-name="Path 2844" d="M2782.788,1738.407c11.312-2.842,19.141-.655,23.886,9.2,1.762,3.66,2.706,7.794,1.478,7.6s-19.335.2-19.335.2Z" transform="translate(-2625.232 -1663.264)" fill="#fff"/>
      <path id="Path_2845" data-name="Path 2845" d="M1738.657,1264.722c-.461,1.553-2.863,2.211-5.364,1.467s-4.155-2.6-3.693-4.158,2.863-2.211,5.364-1.468S1739.118,1263.169,1738.657,1264.722Z" transform="translate(-1640.762 -1217.422)" fill="#f39892"/>
      <path id="Path_2846" data-name="Path 2846" d="M1549.451,1348.726c-.592-1.113-6.874-3.6-5.821-3.24s4.409,1.509,3.352.271-9.129-6.715-11.7-6.786c-2.407-.066-5.779-.488-7.474.814a30.942,30.942,0,0,1-7.871,4.489s-2.52.972-2.632.992c-5.334.94-8.177,20.107-8.177,20.107.677-.015,12.32-9.265,17.857-13.65,1.1.383,4.567.213,7.305-1.21a36.505,36.505,0,0,0,3.588-2.295s3.741,1.079,4.829,1.371C1545.631,1350.373,1550.043,1349.84,1549.451,1348.726Z" transform="translate(-1434.765 -1290.884)" fill="#75aa8b"/>
      <path id="Path_2847" data-name="Path 2847" d="M1030.151,1432.508c-4.707,5.638-5.776,19.735-.779,20.416,11.726,1.6,45.372-26.14,45.372-26.14l-5.457-13.087S1036.863,1424.469,1030.151,1432.508Z" transform="translate(-983.277 -1360.839)" fill="#fff"/>
      <path id="Path_2848" data-name="Path 2848" d="M583.892,2011.275H371.639a1.007,1.007,0,1,1,0-2.015H583.892a1.007,1.007,0,1,1,0,2.015Z" transform="translate(-370.631 -1917.501)" fill="url(#linear-gradient)"/>
      <g id="Group_406" data-name="Group 406" transform="translate(133.971 61.082)">
        <path id="Path_2849" data-name="Path 2849" d="M2427.4,1542.21a.327.327,0,0,1-.112-.02l-5.375-1.967a.327.327,0,0,1,.225-.613l5.375,1.967a.327.327,0,0,1-.112.633Z" transform="translate(-2421.697 -1539.59)" fill="#9ec8ff"/>
      </g>
      <g id="Group_407" data-name="Group 407" transform="translate(131.756 60.271)">
        <path id="Path_2850" data-name="Path 2850" d="M2389.438,1528.32a.322.322,0,0,1-.112-.02l-1.316-.481a.327.327,0,0,1,.225-.613l1.316.482a.327.327,0,0,1-.112.633Z" transform="translate(-2387.796 -1527.186)" fill="#9ec8ff"/>
      </g>
      <g id="Group_408" data-name="Group 408" transform="translate(119.654 55.843)">
        <path id="Path_2851" data-name="Path 2851" d="M2213.974,1464.118a.327.327,0,0,1-.112-.02l-11.141-4.076a.327.327,0,0,1,.224-.613l11.141,4.076a.327.327,0,0,1-.112.633Z" transform="translate(-2202.507 -1459.388)" fill="#9ec8ff"/>
      </g>
      <g id="Group_409" data-name="Group 409" transform="translate(114.594 53.992)">
        <path id="Path_2852" data-name="Path 2852" d="M2128.4,1432.808a.323.323,0,0,1-.112-.02l-3.033-1.11a.327.327,0,1,1,.224-.613l3.032,1.11a.327.327,0,0,1-.112.633Z" transform="translate(-2125.043 -1431.045)" fill="#9ec8ff"/>
      </g>
      <g id="Group_410" data-name="Group 410" transform="translate(110.604 52.532)">
        <path id="Path_2853" data-name="Path 2853" d="M2066.861,1410.29a.328.328,0,0,1-.112-.02l-2.571-.941a.327.327,0,1,1,.224-.613l2.572.941a.327.327,0,0,1-.112.633Z" transform="translate(-2063.963 -1408.696)" fill="#9ec8ff"/>
      </g>
      <g id="Group_411" data-name="Group 411" transform="translate(131.663 65.867)">
        <path id="Path_2854" data-name="Path 2854" d="M2390.416,1637.752a2.053,2.053,0,0,1-2.053-2.053v-20.848h4.106V1635.7A2.053,2.053,0,0,1,2390.416,1637.752Z" transform="translate(-2388.233 -1614.72)" fill="#fff"/>
        <path id="Path_2855" data-name="Path 2855" d="M2388.547,1636.013a2.186,2.186,0,0,1-2.184-2.184v-20.979h4.367v20.979A2.186,2.186,0,0,1,2388.547,1636.013Zm-1.923-22.9v20.717a1.922,1.922,0,1,0,3.845,0v-20.717Z" transform="translate(-2386.363 -1612.851)" fill="#2e5b9a"/>
      </g>
      <g id="Group_412" data-name="Group 412" transform="translate(138.27 65.867)">
        <path id="Path_2856" data-name="Path 2856" d="M2491.564,1637.752a2.053,2.053,0,0,1-2.053-2.053v-20.848h4.106V1635.7A2.053,2.053,0,0,1,2491.564,1637.752Z" transform="translate(-2489.38 -1614.72)" fill="#fff"/>
        <path id="Path_2857" data-name="Path 2857" d="M2489.695,1636.013a2.186,2.186,0,0,1-2.184-2.184v-20.979h4.367v20.979A2.186,2.186,0,0,1,2489.695,1636.013Zm-1.922-22.9v20.717a1.922,1.922,0,1,0,3.845,0v-20.717Z" transform="translate(-2487.511 -1612.851)" fill="#2e5b9a"/>
      </g>
      <g id="Group_413" data-name="Group 413" transform="translate(145.149 65.867)">
        <path id="Path_2858" data-name="Path 2858" d="M2596.889,1637.752a2.053,2.053,0,0,1-2.053-2.053v-20.848h4.106V1635.7A2.053,2.053,0,0,1,2596.889,1637.752Z" transform="translate(-2594.705 -1614.72)" fill="#fff"/>
        <path id="Path_2859" data-name="Path 2859" d="M2595.02,1636.013a2.186,2.186,0,0,1-2.184-2.184v-20.979h4.367v20.979A2.186,2.186,0,0,1,2595.02,1636.013Zm-1.923-22.9v20.717a1.922,1.922,0,1,0,3.845,0v-20.717Z" transform="translate(-2592.836 -1612.851)" fill="#2e5b9a"/>
      </g>
      <path id="Path_2860" data-name="Path 2860" d="M2605.439,1718.429a1.456,1.456,0,0,1-1.456-1.456v-14.781h2.911v14.781A1.456,1.456,0,0,1,2605.439,1718.429Z" transform="translate(-2458.106 -1630.491)" fill="#9ec8ff"/>
      <path id="Path_2861" data-name="Path 2861" d="M2500.114,1805.655a1.456,1.456,0,0,1-1.455-1.456v-8.685h2.911v8.685A1.456,1.456,0,0,1,2500.114,1805.655Z" transform="translate(-2359.66 -1717.716)" fill="#9ec8ff"/>
      <g id="Group_414" data-name="Group 414" transform="translate(151.756 65.867)">
        <path id="Path_2862" data-name="Path 2862" d="M2698.036,1637.752a2.053,2.053,0,0,1-2.053-2.053v-20.848h4.106V1635.7A2.053,2.053,0,0,1,2698.036,1637.752Z" transform="translate(-2695.852 -1614.72)" fill="#fff"/>
        <path id="Path_2863" data-name="Path 2863" d="M2696.167,1636.013a2.186,2.186,0,0,1-2.184-2.184v-20.979h4.367v20.979A2.186,2.186,0,0,1,2696.167,1636.013Zm-1.923-22.9v20.717a1.923,1.923,0,0,0,3.845,0v-20.717Z" transform="translate(-2693.983 -1612.851)" fill="#2e5b9a"/>
      </g>
      <path id="Path_2864" data-name="Path 2864" d="M2707.171,1696.831a1.415,1.415,0,0,1-1.415-1.415v-16.343h2.829v16.343A1.415,1.415,0,0,1,2707.171,1696.831Z" transform="translate(-2553.231 -1608.881)" fill="#9ec8ff"/>
      <path id="Path_2865" data-name="Path 2865" d="M2514.254,1675.481l.163,3.553a.49.49,0,1,1-.979.045c0-.015,0-.03,0-.045l.163-3.553a.327.327,0,0,1,.653,0Z" transform="translate(-2373.474 -1605.231)" fill="#9ec8ff"/>
      <path id="Path_2866" data-name="Path 2866" d="M2514.569,1585.5l.141,3.666a.468.468,0,1,1-.936.036c0-.012,0-.025,0-.036l.142-3.666a.327.327,0,0,1,.653,0Z" transform="translate(-2373.789 -1521.126)" fill="#9ec8ff"/>
      <path id="Rectangle_187" data-name="Rectangle 187" d="M1.08,0H32.136a1.08,1.08,0,0,1,1.08,1.08v0a1.08,1.08,0,0,1-1.08,1.08H1.08A1.08,1.08,0,0,1,0,1.08v0A1.08,1.08,0,0,1,1.08,0Z" transform="translate(127.373 79.821)" fill="#f5dc95"/>
      <path id="Rectangle_188" data-name="Rectangle 188" d="M1.08,0H32.136a1.08,1.08,0,0,1,1.08,1.08v0a1.08,1.08,0,0,1-1.08,1.08H1.08A1.08,1.08,0,0,1,0,1.08v0A1.08,1.08,0,0,1,1.08,0Z" transform="translate(127.373 89.599)" fill="#f5dc95"/>
      <path id="Rectangle_189" data-name="Rectangle 189" d="M1.074,0h0A1.073,1.073,0,0,1,2.147,1.073V8.7A1.074,1.074,0,0,1,1.074,9.778h0A1.074,1.074,0,0,1,0,8.7V1.074A1.074,1.074,0,0,1,1.074,0Z" transform="translate(128.219 80.901)" fill="#f5dc95"/>
      <rect id="Rectangle_190" data-name="Rectangle 190" width="1.974" height="9.778" rx="0.987" transform="translate(157.779 80.901)" fill="#f5dc95"/>
      <path id="Path_2867" data-name="Path 2867" d="M2100.266,1173.474c3.039,11.474,9.666,11.347,12.575,11.347a8.289,8.289,0,0,0,5.525-2.577l-5.081-1.127,0-.012-8.129-6.161Z" transform="translate(-1987.29 -1136.307)" fill="#b6d3c2"/>
      <path id="Path_2868" data-name="Path 2868" d="M2078.892,952.8l-1.466,3.464c.652,14.813,4.839,20.629,8.75,22.3l.474-3.1-1.576-2.1,5.744-18.8Z" transform="translate(-1965.942 -930.044)" fill="#e38540"/>
      <path id="Path_2869" data-name="Path 2869" d="M2445.354,824.737c-4.027,6.743-5.317,8.349-9.682,8.67s.375-11.387.375-11.387Z" transform="translate(-2299.062 -807.809)" fill="#303c60"/>
      <ellipse id="Ellipse_23" data-name="Ellipse 23" cx="16.371" cy="12.843" rx="16.371" ry="12.843" transform="matrix(0.151, -0.988, 0.988, 0.151, 112.15, 37.774)" fill="#f09959"/>
      <g id="Group_416" data-name="Group 416" transform="translate(185.813 41.439)">
        <g id="Group_415" data-name="Group 415" transform="translate(3.617 8.675)">
          <path id="Path_2870" data-name="Path 2870" d="M3276.047,1409.273a3.278,3.278,0,0,1-3.278-3.278v-32.311h6.556v32.311A3.278,3.278,0,0,1,3276.047,1409.273Z" transform="translate(-3272.638 -1373.552)" fill="#fff"/>
          <path id="Path_2871" data-name="Path 2871" d="M3274.177,1407.534a3.413,3.413,0,0,1-3.409-3.409v-32.442h6.818v32.442A3.413,3.413,0,0,1,3274.177,1407.534Zm-3.148-35.589v32.181a3.148,3.148,0,1,0,6.3,0v-32.181Z" transform="translate(-3270.768 -1371.683)" fill="#2e5b9a"/>
        </g>
        <path id="Path_2872" data-name="Path 2872" d="M3289.472,1581.6a2.34,2.34,0,0,1-2.34-2.34v-19.612h4.68v19.612A2.34,2.34,0,0,1,3289.472,1581.6Z" transform="translate(-3282.447 -1538.694)" fill="#a2dff2"/>
        <path id="Path_2873" data-name="Path 2873" d="M3227.93,1746.758h-11.58a.953.953,0,1,1,0-1.906h11.58a.953.953,0,1,1,0,1.906Z" transform="translate(-3215.397 -1711.802)" fill="#f5dc95"/>
        <path id="Rectangle_191" data-name="Rectangle 191" d="M1.847,0H11.64a1.847,1.847,0,0,1,1.847,1.847v0A1.847,1.847,0,0,1,11.64,3.693H1.847A1.847,1.847,0,0,1,0,1.847v0A1.847,1.847,0,0,1,1.847,0Z" transform="translate(0 46.5)" fill="#f5dc95"/>
        <rect id="Rectangle_192" data-name="Rectangle 192" width="1.748" height="14.157" transform="translate(1.249 34.003)" fill="#f5dc95"/>
        <rect id="Rectangle_193" data-name="Rectangle 193" width="1.748" height="14.157" transform="translate(10.989 34.003)" fill="#f5dc95"/>
        <path id="Path_2874" data-name="Path 2874" d="M3324.955,1490.28a.89.89,0,1,1-.89-.89A.89.89,0,0,1,3324.955,1490.28Z" transform="translate(-3316.135 -1473.026)" fill="#a2dff2"/>
        <circle id="Ellipse_24" data-name="Ellipse 24" cx="0.437" cy="0.437" r="0.437" transform="translate(5.401 12.695)" fill="#a2dff2"/>
        <path id="Path_2875" data-name="Path 2875" d="M3317,1388.282a1.093,1.093,0,1,1-1.093-1.093A1.093,1.093,0,0,1,3317,1388.282Z" transform="translate(-3308.317 -1377.501)" fill="#a2dff2"/>
        <path id="Path_2876" data-name="Path 2876" d="M3307.539,1336.515a.546.546,0,1,1-.546-.546A.546.546,0,0,1,3307.539,1336.515Z" transform="translate(-3300.499 -1329.626)" fill="#fff"/>
        <path id="Path_2877" data-name="Path 2877" d="M3342.035,1466.677a.468.468,0,1,1-.468-.468A.468.468,0,0,1,3342.035,1466.677Z" transform="translate(-3332.888 -1451.359)" fill="#a2dff2"/>
        <circle id="Ellipse_25" data-name="Ellipse 25" cx="0.905" cy="0.905" r="0.905" transform="translate(4.558 23.278) rotate(-45)" fill="#fff"/>
        <path id="Path_2878" data-name="Path 2878" d="M3331.187,1615.511a.421.421,0,1,1-.421-.421A.421.421,0,0,1,3331.187,1615.511Z" transform="translate(-3322.836 -1590.516)" fill="#fff"/>
        <path id="Path_2879" data-name="Path 2879" d="M3314.688,1704.762a.3.3,0,1,1-.3-.3A.3.3,0,0,1,3314.688,1704.762Z" transform="translate(-3307.648 -1674.053)" fill="#fff"/>
        <path id="Path_2880" data-name="Path 2880" d="M3319.126,1792.533a.843.843,0,1,1-.843-.843A.843.843,0,0,1,3319.126,1792.533Z" transform="translate(-3310.775 -1755.581)" fill="#fff"/>
        <circle id="Ellipse_26" data-name="Ellipse 26" cx="0.579" cy="0.579" r="0.579" transform="translate(5.868 38.683)" fill="#fff"/>
        <path id="Path_2881" data-name="Path 2881" d="M3327.317,1276.942a1.035,1.035,0,1,1-1.036-1.036A1.035,1.035,0,0,1,3327.317,1276.942Z" transform="translate(-3318.071 -1273.487)" fill="#fff"/>
        <path id="Path_2882" data-name="Path 2882" d="M3286.191,1239.532a.666.666,0,1,1-.666-.666A.666.666,0,0,1,3286.191,1239.532Z" transform="translate(-3280.322 -1238.866)" fill="#fff"/>
      </g>
      <g id="Group_418" data-name="Group 418" transform="translate(15.738 51.972)">
        <g id="Group_417" data-name="Group 417">
          <path id="Path_2883" data-name="Path 2883" d="M627.5,1413.754v-11.633h-7.717v11.633a2.417,2.417,0,0,1-.07.578l-6.07,24.639a2.417,2.417,0,0,0,2.347,3h15.3a2.417,2.417,0,0,0,2.347-3l-6.07-24.639A2.414,2.414,0,0,1,627.5,1413.754Z" transform="translate(-613.444 -1401.99)" fill="#fff"/>
          <path id="Path_2884" data-name="Path 2884" d="M629.428,1440.229h-15.3a2.548,2.548,0,0,1-2.474-3.158l6.07-24.639a2.289,2.289,0,0,0,.066-.547v-11.764h7.978v11.764a2.292,2.292,0,0,0,.066.547l6.07,24.639a2.548,2.548,0,0,1-2.474,3.158Zm-11.38-39.846v11.5a2.551,2.551,0,0,1-.074.609l-6.07,24.639a2.287,2.287,0,0,0,2.221,2.834h15.3a2.287,2.287,0,0,0,2.22-2.834l-6.07-24.639a2.548,2.548,0,0,1-.074-.609v-11.5Z" transform="translate(-611.576 -1400.121)" fill="#2e5b9a"/>
        </g>
        <path id="Path_2885" data-name="Path 2885" d="M644.518,1616.3c-.778-.018-4.249,1.162-7.534.993l-4.846,20.25c-.295,1.49.611,2.929,1.844,2.929H647.9c1.233,0,2.139-1.439,1.844-2.929Z" transform="translate(-630.743 -1602.18)" fill="#9ec8ff"/>
        <path id="Path_2886" data-name="Path 2886" d="M786.536,1698.487a1.454,1.454,0,1,1-1.454-1.454A1.454,1.454,0,0,1,786.536,1698.487Z" transform="translate(-772.39 -1677.639)" fill="#fff"/>
        <path id="Path_2887" data-name="Path 2887" d="M732.581,1597a.648.648,0,1,1-.648-.648A.648.648,0,0,1,732.581,1597Z" transform="translate(-723.466 -1583.535)" fill="#9ec8ff"/>
        <circle id="Ellipse_27" data-name="Ellipse 27" cx="0.667" cy="0.667" r="0.667" transform="translate(10.372 6.161)" fill="#9ec8ff"/>
        <path id="Path_2888" data-name="Path 2888" d="M737.153,1428.889a1.4,1.4,0,1,1-1.4-1.4A1.4,1.4,0,0,1,737.153,1428.889Z" transform="translate(-726.337 -1425.703)" fill="#9ec8ff"/>
        <circle id="Ellipse_28" data-name="Ellipse 28" cx="1.296" cy="1.296" r="1.296" transform="translate(8.646 29.383)" fill="#fff"/>
        <path id="Path_2889" data-name="Path 2889" d="M713.343,1646.663a.951.951,0,1,1-.951-.951A.951.951,0,0,1,713.343,1646.663Z" transform="translate(-704.919 -1629.671)" fill="#fff"/>
        <circle id="Ellipse_29" data-name="Ellipse 29" cx="0.559" cy="0.559" r="0.559" transform="translate(5.164 25.128) rotate(-22.5)" fill="#fff"/>
        <path id="Path_2890" data-name="Path 2890" d="M673.016,1938.917a1.007,1.007,0,1,1-1.007-1.007A1.007,1.007,0,0,1,673.016,1938.917Z" transform="translate(-667.121 -1902.783)" fill="#fff"/>
      </g>
      <g id="Group_420" data-name="Group 420" transform="translate(26.591 61.969)">
        <g id="Group_419" data-name="Group 419">
          <path id="Path_2891" data-name="Path 2891" d="M790.1,1563.841v-8.659h-5.744v8.659a1.8,1.8,0,0,1-.052.431l-4.518,18.34a1.8,1.8,0,0,0,1.747,2.23h11.391a1.8,1.8,0,0,0,1.747-2.23l-4.518-18.34A1.8,1.8,0,0,1,790.1,1563.841Z" transform="translate(-779.602 -1555.051)" fill="#fff"/>
          <path id="Path_2892" data-name="Path 2892" d="M791.055,1583.1H779.665a1.93,1.93,0,0,1-1.874-2.392l4.518-18.34a1.67,1.67,0,0,0,.048-.4v-8.789h6.005v8.789a1.664,1.664,0,0,0,.049.4l4.518,18.34a1.93,1.93,0,0,1-1.874,2.392Zm-8.437-29.659v8.528a1.934,1.934,0,0,1-.056.462l-4.518,18.34a1.669,1.669,0,0,0,1.62,2.068h11.391a1.669,1.669,0,0,0,1.62-2.068l-4.518-18.34a1.931,1.931,0,0,1-.056-.462v-8.528Z" transform="translate(-777.734 -1553.182)" fill="#2e5b9a"/>
        </g>
        <path id="Path_2893" data-name="Path 2893" d="M808.627,1822.721a4.871,4.871,0,0,1-2.664.379c-2.518-.2-3.29-.83-5.623-.949l-2.171,9.147a1.629,1.629,0,0,0,1.31,2.08h9.889a1.629,1.629,0,0,0,1.31-2.08Z" transform="translate(-796.796 -1804.582)" fill="#9bd6e8"/>
        <path id="Path_2894" data-name="Path 2894" d="M912.586,1786.719a1.082,1.082,0,1,1-1.082-1.082A1.082,1.082,0,0,1,912.586,1786.719Z" transform="translate(-901.754 -1770.454)" fill="#9bd6e8"/>
        <circle id="Ellipse_30" data-name="Ellipse 30" cx="0.482" cy="0.482" r="0.482" transform="matrix(0.923, -0.384, 0.384, 0.923, 8.785, 12.044)" fill="#9bd6e8"/>
        <path id="Path_2895" data-name="Path 2895" d="M884.694,1616.8a.5.5,0,1,1-.5-.5A.5.5,0,0,1,884.694,1616.8Z" transform="translate(-876.78 -1612.18)" fill="#9bd6e8"/>
        <path id="Path_2896" data-name="Path 2896" d="M877.453,1646.662a1.041,1.041,0,1,1-1.041-1.041A1.041,1.041,0,0,1,877.453,1646.662Z" transform="translate(-868.995 -1639.583)" fill="#9bd6e8"/>
        <path id="Path_2897" data-name="Path 2897" d="M856.8,1912.03a.965.965,0,1,1-.965-.965A.965.965,0,0,1,856.8,1912.03Z" transform="translate(-849.829 -1887.689)" fill="#fff"/>
        <path id="Path_2898" data-name="Path 2898" d="M857.931,1839.844a.708.708,0,1,1-.708-.708A.708.708,0,0,1,857.931,1839.844Z" transform="translate(-851.37 -1820.458)" fill="#fff"/>
        <path id="Path_2899" data-name="Path 2899" d="M916.352,1926.25a.416.416,0,1,1-.416-.416A.416.416,0,0,1,916.352,1926.25Z" transform="translate(-906.519 -1901.493)" fill="#fff"/>
        <path id="Path_2900" data-name="Path 2900" d="M823.977,1954.741a.749.749,0,1,1-.749-.749A.749.749,0,0,1,823.977,1954.741Z" transform="translate(-819.556 -1927.812)" fill="#fff"/>
        <circle id="Ellipse_31" data-name="Ellipse 31" cx="1.124" cy="1.124" r="1.124" transform="translate(9.519 28.004) rotate(-76.617)" fill="#fff"/>
      </g>
      <g id="Group_421" data-name="Group 421" transform="translate(131.624 22.864)">
        <path id="Path_2901" data-name="Path 2901" d="M2388.417,956.534a3.241,3.241,0,0,0-2.546-.726l-.109-1.3a4.511,4.511,0,0,1,3.6,1.127l-.951.9Z" transform="translate(-2385.762 -954.486)" fill="#fff"/>
      </g>
      <g id="Group_425" data-name="Group 425" transform="translate(121.699 19.178)">
        <path id="Path_2902" data-name="Path 2902" d="M2248.021,910.07c-1.125,2.925-3.995,4.614-6.411,3.772s-3.463-3.9-2.338-6.822,3.995-4.614,6.41-3.772S2249.145,907.145,2248.021,910.07Z" transform="translate(-2238.493 -902.706)" fill="#dbe5eb" opacity="0.5"/>
        <ellipse id="Ellipse_32" data-name="Ellipse 32" cx="5.285" cy="3.471" rx="5.285" ry="3.471" transform="translate(9.847 12.2) rotate(-67.604)" fill="#dbe5eb" opacity="0.5"/>
        <g id="Group_422" data-name="Group 422">
          <path id="Path_2903" data-name="Path 2903" d="M2238.215,909.734a4.211,4.211,0,0,1-1.391-.233,4.343,4.343,0,0,1-2.5-2.327,6.363,6.363,0,0,1-.041-4.921c1.185-3.084,4.246-4.862,6.823-3.963a4.344,4.344,0,0,1,2.5,2.326,6.362,6.362,0,0,1,.04,4.921A6.185,6.185,0,0,1,2238.215,909.734Zm1.5-11.026a5.53,5.53,0,0,0-4.813,3.779,5.707,5.707,0,0,0,.023,4.412,3.648,3.648,0,0,0,2.117,1.984,3.59,3.59,0,0,0,1.185.2,5.53,5.53,0,0,0,4.813-3.779,5.71,5.71,0,0,0-.023-4.412,3.648,3.648,0,0,0-2.118-1.985A3.587,3.587,0,0,0,2239.711,898.708Z" transform="translate(-2233.815 -898.057)" fill="#fff"/>
        </g>
        <g id="Group_423" data-name="Group 423" transform="translate(10.954 3.245)">
          <path id="Path_2904" data-name="Path 2904" d="M2404.535,958.519a2.737,2.737,0,0,1-.905-.151,2.925,2.925,0,0,1-1.678-1.606,6.482,6.482,0,0,1,.1-4.894,7.357,7.357,0,0,1,2.413-3.3,3.442,3.442,0,0,1,3.175-.68,2.926,2.926,0,0,1,1.678,1.606,6.481,6.481,0,0,1-.1,4.894,7.357,7.357,0,0,1-2.413,3.3A3.89,3.89,0,0,1,2404.535,958.519Zm2.19-10.129c-1.509,0-3.219,1.5-4.067,3.712a5.827,5.827,0,0,0-.113,4.385,2.29,2.29,0,0,0,1.3,1.265c1.644.574,3.781-1.04,4.763-3.6a5.827,5.827,0,0,0,.113-4.385,2.29,2.29,0,0,0-1.3-1.264A2.1,2.1,0,0,0,2406.725,948.39Z" transform="translate(-2401.518 -947.738)" fill="#fff"/>
        </g>
        <g id="Group_424" data-name="Group 424" transform="translate(0.328 0.325)" opacity="0.5">
          <path id="Path_2905" data-name="Path 2905" d="M2413.984,990.039l-7.454,3.884a4.353,4.353,0,0,0,.823,2.918l6.492-3.8A6.414,6.414,0,0,0,2413.984,990.039Z" transform="translate(-2395.574 -984.356)" fill="#fff" opacity="0.5"/>
          <path id="Path_2906" data-name="Path 2906" d="M2414.866,960.569l-5.6,2.811q-.139.29-.258.6a7.864,7.864,0,0,0-.37,1.266l6.986-3.718A2.834,2.834,0,0,0,2414.866,960.569Z" transform="translate(-2397.548 -956.811)" fill="#fff" opacity="0.5"/>
          <path id="Path_2907" data-name="Path 2907" d="M2247.729,931.548c-2.716,1.291-6.1,2.9-8.883,4.216A5.286,5.286,0,0,0,2239.7,939l8.769-4.086A5.416,5.416,0,0,0,2247.729,931.548Z" transform="translate(-2238.84 -929.685)" fill="#fff" opacity="0.5"/>
          <path id="Path_2908" data-name="Path 2908" d="M2247.7,906.709l6.908-3.176a3.791,3.791,0,0,0-.626-.284C2251.656,902.436,2248.905,903.976,2247.7,906.709Z" transform="translate(-2247.124 -903.031)" fill="#fff" opacity="0.5"/>
        </g>
      </g>
      <path id="Path_2909" data-name="Path 2909" d="M2132.64,628.734c-2.183,1.013-1.241-2.747-1.281-5.9-.027-2.09-3.79-13.445,1.758-15.974s10.5-.765,13.725-2.076,12.367,1.327,13.3,5.728c.743,3.492,2.557,5.9,3.807,8.146s-3.2,6.118-6.8,6.37c-5.374.375-12.545-9.833-16.434-8.99S2134.448,627.9,2132.64,628.734Z" transform="translate(-2015.163 -604.445)" fill="#303c60"/>
      <path id="Path_2910" data-name="Path 2910" d="M2119.227,832.771l9.249,6.279-1.112,1.464-8.532-7.223Z" transform="translate(-2004.644 -817.858)" fill="#fff"/>
      <path id="Path_2911" data-name="Path 2911" d="M2053.121,827.071c0,3.016-1.362,5.87-3.291,5.87s-3.492-2.445-3.492-5.461,1.563-5.461,3.492-5.461S2053.121,824.056,2053.121,827.071Z" transform="translate(-1936.886 -807.809)" fill="#f09959"/>
      <path id="Path_2912" data-name="Path 2912" d="M2945.19,1783.088c5.432,1.249,8.3,4.451,9.428,7.845s2.963,6.677-1.64,7.033-10.12-.854-10.3-1.186S2945.19,1783.088,2945.19,1783.088Z" transform="translate(-2774.673 -1706.102)" fill="#d7e5dd" opacity="0.5"/>
      <path id="Path_2913" data-name="Path 2913" d="M2801.033,1795.514c5.994,2.591,5.241,11.664,3.412,12.425-8.532,3.551-12.831,1.205-16.4-.624a4.878,4.878,0,0,1-2.81-5.255s.165-1.851,5.807-4.221A41.944,41.944,0,0,1,2801.033,1795.514Z" transform="translate(-2627.457 -1717.716)" fill="#75aa8b"/>
      <path id="Path_2914" data-name="Path 2914" d="M2788.37,1765.731a13.254,13.254,0,0,0-13.623-2.839c-2.815,1.106-7.572,3.012-4.308,3.425s7.555-.183,9.053.3S2788.37,1765.731,2788.37,1765.731Z" transform="translate(-2612.659 -1686.497)" fill="#75aa8b"/>
    </g>
    <g id="Group_435" data-name="Group 435" transform="translate(346.671 249.44)">
      <g id="Group_427" data-name="Group 427" transform="translate(6.565 11.562)">
        <path id="Path_2915" data-name="Path 2915" d="M1241.3,696.061h-6.706a.326.326,0,0,1-.283-.163l-3.353-5.808a.327.327,0,0,1,0-.327l3.353-5.808a.326.326,0,0,1,.283-.163h6.706a.327.327,0,0,1,.283.163l3.353,5.808a.326.326,0,0,1,0,.327l-3.353,5.808A.327.327,0,0,1,1241.3,696.061Zm-6.517-.653h6.329l3.164-5.481-3.164-5.481h-6.329l-3.164,5.481Z" transform="translate(-1230.914 -683.793)" fill="#fff"/>
      </g>
      <g id="Group_428" data-name="Group 428" transform="translate(16.005 13.08)">
        <path id="Path_2916" data-name="Path 2916" d="M1378.175,711.813a.163.163,0,0,1-.141-.082l-2.571-4.453a.163.163,0,1,1,.283-.163l2.571,4.453a.163.163,0,0,1-.141.245Z" transform="translate(-1375.441 -707.034)" fill="#fff"/>
      </g>
      <g id="Group_429" data-name="Group 429" transform="translate(8.293 13.08)">
        <path id="Path_2917" data-name="Path 2917" d="M1257.526,711.813a.162.162,0,0,1-.082-.022.163.163,0,0,1-.06-.223l2.571-4.453a.163.163,0,1,1,.283.163l-2.571,4.453A.163.163,0,0,1,1257.526,711.813Z" transform="translate(-1257.363 -707.034)" fill="#fff"/>
      </g>
      <g id="Group_430" data-name="Group 430" transform="translate(10.864 21.985)">
        <path id="Path_2918" data-name="Path 2918" d="M1302.028,843.7h-5.142a.163.163,0,1,1,0-.327h5.142a.163.163,0,1,1,0,.327Z" transform="translate(-1296.723 -843.378)" fill="#fff"/>
      </g>
      <g id="Group_431" data-name="Group 431" transform="translate(26.745 11.562)">
        <path id="Path_2919" data-name="Path 2919" d="M1543.542,696.061a.326.326,0,0,1-.283-.163l-3.353-5.808a.326.326,0,0,1,0-.327l3.353-5.808a.327.327,0,0,1,.283-.163h6.706a.327.327,0,1,1,0,.653h-6.517l-3.164,5.481,3.259,5.644a.327.327,0,0,1-.282.49Z" transform="translate(-1539.862 -683.793)" fill="#fff"/>
      </g>
      <g id="Group_432" data-name="Group 432" transform="translate(6.468 23.177)">
        <path id="Path_2920" data-name="Path 2920" d="M1229.753,868.079a.327.327,0,0,1-.282-.49l3.353-5.808a.327.327,0,0,1,.566.327l-3.353,5.808A.327.327,0,0,1,1229.753,868.079Z" transform="translate(-1229.427 -861.618)" fill="#fff"/>
      </g>
      <g id="Group_433" data-name="Group 433" transform="translate(36.804 5.754)">
        <path id="Path_2921" data-name="Path 2921" d="M1694.19,601.339a.327.327,0,0,1-.282-.49l3.353-5.808a.327.327,0,1,1,.566.327l-3.353,5.808A.326.326,0,0,1,1694.19,601.339Z" transform="translate(-1693.863 -594.878)" fill="#fff"/>
      </g>
      <g id="Group_434" data-name="Group 434" transform="translate(16.686 5.754)">
        <path id="Path_2922" data-name="Path 2922" d="M1396.246,607.147h-6.706a.327.327,0,0,1-.283-.163l-3.353-5.808a.327.327,0,0,1,0-.327l3.353-5.808a.327.327,0,0,1,.566.327l-3.259,5.644,3.165,5.481h6.517a.327.327,0,1,1,0,.653Z" transform="translate(-1385.86 -594.878)" fill="#fff"/>
      </g>
      <path id="Path_2923" data-name="Path 2923" d="M1778.555,548.452h-9.438a.869.869,0,1,1,0-1.739h9.438a.869.869,0,1,1,0,1.739Z" transform="translate(-1726.585 -544.105)" fill="#fff"/>
      <path id="Path_2924" data-name="Path 2924" d="M1778.555,508.527h-9.438a.869.869,0,1,1,0-1.739h9.438a.869.869,0,1,1,0,1.739Z" transform="translate(-1726.585 -506.788)" fill="#fff"/>
      <path id="Path_2925" data-name="Path 2925" d="M1738.09,690.689h-4.065a.948.948,0,1,1,0-1.9h4.065a.948.948,0,0,1,0,1.9Z" transform="translate(-1693.712 -676.905)" fill="#fff"/>
      <path id="Rectangle_194" data-name="Rectangle 194" d="M1.18,0H4.595a1.18,1.18,0,0,1,1.18,1.18v0a1.18,1.18,0,0,1-1.18,1.18H1.18A1.18,1.18,0,0,1,0,1.18v0A1.18,1.18,0,0,1,1.18,0Z" transform="translate(20.986 2.608)" fill="#fff"/>
      <path id="Rectangle_195" data-name="Rectangle 195" d="M1.366,0H7.823A1.366,1.366,0,0,1,9.189,1.366v0A1.366,1.366,0,0,1,7.823,2.732H1.366A1.366,1.366,0,0,1,0,1.366v0A1.366,1.366,0,0,1,1.366,0Z" transform="translate(31.666 24.526)" fill="#fff"/>
      <path id="Rectangle_196" data-name="Rectangle 196" d="M1.149,0H5.06A1.149,1.149,0,0,1,6.209,1.149v0A1.149,1.149,0,0,1,5.06,2.3H1.149A1.149,1.149,0,0,1,0,1.149v0A1.149,1.149,0,0,1,1.149,0Z" transform="translate(0 30.052)" fill="#fff"/>
    </g>
    <g id="Group_445" data-name="Group 445" transform="translate(457.508 268.889)">
      <g id="Group_436" data-name="Group 436" transform="translate(12.236 3.354)">
        <path id="Path_2926" data-name="Path 2926" d="M3022.9,865.727h-5.3a.327.327,0,0,1-.283-.163l-2.65-4.59a.327.327,0,0,1,0-.327l2.65-4.59a.327.327,0,0,1,.283-.163h5.3a.327.327,0,0,1,.283.163l2.65,4.59a.327.327,0,0,1,0,.327l-2.65,4.59A.327.327,0,0,1,3022.9,865.727Zm-5.111-.653h4.923l2.462-4.263-2.462-4.263h-4.923l-2.462,4.263Z" transform="translate(-3014.624 -855.894)" fill="#fff"/>
      </g>
      <g id="Group_437" data-name="Group 437" transform="translate(20.382 8.057)">
        <path id="Path_2927" data-name="Path 2927" d="M3147.612,937.729h-5.3a.327.327,0,0,1-.283-.163l-2.65-4.59a.327.327,0,0,1,0-.327l2.65-4.59a.327.327,0,0,1,.283-.163h5.3a.327.327,0,0,1,.283.163l2.65,4.59a.325.325,0,0,1,0,.327l-2.65,4.59A.327.327,0,0,1,3147.612,937.729Zm-5.112-.653h4.923l2.461-4.263-2.461-4.263H3142.5l-2.462,4.263Z" transform="translate(-3139.335 -927.896)" fill="#fff"/>
      </g>
      <g id="Group_438" data-name="Group 438" transform="translate(12.04 12.647)">
        <path id="Path_2928" data-name="Path 2928" d="M3011.946,1003.41a.327.327,0,0,1-.283-.49l2.65-4.59a.327.327,0,1,1,.566.327l-2.65,4.59A.327.327,0,0,1,3011.946,1003.41Z" transform="translate(-3011.62 -998.167)" fill="#fff"/>
      </g>
      <g id="Group_439" data-name="Group 439" transform="translate(36.325 12.597)">
        <path id="Path_2929" data-name="Path 2929" d="M3386.409,1002.647a.326.326,0,0,1-.283-.163l-2.65-4.59a.327.327,0,1,1,.566-.327l2.65,4.59a.327.327,0,0,1-.283.49Z" transform="translate(-3383.432 -997.404)" fill="#fff"/>
      </g>
      <g id="Group_440" data-name="Group 440" transform="translate(6.74 8.057)">
        <path id="Path_2930" data-name="Path 2930" d="M2936.1,928.549h-5.3a.327.327,0,1,1,0-.653h5.3a.327.327,0,0,1,0,.653Z" transform="translate(-2930.478 -927.896)" fill="#fff"/>
      </g>
      <g id="Group_441" data-name="Group 441" transform="translate(28.332 3.354)">
        <path id="Path_2931" data-name="Path 2931" d="M3269.328,865.726h-5.3a.327.327,0,0,1-.283-.163l-2.65-4.59a.328.328,0,0,1,0-.327l2.65-4.59a.327.327,0,1,1,.566.327l-2.556,4.427,2.461,4.263h5.112a.327.327,0,0,1,0,.653Z" transform="translate(-3261.052 -855.893)" fill="#fff"/>
      </g>
      <g id="Group_442" data-name="Group 442" transform="translate(27.688 9.191)">
        <path id="Path_2932" data-name="Path 2932" d="M3253.5,949.277a.163.163,0,0,1-.142-.082l-2.136-3.7a.163.163,0,1,1,.283-.163l2.136,3.7a.163.163,0,0,1-.141.245Z" transform="translate(-3251.2 -945.25)" fill="#fff"/>
      </g>
      <g id="Group_443" data-name="Group 443" transform="translate(13.528 8.026)">
        <path id="Path_2933" data-name="Path 2933" d="M3036.707,931.447a.163.163,0,0,1-.142-.082l-2.136-3.7a.163.163,0,0,1,.283-.163l2.136,3.7a.163.163,0,0,1-.141.245Z" transform="translate(-3034.407 -927.419)" fill="#fff"/>
      </g>
      <g id="Group_444" data-name="Group 444" transform="translate(19.586 4.407)">
        <path id="Path_2934" data-name="Path 2934" d="M3129.453,876.037a.163.163,0,0,1-.142-.082l-2.137-3.7a.163.163,0,0,1,.283-.163l2.136,3.7a.163.163,0,0,1-.06.223A.161.161,0,0,1,3129.453,876.037Z" transform="translate(-3127.153 -872.01)" fill="#fff"/>
      </g>
      <rect id="Rectangle_197" data-name="Rectangle 197" width="6.085" height="1.85" rx="0.925" transform="translate(36.26 10.279)" fill="#fff"/>
      <rect id="Rectangle_198" data-name="Rectangle 198" width="5.3" height="2.576" rx="1.288" transform="translate(28.658)" fill="#fff"/>
      <path id="Rectangle_199" data-name="Rectangle 199" d="M.994,0h5.4a.994.994,0,0,1,.994.994v0a.994.994,0,0,1-.994.994H.994A.994.994,0,0,1,0,.994v0A.994.994,0,0,1,.994,0Z" transform="translate(37.528 18.347)" fill="#fff"/>
      <path id="Rectangle_200" data-name="Rectangle 200" d="M.939,0h5.19a.939.939,0,0,1,.939.939v0a.939.939,0,0,1-.939.939H.939A.939.939,0,0,1,0,.939v0A.939.939,0,0,1,.939,0Z" transform="translate(6.183 18.402)" fill="#fff"/>
      <path id="Rectangle_201" data-name="Rectangle 201" d="M1.107,0H5.076A1.107,1.107,0,0,1,6.183,1.107v0A1.107,1.107,0,0,1,5.076,2.214H1.107A1.107,1.107,0,0,1,0,1.107v0A1.107,1.107,0,0,1,1.107,0Z" transform="translate(0 7.14)" fill="#fff"/>
    </g>
    <circle id="Ellipse_33" data-name="Ellipse 33" cx="3.058" cy="3.058" r="3.058" transform="translate(302.914 277.933) rotate(-34.099)" fill="#fff"/>
    <path id="Path_2935" data-name="Path 2935" d="M493.615,1036.7H472.547a.562.562,0,1,1,0-1.124h21.068a.562.562,0,1,1,0,1.124Z" transform="translate(-168.32 -751.6)" fill="#fff"/>
    <path id="Path_2936" data-name="Path 2936" d="M493.615,1072.981H472.547a.562.562,0,1,1,0-1.124h21.068a.562.562,0,1,1,0,1.124Z" transform="translate(-168.32 -785.508)" fill="#fff"/>
    <g id="Group_449" data-name="Group 449" transform="translate(334.509 286.362)">
      <circle id="Ellipse_34" data-name="Ellipse 34" cx="5.37" cy="5.37" r="5.37" transform="translate(0 11.748)" fill="#fff"/>
      <g id="Group_446" data-name="Group 446" transform="translate(1.494 13.242)">
        <path id="Path_2937" data-name="Path 2937" d="M970.942,1282.532a3.876,3.876,0,1,1,3.876-3.876A3.88,3.88,0,0,1,970.942,1282.532Zm0-7.425a3.549,3.549,0,1,0,3.549,3.549A3.553,3.553,0,0,0,970.942,1275.107Z" transform="translate(-967.066 -1274.78)" fill="#d7e5dd"/>
      </g>
      <g id="Group_447" data-name="Group 447" transform="translate(10.972 3.659)">
        <path id="Path_2938" data-name="Path 2938" d="M1112.5,1138.777a.327.327,0,0,1-.151-.616l19.3-10.045a.327.327,0,1,1,.3.579l-19.3,10.045A.326.326,0,0,1,1112.5,1138.777Z" transform="translate(-1112.176 -1128.078)" fill="#fff"/>
      </g>
      <g id="Group_448" data-name="Group 448" transform="translate(11.836 16.327)">
        <path id="Path_2939" data-name="Path 2939" d="M1136.41,1323.136h-.014l-10.68-.464a.327.327,0,0,1,.028-.653l10.68.464a.327.327,0,0,1-.014.653Z" transform="translate(-1125.403 -1322.019)" fill="#fff"/>
      </g>
      <path id="Path_2940" data-name="Path 2940" d="M1428.7,1074.387a2.334,2.334,0,1,1-2.334-2.334A2.334,2.334,0,0,1,1428.7,1074.387Z" transform="translate(-1392.688 -1072.053)" fill="#fff"/>
      <path id="Path_2941" data-name="Path 2941" d="M1321,1298.379a2.5,2.5,0,1,1-2.5-2.5A2.5,2.5,0,0,1,1321,1298.379Z" transform="translate(-1291.716 -1281.262)" fill="#fff"/>
    </g>
    <g id="Group_454" data-name="Group 454" transform="translate(456.919 296.59)">
      <g id="Group_450" data-name="Group 450" transform="translate(0 0)">
        <path id="Path_2942" data-name="Path 2942" d="M2823.372,1234.815h-4.023a1.077,1.077,0,0,1-1.076-1.076v-4.023a1.077,1.077,0,0,1,1.076-1.076h4.023a1.077,1.077,0,0,1,1.076,1.076v4.023A1.077,1.077,0,0,1,2823.372,1234.815Zm-4.023-5.522a.423.423,0,0,0-.423.423v4.023a.423.423,0,0,0,.423.423h4.023a.423.423,0,0,0,.423-.423v-4.023a.423.423,0,0,0-.423-.423Z" transform="translate(-2818.273 -1228.64)" fill="#fff"/>
      </g>
      <g id="Group_451" data-name="Group 451" transform="translate(0 9)">
        <path id="Path_2943" data-name="Path 2943" d="M2823.372,1372.606h-4.023a1.077,1.077,0,0,1-1.076-1.076v-4.023a1.077,1.077,0,0,1,1.076-1.076h4.023a1.077,1.077,0,0,1,1.076,1.076v4.023A1.077,1.077,0,0,1,2823.372,1372.606Zm-4.023-5.522a.423.423,0,0,0-.423.423v4.023a.423.423,0,0,0,.423.423h4.023a.423.423,0,0,0,.423-.423v-4.023a.423.423,0,0,0-.423-.423Z" transform="translate(-2818.273 -1366.431)" fill="#fff"/>
      </g>
      <g id="Group_452" data-name="Group 452" transform="translate(1.013 0.3)">
        <path id="Path_2944" data-name="Path 2944" d="M2835.851,1237.5h-.018a.327.327,0,0,1-.237-.121l-1.748-2.177a.327.327,0,0,1,.509-.409l1.52,1.893,3.364-3.364a.327.327,0,0,1,.462.462l-3.621,3.621A.326.326,0,0,1,2835.851,1237.5Z" transform="translate(-2833.776 -1233.228)" fill="#f39892"/>
      </g>
      <g id="Group_453" data-name="Group 453" transform="translate(1.013 9.081)">
        <path id="Path_2945" data-name="Path 2945" d="M2835.851,1371.936h-.018a.327.327,0,0,1-.237-.122l-1.748-2.177a.327.327,0,0,1,.51-.409l1.52,1.893,3.364-3.364a.327.327,0,0,1,.462.462l-3.621,3.621A.326.326,0,0,1,2835.851,1371.936Z" transform="translate(-2833.776 -1367.661)" fill="#f39892"/>
      </g>
      <path id="Path_2946" data-name="Path 2946" d="M2987.667,1267.061h-11.058a.556.556,0,0,1,0-1.112h11.058a.556.556,0,0,1,0,1.112Z" transform="translate(-2965.747 -1263.512)" fill="#fff"/>
      <path id="Path_2947" data-name="Path 2947" d="M2987.667,1300.21h-11.058a.556.556,0,0,1,0-1.112h11.058a.556.556,0,0,1,0,1.112Z" transform="translate(-2965.747 -1294.496)" fill="#fff"/>
      <path id="Path_2948" data-name="Path 2948" d="M2987.667,1406.3h-11.058a.556.556,0,0,1,0-1.112h11.058a.556.556,0,0,1,0,1.112Z" transform="translate(-2965.747 -1393.654)" fill="#fff"/>
      <path id="Path_2949" data-name="Path 2949" d="M2983.326,1439.213h-6.717a.556.556,0,0,1,0-1.112h6.717a.556.556,0,0,1,0,1.112Z" transform="translate(-2965.747 -1424.419)" fill="#fff"/>
    </g>
    <g id="Group_455" data-name="Group 455" transform="translate(492.812 238.414)">
      <rect id="Rectangle_202" data-name="Rectangle 202" width="4.308" height="4.308" rx="2.154" transform="translate(0 0)" fill="#d7e5dd" opacity="0.5"/>
      <rect id="Rectangle_203" data-name="Rectangle 203" width="4.308" height="4.308" rx="2.154" transform="translate(8.64 0)" fill="#d7e5dd" opacity="0.5"/>
      <rect id="Rectangle_204" data-name="Rectangle 204" width="4.308" height="4.308" rx="2.154" transform="translate(17.92 0)" fill="#d7e5dd"/>
    </g>
    <path id="Path_2950" data-name="Path 2950" d="M541.383,627.364h-9.536a.562.562,0,0,1,0-1.124h9.536a.562.562,0,0,1,0,1.124Z" transform="translate(-223.747 -368.998)" fill="#fff"/>
    <path id="Path_2951" data-name="Path 2951" d="M541.383,658.066h-9.536a.562.562,0,0,1,0-1.124h9.536a.562.562,0,0,1,0,1.124Z" transform="translate(-223.747 -397.694)" fill="#fff"/>
    <path id="Path_2952" data-name="Path 2952" d="M541.383,694.937h-9.536a.562.562,0,0,1,0-1.124h9.536a.562.562,0,0,1,0,1.124Z" transform="translate(-223.747 -432.157)" fill="#fff"/>
    <rect id="Rectangle_205" data-name="Rectangle 205" width="13.191" height="5.879" rx="2.939" transform="translate(325.475 270.747)" fill="#b6d3c2"/>
    <rect id="Rectangle_206" data-name="Rectangle 206" width="40.399" height="2.096" rx="1.048" transform="translate(467.637 248.213)" fill="#d7e5dd" opacity="0.5"/>
    <rect id="Rectangle_207" data-name="Rectangle 207" width="40.399" height="2.096" rx="1.048" transform="translate(467.637 252.179)" fill="#d7e5dd" opacity="0.5"/>
  </g>
</svg>
