<svg xmlns="http://www.w3.org/2000/svg" width="224.28" height="127.364" viewBox="0 0 224.28 127.364">
  <g id="img-tuyennhansu" transform="translate(-200.522 -194.827)">
    <path id="Path_2641" data-name="Path 2641" d="M217.712,321.8s-26.617-32.062-13.608-65.07c8.479-21.515,40.285-33.3,58.235-21.515,7.645,5.021,32.172.169,45.268-20.619,25.449-40.4,114.266-15.863,98.1,46.16-7.825,30.015,23.814,31.106,7.693,61.108Z" transform="translate(0 0)" fill="#ecf4f3"/>
    <g id="Group_229" data-name="Group 229" transform="translate(212.365 247.22)">
      <g id="Group_224" data-name="Group 224" transform="translate(20.511 15.319)">
        <path id="Path_2642" data-name="Path 2642" d="M652.21,1056.931s-2.684-3.132-.166-5.121a7.145,7.145,0,0,1,3.34-1.023s-2.126,3.565-1.438,3.919,2.082-4.143,2.082-4.143,4.187-.406,5.534.242c0,0-3.579,2.929-2.825,3.1s4.62-2.7,4.62-2.7,3.9.663,3.689,3.04-1.55,3.111-2.141,3.048-4.042-1.381-4.118-.9,2,2.064,3.458,2.138c0,0-2.747,3.03-4.573,2.156s-1.982-2.26-3.12-2.78-2.11-.519-1.64.012,2.53,1.046,3.181,2.2,1.235,1.928-.654,1.644-4.96-1.667-5.095-3.25Z" transform="translate(-647.672 -1050.438)" fill="#b8e0c8"/>
        <g id="Group_223" data-name="Group 223" transform="translate(0 3.856)">
          <path id="Path_2643" data-name="Path 2643" d="M652.193,1099.183s-10.584-.408-12.921,2.619a7.654,7.654,0,0,1-2.108,2.958l-.248.676s1.834-1.934,2.49-2.051C639.406,1103.385,638.38,1099.635,652.193,1099.183Z" transform="translate(-634.734 -1099.165)" fill="#b8e0c8"/>
          <path id="Path_2644" data-name="Path 2644" d="M611.779,1166.768a6.647,6.647,0,0,0-2.43,4.682l.412.037s.726-3.1,2.037-4.318S611.779,1166.768,611.779,1166.768Z" transform="translate(-609.349 -1161.172)" fill="#b8e0c8"/>
        </g>
      </g>
      <g id="Group_226" data-name="Group 226" transform="translate(0 6.816)">
        <path id="Path_2645" data-name="Path 2645" d="M365.832,954.055s4.27-2.391,2.277-5.637a8.478,8.478,0,0,0-3.3-2.505s.911,4.84,0,4.953-.626-5.466-.626-5.466-4.5-2.164-6.263-1.993c0,0,2.79,4.726,1.879,4.612s-4.042-4.9-4.042-4.9-4.612-.854-5.352,1.879.455,4.1,1.139,4.27,5.067.114,4.953.683-3.075,1.48-4.726.968c0,0,1.822,4.5,4.213,4.27s3.131-1.708,4.612-1.822,2.562.285,1.822.683-3.245.131-4.441,1.147-2.163,1.643.057,2.1,6.206.171,7-1.537Z" transform="translate(-350.169 -942.997)" fill="#b8e0c8"/>
        <g id="Group_225" data-name="Group 225" transform="translate(2.34 2.859)">
          <path id="Path_2646" data-name="Path 2646" d="M379.739,979.127s11.956,3.872,13.323,8.2a9.083,9.083,0,0,0,1.139,4.156v.854s-1.253-2.9-1.936-3.3C392.265,989.034,394.941,985.276,379.739,979.127Z" transform="translate(-379.739 -979.127)" fill="#b8e0c8"/>
          <path id="Path_2647" data-name="Path 2647" d="M555.827,1129.059a7.886,7.886,0,0,1,.793,6.208l-.474-.127s.46-3.754-.5-5.642S555.827,1129.059,555.827,1129.059Z" transform="translate(-541.366 -1116.704)" fill="#b8e0c8"/>
        </g>
      </g>
      <g id="Group_228" data-name="Group 228" transform="translate(18.756 0)">
        <path id="Path_2648" data-name="Path 2648" d="M590.869,871.442s-5.629-3.152-3-7.43c0,0,2.1-2.627,4.353-3.3,0,0-1.2,6.379,0,6.529s.826-7.2.826-7.2,5.929-2.852,8.256-2.627c0,0-3.678,6.229-2.477,6.079s5.329-6.454,5.329-6.454,6.079-1.126,7.055,2.477-.6,5.4-1.5,5.629-6.68.15-6.529.9,4.053,1.951,6.229,1.276c0,0-2.4,5.929-5.554,5.629s-4.128-2.252-6.079-2.4-3.377.375-2.4.9,4.278.172,5.854,1.512,2.852,2.165-.075,2.766-8.181.225-9.231-2.026Z" transform="translate(-587.169 -856.866)" fill="#d7e5dd"/>
        <g id="Group_227" data-name="Group 227" transform="translate(0.728 3.769)">
          <path id="Path_2649" data-name="Path 2649" d="M634.024,904.491s-15.761,5.1-17.562,10.807a11.973,11.973,0,0,1-1.5,5.479V921.9s1.651-3.828,2.552-4.353C617.513,917.55,613.985,912.6,634.024,904.491Z" transform="translate(-613.489 -904.491)" fill="#d7e5dd"/>
          <path id="Path_2650" data-name="Path 2650" d="M597.834,1102.13a10.4,10.4,0,0,0-1.045,8.184l.625-.168s-.607-4.949.665-7.437S597.834,1102.13,597.834,1102.13Z" transform="translate(-596.363 -1085.844)" fill="#d7e5dd"/>
        </g>
      </g>
      <path id="Path_2651" data-name="Path 2651" d="M503.233,1208.507a11.026,11.026,0,0,0,11.026-11.026H492.207A11.026,11.026,0,0,0,503.233,1208.507Z" transform="translate(-480.966 -1170.525)" fill="#d7e5dd"/>
      <path id="Rectangle_141" data-name="Rectangle 141" d="M1.36,0H21a1.36,1.36,0,0,1,1.36,1.36v0a0,0,0,0,1,0,0H0a0,0,0,0,1,0,0v0A1.36,1.36,0,0,1,1.36,0Z" transform="translate(11.089 37.183)" fill="#d4e4f8"/>
      <rect id="Rectangle_142" data-name="Rectangle 142" width="22.665" height="0.338" transform="translate(10.878 26.956)" fill="#9fc1f4"/>
    </g>
    <g id="Group_233" data-name="Group 233" transform="translate(258.419 254.058)">
      <g id="Group_230" data-name="Group 230" transform="translate(28.344 37.039)">
        <path id="Path_2652" data-name="Path 2652" d="M1295.023,1441.77h.055a.74.74,0,0,0,.748-.791l-2.972-29.683-2.594.231,4.268,29.842A.483.483,0,0,0,1295.023,1441.77Z" transform="translate(-1290.26 -1411.295)" fill="#bacec2"/>
      </g>
      <g id="Group_231" data-name="Group 231" transform="translate(3.683 37.039)">
        <path id="Path_2653" data-name="Path 2653" d="M979.451,1441.77H979.4a.74.74,0,0,1-.748-.791l2.972-29.683,2.594.231-4.268,29.842A.483.483,0,0,1,979.451,1441.77Z" transform="translate(-978.645 -1411.295)" fill="#bacec2"/>
      </g>
      <g id="Group_232" data-name="Group 232" transform="translate(49.312 37.039)">
        <path id="Path_2654" data-name="Path 2654" d="M1559.975,1441.77h.054a.74.74,0,0,0,.748-.791L1557.8,1411.3l-2.594.231,4.268,29.842A.482.482,0,0,0,1559.975,1441.77Z" transform="translate(-1555.211 -1411.295)" fill="#bacec2"/>
      </g>
      <path id="Path_2655" data-name="Path 2655" d="M937.482,976l-5.276-26.053a5.773,5.773,0,0,1,6.041-6.666l10.175.232a8.037,8.037,0,0,1,7.537,5.8L963.678,976Z" transform="translate(-932.109 -943.276)" fill="#d7e5dd"/>
      <path id="Path_2656" data-name="Path 2656" d="M977.813,976l-5.276-26.053a5.773,5.773,0,0,1,6.041-6.666l10.175.232a8.037,8.037,0,0,1,7.537,5.8L1004.009,976Z" transform="translate(-969.248 -943.276)" fill="#d7e5dd"/>
      <path id="Rectangle_143" data-name="Rectangle 143" d="M2.376,0H40.82A2.376,2.376,0,0,1,43.2,2.376V4.752a0,0,0,0,1,0,0H2.376A2.376,2.376,0,0,1,0,2.376v0A2.376,2.376,0,0,1,2.376,0Z" transform="translate(48.569 37.473) rotate(180)" fill="#bacec2"/>
      <rect id="Rectangle_144" data-name="Rectangle 144" width="28.031" height="4.752" rx="2.376" transform="translate(52.581 37.473) rotate(180)" fill="#bacec2"/>
    </g>
    <g id="Group_238" data-name="Group 238" transform="translate(218.899 285.875)">
      <path id="Path_2657" data-name="Path 2657" d="M465.612,1345.871v.889c0,.311-.1.565-.224.565H432.953c-.123,0-.224-.254-.224-.565v-.889c0-.311.1-.565.224-.565h32.436C465.511,1345.306,465.612,1345.561,465.612,1345.871Z" transform="translate(-432.729 -1345.306)" fill="#9abfe2"/>
      <path id="Path_2658" data-name="Path 2658" d="M543.829,1345.871v.889c0,.311-.092.565-.205.565h-25.75c-.113,0-.205-.254-.205-.565v-.889c0-.311.093-.565.205-.565h25.75C543.737,1345.306,543.829,1345.561,543.829,1345.871Z" transform="translate(-510.946 -1345.306)" fill="#bad4f4"/>
      <rect id="Rectangle_145" data-name="Rectangle 145" width="23.027" height="33.563" transform="translate(1.646 2.02)" fill="#c8dbf4"/>
      <rect id="Rectangle_146" data-name="Rectangle 146" width="23.027" height="33.563" transform="translate(8.099 2.02)" fill="#dfebfd"/>
      <g id="Group_237" data-name="Group 237" transform="translate(9.337 2.968)">
        <g id="Group_234" data-name="Group 234">
          <path id="Path_2659" data-name="Path 2659" d="M571.265,1413.569H550.712v-30.762h20.553Zm-20.331-.222h20.109v-30.318H550.934Z" transform="translate(-550.712 -1382.807)" fill="#b7d3f3"/>
        </g>
        <g id="Group_235" data-name="Group 235" transform="translate(0.111 10.176)">
          <rect id="Rectangle_147" data-name="Rectangle 147" width="20.331" height="0.222" fill="#b7d3f3"/>
        </g>
        <g id="Group_236" data-name="Group 236" transform="translate(0.111 20.551)">
          <rect id="Rectangle_148" data-name="Rectangle 148" width="20.331" height="0.222" fill="#b7d3f3"/>
        </g>
        <path id="Path_2660" data-name="Path 2660" d="M659.115,1400.129h-3.773a.334.334,0,0,1-.333-.333h0a.334.334,0,0,1,.333-.333h3.773a.334.334,0,0,1,.333.333h0A.334.334,0,0,1,659.115,1400.129Z" transform="translate(-646.756 -1398.145)" fill="#b7d3f3"/>
        <path id="Path_2661" data-name="Path 2661" d="M659.115,1528.325h-3.773a.334.334,0,0,1-.333-.333h0a.334.334,0,0,1,.333-.333h3.773a.334.334,0,0,1,.333.333h0A.334.334,0,0,1,659.115,1528.325Z" transform="translate(-646.756 -1516.196)" fill="#b7d3f3"/>
        <path id="Path_2662" data-name="Path 2662" d="M659.115,1661.962h-3.773a.334.334,0,0,1-.333-.333h0a.334.334,0,0,1,.333-.333h3.773a.334.334,0,0,1,.333.333h0A.334.334,0,0,1,659.115,1661.962Z" transform="translate(-646.756 -1639.257)" fill="#b7d3f3"/>
      </g>
    </g>
    <g id="Group_245" data-name="Group 245" transform="translate(326.366 211.023)">
      <path id="Rectangle_149" data-name="Rectangle 149" d="M8.262,0h.509a8.262,8.262,0,0,1,8.262,8.262v0a8.262,8.262,0,0,1-8.262,8.262H8.262A8.262,8.262,0,0,1,0,8.262v0A8.262,8.262,0,0,1,8.262,0Z" transform="translate(0 0)" fill="#a6bfb0"/>
      <path id="Rectangle_150" data-name="Rectangle 150" d="M7.546,0h.465a7.546,7.546,0,0,1,7.546,7.546v0a7.546,7.546,0,0,1-7.546,7.546H7.546A7.546,7.546,0,0,1,0,7.546v0A7.546,7.546,0,0,1,7.546,0Z" transform="translate(0.738 0.716)" fill="#d7e5dd"/>
      <g id="Group_241" data-name="Group 241" transform="translate(2.011 1.871)">
        <g id="Group_239" data-name="Group 239" transform="translate(6.153)">
          <circle id="Ellipse_21" data-name="Ellipse 21" cx="0.353" cy="0.353" r="0.353" fill="#7a9e88"/>
          <path id="Path_2663" data-name="Path 2663" d="M1929.293,431.771a.353.353,0,1,1,.137.48A.353.353,0,0,1,1929.293,431.771Z" transform="translate(-1926.446 -430.919)" fill="#7a9e88"/>
          <path id="Path_2664" data-name="Path 2664" d="M1958.75,457.712a.353.353,0,1,1-.105.488A.353.353,0,0,1,1958.75,457.712Z" transform="translate(-1953.464 -454.923)" fill="#7a9e88"/>
          <path id="Path_2665" data-name="Path 2665" d="M1971.791,496.267a.353.353,0,1,1-.353.353A.353.353,0,0,1,1971.791,496.267Z" transform="translate(-1965.297 -490.478)" fill="#7a9e88"/>
          <path id="Path_2666" data-name="Path 2666" d="M1961.094,539.046a.353.353,0,1,1-.5,0A.353.353,0,0,1,1961.094,539.046Z" transform="translate(-1955.216 -529.776)" fill="#7a9e88"/>
          <path id="Path_2667" data-name="Path 2667" d="M1933.1,567.115a.353.353,0,1,1-.5,0A.353.353,0,0,1,1933.1,567.115Z" transform="translate(-1929.436 -555.624)" fill="#7a9e88"/>
          <path id="Path_2668" data-name="Path 2668" d="M1893.837,578.679a.353.353,0,1,1,.353.353A.353.353,0,0,1,1893.837,578.679Z" transform="translate(-1893.837 -566.043)" fill="#7a9e88"/>
        </g>
        <g id="Group_240" data-name="Group 240" transform="translate(0 0.67)">
          <path id="Path_2669" data-name="Path 2669" d="M1858.942,431.771a.353.353,0,1,0-.137.48A.353.353,0,0,0,1858.942,431.771Z" transform="translate(-1854.942 -431.589)" fill="#7a9e88"/>
          <path id="Path_2670" data-name="Path 2670" d="M1829.485,457.712a.353.353,0,1,0,.105.488A.353.353,0,0,0,1829.485,457.712Z" transform="translate(-1827.924 -455.593)" fill="#7a9e88"/>
          <path id="Path_2671" data-name="Path 2671" d="M1816.446,496.267a.353.353,0,1,0,.353.353A.353.353,0,0,0,1816.446,496.267Z" transform="translate(-1816.093 -491.148)" fill="#7a9e88"/>
          <path id="Path_2672" data-name="Path 2672" d="M1827.143,539.046a.353.353,0,1,0,.5,0A.353.353,0,0,0,1827.143,539.046Z" transform="translate(-1826.173 -530.446)" fill="#7a9e88"/>
          <circle id="Ellipse_22" data-name="Ellipse 22" cx="0.353" cy="0.353" r="0.353" transform="translate(3.082 10.717)" fill="#7a9e88"/>
        </g>
      </g>
      <g id="Group_244" data-name="Group 244" transform="translate(8.421 3.605)">
        <path id="Path_2673" data-name="Path 2673" d="M1897.093,496.62a.353.353,0,1,1,.353.353A.353.353,0,0,1,1897.093,496.62Z" transform="translate(-1897.093 -492.212)" fill="#7a9e88"/>
        <g id="Group_242" data-name="Group 242" transform="translate(0.305)">
          <rect id="Rectangle_151" data-name="Rectangle 151" width="0.096" height="4.408" fill="#7a9e88"/>
        </g>
        <g id="Group_243" data-name="Group 243" transform="translate(0.219 2.453)">
          <rect id="Rectangle_152" data-name="Rectangle 152" width="2.971" height="0.289" transform="translate(0 1.834) rotate(-38.132)" fill="#7a9e88"/>
        </g>
      </g>
    </g>
    <g id="Group_248" data-name="Group 248" transform="translate(260.608 227.857)">
      <g id="Group_247" data-name="Group 247" transform="translate(0)">
        <path id="Path_2674" data-name="Path 2674" d="M1253.323,1280.617a14.14,14.14,0,0,1-4.917,5.253h-11.4S1254.984,1277.726,1253.323,1280.617Z" transform="translate(-1215.07 -1227.147)" fill="#233862"/>
        <g id="Group_246" data-name="Group 246">
          <path id="Path_2675" data-name="Path 2675" d="M1614.093,1664.908c-.123,1.2,1.54,1.5,3.468,1.621s1.341.506,3.981,1.013,3.707-.2,3.9-.56c.174-.315-1.05-.824-2.354-1.4-.164-.072-.328-.146-.493-.22-1.468-.664-2.281-2-3.417-3.234-1.076-1.173-2.071-4.9-2.071-4.9l-3.585-.806s.973,3.358,1.308,4.79a4.426,4.426,0,0,1-.395,2.491A4.7,4.7,0,0,0,1614.093,1664.908Z" transform="translate(-1561.785 -1573.782)" fill="#ffb27d"/>
          <path id="Path_2676" data-name="Path 2676" d="M1624.118,1751.257c1.929.117,1.341.506,3.98,1.013s3.707-.205,3.9-.56c.174-.315-1.05-.824-2.354-1.4l-.021.022a7.53,7.53,0,0,1-4.006,0c-1.744-.494-3.425-1.557-4.626-1.908a4.71,4.71,0,0,0-.344,1.206C1620.527,1750.831,1622.19,1751.14,1624.118,1751.257Z" transform="translate(-1568.342 -1658.509)" fill="#0f2549"/>
          <path id="Path_2677" data-name="Path 2677" d="M1149.736,1114.081c-1.929-1.355-14.691-3.77-21.2-4.468l-7.2-6.249s-6.127,9.075-6.176,16.018c-.023,3.237,1.468,3.559,1.469,3.559s23.076.171,24.087.276c1.656.171,3.84,4.3,4.385,8.052s10.168,19.036,10.168,19.036a12.064,12.064,0,0,0,2.935.589,2.931,2.931,0,0,0,1.46-.393S1154.087,1117.136,1149.736,1114.081Z" transform="translate(-1102.86 -1064.493)" fill="#233862"/>
          <path id="Path_2678" data-name="Path 2678" d="M1538.672,1664.908c-.123,1.2,1.54,1.5,3.468,1.621s1.341.506,3.98,1.013,3.707-.2,3.9-.56c.174-.315-1.05-.824-2.354-1.4-.164-.072-.328-.146-.493-.22-1.468-.664-2.281-2-3.417-3.234-1.076-1.173-2.071-4.9-2.071-4.9l-3.585-.806s.973,3.358,1.308,4.79a4.427,4.427,0,0,1-.395,2.491A4.7,4.7,0,0,0,1538.672,1664.908Z" transform="translate(-1492.333 -1573.782)" fill="#ffb27d"/>
          <path id="Path_2679" data-name="Path 2679" d="M1548.7,1751.257c1.929.117,1.341.506,3.981,1.013s3.707-.205,3.9-.56c.174-.315-1.05-.824-2.354-1.4l-.021.022a7.531,7.531,0,0,1-4.006,0c-1.744-.494-3.424-1.557-4.626-1.908a4.7,4.7,0,0,0-.344,1.206C1545.106,1750.831,1546.769,1751.14,1548.7,1751.257Z" transform="translate(-1498.89 -1658.509)" fill="#233862"/>
          <path id="Path_2680" data-name="Path 2680" d="M1073.648,1114.081c-1.676-1.177-6.717-2.089-12.282-2.767a3.744,3.744,0,0,1-3.177-2.81h0l-12.943-5.141s-6.127,9.075-6.176,16.018c-.023,3.237,1.469,3.559,1.469,3.559s23.076.171,24.087.276c1.656.171,3.84,4.3,4.385,8.052s10.168,19.036,10.168,19.036a12.061,12.061,0,0,0,2.935.589,2.933,2.933,0,0,0,1.46-.393S1078,1117.136,1073.648,1114.081Z" transform="translate(-1032.794 -1064.493)" fill="#2b478b"/>
          <path id="Path_2681" data-name="Path 2681" d="M983.3,613.355a14.637,14.637,0,0,0-4.925-1.119c-5.261-.707-8.428,6.938-8.614,9.255-.343,4.27-2.6,4.921-5.781,7.6-6.375,5.362-4.505,11.592-1.02,13.907,2.092,1.389,5.778,0,5.778,0,.052.037,10.082-5.607,15.026-8.329C991.179,633.61,987.834,615.735,983.3,613.355Z" transform="translate(-959.767 -612.19)" fill="#233862"/>
          <path id="Path_2682" data-name="Path 2682" d="M1161.426,778.242a6.535,6.535,0,0,1-4.042.522c-1.6-.528-3.015-2.942-2.993-2.945.7-.1,1.4-.787,1.6-4.855l.308.078,5.181,1.31s-.2,1.641-.289,3.193C1161.12,776.847,1161.134,778.087,1161.426,778.242Z" transform="translate(-1138.988 -758.399)" fill="#ffb27d"/>
          <path id="Path_2683" data-name="Path 2683" d="M1182,777.344s0,.338-.194,1.865c-2.93-.739-4.222-1.711-5.133-2.823Z" transform="translate(-1159.504 -763.392)" fill="#ed975d"/>
          <path id="Path_2684" data-name="Path 2684" d="M1162.937,659.179s-6.851,1.115-7.48-3.162-1.937-7.014,2.411-7.907,5.44.614,6,1.99S1164.7,658.778,1162.937,659.179Z" transform="translate(-1139.339 -645.02)" fill="#ffb27d"/>
          <path id="Path_2685" data-name="Path 2685" d="M1141.31,640.066s-3.111,4.911-5.889,6.075-4.142.573-4.142.573a11.7,11.7,0,0,0,1.593-4.489,2.106,2.106,0,0,1,1.3-1.693C1136.166,639.733,1140.021,638.474,1141.31,640.066Z" transform="translate(-1117.706 -637.155)" fill="#233862"/>
          <path id="Path_2686" data-name="Path 2686" d="M1223.5,639.684a10.845,10.845,0,0,1,2.575,1.811,8.327,8.327,0,0,1,1.5,4.17s.9-4.938-.974-6.635C1224.612,637.23,1223.5,639.684,1223.5,639.684Z" transform="translate(-1202.625 -636.298)" fill="#233862"/>
          <path id="Path_2687" data-name="Path 2687" d="M1097.719,839.067c-.208,13.927-.057,11.016-1.581,12.338a5.85,5.85,0,0,1-2.757.6c-4.27.284-11.777-.42-12.063-1.209-.985-2.731-.29-3.579-1.111-7.76-.086-.445-.192-.926-.316-1.45-.685-2.871-1.352-3.848,1.079-8.461,2.2-4.179,4.8-7.573,5-7.451,5.816,3.453,6.015.558,6.015.558S1097.821,832.274,1097.719,839.067Z" transform="translate(-1069.801 -808.774)" fill="#fff"/>
          <path id="Path_2688" data-name="Path 2688" d="M1240.13,832.766s5.953,1.009,6.655,3.586,4.838,17.725,4.838,17.725-3.042.547-4.448-.859-4.891-13.04-4.891-13.04Z" transform="translate(-1217.942 -815.31)" fill="#fff"/>
          <path id="Path_2689" data-name="Path 2689" d="M1104.441,986.575c-4.27.284-11.777-.42-12.063-1.209-.985-2.731-.29-3.579-1.111-7.76l2.06-5.8s-.341,6.458,1.564,8.157,7.8,3.279,8.724,4.7A5.2,5.2,0,0,1,1104.441,986.575Z" transform="translate(-1080.86 -943.346)" fill="#ebf3ff"/>
          <path id="Path_2690" data-name="Path 2690" d="M1195.909,1116.51s4.213-.938,4.893-.564a9.9,9.9,0,0,1,2.549,2.209c.208.474-1.513-.36-2.073-.51a4.986,4.986,0,0,0-1.79.392,5.947,5.947,0,0,1-3.207.322Z" transform="translate(-1177.221 -1075.998)" fill="#ffb27d"/>
          <path id="Path_2691" data-name="Path 2691" d="M1001.762,825.709s-5.963.348-7.921,3.08c-2.757,3.845-8.225,20.23-5.091,22.416,3.529,2.461,16.063.644,16.063.644s.417-1.95-.163-2.893-10.011-2.467-10.446-2.9,5.441-8.487,5.441-9.793S1001.762,825.709,1001.762,825.709Z" transform="translate(-985.59 -808.811)" fill="#fff"/>
          <path id="Path_2692" data-name="Path 2692" d="M1260.31,1131.787a8.145,8.145,0,0,0,1.172,1.275.863.863,0,0,0,.476.1l-.595-1.071Z" transform="translate(-1236.525 -1090.667)" fill="#ffb27d"/>
          <path id="Path_2693" data-name="Path 2693" d="M1257.733,1116.97l2.567,1.246a.457.457,0,0,1-.425.164,6.118,6.118,0,0,1-1.113-.306Z" transform="translate(-1234.152 -1077.022)" fill="#ffb27d"/>
        </g>
      </g>
    </g>
    <g id="Group_249" data-name="Group 249" transform="translate(281.724 257.777)">
      <path id="Path_2694" data-name="Path 2694" d="M1238.5,1143.247h-11.92a.95.95,0,0,1,.95-.95H1238.5Z" transform="translate(-1226.58 -1130.265)" fill="#ed7d2b"/>
      <path id="Path_2695" data-name="Path 2695" d="M1323.939,990.267h18.429l-4.42,12.982H1319.4Z" transform="translate(-1312.054 -990.267)" fill="#ed7d2b"/>
      <path id="Path_2696" data-name="Path 2696" d="M1345.8,990.264l-4.42,12.982h-18.548l4.54-12.982Z" transform="translate(-1315.21 -990.264)" fill="#f99746"/>
      <path id="Path_2697" data-name="Path 2697" d="M1466.335,1060.318a1.2,1.2,0,0,1-1.105.9.692.692,0,0,1-.691-.9,1.2,1.2,0,0,1,1.105-.9A.692.692,0,0,1,1466.335,1060.318Z" transform="translate(-1445.685 -1053.947)" fill="#fff"/>
    </g>
    <g id="Group_253" data-name="Group 253" transform="translate(274.204 270.759)">
      <rect id="Rectangle_153" data-name="Rectangle 153" width="81.99" height="2.921" rx="1.46" transform="translate(2.785 0)" fill="#182d4f"/>
      <g id="Group_250" data-name="Group 250" transform="translate(76.995 1.486)">
        <path id="Path_2698" data-name="Path 2698" d="M2113.612,1222.624l.035,0a.742.742,0,0,0,.655-.825l-7.2-48.715-2.635.076,8.468,48.979A.605.605,0,0,0,2113.612,1222.624Z" transform="translate(-2104.47 -1173.08)" fill="#182d4f"/>
      </g>
      <g id="Group_251" data-name="Group 251" transform="translate(0 1.486)">
        <path id="Path_2699" data-name="Path 2699" d="M1132.259,1222.624l-.035,0a.742.742,0,0,1-.655-.825l7.2-48.715,2.635.076-8.468,48.979A.605.605,0,0,1,1132.259,1222.624Z" transform="translate(-1131.564 -1173.08)" fill="#182d4f"/>
      </g>
      <g id="Group_252" data-name="Group 252" transform="translate(16.661 1.486)">
        <path id="Path_2700" data-name="Path 2700" d="M1342.785,1222.624l-.035,0a.741.741,0,0,1-.654-.825l7.2-48.715,2.635.076-8.468,48.979A.605.605,0,0,1,1342.785,1222.624Z" transform="translate(-1342.09 -1173.08)" fill="#182d4f"/>
      </g>
    </g>
    <rect id="Rectangle_154" data-name="Rectangle 154" width="224.28" height="0.861" rx="0.431" transform="translate(200.522 321.329)" fill="#00803d"/>
    <g id="Group_254" data-name="Group 254" transform="translate(327.706 223.107)">
      <path id="Path_2701" data-name="Path 2701" d="M1887.372,1713.645h14.281c.687-.838.434-3.931.33-4.941-.021-.2-.036-.322-.036-.322s-4.877-3.9-5.547-.914c-.02.094-.045.185-.072.276-.844,2.794-4.629,4.063-6.815,4.417A2.476,2.476,0,0,0,1887.372,1713.645Z" transform="translate(-1881.061 -1615.002)" fill="#233862"/>
      <path id="Path_2702" data-name="Path 2702" d="M2022.582,1212.259c-.516,0-24.463,4.5-28.424,9.4-1.979,2.449-2.273,30.738-2.273,30.738s2.448,3.035,7.735,1.273c0,0,3.877-19.355,3.59-25.225-.079-1.623,16.362-.235,19.371-1.014s10.362-7.325,8.742-10.514S2022.582,1212.259,2022.582,1212.259Z" transform="translate(-1977.302 -1160.021)" fill="#233862"/>
      <path id="Path_2703" data-name="Path 2703" d="M1918.157,1124.727s-4.831.065-5.973.555-3.46,1.613-2.839,1.786,3.579-.071,4.219.027a10.791,10.791,0,0,0,1.82-.027h2.219Z" transform="translate(-1901.199 -1079.416)" fill="#ffb27d"/>
      <path id="Path_2704" data-name="Path 2704" d="M1836.532,903.4a8.828,8.828,0,0,0-3.246-1.405,14.048,14.048,0,0,1-2.335-.482c-1.476-.52-4.428-3.175-4.2-3.486.716-1,4.163,1.114,4.765.887s-1.157-1.477-.545-1.917c.319-.23,1.067.921,1.677,1.037.826.156,1.472,1.323,1.721,1.384a19.312,19.312,0,0,1,2.605,1.7Z" transform="translate(-1825.222 -869.679)" fill="#ffb27d"/>
      <path id="Path_2705" data-name="Path 2705" d="M2041.374,804.589s-3.677,1.14-7.3,11.116-5,10.515-6.316,10.907-12.876,2.693-12.876,2.693v2.961h17.811s6.678-6.353,8.681-10.63S2041.374,804.589,2041.374,804.589Z" transform="translate(-1998.48 -784.613)" fill="#ed7d2b"/>
      <path id="Path_2706" data-name="Path 2706" d="M1807.619,1713.645H1821.9c.687-.838.434-3.931.33-4.941-.021-.2-.036-.322-.036-.322s-4.877-3.9-5.547-.914c-.021.094-.045.185-.072.276-.844,2.794-4.629,4.063-6.815,4.417A2.475,2.475,0,0,0,1807.619,1713.645Z" transform="translate(-1807.619 -1615.002)" fill="#1b3051"/>
      <path id="Path_2707" data-name="Path 2707" d="M1933.412,1212.259c-.516,0-24.463,4.5-28.424,9.4-1.979,2.449-2.273,30.738-2.273,30.738s2.448,3.035,7.735,1.273c0,0,3.877-19.355,3.59-25.225-.079-1.623,16.362-.235,19.371-1.014s10.361-7.325,8.741-10.514S1933.412,1212.259,1933.412,1212.259Z" transform="translate(-1895.189 -1160.021)" fill="#2b478b"/>
      <path id="Path_2708" data-name="Path 2708" d="M2292.1,695.5a23.256,23.256,0,0,0,5.09-1.108c1.951-.633,3.524-1.559,2.51-3.342a18.368,18.368,0,0,1-2.344-8.358l-3.631,2.926-2.467,1.987a29.581,29.581,0,0,0,.28,3.225q.074.562.175,1.21a.88.88,0,0,1-.406.884l-.056.035A1.378,1.378,0,0,0,2292.1,695.5Z" transform="translate(-2252.375 -672.366)" fill="#ffb27d"/>
      <path id="Path_2709" data-name="Path 2709" d="M2298.483,720.9a6.006,6.006,0,0,0,.091,2,10.314,10.314,0,0,0,4.255-2.113c-1.119-.307-1.527-1.517-2.361-1.4Z" transform="translate(-2259.603 -706.137)" fill="#ed975d"/>
      <path id="Path_2710" data-name="Path 2710" d="M2254,580.368s8.459,1.405,9.253-3.876,2.42-8.657-2.947-9.777-6.722.737-7.416,2.435S2251.822,579.867,2254,580.368Z" transform="translate(-2217.156 -565.251)" fill="#ffb27d"/>
      <path id="Path_2711" data-name="Path 2711" d="M2242.585,553.74a2.956,2.956,0,0,0,2.241,3.331c2.422.757,1.887,3.728,2.977,3.688s1.53-1.708,2.5-.376c.831,1.136-.691,2.484-.586,3.107.18,1.07,1.855,3.259,3.366,3.149s4.336-7.287,3.771-9.508-2.826-4.562-4.966-4.885-5.111.6-5.8.6S2242.782,553.053,2242.585,553.74Z" transform="translate(-2208.093 -552.177)" fill="#2b478b"/>
      <path id="Path_2712" data-name="Path 2712" d="M2245.653,779.917c-1.222-4.921-4.6-10.084-6.886-10.08-3.894.007-9.49,1.035-11.75,6.609-1.664,4.106-3.884,27.723-1.375,29.4,5.735,3.84,19.03,11.678,21.392,3.685C2249.2,802.21,2247.775,788.457,2245.653,779.917Z" transform="translate(-2191.52 -752.612)" fill="#f99746"/>
      <path id="Path_2713" data-name="Path 2713" d="M1950.266,800.879a4.611,4.611,0,0,0-7.136-1.987,43.637,43.637,0,0,0-4.894,4.573c-7.266,7.737-8.742,7.689-10.107,7.529s-12.894-2.607-12.894-2.607a3.484,3.484,0,0,0-.938,1.14,2.147,2.147,0,0,0-.231,1.581c-.451-.292,4.087,2.836,6.346,4.084a62.067,62.067,0,0,0,9.269,3.778,2.393,2.393,0,0,0,1.557-.023,67.079,67.079,0,0,0,18.846-10.5C1952,806.846,1951.3,803.558,1950.266,800.879Z" transform="translate(-1905.589 -778.471)" fill="#f99746"/>
      <path id="Path_2714" data-name="Path 2714" d="M2292.087,747.33l-.881-1.986s-7.89.643-9.216,5.134C2281.989,750.478,2288.105,747.426,2292.087,747.33Z" transform="translate(-2244.448 -730.057)" fill="#fff"/>
    </g>
    <g id="Group_258" data-name="Group 258" transform="translate(349.678 254.199)">
      <g id="Group_255" data-name="Group 255" transform="translate(40.06 36.898)">
        <path id="Path_2715" data-name="Path 2715" d="M2596.21,1441.77h.055a.74.74,0,0,0,.748-.791l-2.972-29.683-2.594.231,4.268,29.842A.483.483,0,0,0,2596.21,1441.77Z" transform="translate(-2591.447 -1411.295)" fill="#c4d6cb"/>
      </g>
      <g id="Group_256" data-name="Group 256" transform="translate(24.762 36.898)">
        <path id="Path_2716" data-name="Path 2716" d="M2402.906,1441.77h.054a.74.74,0,0,0,.748-.791l-2.972-29.683-2.594.231,4.268,29.842A.483.483,0,0,0,2402.906,1441.77Z" transform="translate(-2398.143 -1411.295)" fill="#c4d6cb"/>
      </g>
      <g id="Group_257" data-name="Group 257" transform="translate(0 36.898)">
        <path id="Path_2717" data-name="Path 2717" d="M2086.059,1441.77H2086a.74.74,0,0,1-.748-.791l2.972-29.683,2.594.231-4.268,29.842A.483.483,0,0,1,2086.059,1441.77Z" transform="translate(-2085.253 -1411.295)" fill="#acc1b4"/>
      </g>
      <path id="Path_2718" data-name="Path 2718" d="M2337.352,977.743l2.821-24.791c.37-3.573-.826-7.071-5.981-7.342l-9.07-.552c-5.376-.222-7.8,4.252-8.483,7.7l-5.385,27.252Z" transform="translate(-2293.368 -945.05)" fill="#d7e5dd"/>
      <path id="Rectangle_155" data-name="Rectangle 155" d="M2.376,0H43.2a0,0,0,0,1,0,0V2.376A2.376,2.376,0,0,1,40.82,4.752H2.376A2.376,2.376,0,0,1,0,2.376v0A2.376,2.376,0,0,1,2.376,0Z" transform="translate(0.742 32.581)" fill="#acc1b4"/>
      <path id="Rectangle_156" data-name="Rectangle 156" d="M2.376,0H26.053a0,0,0,0,1,0,0V2.376a2.376,2.376,0,0,1-2.376,2.376H2.376A2.376,2.376,0,0,1,0,2.376v0A2.376,2.376,0,0,1,2.376,0Z" transform="translate(17.885 32.581)" fill="#c4d6cb"/>
    </g>
  </g>
</svg>
