<svg xmlns="http://www.w3.org/2000/svg" width="244" height="179.956" viewBox="0 0 244 179.956">
  <g id="img-khoahoccongnghe" transform="translate(0 -54.953)">
    <path id="Path_3394" data-name="Path 3394" d="M217.712,321.8s-26.617-32.062-13.608-65.07c8.479-21.515,40.285-33.3,58.235-21.515,7.645,5.021,32.172.169,45.268-20.619,25.449-40.4,114.266-15.863,98.1,46.16-7.825,30.015,23.814,31.106,7.693,61.108Z" transform="translate(-186.662 -103.277)" fill="#ecf4f3"/>
    <g id="Background_Complete" data-name="Background Complete" transform="translate(0 54.953)">
      <g id="Group_457" data-name="Group 457">
        <rect id="Rectangle_208" data-name="Rectangle 208" width="16.164" height="0.122" transform="translate(203.388 167.648)" fill="#ebebeb"/>
        <rect id="Rectangle_209" data-name="Rectangle 209" width="4.242" height="0.122" transform="translate(157.393 168.973)" fill="#ebebeb"/>
        <rect id="Rectangle_210" data-name="Rectangle 210" width="9.366" height="0.122" transform="translate(193.534 163.117)" fill="#ebebeb"/>
        <rect id="Rectangle_211" data-name="Rectangle 211" width="21.078" height="0.122" transform="translate(25.6 163.937)" fill="#ebebeb"/>
        <rect id="Rectangle_212" data-name="Rectangle 212" width="3.091" height="0.122" transform="translate(51.023 163.937)" fill="#ebebeb"/>
        <rect id="Rectangle_213" data-name="Rectangle 213" width="45.714" height="0.122" transform="translate(64.158 165.997)" fill="#ebebeb"/>
        <path id="Path_2953" data-name="Path 2953" d="M135.225,192.982H40.993a2.789,2.789,0,0,1-2.786-2.785V57.738a2.788,2.788,0,0,1,2.786-2.785h94.232a2.788,2.788,0,0,1,2.785,2.785V190.2A2.789,2.789,0,0,1,135.225,192.982ZM40.993,55.075a2.666,2.666,0,0,0-2.664,2.663V190.2a2.666,2.666,0,0,0,2.664,2.663h94.232a2.666,2.666,0,0,0,2.663-2.663V57.738a2.666,2.666,0,0,0-2.663-2.663Z" transform="translate(-19.562 -54.953)" fill="#ebebeb"/>
        <path id="Path_2954" data-name="Path 2954" d="M351.522,192.982H257.29a2.788,2.788,0,0,1-2.785-2.785V57.738a2.788,2.788,0,0,1,2.785-2.785h94.232a2.788,2.788,0,0,1,2.785,2.785V190.2A2.789,2.789,0,0,1,351.522,192.982ZM257.29,55.075a2.666,2.666,0,0,0-2.663,2.663V190.2a2.666,2.666,0,0,0,2.663,2.663h94.232a2.667,2.667,0,0,0,2.663-2.663V57.738a2.666,2.666,0,0,0-2.663-2.663Z" transform="translate(-130.307 -54.953)" fill="#ebebeb"/>
        <rect id="Rectangle_214" data-name="Rectangle 214" width="244" height="0.122" transform="translate(0 159.793)" fill="#ebebeb"/>
      </g>
      <g id="Group_474" data-name="Group 474" transform="translate(62.591 7.32)">
        <g id="Group_458" data-name="Group 458" transform="translate(64.627 0)">
          <rect id="Rectangle_215" data-name="Rectangle 215" width="14.145" height="18.987" transform="translate(15.814 18.987) rotate(180)" fill="#f0f0f0"/>
          <rect id="Rectangle_216" data-name="Rectangle 216" width="14.145" height="18.987" transform="translate(14.642 19.378) rotate(180)" fill="#f5f5f5"/>
          <rect id="Rectangle_217" data-name="Rectangle 217" width="4.486" height="21.196" transform="translate(13.776 1.579)" fill="#e0e0e0"/>
          <path id="Path_2955" data-name="Path 2955" d="M270.873,73.187,260.693,87.57v6.814h13.776v-21.2Z" transform="translate(-260.693 -71.609)" fill="#ebebeb"/>
          <path id="Path_2956" data-name="Path 2956" d="M293.452,108.216a1.377,1.377,0,1,1-1.377-1.377A1.377,1.377,0,0,1,293.452,108.216Z" transform="translate(-276.055 -88.838)" fill="#fafafa"/>
          <rect id="Rectangle_218" data-name="Rectangle 218" width="2.754" height="8.951" transform="translate(14.642 6.553)" fill="#f0f0f0"/>
          <rect id="Rectangle_219" data-name="Rectangle 219" width="2.754" height="1.262" transform="translate(14.642 6.553)" fill="#fafafa" opacity="0.6"/>
        </g>
        <g id="Group_465" data-name="Group 465" transform="translate(46.091 9.188)">
          <g id="Group_460" data-name="Group 460" transform="translate(0 4.2)">
            <path id="Path_2957" data-name="Path 2957" d="M248.753,101.539V98.088a.331.331,0,0,0,0-.661c-1.316,0-2.632-.009-3.948-.017v4.79h3.948A.331.331,0,0,0,248.753,101.539Z" transform="translate(-234.022 -97.399)" fill="#ebebeb"/>
            <rect id="Rectangle_220" data-name="Rectangle 220" width="3.067" height="3.446" transform="translate(11.664 0.689)" fill="#f5f5f5"/>
            <path id="Path_2958" data-name="Path 2958" d="M235.386,102.234H224.754c-.731,0-1.323-.92-1.323-2.056s.592-2.056,1.323-2.056h10.632Z" transform="translate(-223.079 -97.763)" fill="#fafafa"/>
            <g id="Group_459" data-name="Group 459">
              <path id="Path_2959" data-name="Path 2959" d="M235.017,97.415c-3.481,0-6.967-.062-10.448,0-2.384.043-2.512,4.613-.174,4.773,1.63.112,3.307,0,4.94,0h5.681a.331.331,0,0,0,0-.661h-9.9c-.764,0-1.31-.008-1.605-.909-.255-.779-.175-2.37.87-2.542a2.311,2.311,0,0,1,.358,0h10.274a.331.331,0,0,0,0-.661Z" transform="translate(-222.709 -97.387)" fill="#e6e6e6"/>
            </g>
          </g>
          <g id="Group_462" data-name="Group 462" transform="translate(1.675)">
            <path id="Path_2960" data-name="Path 2960" d="M249.286,92.471V89.4a.294.294,0,0,0,0-.587c-1.169,0-2.338-.008-3.508-.015v4.257h3.508A.294.294,0,0,0,249.286,92.471Z" transform="translate(-236.196 -88.791)" fill="#ebebeb"/>
            <rect id="Rectangle_221" data-name="Rectangle 221" width="2.725" height="3.063" transform="translate(10.365 0.612)" fill="#f5f5f5"/>
            <path id="Path_2961" data-name="Path 2961" d="M237.407,93.088h-9.448c-.65,0-1.176-.818-1.176-1.827s.527-1.827,1.176-1.827h9.448Z" transform="translate(-226.47 -89.115)" fill="#fafafa"/>
            <g id="Group_461" data-name="Group 461">
              <path id="Path_2962" data-name="Path 2962" d="M237.079,88.806c-3.093,0-6.192-.056-9.284,0-2.119.038-2.233,4.1-.155,4.242,1.449.1,2.939,0,4.39,0h5.049a.294.294,0,0,0,0-.587h-8.8c-.679,0-1.164-.008-1.426-.808-.227-.693-.155-2.106.773-2.259a2.1,2.1,0,0,1,.318,0h9.13a.294.294,0,0,0,0-.587Z" transform="translate(-226.142 -88.781)" fill="#e6e6e6"/>
            </g>
          </g>
          <g id="Group_464" data-name="Group 464" transform="translate(0 8.89)">
            <path id="Path_2963" data-name="Path 2963" d="M248.753,111.151V107.7a.331.331,0,0,0,0-.661c-1.316,0-2.632-.009-3.948-.017v4.79h3.948A.331.331,0,0,0,248.753,111.151Z" transform="translate(-234.022 -107.011)" fill="#ebebeb"/>
            <rect id="Rectangle_222" data-name="Rectangle 222" width="3.067" height="3.446" transform="translate(11.664 0.689)" fill="#f5f5f5"/>
            <path id="Path_2964" data-name="Path 2964" d="M235.386,111.846H224.754c-.731,0-1.323-.92-1.323-2.056s.592-2.056,1.323-2.056h10.632Z" transform="translate(-223.079 -107.375)" fill="#fafafa"/>
            <g id="Group_463" data-name="Group 463">
              <path id="Path_2965" data-name="Path 2965" d="M235.017,107.027c-3.481,0-6.967-.062-10.448,0-2.384.043-2.512,4.613-.174,4.773,1.63.112,3.307,0,4.94,0h5.681a.331.331,0,0,0,0-.661h-9.9c-.764,0-1.31-.008-1.605-.909-.255-.779-.175-2.37.87-2.542a2.311,2.311,0,0,1,.358,0h10.274a.331.331,0,0,0,0-.661Z" transform="translate(-222.709 -106.999)" fill="#e6e6e6"/>
            </g>
          </g>
        </g>
        <g id="Group_468" data-name="Group 468" transform="translate(0 22.601)">
          <rect id="Rectangle_223" data-name="Rectangle 223" width="118.818" height="3.438" transform="translate(0)" fill="#f5f5f5"/>
          <g id="Group_466" data-name="Group 466" transform="translate(112.415 3.438)">
            <path id="Path_2966" data-name="Path 2966" d="M358.619,131.67v-8.359H362.8Z" transform="translate(-358.619 -123.312)" fill="#e0e0e0"/>
            <path id="Path_2967" data-name="Path 2967" d="M360.709,131.67l4.179-8.359H362.8l-4.179,8.359Z" transform="translate(-358.619 -123.312)" fill="#f5f5f5"/>
          </g>
          <g id="Group_467" data-name="Group 467" transform="translate(0 3.438)">
            <path id="Path_2968" data-name="Path 2968" d="M136.722,131.67v-8.359h-4.179Z" transform="translate(-130.453 -123.312)" fill="#e0e0e0"/>
            <path id="Path_2969" data-name="Path 2969" d="M132.44,131.67l-4.179-8.359h2.09l4.179,8.359Z" transform="translate(-128.26 -123.312)" fill="#f5f5f5"/>
          </g>
        </g>
        <g id="Group_469" data-name="Group 469" transform="translate(87.368 4.149)">
          <path id="Path_2970" data-name="Path 2970" d="M325.477,87.863v-.316a9.092,9.092,0,1,0-18.184,0v9.409h18.184Z" transform="translate(-307.293 -78.454)" fill="#f0f0f0"/>
          <path id="Path_2971" data-name="Path 2971" d="M311.368,89.633a7.1,7.1,0,1,0,7.1-7.1A7.1,7.1,0,0,0,311.368,89.633Z" transform="translate(-309.379 -80.54)" fill="#fafafa"/>
          <path id="Path_2972" data-name="Path 2972" d="M318.472,83.651a7.1,7.1,0,0,0-7.076,6.543c-.014-.186-.028-.371-.028-.561a7.1,7.1,0,1,1,14.207,0c0,.189-.014.375-.028.561A7.1,7.1,0,0,0,318.472,83.651Z" transform="translate(-309.379 -80.54)" fill="#e6e6e6"/>
          <path id="Path_2973" data-name="Path 2973" d="M315.943,92.371h3.735V88.636a.752.752,0,1,1,1.5,0v4.486a.752.752,0,0,1-.752.752h-4.487a.752.752,0,1,1,0-1.5Z" transform="translate(-311.337 -83.282)" fill="#e0e0e0"/>
          <path id="Path_2974" data-name="Path 2974" d="M315.943,97.049a.752.752,0,1,1,0-1.5h4.487a.752.752,0,1,1,0,1.5Z" transform="translate(-311.337 -87.205)" fill="#f5f5f5"/>
          <path id="Path_2975" data-name="Path 2975" d="M324.384,87.1a.752.752,0,0,1,1.5,0V91.59a.752.752,0,0,1-1.5,0Z" transform="translate(-316.044 -82.498)" fill="#ebebeb"/>
        </g>
        <g id="Group_473" data-name="Group 473" transform="translate(15.398 5.69)">
          <g id="Group_471" data-name="Group 471" transform="translate(11.561)">
            <g id="Group_470" data-name="Group 470">
              <path id="Path_2976" data-name="Path 2976" d="M196.9,98.605h-13.4l1.487-16.993h13.4Z" transform="translate(-183.505 -81.612)" fill="#ebebeb"/>
              <path id="Path_2977" data-name="Path 2977" d="M210.963,98.605h.64l1.487-16.993h-.64Z" transform="translate(-197.564 -81.612)" fill="#e0e0e0"/>
              <path id="Path_2978" data-name="Path 2978" d="M197.283,98.69H186.615L187.8,85.162h10.667Z" transform="translate(-185.098 -83.43)" fill="#e0e0e0"/>
              <path id="Path_2979" data-name="Path 2979" d="M197.526,98.745h-8.911l.989-11.3h8.911Z" transform="translate(-186.121 -84.598)" fill="#fafafa"/>
            </g>
            <path id="Path_2980" data-name="Path 2980" d="M197.15,97.361a3.068,3.068,0,1,0,0-6.136C195.455,91.225,195.455,97.361,197.15,97.361Z" transform="translate(-189.841 -86.534)" fill="#e6e6e6"/>
          </g>
          <g id="Group_472" data-name="Group 472" transform="translate(0 6.475)">
            <path id="Path_2981" data-name="Path 2981" d="M173.153,105.4l.92-10.518H160.735l-.92,10.518Z" transform="translate(-159.814 -94.881)" fill="#f0f0f0"/>
            <path id="Path_2982" data-name="Path 2982" d="M187.148,105.4l.92-10.518h.718l-.92,10.518Z" transform="translate(-173.809 -94.881)" fill="#e0e0e0"/>
            <path id="Path_2983" data-name="Path 2983" d="M173.412,105.451l.733-8.373H163.526l-.733,8.373Z" transform="translate(-161.34 -96.006)" fill="#fafafa"/>
            <path id="Path_2984" data-name="Path 2984" d="M173.579,105.485l.612-6.995H165.32l-.612,6.995Z" transform="translate(-162.32 -96.729)" fill="#ebebeb"/>
            <path id="Path_2985" data-name="Path 2985" d="M173.584,104.7a1.983,1.983,0,0,0,0-3.965C172.489,100.735,172.489,104.7,173.584,104.7Z" transform="translate(-166.444 -97.878)" fill="#f5f5f5"/>
          </g>
        </g>
      </g>
      <g id="Group_476" data-name="Group 476" transform="translate(29.793 104.029)">
        <path id="Path_2986" data-name="Path 2986" d="M69.556,309.353a.189.189,0,0,1-.063-.136c-.044-.958-.62-10.359-6.377-16.8-4.871-5.448.125-1.56,2.293.192a.2.2,0,0,0,.3-.258c-1.528-2.583-5.362-9.411-4.033-10.74,1.257-1.257,3.852,4.98,5.011,8a.2.2,0,0,0,.386-.092c-.334-3.2-.82-9.9.983-9.661,1.786.233,1.287,9.078.935,13.407a.2.2,0,0,0,.392.074c.806-2.663,2.339-6.6,4.14-5.557,2.664,1.544-3.922,6.964-3.511,12.848C70.413,306.4,70.52,310.184,69.556,309.353Z" transform="translate(-61.051 -274.132)" fill="#f5f5f5"/>
        <g id="Group_475" data-name="Group 475" transform="translate(11.246 4.06)">
          <path id="Path_2987" data-name="Path 2987" d="M84.1,309.27c-.012-.016.033-.094.087-.132,6.632-4.59,5-14.692,2.984-20.959a16.909,16.909,0,0,1-.984-4.331,26.9,26.9,0,0,1,3.2,5.92c.124.265.433.172.388-.116-.5-3.233-.7-13.386,2.231-13.206,1.326.082-.149,8.914-.205,10.716-.009.29.35.4.425.13.868-3.133,6.857-9.608,7.945-8.314.462.55-2.337,3.594-3.291,5.023a42.855,42.855,0,0,0-4.154,8.664c-.1.264.224.541.365.32,1.061-1.675,5.022-5.7,6.362-3.706.972,1.446-1.622,3.54-2.9,4.782a21.567,21.567,0,0,0-5.527,7.558C90.275,303.616,84.9,310.341,84.1,309.27Z" transform="translate(-84.096 -276.446)" fill="#f5f5f5"/>
        </g>
        <path id="Path_2988" data-name="Path 2988" d="M78.484,304.044a.231.231,0,0,0,.068-.169c-.009-1.166.071-12.617,6.636-20.816,5.554-6.935-.255-1.886-2.771.384a.244.244,0,0,1-.381-.293c1.685-3.237,5.89-11.78,4.189-13.306-1.608-1.443-4.349,6.3-5.556,10.048a.244.244,0,0,1-.476-.087c.194-3.909.344-12.069-1.83-11.665-2.153.4-.964,11.107-.251,16.339a.244.244,0,0,1-.47.116c-1.154-3.181-3.275-7.859-5.392-6.474-3.133,2.05,5.221,8.2,5.108,15.367C77.248,300.516,77.367,305.116,78.484,304.044Z" transform="translate(-66.424 -268.126)" fill="#e6e6e6"/>
        <path id="Path_2989" data-name="Path 2989" d="M82.742,356.231a116.028,116.028,0,0,0,3.3-20.444H71.2a116.04,116.04,0,0,0,3.3,20.444,3.121,3.121,0,0,0,3.017,2.309h2.208A3.122,3.122,0,0,0,82.742,356.231Z" transform="translate(-66.247 -302.769)" fill="#e6e6e6"/>
      </g>
      <g id="Group_477" data-name="Group 477" transform="translate(189.35 123.559)">
        <path id="Path_2990" data-name="Path 2990" d="M408.726,346.254h-13.36a3.053,3.053,0,0,1-3.049-2.891l-1.634-30.639H413.41l-1.634,30.639A3.053,3.053,0,0,1,408.726,346.254Z" transform="translate(-389.38 -310.491)" fill="#e6e6e6"/>
        <rect id="Rectangle_224" data-name="Rectangle 224" width="6.158" height="6.158" transform="translate(9.588 4.112)" fill="#fafafa"/>
        <rect id="Rectangle_225" data-name="Rectangle 225" width="6.158" height="6.158" transform="translate(9.588 11.787)" fill="#fafafa"/>
        <rect id="Rectangle_226" data-name="Rectangle 226" width="6.158" height="6.158" transform="translate(9.588 19.462)" fill="#fafafa"/>
        <rect id="Rectangle_227" data-name="Rectangle 227" width="6.158" height="6.158" transform="translate(9.588 27.136)" fill="#fafafa"/>
        <rect id="Rectangle_228" data-name="Rectangle 228" width="25.334" height="2.233" rx="1.116" fill="#f5f5f5"/>
        <path id="Path_2991" data-name="Path 2991" d="M427.107,363.755h-3.58v6.158h3.127a1.241,1.241,0,0,0,.152-.517Z" transform="translate(-406.196 -336.619)" fill="#fafafa"/>
        <path id="Path_2992" data-name="Path 2992" d="M400.654,363.755h-3.58l.3,5.641a1.24,1.24,0,0,0,.152.517h3.127Z" transform="translate(-392.652 -336.619)" fill="#fafafa"/>
        <path id="Path_2993" data-name="Path 2993" d="M400.225,348.028h-3.989l.328,6.158h3.661Z" transform="translate(-392.222 -328.567)" fill="#fafafa"/>
        <path id="Path_2994" data-name="Path 2994" d="M399.8,332.3h-4.4l.328,6.158h4.07Z" transform="translate(-391.793 -320.515)" fill="#fafafa"/>
        <path id="Path_2995" data-name="Path 2995" d="M399.366,316.575h-4.808l.329,6.158h4.48Z" transform="translate(-391.363 -312.463)" fill="#fafafa"/>
        <path id="Path_2996" data-name="Path 2996" d="M423.527,348.028v6.158h3.661l.328-6.158Z" transform="translate(-406.196 -328.567)" fill="#fafafa"/>
        <path id="Path_2997" data-name="Path 2997" d="M423.527,332.3v6.158h4.07l.328-6.158Z" transform="translate(-406.196 -320.515)" fill="#fafafa"/>
        <path id="Path_2998" data-name="Path 2998" d="M423.527,316.575v6.158h4.48l.329-6.158Z" transform="translate(-406.196 -312.463)" fill="#fafafa"/>
      </g>
    </g>
    <g id="Shadow" transform="translate(25.029 223.857)">
      <ellipse id="_Path_" data-name="&lt;Path&gt;" cx="94.618" cy="5.526" rx="94.618" ry="5.526" fill="#f5f5f5"/>
    </g>
    <g id="Extraction" transform="translate(38.395 99.86)">
      <g id="Group_480" data-name="Group 480">
        <g id="Group_478" data-name="Group 478" transform="translate(0)">
          <path id="Path_2999" data-name="Path 2999" d="M233.778,193.089c-3.454,0-7.534-6.312-11.134-11.881a68.852,68.852,0,0,0-7.1-9.762h8.075v-3.9h-9.9a63.986,63.986,0,0,0,5.168-7.272c2.7-4.184,6.071-9.391,8.644-9.391h7.574v-3.9h-7.574c-4.7,0-8.207,5.428-11.922,11.175-2.7,4.184-6.071,9.391-8.644,9.391H120.52c-2.573,0-5.939-5.207-8.644-9.391-3.716-5.747-7.224-11.175-11.923-11.175H92.38v3.9h7.574c2.573,0,5.939,5.207,8.644,9.391a63.983,63.983,0,0,0,5.168,7.272H78.678v3.9h39.361a68.852,68.852,0,0,0-7.1,9.762c-3.6,5.569-7.681,11.881-11.135,11.881H85.452v3.9H99.809c5.579,0,9.87-6.638,14.413-13.666,3.6-5.569,7.681-11.881,11.134-11.881h82.874c3.454,0,7.534,6.312,11.135,11.881,4.543,7.028,8.834,13.666,14.413,13.666h14.357v-3.9Z" transform="translate(-78.678 -146.975)" fill="#263238"/>
        </g>
        <g id="Group_479" data-name="Group 479" transform="translate(0 1.663)" opacity="0.4">
          <path id="Path_3000" data-name="Path 3000" d="M351.506,195.209l-.207.3c2.876,1.984,5.6,5.982,8.6,10.618l.307-.2C357.18,201.261,354.438,197.231,351.506,195.209Z" transform="translate(-218.26 -173.333)" fill="#fff"/>
          <path id="Path_3001" data-name="Path 3001" d="M377.022,228.963l-.3.21a34,34,0,0,0,4.411,5.348l.25-.267A33.653,33.653,0,0,1,377.022,228.963Z" transform="translate(-231.276 -190.615)" fill="#fff"/>
          <path id="Path_3002" data-name="Path 3002" d="M370.834,220.337c.631.976,1.263,1.947,1.9,2.89l.3-.2c-.632-.941-1.263-1.911-1.893-2.885Z" transform="translate(-228.262 -186.097)" fill="#fff"/>
          <path id="Path_3003" data-name="Path 3003" d="M388.727,242.036l-.215.3a6.629,6.629,0,0,0,3.9,1.456H402.1v-.366h-9.684A6.279,6.279,0,0,1,388.727,242.036Z" transform="translate(-237.313 -197.309)" fill="#fff"/>
          <rect id="Rectangle_229" data-name="Rectangle 229" width="2.928" height="0.366" transform="translate(166.529 46.114)" fill="#fff"/>
          <rect id="Rectangle_230" data-name="Rectangle 230" width="2.928" height="0.366" transform="translate(0 20.566)" fill="#fff"/>
          <rect id="Rectangle_231" data-name="Rectangle 231" width="11.354" height="0.366" transform="translate(5.767 20.566)" fill="#fff"/>
          <path id="Path_3004" data-name="Path 3004" d="M119.578,191.588v.366h22.709v-.366h-.826a4.773,4.773,0,0,1-2.636-.895l-.2.306a6.623,6.623,0,0,0,1.093.589Z" transform="translate(-99.619 -171.021)" fill="#fff"/>
          <rect id="Rectangle_232" data-name="Rectangle 232" width="11.354" height="0.366" transform="translate(102.277 20.566)" fill="#fff"/>
          <path id="Path_3005" data-name="Path 3005" d="M340.055,191.954v-.366h-9.147A6.624,6.624,0,0,0,332,191l-.2-.306a4.773,4.773,0,0,1-2.636.895H317.346v.366h13.083a5.231,5.231,0,0,1,2.014.427l.141-.338c-.082-.034-.163-.059-.244-.089Z" transform="translate(-200.876 -171.021)" fill="#fff"/>
          <rect id="Rectangle_233" data-name="Rectangle 233" width="5.677" height="0.366" transform="translate(93.762 20.566)" fill="#fff"/>
          <rect id="Rectangle_234" data-name="Rectangle 234" width="22.708" height="0.366" transform="translate(68.215 20.566)" fill="#fff"/>
          <rect id="Rectangle_235" data-name="Rectangle 235" width="2.928" height="0.366" transform="translate(142.017 20.566)" fill="#fff"/>
          <path id="Path_3006" data-name="Path 3006" d="M355.63,174.411l-.307-.2a42.2,42.2,0,0,1-5.074,6.722l.256.261A42.463,42.463,0,0,0,355.63,174.411Z" transform="translate(-217.722 -162.582)" fill="#fff"/>
          <path id="Path_3007" data-name="Path 3007" d="M373.11,150.748h2.53v-.366h-2.53c-3.727,0-7.114,5.233-10.1,9.849l.307.2C366.253,155.892,369.582,150.748,373.11,150.748Z" transform="translate(-224.255 -150.382)" fill="#fff"/>
          <rect id="Rectangle_236" data-name="Rectangle 236" width="2.928" height="0.366" transform="translate(153.501)" fill="#fff"/>
          <path id="Path_3008" data-name="Path 3008" d="M150.09,180.933a42.2,42.2,0,0,1-5.074-6.722l-.307.2a42.46,42.46,0,0,0,5.125,6.784Z" transform="translate(-112.486 -162.582)" fill="#fff"/>
          <path id="Path_3009" data-name="Path 3009" d="M129.415,160.429l.307-.2c-2.988-4.616-6.375-9.849-10.1-9.849h-2.53v.366h2.53C123.149,150.748,126.478,155.892,129.415,160.429Z" transform="translate(-98.345 -150.382)" fill="#fff"/>
          <rect id="Rectangle_237" data-name="Rectangle 237" width="2.928" height="0.366" transform="translate(13.701)" fill="#fff"/>
          <path id="Path_3010" data-name="Path 3010" d="M188.473,192.526h-.863v.366h12.217v-.366H188.473Z" transform="translate(-134.451 -171.96)" fill="#fff"/>
          <path id="Path_3011" data-name="Path 3011" d="M148.936,205.93l.307.2c3-4.636,5.722-8.634,8.6-10.618l-.208-.3C154.7,197.232,151.961,201.262,148.936,205.93Z" transform="translate(-114.65 -173.334)" fill="#fff"/>
          <path id="Path_3012" data-name="Path 3012" d="M172.07,192.526H170.9v.141a6.181,6.181,0,0,0-.983.314l.141.338a5.236,5.236,0,0,1,2.015-.427h4.754v-.366H172.07Z" transform="translate(-125.391 -171.96)" fill="#fff"/>
          <path id="Path_3013" data-name="Path 3013" d="M111.82,243.422h-9.684v.366h9.684a6.628,6.628,0,0,0,3.9-1.456l-.215-.3A6.278,6.278,0,0,1,111.82,243.422Z" transform="translate(-90.688 -197.309)" fill="#fff"/>
          <path id="Path_3014" data-name="Path 3014" d="M143.143,223.023l.3.2c.633-.943,1.265-1.914,1.9-2.89l-.307-.2C144.406,221.112,143.775,222.081,143.143,223.023Z" transform="translate(-111.684 -186.097)" fill="#fff"/>
          <path id="Path_3015" data-name="Path 3015" d="M132.213,234.254l.25.267a33.974,33.974,0,0,0,4.411-5.348l-.3-.21A33.649,33.649,0,0,1,132.213,234.254Z" transform="translate(-106.088 -190.615)" fill="#fff"/>
          <rect id="Rectangle_238" data-name="Rectangle 238" width="2.928" height="0.366" transform="translate(6.774 46.114)" fill="#fff"/>
        </g>
      </g>
    </g>
    <g id="Folders" transform="translate(30.749 85.508)">
      <g id="Group_484" data-name="Group 484" transform="translate(7 52.987)">
        <g id="Group_481" data-name="Group 481" transform="translate(3.1)">
          <path id="Path_3016" data-name="Path 3016" d="M102.554,226.146H98.975a2.511,2.511,0,0,0-2.093,1.124l-.524.791a2.3,2.3,0,0,1-1.92,1.032H85.208a1.5,1.5,0,0,0-1.5,1.5v14.414H104.52V229.093l-.183-1.384A1.8,1.8,0,0,0,102.554,226.146Z" transform="translate(-83.709 -226.146)" fill="#00803d"/>
          <path id="Path_3017" data-name="Path 3017" d="M102.554,226.146H98.975a2.511,2.511,0,0,0-2.093,1.124l-.524.791a2.3,2.3,0,0,1-1.92,1.032H85.208a1.5,1.5,0,0,0-1.5,1.5v14.414H104.52V229.093l-.183-1.384A1.8,1.8,0,0,0,102.554,226.146Z" transform="translate(-83.709 -226.146)" fill="#00803d" opacity="0.2"/>
        </g>
        <g id="Group_482" data-name="Group 482" transform="translate(4.661 4.768)">
          <rect id="Rectangle_239" data-name="Rectangle 239" width="17.69" height="12.097" fill="#263238"/>
          <rect id="Rectangle_240" data-name="Rectangle 240" width="17.69" height="12.097" fill="#fff" opacity="0.9"/>
        </g>
        <g id="Group_483" data-name="Group 483" transform="translate(0 6.069)">
          <path id="Path_3018" data-name="Path 3018" d="M101.267,251.373H80.456L77.4,240.255a1.323,1.323,0,0,1,1.276-1.673H95.734a2.651,2.651,0,0,1,2.557,1.949Z" transform="translate(-77.356 -238.582)" fill="#8ac1a3"/>
          <path id="Path_3019" data-name="Path 3019" d="M101.267,251.373H80.456L77.4,240.255a1.323,1.323,0,0,1,1.276-1.673H95.734a2.651,2.651,0,0,1,2.557,1.949Z" transform="translate(-77.356 -238.582)" fill="#8ac1a3" opacity="0.6"/>
        </g>
      </g>
      <g id="Group_492" data-name="Group 492" transform="translate(3.826)">
        <g id="Group_485" data-name="Group 485">
          <path id="Path_3020" data-name="Path 3020" d="M72.973,117.566h3.861a2.708,2.708,0,0,1,2.257,1.213l.565.853a2.485,2.485,0,0,0,2.071,1.113h9.958a1.617,1.617,0,0,1,1.617,1.617v14.229a1.321,1.321,0,0,1-1.321,1.321H72.172a1.321,1.321,0,0,1-1.321-1.321V120.745l.2-1.493A1.941,1.941,0,0,1,72.973,117.566Z" transform="translate(-70.851 -117.566)" fill="#7db295"/>
          <path id="Path_3021" data-name="Path 3021" d="M72.973,117.566h3.861a2.708,2.708,0,0,1,2.257,1.213l.565.853a2.485,2.485,0,0,0,2.071,1.113h9.958a1.617,1.617,0,0,1,1.617,1.617v14.229a1.321,1.321,0,0,1-1.321,1.321H72.172a1.321,1.321,0,0,1-1.321-1.321V120.745l.2-1.493A1.941,1.941,0,0,1,72.973,117.566Z" transform="translate(-70.851 -117.566)" fill="#7db295" opacity="0.6"/>
        </g>
        <g id="Group_486" data-name="Group 486" transform="translate(16.42 3.179)">
          <rect id="Rectangle_241" data-name="Rectangle 241" width="1.995" height="13.827" fill="#263238"/>
          <rect id="Rectangle_242" data-name="Rectangle 242" width="1.995" height="13.827" fill="#fff" opacity="0.5"/>
        </g>
        <rect id="Rectangle_243" data-name="Rectangle 243" width="1.531" height="1.139" transform="translate(15.946 3.836)" fill="#263238"/>
        <rect id="Rectangle_244" data-name="Rectangle 244" width="1.531" height="1.139" transform="translate(15.946 6.315)" fill="#263238"/>
        <rect id="Rectangle_245" data-name="Rectangle 245" width="1.531" height="1.139" transform="translate(15.946 8.794)" fill="#263238"/>
        <rect id="Rectangle_246" data-name="Rectangle 246" width="1.531" height="1.139" transform="translate(15.946 11.274)" fill="#263238"/>
        <rect id="Rectangle_247" data-name="Rectangle 247" width="1.531" height="1.139" transform="translate(15.946 13.753)" fill="#263238"/>
        <g id="Group_487" data-name="Group 487" transform="translate(15.946 3.836)">
          <rect id="Rectangle_248" data-name="Rectangle 248" width="1.531" height="1.139" fill="#fff" opacity="0.7"/>
          <rect id="Rectangle_249" data-name="Rectangle 249" width="1.531" height="1.139" transform="translate(0 2.479)" fill="#fff" opacity="0.7"/>
          <rect id="Rectangle_250" data-name="Rectangle 250" width="1.531" height="1.139" transform="translate(0 4.959)" fill="#fff" opacity="0.7"/>
          <rect id="Rectangle_251" data-name="Rectangle 251" width="1.531" height="1.139" transform="translate(0 7.438)" fill="#fff" opacity="0.7"/>
          <rect id="Rectangle_252" data-name="Rectangle 252" width="1.531" height="1.139" transform="translate(0 9.917)" fill="#fff" opacity="0.7"/>
        </g>
        <g id="Group_490" data-name="Group 490" transform="translate(17.43 4.974)">
          <g id="Group_488" data-name="Group 488">
            <rect id="Rectangle_253" data-name="Rectangle 253" width="1.531" height="1.139" fill="#263238"/>
            <rect id="Rectangle_254" data-name="Rectangle 254" width="1.531" height="1.139" transform="translate(0 2.479)" fill="#263238"/>
            <rect id="Rectangle_255" data-name="Rectangle 255" width="1.531" height="1.139" transform="translate(0 4.959)" fill="#263238"/>
            <rect id="Rectangle_256" data-name="Rectangle 256" width="1.531" height="1.139" transform="translate(0 7.438)" fill="#263238"/>
            <rect id="Rectangle_257" data-name="Rectangle 257" width="1.531" height="1.139" transform="translate(0 9.917)" fill="#263238"/>
          </g>
          <g id="Group_489" data-name="Group 489" opacity="0.8">
            <rect id="Rectangle_258" data-name="Rectangle 258" width="1.531" height="1.139" fill="#fff"/>
            <rect id="Rectangle_259" data-name="Rectangle 259" width="1.531" height="1.139" transform="translate(0 2.479)" fill="#fff"/>
            <rect id="Rectangle_260" data-name="Rectangle 260" width="1.531" height="1.139" transform="translate(0 4.959)" fill="#fff"/>
            <rect id="Rectangle_261" data-name="Rectangle 261" width="1.531" height="1.139" transform="translate(0 7.438)" fill="#fff"/>
            <rect id="Rectangle_262" data-name="Rectangle 262" width="1.531" height="1.139" transform="translate(0 9.917)" fill="#fff"/>
          </g>
        </g>
        <g id="Group_491" data-name="Group 491" transform="translate(15.283 16.03)">
          <path id="Path_3022" data-name="Path 3022" d="M102.168,150.415v4.535h4.389v-4.535Zm3.683,3.712h-2.909v-2.889h2.909Z" transform="translate(-102.168 -150.415)" fill="#263238"/>
          <path id="Path_3023" data-name="Path 3023" d="M102.168,150.415v4.535h4.389v-4.535Zm3.683,3.712h-2.909v-2.889h2.909Z" transform="translate(-102.168 -150.415)" fill="#fff" opacity="0.7"/>
        </g>
      </g>
      <g id="Group_502" data-name="Group 502" transform="translate(0 26.148)">
        <g id="Group_493" data-name="Group 493">
          <path id="Path_3024" data-name="Path 3024" d="M83.354,171.148H63.011v4.535l4.528,4.528H87.881v-4.535Z" transform="translate(-63.011 -171.148)" fill="#3c9665"/>
          <path id="Path_3025" data-name="Path 3025" d="M83.354,171.148H63.011v4.535l4.528,4.528H87.881v-4.535Z" transform="translate(-63.011 -171.148)" fill="#3c9665" opacity="0.3"/>
        </g>
        <g id="Group_494" data-name="Group 494" transform="translate(4.528 9.059)">
          <rect id="Rectangle_263" data-name="Rectangle 263" width="20.343" height="4.535" fill="#429367"/>
          <rect id="Rectangle_264" data-name="Rectangle 264" width="20.343" height="4.535" fill="#429367" opacity="0.3"/>
        </g>
        <g id="Group_495" data-name="Group 495" transform="translate(4.528 13.59)">
          <rect id="Rectangle_265" data-name="Rectangle 265" width="20.343" height="4.535" fill="#69a885"/>
          <rect id="Rectangle_266" data-name="Rectangle 266" width="20.343" height="4.535" fill="#69a885" opacity="0.6"/>
        </g>
        <g id="Group_496" data-name="Group 496" transform="translate(4.528 4.528)">
          <rect id="Rectangle_267" data-name="Rectangle 267" width="20.343" height="4.535" fill="#00803d"/>
        </g>
        <g id="Group_497" data-name="Group 497" transform="translate(7.673)">
          <path id="Path_3026" data-name="Path 3026" d="M83.262,189.273h4.566v-13.6L83.3,171.148H78.734l4.528,4.528Z" transform="translate(-78.734 -171.148)" fill="#033f1e"/>
          <path id="Path_3027" data-name="Path 3027" d="M83.262,189.273h4.566v-13.6L83.3,171.148H78.734l4.528,4.528Z" transform="translate(-78.734 -171.148)" fill="#033f1e" opacity="0.2"/>
        </g>
        <g id="Group_498" data-name="Group 498" transform="translate(10.986 7.767)">
          <path id="Path_3028" data-name="Path 3028" d="M85.523,187.065v7.118h6.889v-7.118Zm5.781,5.826H86.738v-4.535H91.3Z" transform="translate(-85.523 -187.065)" fill="#fff"/>
          <path id="Path_3029" data-name="Path 3029" d="M85.523,187.065v7.118h6.889v-7.118Zm5.781,5.826H86.738v-4.535H91.3Z" transform="translate(-85.523 -187.065)" fill="#fff" opacity="0.5"/>
        </g>
        <g id="Group_499" data-name="Group 499">
          <path id="Path_3030" data-name="Path 3030" d="M63.011,171.148v4.535l4.528,4.528v-4.535Z" transform="translate(-63.011 -171.148)" fill="#263238"/>
          <path id="Path_3031" data-name="Path 3031" d="M63.011,171.148v4.535l4.528,4.528v-4.535Z" transform="translate(-63.011 -171.148)" fill="#fff" opacity="0.5"/>
        </g>
        <g id="Group_500" data-name="Group 500" transform="translate(0 4.531)">
          <path id="Path_3032" data-name="Path 3032" d="M63.011,180.434v4.535l4.528,4.528v-4.535Z" transform="translate(-63.011 -180.434)" fill="#263238"/>
          <path id="Path_3033" data-name="Path 3033" d="M63.011,180.434v4.535l4.528,4.528v-4.535Z" transform="translate(-63.011 -180.434)" fill="#fff" opacity="0.6"/>
        </g>
        <g id="Group_501" data-name="Group 501" transform="translate(0 9.062)">
          <path id="Path_3034" data-name="Path 3034" d="M63.011,189.719v4.535l4.528,4.528v-4.535Z" transform="translate(-63.011 -189.719)" fill="#263238"/>
          <path id="Path_3035" data-name="Path 3035" d="M63.011,189.719v4.535l4.528,4.528v-4.535Z" transform="translate(-63.011 -189.719)" fill="#fff" opacity="0.8"/>
        </g>
      </g>
    </g>
    <g id="Documents" transform="translate(180.581 86.591)">
      <g id="Group_515" data-name="Group 515" transform="translate(8.995 45.923)">
        <g id="Group_503" data-name="Group 503">
          <rect id="Rectangle_268" data-name="Rectangle 268" width="22.186" height="29.855" fill="#ecf4f3"/>
          <rect id="Rectangle_269" data-name="Rectangle 269" width="22.186" height="29.855" fill="#ecf4f3" opacity="0.7"/>
        </g>
        <rect id="Rectangle_270" data-name="Rectangle 270" width="19.287" height="7.771" transform="translate(1.449 1.449)" fill="#fff" opacity="0.7"/>
        <rect id="Rectangle_271" data-name="Rectangle 271" width="19.287" height="7.771" transform="translate(1.449 11.042)" fill="#fff" opacity="0.7"/>
        <path id="Path_3036" data-name="Path 3036" d="M410.733,222.643l-1.8-2.194-2.222,2.709-2.22-3.191-2.358,2.358-2.313-1.3-2.1,3.494-2.1-3.494-2.388,1.349-1.778-1v.832l1.778,1,2.131-1.2,2.361,3.921L400.078,222l2.179,1.225,2.134-2.134,2.272,3.267,2.27-2.767,1.8,2.193Z" transform="translate(-389.996 -217)" fill="#00803d"/>
        <path id="Path_3037" data-name="Path 3037" d="M410.733,239.9l-1.813,1.024-2.388-1.348-2.1,3.494-2.1-3.493-2.313,1.3-2.358-2.358-2.22,3.191L393.21,239l-1.765,2.151v1.142l1.765-2.151,2.27,2.766,2.272-3.267,2.134,2.134,2.179-1.225,2.362,3.922,2.362-3.921,2.131,1.2,1.813-1.024Z" transform="translate(-389.996 -226.499)" fill="#94c4a9"/>
        <g id="Group_514" data-name="Group 514" transform="translate(9.065 20.271)">
          <g id="Group_508" data-name="Group 508">
            <g id="Group_504" data-name="Group 504">
              <path id="Path_3038" data-name="Path 3038" d="M407.4,256.153h11.051a.363.363,0,0,0,0-.725H407.4a.363.363,0,0,0,0,.725Z" transform="translate(-407.051 -255.428)" fill="#263238"/>
            </g>
            <g id="Group_505" data-name="Group 505" transform="translate(0 1.973)">
              <path id="Path_3039" data-name="Path 3039" d="M407.4,260.2H417a.363.363,0,0,0,0-.725h-9.6a.363.363,0,0,0,0,.725Z" transform="translate(-407.051 -259.471)" fill="#263238"/>
            </g>
            <g id="Group_506" data-name="Group 506" transform="translate(0 3.945)">
              <path id="Path_3040" data-name="Path 3040" d="M407.4,264.238H417a.363.363,0,0,0,0-.725h-9.6a.363.363,0,0,0,0,.725Z" transform="translate(-407.051 -263.513)" fill="#263238"/>
            </g>
            <g id="Group_507" data-name="Group 507" transform="translate(0 5.918)">
              <path id="Path_3041" data-name="Path 3041" d="M407.4,268.281h10.085a.363.363,0,0,0,0-.725H407.4a.363.363,0,0,0,0,.725Z" transform="translate(-407.051 -267.556)" fill="#263238"/>
            </g>
          </g>
          <g id="Group_513" data-name="Group 513" opacity="0.4">
            <g id="Group_509" data-name="Group 509">
              <path id="Path_3042" data-name="Path 3042" d="M407.4,256.153h11.051a.363.363,0,0,0,0-.725H407.4a.363.363,0,0,0,0,.725Z" transform="translate(-407.051 -255.428)" fill="#fff"/>
            </g>
            <g id="Group_510" data-name="Group 510" transform="translate(0 1.973)">
              <path id="Path_3043" data-name="Path 3043" d="M407.4,260.2H417a.363.363,0,0,0,0-.725h-9.6a.363.363,0,0,0,0,.725Z" transform="translate(-407.051 -259.471)" fill="#fff"/>
            </g>
            <g id="Group_511" data-name="Group 511" transform="translate(0 3.945)">
              <path id="Path_3044" data-name="Path 3044" d="M407.4,264.238H417a.363.363,0,0,0,0-.725h-9.6a.363.363,0,0,0,0,.725Z" transform="translate(-407.051 -263.513)" fill="#fff"/>
            </g>
            <g id="Group_512" data-name="Group 512" transform="translate(0 5.918)">
              <path id="Path_3045" data-name="Path 3045" d="M407.4,268.281h10.085a.363.363,0,0,0,0-.725H407.4a.363.363,0,0,0,0,.725Z" transform="translate(-407.051 -267.556)" fill="#fff"/>
            </g>
          </g>
        </g>
      </g>
      <g id="Group_538" data-name="Group 538" transform="translate(9.877 0)">
        <g id="Group_516" data-name="Group 516">
          <rect id="Rectangle_272" data-name="Rectangle 272" width="20.169" height="27.141" fill="#ecf4f3"/>
          <rect id="Rectangle_273" data-name="Rectangle 273" width="20.169" height="27.141" fill="#ecf4f3" opacity="0.6"/>
        </g>
        <rect id="Rectangle_274" data-name="Rectangle 274" width="17.534" height="7.065" transform="translate(1.318 1.318)" fill="#fff" opacity="0.7"/>
        <g id="Group_535" data-name="Group 535" transform="translate(8.293 9.847)">
          <g id="Group_517" data-name="Group 517">
            <path id="Path_3046" data-name="Path 3046" d="M407.6,140.621h10.046a.33.33,0,0,0,0-.659H407.6a.33.33,0,0,0,0,.659Z" transform="translate(-407.278 -139.962)" fill="#263238"/>
          </g>
          <g id="Group_518" data-name="Group 518" transform="translate(0 1.793)">
            <path id="Path_3047" data-name="Path 3047" d="M407.6,144.3h8.729a.33.33,0,0,0,0-.659H407.6a.33.33,0,0,0,0,.659Z" transform="translate(-407.278 -143.637)" fill="#263238"/>
          </g>
          <g id="Group_519" data-name="Group 519" transform="translate(0 3.587)">
            <path id="Path_3048" data-name="Path 3048" d="M407.6,147.971h8.729a.33.33,0,0,0,0-.659H407.6a.33.33,0,0,0,0,.659Z" transform="translate(-407.278 -147.312)" fill="#263238"/>
          </g>
          <g id="Group_520" data-name="Group 520" transform="translate(0 5.38)">
            <path id="Path_3049" data-name="Path 3049" d="M407.6,151.646h9.168a.33.33,0,0,0,0-.659H407.6a.33.33,0,0,0,0,.659Z" transform="translate(-407.278 -150.987)" fill="#263238"/>
          </g>
          <g id="Group_521" data-name="Group 521" transform="translate(0 7.174)">
            <path id="Path_3050" data-name="Path 3050" d="M407.6,155.321h7.411a.33.33,0,0,0,0-.659H407.6a.33.33,0,0,0,0,.659Z" transform="translate(-407.278 -154.662)" fill="#263238"/>
          </g>
          <g id="Group_522" data-name="Group 522" transform="translate(0 8.967)">
            <path id="Path_3051" data-name="Path 3051" d="M407.6,159h10.046a.33.33,0,0,0,0-.659H407.6a.33.33,0,0,0,0,.659Z" transform="translate(-407.278 -158.337)" fill="#263238"/>
          </g>
          <g id="Group_523" data-name="Group 523" transform="translate(0 10.76)">
            <path id="Path_3052" data-name="Path 3052" d="M407.6,162.671h8.729a.33.33,0,0,0,0-.659H407.6a.33.33,0,0,0,0,.659Z" transform="translate(-407.278 -162.012)" fill="#263238"/>
          </g>
          <g id="Group_524" data-name="Group 524" transform="translate(0 12.554)">
            <path id="Path_3053" data-name="Path 3053" d="M407.6,166.346h8.729a.33.33,0,0,0,0-.659H407.6a.33.33,0,0,0,0,.659Z" transform="translate(-407.278 -165.687)" fill="#263238"/>
          </g>
          <g id="Group_525" data-name="Group 525" transform="translate(0 14.347)">
            <path id="Path_3054" data-name="Path 3054" d="M407.6,170.021h9.168a.33.33,0,0,0,0-.659H407.6a.33.33,0,0,0,0,.659Z" transform="translate(-407.278 -169.362)" fill="#263238"/>
          </g>
          <g id="Group_526" data-name="Group 526" opacity="0.4">
            <path id="Path_3055" data-name="Path 3055" d="M407.6,140.621h10.046a.33.33,0,0,0,0-.659H407.6a.33.33,0,0,0,0,.659Z" transform="translate(-407.278 -139.962)" fill="#fff"/>
          </g>
          <g id="Group_527" data-name="Group 527" transform="translate(0 1.793)" opacity="0.4">
            <path id="Path_3056" data-name="Path 3056" d="M407.6,144.3h8.729a.33.33,0,0,0,0-.659H407.6a.33.33,0,0,0,0,.659Z" transform="translate(-407.278 -143.637)" fill="#fff"/>
          </g>
          <g id="Group_528" data-name="Group 528" transform="translate(0 3.587)" opacity="0.4">
            <path id="Path_3057" data-name="Path 3057" d="M407.6,147.971h8.729a.33.33,0,0,0,0-.659H407.6a.33.33,0,0,0,0,.659Z" transform="translate(-407.278 -147.312)" fill="#fff"/>
          </g>
          <g id="Group_529" data-name="Group 529" transform="translate(0 5.38)" opacity="0.4">
            <path id="Path_3058" data-name="Path 3058" d="M407.6,151.646h9.168a.33.33,0,0,0,0-.659H407.6a.33.33,0,0,0,0,.659Z" transform="translate(-407.278 -150.987)" fill="#fff"/>
          </g>
          <g id="Group_530" data-name="Group 530" transform="translate(0 7.174)" opacity="0.4">
            <path id="Path_3059" data-name="Path 3059" d="M407.6,155.321h7.411a.33.33,0,0,0,0-.659H407.6a.33.33,0,0,0,0,.659Z" transform="translate(-407.278 -154.662)" fill="#fff"/>
          </g>
          <g id="Group_531" data-name="Group 531" transform="translate(0 8.967)" opacity="0.4">
            <path id="Path_3060" data-name="Path 3060" d="M407.6,159h10.046a.33.33,0,0,0,0-.659H407.6a.33.33,0,0,0,0,.659Z" transform="translate(-407.278 -158.337)" fill="#fff"/>
          </g>
          <g id="Group_532" data-name="Group 532" transform="translate(0 10.76)" opacity="0.4">
            <path id="Path_3061" data-name="Path 3061" d="M407.6,162.671h8.729a.33.33,0,0,0,0-.659H407.6a.33.33,0,0,0,0,.659Z" transform="translate(-407.278 -162.012)" fill="#fff"/>
          </g>
          <g id="Group_533" data-name="Group 533" transform="translate(0 12.554)" opacity="0.4">
            <path id="Path_3062" data-name="Path 3062" d="M407.6,166.346h8.729a.33.33,0,0,0,0-.659H407.6a.33.33,0,0,0,0,.659Z" transform="translate(-407.278 -165.687)" fill="#fff"/>
          </g>
          <g id="Group_534" data-name="Group 534" transform="translate(0 14.347)" opacity="0.4">
            <path id="Path_3063" data-name="Path 3063" d="M407.6,170.021h9.168a.33.33,0,0,0,0-.659H407.6a.33.33,0,0,0,0,.659Z" transform="translate(-407.278 -169.362)" fill="#fff"/>
          </g>
        </g>
        <g id="Group_536" data-name="Group 536" transform="translate(1.318 10.176)">
          <rect id="Rectangle_275" data-name="Rectangle 275" width="4.942" height="4.942" fill="#64af86"/>
          <rect id="Rectangle_276" data-name="Rectangle 276" width="4.942" height="4.942" fill="#64af86" opacity="0.3"/>
        </g>
        <g id="Group_537" data-name="Group 537" transform="translate(5.402 2.39)">
          <rect id="Rectangle_277" data-name="Rectangle 277" width="1.338" height="2.676" transform="translate(0 2.676)" fill="#00803d"/>
          <rect id="Rectangle_278" data-name="Rectangle 278" width="1.338" height="4.014" transform="translate(2.676 1.338)" fill="#00803d"/>
          <rect id="Rectangle_279" data-name="Rectangle 279" width="1.338" height="3.345" transform="translate(5.352 2.007)" fill="#00803d"/>
          <rect id="Rectangle_280" data-name="Rectangle 280" width="1.338" height="5.352" transform="translate(8.028)" fill="#00803d"/>
        </g>
      </g>
      <g id="Group_573" data-name="Group 573" transform="translate(0 22.549)">
        <g id="Group_539" data-name="Group 539">
          <rect id="Rectangle_281" data-name="Rectangle 281" width="20.169" height="27.141" fill="#ecf4f3"/>
          <rect id="Rectangle_282" data-name="Rectangle 282" width="20.169" height="27.141" fill="#ecf4f3" opacity="0.8"/>
        </g>
        <g id="Group_568" data-name="Group 568" transform="translate(8.293 2.25)">
          <g id="Group_553" data-name="Group 553">
            <g id="Group_540" data-name="Group 540">
              <path id="Path_3064" data-name="Path 3064" d="M387.356,171.261H397.4a.33.33,0,0,0,0-.659H387.356a.33.33,0,0,0,0,.659Z" transform="translate(-387.038 -170.602)" fill="#263238"/>
            </g>
            <g id="Group_541" data-name="Group 541" transform="translate(0 1.793)">
              <path id="Path_3065" data-name="Path 3065" d="M387.356,174.936h8.729a.33.33,0,0,0,0-.659h-8.729a.33.33,0,0,0,0,.659Z" transform="translate(-387.038 -174.277)" fill="#263238"/>
            </g>
            <g id="Group_542" data-name="Group 542" transform="translate(0 3.587)">
              <path id="Path_3066" data-name="Path 3066" d="M387.356,178.611h8.729a.33.33,0,0,0,0-.659h-8.729a.33.33,0,0,0,0,.659Z" transform="translate(-387.038 -177.952)" fill="#263238"/>
            </g>
            <g id="Group_543" data-name="Group 543" transform="translate(0 5.38)">
              <path id="Path_3067" data-name="Path 3067" d="M387.356,182.286h9.168a.33.33,0,0,0,0-.659h-9.168a.33.33,0,0,0,0,.659Z" transform="translate(-387.038 -181.627)" fill="#263238"/>
            </g>
            <g id="Group_544" data-name="Group 544" transform="translate(0 7.174)">
              <path id="Path_3068" data-name="Path 3068" d="M387.356,185.961h7.411a.33.33,0,0,0,0-.659h-7.411a.33.33,0,0,0,0,.659Z" transform="translate(-387.038 -185.302)" fill="#263238"/>
            </g>
            <g id="Group_545" data-name="Group 545" transform="translate(0 8.967)">
              <path id="Path_3069" data-name="Path 3069" d="M387.356,189.636H397.4a.33.33,0,0,0,0-.659H387.356a.33.33,0,0,0,0,.659Z" transform="translate(-387.038 -188.977)" fill="#263238"/>
            </g>
            <g id="Group_546" data-name="Group 546" transform="translate(0 10.76)">
              <path id="Path_3070" data-name="Path 3070" d="M387.356,193.311h8.729a.33.33,0,0,0,0-.659h-8.729a.33.33,0,0,0,0,.659Z" transform="translate(-387.038 -192.652)" fill="#263238"/>
            </g>
            <g id="Group_547" data-name="Group 547" transform="translate(0 12.554)">
              <path id="Path_3071" data-name="Path 3071" d="M387.356,196.986h8.729a.33.33,0,0,0,0-.659h-8.729a.33.33,0,0,0,0,.659Z" transform="translate(-387.038 -196.327)" fill="#263238"/>
            </g>
            <g id="Group_548" data-name="Group 548" transform="translate(0 16.143)">
              <path id="Path_3072" data-name="Path 3072" d="M387.356,204.34h7.411a.33.33,0,0,0,0-.659h-7.411a.33.33,0,0,0,0,.659Z" transform="translate(-387.038 -203.681)" fill="#263238"/>
            </g>
            <g id="Group_549" data-name="Group 549" transform="translate(0 17.936)">
              <path id="Path_3073" data-name="Path 3073" d="M387.356,208.015H397.4a.33.33,0,0,0,0-.659H387.356a.33.33,0,0,0,0,.659Z" transform="translate(-387.038 -207.356)" fill="#263238"/>
            </g>
            <g id="Group_550" data-name="Group 550" transform="translate(0 19.729)">
              <path id="Path_3074" data-name="Path 3074" d="M387.356,211.69h8.729a.33.33,0,0,0,0-.659h-8.729a.33.33,0,0,0,0,.659Z" transform="translate(-387.038 -211.031)" fill="#263238"/>
            </g>
            <g id="Group_551" data-name="Group 551" transform="translate(0 21.523)">
              <path id="Path_3075" data-name="Path 3075" d="M387.356,215.365h8.729a.33.33,0,0,0,0-.659h-8.729a.33.33,0,0,0,0,.659Z" transform="translate(-387.038 -214.706)" fill="#263238"/>
            </g>
            <g id="Group_552" data-name="Group 552" transform="translate(0 14.347)">
              <path id="Path_3076" data-name="Path 3076" d="M387.356,200.661h9.168a.33.33,0,0,0,0-.659h-9.168a.33.33,0,0,0,0,.659Z" transform="translate(-387.038 -200.002)" fill="#263238"/>
            </g>
          </g>
          <g id="Group_567" data-name="Group 567" opacity="0.4">
            <g id="Group_554" data-name="Group 554">
              <path id="Path_3077" data-name="Path 3077" d="M387.356,171.261H397.4a.33.33,0,0,0,0-.659H387.356a.33.33,0,0,0,0,.659Z" transform="translate(-387.038 -170.602)" fill="#fff"/>
            </g>
            <g id="Group_555" data-name="Group 555" transform="translate(0 1.793)">
              <path id="Path_3078" data-name="Path 3078" d="M387.356,174.936h8.729a.33.33,0,0,0,0-.659h-8.729a.33.33,0,0,0,0,.659Z" transform="translate(-387.038 -174.277)" fill="#fff"/>
            </g>
            <g id="Group_556" data-name="Group 556" transform="translate(0 3.587)">
              <path id="Path_3079" data-name="Path 3079" d="M387.356,178.611h8.729a.33.33,0,0,0,0-.659h-8.729a.33.33,0,0,0,0,.659Z" transform="translate(-387.038 -177.952)" fill="#fff"/>
            </g>
            <g id="Group_557" data-name="Group 557" transform="translate(0 5.38)">
              <path id="Path_3080" data-name="Path 3080" d="M387.356,182.286h9.168a.33.33,0,0,0,0-.659h-9.168a.33.33,0,0,0,0,.659Z" transform="translate(-387.038 -181.627)" fill="#fff"/>
            </g>
            <g id="Group_558" data-name="Group 558" transform="translate(0 7.174)">
              <path id="Path_3081" data-name="Path 3081" d="M387.356,185.961h7.411a.33.33,0,0,0,0-.659h-7.411a.33.33,0,0,0,0,.659Z" transform="translate(-387.038 -185.302)" fill="#fff"/>
            </g>
            <g id="Group_559" data-name="Group 559" transform="translate(0 8.967)">
              <path id="Path_3082" data-name="Path 3082" d="M387.356,189.636H397.4a.33.33,0,0,0,0-.659H387.356a.33.33,0,0,0,0,.659Z" transform="translate(-387.038 -188.977)" fill="#fff"/>
            </g>
            <g id="Group_560" data-name="Group 560" transform="translate(0 10.76)">
              <path id="Path_3083" data-name="Path 3083" d="M387.356,193.311h8.729a.33.33,0,0,0,0-.659h-8.729a.33.33,0,0,0,0,.659Z" transform="translate(-387.038 -192.652)" fill="#fff"/>
            </g>
            <g id="Group_561" data-name="Group 561" transform="translate(0 12.554)">
              <path id="Path_3084" data-name="Path 3084" d="M387.356,196.986h8.729a.33.33,0,0,0,0-.659h-8.729a.33.33,0,0,0,0,.659Z" transform="translate(-387.038 -196.327)" fill="#fff"/>
            </g>
            <g id="Group_562" data-name="Group 562" transform="translate(0 16.143)">
              <path id="Path_3085" data-name="Path 3085" d="M387.356,204.34h7.411a.33.33,0,0,0,0-.659h-7.411a.33.33,0,0,0,0,.659Z" transform="translate(-387.038 -203.681)" fill="#fff"/>
            </g>
            <g id="Group_563" data-name="Group 563" transform="translate(0 17.936)">
              <path id="Path_3086" data-name="Path 3086" d="M387.356,208.015H397.4a.33.33,0,0,0,0-.659H387.356a.33.33,0,0,0,0,.659Z" transform="translate(-387.038 -207.356)" fill="#fff"/>
            </g>
            <g id="Group_564" data-name="Group 564" transform="translate(0 19.729)">
              <path id="Path_3087" data-name="Path 3087" d="M387.356,211.69h8.729a.33.33,0,0,0,0-.659h-8.729a.33.33,0,0,0,0,.659Z" transform="translate(-387.038 -211.031)" fill="#fff"/>
            </g>
            <g id="Group_565" data-name="Group 565" transform="translate(0 21.523)">
              <path id="Path_3088" data-name="Path 3088" d="M387.356,215.365h8.729a.33.33,0,0,0,0-.659h-8.729a.33.33,0,0,0,0,.659Z" transform="translate(-387.038 -214.706)" fill="#fff"/>
            </g>
            <g id="Group_566" data-name="Group 566" transform="translate(0 14.347)">
              <path id="Path_3089" data-name="Path 3089" d="M387.356,200.661h9.168a.33.33,0,0,0,0-.659h-9.168a.33.33,0,0,0,0,.659Z" transform="translate(-387.038 -200.002)" fill="#fff"/>
            </g>
          </g>
        </g>
        <g id="Group_569" data-name="Group 569" transform="translate(1.412 10.311)">
          <path id="Path_3090" data-name="Path 3090" d="M374.621,189.735l-.8-.8a3.02,3.02,0,0,0-.887,2.141h1.126A1.9,1.9,0,0,1,374.621,189.735Z" transform="translate(-372.938 -188.052)" fill="#00803d"/>
          <path id="Path_3091" data-name="Path 3091" d="M375.967,195.23a1.9,1.9,0,0,1-1.9-1.9h-1.126a3.029,3.029,0,0,0,3.029,3.029Z" transform="translate(-372.938 -190.298)" fill="#00803d"/>
          <path id="Path_3092" data-name="Path 3092" d="M375.967,195.23a1.9,1.9,0,0,1-1.9-1.9h-1.126a3.029,3.029,0,0,0,3.029,3.029Z" transform="translate(-372.938 -190.298)" fill="#00803d" opacity="0.3"/>
          <path id="Path_3093" data-name="Path 3093" d="M375.552,188.8a1.9,1.9,0,0,1,1.346-.557v-1.126a3.02,3.02,0,0,0-2.142.887Z" transform="translate(-373.869 -187.121)" fill="#00803d"/>
          <path id="Path_3094" data-name="Path 3094" d="M375.552,188.8a1.9,1.9,0,0,1,1.346-.557v-1.126a3.02,3.02,0,0,0-2.142.887Z" transform="translate(-373.869 -187.121)" fill="#00803d" opacity="0.5"/>
          <path id="Path_3095" data-name="Path 3095" d="M381.048,190.15a1.9,1.9,0,0,1-1.9,1.9v1.126a3.029,3.029,0,0,0,0-6.058v1.126A1.9,1.9,0,0,1,381.048,190.15Z" transform="translate(-376.116 -187.121)" fill="#00803d"/>
          <path id="Path_3096" data-name="Path 3096" d="M381.9,194.672l.8.8a3.02,3.02,0,0,0,.887-2.142h-1.126A1.9,1.9,0,0,1,381.9,194.672Z" transform="translate(-377.528 -190.298)" fill="#00803d" opacity="0.2"/>
        </g>
        <g id="Group_572" data-name="Group 572" transform="translate(1.412 1.903)">
          <g id="Group_570" data-name="Group 570">
            <path id="Path_3097" data-name="Path 3097" d="M375.552,178.853l-.8.8a3.019,3.019,0,0,0,2.142.887V179.41A1.9,1.9,0,0,1,375.552,178.853Z" transform="translate(-373.869 -174.479)" fill="#00803d"/>
            <path id="Path_3098" data-name="Path 3098" d="M381.048,176.1a1.9,1.9,0,0,1-1.9,1.9v1.126a3.029,3.029,0,0,0,3.029-3.029Z" transform="translate(-376.116 -173.067)" fill="#00803d"/>
            <path id="Path_3099" data-name="Path 3099" d="M381.048,176.1a1.9,1.9,0,0,1-1.9,1.9v1.126a3.029,3.029,0,0,0,3.029-3.029Z" transform="translate(-376.116 -173.067)" fill="#00803d" opacity="0.3"/>
            <path id="Path_3100" data-name="Path 3100" d="M374.621,177.441a1.9,1.9,0,0,1-.557-1.345h-1.126a3.021,3.021,0,0,0,.887,2.142Z" transform="translate(-372.938 -173.067)" fill="#00803d"/>
            <path id="Path_3101" data-name="Path 3101" d="M374.621,177.441a1.9,1.9,0,0,1-.557-1.345h-1.126a3.021,3.021,0,0,0,.887,2.142Z" transform="translate(-372.938 -173.067)" fill="#00803d" opacity="0.5"/>
            <path id="Path_3102" data-name="Path 3102" d="M375.967,171.016a1.9,1.9,0,0,1,1.9,1.9H379a3.029,3.029,0,0,0-6.058,0h1.126A1.9,1.9,0,0,1,375.967,171.016Z" transform="translate(-372.938 -169.89)" fill="#00803d"/>
            <path id="Path_3103" data-name="Path 3103" d="M380.49,171.573l.8-.8a3.017,3.017,0,0,0-2.141-.887v1.126A1.9,1.9,0,0,1,380.49,171.573Z" transform="translate(-376.116 -169.89)" fill="#00803d" opacity="0.2"/>
          </g>
          <g id="Group_571" data-name="Group 571" transform="translate(0 16.817)">
            <path id="Path_3104" data-name="Path 3104" d="M381.9,206.966l.8-.8a3.02,3.02,0,0,1,.887,2.142h-1.126A1.9,1.9,0,0,0,381.9,206.966Z" transform="translate(-377.528 -205.283)" fill="#00803d"/>
            <path id="Path_3105" data-name="Path 3105" d="M379.145,212.462a1.9,1.9,0,0,0,1.9-1.9h1.126a3.029,3.029,0,0,1-3.029,3.029Z" transform="translate(-376.116 -207.53)" fill="#00803d"/>
            <path id="Path_3106" data-name="Path 3106" d="M379.145,212.462a1.9,1.9,0,0,0,1.9-1.9h1.126a3.029,3.029,0,0,1-3.029,3.029Z" transform="translate(-376.116 -207.53)" fill="#00803d" opacity="0.3"/>
            <path id="Path_3107" data-name="Path 3107" d="M380.49,206.036a1.9,1.9,0,0,0-1.345-.558v-1.126a3.019,3.019,0,0,1,2.141.887Z" transform="translate(-376.116 -204.352)" fill="#00803d"/>
            <path id="Path_3108" data-name="Path 3108" d="M380.49,206.036a1.9,1.9,0,0,0-1.345-.558v-1.126a3.019,3.019,0,0,1,2.141.887Z" transform="translate(-376.116 -204.352)" fill="#00803d" opacity="0.5"/>
            <path id="Path_3109" data-name="Path 3109" d="M374.064,207.381a1.9,1.9,0,0,0,1.9,1.9v1.126a3.029,3.029,0,1,1,0-6.058v1.126A1.9,1.9,0,0,0,374.064,207.381Z" transform="translate(-372.938 -204.352)" fill="#00803d"/>
            <path id="Path_3110" data-name="Path 3110" d="M374.621,211.9l-.8.8a3.019,3.019,0,0,1-.887-2.141h1.126A1.9,1.9,0,0,0,374.621,211.9Z" transform="translate(-372.938 -207.53)" fill="#00803d" opacity="0.2"/>
          </g>
        </g>
      </g>
    </g>
    <g id="Device" transform="translate(83.286 104.208)">
      <g id="Group_595" data-name="Group 595">
        <g id="Group_591" data-name="Group 591">
          <g id="Group_575" data-name="Group 575" transform="translate(20.506 43.753)">
            <path id="Rectangle_283" data-name="Rectangle 283" d="M0,0H11.445A1.652,1.652,0,0,1,13.1,1.652v0A1.652,1.652,0,0,1,11.445,3.3H0a0,0,0,0,1,0,0V0A0,0,0,0,1,0,0Z" transform="translate(24.279 15.222)" fill="#263238"/>
            <rect id="Rectangle_284" data-name="Rectangle 284" width="27.524" height="3.304" rx="1.652" transform="translate(0 15.222)"/>
            <rect id="Rectangle_285" data-name="Rectangle 285" width="27.524" height="3.304" rx="1.652" transform="translate(0 15.222)" fill="#fff" opacity="0.5"/>
            <g id="Group_574" data-name="Group 574" transform="translate(11.957)">
              <path id="Path_3111" data-name="Path 3111" d="M255.316,260.765h6.364l-4.075-15.222h-2.29Z" transform="translate(-246.471 -245.543)" fill="#263238"/>
              <path id="Path_3112" data-name="Path 3112" d="M251.473,260.765h-12.99l-1.293-15.222H247.4Z" transform="translate(-237.19 -245.543)"/>
              <path id="Path_3113" data-name="Path 3113" d="M251.473,260.765h-12.99l-1.293-15.222H247.4Z" transform="translate(-237.19 -245.543)" fill="#fff" opacity="0.3"/>
            </g>
          </g>
          <path id="Path_3114" data-name="Path 3114" d="M322.517,155.886h-5.9l-4.572,52.25h5.9a2.492,2.492,0,0,0,2.434-2.238l4.18-47.774A2.018,2.018,0,0,0,322.517,155.886Z" transform="translate(-243.051 -155.886)" fill="#263238"/>
          <g id="Group_576" data-name="Group 576">
            <path id="Path_3115" data-name="Path 3115" d="M244.2,208.136H172.719a2.018,2.018,0,0,1-2.042-2.238l4.18-47.774a2.491,2.491,0,0,1,2.434-2.238h71.481a2.018,2.018,0,0,1,2.042,2.238l-4.18,47.774A2.491,2.491,0,0,1,244.2,208.136Z" transform="translate(-170.668 -155.886)" fill="#263238"/>
          </g>
          <path id="Path_3116" data-name="Path 3116" d="M244.2,208.136H172.719a2.018,2.018,0,0,1-2.042-2.238l4.18-47.774a2.491,2.491,0,0,1,2.434-2.238h71.481a2.018,2.018,0,0,1,2.042,2.238l-4.18,47.774A2.491,2.491,0,0,1,244.2,208.136Z" transform="translate(-170.668 -155.886)" fill="#fff" opacity="0.7"/>
          <path id="Path_3117" data-name="Path 3117" d="M245.7,204.738H179.1a1.751,1.751,0,0,1-1.772-1.942L180.8,163.1a2.162,2.162,0,0,1,2.112-1.942h66.6a1.75,1.75,0,0,1,1.772,1.942L247.811,202.8A2.162,2.162,0,0,1,245.7,204.738Z" transform="translate(-174.075 -158.586)" fill="#fafafa" opacity="0.9"/>
          <g id="Group_577" data-name="Group 577" transform="translate(49.099 6.859)">
            <path id="Path_3118" data-name="Path 3118" d="M279.268,184.994h-2.33l.408-4.659h2.33Z" transform="translate(-274.177 -175.262)" fill="#00803d"/>
            <path id="Path_3119" data-name="Path 3119" d="M288.816,182.549h-2.33l.611-6.989h2.33Z" transform="translate(-279.066 -172.818)" fill="#399964"/>
            <path id="Path_3120" data-name="Path 3120" d="M298.364,183.771h-2.33l.51-5.824h2.33Z" transform="translate(-283.954 -174.04)" fill="#97ccaf"/>
            <path id="Path_3121" data-name="Path 3121" d="M307.912,180.1h-2.33l.815-9.319h2.33Z" transform="translate(-288.843 -170.374)" fill="#014c23"/>
            <path id="Path_3122" data-name="Path 3122" d="M292.68,179.242h-20.5q.389-4.445.778-8.889c.048-.551-.813-.548-.86,0l-.815,9.319a.434.434,0,0,0,.43.43H292.68A.43.43,0,0,0,292.68,179.242Z" transform="translate(-271.28 -169.941)" fill="#b9d6c6"/>
          </g>
          <g id="Group_578" data-name="Group 578" transform="translate(12.989 6.396)">
            <path id="Path_3123" data-name="Path 3123" d="M201.361,184.714l-1.519,1.4a4.844,4.844,0,0,0,3.62,1.556l.173-1.975A3.041,3.041,0,0,1,201.361,184.714Z" transform="translate(-198.594 -177.042)" fill="#50cc88"/>
            <path id="Path_3124" data-name="Path 3124" d="M211.063,179.878a3.715,3.715,0,0,1-3.629,3.337l-.173,1.975a5.914,5.914,0,0,0,5.777-5.312Z" transform="translate(-202.393 -174.566)" fill="#00803d"/>
            <path id="Path_3125" data-name="Path 3125" d="M200.051,182.238a3.069,3.069,0,0,1-.771-2.36h-1.975a4.882,4.882,0,0,0,1.227,3.756Z" transform="translate(-197.285 -174.566)" fill="#00803d"/>
            <path id="Path_3126" data-name="Path 3126" d="M202.931,170.966a3.009,3.009,0,0,1,3.046,3.338h1.975a4.79,4.79,0,0,0-4.847-5.312,5.914,5.914,0,0,0-5.777,5.312H199.3A3.716,3.716,0,0,1,202.931,170.966Z" transform="translate(-197.306 -168.992)" fill="#28b266"/>
            <path id="Path_3127" data-name="Path 3127" d="M211.086,171.944l1.519-1.4a4.841,4.841,0,0,0-3.62-1.556l-.173,1.974A3.042,3.042,0,0,1,211.086,171.944Z" transform="translate(-203.186 -168.992)" fill="#00803d" opacity="0.6"/>
          </g>
          <g id="Group_580" data-name="Group 580" transform="translate(27.786 6.396)">
            <path id="Path_3128" data-name="Path 3128" d="M231.682,184.714l-1.519,1.4a4.842,4.842,0,0,0,3.62,1.556l.173-1.975A3.041,3.041,0,0,1,231.682,184.714Z" transform="translate(-228.915 -177.042)" fill="#00803d"/>
            <path id="Path_3129" data-name="Path 3129" d="M231.682,184.714l-1.519,1.4a4.842,4.842,0,0,0,3.62,1.556l.173-1.975A3.041,3.041,0,0,1,231.682,184.714Z" transform="translate(-228.915 -177.042)" fill="#00803d" opacity="0.5"/>
            <path id="Path_3130" data-name="Path 3130" d="M241.383,179.878a3.715,3.715,0,0,1-3.63,3.337l-.173,1.975a5.914,5.914,0,0,0,5.777-5.312Z" transform="translate(-232.713 -174.566)" fill="#00803d"/>
            <path id="Path_3131" data-name="Path 3131" d="M241.383,179.878a3.715,3.715,0,0,1-3.63,3.337l-.173,1.975a5.914,5.914,0,0,0,5.777-5.312Z" transform="translate(-232.713 -174.566)" fill="#00803d" opacity="0.1"/>
            <path id="Path_3132" data-name="Path 3132" d="M230.372,182.238a3.067,3.067,0,0,1-.772-2.36h-1.974a4.881,4.881,0,0,0,1.227,3.756Z" transform="translate(-227.606 -174.566)" fill="#00803d"/>
            <path id="Path_3133" data-name="Path 3133" d="M233.252,170.966A3.01,3.01,0,0,1,236.3,174.3h1.975a4.79,4.79,0,0,0-4.848-5.312,5.914,5.914,0,0,0-5.777,5.312h1.974A3.716,3.716,0,0,1,233.252,170.966Z" transform="translate(-227.627 -168.992)" fill="#00803d"/>
            <g id="Group_579" data-name="Group 579" transform="translate(0.021)">
              <path id="Path_3134" data-name="Path 3134" d="M233.252,170.966A3.01,3.01,0,0,1,236.3,174.3h1.975a4.79,4.79,0,0,0-4.848-5.312,5.914,5.914,0,0,0-5.777,5.312h1.974A3.716,3.716,0,0,1,233.252,170.966Z" transform="translate(-227.648 -168.992)" fill="#00803d" opacity="0.2"/>
            </g>
            <path id="Path_3135" data-name="Path 3135" d="M241.407,171.944l1.519-1.4a4.843,4.843,0,0,0-3.62-1.556l-.173,1.974A3.042,3.042,0,0,1,241.407,171.944Z" transform="translate(-233.507 -168.992)" fill="#00803d" opacity="0.6"/>
          </g>
          <g id="Group_588" data-name="Group 588" transform="translate(49.258 31.094)">
            <g id="Group_584" data-name="Group 584">
              <g id="Group_581" data-name="Group 581" transform="translate(0.741)">
                <path id="Path_3136" data-name="Path 3136" d="M275.908,222.383h-2.783l.243-2.78h2.782Zm-2.124-.6h1.572l.138-1.574h-1.571Z" transform="translate(-273.125 -219.603)" fill="#00803d"/>
              </g>
              <g id="Group_582" data-name="Group 582" transform="translate(0.37 4.234)">
                <path id="Path_3137" data-name="Path 3137" d="M275.149,231.06h-2.783l.244-2.78h2.782Zm-2.124-.6H274.6l.138-1.574h-1.572Z" transform="translate(-272.366 -228.28)" fill="#00803d"/>
              </g>
              <g id="Group_583" data-name="Group 583" transform="translate(0 8.469)">
                <path id="Path_3138" data-name="Path 3138" d="M274.39,239.738h-2.783l.243-2.78h2.783Zm-2.124-.6h1.571l.138-1.574H272.4Z" transform="translate(-271.607 -236.958)" fill="#00803d"/>
              </g>
            </g>
            <g id="Group_585" data-name="Group 585" transform="translate(4.831 0.775)" opacity="0.38">
              <path id="Path_3139" data-name="Path 3139" d="M282.128,222.548a.612.612,0,0,1-.619-.678.755.755,0,0,1,.738-.678h9.306a.612.612,0,0,1,.619.678.756.756,0,0,1-.738.678Z" transform="translate(-281.506 -221.191)" fill="#00803d"/>
              <path id="Path_3140" data-name="Path 3140" d="M282.128,222.548a.612.612,0,0,1-.619-.678.755.755,0,0,1,.738-.678h9.306a.612.612,0,0,1,.619.678.756.756,0,0,1-.738.678Z" transform="translate(-281.506 -221.191)" fill="#00803d" opacity="0.7"/>
            </g>
            <g id="Group_586" data-name="Group 586" transform="translate(4.095 9.181)" opacity="0.38">
              <path id="Path_3141" data-name="Path 3141" d="M280.621,239.773a.612.612,0,0,1-.619-.679.755.755,0,0,1,.738-.678h7.8a.612.612,0,0,1,.619.678.756.756,0,0,1-.738.679Z" transform="translate(-279.999 -238.416)" fill="#00803d"/>
              <path id="Path_3142" data-name="Path 3142" d="M280.621,239.773a.612.612,0,0,1-.619-.679.755.755,0,0,1,.738-.678h7.8a.612.612,0,0,1,.619.678.756.756,0,0,1-.738.679Z" transform="translate(-279.999 -238.416)" fill="#00803d" opacity="0.4"/>
            </g>
            <g id="Group_587" data-name="Group 587" transform="translate(4.466 4.946)">
              <path id="Path_3143" data-name="Path 3143" d="M281.38,231.1a.611.611,0,0,1-.619-.678.755.755,0,0,1,.737-.678h7.2a.611.611,0,0,1,.619.678.755.755,0,0,1-.738.678Z" transform="translate(-280.759 -229.739)" fill="#00803d"/>
              <path id="Path_3144" data-name="Path 3144" d="M281.38,231.1a.611.611,0,0,1-.619-.678.755.755,0,0,1,.737-.678h7.2a.611.611,0,0,1,.619.678.755.755,0,0,1-.738.678Z" transform="translate(-280.759 -229.739)" fill="#00803d" opacity="0.2"/>
            </g>
          </g>
          <g id="Group_590" data-name="Group 590" transform="translate(22.97 32.066)">
            <path id="Path_3145" data-name="Path 3145" d="M240.659,229.781l-2.1-2.872a.441.441,0,0,0-.683-.088l-2.23,2.457-1.754-2.884a.441.441,0,0,0-.683-.088c-.77.708-1.523,1.439-2.311,2.126-.235-.128-.463-.275-.692-.41l-1.273-.753a.446.446,0,0,0-.6.156l-2.252,3.266-1.681-3.266a.443.443,0,0,0-.6-.156l-1.074.579a13.022,13.022,0,0,0-1.165.65,8.6,8.6,0,0,0-.935-.559l-1.127-.67a.435.435,0,0,0-.439.752c.625.371,1.738,1.4,2.473,1.4a5.789,5.789,0,0,0,2.314-1.16l1.8,3.5a.44.44,0,0,0,.752,0l2.434-3.528,1.894,1.12a.446.446,0,0,0,.527-.068l2.158-1.985,1.78,2.928a.44.44,0,0,0,.684.088l2.265-2.495,1.764,2.407C240.235,230.667,240.991,230.233,240.659,229.781Z" transform="translate(-218.31 -223.944)" fill="#00803d"/>
            <g id="Group_589" data-name="Group 589">
              <path id="Path_3146" data-name="Path 3146" d="M239.38,231H218.648l.786-8.989c.049-.558-.821-.554-.87,0l-.824,9.425a.439.439,0,0,0,.435.435H239.38A.436.436,0,0,0,239.38,231Z" transform="translate(-217.738 -221.595)" fill="#9bddb9"/>
            </g>
          </g>
        </g>
        <g id="Group_594" data-name="Group 594" transform="translate(29.401 18.536)">
          <g id="Group_592" data-name="Group 592">
            <path id="Path_3147" data-name="Path 3147" d="M269.524,204.785h-37l.826-9.441h37Z" transform="translate(-231.738 -194.625)" fill="#407bff"/>
            <path id="Path_3148" data-name="Path 3148" d="M269.524,204.785h-37l.826-9.441h37Z" transform="translate(-231.738 -194.625)" fill="#fff" opacity="0.9"/>
            <path id="Path_3149" data-name="Path 3149" d="M269.36,204.749H230.917l.952-10.879h38.442Zm-36.878-1.439h35.564l.7-8H233.182Z" transform="translate(-230.917 -193.87)" fill="#263238"/>
          </g>
          <g id="Group_593" data-name="Group 593" transform="translate(5.954 3.356)">
            <path id="Path_3150" data-name="Path 3150" d="M246.3,204.169l-.065.748h-3.12l.353-4.029h3.045l-.065.749h-2.118l-.077.875h1.87l-.063.725h-1.87l-.082.933Z" transform="translate(-243.118 -200.819)" fill="#00803d"/>
            <path id="Path_3151" data-name="Path 3151" d="M253.005,204.917l-.851-1.4-1.078,1.4h-1.071l1.67-2.049-1.243-1.98h1.059l.813,1.307,1.024-1.307h1.007l-1.575,1.946,1.32,2.083Z" transform="translate(-246.645 -200.819)" fill="#00803d"/>
            <path id="Path_3152" data-name="Path 3152" d="M259.961,201.648h-1.289l.066-.76h3.511l-.066.76h-1.289l-.286,3.27h-.933Z" transform="translate(-251.082 -200.819)" fill="#00803d"/>
            <path id="Path_3153" data-name="Path 3153" d="M268.874,204.917,268.2,203.8h-.858l-.1,1.122h-.933l.353-4.029H268.4a2.135,2.135,0,0,1,.914.179,1.222,1.222,0,0,1,.563.507,1.323,1.323,0,0,1,.145.777,1.478,1.478,0,0,1-.284.774,1.55,1.55,0,0,1-.657.5l.791,1.3Zm.034-3.088a.914.914,0,0,0-.623-.182h-.76l-.123,1.4h.76a1.036,1.036,0,0,0,.655-.184.7.7,0,0,0,.265-.518A.59.59,0,0,0,268.909,201.829Z" transform="translate(-254.991 -200.819)" fill="#00803d"/>
            <path id="Path_3154" data-name="Path 3154" d="M277.149,204.054h-1.871l-.432.863h-.956l2.149-4.029h.921l1.449,4.029h-.978Zm-.231-.708-.5-1.543-.774,1.543Z" transform="translate(-258.874 -200.819)" fill="#00803d"/>
            <path id="Path_3155" data-name="Path 3155" d="M284.634,204.647a1.753,1.753,0,0,1-.717-.742,1.938,1.938,0,0,1-.191-1.074,2.2,2.2,0,0,1,.379-1.074,2.275,2.275,0,0,1,.848-.743,2.469,2.469,0,0,1,1.143-.267,2.24,2.24,0,0,1,.931.184,1.677,1.677,0,0,1,.665.53l-.647.552a1.172,1.172,0,0,0-.972-.472,1.429,1.429,0,0,0-.682.164,1.331,1.331,0,0,0-.5.458,1.437,1.437,0,0,0-.222.668,1.279,1.279,0,0,0,.105.668,1.033,1.033,0,0,0,.418.458,1.27,1.27,0,0,0,.653.163,1.405,1.405,0,0,0,1.055-.478l.55.552a2.1,2.1,0,0,1-.761.535,2.484,2.484,0,0,1-.966.184A2.18,2.18,0,0,1,284.634,204.647Z" transform="translate(-263.904 -200.747)" fill="#00803d"/>
            <path id="Path_3156" data-name="Path 3156" d="M293.4,201.648h-1.289l.066-.76h3.511l-.066.76h-1.289l-.286,3.27h-.933Z" transform="translate(-268.202 -200.819)" fill="#00803d"/>
          </g>
        </g>
      </g>
    </g>
    <g id="Desk" transform="translate(61.934 166.58)">
      <g id="Group_596" data-name="Group 596" transform="translate(14.565 3.235)">
        <rect id="Rectangle_286" data-name="Rectangle 286" width="100.349" height="56.107" fill="#034923"/>
      </g>
      <g id="Group_597" data-name="Group 597" transform="translate(7.157 3.235)">
        <rect id="Rectangle_287" data-name="Rectangle 287" width="9.359" height="56.107" transform="translate(9.359 56.107) rotate(180)" fill="#299b5c"/>
        <rect id="Rectangle_288" data-name="Rectangle 288" width="9.359" height="56.107" transform="translate(9.359 56.107) rotate(180)" fill="#299b5c" opacity="0.3"/>
      </g>
      <g id="Group_598" data-name="Group 598" transform="translate(5.192 3.235)">
        <rect id="Rectangle_289" data-name="Rectangle 289" width="102.754" height="4.965" fill="#89c6a5"/>
        <rect id="Rectangle_290" data-name="Rectangle 290" width="102.754" height="4.965" fill="#89c6a5" opacity="0.6"/>
      </g>
      <g id="Group_599" data-name="Group 599" transform="translate(3.228 3.235)" opacity="0.6">
        <rect id="Rectangle_291" data-name="Rectangle 291" width="3.929" height="56.107" fill="#89c6a5"/>
        <rect id="Rectangle_292" data-name="Rectangle 292" width="3.929" height="56.107" fill="#89c6a5" opacity="0.5"/>
      </g>
      <g id="Group_600" data-name="Group 600" transform="translate(110.686 3.235)">
        <rect id="Rectangle_293" data-name="Rectangle 293" width="9.359" height="56.107" transform="translate(9.359 56.107) rotate(180)" fill="#299b5c"/>
        <rect id="Rectangle_294" data-name="Rectangle 294" width="9.359" height="56.107" transform="translate(9.359 56.107) rotate(180)" fill="#299b5c" opacity="0.3"/>
      </g>
      <g id="Group_601" data-name="Group 601" transform="translate(113.914 0)">
        <rect id="Rectangle_295" data-name="Rectangle 295" width="8.489" height="4.307" transform="translate(8.489 4.307) rotate(180)" fill="#299b5c"/>
        <rect id="Rectangle_296" data-name="Rectangle 296" width="8.489" height="4.307" transform="translate(8.489 4.307) rotate(180)" fill="#299b5c" opacity="0.3"/>
      </g>
      <g id="Group_602" data-name="Group 602" transform="translate(61.686 10.879)" opacity="0.3">
        <rect id="Rectangle_297" data-name="Rectangle 297" width="42.393" height="48.463" fill="#299b5c"/>
        <rect id="Rectangle_298" data-name="Rectangle 298" width="42.393" height="48.463" fill="#299b5c" opacity="0.5"/>
      </g>
      <g id="Group_603" data-name="Group 603" transform="translate(104.079 10.879)">
        <rect id="Rectangle_299" data-name="Rectangle 299" width="2.679" height="48.463" fill="#00803d"/>
        <rect id="Rectangle_300" data-name="Rectangle 300" width="2.679" height="48.463" fill="#00803d" opacity="0.2"/>
      </g>
      <g id="Group_608" data-name="Group 608" transform="translate(64.364 13.52)" opacity="0.6">
        <g id="Group_605" data-name="Group 605">
          <rect id="Rectangle_301" data-name="Rectangle 301" width="37.036" height="11.211" transform="translate(0 13.279)" fill="#89c6a5"/>
          <g id="Group_604" data-name="Group 604">
            <rect id="Rectangle_302" data-name="Rectangle 302" width="37.036" height="11.211" fill="#89c6a5"/>
            <rect id="Rectangle_303" data-name="Rectangle 303" width="37.036" height="11.211" transform="translate(0 26.557)" fill="#89c6a5"/>
          </g>
        </g>
        <g id="Group_607" data-name="Group 607" opacity="0.7">
          <rect id="Rectangle_304" data-name="Rectangle 304" width="37.036" height="11.211" transform="translate(0 13.279)" fill="#89c6a5"/>
          <g id="Group_606" data-name="Group 606">
            <rect id="Rectangle_305" data-name="Rectangle 305" width="37.036" height="11.211" fill="#89c6a5"/>
            <rect id="Rectangle_306" data-name="Rectangle 306" width="37.036" height="11.211" transform="translate(0 26.557)" fill="#89c6a5"/>
          </g>
        </g>
      </g>
      <rect id="Rectangle_307" data-name="Rectangle 307" width="3.929" height="56.107" transform="translate(106.758 3.235)" fill="#89c6a5" opacity="0.6"/>
      <rect id="Rectangle_308" data-name="Rectangle 308" width="113.914" height="4.307" transform="translate(0 0)" fill="#89c6a5" opacity="0.6"/>
      <g id="Group_609" data-name="Group 609" transform="translate(80.485 17.907)" opacity="0.3">
        <path id="Path_3157" data-name="Path 3157" d="M294.346,320.392h-1.286a1.219,1.219,0,0,0,0,2.437h1.286a1.219,1.219,0,0,0,0-2.437Z" transform="translate(-291.842 -320.392)" fill="#fff"/>
        <path id="Path_3158" data-name="Path 3158" d="M294.346,347.6h-1.286a1.219,1.219,0,0,0,0,2.438h1.286a1.219,1.219,0,0,0,0-2.438Z" transform="translate(-291.842 -334.324)" fill="#fff"/>
        <path id="Path_3159" data-name="Path 3159" d="M294.346,374.813h-1.286a1.219,1.219,0,0,0,0,2.437h1.286a1.219,1.219,0,0,0,0-2.437Z" transform="translate(-291.842 -348.256)" fill="#fff"/>
        <path id="Path_3160" data-name="Path 3160" d="M294.28,321.611a1.219,1.219,0,1,1-1.219-1.219A1.219,1.219,0,0,1,294.28,321.611Z" transform="translate(-291.842 -320.392)" fill="#fff" opacity="0.3"/>
        <path id="Path_3161" data-name="Path 3161" d="M294.28,348.821a1.219,1.219,0,1,1-1.219-1.219A1.219,1.219,0,0,1,294.28,348.821Z" transform="translate(-291.842 -334.324)" fill="#fff" opacity="0.3"/>
        <path id="Path_3162" data-name="Path 3162" d="M294.28,376.032a1.219,1.219,0,1,1-1.219-1.219A1.219,1.219,0,0,1,294.28,376.032Z" transform="translate(-291.842 -348.256)" fill="#fff" opacity="0.3"/>
      </g>
    </g>
    <g id="Character" transform="translate(82.355 101.35)">
      <g id="Group_619" data-name="Group 619">
        <path id="Path_3163" data-name="Path 3163" d="M202.956,180.395c-.7.985.84,4.12.84,4.12l-6.926.838,1.355-7.549S203.779,179.232,202.956,180.395Z" transform="translate(-183.153 -164.25)" fill="#ce7a63"/>
        <path id="Path_3164" data-name="Path 3164" d="M206.094,182.354a1.965,1.965,0,0,1,.11-1.412c.511-.723-1.44-1.548-2.99-2.069A8.964,8.964,0,0,0,206.094,182.354Z" transform="translate(-186.4 -164.797)" opacity="0.2"/>
        <g id="Group_610" data-name="Group 610" transform="translate(32.023 119.294)">
          <path id="Path_3165" data-name="Path 3165" d="M238.846,394.485l.738,7.047-3.25.61-1.953-6.8Z" transform="translate(-234.38 -394.485)" fill="#ce7a63"/>
          <path id="Path_3166" data-name="Path 3166" d="M240.551,406.418l-3.821.765a.314.314,0,0,0-.252.3l-.068,3.247a.521.521,0,0,0,.617.528c1.372-.3,2.582-.621,4.3-.962,2.024-.405,1.559-.06,3.944-.5,1.437-.268,1.373-1.95.749-1.909-2.852.207-3.309-.575-4.581-1.356A1.255,1.255,0,0,0,240.551,406.418Z" transform="translate(-235.42 -400.576)" fill="#263238"/>
          <path id="Path_3167" data-name="Path 3167" d="M235.67,399.833l3.684-.486-.509-4.862-4.465.855Z" transform="translate(-234.38 -394.485)" opacity="0.2"/>
        </g>
        <g id="Group_611" data-name="Group 611" transform="translate(1.419 117.617)">
          <path id="Path_3168" data-name="Path 3168" d="M180.33,391.3l-2.212,8.735-3.12-.439.829-8.546Z" transform="translate(-173.372 -391.046)" fill="#ce7a63"/>
          <path id="Path_3169" data-name="Path 3169" d="M176.825,406.922l-3.887-.274a.314.314,0,0,0-.323.223l-.925,3.113a.522.522,0,0,0,.346.651.493.493,0,0,0,.109.021c1.4.075,2.654.085,4.4.211,2.059.145,1.519.355,3.937.56,1.457.122,1.84-1.517,1.228-1.642-2.805-.556-3.039-1.431-4.059-2.521A1.256,1.256,0,0,0,176.825,406.922Z" transform="translate(-171.667 -399.034)" fill="#263238"/>
          <path id="Path_3170" data-name="Path 3170" d="M175.392,397.809l3.41.523,1.63-6.438c-1.5-.159-3.943-.4-4.422-.452Z" transform="translate(-173.574 -391.248)" opacity="0.2"/>
        </g>
        <path id="Path_3171" data-name="Path 3171" d="M183.674,254.5s-1.076,3.122-1.232,10.723c-.093,4.542-.537,11.733-.879,16.784-.1,1.478-.191,2.773-.263,3.765a11.878,11.878,0,0,1-.869,3.659c-.333.81-.75,1.92-1.18,3.3a52.452,52.452,0,0,0-1.869,8.6c-1.137,8.515-2.443,25.009-2.443,25.009l4.214.547,10.372-38.441,11.054-33.975Z" transform="translate(-171.923 -203.503)" fill="#263238"/>
        <path id="Path_3172" data-name="Path 3172" d="M209.852,284.744l-.447-3.346-3.617-3.058-1.216-.6a40.592,40.592,0,0,1,2.111,16.417Z" transform="translate(-187.096 -215.417)" opacity="0.2"/>
        <path id="Path_3173" data-name="Path 3173" d="M216.2,253.476l5.071,71.4-4.292.73s-5.742-19.757-6.712-30.679a28.238,28.238,0,0,1-.126-3.487,13.7,13.7,0,0,0-.582-4.393l-.6-2.039-3.383-11.449a19.514,19.514,0,0,0-3.349-6.611c-1.759-2.22-3.936-6.521-3.032-13.676l15.885-1.1Z" transform="translate(-184.232 -202.324)" fill="#263238"/>
        <g id="Group_614" data-name="Group 614" transform="translate(0 23.867)">
          <g id="Group_612" data-name="Group 612" transform="translate(14.598 21.596)">
            <path id="Path_3174" data-name="Path 3174" d="M200.778,245.154a19.373,19.373,0,0,1,3.293-.427,16.2,16.2,0,0,1,2.641.866,1.137,1.137,0,0,1,.418,1.914s-1.355,1.737-2.032,1.88c-1.351.286-5.226-1.787-5.226-1.787Z" transform="translate(-199.287 -243.973)" fill="#272727"/>
            <path id="Path_3175" data-name="Path 3175" d="M200.045,243.19l-1.37,4.418,1.315.109,1.205-3.86Z" transform="translate(-198.675 -243.19)" fill="#272727"/>
            <path id="Path_3176" data-name="Path 3176" d="M200.045,243.19l-1.37,4.418,1.315.109,1.205-3.86Z" transform="translate(-198.675 -243.19)" fill="#272727" opacity="0.2"/>
          </g>
          <path id="Path_3177" data-name="Path 3177" d="M176.619,199.49a1.427,1.427,0,0,0-2.425.284c-1.537,3.289-5.418,12.009-5.433,16.242-.019,5.279,15.494,8.4,15.494,8.4l.937-3.033-10.675-6.558,3.07-7.235S178.351,201.865,176.619,199.49Z" transform="translate(-168.76 -198.936)" fill="#272727"/>
          <path id="Path_3178" data-name="Path 3178" d="M176.619,199.49a1.427,1.427,0,0,0-2.425.284c-1.537,3.289-5.418,12.009-5.433,16.242-.019,5.279,15.494,8.4,15.494,8.4l.937-3.033-10.675-6.558,3.07-7.235S178.351,201.865,176.619,199.49Z" transform="translate(-168.76 -198.936)" fill="#272727" opacity="0.1"/>
          <g id="Group_613" data-name="Group 613" transform="translate(5.541 1.078)" opacity="0.4">
            <path id="Path_3179" data-name="Path 3179" d="M182.748,201.145l-1.673.23-.961.689,1.146,11.7,2.14-5.043S184.064,203.743,182.748,201.145Z" transform="translate(-180.114 -201.145)" fill="#272727"/>
            <path id="Path_3180" data-name="Path 3180" d="M187.486,235.756l-4.432-2.723.644,6.575c.926.348,1.852.657,2.73.928Z" transform="translate(-181.619 -217.472)" fill="#272727"/>
          </g>
        </g>
        <path id="Path_3181" data-name="Path 3181" d="M206.24,221.271s-7.638,2.5-20.148.476l-6-25.275a4.393,4.393,0,0,1,2.2-4.8c2.575-1.422,7.667-2.762,17.716-2.207a5.6,5.6,0,0,1,5.142,4.31Z" transform="translate(-174.508 -170.157)" fill="#272727"/>
        <g id="Group_615" data-name="Group 615" transform="translate(11.672 17.592)">
          <path id="Path_3182" data-name="Path 3182" d="M192.677,188.865l.764-1.792s3.008-1.519,8.117-.8l1.213,1.4A57.79,57.79,0,0,0,192.677,188.865Z" transform="translate(-192.677 -186.078)" fill="#263238"/>
        </g>
        <path id="Path_3183" data-name="Path 3183" d="M216.008,164.432c.069.285-.026.551-.217.594s-.417-.162-.476-.441.026-.55.218-.591S215.937,164.149,216.008,164.432Z" transform="translate(-192.587 -157.177)" fill="#263238"/>
        <path id="Path_3184" data-name="Path 3184" d="M216.227,166.662l1.951,1.907a2.075,2.075,0,0,1-1.762.557Z" transform="translate(-193.063 -158.545)" fill="#ba4d3c"/>
        <path id="Path_3185" data-name="Path 3185" d="M193.313,160.865c.746,3.825.978,5.462,3.229,7.2,3.307,1.655,8.035.926,8.472-3.035.394-3.563-.89-9.206-4.958-10.306a5.413,5.413,0,0,0-6.665,3.7A5.177,5.177,0,0,0,193.313,160.865Z" transform="translate(-181.275 -152.336)" fill="#ce7a63"/>
        <path id="Path_3186" data-name="Path 3186" d="M213.646,162.083a.159.159,0,0,0,.131-.066,1.2,1.2,0,0,1,.954-.555.151.151,0,0,0,.156-.148.162.162,0,0,0-.156-.158,1.486,1.486,0,0,0-1.215.686.154.154,0,0,0,.044.215h0A.166.166,0,0,0,213.646,162.083Z" transform="translate(-191.662 -155.725)" fill="#263238"/>
        <path id="Path_3187" data-name="Path 3187" d="M225.894,213.187l-.51-9.257-3.309-4.38-1.811-1.677-1.4.977S219.061,203.952,225.894,213.187Z" transform="translate(-194.415 -174.525)" opacity="0.4"/>
        <path id="Path_3188" data-name="Path 3188" d="M226.885,196.379c1.832,3.367,2.543,5.358,3.171,6.194a.378.378,0,0,0,.358.147l10.712-1.556a.381.381,0,0,1,.417.259l.863,2.653a.381.381,0,0,1-.24.478l-10.043,3.4a5.227,5.227,0,0,1-5.347-.938,28.413,28.413,0,0,1-6.827-8.967c-.771-1.524-2.562-4.342.379-6.822C222.767,189.175,225.669,194.145,226.885,196.379Z" transform="translate(-194.329 -170.875)" fill="#272727"/>
        <path id="Path_3189" data-name="Path 3189" d="M265.191,207.675l2.209-2.594a1.886,1.886,0,0,1,.913-.59l5.2-1.511a.38.38,0,0,1,.446.193h0a.38.38,0,0,1-.2.525l-2.147.879a.38.38,0,0,0-.235.383l.106,1.3a1.9,1.9,0,0,1-1.1,1.878l-1.562.711-.181.071-2.68.9a.381.381,0,0,1-.492-.275l-.354-1.537A.38.38,0,0,1,265.191,207.675Z" transform="translate(-218.086 -177.132)" fill="#ce7a63"/>
        <g id="Group_616" data-name="Group 616" transform="translate(46.436 29.677)">
          <path id="Path_3190" data-name="Path 3190" d="M263.942,211.44l1.324,3.34a.38.38,0,0,0,.521.2l.439-.214a.38.38,0,0,0,.187-.481l-1.262-3.2a.381.381,0,0,0-.412-.237l-.5.077A.381.381,0,0,0,263.942,211.44Z" transform="translate(-263.915 -210.842)" fill="#263238"/>
        </g>
        <g id="Group_617" data-name="Group 617" transform="translate(31.905 121.369)">
          <path id="Path_3191" data-name="Path 3191" d="M234.14,399.629l.666,1.764,5.059-.782-.141-1.875Z" transform="translate(-234.14 -398.736)" fill="#407bff"/>
          <path id="Path_3192" data-name="Path 3192" d="M234.14,399.629l.666,1.764,5.059-.782-.141-1.875Z" transform="translate(-234.14 -398.736)" opacity="0.2"/>
        </g>
        <g id="Group_618" data-name="Group 618" transform="translate(2.485 121.552)">
          <path id="Path_3193" data-name="Path 3193" d="M173.931,399.11l-.079,1.852,5.074.678.394-1.839Z" transform="translate(-173.851 -399.11)" fill="#407bff"/>
          <path id="Path_3194" data-name="Path 3194" d="M173.931,399.11l-.079,1.852,5.074.678.394-1.839Z" transform="translate(-173.851 -399.11)" opacity="0.2"/>
        </g>
        <path id="Path_3195" data-name="Path 3195" d="M194.339,165.878s.568-.8,2.276.126c0,0,2.424-2.714,2.5-5.256,0,0,1.791-.331,1.641-1.488s-1-2.671-.822-3.72,1.922-3.8.442-5.026-1.654.234-2.492.391-5.9.338-6.545,3.92a4.917,4.917,0,0,0-.338,6.084C193.213,164.33,194.339,165.878,194.339,165.878Z" transform="translate(-179.684 -150.029)" fill="#263238"/>
        <path id="Path_3196" data-name="Path 3196" d="M208.734,164.521l4.428-2.46s1.114,2.9.58,3.043-1.236-2.129-1.236-2.129l-3.153,1.5Z" transform="translate(-189.227 -156.189)" fill="#042814"/>
        <path id="Path_3197" data-name="Path 3197" d="M216.69,163.882l.336-.2s.914,2.048.663,2.228S216.69,163.882,216.69,163.882Z" transform="translate(-193.3 -157.02)" fill="#fff" opacity="0.7"/>
        <path id="Path_3198" data-name="Path 3198" d="M207.632,167a3.012,3.012,0,0,1,1.29,1.924c.194,1.038-.783,1.462-1.733,1.095-.862-.332-1.991-1.273-1.752-2.28A1.39,1.39,0,0,1,207.632,167Z" transform="translate(-187.522 -158.577)" fill="#ce7a63"/>
      </g>
    </g>
  </g>
</svg>
