<svg xmlns="http://www.w3.org/2000/svg" xmlns:xlink="http://www.w3.org/1999/xlink" width="211.053" height="143.682" viewBox="0 0 211.053 143.682">
  <defs>
    <linearGradient id="linear-gradient" x1="0.571" y1="1.795" x2="0.493" y2="0.379" gradientUnits="objectBoundingBox">
      <stop offset="0" stop-color="#d1d7e0"/>
      <stop offset="1" stop-color="#00803d" stop-opacity="0.102"/>
    </linearGradient>
    <linearGradient id="linear-gradient-2" x1="0.5" y1="1.147" x2="0.5" y2="0.24" xlink:href="#linear-gradient"/>
    <linearGradient id="linear-gradient-3" y1="0.5" x2="1" y2="0.5" gradientUnits="objectBoundingBox">
      <stop offset="0.005" stop-color="#00803d"/>
      <stop offset="1" stop-color="#00c23d"/>
    </linearGradient>
    <linearGradient id="linear-gradient-4" x1="-35.019" y1="0.5" x2="-34.019" y2="0.5" xlink:href="#linear-gradient-3"/>
    <linearGradient id="linear-gradient-5" x1="-17.958" y1="0.5" x2="-16.958" y2="0.5" xlink:href="#linear-gradient-3"/>
    <linearGradient id="linear-gradient-6" x1="-24.031" y1="0.5" x2="-23.031" y2="0.5" xlink:href="#linear-gradient-3"/>
    <linearGradient id="linear-gradient-7" x1="-17.278" y1="0.5" x2="-16.278" y2="0.5" xlink:href="#linear-gradient-3"/>
    <linearGradient id="linear-gradient-8" x1="0.983" y1="0.961" x2="0.233" y2="0.108" xlink:href="#linear-gradient-3"/>
    <linearGradient id="linear-gradient-9" x1="0.079" y1="2.027" x2="0.485" y2="0.07" gradientUnits="objectBoundingBox">
      <stop offset="0" stop-color="#c9c4c1"/>
      <stop offset="1" stop-color="#fff6de"/>
    </linearGradient>
    <linearGradient id="linear-gradient-10" x1="-0.105" y1="0.5" x2="0.895" y2="0.5" xlink:href="#linear-gradient-9"/>
  </defs>
  <g id="img-hosonhansu" transform="translate(-507.017 -162.813)">
    <path id="Path_3393" data-name="Path 3393" d="M261.348,225.4c30.356-11.269,61.208-1.306,82.133,20.394s64.839-14.978,88.128,6.687c15.894,14.785,8.614,52.8-13.18,69.262-29.622,22.379-119.708,11.023-139.195,7.215-22.451-4.388-38.864-17.7-45.532-33.857C217.635,256.17,247.934,230.38,261.348,225.4Z" transform="translate(277.897 -31.728)" fill="#ecf4f3"/>
    <rect id="Rectangle_108" data-name="Rectangle 108" width="45.773" height="45.773" rx="22.886" transform="translate(588.308 182.997)" opacity="0.95" fill="url(#linear-gradient)"/>
    <rect id="Rectangle_109" data-name="Rectangle 109" width="21.192" height="1.047" transform="translate(600.599 218.349)" fill="#96bfe6"/>
    <rect id="Rectangle_110" data-name="Rectangle 110" width="15.189" height="1.047" transform="translate(603.6 221.648)" fill="#96bfe6"/>
    <rect id="Rectangle_111" data-name="Rectangle 111" width="62.645" height="73.532" rx="31.323" transform="translate(641.611 198.872)" opacity="0.95" fill="url(#linear-gradient-2)"/>
    <g id="Group_43" data-name="Group 43" transform="translate(670.015 242.251)">
      <rect id="Rectangle_112" data-name="Rectangle 112" width="4.969" height="0.92" transform="translate(0)" fill="#00803d"/>
    </g>
    <g id="Group_44" data-name="Group 44" transform="translate(651.152 250.683)" opacity="0.18">
      <rect id="Rectangle_113" data-name="Rectangle 113" width="28.912" height="1.782" transform="translate(0)" fill="#00803d"/>
      <rect id="Rectangle_114" data-name="Rectangle 114" width="23.379" height="1.782" transform="translate(0 8.554)" fill="#00803d"/>
      <rect id="Rectangle_115" data-name="Rectangle 115" width="13.706" height="1.782" transform="translate(0 4.277)" fill="#00803d"/>
    </g>
    <g id="Group_45" data-name="Group 45" transform="translate(651.65 206.205)">
      <path id="Path_2435" data-name="Path 2435" d="M2049.291,662.842v.9h5.3v4.972h.9v-5.872Zm-35.978,5.872h.9v-4.972h5.3v-.9h-6.2Zm41.276,25.657v4.974h-5.3v.9h6.2v-5.874Zm-40.376,0h-.9v5.874h6.2v-.9h-5.3Z" transform="translate(-2013.313 -662.842)" fill="#00803d"/>
    </g>
    <g id="Group_48" data-name="Group 48" transform="translate(685.722 250.552)">
      <g id="Group_46" data-name="Group 46" transform="translate(0 0)">
        <path id="Path_2436" data-name="Path 2436" d="M2411.239,1184.476a5.3,5.3,0,1,1,5.3-5.3A5.3,5.3,0,0,1,2411.239,1184.476Zm0-9.571a4.273,4.273,0,1,0,4.273,4.273A4.278,4.278,0,0,0,2411.239,1174.9Z" transform="translate(-2405.941 -1173.879)" fill="#00803d"/>
      </g>
      <g id="Group_47" data-name="Group 47" transform="translate(2.553 3.576)">
        <path id="Path_2437" data-name="Path 2437" d="M2437.772,1218.891l-2.407-2.407.725-.725,1.682,1.682,2.358-2.358.725.725Z" transform="translate(-2435.365 -1215.082)" fill="#00803d"/>
      </g>
    </g>
    <path id="Path_2438" data-name="Path 2438" d="M694.207,1729.82c0,2.222-38.492,4.024-85.975,4.024s-85.975-1.8-85.975-4.024,38.492-4.024,85.975-4.024S694.207,1727.6,694.207,1729.82Z" transform="translate(0 -1427.349)" fill="url(#linear-gradient-3)"/>
    <g id="Group_53" data-name="Group 53" transform="translate(595.66 180.879)">
      <path id="Path_2439" data-name="Path 2439" d="M1395.431,539.043a7.594,7.594,0,0,0-4.61-4.307c-.41-.136-1.143-.375-1.916-.625l-2.912-.939h-4.8s-1.663.557-3.43,1.177a0,0,0,0,1,0,0c-1.628.571-3.342,1.193-3.921,1.484-1.207.6-3.238,4.911-3.648,5.4a38.036,38.036,0,0,0-2.081,3.807h5.173c.547-.939.968-1.667.968-1.667s.327.718.724,1.667h16.573c.262-1.1.426-2.491.426-2.491s.887,1.207,1.856,2.491h4.776A48.026,48.026,0,0,1,1395.431,539.043Z" transform="translate(-1368.111 -519.099)" fill="#385369"/>
      <g id="Group_49" data-name="Group 49" transform="translate(11.561 0.843)">
        <path id="Path_2440" data-name="Path 2440" d="M1505.825,380.745s3.755.592,3.183,6.466-3.885,5.393-4.107,5.387-3.327.107-3.569-7.065C1501.332,385.533,1501.226,380.229,1505.825,380.745Z" transform="translate(-1501.332 -380.71)" fill="#eea886"/>
      </g>
      <g id="Group_50" data-name="Group 50" transform="translate(19.077 5.491)">
        <path id="Path_2441" data-name="Path 2441" d="M1588.157,434.469s.411-.439.562.005a8.852,8.852,0,0,1-.586,2.52s-.075.173-.174.078A21.481,21.481,0,0,1,1588.157,434.469Z" transform="translate(-1587.939 -434.275)" fill="#eea886"/>
      </g>
      <g id="Group_51" data-name="Group 51" transform="translate(11.076 5.41)">
        <path id="Path_2442" data-name="Path 2442" d="M1496.327,433.541s-.4-.447-.562-.005a8.653,8.653,0,0,0,.538,2.531s.072.174.172.081A21.5,21.5,0,0,0,1496.327,433.541Z" transform="translate(-1495.74 -433.341)" fill="#eea886"/>
      </g>
      <g id="Group_52" data-name="Group 52" transform="translate(11.127 0)">
        <path id="Path_2443" data-name="Path 2443" d="M1504.5,377.584l-.538.719a14.355,14.355,0,0,0-.071-1.823c-.086-.247-.218-1-.29-1.18a8.02,8.02,0,0,0-6.008.258s.122,1.133-.144,1.234-.136,1.845-.136,1.845l-.442-.5a39.067,39.067,0,0,1-.51-4.991c.167-.471.7-3.3,6.412-1.622,0,0,1.781-.377,2.138.852S1504.5,377.584,1504.5,377.584Z" transform="translate(-1496.336 -370.998)" fill="#434343"/>
      </g>
      <path id="Path_2444" data-name="Path 2444" d="M1494.807,494.029c0-.005-.482-.237-.482-.237a10.989,10.989,0,0,1-.06-2.73s-4.782-1.217-4.645-.286a12.028,12.028,0,0,1-.412,3.093l-2.453,1.218s2.614,7.018,5.618,6.113,4.138-6.366,4.138-6.366Z" transform="translate(-1476.458 -480.062)" fill="#eea886"/>
      <path id="Path_2445" data-name="Path 2445" d="M1520.564,505.258a2.835,2.835,0,0,0,2.108.995,3.082,3.082,0,0,0,2.387-1.1,2.517,2.517,0,0,1-2.382,1.774S1521.226,507.11,1520.564,505.258Z" transform="translate(-1507.334 -493.51)" fill="#a77860"/>
    </g>
    <g id="Group_110" data-name="Group 110" transform="translate(580.184 215.587)">
      <g id="Group_58" data-name="Group 58" transform="translate(7.806 0)">
        <g id="Group_57" data-name="Group 57">
          <g id="Group_56" data-name="Group 56">
            <g id="Group_55" data-name="Group 55">
              <g id="Group_54" data-name="Group 54">
                <path id="Path_2446" data-name="Path 2446" d="M1286.817,771.563a4.473,4.473,0,0,1,2.077,5.021c-.682,3.671-.984,4.166-.221,5.6s1.663,7.554.977,8.714-8.5-5.1-9.584-10.347.687-7.585,1.313-8.455S1284.381,770.327,1286.817,771.563Z" transform="translate(-1279.722 -770.958)" fill="#0e2d3d"/>
              </g>
            </g>
          </g>
        </g>
      </g>
      <g id="Group_59" data-name="Group 59" transform="translate(13.213 78.181)">
        <path id="Path_2447" data-name="Path 2447" d="M1342.676,1679.5h.625v-2.949a8.375,8.375,0,0,1,2,1.948c.77,1.13,1.828,1.034,3.439.962s1.539-.721,1.4-1.635-1.78-1.2-2.309-1.347-1.73-2.214-2.116-2.718a6.911,6.911,0,0,1-.806-1.347s-.3-1.227-1.792,0a3.708,3.708,0,0,0-.89,3.8A26.737,26.737,0,0,1,1342.676,1679.5Z" transform="translate(-1342.029 -1671.872)" fill="#163342"/>
      </g>
      <g id="Group_60" data-name="Group 60" transform="translate(13.954 78.402)">
        <path id="Path_2448" data-name="Path 2448" d="M1353.623,1678.807c.553.361,2,0,2,0-.409-.529-2.922-4.064-2.922-4.064-1.527-.89-2.131.335-2.131.335C1351.189,1675.268,1353.069,1678.447,1353.623,1678.807Z" transform="translate(-1350.566 -1674.419)" fill="#eea886"/>
      </g>
      <g id="Group_64" data-name="Group 64" transform="translate(33.011 26.726)">
        <g id="Group_63" data-name="Group 63">
          <g id="Group_62" data-name="Group 62">
            <g id="Group_61" data-name="Group 61">
              <path id="Path_2449" data-name="Path 2449" d="M1570.25,1080.6s1,.192,1.343-.279a3.267,3.267,0,0,1,1.16-.8c.274-.127.968-.829,1.132-.486s-1.089,1.213-1.315,1.448,1.228.339,1.479.567-.058,2.628-1.048,2.441a9.108,9.108,0,0,1-2.105-1.038,6.161,6.161,0,0,1-.726-.108Z" transform="translate(-1570.17 -1078.937)" fill="#eea886"/>
            </g>
          </g>
        </g>
      </g>
      <g id="Group_68" data-name="Group 68" transform="translate(35.889 28.737)">
        <g id="Group_67" data-name="Group 67">
          <g id="Group_66" data-name="Group 66">
            <g id="Group_65" data-name="Group 65">
              <path id="Path_2450" data-name="Path 2450" d="M1604.117,1102.1a22.5,22.5,0,0,1,3.149.992c.156.219.1.378-.178.318s-2.913-.663-2.913-.663,3.389,1.51,3.556,1.661c.1.089.016.4-.138.385s-3.6-1.323-3.6-1.323,3.161,1.416,3.264,1.584a.239.239,0,0,1-.3.329c-.242-.089-3.25-1.237-3.25-1.237a14.073,14.073,0,0,1,2.239,1.368c0,.118-.056.394-.624.072s-1.986-.939-1.986-.939Z" transform="translate(-1603.338 -1102.105)" fill="#eea886"/>
            </g>
          </g>
        </g>
      </g>
      <g id="Group_69" data-name="Group 69" transform="translate(5.581 80.58)">
        <path id="Path_2451" data-name="Path 2451" d="M1254.265,1704.951h.385v-2.165a4.709,4.709,0,0,1,1,1.738c.313,1.034,1.432,1.341,3.139,1.293s1.732-.722,1.587-1.732-1.587-1.539-1.587-1.539a27.02,27.02,0,0,1-2.26-2.97,2.252,2.252,0,0,0-1.846.379c-.812.655-.559,2.135-.535,2.519S1254.265,1704.951,1254.265,1704.951Z" transform="translate(-1254.089 -1699.518)" fill="#163342"/>
      </g>
      <g id="Group_70" data-name="Group 70" transform="translate(3.434 33.596)">
        <path id="Path_2452" data-name="Path 2452" d="M1232.851,1158.959a15.1,15.1,0,0,0-2.587,5.784c-.552,3.138.326,13.672.3,15.223s-1.467,5.411-1.178,8.333,1.427,17.465,1.427,17.465l3.118-.619s-.18-14.827,0-16.053.542-5.7.615-6.2,4.58-13.767,4.58-16.029S1237.757,1155.268,1232.851,1158.959Z" transform="translate(-1229.349 -1158.105)" fill="#1d3b54"/>
      </g>
      <g id="Group_71" data-name="Group 71" transform="translate(10.161 34.822)">
        <path id="Path_2453" data-name="Path 2453" d="M1313.857,1172.894s3.343,12.758,3.74,14.526a37.247,37.247,0,0,1,.972,3.976,26.275,26.275,0,0,1-.647,4.538l-4.245,20.3h-4.043s2.253-12.18,2.313-14.562,1.9-5.777,1.537-6.787-5.808-12.662-5.808-12.662S1303.552,1169.191,1313.857,1172.894Z" transform="translate(-1306.861 -1172.232)" fill="#1d3b54"/>
      </g>
      <g id="Group_72" data-name="Group 72" transform="translate(6.172 80.638)">
        <path id="Path_2454" data-name="Path 2454" d="M1265.005,1703.156l-2.261-2.97-1.846.379a8.37,8.37,0,0,0,1.394,2.33C1263.355,1704.079,1265.005,1703.156,1265.005,1703.156Z" transform="translate(-1260.899 -1700.186)" fill="#eea886"/>
      </g>
      <g id="Group_74" data-name="Group 74" transform="translate(14.562 13.804)">
        <g id="Group_73" data-name="Group 73">
          <path id="Path_2455" data-name="Path 2455" d="M1358.794,930.023a4.171,4.171,0,0,1,2.419,1.246,15.971,15.971,0,0,1,2.292,3.49c.273.595,4.1,6.11,4.294,6.234s2.12.766,3.393,1.195c1.965.661,5.9,2.093,5.9,2.093l-.782,2.477s-7.407-2.423-9.262-2.88c-2.268-.559-7.49-7.258-7.49-7.258S1355.67,932.056,1358.794,930.023Z" transform="translate(-1357.58 -930.023)" fill="#285173"/>
        </g>
      </g>
      <g id="Group_76" data-name="Group 76" transform="translate(3.802 12.743)">
        <g id="Group_75" data-name="Group 75">
          <path id="Path_2456" data-name="Path 2456" d="M1243.156,917.9a18.657,18.657,0,0,0,2.405.967c.62.124,3.025,3.248,3.447,4.389s0,2.851-.868,4.86-.05,2.678-.446,4.686-.269,9.522-.195,10.638-11.606,2.807-13.912.774c0,0,1.561-6.772,3.409-8.7.4-.418.357-3.2.085-3.9s-3.347-5.876-3.347-5.876-.226-5.256,1.116-6.3c1.165-.905,4.341-1.228,4.912-1.426A9.743,9.743,0,0,1,1243.156,917.9Z" transform="translate(-1233.587 -917.805)" fill="#ffbf55"/>
        </g>
      </g>
      <g id="Group_78" data-name="Group 78" transform="translate(9.977 8.333)">
        <g id="Group_77" data-name="Group 77">
          <path id="Path_2457" data-name="Path 2457" d="M1308.986,869.43s-.053.491-.115,1.156c-.024.263-.05.553-.073.85a20.063,20.063,0,0,0-.094,2.335s-1.856,1.859-3.965-2.17a5.536,5.536,0,0,0,.219-3.923C1304.29,865.415,1308.986,869.43,1308.986,869.43Z" transform="translate(-1304.739 -866.986)" fill="#eea886"/>
        </g>
      </g>
      <g id="Group_79" data-name="Group 79" transform="translate(18.536 19.016)">
        <path id="Path_2458" data-name="Path 2458" d="M1404.252,994.87a15.165,15.165,0,0,0-.028-4.776,11.535,11.535,0,0,1-.852,3.759Z" transform="translate(-1403.372 -990.094)" fill="#183c59"/>
      </g>
      <g id="Group_80" data-name="Group 80" transform="translate(8.551 12.902)">
        <path id="Path_2459" data-name="Path 2459" d="M1288.312,919.967s1.276,3.769,4.78,3.492,1.661-3.183,1.661-3.183a7.737,7.737,0,0,0-1.119-.548c-.246-.047-3.874-.093-3.874-.093Z" transform="translate(-1288.312 -919.635)" fill="#eea886"/>
      </g>
      <g id="Group_81" data-name="Group 81" transform="translate(14.992 13.543)">
        <path id="Path_2460" data-name="Path 2460" d="M1362.53,927.023a34.532,34.532,0,0,1,1.835,10.25c0,5.173.148,13.6.789,16.262s2.464,10.892,2.464,10.892l1.429-.739s-3.437-13.135-3.7-14.083a91.164,91.164,0,0,1,.444-11.791c.246-.838,1.294-4.567,1.131-5.6a9.47,9.47,0,0,0-3.4-4.894Z" transform="translate(-1362.53 -927.023)" fill="#285173"/>
      </g>
      <g id="Group_82" data-name="Group 82" transform="translate(1.499 13.075)">
        <path id="Path_2461" data-name="Path 2461" d="M1214.8,921.631a52.759,52.759,0,0,1,1.719,8.329c.578,4.677-1.774,26.388-3.351,31.316l-6.111-.986s1.315-15.346,3.1-18.139,2.354-5.264.426-11.093.845-8.716.845-8.716S1214.26,921.691,1214.8,921.631Z" transform="translate(-1207.052 -921.631)" fill="#285173"/>
      </g>
      <g id="Group_83" data-name="Group 83" transform="translate(0.189 23.621)">
        <path id="Path_2462" data-name="Path 2462" d="M1207.6,1048.095l-7.41,12.834-8.237-4.756,7.088-13.02Z" transform="translate(-1191.955 -1043.153)" fill="#616161"/>
      </g>
      <g id="Group_84" data-name="Group 84" transform="translate(1.047 24.615)">
        <path id="Path_2463" data-name="Path 2463" d="M1215.73,1059l-6.581,11.4-7.316-4.224,6.3-11.563Z" transform="translate(-1201.833 -1054.611)" fill="#e0cec7"/>
      </g>
      <g id="Group_85" data-name="Group 85" transform="translate(9.442 25.472)">
        <path id="Path_2464" data-name="Path 2464" d="M1301.654,1067l.462-.8-2.958-1.708-.577.733Z" transform="translate(-1298.581 -1064.488)" fill="#616161"/>
      </g>
      <g id="Group_91" data-name="Group 91" transform="translate(8.765 33.097)">
        <g id="Group_90" data-name="Group 90">
          <g id="Group_89" data-name="Group 89">
            <g id="Group_88" data-name="Group 88">
              <g id="Group_87" data-name="Group 87">
                <g id="Group_86" data-name="Group 86">
                  <path id="Path_2465" data-name="Path 2465" d="M1294.171,1156.337a1.533,1.533,0,0,1-.485-.07s-.259-.15-.449-.246a1.405,1.405,0,0,0-.15-.068,2.807,2.807,0,0,1-.826-.349,18.82,18.82,0,0,1-1.488-1.57l.548-.833.4-.853a18.944,18.944,0,0,1,2.766.334.961.961,0,0,1,.091.055,3.574,3.574,0,0,1,.516.527c.047.04.486.47.471.653a.6.6,0,0,1-.292.505,1.436,1.436,0,0,1-.307.727.892.892,0,0,1-.429.66S1294.441,1156.271,1294.171,1156.337Z" transform="translate(-1290.773 -1152.348)" fill="#eea886"/>
                </g>
              </g>
            </g>
          </g>
        </g>
      </g>
      <g id="Group_93" data-name="Group 93" transform="translate(0 13.728)">
        <g id="Group_92" data-name="Group 92">
          <path id="Path_2466" data-name="Path 2466" d="M1196.914,929.229a3.108,3.108,0,0,0-3.54,1.835,11.314,11.314,0,0,0-1.455,4.748c-.163,1.143-.9,4.265-.972,4.587s-1.738,4.166-.975,5.509,8.555,5.325,8.505,5.623,1.349-3.005,1.349-3.005a33.382,33.382,0,0,1-3.667-2.3c-.838-.879-2.607-1.825-2.244-2.915.427-1.28,1.709-5.6,2.006-6.232S1198.811,930.035,1196.914,929.229Z" transform="translate(-1189.773 -929.154)" fill="#285173"/>
        </g>
      </g>
      <g id="Group_98" data-name="Group 98" transform="translate(9.217 0.896)">
        <g id="Group_97" data-name="Group 97">
          <g id="Group_96" data-name="Group 96">
            <g id="Group_95" data-name="Group 95">
              <g id="Group_94" data-name="Group 94">
                <path id="Path_2467" data-name="Path 2467" d="M1301.264,781.4s4.006,1.259,1.832,8.172-7.646-.8-7.074-5.013S1301.264,781.4,1301.264,781.4Z" transform="translate(-1295.981 -781.281)" fill="#eea987"/>
              </g>
            </g>
          </g>
        </g>
      </g>
      <g id="Group_103" data-name="Group 103" transform="translate(8.901 0.341)">
        <g id="Group_102" data-name="Group 102">
          <g id="Group_101" data-name="Group 101">
            <g id="Group_100" data-name="Group 100">
              <g id="Group_99" data-name="Group 99">
                <path id="Path_2468" data-name="Path 2468" d="M1300.181,779.589a9.038,9.038,0,0,1-5.322,2.2,8.442,8.442,0,0,0-1.379,2.09s-2.972-5.066.681-8.1S1301.524,778.337,1300.181,779.589Z" transform="translate(-1292.341 -774.882)" fill="#0e2d3d"/>
              </g>
            </g>
          </g>
        </g>
      </g>
      <g id="Group_108" data-name="Group 108" transform="translate(10.069 5.998)">
        <g id="Group_107" data-name="Group 107">
          <g id="Group_106" data-name="Group 106">
            <g id="Group_105" data-name="Group 105">
              <g id="Group_104" data-name="Group 104">
                <path id="Path_2469" data-name="Path 2469" d="M1307.2,841.464c-.026-.5-.336-1.648-1.083-1.328s.046,2.652.542,2.509C1306.655,842.645,1307.258,842.655,1307.2,841.464Z" transform="translate(-1305.807 -840.081)" fill="#eea987"/>
              </g>
            </g>
          </g>
        </g>
      </g>
      <g id="Group_109" data-name="Group 109" transform="translate(11.085 10.047)">
        <path id="Path_2470" data-name="Path 2470" d="M1320.536,888.619c-.024.263-.05.553-.073.85,0,0-1.768-.105-2.95-2.736C1317.59,886.849,1318.885,888.752,1320.536,888.619Z" transform="translate(-1317.513 -886.734)" fill="#a77860"/>
      </g>
    </g>
    <g id="Group_116" data-name="Group 116" transform="translate(532.55 236.992)">
      <g id="Group_111" data-name="Group 111" transform="translate(17.632 12.148)">
        <path id="Path_2471" data-name="Path 2471" d="M844.284,1199.2c2.569-1.806,5.575-14.4,5.754-21.894a10.561,10.561,0,0,1,2.229-6.853,5.793,5.793,0,0,0,1.3-5.191c-.921-5.114,1.5-7.322,1.524-7.344l-.28-.319c-.108.094-2.628,2.371-1.662,7.738a5.385,5.385,0,0,1-1.231,4.87,11.052,11.052,0,0,0-2.307,7.089c-.192,8.047-3.266,19.933-5.574,21.556Z" transform="translate(-844.04 -1157.604)" fill="url(#linear-gradient-4)"/>
      </g>
      <g id="Group_112" data-name="Group 112" transform="translate(0 29.465)">
        <path id="Path_2472" data-name="Path 2472" d="M653.355,1377.768c-.242-.55-.493-1.118-.777-1.718-1.467-3.1-2.767-3.608-4.921-4.453-.526-.207-1.123-.441-1.777-.735-3.085-1.386-2.487-3.429-1.961-5.232.074-.252.147-.5.211-.752.271-1.06-.25-1.592-1.039-2.4a9,9,0,0,1-1.879-2.519c-.616-1.287-.3-1.977.07-2.33.783-.742,2.587-.605,4.291.325a6.2,6.2,0,0,1,1.426,1.228,7.067,7.067,0,0,0,5.856,2.569c1.949.009,3.017.278,3.57.9.627.705.509,1.761.345,3.222-.057.505-.121,1.078-.16,1.7a9.9,9.9,0,0,0,1.969,6.382c1.3,1.551,2.906,4.768,2.214,6.748a2.37,2.37,0,0,1-1.929,1.553,5.491,5.491,0,0,1-1.086.118C655.387,1382.373,654.512,1380.39,653.355,1377.768Zm-7.986-19.437c-1.521-.831-3.153-1-3.795-.39-.488.462-.258,1.255.021,1.838a8.519,8.519,0,0,0,1.8,2.405c.826.843,1.478,1.508,1.147,2.8-.065.254-.14.51-.215.766-.525,1.8-1.021,3.49,1.727,4.725.645.29,1.237.522,1.759.727,2.174.853,3.61,1.417,5.149,4.666.286.6.538,1.176.782,1.728,1.329,3.012,2.131,4.83,5.036,4.242a1.972,1.972,0,0,0,1.613-1.276c.61-1.745-.85-4.8-2.139-6.335a10.146,10.146,0,0,1-2.067-6.681c.04-.629.1-1.207.162-1.718.151-1.352.261-2.329-.241-2.892-.459-.515-1.462-.749-3.255-.757a7.433,7.433,0,0,1-6.162-2.7,5.812,5.812,0,0,0-1.323-1.149Z" transform="translate(-640.864 -1357.156)" fill="url(#linear-gradient-5)"/>
      </g>
      <g id="Group_113" data-name="Group 113" transform="translate(3.295 32.858)">
        <path id="Path_2473" data-name="Path 2473" d="M693.493,1420.527l.424-.022c-.021-.4-.556-9.793-4.328-12.543a15.1,15.1,0,0,1-6.065-8.434c-.732-2.564-4.459-3.249-4.618-3.277l-.074.418c.036.006,3.624.668,4.283,2.976a15.5,15.5,0,0,0,6.223,8.661C692.949,1410.937,693.488,1420.431,693.493,1420.527Z" transform="translate(-678.833 -1396.25)" fill="url(#linear-gradient-6)"/>
      </g>
      <g id="Group_114" data-name="Group 114" transform="translate(13.961 0)">
        <path id="Path_2474" data-name="Path 2474" d="M805.02,1076.861c-.888-.442-.855-2.219-.807-4.909.062-3.4.146-8.055-1.634-12.337-1.89-4.549-.2-5.878,1.426-7.164,1.826-1.44,3.551-2.8.241-8.94-1.52-2.82-2-4.727-1.519-6s1.821-1.751,3.241-2.272c2.453-.9,5.233-1.915,4.874-7.106-.11-1.591.077-2.57.589-3.08.556-.554,1.375-.494,2.324-.424,1.433.1,3.057.224,4.471-1.622.147-.461,1.5-4.577,3.117-5.282a1.145,1.145,0,0,1,.99.005h0a3.308,3.308,0,0,1,1.981,1.937c.377,1.337-.6,2.846-1.738,4.593-1.783,2.745-3.8,5.857-1.708,9.559,2.771,4.9,1.307,6.609-.718,8.98a15.966,15.966,0,0,0-3.355,5.41c-.707,2.02.5,3.946,1.666,5.808,1.464,2.336,2.977,4.752-.209,6.848-5.268,3.466-10.471,14.779-10.523,14.893l-.022.047-.041.032a4.16,4.16,0,0,1-2.209,1.124A.966.966,0,0,1,805.02,1076.861Zm13-16.352c2.839-1.868,1.562-3.907.083-6.268-1.163-1.857-2.482-3.962-1.707-6.174a16.321,16.321,0,0,1,3.433-5.545c1.985-2.323,3.3-3.858.672-8.495-2.223-3.927-.036-7.294,1.721-10,1.078-1.66,2.01-3.094,1.685-4.247a2.928,2.928,0,0,0-1.755-1.668h0a.728.728,0,0,0-.637,0c-1.5.654-2.879,5.011-2.893,5.055l-.011.035-.022.029c-1.559,2.06-3.391,1.926-4.863,1.818-.88-.064-1.574-.115-1.993.3s-.564,1.31-.465,2.75c.381,5.51-2.686,6.632-5.151,7.534-1.385.507-2.581.945-2.99,2.023-.437,1.152.038,2.947,1.5,5.65,3.48,6.453,1.532,7.989-.352,9.475-1.575,1.242-3.064,2.416-1.3,6.668,1.814,4.364,1.728,9.071,1.666,12.508-.043,2.346-.076,4.2.571,4.521.379.189,1.1-.13,2.155-.947C807.786,1074.618,812.768,1063.963,818.018,1060.509Z" transform="translate(-801.745 -1017.614)" fill="url(#linear-gradient-7)"/>
      </g>
      <path id="Path_2475" data-name="Path 2475" d="M711.356,1130.98c2.681-.919,2.124,4.248,3.257,8.072s12.6,1.668,7.789,11.242,6.089,3.2,2.832,11.557-.283,17.291-3.823,15.018-1.989-12.794-5.671-14.044-4.283-2.708-.637-6.107-9.552-6.773-6.3-13.635S708.258,1132.042,711.356,1130.98Z" transform="translate(-702.434 -1121.044)" fill="url(#linear-gradient-8)"/>
      <g id="Group_115" data-name="Group 115" transform="translate(10.678 21.773)">
        <path id="Path_2476" data-name="Path 2476" d="M770.979,1302.015c.337-1.43,3.217-14.017.53-15.539-2.368-1.341-2.31-6.557-1.94-11.482.327-4.36-5.272-6.4-5.511-6.482l-.142.4c.055.02,5.532,2.015,5.229,6.05-.379,5.058-.42,10.426,2.155,11.884,2.04,1.155.162,11.271-.734,15.072Z" transform="translate(-763.916 -1268.512)" fill="#fff"/>
      </g>
      <path id="Path_2477" data-name="Path 2477" d="M791.289,1602.936l-3.828,14.523h-8.555l-3.828-14.523Z" transform="translate(-763.431 -1552.142)" fill="url(#linear-gradient-9)"/>
      <path id="Path_2478" data-name="Path 2478" d="M791.289,1602.936s-8.427,1.582-8.427,14.523h-3.955l-3.828-14.523Z" transform="translate(-763.431 -1552.142)" fill="url(#linear-gradient-10)"/>
    </g>
    <path id="Rectangle_116" data-name="Rectangle 116" d="M15.144,0h3.342A15.144,15.144,0,0,1,33.63,15.144v0A15.144,15.144,0,0,1,18.486,30.288H15.144A15.144,15.144,0,0,1,0,15.144v0A15.144,15.144,0,0,1,15.144,0Z" transform="translate(638.577 166.046)" opacity="0.95" fill="url(#linear-gradient-2)"/>
    <g id="Group_117" data-name="Group 117" transform="translate(653.931 190.606)">
      <rect id="Rectangle_117" data-name="Rectangle 117" width="2.667" height="0.494" transform="translate(0 0)" fill="#4598e6"/>
    </g>
    <g id="Group_133" data-name="Group 133" transform="translate(648.861 162.813)">
      <g id="Group_120" data-name="Group 120" transform="translate(2.926 0)">
        <g id="Group_119" data-name="Group 119">
          <g id="Group_118" data-name="Group 118">
            <path id="Path_2479" data-name="Path 2479" d="M2020.785,163.394a3.571,3.571,0,0,1,1.467,4.082c-.682,2.9-.942,3.285-.387,4.457s1.042,6.086.45,6.985-6.586-4.385-7.252-8.611.833-6.022,1.365-6.692A3.7,3.7,0,0,1,2020.785,163.394Z" transform="translate(-2014.895 -162.813)" fill="#344052"/>
          </g>
        </g>
      </g>
      <g id="Group_121" data-name="Group 121" transform="translate(6.663 10.816)">
        <path id="Path_2480" data-name="Path 2480" d="M2064.15,301.2h-2.3c-.111-1.135-.214-1.925-.193-2.042.034-.193-2.289-6.287-2.506-6.791a9.847,9.847,0,0,1-1.181-3.127c-.113-1.273,1.547-1.787,1.547-1.787,2.24.4,3,3.5,3,3.5s.941,6.284,1.417,8.053A11.246,11.246,0,0,1,2064.15,301.2Z" transform="translate(-2057.963 -287.451)" fill="#eea886"/>
      </g>
      <path id="Path_2481" data-name="Path 2481" d="M2063.4,286.657l-3.426,1.445s-3.149-7.815-.51-6.942S2063.281,283.665,2063.4,286.657Z" transform="translate(-2051.708 -270.827)" fill="#eb4747"/>
      <g id="Group_122" data-name="Group 122" transform="translate(1.079 9.815)">
        <path id="Path_2482" data-name="Path 2482" d="M2003.467,285.609a32.756,32.756,0,0,0-.418,4.267c.015.122.066.4.142.787h-8.261c.219-.784.419-1.479.541-1.883.4-1.331.017-1.687-.186-2.751-.079-.417-.356-1.208-.659-2.1-.1-.3-.206-.61-.306-.922a19.024,19.024,0,0,1-.636-2.948c-.5-3.178,1.946-3.484,1.946-3.484.908-.168,2.5-.658,2.5-.658l2.485.517a2.7,2.7,0,0,1,.582.344,0,0,0,0,1,0,0,4.548,4.548,0,0,1,.559.49,15.013,15.013,0,0,1,1.352,1.954c.165.269.331.545.487.817a4.683,4.683,0,0,1,.853,2.375C2004.434,283.2,2003.567,284.833,2003.467,285.609Z" transform="translate(-1993.617 -275.914)" fill="#eb4747"/>
      </g>
      <path id="Path_2483" data-name="Path 2483" d="M2033.743,276.65s1.557,2.661.978,2.86a5.471,5.471,0,0,1-4.823-2.987A4.615,4.615,0,0,1,2033.743,276.65Z" transform="translate(-2025.67 -266.318)" fill="#eea886"/>
      <path id="Path_2484" data-name="Path 2484" d="M2039.027,241.957s-1.383.585-2.635-1.341a6.586,6.586,0,0,0-.375-3.453c-.711-1.265,3.11,1.517,3.11,1.517s-.062.261-.126.646c-.033.2-.066.426-.092.67-.021.2-.038.416-.045.628A3.434,3.434,0,0,0,2039.027,241.957Z" transform="translate(-2031.177 -230.409)" fill="#eea886"/>
      <path id="Path_2485" data-name="Path 2485" d="M2004.358,330.229c-.285,1.464-2.327,3.3-2.327,3.3-.1-.3-.205-.61-.305-.922A13.363,13.363,0,0,0,2004.358,330.229Z" transform="translate(-1999.942 -315.701)" fill="#393d63"/>
      <g id="Group_123" data-name="Group 123" transform="translate(0.306 10.912)">
        <path id="Path_2486" data-name="Path 2486" d="M1988.3,293.337c-.13.534-.725,5.939-.66,6.124.038.106.327,1.356.615,2.746h-2.667a6.554,6.554,0,0,1-.4-2.06,68.28,68.28,0,0,0-.448-7.636s-.553-3.516,2.364-3.955c0,0,1.723.227,1.828,1.5A9.882,9.882,0,0,1,1988.3,293.337Z" transform="translate(-1984.706 -288.555)" fill="#eea886"/>
      </g>
      <path id="Path_2487" data-name="Path 2487" d="M1981.31,289.8l3.621.846s2.872-5.577.285-6.595C1982.49,282.978,1980.656,286.759,1981.31,289.8Z" transform="translate(-1981.177 -273.36)" fill="#eb4747"/>
      <g id="Group_126" data-name="Group 126" transform="translate(4.12 0.745)">
        <g id="Group_125" data-name="Group 125">
          <g id="Group_124" data-name="Group 124">
            <path id="Path_2488" data-name="Path 2488" d="M2033.011,171.544s3.147,1.155,1.152,6.585-6.066-.927-5.451-4.264S2033.011,171.544,2033.011,171.544Z" transform="translate(-2028.65 -171.398)" fill="#eea987"/>
          </g>
        </g>
      </g>
      <g id="Group_129" data-name="Group 129" transform="translate(4.004 0.294)">
        <g id="Group_128" data-name="Group 128">
          <g id="Group_127" data-name="Group 127">
            <path id="Path_2489" data-name="Path 2489" d="M2033.432,170.1a7.213,7.213,0,0,1-4.326,1.552s-.623,1.518-.724,1.984c0,0-2.633-4.521.394-6.8S2034.55,169.151,2033.432,170.1Z" transform="translate(-2027.321 -166.201)" fill="#344052"/>
          </g>
        </g>
      </g>
      <g id="Group_132" data-name="Group 132" transform="translate(5.063 4.934)">
        <g id="Group_131" data-name="Group 131">
          <g id="Group_130" data-name="Group 130">
            <path id="Path_2490" data-name="Path 2490" d="M2040.611,220.8c0-.4-.206-1.327-.814-1.1s-.063,2.116.337,2.021C2040.134,221.723,2040.615,221.753,2040.611,220.8Z" transform="translate(-2039.525 -219.666)" fill="#eea987"/>
          </g>
        </g>
      </g>
      <path id="Path_2491" data-name="Path 2491" d="M2048.025,259.806a3.347,3.347,0,0,1-2.068-1.866c1.2,1.554,2.11,1.331,2.11,1.331C2048.045,259.473,2048.043,259.6,2048.025,259.806Z" transform="translate(-2040.335 -249.685)" fill="#a77860"/>
    </g>
    <g id="Group_134" data-name="Group 134" transform="translate(644.072 171.528)">
      <path id="Path_2492" data-name="Path 2492" d="M1945.3,263.236v.483h2.844v2.669h.483v-3.152Zm-19.314,3.152h.483v-2.669h2.844v-.483h-3.327Zm22.158,13.773v2.67H1945.3v.483h3.327v-3.153Zm-21.675,0h-.483v3.153h3.327v-.483h-2.844Z" transform="translate(-1925.988 -263.236)" fill="#00803d"/>
    </g>
    <g id="Group_135" data-name="Group 135" transform="translate(609.414 213.234)">
      <rect id="Rectangle_118" data-name="Rectangle 118" width="3.563" height="0.66" transform="translate(0 0)" fill="#4598e6"/>
    </g>
    <g id="Group_136" data-name="Group 136" transform="translate(596.074 187.752)">
      <path id="Path_2493" data-name="Path 2493" d="M1398.685,450.2v.645h3.8v3.565h.645V450.2Zm-25.8,4.211h.645v-3.565h3.8V450.2h-4.444Zm29.6,18.4v3.567h-3.8v.645h4.444V472.8Zm-28.951,0h-.645v4.212h4.444v-.645h-3.8Z" transform="translate(-1372.888 -450.196)" fill="#00803d"/>
    </g>
    <g id="Group_152" data-name="Group 152" transform="translate(651.709 193.853)">
      <g id="Group_137" data-name="Group 137" transform="translate(0.976 20.33)">
        <path id="Path_2494" data-name="Path 2494" d="M2063.324,777.914h-3.013c-.055-.121-.1-.226-.136-.309-.894-2.111-5.5-6.953-5.5-6.953v.01a.009.009,0,0,0,0,.005v.005c0,.008-.005.013-.008.021s-.005.024-.01.039a.091.091,0,0,0-.005.026l-.008.021c-.189.706-1.117,4.22-1.581,7.134h-20.391c-.047-.27-.1-.527-.165-.766a16.528,16.528,0,0,1-.393-2.109c0-.034-.008-.066-.01-.1-.016-.123-.029-.247-.039-.367a19.31,19.31,0,0,1-.034-3.375c-.058.123-.469,1.634-1.01,3.5-.3,1.023-.632,2.153-.965,3.218h-4.815l6.043-17.433c.134-.1,1.7-.863,2.845-1.408,1.167-.556,2.576-1.372,3.847-2.069.651-.357,1.264-.679,1.8-.923l.081-.037v0c.879-.4,1.464-.666,1.464-.666h0l.38-.037c1.227-.118,5.035-.475,6.31-.548.1-.008.194-.01.262-.013a1.036,1.036,0,0,1,.128,0,16.046,16.046,0,0,1,1.978.677c.039.013.079.029.118.045l.147.055c.089.034.181.068.273.1.184.073.375.147.567.223l.2.079a40.338,40.338,0,0,1,4.991,2.237,30.347,30.347,0,0,1,2.869,5.14A150.371,150.371,0,0,1,2063.324,777.914Z" transform="translate(-2025.233 -754.775)" fill="#decbc4"/>
      </g>
      <g id="Group_138" data-name="Group 138" transform="translate(16.97 13.484)">
        <path id="Path_2495" data-name="Path 2495" d="M2216.681,682.139c-.054,2.741-5.362,4.241-5.362,4.241s-2.22-2.783-1.69-3.05c.208-.1.293-.52.319-.986a9.671,9.671,0,0,0-.03-1.243c-.016-.194-.031-.319-.031-.319s.758-.8,1.723-1.753c1.686-1.667,4-3.8,4.007-2.953a.777.777,0,0,1-.02.161C2215.191,678.149,2216.681,682.139,2216.681,682.139Z" transform="translate(-2209.548 -675.884)" fill="#eea886"/>
      </g>
      <g id="Group_139" data-name="Group 139" transform="translate(16.814 15.723)">
        <path id="Path_2496" data-name="Path 2496" d="M2212.988,701.688h0c-.01.016-.235.353-.62.836a11.118,11.118,0,0,1-4.068,3.385,9.627,9.627,0,0,0-.03-1.243,2.766,2.766,0,0,1-.527-.063,16.364,16.364,0,0,1,1.154-1.69l1.065-.319Z" transform="translate(-2207.742 -701.688)" fill="#a77860"/>
      </g>
      <g id="Group_140" data-name="Group 140" transform="translate(13.234 4.502)">
        <path id="Path_2497" data-name="Path 2497" d="M2176.342,581.593c-.459,1-.9,1.723-1.019,2.01h0a3.539,3.539,0,0,1-.62.836c-.875.942-2.5,2.185-4.1,2.141a2.761,2.761,0,0,1-.527-.063,2.508,2.508,0,0,1-1.826-1.262,14.353,14.353,0,0,1-.914-11.783s9.053-2.56,10.47.165C2178.8,575.549,2177.42,579.246,2176.342,581.593Z" transform="translate(-2166.498 -572.381)" fill="#eea886"/>
      </g>
      <g id="Group_141" data-name="Group 141" transform="translate(12.967 0)">
        <path id="Path_2498" data-name="Path 2498" d="M2164.526,526.092s-.841-.047-1.049-1.641c-.205-1.575.21-2.011.21-2.011a37.439,37.439,0,0,1,5.08-1.768c1.342-.2,4.642-.4,5.416.486,0,0,1.879-.437,2.392,2.683.812,4.95-2.768,9.757-2.768,9.757s.031-3.234-.683-3.662-1.329.591-1.329.591l-1.459.261s2.216-4.784-.442-4.962S2166.048,526.369,2164.526,526.092Z" transform="translate(-2163.421 -520.499)" fill="#e8734d"/>
      </g>
      <g id="Group_142" data-name="Group 142" transform="translate(21.335 7.373)">
        <path id="Path_2499" data-name="Path 2499" d="M2259.9,606.827c.139-1.425,2.715-1.969,2.543-.475s-1.441,2.928-2.028,2.878S2259.791,607.913,2259.9,606.827Z" transform="translate(-2259.849 -605.463)" fill="#eea886"/>
      </g>
      <g id="Group_143" data-name="Group 143" transform="translate(19.106 21.009)">
        <path id="Path_2500" data-name="Path 2500" d="M2251.513,770.612c-.839-2.688-1.565-4.815-1.888-5.046-.564-.4-5.033-1.634-7.155-2.465l-.2-.079c-.191-.076-.383-.15-.567-.223-.092-.037-.184-.071-.273-.1l-.147-.055c-.039-.016-.079-.031-.118-.045,0,0-.005.008-.01.01a34.83,34.83,0,0,0-2.342,3c-2.193,3.116-5.049,8.164-4.611,12.825.142,1.495.315,3.643.606,6.053.021.191.045.383.071.577h9.893a53.058,53.058,0,0,1,.661-7.134l.008-.021a.1.1,0,0,1,0-.026c0-.013.008-.026.011-.039s.005-.013.008-.021v-.005a.009.009,0,0,1,0-.005s2.395,3.742,2.518,7.252h6.227A82.548,82.548,0,0,0,2251.513,770.612Z" transform="translate(-2234.156 -762.595)" fill="#3c4145"/>
      </g>
      <g id="Group_144" data-name="Group 144" transform="translate(0 21.636)">
        <path id="Path_2501" data-name="Path 2501" d="M2029.541,769.849a74.351,74.351,0,0,0-1.713,8.694v0c-.034.207-.065.42-.1.637,0,.024-.008.05-.01.076-.024.142-.045.289-.066.435,0,.018-.005.034-.008.052-.016.1-.031.2-.044.3-.037.244-.074.5-.11.75-.362,2.534-.845,6.559-1.335,10.855h-3.911a18.25,18.25,0,0,1-.4-3.024.378.378,0,0,0-.018.05c-.312.865-.656,1.807-1,2.722l-.094.252h-6.74l6.714-17.564c.134-.1,1.862-1.036,3.006-1.579,1.194-.569,2.7-1.269,4.039-1.886.64-.3,1.24-.572,1.749-.805Z" transform="translate(-2013.991 -769.817)" fill="#3c4145"/>
      </g>
      <g id="Group_145" data-name="Group 145" transform="translate(19.106 21.009)">
        <path id="Path_2502" data-name="Path 2502" d="M2239.7,769.4l-2.583,1.458,1.1,1.125-2.423,13.076h-.913c-.335-2.644-.527-5.017-.676-6.63-.674-7.207,6.517-15.335,6.963-15.83.346.131.719.275,1.1.427Z" transform="translate(-2234.161 -762.595)" fill="#51565c"/>
      </g>
      <g id="Group_146" data-name="Group 146" transform="translate(11.283 21.599)">
        <path id="Path_2503" data-name="Path 2503" d="M2148.313,769.4a83.3,83.3,0,0,0-2.088,11.015c-.362,2.531-.847,6.559-1.337,10.855h-.38l-.5-12.355,1.23-1.332-1.094-1.366,2.34-5.974c.64-.3,1.24-.572,1.749-.805Z" transform="translate(-2144.007 -769.395)" fill="#51565c"/>
      </g>
      <g id="Group_147" data-name="Group 147" transform="translate(18.742 19.74)">
        <path id="Path_2504" data-name="Path 2504" d="M2237.464,749.268l-2.141-1.3s-.06,1.174-5.362,4.241l1.506,4.24Z" transform="translate(-2229.962 -747.968)" fill="#f5e2d9"/>
      </g>
      <g id="Group_148" data-name="Group 148" transform="translate(15.589 20.331)">
        <path id="Path_2505" data-name="Path 2505" d="M2195.376,754.783a9.974,9.974,0,0,0,1.41,3.649l-2.938,3.831-.214-6.213Z" transform="translate(-2193.634 -754.783)" fill="#f5e2d9"/>
      </g>
      <g id="Group_149" data-name="Group 149" transform="translate(16.962 23.98)">
        <path id="Path_2506" data-name="Path 2506" d="M2211.241,796.834a10,10,0,0,1,.364,2.916,2.78,2.78,0,0,1-2.152-.114A10,10,0,0,1,2211.241,796.834Z" transform="translate(-2209.453 -796.834)" fill="#d44040"/>
      </g>
      <g id="Group_150" data-name="Group 150" transform="translate(15.024 26.257)">
        <path id="Path_2507" data-name="Path 2507" d="M2190.151,828.537a57.273,57.273,0,0,0-.378,11.744h-2.51c-.034-.5-.065-1.012-.1-1.553a40.474,40.474,0,0,1,2.4-15.34l1.277-.32S2190.429,826.649,2190.151,828.537Z" transform="translate(-2187.115 -823.069)" fill="#d44040"/>
      </g>
      <g id="Group_151" data-name="Group 151" transform="translate(6.748 31.943)">
        <path id="Path_2508" data-name="Path 2508" d="M2092.94,893.426c-.1,1.944-.082,3.67-.082,3.67h0c0,.009,0,.062-.007.149,0-.033-.008-.065-.012-.1-.311.865-.656,1.806-1,2.722a29.135,29.135,0,0,1-.078-2.966c.139-5.45,1.854-8.308,1.854-8.308A18.508,18.508,0,0,0,2092.94,893.426Z" transform="translate(-2091.749 -888.596)" fill="#2d3133"/>
      </g>
    </g>
    <g id="Group_175" data-name="Group 175" transform="translate(620.115 215.587)">
      <g id="Group_153" data-name="Group 153" transform="translate(0 10.11)">
        <path id="Path_2509" data-name="Path 2509" d="M1665.994,899.1l-8.019,4.408-8.053-12.673,9.74-3.383Z" transform="translate(-1649.922 -887.456)" fill="#292c47"/>
      </g>
      <g id="Group_154" data-name="Group 154" transform="translate(0.533 10.484)">
        <path id="Path_2510" data-name="Path 2510" d="M1671.1,902.663l-7.5,4.122-7.531-11.852,9.109-3.164Z" transform="translate(-1656.068 -891.77)" fill="#fff"/>
      </g>
      <g id="Group_155" data-name="Group 155" transform="translate(8.802 16.527)">
        <path id="Path_2511" data-name="Path 2511" d="M1760.858,964.041s-1.4-.668-2.008-1.016-2.189-.828-2.316-.942-4.672-.394-4.947-.632-.544.557.634.815,2.817.889,2.906,1.349-1.21.569-1.341.949.037.294.223.375,1.546-.672,2.143-.458,1.511-.082,1.97.075,2.686.906,2.686.906Z" transform="translate(-1751.349 -961.407)" fill="#eea886"/>
      </g>
      <g id="Group_156" data-name="Group 156" transform="translate(1.522 16.54)">
        <path id="Path_2512" data-name="Path 2512" d="M1673.6,969.592s-1.173-1.055-1.74-1.5-1.632-1.74-1.789-1.816-2.191-4.249-2.522-4.416.314-.729,1.015.28,1.934,2.308,2.4,2.214.066-1.362.372-1.633.292-.08.441.064-.031,1.718.4,2.2.511,1.456.837,1.827,1.9,2.178,1.9,2.178Z" transform="translate(-1667.458 -961.556)" fill="#eea886"/>
      </g>
      <g id="Group_157" data-name="Group 157" transform="translate(32.915 80.757)">
        <path id="Path_2513" data-name="Path 2513" d="M2029.223,1701.792s.253,1.761.285,2.025,2.822-.156,2.822-.156l.226-2.1A16.532,16.532,0,0,0,2029.223,1701.792Z" transform="translate(-2029.223 -1701.565)" fill="#424773"/>
      </g>
      <g id="Group_158" data-name="Group 158" transform="translate(28.33 82.667)">
        <path id="Path_2514" data-name="Path 2514" d="M1981.219,1723.684a7.531,7.531,0,0,1-1.739,1.523c-.855.463-2.2.646-2.7,1.124-.365.346-1.329,1.833,2.222,1.8s5.263.21,5.643-.36-.55-4.209-.55-4.209A7.518,7.518,0,0,1,1981.219,1723.684Z" transform="translate(-1976.377 -1723.565)" fill="#292c47"/>
      </g>
      <g id="Group_159" data-name="Group 159" transform="translate(12.925 80.757)">
        <path id="Path_2515" data-name="Path 2515" d="M1798.863,1701.792s.254,1.761.285,2.025,2.822-.156,2.822-.156l.226-2.1A16.535,16.535,0,0,0,1798.863,1701.792Z" transform="translate(-1798.863 -1701.565)" fill="#424773"/>
      </g>
      <g id="Group_160" data-name="Group 160" transform="translate(6.699 82.667)">
        <path id="Path_2516" data-name="Path 2516" d="M1733.6,1723.684a7.53,7.53,0,0,1-1.739,1.523c-.855.463-4,.842-4.507,1.321-.365.345-.972,1.736,4.024,1.606,3.549-.093,5.263.21,5.643-.36s-.55-4.209-.55-4.209A6.824,6.824,0,0,1,1733.6,1723.684Z" transform="translate(-1727.118 -1723.565)" fill="#292c47"/>
      </g>
      <g id="Group_161" data-name="Group 161" transform="translate(24.204 35.745)">
        <path id="Path_2517" data-name="Path 2517" d="M1935.237,1182.865s2.622,4.165,2.426,7.93.951,7.875,1.344,11.808c.439,4.385,2.236,14.765,2.3,17.11s-.279,9.835-.279,9.835l-3.6.082s-3.021-18.147-3.8-20-4.662-15.052-4.792-16.533S1935.237,1182.865,1935.237,1182.865Z" transform="translate(-1928.836 -1182.865)" fill="#292c47"/>
      </g>
      <g id="Group_162" data-name="Group 162" transform="translate(12.439 35.028)">
        <path id="Path_2518" data-name="Path 2518" d="M1797.629,1175.879s-1.975,10.319-2.236,12.624-.435,11.151-.565,12.592-.869,18.846-1.565,20.986h4.6s3.529-12.653,3.529-18.64,2.727-13.015,4.487-16.965,5.789-4.043,6.871-11.372C1812.748,1175.1,1799.094,1173.554,1797.629,1175.879Z" transform="translate(-1793.263 -1174.597)" fill="#292c47"/>
      </g>
      <g id="Group_163" data-name="Group 163" transform="translate(19.964 0.405)">
        <path id="Path_2519" data-name="Path 2519" d="M1886.241,775.952s-3.519-1.314-5.141,1.364-1.466,8.041.307,8.7,4.438.315,5.346-1.361a13.421,13.421,0,0,0,1.688-5.718A3.528,3.528,0,0,0,1886.241,775.952Z" transform="translate(-1879.974 -775.629)" fill="#eea886"/>
      </g>
      <g id="Group_164" data-name="Group 164" transform="translate(21.675 7.575)">
        <path id="Path_2520" data-name="Path 2520" d="M1899.792,861.589a3.042,3.042,0,0,1-.1,1.418c-.242.468,4.559.48,4.559.48a31.635,31.635,0,0,1,1.129-4.7C1906.123,856.641,1899.792,861.589,1899.792,861.589Z" transform="translate(-1899.688 -858.25)" fill="#eea886"/>
      </g>
      <g id="Group_165" data-name="Group 165" transform="translate(20.115 0)">
        <path id="Path_2521" data-name="Path 2521" d="M1888.971,779.075s-.331.547-1.684.334-3-2.012-3.567-2.209-.57-.529-.57-.529l-.354.516-.6.038s.547-1.61-.278-2.266.856-5.21,5.194-3.694c0,0,3.332.918,3.21,2.813A10.53,10.53,0,0,1,1888.971,779.075Z" transform="translate(-1881.715 -770.958)" fill="#3a3f47"/>
      </g>
      <g id="Group_166" data-name="Group 166" transform="translate(21.398 10.961)">
        <path id="Path_2522" data-name="Path 2522" d="M1896.506,898.585s.015-.894.421-.98a28.937,28.937,0,0,1,4.971-.281v1.042S1900.939,898.955,1896.506,898.585Z" transform="translate(-1896.506 -897.269)" fill="#e2d2ca"/>
      </g>
      <g id="Group_167" data-name="Group 167" transform="translate(21.533 4.333)">
        <path id="Path_2523" data-name="Path 2523" d="M1898.159,821.582c.076-.318.884-1.226,1.194-.254s-.468,2.28-.9,2.168S1897.967,822.388,1898.159,821.582Z" transform="translate(-1898.052 -820.891)" fill="#eea886"/>
      </g>
      <g id="Group_168" data-name="Group 168" transform="translate(5.235 22.84)">
        <path id="Path_2524" data-name="Path 2524" d="M1710.266,1034.16h.007C1710.245,1034.171,1710.241,1034.173,1710.266,1034.16Z" transform="translate(-1710.25 -1034.159)" fill="#323657"/>
      </g>
      <g id="Group_169" data-name="Group 169" transform="translate(5.259 12.057)">
        <path id="Path_2525" data-name="Path 2525" d="M1738.827,943.5a37.223,37.223,0,0,1-5.838,1.041c-3.68.406-12.874-.147-12.932-.581s1.978-16.188,1.862-17-.178-3.7-.178-3.7a20.371,20.371,0,0,1-1.826,5.791c-.352.637-1.533,2.634-2.1,2.18-2.754-2.2-7.02-10.487-7.29-10.556.227-.1,2.021-.925,2.273-1.009.22-.073,2.208,2.03,3.411,3.335.537.581.918,1,.918,1,.348-.782,1.614-5.71,2.007-7.416.888-3.846.751-4.006.751-4.006,2.692-.814,6.778-2.472,6.778-2.472l5.392-.22a52.438,52.438,0,0,1,6.9,1.969c.185.083.186,4.414.693,5.55l-1.616,3.409s-.933,6.752-1.127,9.755C1736.813,931.956,1738.827,943.5,1738.827,943.5Z" transform="translate(-1710.523 -909.894)" fill="#ffdf69"/>
      </g>
      <g id="Group_170" data-name="Group 170" transform="translate(28.602 14.026)">
        <path id="Path_2526" data-name="Path 2526" d="M1985.517,943.763a2.129,2.129,0,0,1-1.2,1.006,1.546,1.546,0,0,1-.863.087l-.211-.039h0l-3.695-.685s-.809-9.311,5.048-11.542C1984.755,932.641,1986.81,939.594,1985.517,943.763Z" transform="translate(-1979.515 -932.59)" fill="#ffdf69"/>
      </g>
      <g id="Group_171" data-name="Group 171" transform="translate(32.335 21.495)">
        <path id="Path_2527" data-name="Path 2527" d="M2023.6,1023.369h0a1.545,1.545,0,0,1-.863.087l-.211-.039h0l.365-4.758Z" transform="translate(-2022.529 -1018.659)" fill="#ab9546"/>
      </g>
      <g id="Group_172" data-name="Group 172" transform="translate(10.943 25.166)">
        <path id="Path_2528" data-name="Path 2528" d="M1776.939,1061.967l-.452,1.912a15.113,15.113,0,0,1-.466-2.916C1776.558,1061.544,1776.939,1061.967,1776.939,1061.967Z" transform="translate(-1776.021 -1060.963)" fill="#ab9546"/>
      </g>
      <g id="Group_173" data-name="Group 173" transform="translate(27.233 1.034)">
        <path id="Path_2529" data-name="Path 2529" d="M1963.738,782.883s4.611-.578.078,7.125Z" transform="translate(-1963.738 -782.873)" fill="#3a3f47"/>
      </g>
      <g id="Group_174" data-name="Group 174" transform="translate(3.238 10.734)">
        <path id="Path_2530" data-name="Path 2530" d="M1687.709,896.728l-.469-.805,3.692-1.274.469.8Z" transform="translate(-1687.24 -894.648)" fill="#292c47"/>
      </g>
    </g>
    <g id="Group_176" data-name="Group 176" transform="translate(683.631 191.081)" opacity="0.95">
      <path id="Path_2531" data-name="Path 2531" d="M2495.72,503.44h2.616l-.8-1.661h-2.616Z" transform="translate(-2485.107 -500.632)" fill="#dbdbdb"/>
      <path id="Path_2532" data-name="Path 2532" d="M2481.615,503.44h.623l-.8-1.661h-.623Z" transform="translate(-2472.226 -500.632)" fill="#dbdbdb"/>
      <path id="Path_2533" data-name="Path 2533" d="M2382.2,489.388h10.592l-.352-.83H2381.85Z" transform="translate(-2381.85 -488.558)" fill="#dbdbdb"/>
    </g>
    <g id="Group_183" data-name="Group 183" transform="translate(622.857 164.083)">
      <g id="Group_177" data-name="Group 177" transform="translate(0 0)">
        <path id="Rectangle_119" data-name="Rectangle 119" d="M.676,0H3.812a.676.676,0,0,1,.676.676v0a.676.676,0,0,1-.676.676H.676A.676.676,0,0,1,0,.676v0A.676.676,0,0,1,.676,0Z" fill="#eaeaea"/>
      </g>
      <g id="Group_178" data-name="Group 178" transform="translate(0 3.243)">
        <rect id="Rectangle_120" data-name="Rectangle 120" width="4.488" height="1.353" rx="0.676" fill="#eaeaea"/>
      </g>
      <g id="Group_179" data-name="Group 179" transform="translate(0 6.487)">
        <path id="Rectangle_121" data-name="Rectangle 121" d="M.676,0H3.812a.676.676,0,0,1,.676.676v0a.676.676,0,0,1-.676.676H.676A.676.676,0,0,1,0,.676v0A.676.676,0,0,1,.676,0Z" fill="#eaeaea"/>
      </g>
      <g id="Group_180" data-name="Group 180" transform="translate(6.342 0)">
        <path id="Rectangle_122" data-name="Rectangle 122" d="M.639,0h0a.639.639,0,0,1,.639.639V.714a.639.639,0,0,1-.639.639h0A.638.638,0,0,1,0,.714V.639A.639.639,0,0,1,.639,0Z" fill="#eaeaea"/>
      </g>
      <g id="Group_181" data-name="Group 181" transform="translate(6.342 3.243)">
        <path id="Rectangle_123" data-name="Rectangle 123" d="M.639,0h0a.639.639,0,0,1,.639.639V.714a.639.639,0,0,1-.639.639h0A.638.638,0,0,1,0,.714V.639A.639.639,0,0,1,.639,0Z" fill="#eaeaea"/>
      </g>
      <g id="Group_182" data-name="Group 182" transform="translate(6.342 6.487)">
        <path id="Rectangle_124" data-name="Rectangle 124" d="M.639,0h0a.638.638,0,0,1,.638.638V.714a.638.638,0,0,1-.638.638h0A.638.638,0,0,1,0,.715V.639A.639.639,0,0,1,.639,0Z" fill="#eaeaea"/>
      </g>
    </g>
    <g id="Group_184" data-name="Group 184" transform="translate(609.22 235.502)">
      <path id="Path_2534" data-name="Path 2534" d="M1551.126,1003.42h4.7l-1.437-2.981h-4.7Z" transform="translate(-1547.491 -1000.44)" fill="#e5e5e5"/>
      <path id="Path_2535" data-name="Path 2535" d="M1525.808,1003.42h1.119l-1.437-2.981h-1.119Z" transform="translate(-1524.371 -1000.44)" fill="#e5e5e5"/>
    </g>
  </g>
</svg>
