<svg xmlns="http://www.w3.org/2000/svg" xmlns:xlink="http://www.w3.org/1999/xlink" width="221.398" height="161.198" viewBox="0 0 221.398 161.198">
  <defs>
    <linearGradient id="linear-gradient" y1="0.5" x2="1" y2="0.5" gradientUnits="objectBoundingBox">
      <stop offset="0.005" stop-color="#206f30"/>
      <stop offset="1" stop-color="#45a735"/>
    </linearGradient>
  </defs>
  <g id="img-hethong" transform="translate(-12.997 -32.22)">
    <path id="Path_3430" data-name="Path 3430" d="M217.712,321.8s-26.617-32.062-13.608-65.07c8.479-21.515,40.285-33.3,58.235-21.515,7.645,5.021,32.172.169,45.268-20.619,25.449-40.4,114.266-15.863,98.1,46.16-7.825,30.015,23.814,31.106,7.693,61.108Z" transform="translate(-186.267 -128.446)" fill="#ecf4f3"/>
    <g id="Group_849" data-name="Group 849" transform="translate(70.177 47.855)">
      <path id="Path_3360" data-name="Path 3360" d="M149.679,83.233c-.017,1.294-.267,2.894.242,4.056.24.547.732,1.2,1.489,1.056.619-.122.982-1.052.145-1.128,1.2-.015,1.165,1.872.269,2.269.75-.088,1.192.654,1.446,1.2a2.325,2.325,0,0,0-1.769-.633c-.187.622.5.911.892,1.317a3.17,3.17,0,0,1,.877,1.593c.133.522.413,1.3-.145,1.714a.775.775,0,0,1-1.279-.572,1.513,1.513,0,0,0,1.066.273c.241-1.136-1.382-1.738-1.679-.576-.249.977,1.411,1.678.745,2.73a2.65,2.65,0,0,1-1.776-1.981,2.376,2.376,0,0,0,.084,1.749c-1.724-1.933.259-2.9-1.385-4.8a3.353,3.353,0,0,1,.06,1.9,4.367,4.367,0,0,0,.221,3.009c-1.755-1.17-3.068-.8-3.236-3.479a2.951,2.951,0,0,0-.842,1.725,6.4,6.4,0,0,1-1.5-1.111c-.384-.512-.141-1.15-.748-1.64" transform="translate(-128.018 -70.576)" fill="#313133"/>
      <path id="Path_3361" data-name="Path 3361" d="M119.995,78.592c-.021,1.455.6,3.264.082,4.554-.242.608-.725,1.333-1.433,1.145-.581-.154-.9-1.208-.106-1.271-1.133-.051-1.15,2.07-.318,2.541-.705-.12-1.142.7-1.4,1.313a1.989,1.989,0,0,1,1.685-.662c.159.7-.5,1.009-.877,1.454a3.752,3.752,0,0,0-.872,1.765c-.14.582-.424,1.452.088,1.929a.722.722,0,0,0,1.221-.608,1.253,1.253,0,0,1-1.014.277c-.194-1.282,1.354-1.913,1.6-.6.207,1.1-1.378,1.846-.781,3.045a2.842,2.842,0,0,0,1.73-2.175,3.14,3.14,0,0,1-.129,1.962c1.681-2.124-.1-5.121,1.506-7.207a15.3,15.3,0,0,0-.174,3.983,5.76,5.76,0,0,1-.294,3.373c1.688-1.265,3.115,0,3.349-3a1.357,1.357,0,0,1,.547,1.147,6.207,6.207,0,0,0,1.446-1.205c.377-.565.165-1.288.751-1.821l-2.823-9.537Z" transform="translate(-116.302 -68.509)" fill="#313133"/>
      <path id="Path_3362" data-name="Path 3362" d="M139.757,98.137s-.316,4.179-3.549,4.135-4.408-4.114-4.408-4.114l.92-5.811,6.081.083Z" transform="translate(-123.092 -74.636)" fill="#d9997f"/>
      <path id="Path_3363" data-name="Path 3363" d="M151.7,81.925s.552-2.048,1.535-1.629c1.334.568.011,4.219-.578,4.6-.625.4-.862.194-.862.194" transform="translate(-131.957 -69.243)" fill="#ebb595"/>
      <path id="Path_3364" data-name="Path 3364" d="M140.728,77.148c-.039,2.939-3.827,6.205-5.822,7.687-.394.294-3.008.3-3.556-.226-2.33-2.216-4.753-4.525-4.912-7.656a43.48,43.48,0,0,1,.092-6.824c.466-4.639,4.854-6.191,7.332-6.157a7.889,7.889,0,0,1,7.067,7.4C140.979,73.739,140.756,75.164,140.728,77.148Z" transform="translate(-120.664 -61.997)" fill="#ebb595"/>
      <path id="Path_3365" data-name="Path 3365" d="M140.427,114.312l-22.746-.359s-1.6-7.37-1.582-8.591a2.33,2.33,0,0,1,1.4-2.454c.7-.406,3.58-.36,5.387-1a3.034,3.034,0,0,0,1.653-1.662s.929,4.565,4.4,4.613,4.029-4.5,4.029-4.5a4.463,4.463,0,0,0,2.247,1.972c1.973.681,4.872.5,5.43.9a3.059,3.059,0,0,1,1.358,2.73C142.066,107.274,140.427,114.312,140.427,114.312Z" transform="translate(-116.1 -78.155)" fill="#fe9d2b"/>
      <path id="Path_3366" data-name="Path 3366" d="M128.763,71.009c3.557-1.418,5.205-2.172,6.08-3.108a19.3,19.3,0,0,0,4.257,4.2s.965-1.195,1.556-.323c-.648-3.115.413-4.911-.681-6.911-1.444-2.635-3.311-4.012-6.417-3.883-1.628-.885-6.8-1.213-9.267,2.634a10.849,10.849,0,0,0-1.656,7.569S124.923,72.541,128.763,71.009Z" transform="translate(-118.954 -60.411)" fill="#313133"/>
    </g>
    <g id="Group_850" data-name="Group 850" transform="translate(77.013 125.618)">
      <path id="Path_3367" data-name="Path 3367" d="M156.705,241.712s-.29,4.68-3.909,4.68-4.994-4.535-4.994-4.535l.94-6.514h6.8Z" transform="translate(-137.057 -216.089)" fill="#d9997f"/>
      <path id="Path_3368" data-name="Path 3368" d="M169.77,223.389s.587-2.3,1.692-1.847c1.5.616.077,4.72-.576,5.155-.693.461-.963.231-.963.231" transform="translate(-146.841 -209.917)" fill="#ebb595"/>
      <path id="Path_3369" data-name="Path 3369" d="M139.933,223.389s-.587-2.3-1.691-1.847c-1.5.616-.076,4.72.576,5.155.691.461.962.231.962.231" transform="translate(-132.503 -209.917)" fill="#ebb595"/>
      <path id="Path_3370" data-name="Path 3370" d="M157.521,218.135c0,3.288-4.189,7-6.4,8.69-.436.333-3.359.374-3.98-.2-2.64-2.443-5.388-4.989-5.614-8.489a48.935,48.935,0,0,1,0-7.636c.451-5.2,5.336-7,8.109-7a8.829,8.829,0,0,1,8.019,8.166C157.75,214.316,157.521,215.915,157.521,218.135Z" transform="translate(-134.194 -201.906)" fill="#ebb595"/>
      <path id="Path_3371" data-name="Path 3371" d="M157.964,259.7l-27.484-.055s-2.054-8.22-2.054-9.588a2.574,2.574,0,0,1,1.648-2.766c1.4-.77,8.46-3.08,8.46-3.08l5.392,5.092,4.793-5.092s8.131,2.327,9.32,3.1a3.354,3.354,0,0,1,1.688,3.034C159.828,251.806,157.964,259.7,157.964,259.7Z" transform="translate(-128.426 -220.041)" fill="#1a1818"/>
      <path id="Path_3372" data-name="Path 3372" d="M157.006,204.825c-1.169-2.244-4.339-4.2-8.754-4.2s-8.487,1.832-9.663,4.09c-1,1.913-.906,8.179-.906,8.179s.943-1.556,1.846.108c.144.266.362,3.475.362,3.475l.725.616s-.446-3.305.326-3.692.809-1.35.9-1.736-.508-3.047,1.013-3.727c.682-.305,2.85.952,4.958.977,2.143.025,4.225-1.178,4.92-.868,1.52.68.916,3.342,1.014,3.727s.133,1.352.9,1.738.326,3.691.326,3.691l.723-.615s.219-3.209.362-3.474c.906-1.665,1.846-.109,1.846-.109S158,206.738,157.006,204.825Z" transform="translate(-132.548 -200.627)" fill="#313133"/>
      <path id="Path_3373" data-name="Path 3373" d="M156.224,255.646a1.552,1.552,0,0,1-1.479.034c-.316-.25-.754-1.639-.482-1.961.143-.169.7.038,1.247.05.489.011.962-.189,1.1-.011C156.888,254.134,156.457,255.4,156.224,255.646Z" transform="translate(-139.896 -224.245)" fill="#87161e"/>
      <path id="Path_3374" data-name="Path 3374" d="M156.85,265.254l-.8-8.254-1.418-.022-.825,8.277Z" transform="translate(-139.729 -225.725)" fill="#87161e"/>
    </g>
    <g id="Group_851" data-name="Group 851" transform="translate(156.949 107.58)">
      <path id="Path_3375" data-name="Path 3375" d="M283.431,194.23l12.3-.1s.683,7.5.068,8.258c-1.189,1.3-11.092,1.067-12.3.1S283.431,194.23,283.431,194.23Z" transform="translate(-277.185 -179.695)" fill="#2d1a10"/>
      <path id="Path_3376" data-name="Path 3376" d="M308.612,189.514s-.129,5.862-1.4,8a14.876,14.876,0,0,1-3,2.778,63.455,63.455,0,0,0,1.268-7.87c.024-2.443-.178-5.5-.178-5.5" transform="translate(-286.659 -176.485)" fill="#4e2a0e"/>
      <path id="Path_3377" data-name="Path 3377" d="M294.167,206.824s3.735,1.346,3.438,2.237c-.409,1.218-5.146,4.66-7.068,4.676-2.152.018-7.115-3.858-7.768-5.087-.357-.672,3.2-1.624,3.2-1.624l.818-6,6.26-.05Z" transform="translate(-277.096 -182.744)" fill="#d9997f"/>
      <path id="Path_3378" data-name="Path 3378" d="M308.617,189.9s.523-2.121,1.543-1.712c1.387.555.107,4.342-.491,4.748-.635.429-.883.219-.883.219" transform="translate(-288.62 -177.028)" fill="#ebb595"/>
      <path id="Path_3379" data-name="Path 3379" d="M297.358,185.121c.025,3.025-3.8,6.473-5.823,8.044-.4.311-3.089.37-3.664-.154-2.447-2.229-4.995-4.55-5.229-7.769a45.083,45.083,0,0,1-.058-7.026c.376-4.786,4.858-6.482,7.408-6.5a8.125,8.125,0,0,1,7.443,7.453C297.542,181.606,297.34,183.079,297.358,185.121Z" transform="translate(-276.974 -169.712)" fill="#ebb595"/>
      <path id="Path_3380" data-name="Path 3380" d="M297.8,224.767l-23.419.14s-1.812-7.549-1.822-8.808a2.4,2.4,0,0,1,1.384-2.557c.714-.433,3.676-.452,5.522-1.148.28,1.685,2.947,4.683,6.521,4.654s5.665-2.178,6.179-4.491c2.048.657,5.026.405,5.606.8a3.15,3.15,0,0,1,1.463,2.78C299.33,217.486,297.8,224.767,297.8,224.767Z" transform="translate(-272.559 -187.831)" fill="#cc1e25"/>
      <path id="Path_3381" data-name="Path 3381" d="M281.489,180.948a17.5,17.5,0,0,0,4.084-1.554c2.055-1.182,2.711-2.32,2.8-4.009a3.831,3.831,0,0,1-1.629,3.676,4.913,4.913,0,0,0,4.118-3.342c.639,2.126,4.476,4.227,4.476,4.227s.965-1.251,1.594-.368c.337-2.313.314-5.064-.857-7.1-1.545-2.679-3.5-4.056-6.692-3.852-1.695-.874-7.025-1.1-9.478,2.919S277.962,184,277.962,184s1.123,7.006,4.6,8.043C280.665,188.682,281.489,180.948,281.489,180.948Z" transform="translate(-274.946 -168.104)" fill="#4e2a0e"/>
    </g>
    <path id="Path_3382" data-name="Path 3382" d="M252.923,195.314a5.8,5.8,0,0,1,1.44,7.749,31.547,31.547,0,0,0,12.9,3.444,5.8,5.8,0,0,1,11.48-1.565,31.547,31.547,0,0,0,11.658-6.873,5.8,5.8,0,0,1,6.921-9.309,31.547,31.547,0,0,0,3.227-13.141,5.8,5.8,0,0,1-1.808-11.445,31.6,31.6,0,0,0-7.013-11.363,5.8,5.8,0,0,1-9.373-6.747,31.563,31.563,0,0,0-12.773-3.013,5.795,5.795,0,0,1-11.317,1.784,31.552,31.552,0,0,0-11.113,6.739,5.8,5.8,0,0,1-6.809,9.158,31.552,31.552,0,0,0-3.253,12.583,5.795,5.795,0,0,1,1.551,11.351,31.539,31.539,0,0,0,6.563,11.363A5.8,5.8,0,0,1,252.923,195.314Zm.648-31.855a18.99,18.99,0,1,1,3.907,26.571A18.991,18.991,0,0,1,253.572,163.458Z" transform="translate(-99.811 -49.365)" fill="#f0ac30"/>
    <path id="Path_3383" data-name="Path 3383" d="M97.1,84.483a5.8,5.8,0,0,1,1.441,7.749,31.546,31.546,0,0,0,12.9,3.444,5.8,5.8,0,0,1,11.48-1.565,31.564,31.564,0,0,0,11.657-6.873,5.8,5.8,0,0,1,6.921-9.309,31.549,31.549,0,0,0,3.226-13.141,5.8,5.8,0,0,1-1.807-11.445,31.6,31.6,0,0,0-7.013-11.363,5.8,5.8,0,0,1-9.374-6.747,31.563,31.563,0,0,0-12.773-3.013A5.8,5.8,0,0,1,102.441,34a31.578,31.578,0,0,0-11.112,6.74A5.8,5.8,0,0,1,84.52,49.9a31.547,31.547,0,0,0-3.253,12.582,5.795,5.795,0,0,1,1.551,11.351A31.566,31.566,0,0,0,89.38,85.2,5.8,5.8,0,0,1,97.1,84.483Zm.649-31.855A18.99,18.99,0,1,1,101.657,79.2,18.991,18.991,0,0,1,97.75,52.627Z" transform="translate(-30.408)" fill="#145629"/>
    <path id="Path_3384" data-name="Path 3384" d="M227.458,275.59a2.9,2.9,0,0,1,1.628,3.592,15.754,15.754,0,0,0,6.681.133,2.9,2.9,0,0,1,5.393-2.135A15.791,15.791,0,0,0,246,272.445a2.9,2.9,0,0,1,2.251-5.353,15.784,15.784,0,0,0,0-6.773A2.9,2.9,0,0,1,246,254.973a15.8,15.8,0,0,0-4.768-4.684,2.9,2.9,0,0,1-5.362-2.158,15.8,15.8,0,0,0-6.568.063,2.9,2.9,0,0,1-5.29,2.221,15.786,15.786,0,0,0-4.592,4.6,2.9,2.9,0,0,1-2.216,5.266,15.8,15.8,0,0,0-.076,6.5,2.9,2.9,0,0,1,2.112,5.332,15.8,15.8,0,0,0,4.549,4.738A2.9,2.9,0,0,1,227.458,275.59Zm14.031-8.192a9.473,9.473,0,0,1-4.409,4.764l-1.681-4.122a5.068,5.068,0,0,0,2.288-5.445l4.123-1.68A9.459,9.459,0,0,1,241.489,267.4Zm-9.794-1.23a2.663,2.663,0,1,1,3.485-1.423A2.663,2.663,0,0,1,231.7,266.167Zm4.716-11.218a9.456,9.456,0,0,1,4.763,4.409l-4.121,1.682a5.073,5.073,0,0,0-5.446-2.29l-1.68-4.121A9.457,9.457,0,0,1,236.411,254.949Zm-12.448,5.078a9.465,9.465,0,0,1,4.409-4.764l1.681,4.122a5.064,5.064,0,0,0-2.289,5.445l-4.123,1.681A9.469,9.469,0,0,1,223.964,260.028Zm.313,8.038,4.121-1.68a5.074,5.074,0,0,0,5.446,2.289l1.682,4.12a9.5,9.5,0,0,1-11.249-4.73Z" transform="translate(-90.788 -96.028)" fill="#145629"/>
    <path id="Path_3385" data-name="Path 3385" d="M362.663,192.164a2.306,2.306,0,0,1,1.291,2.854,12.548,12.548,0,0,0,5.307.1,2.3,2.3,0,0,1,4.285-1.695,12.558,12.558,0,0,0,3.846-3.761,2.306,2.306,0,0,1,1.788-4.252,12.548,12.548,0,0,0,0-5.379,2.3,2.3,0,0,1-1.785-4.247,12.55,12.55,0,0,0-3.788-3.72,2.305,2.305,0,0,1-4.259-1.715,12.555,12.555,0,0,0-5.216.05,2.305,2.305,0,0,1-4.2,1.765,12.577,12.577,0,0,0-3.647,3.656,2.305,2.305,0,0,1-1.759,4.183,12.549,12.549,0,0,0-.06,5.165,2.3,2.3,0,0,1,1.677,4.236,12.54,12.54,0,0,0,3.614,3.763A2.306,2.306,0,0,1,362.663,192.164Zm11.143-6.508a7.522,7.522,0,0,1-3.5,3.785l-1.337-3.273a4.017,4.017,0,0,0,1.82-4.326l3.273-1.335A7.527,7.527,0,0,1,373.806,185.657Zm-7.78-.976a2.115,2.115,0,1,1,2.77-1.13A2.115,2.115,0,0,1,366.026,184.681Zm3.746-8.91a7.511,7.511,0,0,1,3.783,3.5l-3.273,1.336a4.023,4.023,0,0,0-4.324-1.819l-1.335-3.273A7.516,7.516,0,0,1,369.772,175.771Zm-9.885,4.034a7.5,7.5,0,0,1,3.5-3.784l1.334,3.273a4.026,4.026,0,0,0-1.817,4.325l-3.273,1.335A7.5,7.5,0,0,1,359.887,179.8Zm.248,6.385,3.273-1.336a4.025,4.025,0,0,0,4.325,1.819l1.335,3.273a7.544,7.544,0,0,1-8.933-3.756Z" transform="translate(-151.982 -61.415)" fill="url(#linear-gradient)"/>
    <path id="Path_3386" data-name="Path 3386" d="M99.2,227.595l5.859,4.357,3.275-3.611a33.667,33.667,0,0,0,4.93,2.387l-.824,4.893,7.1,1.721,1.6-4.6a33.859,33.859,0,0,0,4.864.278l1.07,4.851L134.3,236.8l-.237-4.874a33.825,33.825,0,0,0,4.776-1.624l2.828,4.081,6.284-3.725-2.066-4.412a33.527,33.527,0,0,0,3.979-3.505l4.187,2.674,4.358-5.86-3.61-3.275a33.99,33.99,0,0,0,2.1-4.215l4.871.933,1.88-7.058-4.565-1.705a33.686,33.686,0,0,0,.385-5.627l4.852-1.07-1.063-7.226-4.873.238a34.345,34.345,0,0,0-1.437-4.345l4.112-2.768-3.634-6.333-4.432,2a33.966,33.966,0,0,0-4.39-4.929L151.116,170l-5.86-4.357L142,169.4a33.721,33.721,0,0,0-4.965-2.265l.682-4.821-7.1-1.72-1.53,4.726a34,34,0,0,0-4.85-.157l-1.176-4.735-7.225,1.062.353,4.958a33.98,33.98,0,0,0-4.72,1.732l-2.878-3.929-6.284,3.724,2.2,4.447a33.45,33.45,0,0,0-3.879,3.587L96.457,173.5l-4.356,5.86,3.754,3.257a33.66,33.66,0,0,0-1.988,4.244l-4.811-.791-1.883,7.058,4.693,1.636a33.961,33.961,0,0,0-.247,5.613l-4.735,1.176,1.063,7.225,4.958-.353a34.451,34.451,0,0,0,1.544,4.286l-3.975,2.827,3.637,6.333,4.481-2.142a33.69,33.69,0,0,0,3.276,3.679ZM108.21,186.2a21.587,21.587,0,1,1,4.443,30.2A21.588,21.588,0,0,1,108.21,186.2Z" transform="translate(-32.91 -57.106)" fill="url(#linear-gradient)"/>
    <path id="Path_3387" data-name="Path 3387" d="M343.794,257.547l.331-.328c.189.168.38.337.577.5l-.277.374a1.069,1.069,0,1,0,1.716,1.276l.278-.373c.318.21.641.408.967.6l-.213.417a1.07,1.07,0,1,0,1.906.973l.213-.415c.284.125.568.246.857.356l-.146.444a1.072,1.072,0,0,0,2.038.663l.142-.442c.338.091.677.171,1.018.242l-.072.461a1.071,1.071,0,0,0,2.118.324l.072-.458c.357.034.719.061,1.079.075l.006.465a1.07,1.07,0,1,0,2.14-.027l0-.469c.161-.01.321-.022.481-.036l.068.463a1.071,1.071,0,0,0,2.119-.313l-.068-.461c.186-.038.372-.08.556-.123l.132.449a1.07,1.07,0,1,0,2.055-.6l-.129-.444c.292-.1.581-.211.866-.328l.2.418a1.071,1.071,0,1,0,1.937-.915l-.2-.42c.3-.164.608-.339.905-.522l.265.382a1.07,1.07,0,0,0,1.762-1.215l-.265-.384c.286-.22.562-.448.837-.685l.324.334a1.071,1.071,0,0,0,1.54-1.489l-.325-.336q.354-.38.693-.785l.374.277a1.07,1.07,0,0,0,1.276-1.718l-.374-.278c.127-.19.244-.382.363-.575l.412.223a1.07,1.07,0,1,0,1.017-1.883l-.405-.22c.13-.281.256-.563.374-.847l.438.153a1.07,1.07,0,1,0,.71-2.019l-.434-.154c.1-.335.185-.673.264-1.011l.455.08a1.07,1.07,0,1,0,.374-2.108l-.458-.082q.067-.538.1-1.077l.468,0a1.071,1.071,0,0,0,.022-2.142l-.465,0q-.021-.47-.064-.937l.463-.067a1.071,1.071,0,1,0-.313-2.12l-.46.068c-.057-.28-.119-.556-.187-.833l.444-.136a1.071,1.071,0,0,0-.63-2.047l-.446.138c-.107-.289-.22-.577-.342-.862l.42-.2a1.071,1.071,0,1,0-.942-1.923l-.419.2c-.168-.3-.347-.6-.532-.9l.375-.27a1.07,1.07,0,1,0-1.241-1.744l-.376.269c-.224-.282-.455-.559-.7-.829l.327-.325a1.072,1.072,0,0,0-1.512-1.518l-.33.329c-.189-.17-.379-.338-.576-.5l.277-.375a1.07,1.07,0,1,0-1.718-1.276l-.278.373q-.476-.314-.964-.6l.212-.416a1.071,1.071,0,0,0-1.907-.974l-.211.415q-.423-.189-.855-.358l.143-.441a1.071,1.071,0,0,0-2.036-.663l-.144.442q-.507-.135-1.016-.243l.068-.459a1.07,1.07,0,1,0-2.115-.326l-.07.458c-.36-.035-.72-.061-1.079-.075l-.006-.464a1.071,1.071,0,0,0-2.142.025l.006.47c-.16.011-.321.021-.48.035l-.068-.461a1.071,1.071,0,0,0-2.119.312l.068.462c-.185.037-.372.08-.556.122l-.132-.448a1.071,1.071,0,1,0-2.055.6l.131.443c-.293.1-.58.212-.868.328l-.2-.417a1.071,1.071,0,0,0-1.938.915l.2.42c-.306.165-.606.339-.906.522l-.264-.383a1.071,1.071,0,0,0-1.763,1.216l.266.384c-.283.22-.563.448-.837.685l-.322-.334a1.071,1.071,0,1,0-1.54,1.488l.323.334c-.235.256-.466.517-.69.788l-.375-.278a1.07,1.07,0,1,0-1.277,1.716l.375.279c-.127.189-.246.38-.363.573l-.411-.223a1.071,1.071,0,1,0-1.019,1.884l.407.221c-.132.28-.256.561-.375.847L338.7,235a1.07,1.07,0,0,0-.71,2.019l.434.154c-.1.335-.185.673-.263,1.011l-.458-.081a1.071,1.071,0,0,0-.372,2.109l.459.083c-.044.358-.078.717-.1,1.076l-.467-.006a1.071,1.071,0,0,0-.023,2.142l.466,0c.012.313.033.626.062.938l-.46.067a1.07,1.07,0,0,0,.31,2.118l.464-.067c.057.278.118.556.186.832l-.445.138a1.071,1.071,0,1,0,.632,2.046l.446-.138c.107.289.22.577.341.861l-.419.207a1.071,1.071,0,0,0,.943,1.923l.418-.206c.17.305.347.6.534.9l-.379.269a1.07,1.07,0,1,0,1.241,1.744l.378-.267c.225.282.455.559.7.829l-.324.324a1.07,1.07,0,1,0,1.509,1.518Zm27.267-4.6a17.166,17.166,0,0,1-10.268,6.576l-1.128-7.672a9.5,9.5,0,0,0,7.064-9.5l7.674-1.128A17.178,17.178,0,0,1,371.06,252.946Zm-15.978-7.4a3.6,3.6,0,1,1,5.034-.741A3.6,3.6,0,0,1,355.082,245.55Zm.7-20.059a17.222,17.222,0,0,1,18.3,13.609l-7.672,1.128a9.5,9.5,0,0,0-9.5-7.065ZM343.4,232.378a17.164,17.164,0,0,1,10.269-6.576l1.129,7.672a9.5,9.5,0,0,0-7.064,9.5l-7.673,1.128A17.158,17.158,0,0,1,343.4,232.378Zm-3.028,13.847,7.673-1.129a9.492,9.492,0,0,0,9.5,7.065l1.129,7.673a17.218,17.218,0,0,1-18.3-13.609Z" transform="translate(-143.929 -84.336)" fill="#8abb2a"/>
    <path id="Path_3388" data-name="Path 3388" d="M201.943,124.328l.315-.312c.177.16.357.319.542.474l-.26.353a1.013,1.013,0,0,0,1.625,1.208l.261-.353q.451.3.912.564l-.2.394a1.012,1.012,0,0,0,1.8.921l.2-.393c.266.119.537.231.806.337l-.135.418a1.013,1.013,0,0,0,1.926.628l.136-.418q.478.128.961.229l-.066.435a1.012,1.012,0,1,0,2,.307l.066-.433c.342.033.68.058,1.02.072l.007.44a1.012,1.012,0,1,0,2.023-.025l0-.445c.149-.009.3-.02.454-.033l.064.439a1.012,1.012,0,0,0,2-.3l-.064-.436c.177-.036.353-.076.526-.116l.125.425a1.012,1.012,0,1,0,1.942-.568l-.123-.422c.277-.1.55-.2.821-.309l.187.395a1.011,1.011,0,1,0,1.829-.865l-.187-.4c.29-.155.574-.321.857-.493l.25.362a1.012,1.012,0,0,0,1.666-1.151l-.251-.362c.269-.208.534-.424.791-.648l.306.317a1.013,1.013,0,0,0,1.457-1.409l-.307-.316c.223-.241.442-.49.653-.744l.354.262a1.012,1.012,0,1,0,1.206-1.624l-.353-.262c.119-.18.231-.36.341-.542l.39.211a1.013,1.013,0,1,0,.964-1.781l-.385-.209c.125-.265.243-.532.355-.8l.412.145a1.012,1.012,0,1,0,.672-1.908l-.41-.146c.091-.316.175-.636.25-.956l.43.077a1.013,1.013,0,1,0,.354-1.994l-.434-.077q.062-.508.1-1.017l.442,0a1.012,1.012,0,1,0,.023-2.025l-.443,0c-.011-.3-.033-.591-.059-.886l.436-.064a1.012,1.012,0,0,0-.292-2l-.438.064c-.056-.265-.111-.527-.179-.788l.422-.129a1.012,1.012,0,0,0-.6-1.935l-.424.129q-.152-.411-.322-.815l.4-.193a1.013,1.013,0,0,0-.892-1.819l-.394.194q-.242-.429-.506-.85l.358-.255a1.013,1.013,0,1,0-1.175-1.649l-.355.253c-.214-.266-.43-.529-.658-.783l.308-.308a1.013,1.013,0,0,0-1.43-1.435l-.312.311c-.178-.16-.359-.319-.546-.473l.263-.354a1.012,1.012,0,0,0-1.624-1.207l-.263.353c-.3-.2-.6-.386-.911-.565l.2-.393a1.012,1.012,0,0,0-1.8-.921l-.2.393c-.267-.119-.537-.232-.809-.338l.136-.417a1.012,1.012,0,0,0-1.924-.628l-.138.418q-.478-.127-.959-.23l.066-.433a1.013,1.013,0,0,0-2-.309l-.066.433c-.339-.033-.68-.057-1.02-.072l-.006-.438a1.012,1.012,0,1,0-2.023.024l0,.444c-.153.009-.3.019-.455.033l-.065-.436a1.012,1.012,0,1,0-2,.3l.064.436c-.177.036-.35.075-.526.117l-.124-.425a1.013,1.013,0,1,0-1.943.57l.124.419q-.414.145-.82.31l-.187-.394a1.013,1.013,0,0,0-1.832.865l.187.4q-.433.235-.855.494l-.25-.362a1.012,1.012,0,1,0-1.665,1.15l.247.362q-.4.312-.79.648l-.307-.316a1.012,1.012,0,0,0-1.455,1.407l.307.317c-.225.242-.441.489-.653.745l-.353-.264a1.012,1.012,0,0,0-1.207,1.625l.353.263c-.119.179-.231.359-.342.542l-.39-.21a1.012,1.012,0,1,0-.963,1.781l.385.208q-.188.4-.355.8l-.411-.145a1.013,1.013,0,1,0-.673,1.91l.409.144c-.09.318-.173.636-.248.958l-.431-.077a1.012,1.012,0,0,0-.354,1.993l.435.077c-.04.339-.074.678-.094,1.018l-.443,0a1.012,1.012,0,1,0-.024,2.024l.44,0c.014.3.033.591.06.886l-.434.065a1.012,1.012,0,0,0,.293,2l.436-.064c.055.263.111.526.176.788l-.419.128a1.012,1.012,0,1,0,.6,1.935l.424-.13c.1.275.209.546.322.815l-.4.194a1.012,1.012,0,0,0,.89,1.818l.394-.194c.161.288.331.571.505.85l-.357.255a1.013,1.013,0,0,0,1.174,1.65l.355-.253c.214.266.43.527.659.783l-.309.307a1.013,1.013,0,0,0,1.429,1.435Zm25.782-4.351a16.228,16.228,0,0,1-9.71,6.218l-1.067-7.254a8.979,8.979,0,0,0,6.681-8.985l7.254-1.066A16.224,16.224,0,0,1,227.725,119.977Zm-15.106-6.994a3.4,3.4,0,1,1,4.758-.7A3.4,3.4,0,0,1,212.619,112.983Zm.665-18.964a16.283,16.283,0,0,1,17.305,12.867l-7.254,1.067a8.98,8.98,0,0,0-8.985-6.681Zm-11.714,6.512a16.229,16.229,0,0,1,9.71-6.218l1.068,7.254a8.974,8.974,0,0,0-6.68,8.985l-7.255,1.066A16.215,16.215,0,0,1,201.57,100.531Zm-2.862,13.091,7.253-1.067a8.983,8.983,0,0,0,8.985,6.681l1.068,7.253a16.278,16.278,0,0,1-17.306-12.867Z" transform="translate(-80.933 -25.873)" fill="url(#linear-gradient)"/>
    <path id="Path_3389" data-name="Path 3389" d="M79.579,156.984a2.3,2.3,0,0,1-.288-3.12,12.537,12.537,0,0,0-4.981-1.835,2.3,2.3,0,0,1-4.6.2,12.569,12.569,0,0,0-4.864,2.3,2.306,2.306,0,0,1-3.08,3.432,12.566,12.566,0,0,0-1.757,5.085,2.3,2.3,0,0,1,.3,4.6,12.52,12.52,0,0,0,2.364,4.753,2.305,2.305,0,0,1,3.463,3.014,12.552,12.552,0,0,0,4.946,1.659,2.3,2.3,0,0,1,4.547-.293,12.555,12.555,0,0,0,4.644-2.263,2.3,2.3,0,0,1,3.03-3.378,12.509,12.509,0,0,0,1.747-4.862,2.3,2.3,0,0,1-.2-4.55,12.577,12.577,0,0,0-2.185-4.738A2.305,2.305,0,0,1,79.579,156.984Zm-12.658,2.5a7.515,7.515,0,0,1,4.546-2.432l.192,3.53a4.025,4.025,0,0,0-3.133,3.493l-3.53.191A7.5,7.5,0,0,1,66.921,159.489Zm7.031,3.467a2.115,2.115,0,1,1-2.987.163A2.114,2.114,0,0,1,73.952,162.956ZM67.5,170.15a7.508,7.508,0,0,1-2.432-4.548l3.531-.191a4.024,4.024,0,0,0,3.492,3.133l.19,3.531A7.5,7.5,0,0,1,67.5,170.15Zm10.66-.577A7.513,7.513,0,0,1,73.612,172l-.19-3.529a4.023,4.023,0,0,0,3.132-3.492l3.531-.191A7.516,7.516,0,0,1,78.16,169.572Zm1.853-6.115-3.53.191a4.024,4.024,0,0,0-3.491-3.132l-.192-3.531a7.546,7.546,0,0,1,7.214,6.472Z" transform="translate(-20.938 -53.364)" fill="#8abb2a"/>
    <path id="Path_3390" data-name="Path 3390" d="M49.541,201.389l-.4.192c-.116-.211-.234-.419-.36-.627l.363-.248a1.012,1.012,0,0,0-1.139-1.673l-.365.25c-.219-.287-.446-.562-.678-.832l.32-.306a1.012,1.012,0,1,0-1.4-1.46l-.319.306c-.214-.2-.431-.395-.653-.583l.266-.35a1.013,1.013,0,0,0-1.616-1.223l-.264.351q-.411-.278-.833-.531l.206-.39a1.013,1.013,0,0,0-1.791-.944l-.205.387q-.464-.215-.942-.4l.139-.416a1.012,1.012,0,1,0-1.921-.639l-.139.421c-.146-.04-.294-.08-.442-.116l.082-.435a1.012,1.012,0,1,0-1.989-.375l-.08.432c-.179-.023-.357-.043-.537-.062l.023-.442a1.013,1.013,0,1,0-2.024-.1l-.021.436q-.438,0-.877.025L31.9,191.6a1.013,1.013,0,0,0-2.014.22l.049.435c-.326.053-.651.116-.973.186l-.116-.423a1.012,1.012,0,0,0-1.951.54l.118.426c-.321.108-.641.225-.957.352l-.187-.4a1.013,1.013,0,1,0-1.837.855l.186.4q-.433.231-.861.489l-.248-.364a1.012,1.012,0,1,0-1.673,1.139l.247.364c-.17.131-.336.266-.5.4l-.3-.327a1.012,1.012,0,1,0-1.491,1.368l.293.322q-.306.315-.6.641l-.342-.272a1.012,1.012,0,1,0-1.258,1.585l.339.271c-.191.27-.374.545-.549.822l-.383-.214a1.012,1.012,0,0,0-.987,1.768l.387.215c-.151.307-.291.616-.424.931l-.415-.15a1.013,1.013,0,0,0-.684,1.907l.414.149c-.083.284-.162.57-.232.856l-.434-.083a1.013,1.013,0,0,0-.377,1.99l.434.082c-.036.267-.069.534-.091.8l-.44-.015a1.013,1.013,0,0,0-.069,2.024l.441.015c.006.292.019.585.037.875l-.436.055a1.012,1.012,0,1,0,.247,2.009l.437-.054c.056.323.124.647.2.967l-.423.125a1.012,1.012,0,0,0,.571,1.943l.419-.124c.115.321.233.64.366.956l-.392.189a1.013,1.013,0,0,0,.881,1.824l.4-.192c.116.211.235.419.359.627l-.363.248a1.011,1.011,0,1,0,1.139,1.672l.365-.248c.219.286.445.563.676.832l-.318.306a1.013,1.013,0,0,0,1.4,1.46l.316-.305c.214.2.432.395.654.583l-.264.351a1.012,1.012,0,0,0,1.613,1.223l.268-.351q.408.277.832.531l-.206.389a1.013,1.013,0,0,0,1.791.946l.2-.387c.312.143.624.276.941.4l-.137.417a1.011,1.011,0,1,0,1.919.639l.141-.421c.146.04.292.082.44.118l-.082.433a1.012,1.012,0,1,0,1.989.378l.082-.433c.177.023.355.043.534.062l-.019.442a1.012,1.012,0,1,0,2.023.1l.021-.436c.291,0,.583-.01.876-.024l.047.433a1.012,1.012,0,0,0,2.013-.217l-.047-.437c.326-.053.649-.116.971-.187l.116.423a1.013,1.013,0,1,0,1.952-.541l-.116-.424c.321-.11.642-.226.959-.354l.185.4a1.011,1.011,0,1,0,1.833-.854l-.184-.4c.292-.155.576-.317.861-.49l.248.364a1.012,1.012,0,0,0,1.673-1.14l-.248-.364c.171-.13.337-.265.5-.4l.3.326a1.012,1.012,0,1,0,1.492-1.368l-.3-.323c.206-.21.4-.423.6-.641l.341.272a1.012,1.012,0,0,0,1.26-1.584l-.34-.271c.19-.269.374-.544.548-.822l.384.214a1.012,1.012,0,0,0,.987-1.768l-.387-.216c.15-.307.292-.617.423-.931l.415.15a1.013,1.013,0,0,0,.685-1.907l-.415-.149q.126-.425.233-.857l.433.083a1.013,1.013,0,0,0,.379-1.99l-.435-.082c.036-.266.068-.534.092-.8l.438.015a1.012,1.012,0,1,0,.07-2.023l-.441-.015c-.006-.291-.019-.583-.038-.874l.438-.055a1.013,1.013,0,0,0-.248-2.01l-.436.054c-.057-.323-.125-.646-.2-.968l.421-.124a1.012,1.012,0,1,0-.571-1.942l-.418.121c-.113-.32-.236-.639-.367-.955l.392-.189a1.012,1.012,0,1,0-.88-1.824Zm-25.787-4.321a16.237,16.237,0,0,1,11.209-2.7L33.6,201.572a8.985,8.985,0,0,0-9.253,6.3l-7.2-1.364A16.228,16.228,0,0,1,23.754,197.068Zm11.99,11.55a3.4,3.4,0,1,1-4.728-.895A3.405,3.405,0,0,1,35.744,208.618Zm-6.833,17.7A16.285,16.285,0,0,1,16.765,208.5l7.2,1.365a8.979,8.979,0,0,0,6.305,9.251ZM42.109,224A16.223,16.223,0,0,1,30.9,226.7l1.364-7.2a8.985,8.985,0,0,0,9.253-6.306l7.2,1.364A16.222,16.222,0,0,1,42.109,224ZM49.1,212.565l-7.2-1.365a8.976,8.976,0,0,0-6.306-9.251l1.364-7.2A16.282,16.282,0,0,1,49.1,212.565Z" transform="translate(0 -70.548)" fill="#f0ac30"/>
  </g>
</svg>
