<svg id="huyhieu" xmlns="http://www.w3.org/2000/svg" width="99.005" height="100.95" viewBox="0 0 99.005 100.95">
  <g id="Group_587" data-name="Group 587" transform="translate(0 45.018)">
    <path id="Path_1425" data-name="Path 1425" d="M872.044,1684.134q9.921-2.279,20.01-3.718l4.247,14.406,19.493-34.723c1.272-2.267,2.579-4.654,2.626-7.253a11.2,11.2,0,0,0-3.218-7.447c-3.63-4.038-18.049-10.839-20.54-2.674-2.729,8.947-10.073,16.7-14.655,25A173.477,173.477,0,0,0,872.044,1684.134Z" transform="translate(-872.044 -1638.891)" fill="#e41f1e"/>
  </g>
  <g id="Group_588" data-name="Group 588" transform="translate(46.076 45.018)">
    <path id="Path_1426" data-name="Path 1426" d="M1115.56,1676.038q-10.177.228-20.31,1.311-.289,7.5-.577,15.008l-27.425-28.87c-1.79-1.885-3.644-3.878-4.327-6.386a11.2,11.2,0,0,1,1.29-8.01c2.527-4.806,14.833-14.941,19.254-7.637,4.843,8,13.866,13.714,20.348,20.636A173.438,173.438,0,0,1,1115.56,1676.038Z" transform="translate(-1062.631 -1638.891)" fill="#e41f1e"/>
  </g>
  <g id="Group_589" data-name="Group 589" transform="translate(4.683 0.417)">
    <path id="Path_1427" data-name="Path 1427" d="M953.194,1524.96h0a6.456,6.456,0,0,0-9.492,4.833h0a6.456,6.456,0,0,1-12.233,1.934h0a6.456,6.456,0,0,0-10.52-1.67h0a6.456,6.456,0,0,1-11.033-5.626h0a6.456,6.456,0,0,0-7.53-7.534h0a6.456,6.456,0,0,1-5.619-11.037h0a6.456,6.456,0,0,0-1.663-10.521h0a6.456,6.456,0,0,1,1.941-12.232h0a6.456,6.456,0,0,0,4.839-9.489h0a6.456,6.456,0,0,1,8.76-8.755h0a6.456,6.456,0,0,0,9.492-4.833h0a6.456,6.456,0,0,1,12.233-1.934h0a6.456,6.456,0,0,0,10.52,1.67h0a6.456,6.456,0,0,1,11.034,5.626h0a6.456,6.456,0,0,0,7.53,7.534h0a6.456,6.456,0,0,1,5.62,11.037h0a6.456,6.456,0,0,0,1.663,10.521h0a6.456,6.456,0,0,1-1.941,12.232h0a6.456,6.456,0,0,0-4.839,9.489h0A6.456,6.456,0,0,1,953.194,1524.96Z" transform="translate(-891.415 -1454.406)" fill="#ffcb4a"/>
  </g>
  <g id="Group_595" data-name="Group 595" transform="translate(4.96 5.707)">
    <g id="Group_590" data-name="Group 590" transform="translate(60.522 0)">
      <path id="Path_1428" data-name="Path 1428" d="M1144.609,1481.981a6.263,6.263,0,0,0-1.707-5.7,6.5,6.5,0,0,1,.143,3.09h0a6.409,6.409,0,0,0,1.74,5.71,6.416,6.416,0,0,1-.176-3.1Z" transform="translate(-1142.902 -1476.284)" fill="#f2af41"/>
    </g>
    <g id="Group_591" data-name="Group 591" transform="translate(71.794 15.025)">
      <path id="Path_1429" data-name="Path 1429" d="M1191.547,1545.068h0a6.461,6.461,0,0,0-.158,9.231,6.428,6.428,0,0,1,1.722-6.624h0a6.422,6.422,0,0,0,.159-9.244A6.283,6.283,0,0,1,1191.547,1545.068Z" transform="translate(-1189.527 -1538.431)" fill="#f2af41"/>
    </g>
    <g id="Group_592" data-name="Group 592" transform="translate(0 31.753)">
      <path id="Path_1430" data-name="Path 1430" d="M895.971,1611.518h0a6.467,6.467,0,0,1,1.821,1.29,6.39,6.39,0,0,0-3.385-3.9h0a6.666,6.666,0,0,1-1.846-1.284A6.277,6.277,0,0,0,895.971,1611.518Z" transform="translate(-892.561 -1607.627)" fill="#f2af41"/>
    </g>
    <g id="Group_593" data-name="Group 593" transform="translate(3.35 52.802)">
      <path id="Path_1431" data-name="Path 1431" d="M912.2,1696.486h0a6.265,6.265,0,0,1-5.779-1.793,6.379,6.379,0,0,0,7.342,4.4h0a6.409,6.409,0,0,1,5.789,1.824A6.46,6.46,0,0,0,912.2,1696.486Z" transform="translate(-906.419 -1694.693)" fill="#f2af41"/>
    </g>
    <g id="Group_594" data-name="Group 594" transform="translate(18.366 36.073)">
      <path id="Path_1432" data-name="Path 1432" d="M1029.05,1625.5a6.457,6.457,0,0,1-5.352,8.341h0a6.456,6.456,0,0,0-4.839,9.489h0a6.456,6.456,0,0,1-8.76,8.755h0a6.456,6.456,0,0,0-9.492,4.833h0a6.456,6.456,0,0,1-12.234,1.934h0a6.456,6.456,0,0,0-10.52-1.67h0a6.427,6.427,0,0,1-9.326.071,6.482,6.482,0,0,0,10.89,2.536h0a6.456,6.456,0,0,1,10.52,1.67h0a6.456,6.456,0,0,0,12.233-1.934h0a6.456,6.456,0,0,1,9.492-4.833h0a6.456,6.456,0,0,0,8.76-8.755h0a6.456,6.456,0,0,1,4.839-9.489h0A6.476,6.476,0,0,0,1029.05,1625.5Z" transform="translate(-968.528 -1625.496)" fill="#f2af41"/>
    </g>
  </g>
  <g id="Group_596" data-name="Group 596" transform="translate(4.263)">
    <circle id="Ellipse_3" data-name="Ellipse 3" cx="28.937" cy="28.937" r="28.937" transform="translate(0 40.923) rotate(-45)" fill="#f2af41"/>
  </g>
  <g id="Group_597" data-name="Group 597" transform="translate(10.74 6.477)">
    <circle id="Ellipse_4" data-name="Ellipse 4" cx="24.357" cy="24.357" r="24.357" transform="translate(0 34.446) rotate(-45)" fill="#ffcb4a"/>
  </g>
  <g id="Group_598" data-name="Group 598" transform="translate(20.385 16.122)">
    <path id="Path_1433" data-name="Path 1433" d="M981.163,1568.968a24.8,24.8,0,1,1,24.8-24.8A24.83,24.83,0,0,1,981.163,1568.968Zm0-48.714a23.912,23.912,0,1,0,23.912,23.912A23.94,23.94,0,0,0,981.163,1520.254Z" transform="translate(-956.362 -1519.365)" fill="#ef9533"/>
  </g>
  <g id="Group_599" data-name="Group 599" transform="translate(35.284 29.229)">
    <path id="Path_1434" data-name="Path 1434" d="M1041.525,1598.384a18.273,18.273,0,0,0,3.11-3.626,22.107,22.107,0,0,0,1.9-3.965,26.11,26.11,0,0,0,1.963-8.75,13.363,13.363,0,0,0-2.551-8.464,21.815,21.815,0,0,1-1.153,26.639,15.51,15.51,0,0,1-3.626,3.231c-2.08,1.29-13.564,5.924-23.178,1.37,1.262-.236,2.982.487,4.333.534a27.573,27.573,0,0,0,6.853-.651A26.761,26.761,0,0,0,1041.525,1598.384Z" transform="translate(-1017.991 -1573.579)" fill="#f2af41"/>
  </g>
  <g id="Group_600" data-name="Group 600" transform="translate(23.187 20.466)" opacity="0.39">
    <path id="Path_1435" data-name="Path 1435" d="M968.38,1554.137a9.415,9.415,0,0,0-.318,4.042,4.085,4.085,0,0,0,2.365,3.116,2.271,2.271,0,0,0,2.044-.143,2.866,2.866,0,0,0,.911-1.183c.945-1.969,1.03-4.222,1.453-6.365a20.258,20.258,0,0,1,8.5-12.754c1.183-.792,4.1-3.767.823-3.5a10.371,10.371,0,0,0-4.405,1.668,26.7,26.7,0,0,0-8.607,8.427A24.877,24.877,0,0,0,968.38,1554.137Z" transform="translate(-967.955 -1537.333)" fill="#fff"/>
  </g>
  <g id="Group_601" data-name="Group 601" transform="translate(31.918 26.32)">
    <path id="Path_1436" data-name="Path 1436" d="M1018.226,1561.547l4.375,8.865,9.783,1.421-7.079,6.9,1.671,9.743-8.75-4.6-8.75,4.6,1.671-9.743-7.079-6.9,9.783-1.421Z" transform="translate(-1004.068 -1561.547)" fill="#ffe878"/>
  </g>
</svg>
