<svg xmlns="http://www.w3.org/2000/svg" width="70" height="70" viewBox="0 0 70 70">
  <g id="icon-thietbi" transform="translate(-101 -662)">
    <path id="Path_19533" data-name="Path 19533" d="M14.939,0H55.061A14.939,14.939,0,0,1,70,14.939V55.061A14.939,14.939,0,0,1,55.061,70H14.939A14.939,14.939,0,0,1,0,55.061V14.939A14.939,14.939,0,0,1,14.939,0Z" transform="translate(101 662)" fill="#2f3e75"/>
    <path id="Path_19352" data-name="Path 19352" d="M8.58,0A1.508,1.508,0,0,0,7.02,1.56V14.82a1.508,1.508,0,0,0,1.56,1.56H30.42a1.508,1.508,0,0,0,1.56-1.56V1.56A1.508,1.508,0,0,0,30.42,0Zm9.36,4.68,3.973,3.754-1.877.146.951,2.023-.78.317L19.354,8.9,17.94,10.213Zm-3.9,12.48v1.56H24.96V17.16ZM.78,19.5a.781.781,0,0,0-.78.78v2.34a.78.78,0,0,0,.78.78H38.22a.778.778,0,0,0,.78-.78V20.28a.78.78,0,0,0-.78-.78Zm.78,5.46V38.22a.78.78,0,0,0,.78.78H4.68a.78.78,0,0,0,.78-.78V24.96Zm31.98,0V38.22a.778.778,0,0,0,.78.78h2.34a.778.778,0,0,0,.78-.78V24.96Z" transform="translate(117 678)" fill="#fff"/>
  </g>
</svg>
