<svg width="70" height="70" viewBox="0 0 70 70" fill="none" xmlns="http://www.w3.org/2000/svg">
<path d="M14.939 0H55.061C59.0231 0 62.8229 1.57393 65.6245 4.37553C68.4261 7.17714 70 10.9769 70 14.939V55.061C70 59.0231 68.4261 62.8229 65.6245 65.6245C62.8229 68.4261 59.0231 70 55.061 70H14.939C10.9769 70 7.17714 68.4261 4.37553 65.6245C1.57393 62.8229 0 59.0231 0 55.061L0 14.939C0 10.9769 1.57393 7.17714 4.37553 4.37553C7.17714 1.57393 10.9769 0 14.939 0V0Z" fill="#E76F01"/>
<path d="M19.8404 46.6572C21.1848 46.7555 22.7265 46.8244 24.2584 46.9915C25.9244 47.1734 27.5807 47.2068 29.2428 46.9826C31.4178 46.6897 33.6044 46.6612 35.7911 46.7782C36.9607 46.8411 38.1283 46.9551 39.295 47.0741C39.5942 47.1046 39.8915 47.2206 40.1751 47.3317C40.3869 47.4143 40.4724 47.6079 40.4937 47.8449C40.5413 48.3728 40.4539 48.8447 40.111 49.2724C39.8011 49.6598 39.7195 50.1425 39.6923 50.6301C39.6204 51.9417 39.2358 53.1529 38.5237 54.2491C37.8913 55.2234 36.9714 55.7219 35.8406 55.8506C34.7876 55.9696 33.7346 56.0542 32.6738 55.9588C31.8568 55.8851 31.0399 55.8192 30.2783 55.4653C29.1767 54.953 28.4559 54.0967 28.1198 52.9346C27.8478 51.9947 27.6487 51.0332 27.4165 50.0815C27.4126 50.0638 27.4107 50.0461 27.4068 50.0284C27.2844 49.4661 27.1387 49.3098 26.7452 49.3137C26.3664 49.3176 26.2226 49.4739 26.0983 50.0166C25.9176 50.8071 25.7515 51.6005 25.5533 52.386C25.3376 53.2414 25.019 54.0485 24.3682 54.6787C23.6163 55.4072 22.7032 55.7415 21.6861 55.8723C20.2222 56.062 18.765 56.0306 17.3137 55.7897C16.1344 55.5931 15.3058 54.898 14.7385 53.8499C14.1789 52.8147 13.8671 51.7136 13.8059 50.5348C13.7797 50.0265 13.6398 49.5457 13.3144 49.1466C12.9647 48.7179 12.9705 48.2214 13.0327 47.722C13.0686 47.4319 13.3095 47.2786 13.564 47.2235C14.0702 47.1134 14.5821 47.0043 15.0979 46.965C16.6104 46.848 18.1249 46.7654 19.8404 46.6572ZM20.2503 48.2165C18.8806 48.1595 17.6372 48.3296 16.6318 48.6609C15.8148 48.9303 15.4719 49.3402 15.4583 50.1386C15.4428 51.1109 15.6128 52.0557 15.9625 52.9641C16.2024 53.5865 16.6532 54.024 17.2661 54.2078C18.9272 54.7053 20.6146 54.6945 22.2728 54.2176C23.4259 53.8863 24.0933 53.0339 24.2924 51.8394C24.3827 51.2957 24.4158 50.7422 24.4673 50.1926C24.5401 49.4297 24.2856 49.0473 23.5813 48.7877C22.4137 48.3571 21.1994 48.2352 20.2503 48.2165ZM34.1037 54.5568C34.6118 54.5047 35.1072 54.4821 35.592 54.3976C36.4701 54.2452 37.2026 53.8421 37.5523 52.9582C37.9175 52.038 38.073 51.0706 38.0458 50.0786C38.0283 49.4484 37.7407 48.9922 37.1394 48.7671C37.0161 48.7209 36.8956 48.6619 36.7683 48.6265C34.4603 47.9766 32.1687 48.0612 29.8965 48.8034C29.2486 49.0148 28.9873 49.4022 29.0349 50.0953C29.0766 50.6999 29.1204 51.3075 29.2272 51.9023C29.4186 52.9671 30.0053 53.7379 31.0195 54.1419C32.02 54.5411 33.0702 54.5303 34.1037 54.5568Z" fill="white"/>
<path d="M37.5159 18.434C37.5159 17.8844 37.5149 17.3604 37.5168 16.8373C37.5178 16.6554 37.5198 16.4726 37.5324 16.2907C37.58 15.6202 38.1881 15.0952 39.0332 15.045C39.6909 15.0057 40.3534 15.0195 41.0149 15.0106C41.1189 15.0096 41.2228 15.0106 41.3394 15.0106C41.352 14.8907 41.3627 14.7943 41.3724 14.698C41.4181 14.2566 41.7386 14.0118 42.2982 14.0029C42.6858 13.997 43.0743 14.0019 43.4619 14.0019C44.141 14.0019 44.82 14.0009 45.499 14.0019C46.177 14.0029 46.4724 14.2251 46.5238 14.7698C46.5306 14.8445 46.5442 14.9192 46.5578 15.0116C47.1252 15.0116 47.6711 15.0077 48.2161 15.0136C48.4618 15.0165 48.7125 15.0205 48.9524 15.0578C49.7684 15.1866 50.222 15.574 50.3474 16.2307C50.3707 16.3546 50.3843 16.4814 50.3852 16.6073C50.3911 17.091 50.3911 17.5737 50.3901 18.0574C50.3891 18.3524 50.2939 18.432 49.9228 18.4389C49.6324 18.4448 49.341 18.4399 49.0505 18.4399C45.3212 18.4379 41.5919 18.4359 37.8627 18.434C37.7587 18.434 37.6548 18.434 37.5159 18.434Z" fill="white"/>
<path d="M30.9421 38.4233C32.5993 38.4066 33.9554 39.081 35.0405 40.3129C36.5374 42.0118 37.7984 43.8906 39.034 45.7861C39.0855 45.8647 39.1195 46.0093 39.0816 46.0761C39.0447 46.141 38.9029 46.1793 38.8106 46.1734C38.1247 46.1282 37.4409 46.0643 36.755 46.0181C36.5306 46.0024 36.3917 45.9139 36.28 45.7074C35.5213 44.3104 34.7743 42.9065 33.9739 41.534C33.3968 40.544 32.5517 39.8685 31.4054 39.6424C30.7099 39.5048 30.0212 39.5559 29.3344 39.7093C28.905 39.8046 28.6048 39.5893 28.6155 39.2069C28.6233 38.9247 28.7855 38.7566 29.0429 38.7045C29.6705 38.5786 30.3019 38.4705 30.9314 38.3555C30.9353 38.3791 30.9382 38.4017 30.9421 38.4233Z" fill="white"/>
<path d="M55.4855 17.9102H51.2423C51.2433 18.2041 51.2433 18.4971 51.2433 18.7911C51.2423 19.1243 51.1335 19.2158 50.7139 19.2236C50.3845 19.2295 50.0552 19.2256 49.7259 19.2246C45.5032 19.2227 41.2804 19.2207 37.0576 19.2187C36.9411 19.2187 36.8235 19.2187 36.6662 19.2187C36.6662 18.7704 36.6652 18.3388 36.6662 17.9102H32.3025C31.47 17.9102 30.7891 18.5993 30.7891 19.4419V37.3853C30.9639 37.3588 31.1407 37.3794 31.302 37.4463C33.0389 37.522 34.5407 38.2653 35.7686 39.6584C37.3189 41.4182 38.6343 43.3826 39.8485 45.2437C40.0166 45.5012 40.1205 45.8778 40.0477 46.2386C40.2216 46.2946 40.3838 46.3576 40.5285 46.4146C41.0647 46.625 41.4057 47.1136 41.463 47.7556C41.5388 48.5982 41.3445 49.2962 40.8685 49.891C40.7481 50.0414 40.6878 50.2784 40.6655 50.6844C40.6179 51.5496 40.4479 52.3754 40.1584 53.157H55.4874C56.3199 53.157 57.0009 52.4678 57.0009 51.6253V19.4429C56.9989 18.6003 56.318 17.9102 55.4855 17.9102ZM34.8943 23.5987C35.005 23.5751 35.1216 23.5741 35.2362 23.5741C41.0375 23.5731 46.8398 23.5731 52.6412 23.5731C53.2405 23.5731 53.529 23.7796 53.5854 24.2426C53.633 24.6398 53.3474 25.0075 52.952 25.0498C52.8384 25.0616 52.7228 25.0626 52.6091 25.0626C49.7259 25.0635 46.8427 25.0635 43.9596 25.0626C41.0502 25.0626 38.1408 25.0626 35.2304 25.0626C34.7117 25.0626 34.429 24.8767 34.3406 24.4874C34.2473 24.0745 34.4873 23.6842 34.8943 23.5987ZM34.9856 29.5506C35.0381 29.5457 35.0915 29.5457 35.1439 29.5457C41.0181 29.5457 46.8913 29.5447 52.7655 29.5467C53.2133 29.5467 53.4979 29.7689 53.5718 30.1612C53.6543 30.6016 53.3474 31.0096 52.9054 31.0421C52.8092 31.049 52.7111 31.046 52.6149 31.046C49.7308 31.046 46.8466 31.046 43.9625 31.046C41.0346 31.046 38.1068 31.046 35.1779 31.046C34.7253 31.046 34.4406 30.8582 34.3435 30.4994C34.2221 30.0481 34.5271 29.5978 34.9856 29.5506ZM35.2139 37.0825C34.7029 37.0825 34.4134 36.8751 34.3338 36.4582C34.2541 36.0424 34.5417 35.6442 34.9603 35.598C35.074 35.5852 35.1896 35.5901 35.3042 35.5901C38.1884 35.5901 41.0725 35.5901 43.9567 35.5901C46.8855 35.5901 49.8134 35.5901 52.7422 35.5901C53.2259 35.5901 53.495 35.7858 53.5825 36.1938C53.6631 36.5693 53.4173 36.9675 53.0453 37.0471C52.9258 37.0727 52.8005 37.0806 52.6781 37.0806C46.8563 37.0835 41.0346 37.0835 35.2139 37.0825ZM53.5514 42.5665C53.4426 42.8546 53.2327 43.0316 52.9151 43.0493C52.8364 43.0532 52.7568 43.0532 52.6771 43.0532C48.5855 43.0532 44.4948 43.0522 40.4032 43.0571C40.208 43.0571 40.0817 43.0109 39.9719 42.8359C39.7096 42.4181 39.4221 42.015 39.1141 41.5608C39.2462 41.5608 39.3162 41.5608 39.3861 41.5608C43.8216 41.5608 48.2562 41.5608 52.6917 41.5608C52.9433 41.5608 53.1842 41.5834 53.3746 41.781C53.5931 42.0081 53.6621 42.2736 53.5514 42.5665Z" fill="white"/>
<path d="M26.6577 42.3008C26.6713 42.755 26.3381 43.0244 26.001 42.8985C25.7144 42.7914 25.4502 42.6242 25.1675 42.5033C24.1465 42.0668 23.11 41.9695 22.0648 42.407C21.447 42.6655 20.9204 43.0696 20.4406 43.5327C19.6751 44.27 18.9222 45.0211 18.1548 45.7575C18.0625 45.846 17.9197 45.9148 17.7954 45.9266C16.822 46.0171 15.8477 46.0947 14.8724 46.1665C14.7714 46.1744 14.6655 46.1183 14.5625 46.0918C14.613 46.0004 14.6431 45.8834 14.717 45.8204C16.2528 44.5247 17.8236 43.2751 19.4827 42.1425C20.5892 41.3874 21.7607 40.8231 23.1324 40.8585C24.3369 40.889 25.422 41.3058 26.4148 41.9744C26.5411 42.0609 26.6091 42.2329 26.6577 42.3008Z" fill="white"/>
</svg>
