<svg xmlns="http://www.w3.org/2000/svg" width="70" height="70" viewBox="0 0 70 70">
  <g id="icon-hosonhansu" transform="translate(-101 -211)">
    <path id="Path_19525" data-name="Path 19525" d="M14.939,0H55.061A14.939,14.939,0,0,1,70,14.939V55.061A14.939,14.939,0,0,1,55.061,70H14.939A14.939,14.939,0,0,1,0,55.061V14.939A14.939,14.939,0,0,1,14.939,0Z" transform="translate(101 211)" fill="#aa2b1d"/>
    <path id="Path_19344" data-name="Path 19344" d="M25.917,4a7.559,7.559,0,1,0,7.559,7.559A7.559,7.559,0,0,0,25.917,4Zm-16.2,6.479a5.4,5.4,0,1,0,5.4,5.4A5.4,5.4,0,0,0,9.719,10.479Zm32.4,0a5.4,5.4,0,1,0,5.4,5.4,5.4,5.4,0,0,0-5.4-5.4Zm-16.2,12.958C20.872,23.437,10.8,25.971,10.8,31v7.559H41.035V31C41.035,25.971,30.962,23.437,25.917,23.437ZM8.42,25.711C5.005,26.238,0,28.6,0,31.439v7.116H6.479V31A8.19,8.19,0,0,1,8.42,25.711Zm34.994,0A8.189,8.189,0,0,1,45.354,31v7.559h6.479V31.439C51.833,28.6,46.828,26.238,43.414,25.711Z" transform="translate(110 225.444)" fill="#fff"/>
  </g>
</svg>
