<svg xmlns="http://www.w3.org/2000/svg" width="90" height="90" viewBox="0 0 90 90">
  <g id="icon-nhiemvukhcn1" transform="translate(-546 -915)">
    <rect id="Rectangle_1161" data-name="Rectangle 1161" width="90" height="90" rx="27" transform="translate(546 915)" fill="#f56234"/>
    <g id="newspaper_2_" data-name="newspaper (2)" transform="translate(532.176 935)">
      <path id="Path_20257" data-name="Path 20257" d="M120.25,150H136.3v2.919H120.25Z" transform="translate(-74.699 -135.406)" fill="#fff"/>
      <path id="Path_20258" data-name="Path 20258" d="M69.608,75H37.5v34.053a8.28,8.28,0,0,0,8.27,8.27H70.717a6.529,6.529,0,0,1-1.11-3.649ZM48.47,105.648H42.632v-2.919H48.47Zm0-5.838H42.632V96.891H48.47Zm0-5.838H42.632V91.054H48.47Zm16.054,17.513H51.389v-2.919H64.524Zm0-5.838H51.389v-2.919H64.524Zm0-5.838H51.389V96.891H64.524Zm0-5.838H51.389V91.054H64.524Zm0-5.838H42.632V79.378H64.524Z" transform="translate(0 -67.703)" fill="#fff"/>
      <path id="Path_20259" data-name="Path 20259" d="M82.5,0V4.378h30.648V45.972a3.649,3.649,0,1,0,7.3,0V0Z" transform="translate(-40.622)" fill="#fff"/>
    </g>
  </g>
</svg>
