<svg width="70" height="70" viewBox="0 0 70 70" fill="none" xmlns="http://www.w3.org/2000/svg">
<rect width="70" height="70" rx="15" fill="#FA3463"/>
<path d="M11.002 29.3357C11.285 28.6332 11.8535 28.3123 12.5383 28.0672C18.44 25.956 24.3353 23.8283 30.2281 21.693C31.3096 21.3014 32.3836 21.1725 33.5093 21.477C34.3116 21.6943 35.1278 21.875 35.9453 22.0253C36.2751 22.086 36.3888 22.2313 36.4229 22.5383C36.6061 24.196 36.7943 25.8536 36.9927 27.5088C37.1835 29.0944 37.3882 30.6788 37.5941 32.3188C36.4646 32.7104 35.2365 33.1388 34.0071 33.562C32.6552 34.027 31.2995 34.4793 29.9514 34.9544C28.9722 35.2993 27.993 35.3498 26.986 35.0807C22.1141 33.7819 17.2422 32.4856 12.364 31.2082C11.7133 31.0376 11.3128 30.6384 11.002 30.0913C11.002 29.8411 11.002 29.5884 11.002 29.3357Z" fill="white"/>
<path d="M11.0025 51.0889C11.2855 50.3877 11.868 50.0908 12.5338 49.8103C13.4473 49.4249 14.2926 49.3984 15.2554 49.6675C18.8398 50.6694 22.4508 51.5741 26.0416 52.552C27.7548 53.0195 29.4074 52.9525 31.0866 52.3675C36.5435 50.466 42.0168 48.6074 47.4775 46.7173C47.9134 46.5657 48.3164 46.5114 48.7599 46.6453C49.1048 46.7502 49.4649 46.8032 49.8149 46.8929C50.573 47.0862 51.0544 47.6485 51.0733 48.3484C51.091 49.0067 50.6501 49.5803 49.9072 49.8381C47.9185 50.5266 45.9272 51.2077 43.9373 51.8925C39.2738 53.4971 34.6091 55.0979 29.9482 56.7088C28.95 57.0537 27.962 57.0941 26.9374 56.82C22.1438 55.535 17.3502 54.2526 12.5465 53.0043C11.8351 52.8198 11.3399 52.4661 11 51.8444C11.0025 51.593 11.0025 51.3403 11.0025 51.0889Z" fill="white"/>
<path d="M11.002 43.8063C11.3128 43.1025 11.923 42.8233 12.5964 42.539C13.4657 42.1713 14.2668 42.1448 15.179 42.3962C18.8569 43.4146 22.5538 44.3609 26.2406 45.3452C27.806 45.7634 29.3462 45.7179 30.8788 45.1885C35.287 43.6648 39.6978 42.1511 44.1047 40.6211C44.437 40.5061 44.6531 40.544 44.945 40.7651C46.705 42.1031 48.6178 42.3684 50.6659 41.4802C50.7607 41.4398 50.8567 41.4019 51.0058 41.34C50.887 42.0248 50.4979 42.3798 49.9268 42.5769C48.5762 43.0431 47.2255 43.5131 45.8749 43.9768C40.5873 45.7937 35.2971 47.6004 30.0146 49.4299C28.9659 49.7938 27.94 49.8368 26.8698 49.55C22.0611 48.2612 17.2523 46.9776 12.4347 45.7242C11.7436 45.5448 11.3115 45.1569 11.0045 44.5618C11.002 44.3104 11.002 44.059 11.002 43.8063Z" fill="white"/>
<path d="M11.002 36.5236C11.5806 35.3221 12.8504 35.3031 13.8713 34.8672C14.0115 34.8078 14.2326 34.9241 14.4133 34.9721C18.4539 36.0347 22.4932 37.1048 26.535 38.1623C28.0423 38.5565 29.5218 38.4188 30.9862 37.9071C33.8479 36.9065 36.7173 35.9285 39.6283 34.9266C40.4912 35.9096 41.3618 36.9014 42.2727 37.94C42.087 38.0145 41.9505 38.0764 41.8103 38.1244C37.8733 39.4801 33.9351 40.8283 30.0019 42.1903C28.9735 42.5466 27.9564 42.587 26.9001 42.3052C22.0901 41.019 17.2763 39.7442 12.4562 38.4883C11.7537 38.3051 11.285 37.9261 11.002 37.2817C11.002 37.029 11.002 36.7763 11.002 36.5236Z" fill="white"/>
<path d="M37.3654 21.0437C37.3187 19.1864 38.0262 17.6904 39.6776 16.8174C41.9695 15.6057 44.3057 14.4724 46.6595 13.382C47.8876 12.8135 49.1852 12.9032 50.4082 13.4945C52.5599 14.5343 54.7065 15.583 56.8392 16.662C58.7774 17.6424 59.6631 19.4934 59.3788 21.6362C59.068 23.9749 58.8355 26.325 58.5664 28.6699C58.4767 29.4508 58.3958 30.2341 58.2707 31.0099C58.1343 31.8539 57.735 32.5842 57.1766 33.2235C55.4254 35.2299 53.6818 37.2413 51.9155 39.2338C49.9647 41.436 46.9311 41.4865 44.9551 39.3096C43.113 37.2805 41.334 35.192 39.5272 33.13C38.7072 32.1937 38.476 31.0516 38.3446 29.8614C38.0477 27.1715 37.7281 24.4841 37.421 21.7954C37.3907 21.5478 37.3831 21.2951 37.3654 21.0437ZM57.1741 21.1144C57.2296 19.8788 56.7634 19.1093 55.8032 18.6355C53.7172 17.6058 51.6325 16.5735 49.544 15.5501C48.7771 15.1736 48 15.1749 47.2293 15.5564C46.4826 15.9254 45.7346 16.293 44.9879 16.6607C43.6348 17.3266 42.274 17.981 40.9284 18.6608C39.977 19.1409 39.4805 20.0455 39.5904 21.0058C39.9315 23.9901 40.2739 26.9756 40.6126 29.9612C40.6884 30.6271 40.8349 31.2525 41.2999 31.7793C43.0612 33.7756 44.8035 35.787 46.566 37.7821C47.5641 38.9103 49.1763 38.9381 50.182 37.8111C51.9863 35.7896 53.7741 33.7541 55.5189 31.6833C55.8398 31.3017 56.0294 30.7408 56.1064 30.2354C56.3364 28.7281 56.4842 27.2081 56.6586 25.692C56.8392 24.1114 57.0149 22.5333 57.1741 21.1144Z" fill="white"/>
<path d="M48 25C49.6569 25 51 23.6569 51 22C51 20.3431 49.6569 19 48 19C46.3431 19 45 20.3431 45 22C45 23.6569 46.3431 25 48 25Z" fill="white"/>
<path d="M50.5307 27H46.4684C45.2836 27.0009 44.1476 27.436 43.3098 28.2098C42.472 28.9836 42.001 30.0329 42 31.1273V31.8744C42.0002 32.1728 42.1287 32.459 42.3572 32.6701C42.5857 32.8811 42.8955 32.9998 43.2187 33H53.7813C54.1045 32.9998 54.4143 32.8811 54.6428 32.6701C54.8713 32.459 54.9998 32.1728 55 31.8744V31.1273C54.999 30.0328 54.5278 28.9834 53.6899 28.2095C52.8519 27.4357 51.7156 27.0007 50.5307 27V27Z" fill="white"/>
</svg>
