<svg xmlns="http://www.w3.org/2000/svg" width="70" height="70" viewBox="0 0 70 70">
  <g id="icon-quanlydontu" transform="translate(-522 -211)">
    <path id="Path_19526" data-name="Path 19526" d="M14.939,0H55.061A14.939,14.939,0,0,1,70,14.939V55.061A14.939,14.939,0,0,1,55.061,70H14.939A14.939,14.939,0,0,1,0,55.061V14.939A14.939,14.939,0,0,1,14.939,0Z" transform="translate(522 211)" fill="#11698e"/>
    <path id="Path_19345" data-name="Path 19345" d="M25.651,9A5.141,5.141,0,0,0,20.5,14.151v31.7A5.141,5.141,0,0,0,25.651,51h24.17a5.141,5.141,0,0,0,5.151-5.151v-31.7A5.141,5.141,0,0,0,49.821,9Zm0,2.377h24.17a2.757,2.757,0,0,1,2.774,2.774v31.7a2.757,2.757,0,0,1-2.774,2.774H25.651a2.757,2.757,0,0,1-2.774-2.774v-31.7A2.757,2.757,0,0,1,25.651,11.377Zm0,2.774v5.943h24.17V14.151Zm1.585,11.491a1.189,1.189,0,0,0,0,2.377H47.443a1.189,1.189,0,0,0,0-2.377Zm0,5.943a1.189,1.189,0,0,0,0,2.377H47.443a1.189,1.189,0,0,0,0-2.377Zm0,5.943a1.189,1.189,0,1,0,0,2.377h10.5a1.189,1.189,0,1,0,0-2.377Z" transform="translate(519.5 216)" fill="#fff"/>
  </g>
</svg>
