<svg width="70" height="70" viewBox="0 0 70 70" fill="none" xmlns="http://www.w3.org/2000/svg">
<rect width="70" height="70" rx="15" fill="#18AC65"/>
<path d="M13.0009 19.2381C13.2358 18.5822 13.4989 17.9264 14.1221 17.5508C14.5203 17.3113 14.9739 17.0719 15.422 17.0283C16.2629 16.9458 17.1174 17.0047 18.0218 17.0047C18.0218 17.9055 17.9756 18.7981 18.0391 19.6826C18.079 20.2432 18.1951 20.8337 18.4319 21.3381C18.8355 22.1971 19.583 22.7196 20.5364 22.8004C21.2612 22.8621 22.0196 22.8911 22.7253 22.7487C24.0805 22.4756 24.9351 21.2646 24.9514 19.7805C24.9614 18.8725 24.9532 17.9636 24.9532 17.0211C28.9872 17.0211 33.003 17.0211 37.0742 17.0211C37.0742 17.9055 37.028 18.799 37.0915 19.6835C37.1314 20.2441 37.2475 20.8346 37.4852 21.339C37.8897 22.198 38.6372 22.7196 39.5897 22.8004C40.3145 22.8611 41.0728 22.8911 41.7786 22.7478C43.1347 22.4738 43.9874 21.2637 44.0038 19.7787C44.0137 18.8707 44.0056 17.9618 44.0056 16.9739C45.2393 17.1009 46.4984 16.6936 47.6513 17.3694C48.4931 17.8629 49.0047 18.6185 49.0093 19.5946C49.0329 24.1266 49.0202 28.6586 49.0193 33.1906C49.0193 33.2178 49.0057 33.245 48.9957 33.2795C47.986 33.2042 46.9764 33.1298 45.9205 33.0518C45.9205 30.9645 45.9205 28.8509 45.9205 26.711C35.9721 26.711 26.0672 26.711 16.1169 26.711C16.1169 26.8779 16.1169 27.0321 16.1169 27.1863C16.1169 32.4549 16.116 37.7226 16.1169 42.9912C16.1169 44.5641 16.9487 45.396 18.5199 45.396C23.3113 45.3969 28.1018 45.396 32.8933 45.396C33.0647 45.396 33.2353 45.396 33.3922 45.396C33.4757 46.5553 33.5573 47.6819 33.6426 48.8576C33.5065 48.8576 33.3378 48.8576 33.169 48.8576C27.4687 48.8576 21.7683 48.8576 16.0679 48.8576C14.4532 48.8576 13.5896 48.2371 13.0726 46.7113C13.0599 46.6723 13.0245 46.6415 13 46.607C13.0009 37.4849 13.0009 28.362 13.0009 19.2381Z" fill="white"/>
<path d="M57.337 46.2859C57.3198 52.2348 52.5029 57.0172 46.5458 56.9999C40.6105 56.9827 35.8399 52.1468 35.8653 46.1743C35.8898 40.3097 40.7275 35.5065 46.5921 35.5237C52.5619 35.541 57.3542 40.3415 57.337 46.2859ZM46.5449 53.3624C50.4057 53.4268 53.6468 50.231 53.7003 46.3067C53.753 42.4524 50.607 39.252 46.6774 39.1622C42.8248 39.0742 39.5791 42.2555 39.5011 46.1952C39.4249 50.0523 42.6134 53.2961 46.5449 53.3624Z" fill="white"/>
<path d="M19.7572 17.051C19.7572 16.1285 19.7527 15.2059 19.7581 14.2825C19.7627 13.506 20.2525 13.0143 21.0227 13.0043C21.3538 12.9998 21.6858 12.9971 22.0169 13.0052C22.7072 13.0225 23.2116 13.5223 23.2143 14.219C23.2216 16.1221 23.2225 18.0253 23.2143 19.9284C23.2116 20.6242 22.7063 21.124 22.016 21.1403C21.6559 21.1494 21.2948 21.1503 20.9347 21.1394C20.2707 21.1195 19.7681 20.6178 19.76 19.9484C19.7482 18.9832 19.7572 18.0171 19.7572 17.051Z" fill="white"/>
<path d="M42.2684 17.1009C42.2684 18.0234 42.273 18.946 42.2675 19.8694C42.263 20.6423 41.7695 21.133 40.9976 21.1421C40.6801 21.1457 40.3635 21.1476 40.046 21.1421C39.323 21.1294 38.8141 20.6387 38.8105 19.9229C38.8032 18.0198 38.8023 16.1166 38.8105 14.2135C38.8132 13.5204 39.3221 13.0224 40.0142 13.007C40.3598 12.9988 40.7064 12.9998 41.052 13.007C41.765 13.0224 42.2603 13.5232 42.2666 14.247C42.2748 15.1977 42.2684 16.1493 42.2684 17.1009Z" fill="white"/>
<path d="M33.773 31.897C33.7603 33.3956 32.4876 34.6556 30.9999 34.6429C29.5022 34.6302 28.2413 33.3575 28.254 31.8698C28.2667 30.373 29.5403 29.1112 31.0271 29.123C32.5238 29.1366 33.7857 30.4111 33.773 31.897Z" fill="white"/>
<path d="M33.7729 40.2117C33.7612 41.7085 32.4866 42.9703 31.0008 42.9585C29.504 42.9467 28.2422 41.6722 28.254 40.1863C28.2658 38.6896 29.5403 37.4277 31.0262 37.4395C32.5229 37.4513 33.7847 38.7249 33.7729 40.2117Z" fill="white"/>
<path d="M20.0176 31.8844C20.0176 30.3749 21.2622 29.124 22.7644 29.124C24.2602 29.124 25.522 30.3867 25.5229 31.8835C25.5229 33.3803 24.2611 34.643 22.7653 34.6439C21.2631 34.6448 20.0176 33.3939 20.0176 31.8844Z" fill="white"/>
<path d="M42.0085 31.8961C42.0031 33.4028 40.7458 34.6556 39.249 34.6429C37.7468 34.6311 36.4868 33.3584 36.5041 31.8707C36.5213 30.363 37.7831 29.1112 39.2744 29.123C40.7812 29.1357 42.014 30.3857 42.0085 31.8961Z" fill="white"/>
<path d="M20.0176 40.2073C20.014 38.6978 21.2522 37.446 22.7562 37.4388C24.2493 37.4315 25.5102 38.6861 25.522 40.191C25.5338 41.6823 24.2729 42.9505 22.7725 42.9586C21.2758 42.9668 20.0212 41.714 20.0176 40.2073Z" fill="white"/>
<path d="M52.0985 45.2482C52.2853 48.5546 49.2592 51.8892 45.5898 51.7731C45.5898 49.6069 45.5898 47.4398 45.5898 45.2482C47.766 45.2482 49.9323 45.2482 52.0985 45.2482Z" fill="white"/>
</svg>
