<svg xmlns="http://www.w3.org/2000/svg" width="70" height="70" viewBox="0 0 70 70">
  <g id="icon-baocaothongke" transform="translate(-946 -211)">
    <path id="Path_19527" data-name="Path 19527" d="M14.939,0H55.061A14.939,14.939,0,0,1,70,14.939V55.061A14.939,14.939,0,0,1,55.061,70H14.939A14.939,14.939,0,0,1,0,55.061V14.939A14.939,14.939,0,0,1,14.939,0Z" transform="translate(946 211)" fill="#302387"/>
    <path id="Path_19348" data-name="Path 19348" d="M38.848,4a3.483,3.483,0,0,0-3.434,4.077L29.592,12.93a3.447,3.447,0,0,0-3.117.361l-5.061-2.532a3.483,3.483,0,0,0-6.959.211q0,.112.01.225L9.026,14.819a3.482,3.482,0,1,0,1.943,3.121q0-.111-.01-.221L16.4,14.09a3.461,3.461,0,0,0,3.461-.214l5.061,2.532a3.483,3.483,0,1,0,6.908-.8l5.823-4.853A3.483,3.483,0,1,0,38.848,4ZM37.106,17.939a1.743,1.743,0,0,0-1.742,1.742V42.333h6.97V19.682a1.743,1.743,0,0,0-1.742-1.742ZM16.2,21.424a1.743,1.743,0,0,0-1.742,1.742V42.333h6.97V23.167a1.743,1.743,0,0,0-1.742-1.742Zm10.455,3.485a1.743,1.743,0,0,0-1.742,1.742V42.333h6.97V26.652a1.743,1.743,0,0,0-1.742-1.742ZM5.742,28.394A1.743,1.743,0,0,0,4,30.136v12.2h6.97v-12.2a1.743,1.743,0,0,0-1.742-1.742Z" transform="translate(958 223)" fill="#fff"/>
  </g>
</svg>
