<svg xmlns="http://www.w3.org/2000/svg" width="90" height="90" viewBox="0 0 90 90">
  <g id="icon-quyettoanthuetncn" transform="translate(-121 -399)">
    <rect id="Rectangle_1151" data-name="Rectangle 1151" width="90" height="90" rx="27" transform="translate(121 399)" fill="#006ac4"/>
    <g id="_044---Bank-Statement" data-name="044---Bank-Statement" transform="translate(137.818 416)">
      <path id="Rectangle-path" d="M5.08,18h12v2h-12Z" fill="#fff"/>
      <circle id="Oval" cx="1" cy="1" r="1" transform="translate(6.08 26)" fill="#fff"/>
      <circle id="Oval-2" data-name="Oval" cx="1" cy="1" r="1" transform="translate(14.08 40)" fill="#fff"/>
      <circle id="Oval-3" data-name="Oval" cx="1" cy="1" r="1" transform="translate(14.08 33)" fill="#fff"/>
      <circle id="Oval-4" data-name="Oval" cx="1" cy="1" r="1" transform="translate(14.08 26)" fill="#fff"/>
      <circle id="Oval-5" data-name="Oval" cx="1" cy="1" r="1" transform="translate(6.08 33)" fill="#fff"/>
      <circle id="Oval-6" data-name="Oval" cx="1" cy="1" r="1" transform="translate(6.08 40)" fill="#fff"/>
      <path id="Rectangle-path-2" data-name="Rectangle-path" d="M45.182,17.322h8v2h-8Z" transform="translate(12.379 55.739) rotate(-65.921)" fill="#fff"/>
      <path id="Shape" d="M53.348,23.282a4,4,0,0,0,.206-7.387l-3.266,7.3a3.975,3.975,0,0,0,3.06.087Z" fill="#fff"/>
      <path id="Shape-2" data-name="Shape" d="M33.159,10.06l5.477,2.449a1,1,0,0,1-.817,1.826l-5.477-2.449-1.224,2.738L44.81,20.748l1.225-2.739-4.564-2.041a1,1,0,0,1,.816-1.826l4.565,2.041,1.224-2.738L34.384,7.321Z" fill="#fff"/>
      <path id="Shape-3" data-name="Shape" d="M28.064,11.654,29.517,13.3l2.815-6.286h-2.2Z" fill="#fff"/>
      <path id="Shape-4" data-name="Shape" d="M22.078,52.009H.182A4.985,4.985,0,0,0,5.08,56H24.1A7.171,7.171,0,0,1,22.078,52.009Z" fill="#fff"/>
      <path id="Shape-5" data-name="Shape" d="M34,28.165V18.1l-4.612-2.063c-.511-.365.94,1.207-8.342-9.307a1.033,1.033,0,0,1,.744-1.7C34.456,5.037,33.843,5.1,33.9,5l.1.013A6.983,6.983,0,0,1,36.1,0H17.08a5.006,5.006,0,0,0-5,5v7h8a3,3,0,0,1,3,3V45a3,3,0,0,1-3,3h-8v2h10a1.983,1.983,0,0,1,1.74,1.025,5.76,5.76,0,0,1,.39,1.309,4.953,4.953,0,0,0,8.114,2.379A15.956,15.956,0,0,1,34,28.165Z" fill="#fff"/>
      <path id="Shape-6" data-name="Shape" d="M43,48.893c1.72-.335,3-1.5,3-2.893s-1.28-2.558-3-2.893Z" fill="#fff"/>
      <path id="Shape-7" data-name="Shape" d="M27.9,7.127c.059-.114.5-.078-3.894-.078l2.606,2.959Z" fill="#fff"/>
      <path id="Shape-8" data-name="Shape" d="M20.08,46a1,1,0,0,0,1-1V15a1,1,0,0,0-1-1h-18a1,1,0,0,0-1,1V45a1,1,0,0,0,1,1Zm-13-2a3,3,0,1,1,3-3A3,3,0,0,1,7.08,44Zm0-7a3,3,0,1,1,3-3A3,3,0,0,1,7.08,37Zm0-7a3,3,0,1,1,3-3A3,3,0,0,1,7.08,30Zm8,14a3,3,0,1,1,3-3A3,3,0,0,1,15.08,44Zm0-7a3,3,0,1,1,3-3A3,3,0,0,1,15.08,37Zm0-7a3,3,0,1,1,3-3A3,3,0,0,1,15.08,30Zm-12-12a2,2,0,0,1,2-2h12a2,2,0,0,1,2,2v2a2,2,0,0,1-2,2h-12a2,2,0,0,1-2-2Z" fill="#fff"/>
      <path id="Shape-9" data-name="Shape" d="M42,28A14,14,0,1,0,56,42,14,14,0,0,0,42,28Zm-8.626,8.878a10.245,10.245,0,0,0-.444,9.392,1,1,0,1,1-1.816.835,12.237,12.237,0,0,1,.531-11.233,1,1,0,1,1,1.729,1.006ZM48,46c0,2.472-2.167,4.526-5,4.925V52a1,1,0,0,1-2,0V50.925c-2.833-.4-5-2.453-5-4.925a1,1,0,0,1,2,0c0,1.394,1.28,2.558,3,2.893V42.925c-2.833-.4-5-2.453-5-4.925s2.167-4.526,5-4.925V32a1,1,0,1,1,2,0v1.075c2.833.4,5,2.453,5,4.925a1,1,0,0,1-2,0c0-1.394-1.28-2.558-3-2.893v5.968C45.833,41.474,48,43.528,48,46Zm4.355-10.128a12.237,12.237,0,0,1,.531,11.233,1,1,0,1,1-1.816-.835,10.245,10.245,0,0,0-.444-9.392,1,1,0,0,1,1.729-1.006Z" fill="#fff"/>
      <path id="Shape-10" data-name="Shape" d="M38,38c0,1.394,1.28,2.558,3,2.893V35.107c-1.72.335-3,1.5-3,2.893Z" fill="#fff"/>
    </g>
  </g>
</svg>
