<svg xmlns="http://www.w3.org/2000/svg" width="70" height="70" viewBox="0 0 70 70">
  <g id="icon-quanlynhiemvukhcn" transform="translate(-522 -848)">
    <path id="Path_19531" data-name="Path 19531" d="M14.939,0H55.061A14.939,14.939,0,0,1,70,14.939V55.061A14.939,14.939,0,0,1,55.061,70H14.939A14.939,14.939,0,0,1,0,55.061V14.939A14.939,14.939,0,0,1,14.939,0Z" transform="translate(522 848)" fill="#f60"/>
    <path id="Path_20300" data-name="Path 20300" d="M10.826,1A1.957,1.957,0,0,0,8.87,2.957V4.913H6.913A3.912,3.912,0,0,0,3,8.826V36.218a3.912,3.912,0,0,0,3.913,3.913H28.771l-3.913-3.913H6.913V14.7H34.3V26.771l3.913,3.913V8.826A3.912,3.912,0,0,0,34.3,4.913H32.348V2.957a1.957,1.957,0,0,0-3.913,0V4.913H12.783V2.957A1.957,1.957,0,0,0,10.826,1Zm1.957,19.565a1.957,1.957,0,1,0,0,3.913H28.435a1.957,1.957,0,0,0,0-3.913Zm0,7.826a1.957,1.957,0,1,0,0,3.913h7.826a1.957,1.957,0,1,0,0-3.913Zm14.674,0a.979.979,0,0,0-.978.978V31.9a.979.979,0,0,0,.287.692l9.783,9.783,3.913-3.913-9.783-9.783a.984.984,0,0,0-.692-.287ZM41.844,39.844l-3.913,3.913,1.433,1.433a2.767,2.767,0,0,0,3.913-3.913Z" transform="translate(535.956 861)" fill="#fff"/>
  </g>
</svg>
