<svg width="70" height="70" viewBox="0 0 70 70" fill="none" xmlns="http://www.w3.org/2000/svg">
<path d="M14.939 0H55.061C59.0231 0 62.8229 1.57393 65.6245 4.37553C68.4261 7.17714 70 10.9769 70 14.939V55.061C70 59.0231 68.4261 62.8229 65.6245 65.6245C62.8229 68.4261 59.0231 70 55.061 70H14.939C10.9769 70 7.17714 68.4261 4.37553 65.6245C1.57393 62.8229 0 59.0231 0 55.061L0 14.939C0 10.9769 1.57393 7.17714 4.37553 4.37553C7.17714 1.57393 10.9769 0 14.939 0V0Z" fill="#21A25D"/>
<path d="M16.5168 25.3222C17.0586 27.0432 17.5929 28.7408 18.1273 30.4393C18.1586 30.4421 18.1898 30.444 18.2211 30.4468C18.7564 28.7473 19.2917 27.0469 19.8389 25.3101C21.3105 25.667 22.4482 26.4377 22.9908 27.8607C23.3127 28.7043 23.5169 29.6237 23.5988 30.5262C23.7579 32.2902 23.8489 34.0719 23.4755 35.8246C23.3652 36.3431 23.1159 36.8374 22.8851 37.3195C22.7986 37.4998 22.5981 37.71 22.4197 37.7427C21.8182 37.8539 21.8678 38.2668 21.8697 38.7162C21.8789 42.2974 21.878 45.8795 21.8734 49.4606C21.8715 50.8723 20.7669 51.7842 19.5087 51.4161C18.8153 51.2134 18.4106 50.7116 18.1954 49.9595C18.1209 50.1342 18.0694 50.2557 18.016 50.3772C17.684 51.1293 16.893 51.5899 16.1158 51.4852C15.2789 51.3722 14.544 50.7555 14.5192 49.925C14.4603 47.9545 14.5008 45.9804 14.5008 43.9586C15.4913 43.9586 16.4525 43.9595 17.4136 43.9586C18.2542 43.9576 18.5504 43.6615 18.5513 42.8112C18.554 41.2855 18.555 39.7589 18.5504 38.2332C18.5485 37.4428 18.2404 37.1373 17.4568 37.1354C16.2152 37.1326 14.9735 37.1195 13.7319 37.1438C13.3962 37.1504 13.1994 37.041 13.1313 36.7271C12.975 36.0002 12.7542 35.2752 12.7064 34.5399C12.5813 32.6274 12.5602 30.7093 13.0118 28.8267C13.4247 27.102 14.4465 25.936 16.137 25.41C16.2492 25.3727 16.3688 25.3549 16.5168 25.3222Z" fill="white"/>
<path d="M55.4991 44.0146C55.4991 45.957 55.5212 47.8863 55.489 49.8156C55.4752 50.6443 54.8065 51.3161 53.9825 51.4637C53.1713 51.6094 52.3582 51.1871 52.0032 50.4322C51.9453 50.3089 51.9011 50.18 51.8229 49.9819C51.765 50.1164 51.731 50.1903 51.7006 50.2659C51.3456 51.1479 50.5206 51.6281 49.6459 51.4628C48.7225 51.2871 48.1293 50.5686 48.1275 49.5783C48.121 46.1373 48.1247 42.6963 48.1247 39.2553C48.1247 39.0525 48.1054 38.8479 48.1284 38.6489C48.1808 38.2061 48.0879 37.9398 47.6041 37.7529C47.0311 37.5315 46.7515 36.9429 46.6246 36.3599C46.0939 33.9251 46.1519 31.4726 46.6081 29.0397C46.9769 27.0721 48.1504 25.8061 50.1509 25.3091C50.6926 27.0301 51.2306 28.7351 51.7677 30.4412C51.7999 30.4421 51.8312 30.4421 51.8634 30.443C52.3959 28.7492 52.9284 27.0562 53.4775 25.31C54.9003 25.6548 55.9746 26.4078 56.6037 27.7532C57.0452 28.6959 57.2567 29.7096 57.2622 30.7401C57.2714 32.3854 57.196 34.0316 57.1555 35.6769C57.1555 35.6928 57.1518 35.7078 57.1491 35.7227C56.8824 37.1363 56.8824 37.1363 55.4982 37.1363C54.4865 37.1363 53.4748 37.1326 52.4631 37.1382C51.7723 37.1419 51.4431 37.4698 51.4403 38.1668C51.4339 39.7551 51.4339 41.3434 51.4385 42.9317C51.4403 43.6212 51.7779 43.9538 52.4658 43.9594C53.4315 43.966 54.3973 43.9651 55.3621 43.9697C55.3906 43.9669 55.4182 43.9856 55.4991 44.0146Z" fill="white"/>
<path d="M44.2277 37.4933C44.2277 39.2638 44.2277 40.9539 44.2277 42.6945C39.7679 42.6945 35.3311 42.6945 30.8493 42.6945C30.8337 42.9935 30.8217 43.2458 30.8042 43.5802C29.122 42.4114 27.4978 41.2837 25.8027 40.1056C27.4822 38.9387 29.1147 37.8054 30.8015 36.6328C30.818 36.9458 30.8309 37.1971 30.8456 37.4924C35.3017 37.4933 39.7403 37.4933 44.2277 37.4933Z" fill="white"/>
<path d="M39.2288 34.6295C39.2288 34.2745 39.2288 34.0484 39.2288 33.7606C34.7534 33.7606 30.3093 33.7606 25.832 33.7606C25.832 32.0004 25.832 30.3 25.832 28.5529C30.2771 28.5529 34.712 28.5529 39.1948 28.5529C39.2086 28.2558 39.2206 28.0017 39.2371 27.6606C40.9202 28.8294 42.5527 29.9637 44.2395 31.1343C42.5721 32.2985 40.9515 33.428 39.2288 34.6295Z" fill="white"/>
<path d="M51.8442 18.5006C53.4969 18.5146 54.8149 19.8656 54.8112 21.5408C54.8076 23.2206 53.428 24.6043 51.7844 24.5772C50.1372 24.5501 48.799 23.1749 48.8146 21.5268C48.8321 19.8236 50.1703 18.4866 51.8442 18.5006Z" fill="white"/>
<path d="M18.2281 18.5009C19.9112 18.543 21.2126 19.9164 21.1722 21.6093C21.1326 23.2724 19.7484 24.6187 18.1251 24.5757C16.4429 24.5309 15.1534 23.1612 15.1902 21.458C15.227 19.78 16.5827 18.4598 18.2281 18.5009Z" fill="white"/>
<path d="M55.5001 42.8673C54.7192 42.8673 53.9384 42.8729 53.1566 42.8645C52.6691 42.8589 52.4981 42.6832 52.4953 42.1825C52.4889 41.0931 52.4879 40.0046 52.4962 38.9152C52.4999 38.4023 52.6618 38.2295 53.152 38.2276C54.7137 38.2211 56.2763 38.222 57.838 38.2285C58.3338 38.2304 58.4919 38.3976 58.4947 38.9096C58.5011 39.999 58.5011 41.0875 58.4947 42.1769C58.4919 42.7029 58.3255 42.8636 57.7966 42.8673C57.0314 42.871 56.2662 42.8673 55.5001 42.8673Z" fill="white"/>
<path d="M14.4979 38.2258C15.2631 38.2267 16.0292 38.222 16.7945 38.2277C17.327 38.2314 17.4889 38.3902 17.4916 38.9162C17.4971 40.0047 17.4971 41.0941 17.4925 42.1825C17.4898 42.6842 17.3242 42.8627 16.8331 42.8645C15.2714 42.8711 13.7097 42.872 12.1471 42.8627C11.6375 42.8599 11.506 42.7094 11.5032 42.175C11.4986 41.0866 11.4986 39.9972 11.5051 38.9087C11.5088 38.3631 11.6495 38.2295 12.2004 38.2258C12.9665 38.222 13.7318 38.2258 14.4979 38.2258Z" fill="white"/>
<path d="M51.759 28.2113C51.5576 27.4629 51.3414 26.7174 51.1658 25.9625C51.1253 25.7887 51.1547 25.4897 51.2651 25.4112C51.4794 25.2589 51.7847 25.1272 52.0321 25.1571C52.4212 25.2038 52.5784 25.5859 52.469 25.9914C52.2685 26.7342 52.068 27.476 51.8675 28.2179C51.8307 28.216 51.7948 28.2141 51.759 28.2113Z" fill="white"/>
<path d="M18.1893 28.3785C18.0835 28.0235 18.0109 27.7927 17.9465 27.5591C17.7984 27.0219 17.6853 26.4725 17.4977 25.9512C17.3726 25.6018 17.4995 25.385 17.7662 25.2804C17.9934 25.1916 18.2978 25.1458 18.514 25.2281C18.8533 25.3561 18.972 25.6279 18.8294 26.0456C18.5857 26.7584 18.4238 27.5021 18.1893 28.3785Z" fill="white"/>
</svg>
