<svg xmlns="http://www.w3.org/2000/svg" width="89" height="89" viewBox="0 0 89 89">
  <g id="icon-nangbacluong" transform="translate(-3821 -3454)">
    <rect id="Rectangle_377" data-name="Rectangle 377" width="89" height="89" rx="26" transform="translate(3821 3454)" fill="#8f155a"/>
    <path id="Union_13" data-name="Union 13" d="M4.265,71.05a4.265,4.265,0,1,1,0-8.529H50.736a4.265,4.265,0,0,1,0,8.529Zm7.5-10.235a4.265,4.265,0,0,1,0-8.53H43.236a4.265,4.265,0,0,1,0,8.53ZM18.431,50.58a4.265,4.265,0,0,1,0-8.529H36.569a4.265,4.265,0,1,1,0,8.529Zm4.822-15.307a10.213,10.213,0,0,1-7.048-9.514,3.784,3.784,0,1,1,7.568,0c0,1.4,1.477,2.577,3.226,2.577s3.225-1.18,3.225-2.577S28.747,23.181,27,23.181c-5.952,0-10.794-4.551-10.794-10.146A10.211,10.211,0,0,1,23.228,3.53a3.779,3.779,0,0,1,7.542,0,10.211,10.211,0,0,1,7.023,9.506,3.785,3.785,0,0,1-7.569,0c0-1.4-1.477-2.578-3.225-2.578s-3.226,1.18-3.225,2.578S25.251,15.613,27,15.613c5.951,0,10.793,4.551,10.793,10.146a10.213,10.213,0,0,1-7.047,9.514,3.78,3.78,0,0,1-7.493,0Z" transform="translate(3838 3463)" fill="#fff"/>
  </g>
</svg>
