<svg xmlns="http://www.w3.org/2000/svg" width="70" height="70" viewBox="0 0 70 70">
  <g id="icon-hethong" transform="translate(-946 -337)">
    <path id="Path_19529" data-name="Path 19529" d="M14.939,0H55.061A14.939,14.939,0,0,1,70,14.939V55.061A14.939,14.939,0,0,1,55.061,70H14.939A14.939,14.939,0,0,1,0,55.061V14.939A14.939,14.939,0,0,1,14.939,0Z" transform="translate(946 337)" fill="#f08c00"/>
    <g id="hierarchy" transform="translate(959 350)">
      <path id="Path_19676" data-name="Path 19676" d="M36.151,18.78A1.357,1.357,0,0,1,34.8,17.424V14.712H4.962v2.712a1.356,1.356,0,0,1-2.712,0V13.356A1.357,1.357,0,0,1,3.606,12H36.151a1.357,1.357,0,0,1,1.356,1.356v4.068A1.357,1.357,0,0,1,36.151,18.78Z" transform="translate(1.818 9.697)" fill="#fff"/>
      <path id="Path_19677" data-name="Path 19677" d="M12.606,20.848a1.357,1.357,0,0,1-1.356-1.356V11.356a1.356,1.356,0,1,1,2.712,0v8.136A1.357,1.357,0,0,1,12.606,20.848Z" transform="translate(9.091 8.081)" fill="#fff"/>
      <circle id="Ellipse_4022" data-name="Ellipse 4022" cx="2.712" cy="2.712" r="2.712" transform="translate(2.712 30.737)" fill="#fff"/>
      <path id="Path_19678" data-name="Path 19678" d="M6.78,21H4.068A4.073,4.073,0,0,0,0,25.068a1.357,1.357,0,0,0,1.356,1.356H9.492a1.357,1.357,0,0,0,1.356-1.356A4.073,4.073,0,0,0,6.78,21Z" transform="translate(0 16.97)" fill="#fff"/>
      <circle id="Ellipse_4023" data-name="Ellipse 4023" cx="2.712" cy="2.712" r="2.712" transform="translate(18.985 30.737)" fill="#fff"/>
      <path id="Path_19679" data-name="Path 19679" d="M15.78,21H13.068A4.073,4.073,0,0,0,9,25.068a1.357,1.357,0,0,0,1.356,1.356h8.136a1.357,1.357,0,0,0,1.356-1.356A4.073,4.073,0,0,0,15.78,21Z" transform="translate(7.273 16.97)" fill="#fff"/>
      <circle id="Ellipse_4024" data-name="Ellipse 4024" cx="2.712" cy="2.712" r="2.712" transform="translate(35.257 30.737)" fill="#fff"/>
      <path id="Path_19680" data-name="Path 19680" d="M24.78,21H22.068A4.073,4.073,0,0,0,18,25.068a1.357,1.357,0,0,0,1.356,1.356h8.136a1.357,1.357,0,0,0,1.356-1.356A4.073,4.073,0,0,0,24.78,21Z" transform="translate(14.545 16.97)" fill="#fff"/>
      <circle id="Ellipse_4025" data-name="Ellipse 4025" cx="3.5" cy="3.5" r="3.5" transform="translate(18)" fill="#fff"/>
      <path id="Path_19681" data-name="Path 19681" d="M17.492,5h-4.52A4.976,4.976,0,0,0,8,9.972v.9a1.357,1.357,0,0,0,1.356,1.356H21.109a1.357,1.357,0,0,0,1.356-1.356v-.9A4.976,4.976,0,0,0,17.492,5Z" transform="translate(6.465 4.04)" fill="#fff"/>
    </g>
  </g>
</svg>
