<svg xmlns="http://www.w3.org/2000/svg" width="70" height="70" viewBox="0 0 70 70">
  <g id="icon-dontu" transform="translate(-946 -520)">
    <path id="Path_19532" data-name="Path 19532" d="M14.939,0H55.061A14.939,14.939,0,0,1,70,14.939V55.061A14.939,14.939,0,0,1,55.061,70H14.939A14.939,14.939,0,0,1,0,55.061V14.939A14.939,14.939,0,0,1,14.939,0Z" transform="translate(946 520)" fill="#3e432e"/>
    <g id="writing" transform="translate(936.43 535)">
      <g id="Group_1440" data-name="Group 1440" transform="translate(26.57)">
        <g id="Group_1439" data-name="Group 1439">
          <path id="Path_19520" data-name="Path 19520" d="M126.1,201.6a1.6,1.6,0,0,0-1.6-1.6H108.056a1.6,1.6,0,1,0,0,3.194h16.449A1.6,1.6,0,0,0,126.1,201.6Z" transform="translate(-100.08 -184.03)" fill="#fff"/>
          <path id="Path_19521" data-name="Path 19521" d="M108.056,280a1.6,1.6,0,1,0,0,3.194h9.99a1.6,1.6,0,1,0,0-3.194Z" transform="translate(-100.08 -257.641)" fill="#fff"/>
          <path id="Path_19522" data-name="Path 19522" d="M38.3,37.69H32.958A3.2,3.2,0,0,1,29.764,34.5V6.388a3.2,3.2,0,0,1,3.194-3.194H52.593a3.2,3.2,0,0,1,3.194,3.194V16.21a1.6,1.6,0,1,0,3.194,0V6.388A6.4,6.4,0,0,0,52.593,0H32.958A6.4,6.4,0,0,0,26.57,6.388V34.5a6.4,6.4,0,0,0,6.388,6.388H38.3a1.6,1.6,0,0,0,0-3.194Z" transform="translate(-26.57 0)" fill="#fff"/>
          <path id="Path_19523" data-name="Path 19523" d="M261.378,273.425a4.8,4.8,0,0,0-6.774,0l-8.768,8.749a1.6,1.6,0,0,0-.4.666l-1.91,6.286a1.6,1.6,0,0,0,1.954,2l6.446-1.786a1.6,1.6,0,0,0,.7-.409l8.75-8.733A4.8,4.8,0,0,0,261.378,273.425Zm-10.709,12.952-3.243.9.949-3.125,5.916-5.9,2.259,2.259Zm8.451-8.435-.309.309-2.259-2.259.308-.308a1.6,1.6,0,0,1,2.26,2.258Z" transform="translate(-226.138 -250.303)" fill="#fff"/>
          <path id="Path_19524" data-name="Path 19524" d="M124.506,120H108.056a1.6,1.6,0,1,0,0,3.194h16.449a1.6,1.6,0,1,0,0-3.194Z" transform="translate(-100.08 -110.418)" fill="#fff"/>
        </g>
      </g>
    </g>
  </g>
</svg>
