<svg xmlns="http://www.w3.org/2000/svg" width="70" height="70" viewBox="0 0 70 70">
  <g id="icon-danhmuc" transform="translate(-522 -648)">
    <path id="Path_19534" data-name="Path 19534" d="M14.939,0H55.061A14.939,14.939,0,0,1,70,14.939V55.061A14.939,14.939,0,0,1,55.061,70H14.939A14.939,14.939,0,0,1,0,55.061V14.939A14.939,14.939,0,0,1,14.939,0Z" transform="translate(522 648)" fill="#7dc383"/>
    <path id="Path_19353" data-name="Path 19353" d="M6.833,2A3.832,3.832,0,0,0,3,5.833V9.667A3.832,3.832,0,0,0,6.833,13.5h3.833A3.832,3.832,0,0,0,14.5,9.667V5.833A3.832,3.832,0,0,0,10.667,2Zm11.5,3.833V9.667H37.5V5.833Zm-11.5,9.583A3.832,3.832,0,0,0,3,19.25v3.833a3.832,3.832,0,0,0,3.833,3.833h3.833A3.832,3.832,0,0,0,14.5,23.083V19.25a3.832,3.832,0,0,0-3.833-3.833Zm11.5,3.833v3.833H37.5V19.25Zm-11.5,9.583A3.862,3.862,0,0,0,3,32.667V36.5a3.862,3.862,0,0,0,3.833,3.833h3.833A3.862,3.862,0,0,0,14.5,36.5V32.667a3.862,3.862,0,0,0-3.833-3.833Zm0,3.833h3.833V36.5H6.833Zm11.5,0V36.5H37.5V32.667Z" transform="translate(537 662)" fill="#fff"/>
  </g>
</svg>
