<svg xmlns="http://www.w3.org/2000/svg" width="70" height="70" viewBox="0 0 70 70">
  <g id="icon-tuyendungnhansu" transform="translate(-522 -337)">
    <path id="Path_19529" data-name="Path 19529" d="M14.939,0H55.061A14.939,14.939,0,0,1,70,14.939V55.061A14.939,14.939,0,0,1,55.061,70H14.939A14.939,14.939,0,0,1,0,55.061V14.939A14.939,14.939,0,0,1,14.939,0Z" transform="translate(522 337)" fill="#2c7873"/>
    <path id="Path_19347" data-name="Path 19347" d="M21.275,3a3.212,3.212,0,0,0-3.212,3.212H5.212A3.212,3.212,0,0,0,2,9.425V23.881a3.212,3.212,0,0,0,3.212,3.212h17.8a12.8,12.8,0,0,1,20.58-2.231,3.214,3.214,0,0,0,.169-.982V9.425a3.212,3.212,0,0,0-3.212-3.212H27.7A3.212,3.212,0,0,0,24.487,3Zm1.606,17.669a1.606,1.606,0,1,1-1.606,1.606A1.607,1.607,0,0,1,22.881,20.669Zm11.244,3.212a9.637,9.637,0,0,0,0,19.275A9.563,9.563,0,0,0,39.7,41.361L44.233,45.9A1.606,1.606,0,1,0,46.5,43.626L41.967,39.09a9.563,9.563,0,0,0,1.794-5.572A9.662,9.662,0,0,0,34.125,23.881Zm0,3.212A6.425,6.425,0,1,1,27.7,33.518,6.4,6.4,0,0,1,34.125,27.093ZM2,29.412v5.713a3.212,3.212,0,0,0,3.212,3.212h17.01a12.594,12.594,0,0,1-.524-8.031H5.212A6.36,6.36,0,0,1,2,29.412Z" transform="translate(533 347)" fill="#fff"/>
  </g>
</svg>
