<svg xmlns="http://www.w3.org/2000/svg" width="70" height="70" viewBox="0 0 70 70">
  <g id="icon-khoahoccongnghe" transform="translate(-101 -848)">
    <path id="Path_19530" data-name="Path 19530" d="M14.939,0H55.061A14.939,14.939,0,0,1,70,14.939V55.061A14.939,14.939,0,0,1,55.061,70H14.939A14.939,14.939,0,0,1,0,55.061V14.939A14.939,14.939,0,0,1,14.939,0Z" transform="translate(101 848)" fill="#06cfbb"/>
    <path id="Path_20299" data-name="Path 20299" d="M21.973-.028a1.971,1.971,0,0,0-.212.053,1.7,1.7,0,0,0-1.324,1.694V6.8a1.695,1.695,0,1,0,3.389,0V1.719A1.7,1.7,0,0,0,21.973-.028ZM7.412,5.955A1.684,1.684,0,0,0,6.088,7.147a1.7,1.7,0,0,0,.477,1.721l3.6,3.6a1.695,1.695,0,1,0,2.383-2.383l-3.6-3.6a1.7,1.7,0,0,0-1.377-.53Zm28.911,0a1.7,1.7,0,0,0-1.006.53l-3.6,3.6A1.695,1.695,0,1,0,34.1,12.468l3.6-3.6a1.694,1.694,0,0,0-1.377-2.912ZM22.132,12.1a9.847,9.847,0,0,0-9.849,9.849c0,5.586,4.819,8.836,4.819,11.7v.688a1.284,1.284,0,0,0,1.271,1.271h7.519a1.284,1.284,0,0,0,1.271-1.271v-.688c0-2.873,4.818-6.023,4.818-11.7A9.847,9.847,0,0,0,22.132,12.1Zm0,3.283a6.478,6.478,0,0,1,3.389.953c-.119-.007-.251-.053-.371-.053a8.352,8.352,0,0,0-8.366,8.313c0,.285.026.569.053.847a6.33,6.33,0,0,1,5.3-10.061ZM1.322,20.358A1.711,1.711,0,0,0,1.8,23.747H6.882a1.695,1.695,0,1,0,0-3.389H1.322Zm35.583,0a1.711,1.711,0,0,0,.476,3.389h5.083a1.695,1.695,0,1,0,0-3.389h-5.56ZM11.171,31.107a1.7,1.7,0,0,0-1.006.53l-3.6,3.6A1.695,1.695,0,1,0,8.947,37.62l3.6-3.6a1.7,1.7,0,0,0-1.218-2.912Zm21.392,0A1.684,1.684,0,0,0,31.24,32.3a1.7,1.7,0,0,0,.477,1.721l3.6,3.6A1.695,1.695,0,1,0,37.7,35.237l-3.6-3.6a1.693,1.693,0,0,0-1.218-.53h-.318ZM18.32,37.3a1.275,1.275,0,0,0-1.271,1.271v2.542a1.275,1.275,0,0,0,1.271,1.271h1.059a3.13,3.13,0,0,0,5.507,0h1.059a1.275,1.275,0,0,0,1.271-1.271V38.573A1.275,1.275,0,0,0,25.945,37.3Z" transform="translate(114.151 861.036)" fill="#fff"/>
  </g>
</svg>
