<svg xmlns="http://www.w3.org/2000/svg" width="89" height="89" viewBox="0 0 89 89">
  <g id="icon-chuyendoichucnangnghenghiep" transform="translate(-3821 -3606)">
    <rect id="Rectangle_384" data-name="Rectangle 384" width="89" height="89" rx="26" transform="translate(3821 3606)" fill="#295ba7"/>
    <g id="position" transform="translate(3798.838 3616)">
      <path id="Path_4460" data-name="Path 4460" d="M161.47,17.613a17.613,17.613,0,1,0-35.226,0V37.383H161.47ZM145.9,31.3h-4.076V27.22H145.9Zm1.551-10.881a3.215,3.215,0,0,0-1.551,2.729h-4.076a7.267,7.267,0,0,1,3.471-6.189,2.718,2.718,0,1,0-3.287-4.3,2.691,2.691,0,0,0-.864,1.987h-4.076a6.818,6.818,0,0,1,2.159-4.967,6.735,6.735,0,0,1,5.112-1.81,6.794,6.794,0,0,1,3.111,12.546Z" transform="translate(-76.978)" fill="#fff"/>
      <path id="Path_4461" data-name="Path 4461" d="M94.578,188.795l-5.87,3.573V204.6H45.151V192.368l-5.87-3.573-2.119,3.482,3.913,2.382v14.019h5.786l1.359,8.152H64.892v7.745H51.412l-2.371,6.873,3.853,1.329,1.424-4.126H64.892v4.058h4.076v-4.058H79.542l1.424,4.126,3.853-1.329-2.371-6.873H68.968V216.83H85.64L87,208.678h5.786V194.659l3.913-2.382Z" transform="translate(0 -163.143)" fill="#fff"/>
    </g>
  </g>
</svg>
