<svg xmlns="http://www.w3.org/2000/svg" width="70" height="70" viewBox="0 0 70 70">
  <g id="icon-danhgianhansu" transform="translate(-101 -337)">
    <path id="Path_19528" data-name="Path 19528" d="M14.939,0H55.061A14.939,14.939,0,0,1,70,14.939V55.061A14.939,14.939,0,0,1,55.061,70H14.939A14.939,14.939,0,0,1,0,55.061V14.939A14.939,14.939,0,0,1,14.939,0Z" transform="translate(101 337)" fill="#ffc85c"/>
    <path id="Path_19346" data-name="Path 19346" d="M45.526,42.052v3.474H8.474V42.052a3.474,3.474,0,0,0,0,6.947H45.526a3.474,3.474,0,1,0,0-6.947Zm0-35.316a1.736,1.736,0,0,0-2.7-1.445l-4.3,2.865L33.683,5.248a1.736,1.736,0,0,0-1.787,0L27,8.184,22.1,5.248a1.736,1.736,0,0,0-1.787,0L15.47,8.156l-4.3-2.865a1.736,1.736,0,0,0-2.7,1.445V42.052H45.526ZM25.263,37.421H17.158a1.737,1.737,0,0,1,0-3.474h8.105a1.737,1.737,0,0,1,0,3.474Zm2.316-6.947H17.158a1.737,1.737,0,1,1,0-3.474H27.579a1.737,1.737,0,0,1,0,3.474Zm9.263,6.947H34.526a1.737,1.737,0,1,1,0-3.474h2.316a1.737,1.737,0,0,1,0,3.474Zm0-6.947H34.526a1.737,1.737,0,1,1,0-3.474h2.316a1.737,1.737,0,0,1,0,3.474Zm0-9.263H17.158a1.737,1.737,0,0,1,0-3.474H36.842a1.737,1.737,0,0,1,0,3.474Z" transform="translate(109 345)" fill="#fff"/>
  </g>
</svg>
