<svg width="70" height="70" viewBox="0 0 70 70" fill="none" xmlns="http://www.w3.org/2000/svg">
<rect width="70" height="70" rx="15" fill="#DD2929"/>
<path d="M41.0293 39.3924C41.0293 43.7079 41.0293 47.9 41.0293 52.1785C36.9804 52.1785 33.0278 52.1785 28.9715 52.1785C28.9715 47.9765 28.9715 43.7845 28.9715 39.411C28.3642 39.411 27.8569 39.4196 27.3495 39.4097C26.1484 39.3863 25.3794 38.7394 25.3448 37.7359C25.3103 36.7002 26.1015 35.9719 27.368 35.9657C31.3478 35.9484 35.3275 35.9583 39.3085 35.9571C40.4355 35.9571 41.5625 35.9349 42.6871 35.967C43.8672 36.0003 44.6239 36.7372 44.5831 37.7457C44.5436 38.7061 43.7906 39.3591 42.6648 39.3912C42.1797 39.4035 41.6934 39.3924 41.0293 39.3924Z" fill="white"/>
<path d="M23.7488 45.0152C21.8293 45.0152 20.0715 45.0386 18.3137 45.009C15.8263 44.9683 14.0253 43.4438 13.7031 40.9614C13.3847 38.5074 13.1588 36.0361 13.0082 33.566C12.8613 31.1478 14.7141 29.1518 17.141 28.9444C19.5394 28.7383 21.6083 30.438 21.8885 32.9019C22.1428 35.1387 22.3847 37.3791 22.5255 39.6245C22.5748 40.4158 22.9032 40.6627 23.5846 40.7367C24.2178 40.8058 24.8486 40.9009 25.4769 41.0021C26.6435 41.191 27.2619 41.8687 27.273 43.0722C27.2965 45.5139 27.2965 47.9555 27.273 50.3972C27.2619 51.5255 26.5916 52.2365 25.6028 52.2747C24.5487 52.3155 23.7957 51.623 23.7611 50.4453C23.713 48.7616 23.7488 47.0754 23.7488 45.0152Z" fill="white"/>
<path d="M46.2247 44.9904C46.2247 46.9407 46.2321 48.5171 46.2223 50.0922C46.2136 51.4945 45.6063 52.2512 44.499 52.2759C43.3288 52.3018 42.6906 51.5401 42.6844 50.07C42.6746 47.7752 42.6709 45.4804 42.6857 43.1844C42.6943 41.8105 43.2449 41.2081 44.604 41.0045C47.2012 40.6144 47.2234 40.6169 47.5381 38.0406C47.748 36.3248 47.8542 34.5966 48.0554 32.8808C48.3566 30.312 50.5526 28.6826 53.2004 29.0196C55.5001 29.3121 57.2283 31.6081 56.9752 33.972C56.7505 36.0643 56.5493 38.1591 56.3901 40.2576C56.1716 43.14 54.42 44.899 51.5364 44.9805C49.8144 45.0311 48.0887 44.9904 46.2247 44.9904Z" fill="white"/>
<path d="M29.9305 21.728C29.7145 21.4145 29.5244 21.1392 29.2614 20.7578C29.7651 20.3899 30.2687 20.0221 30.8476 19.5987C31.9154 20.1332 33.2251 19.6468 33.9337 18.3445C34.0645 18.1038 34.6151 17.9964 34.9706 18.0001C35.3236 18.005 35.8606 18.1272 35.9927 18.3717C36.6728 19.6443 38.0418 20.1615 39.3046 19.4493C39.7144 19.8838 40.1403 20.3356 40.5896 20.8121C40.4106 21.0787 40.223 21.3577 39.9823 21.7144C40.6958 22.4637 40.2933 24.1191 42.0437 24.0499C42.0437 24.7276 42.0437 25.3152 42.0437 25.8917C40.9747 26.262 40.9747 26.262 40.0539 28.4469C40.2341 28.7074 40.423 28.9826 40.6563 29.3209C40.1934 29.7492 39.7403 30.1677 39.2725 30.6009C38.0183 29.9689 36.7679 30.4578 35.9964 31.7897C35.847 32.0477 35.236 32.1217 34.8385 32.1242C34.5324 32.1254 33.9571 31.8736 33.9596 31.744C33.983 30.6688 33.0795 30.7417 32.4845 30.5417C31.9426 30.359 31.3278 30.3936 30.7452 30.3318C30.6946 30.4639 30.6452 30.596 30.5946 30.7281C30.2243 30.2652 29.8527 29.8023 29.4157 29.2567C29.5293 29.0752 29.7206 28.7703 29.9576 28.3914C29.2676 27.6347 29.6318 26.0065 27.9023 26.0336C27.9023 25.3942 27.9023 24.8054 27.9023 24.1351C29.5676 24.1524 29.2145 22.5291 29.9305 21.728ZM39.1157 25.0424C39.1083 22.7279 37.2777 20.8837 34.9817 20.88C32.6832 20.8763 30.839 22.7094 30.818 25.0189C30.797 27.368 32.6869 29.2727 35.0125 29.248C37.2999 29.2221 39.1219 27.3532 39.1157 25.0424Z" fill="white"/>
<path d="M52.1229 27.4434C49.7837 27.4372 47.8778 25.5498 47.8692 23.2316C47.8605 20.9381 49.7887 18.9902 52.0983 18.9581C54.4473 18.9247 56.415 20.8961 56.3928 23.2637C56.3705 25.6029 54.4844 27.4496 52.1229 27.4434Z" fill="white"/>
<path d="M17.8458 27.4408C15.4745 27.4532 13.5871 25.6312 13.5513 23.2944C13.5143 20.9182 15.4437 18.9567 17.8088 18.9641C20.111 18.9703 22.0552 20.9046 22.07 23.2006C22.0835 25.5077 20.1702 27.4285 17.8458 27.4408Z" fill="white"/>
<path d="M36.5155 25.1016C36.4871 25.9509 35.7453 26.6063 34.8688 26.5569C34.0541 26.5113 33.3986 25.8101 33.4246 25.0127C33.453 24.1585 34.1911 23.5055 35.0688 23.5561C35.8885 23.6042 36.5427 24.3029 36.5155 25.1016Z" fill="white"/>
</svg>
