<svg xmlns="http://www.w3.org/2000/svg" width="70" height="70" viewBox="0 0 70 70">
  <g id="icon-doingucanban" transform="translate(-522 -520)">
    <path id="Path_19531" data-name="Path 19531" d="M14.939,0H55.061A14.939,14.939,0,0,1,70,14.939V55.061A14.939,14.939,0,0,1,55.061,70H14.939A14.939,14.939,0,0,1,0,55.061V14.939A14.939,14.939,0,0,1,14.939,0Z" transform="translate(522 520)" fill="#e00543"/>
    <path id="Path_19350" data-name="Path 19350" d="M37.106,20.778c-.13-.039-.933-.408-.428-1.964h-.013a8.673,8.673,0,0,0,2.308-5.73c0-3.332-2.178-5.075-4.712-5.075s-4.7,1.744-4.7,5.075a8.678,8.678,0,0,0,2.308,5.75,1.8,1.8,0,0,1,.084,1.2C33.308,21.2,35.271,23.61,34.6,28.2a15.554,15.554,0,0,0-2.865-5.412c-1.206-1.64-4.064-3.124-6.689-4.006-.156-.052-1.147-.505-.525-2.418H24.5A10.69,10.69,0,0,0,27.344,9.3c0-4.1-2.684-6.255-5.808-6.255S15.741,5.195,15.741,9.3a10.714,10.714,0,0,0,2.839,7.085c.635,1.685-.493,2.314-.733,2.4A20.871,20.871,0,0,0,12.941,21.3c-.078.052-.143.117-.214.168a9.8,9.8,0,0,0-.888.784c-.149.149-.3.3-.441.467v.007A15.383,15.383,0,0,0,8.475,28.2c-.674-4.589,1.283-7,2.645-8.161a1.823,1.823,0,0,1,.084-1.206,8.665,8.665,0,0,0,2.308-5.75c0-3.325-2.165-5.075-4.7-5.075S4.1,9.758,4.1,13.084A8.69,8.69,0,0,0,6.407,18.82H6.394c.506,1.556-.3,1.919-.428,1.964-2.781.933-5.912,2.7-5.912,4.5V29.6c0,2.392,7.973,6.443,21.514,6.443S43.018,31.992,43.018,29.6V25.289C43.018,23.474,39.893,21.718,37.106,20.778Z" transform="translate(535.945 535.957)" fill="#fff"/>
  </g>
</svg>
