<svg xmlns="http://www.w3.org/2000/svg" width="70" height="70" viewBox="0 0 70 70">
  <g id="icon-phongthinghiem" transform="translate(-13 -520)">
    <path id="Path_19530" data-name="Path 19530" d="M14.939,0H55.061A14.939,14.939,0,0,1,70,14.939V55.061A14.939,14.939,0,0,1,55.061,70H14.939A14.939,14.939,0,0,1,0,55.061V14.939A14.939,14.939,0,0,1,14.939,0Z" transform="translate(13 520)" fill="#a1dd70"/>
    <g id="microscope" transform="translate(-14.472 529.779)">
      <path id="Path_20301" data-name="Path 20301" d="M148.827,6.474l7.513-4.514L155.587.708a1.461,1.461,0,0,0-2-.5l-5.009,3.009a1.461,1.461,0,0,0-.5,2Z" transform="translate(-95.79)" fill="#fff"/>
      <path id="Path_20302" data-name="Path 20302" d="M373.918,343.554a1.461,1.461,0,0,0-2.007-.491l-8.152,4.952a10.075,10.075,0,0,1,.734,2.972l8.934-5.427A1.46,1.46,0,0,0,373.918,343.554Z" transform="translate(-290.659 -309.464)" fill="#fff"/>
      <path id="Path_20303" data-name="Path 20303" d="M156.574,372.784h-4.382V368.3a7.3,7.3,0,0,0-14.607,0v4.48H133.2a1.461,1.461,0,1,0,0,2.921h23.372a1.461,1.461,0,1,0,0-2.921Zm-11.686-3.019a1.461,1.461,0,1,1,1.461-1.461A1.461,1.461,0,0,1,144.888,369.766Z" transform="translate(-81.235 -325.846)" fill="#fff"/>
      <path id="Path_20304" data-name="Path 20304" d="M153.262,44.211l1.541,2.565,3.116-1.884A7.768,7.768,0,1,1,165.93,58.2L162.8,60.08l1,1.661a1.461,1.461,0,0,0,2.009.5l1.273-.765,2.241,3.73a1.461,1.461,0,0,0,2,.5l5.008-3.009a1.461,1.461,0,0,0,.5-2l-2.241-3.73,1.227-.737a1.461,1.461,0,0,0,.5-2c-.035-.058-10.542-17.548-10.581-17.6a1.461,1.461,0,0,0-1.956-.425l-10.017,6.019a1.461,1.461,0,0,0-.5,2Z" transform="translate(-100.472 -32.476)" fill="#fff"/>
      <path id="Path_20305" data-name="Path 20305" d="M53.427,174.259a10.2,10.2,0,0,1,3.077-7.3H54.888a4.382,4.382,0,0,1,0-8.764h3.371a1.462,1.462,0,0,0,.751-.208l4.948-2.963a4.847,4.847,0,1,0-5-8.305l-4.49,2.715a13.148,13.148,0,0,0-1.041,26.207Z" transform="translate(0 -131.8)" fill="#fff"/>
    </g>
  </g>
</svg>
