<svg xmlns="http://www.w3.org/2000/svg" width="222.24" height="124.709" viewBox="0 0 222.24 124.709">
  <g id="img-danhgianhansu" transform="translate(-229.12 -126.563)">
    <path id="Path_2536" data-name="Path 2536" d="M261.348,225.4c30.356-11.269,61.208-1.306,82.133,20.394s64.839-14.978,88.128,6.687c15.894,14.785,8.614,52.8-13.18,69.262-29.622,22.379-119.708,11.023-139.195,7.215-22.451-4.388-38.864-17.7-45.532-33.857C217.635,256.17,247.934,230.38,261.348,225.4Z" transform="translate(0 -87.276)" fill="#ecf4f3"/>
    <g id="Group_194" data-name="Group 194" transform="translate(252.137 126.563)">
      <g id="Group_189" data-name="Group 189" transform="translate(63.286 0)">
        <path id="Path_2537" data-name="Path 2537" d="M1460.026,153.78a25.178,25.178,0,0,0,.157-2.8c0-.5-.016-.995-.045-1.486l-4.623-1.5a20.319,20.319,0,0,0-1.637-5.539l3.065-3.772a24.993,24.993,0,0,0-2.428-3.53l-4.624,1.509a20.547,20.547,0,0,0-4.577-3.518l.263-4.858a24.732,24.732,0,0,0-4.036-1.431l-2.855,3.94a20.557,20.557,0,0,0-5.772-.151l-2.643-4.086a24.726,24.726,0,0,0-4.107,1.214l.006,4.865a20.51,20.51,0,0,0-4.757,3.272l-4.536-1.75a25.014,25.014,0,0,0-2.612,3.4l2.863,3.93a20.319,20.319,0,0,0-1.93,5.445l-4.7,1.249a25.151,25.151,0,0,0-.157,2.8c0,.5.016.994.045,1.486l4.623,1.5a20.332,20.332,0,0,0,1.637,5.539l-3.065,3.772a24.97,24.97,0,0,0,2.428,3.53l4.624-1.509a20.537,20.537,0,0,0,4.577,3.518l-.263,4.858a24.744,24.744,0,0,0,4.036,1.43l2.855-3.94a20.557,20.557,0,0,0,5.772.151l2.643,4.086a24.719,24.719,0,0,0,4.107-1.214l-.006-4.865a20.512,20.512,0,0,0,4.757-3.272l4.536,1.75a25.009,25.009,0,0,0,2.612-3.4l-2.863-3.93a20.331,20.331,0,0,0,1.93-5.444Zm-24.762,6.976a9.774,9.774,0,1,1,9.774-9.774A9.774,9.774,0,0,1,1435.264,160.756Z" transform="translate(-1410.344 -126.563)" fill="#00803d"/>
        <g id="Group_186" data-name="Group 186" transform="translate(37.885 18.556)">
          <path id="Path_2538" data-name="Path 2538" d="M1929.239,397.547a.365.365,0,0,1-.281-.6,16.537,16.537,0,0,0,2.913-15.927.365.365,0,0,1,.691-.238,17.266,17.266,0,0,1-3.042,16.632A.365.365,0,0,1,1929.239,397.547Z" transform="translate(-1928.874 -380.537)" fill="#fff"/>
        </g>
        <g id="Group_187" data-name="Group 187" transform="translate(30.661 8.187)">
          <path id="Path_2539" data-name="Path 2539" d="M1836.173,242.931a.363.363,0,0,1-.25-.1,16.412,16.412,0,0,0-5.683-3.5.365.365,0,1,1,.249-.687,17.142,17.142,0,0,1,5.935,3.656.365.365,0,0,1-.251.631Z" transform="translate(-1829.999 -238.622)" fill="#fff"/>
        </g>
        <g id="Group_188" data-name="Group 188" transform="translate(20.763 7.18)">
          <path id="Path_2540" data-name="Path 2540" d="M1694.895,226.084a.365.365,0,0,1-.089-.72,17.3,17.3,0,0,1,4.232-.523.365.365,0,1,1,0,.731,16.572,16.572,0,0,0-4.053.5A.369.369,0,0,1,1694.895,226.084Z" transform="translate(-1694.53 -224.841)" fill="#fff"/>
        </g>
      </g>
      <g id="Group_193" data-name="Group 193" transform="translate(0 70.252)">
        <path id="Path_2541" data-name="Path 2541" d="M578.565,1106.946a17.443,17.443,0,0,0,.109-1.938c0-.346-.011-.689-.031-1.03l-3.2-1.036a14.073,14.073,0,0,0-1.134-3.837l2.123-2.613a17.3,17.3,0,0,0-1.682-2.445l-3.2,1.045a14.236,14.236,0,0,0-3.17-2.437l.182-3.365a17.133,17.133,0,0,0-2.8-.991l-1.978,2.729a14.234,14.234,0,0,0-4-.1l-1.831-2.83a17.131,17.131,0,0,0-2.845.84l0,3.37a14.205,14.205,0,0,0-3.3,2.266l-3.142-1.212a17.327,17.327,0,0,0-1.809,2.353l1.983,2.722a14.075,14.075,0,0,0-1.337,3.771l-3.252.865a17.423,17.423,0,0,0-.109,1.938c0,.346.011.689.031,1.029l3.2,1.036a14.071,14.071,0,0,0,1.134,3.837l-2.123,2.613a17.292,17.292,0,0,0,1.682,2.445l3.2-1.045a14.227,14.227,0,0,0,3.17,2.437l-.182,3.365a17.133,17.133,0,0,0,2.8.991l1.978-2.729a14.235,14.235,0,0,0,4,.1l1.831,2.83a17.134,17.134,0,0,0,2.845-.841l0-3.37a14.206,14.206,0,0,0,3.3-2.266l3.142,1.212a17.332,17.332,0,0,0,1.809-2.353l-1.983-2.722a14.079,14.079,0,0,0,1.337-3.771Zm-17.151,4.832a6.77,6.77,0,1,1,6.77-6.77A6.77,6.77,0,0,1,561.413,1111.778Z" transform="translate(-544.153 -1088.095)" fill="#00803d"/>
        <g id="Group_190" data-name="Group 190" transform="translate(26.129 12.74)">
          <path id="Path_2542" data-name="Path 2542" d="M902.136,1274.478a.365.365,0,0,1-.281-.6,11.341,11.341,0,0,0,2-10.923.365.365,0,1,1,.691-.238,12.071,12.071,0,0,1-2.127,11.628A.365.365,0,0,1,902.136,1274.478Z" transform="translate(-901.771 -1262.472)" fill="#fff"/>
        </g>
        <g id="Group_191" data-name="Group 191" transform="translate(21.125 5.559)">
          <path id="Path_2543" data-name="Path 2543" d="M837.674,1167.384a.365.365,0,0,1-.25-.1,11.253,11.253,0,0,0-3.9-2.4.365.365,0,0,1,.249-.687,11.979,11.979,0,0,1,4.149,2.556.365.365,0,0,1-.251.631Z" transform="translate(-833.286 -1164.174)" fill="#fff"/>
        </g>
        <g id="Group_192" data-name="Group 192" transform="translate(14.269 4.861)">
          <path id="Path_2544" data-name="Path 2544" d="M739.819,1155.715a.365.365,0,0,1-.089-.719,12.1,12.1,0,0,1,2.959-.366.365.365,0,1,1,0,.731,11.374,11.374,0,0,0-2.78.344A.36.36,0,0,1,739.819,1155.715Z" transform="translate(-739.454 -1154.63)" fill="#fff"/>
        </g>
      </g>
      <path id="Path_2545" data-name="Path 2545" d="M2001.33,595.611c0-.189-.006-.376-.016-.563l2.4-1.926a12.761,12.761,0,0,0-.872-2.756l-3.1-.234a10.312,10.312,0,0,0-2.681-2.845l-.01-3.087a12.78,12.78,0,0,0-2.747-1.06l-2.117,2.279a10.369,10.369,0,0,0-1.112-.06,10.26,10.26,0,0,0-2.7.359l-2.428-1.923a12.863,12.863,0,0,0-2.568,1.489l.459,3.06a10.27,10.27,0,0,0-2.163,3.156l-3.021.7a12.872,12.872,0,0,0-.446,2.912l2.66,1.538a10.187,10.187,0,0,0,1.138,3.759l-1.332,2.79a12.958,12.958,0,0,0,1.957,2.13l2.853-1.117a10.19,10.19,0,0,0,3.761,1.492l1.345,2.768c.16.006.321.01.483.01a12.953,12.953,0,0,0,2.359-.216l.906-2.932a10.244,10.244,0,0,0,3.54-2.055l3,.674a12.89,12.89,0,0,0,1.6-2.359l-1.738-2.552A10.231,10.231,0,0,0,2001.33,595.611Zm-10.366,4.517a4.318,4.318,0,1,1,4.318-4.318A4.318,4.318,0,0,1,1990.964,600.128Z" transform="translate(-1873.438 -549.78)" fill="#00803d"/>
    </g>
    <g id="Group_198" data-name="Group 198" transform="translate(396.174 137.517)">
      <g id="Group_195" data-name="Group 195" transform="translate(17.465 1.087)" opacity="0.8">
        <path id="Path_2546" data-name="Path 2546" d="M2760.906,300.277h-3.711a2.6,2.6,0,0,1-2.6-2.6v-3.712a2.6,2.6,0,0,1,2.6-2.6h3.711a2.6,2.6,0,0,1,2.6,2.6v3.712A2.6,2.6,0,0,1,2760.906,300.277Zm-3.711-7.887a1.579,1.579,0,0,0-1.577,1.576v3.712a1.579,1.579,0,0,0,1.577,1.576h3.711a1.578,1.578,0,0,0,1.576-1.576v-3.712a1.578,1.578,0,0,0-1.576-1.576Z" transform="translate(-2754.595 -291.367)" fill="#00803d"/>
      </g>
      <g id="Group_196" data-name="Group 196" transform="translate(0 1.087)" opacity="0.8">
        <path id="Path_2547" data-name="Path 2547" d="M2521.871,300.277h-3.712a2.6,2.6,0,0,1-2.6-2.6v-3.712a2.6,2.6,0,0,1,2.6-2.6h3.712a2.6,2.6,0,0,1,2.6,2.6v3.712A2.6,2.6,0,0,1,2521.871,300.277Zm-3.712-7.887a1.578,1.578,0,0,0-1.576,1.576v3.712a1.578,1.578,0,0,0,1.576,1.576h3.712a1.578,1.578,0,0,0,1.576-1.576v-3.712a1.578,1.578,0,0,0-1.576-1.576Z" transform="translate(-2515.56 -291.367)" fill="#00803d"/>
      </g>
      <g id="Group_197" data-name="Group 197" transform="translate(1.581 0)">
        <path id="Path_2548" data-name="Path 2548" d="M2540.3,284.328h-.021a.439.439,0,0,1-.327-.171l-2.668-3.48a.438.438,0,0,1,.7-.533l2.353,3.069,6.142-6.581a.438.438,0,1,1,.641.6l-6.5,6.959A.439.439,0,0,1,2540.3,284.328Z" transform="translate(-2537.197 -276.491)" fill="#f37168"/>
      </g>
    </g>
    <path id="Path_2549" data-name="Path 2549" d="M624.752,1700.8c-15.2-.743-66.886.516-82.607,1.006s-33.969-.647-43.448-2.321-64.271.143-61.785,4.642,24.412,2.013,49.277,3.821,80.785-.226,93.4,0,24.181-.452,40.437-1.356S633.559,1701.231,624.752,1700.8Z" transform="translate(-192.533 -1457.432)" fill="#00803d"/>
    <g id="Group_203" data-name="Group 203" transform="translate(245.141 149.288)">
      <rect id="Rectangle_125" data-name="Rectangle 125" width="31.764" height="52.063" transform="translate(0)" fill="#d7e5dd"/>
      <rect id="Rectangle_126" data-name="Rectangle 126" width="29.056" height="49.017" transform="translate(1.664 1.061)" fill="#fff"/>
      <g id="Group_202" data-name="Group 202" transform="translate(3.347 3.053)">
        <g id="Group_199" data-name="Group 199" transform="translate(7.007 3.009)">
          <path id="Path_2550" data-name="Path 2550" d="M590.122,681.737c1.094-2.353,2.944-3.106,5.984-3.106,3.619,0,5.5,1.311,6.031,3.22C595.656,681.94,590.122,681.737,590.122,681.737Z" transform="translate(-590.122 -667.083)" fill="#9bd6e8"/>
          <path id="Path_2551" data-name="Path 2551" d="M596.7,520.681c-1.532.43-1.465,1.291-1.975,2.09s-1.62,1.332-1.753,1.864.342,1.642-.222,2.264-.755.932-.533,1.554.71,1.6.755,1.731a2.487,2.487,0,0,0,1.421,1.2,16.015,16.015,0,0,1,2.885.666c.71.311,2.994-.4,4.261-.353s2.131-.89,2.042-1.511.935-1.864.932-2.93c0-1.144-1.332-2-1.687-2.752s.044-2.086-1.287-2.875a7.66,7.66,0,0,0-2.086-.676A4.94,4.94,0,0,0,596.7,520.681Z" transform="translate(-591.98 -520.576)" fill="#3a384d"/>
          <path id="Path_2552" data-name="Path 2552" d="M656.59,607.47c-.346.512-.6.533-.977,0a4.863,4.863,0,0,1-.888-1.874v-4.873a.89.89,0,0,1,.888-.888h.977a.89.89,0,0,1,.888.888V605.6A4.931,4.931,0,0,1,656.59,607.47Z" transform="translate(-650.006 -594.044)" fill="#f09959"/>
          <path id="Path_2553" data-name="Path 2553" d="M656.59,599.835h-.977a.89.89,0,0,0-.888.888v4.348a2.656,2.656,0,0,0,2.752-1.127v-3.221A.89.89,0,0,0,656.59,599.835Z" transform="translate(-650.006 -594.044)" fill="#e38540"/>
          <ellipse id="Ellipse_17" data-name="Ellipse 17" cx="2.952" cy="4.022" rx="2.952" ry="4.022" transform="translate(3.144 1.818)" fill="#f09959"/>
          <path id="Path_2554" data-name="Path 2554" d="M633.825,536.553c-1.864,3.152-4.617,2.841-4.617,2.841s.067-4.173,2.253-4.395,3.474.655,3.917,2.1a3.573,3.573,0,0,1,0,2.4,3.832,3.832,0,0,1-1.065-1.443A10.365,10.365,0,0,1,633.825,536.553Z" transform="translate(-626.352 -533.914)" fill="#3a384d"/>
          <ellipse id="Ellipse_18" data-name="Ellipse 18" cx="0.777" cy="1.165" rx="0.777" ry="1.165" transform="translate(1.543 5.392) rotate(-25.405)" fill="#f09959"/>
          <path id="Path_2555" data-name="Path 2555" d="M705.976,589.879c-.276.581-.186,1.2.2,1.386s.926-.138,1.2-.719.186-1.2-.2-1.386S706.252,589.3,705.976,589.879Z" transform="translate(-697.363 -584.101)" fill="#f09959"/>
          <path id="Path_2556" data-name="Path 2556" d="M660.591,630.368a1.278,1.278,0,0,1-2.219,0Z" transform="translate(-653.385 -622.346)" fill="#fff"/>
        </g>
        <path id="Path_2557" data-name="Path 2557" d="M616.082,786.484h-7.455a.867.867,0,0,1,0-1.734h7.455a.867.867,0,0,1,0,1.734Z" transform="translate(-599.464 -762.439)" fill="#d7e5dd"/>
        <path id="Path_2558" data-name="Path 2558" d="M600.13,822.936H589.946a.867.867,0,0,1,0-1.734H600.13a.867.867,0,0,1,0,1.734Z" transform="translate(-582.148 -796.228)" fill="#d7e5dd"/>
        <path id="Path_2559" data-name="Path 2559" d="M519.494,963.263H494.72a.5.5,0,1,1,0-1.006h24.774a.5.5,0,0,1,0,1.006Z" transform="translate(-494.217 -926.977)" fill="#d7e5dd"/>
        <path id="Path_2560" data-name="Path 2560" d="M519.494,995.259H494.72a.5.5,0,1,1,0-1.006h24.774a.5.5,0,0,1,0,1.006Z" transform="translate(-494.217 -956.635)" fill="#d7e5dd"/>
        <path id="Path_2561" data-name="Path 2561" d="M519.494,1027.255H494.72a.5.5,0,1,1,0-1.006h24.774a.5.5,0,0,1,0,1.006Z" transform="translate(-494.217 -986.294)" fill="#d7e5dd"/>
        <g id="Group_200" data-name="Group 200" transform="translate(3.07)">
          <path id="Path_2562" data-name="Path 2562" d="M554.977,497.629H537.133a.9.9,0,0,1-.9-.9V480.285a.9.9,0,0,1,.9-.9h17.844a.9.9,0,0,1,.9.9v16.446A.9.9,0,0,1,554.977,497.629Zm-17.844-17.511a.17.17,0,0,0-.167.167v16.446a.17.17,0,0,0,.167.167h17.844a.17.17,0,0,0,.167-.167V480.285a.17.17,0,0,0-.167-.167Z" transform="translate(-536.235 -479.387)" fill="#d7e5dd"/>
        </g>
        <g id="Group_201" data-name="Group 201" transform="translate(4.871 28.969)">
          <path id="Path_2563" data-name="Path 2563" d="M562.559,875.882l.517,1.047,1.155.168-.836.815.2,1.15-1.033-.543-1.033.543.2-1.15-.836-.815,1.155-.168Z" transform="translate(-560.887 -875.882)" fill="#d7e5dd"/>
          <path id="Path_2564" data-name="Path 2564" d="M620.473,875.882l.517,1.047,1.155.168-.836.815.2,1.15-1.033-.543-1.033.543.2-1.15-.836-.815,1.155-.168Z" transform="translate(-614.57 -875.882)" fill="#d7e5dd"/>
          <path id="Path_2565" data-name="Path 2565" d="M678.388,875.882l.517,1.047,1.155.168-.836.815.2,1.15-1.033-.543-1.033.543.2-1.15-.836-.815,1.155-.168Z" transform="translate(-668.253 -875.882)" fill="#d7e5dd"/>
          <path id="Path_2566" data-name="Path 2566" d="M736.3,875.882l.517,1.047,1.155.168-.836.815.2,1.15-1.033-.543-1.033.543.2-1.15-.836-.815,1.155-.168Z" transform="translate(-721.936 -875.882)" fill="#d7e5dd"/>
        </g>
      </g>
    </g>
    <g id="Group_208" data-name="Group 208" transform="translate(315.955 149.288)">
      <rect id="Rectangle_127" data-name="Rectangle 127" width="31.764" height="52.063" transform="translate(0)" fill="#d7e5dd"/>
      <rect id="Rectangle_128" data-name="Rectangle 128" width="29.056" height="49.017" transform="translate(1.663 1.061)" fill="#fff"/>
      <g id="Group_207" data-name="Group 207" transform="translate(3.347 3.053)">
        <g id="Group_204" data-name="Group 204" transform="translate(7.007 3.322)">
          <path id="Path_2567" data-name="Path 2567" d="M1578.225,596.877c0,2.332,1.4,6.094,4.716,5.974s4.045-3.707,4.173-4.719S1578.225,596.877,1578.225,596.877Z" transform="translate(-1576.845 -591.615)" fill="#7a4e34"/>
          <path id="Path_2568" data-name="Path 2568" d="M1559.335,681.737c1.094-2.353,2.945-3.106,5.984-3.106,3.619,0,5.5,1.311,6.031,3.22C1564.869,681.94,1559.335,681.737,1559.335,681.737Z" transform="translate(-1559.335 -667.396)" fill="#d54a41"/>
          <path id="Path_2569" data-name="Path 2569" d="M1625.8,607.47c-.347.512-.6.533-.977,0a4.862,4.862,0,0,1-.888-1.874v-4.873a.89.89,0,0,1,.888-.888h.977a.89.89,0,0,1,.888.888V605.6A4.933,4.933,0,0,1,1625.8,607.47Z" transform="translate(-1619.22 -594.357)" fill="#f09959"/>
          <path id="Path_2570" data-name="Path 2570" d="M1625.8,599.835h-.977a.89.89,0,0,0-.888.888v4.348a2.656,2.656,0,0,0,2.752-1.127v-3.221A.89.89,0,0,0,1625.8,599.835Z" transform="translate(-1619.22 -594.357)" fill="#e38540"/>
          <ellipse id="Ellipse_19" data-name="Ellipse 19" cx="2.952" cy="4.022" rx="2.952" ry="4.022" transform="translate(3.144 1.505)" fill="#f09959"/>
          <path id="Path_2571" data-name="Path 2571" d="M1584.437,527.33c-.351,1.237-1.12,1.223-2.191,1.629a2.906,2.906,0,0,0-1.935,1.606c-.447,1.009.2,3.951.2,3.951a6.309,6.309,0,0,1-2.4-5.225c.314-3.194,2.2-4.431,3.969-4.431a2.841,2.841,0,0,1,2.446,1.08,2.655,2.655,0,0,1,1.837,1.062c1.2,1.422.831,4.874,0,6.111s-1.385,1.625-1.366,1.569a12.206,12.206,0,0,0,.369-4.653A11.221,11.221,0,0,0,1584.437,527.33Z" transform="translate(-1576.718 -524.86)" fill="#7a4e34"/>
          <path id="Path_2572" data-name="Path 2572" d="M1629.8,630.368a1.278,1.278,0,0,1-2.219,0Z" transform="translate(-1622.598 -622.659)" fill="#fff"/>
        </g>
        <path id="Path_2573" data-name="Path 2573" d="M1585.3,786.484h-7.455a.867.867,0,1,1,0-1.734h7.455a.867.867,0,0,1,0,1.734Z" transform="translate(-1568.678 -762.439)" fill="#d7e5dd"/>
        <path id="Path_2574" data-name="Path 2574" d="M1569.344,822.936h-10.185a.867.867,0,0,1,0-1.734h10.185a.867.867,0,0,1,0,1.734Z" transform="translate(-1551.361 -796.228)" fill="#d7e5dd"/>
        <path id="Path_2575" data-name="Path 2575" d="M1488.708,963.263h-24.774a.5.5,0,1,1,0-1.006h24.774a.5.5,0,0,1,0,1.006Z" transform="translate(-1463.431 -926.977)" fill="#d7e5dd"/>
        <path id="Path_2576" data-name="Path 2576" d="M1488.708,995.259h-24.774a.5.5,0,1,1,0-1.006h24.774a.5.5,0,0,1,0,1.006Z" transform="translate(-1463.431 -956.635)" fill="#d7e5dd"/>
        <path id="Path_2577" data-name="Path 2577" d="M1488.708,1027.255h-24.774a.5.5,0,1,1,0-1.006h24.774a.5.5,0,0,1,0,1.006Z" transform="translate(-1463.431 -986.294)" fill="#d7e5dd"/>
        <g id="Group_205" data-name="Group 205" transform="translate(3.07)">
          <path id="Path_2578" data-name="Path 2578" d="M1524.191,497.629h-17.844a.9.9,0,0,1-.9-.9V480.285a.9.9,0,0,1,.9-.9h17.844a.9.9,0,0,1,.9.9v16.446A.9.9,0,0,1,1524.191,497.629Zm-17.844-17.511a.17.17,0,0,0-.167.167v16.446a.17.17,0,0,0,.167.167h17.844a.17.17,0,0,0,.167-.167V480.285a.17.17,0,0,0-.167-.167Z" transform="translate(-1505.449 -479.387)" fill="#d7e5dd"/>
        </g>
        <g id="Group_206" data-name="Group 206" transform="translate(4.871 28.969)">
          <path id="Path_2579" data-name="Path 2579" d="M1531.772,875.882l.516,1.047,1.155.168-.836.815.2,1.15-1.033-.543-1.033.543.2-1.15-.836-.815,1.155-.168Z" transform="translate(-1530.101 -875.882)" fill="#d7e5dd"/>
          <path id="Path_2580" data-name="Path 2580" d="M1589.687,875.882l.517,1.047,1.155.168-.836.815.2,1.15-1.033-.543-1.033.543.2-1.15-.836-.815,1.155-.168Z" transform="translate(-1583.784 -875.882)" fill="#d7e5dd"/>
          <path id="Path_2581" data-name="Path 2581" d="M1647.6,875.882l.517,1.047,1.155.168-.836.815.2,1.15-1.033-.543-1.033.543.2-1.15-.836-.815,1.155-.168Z" transform="translate(-1637.466 -875.882)" fill="#d7e5dd"/>
          <path id="Path_2582" data-name="Path 2582" d="M1705.515,875.882l.517,1.047,1.155.168-.836.815.2,1.15-1.033-.543-1.033.543.2-1.15-.836-.815,1.155-.168Z" transform="translate(-1691.15 -875.882)" fill="#d7e5dd"/>
        </g>
      </g>
    </g>
    <path id="Path_2583" data-name="Path 2583" d="M830.521,491.59H780.393l3.546-51.348h48.39Z" transform="translate(-510.995 -290.76)" fill="#99bbeb" opacity="0.2"/>
    <g id="Group_213" data-name="Group 213" transform="translate(274.663 139.765)">
      <rect id="Rectangle_129" data-name="Rectangle 129" width="43.384" height="71.11" transform="translate(0 0)" fill="#d7e5dd"/>
      <rect id="Rectangle_130" data-name="Rectangle 130" width="39.686" height="66.95" transform="translate(2.272 1.449)" fill="#fff"/>
      <g id="Group_212" data-name="Group 212" transform="translate(4.572 4.304)">
        <g id="Group_209" data-name="Group 209" transform="translate(9.069 3.093)">
          <path id="Path_2584" data-name="Path 2584" d="M1094.282,416.611c-.028-.083-.722-4.071-.806-5.622s2.492-1.772,2.492-1.772,2.1-1.135,3.628-.554a6.141,6.141,0,0,1,3.252,2.779c.692,1.219-.609,5.016-.609,5.016Z" transform="translate(-1089.507 -408.497)" fill="#2e2d3d"/>
          <path id="Path_2585" data-name="Path 2585" d="M1039.167,619.657c-.01-.066.178-1.635.185-1.7.351-3.3,4.424-4.234,8.49-4.234,4.776,0,8.016.874,8.533,4.308.015.1.291,1.674.277,1.78C1047.8,619.933,1039.167,619.657,1039.167,619.657Z" transform="translate(-1039.167 -598.729)" fill="#d5e1e8"/>
          <path id="Path_2586" data-name="Path 2586" d="M1129.712,516.529c-.473.7-.82.728-1.334,0-.408-.578-1.772-1.9-1.772-2.565l.56-6.651a1.216,1.216,0,0,1,1.213-1.213h1.334a1.216,1.216,0,0,1,1.213,1.213l.26,6.651C1131.185,514.631,1130.136,515.9,1129.712,516.529Z" transform="translate(-1120.218 -498.97)" fill="#f09959"/>
          <path id="Path_2587" data-name="Path 2587" d="M1130.649,506.1h-1.334a1.216,1.216,0,0,0-1.213,1.213l-.486,5.9a4.72,4.72,0,0,0,4.415-1.56l-.17-4.34A1.216,1.216,0,0,0,1130.649,506.1Z" transform="translate(-1121.155 -498.97)" fill="#e38540"/>
          <path id="Path_2588" data-name="Path 2588" d="M1097.339,618.74l2.138,3.952s1.145-.942,1.255-.757a16.918,16.918,0,0,1-.2,2.515,21.926,21.926,0,0,0,2.659-.076c.111-.111-.517-2.531-.259-2.531s1.036.7,1.036.7l2.388-3.8-.525-.128-3.912,2.1-4.184-2.059Z" transform="translate(-1093.089 -603.26)" fill="#bdccd4"/>
          <path id="Path_2589" data-name="Path 2589" d="M1130.81,637.894l1.588,1.066-.492,2.828,2.142-.12-.535-2.573,1.316-1.2-.618-.583h-2.782Z" transform="translate(-1124.114 -620.594)" fill="#d54a41"/>
          <path id="Path_2590" data-name="Path 2590" d="M1103.2,591.5l-1.964,1.869s2,3.559,2.112,3.559,1.7-1.962,1.7-1.962l1.016-.018,1.606,1.685,1.866-3.3-1.9-2.017a21.65,21.65,0,0,1-1.92,3.213c-.3.074-.3.111-.536-.074S1103.2,591.5,1103.2,591.5Z" transform="translate(-1096.703 -577.962)" fill="#d5e1e8"/>
          <ellipse id="Ellipse_20" data-name="Ellipse 20" cx="4.032" cy="5.494" rx="4.032" ry="5.494" transform="translate(4.796 1.705)" fill="#f09959"/>
          <path id="Path_2591" data-name="Path 2591" d="M1083.367,492.5c.377.794.254,1.641-.276,1.893s-1.264-.188-1.641-.982-.254-1.641.276-1.893S1082.99,491.708,1083.367,492.5Z" transform="translate(-1078.158 -485.388)" fill="#f09959"/>
          <path id="Path_2592" data-name="Path 2592" d="M1204.266,492.5c-.377.794-.254,1.641.276,1.893s1.264-.188,1.641-.982.254-1.641-.276-1.893S1204.643,491.708,1204.266,492.5Z" transform="translate(-1192.001 -485.388)" fill="#f09959"/>
          <path id="Path_2593" data-name="Path 2593" d="M1139.087,537.875s-.8,1.3-1.789,1.3-1.789-1.3-1.789-1.3Z" transform="translate(-1128.471 -528.422)" fill="#fff"/>
          <path id="Path_2594" data-name="Path 2594" d="M1106.214,427.225c1.662-1.163,2.41-.969,3.656.942a3.731,3.731,0,0,0,2.742,1.945l.194-1.982s-1.856-3.591-4.349-3.12a6.578,6.578,0,0,0-3.909,2.714s-.121,4.2.226,4.348.388-1.357.637-1.662-.249-1.745.083-2.409S1106.214,427.225,1106.214,427.225Z" transform="translate(-1099.752 -423.763)" fill="#2e2d3d"/>
          <path id="Path_2595" data-name="Path 2595" d="M1200.773,485.439c.58.635.36,3.157.665,3.129s.415-2.409.332-2.659S1200.773,485.439,1200.773,485.439Z" transform="translate(-1188.966 -479.817)" fill="#2e2d3d"/>
        </g>
        <path id="Path_2596" data-name="Path 2596" d="M1032.763,783.777h-18.52a1.184,1.184,0,0,1,0-2.368h18.52a1.184,1.184,0,0,1,0,2.368Z" transform="translate(-1005.897 -751.07)" fill="#d7e5dd"/>
        <path id="Path_2597" data-name="Path 2597" d="M1059.7,833.565h-13.911a1.184,1.184,0,0,1,0-2.368H1059.7a1.184,1.184,0,0,1,0,2.368Z" transform="translate(-1035.136 -797.22)" fill="#d7e5dd"/>
        <path id="Path_2598" data-name="Path 2598" d="M949.561,1025.23H915.724a.687.687,0,1,1,0-1.374h33.837a.687.687,0,1,1,0,1.374Z" transform="translate(-915.037 -975.803)" fill="#d7e5dd"/>
        <path id="Path_2599" data-name="Path 2599" d="M949.561,1068.932H915.724a.687.687,0,1,1,0-1.374h33.837a.687.687,0,1,1,0,1.374Z" transform="translate(-915.037 -1016.312)" fill="#d7e5dd"/>
        <path id="Path_2600" data-name="Path 2600" d="M949.561,1112.633H915.724a.687.687,0,1,1,0-1.374h33.837a.687.687,0,1,1,0,1.374Z" transform="translate(-915.037 -1056.82)" fill="#d7e5dd"/>
        <g id="Group_210" data-name="Group 210" transform="translate(4.327)">
          <path id="Path_2601" data-name="Path 2601" d="M999.721,390.808H975.349a1.094,1.094,0,0,1-1.093-1.093V367.253a1.094,1.094,0,0,1,1.093-1.093h24.372a1.094,1.094,0,0,1,1.093,1.093v22.462A1.094,1.094,0,0,1,999.721,390.808Zm-24.372-23.917a.363.363,0,0,0-.362.362v22.462a.363.363,0,0,0,.362.362h24.372a.363.363,0,0,0,.362-.362V367.253a.363.363,0,0,0-.362-.362Z" transform="translate(-974.256 -366.16)" fill="#d7e5dd"/>
        </g>
        <g id="Group_211" data-name="Group 211" transform="translate(3.718 39.434)">
          <path id="Path_2602" data-name="Path 2602" d="M968.2,905.881l.706,1.43,1.578.229-1.142,1.113.27,1.572-1.411-.742-1.411.742.27-1.572-1.142-1.113,1.578-.229Z" transform="translate(-965.918 -905.881)" fill="#d7e5dd"/>
          <path id="Path_2603" data-name="Path 2603" d="M1047.3,905.881l.706,1.43,1.578.229-1.142,1.113.27,1.572-1.411-.742-1.411.742.269-1.572-1.142-1.113,1.578-.229Z" transform="translate(-1039.24 -905.881)" fill="#d7e5dd"/>
          <path id="Path_2604" data-name="Path 2604" d="M1126.405,905.881l.706,1.43,1.578.229-1.142,1.113.269,1.572-1.411-.742-1.411.742.27-1.572-1.142-1.113,1.578-.229Z" transform="translate(-1112.563 -905.881)" fill="#d7e5dd"/>
          <path id="Path_2605" data-name="Path 2605" d="M1205.507,905.881l.706,1.43,1.578.229-1.142,1.113.269,1.572-1.411-.742-1.411.742.27-1.572-1.142-1.113,1.578-.229Z" transform="translate(-1185.886 -905.881)" fill="#d7e5dd"/>
          <path id="Path_2606" data-name="Path 2606" d="M1285.866,905.881l.706,1.43,1.578.229-1.142,1.113.269,1.572-1.411-.742-1.411.742.27-1.572-1.142-1.113,1.578-.229Z" transform="translate(-1260.374 -905.881)" fill="#d7e5dd"/>
        </g>
      </g>
    </g>
    <rect id="Rectangle_131" data-name="Rectangle 131" width="56.883" height="2.12" rx="1.06" transform="translate(331.447 206.469)"/>
    <g id="Group_218" data-name="Group 218" transform="translate(353.919 170.251)">
      <path id="Path_2607" data-name="Path 2607" d="M2499.737,782.115a5.042,5.042,0,0,1-3.117,5.975c-2.03.576-3.478-1.231-4.232-3.891s.279-5.282,2.309-5.858S2498.983,779.455,2499.737,782.115Z" transform="translate(-2451.597 -774.304)" fill="#f09959"/>
      <path id="Path_2608" data-name="Path 2608" d="M2410.553,1536.709s5.2,8.078,5.9,8.43,2.459.439,1.8,1.756-.922,6.5-1.537,6.761-5.883.878-5.093,0,1.276-.439,1.675-2.02.959-4.566.213-5.181-5.312-6.147-5.312-6.147Z" transform="translate(-2373.792 -1477.368)" fill="#f09959"/>
      <path id="Path_2609" data-name="Path 2609" d="M1947.8,1584.192s-6.323,10.421-7.493,11.357-5.035,2.342-1.873,2.576,4.683-1.054,6.674-1.639,4.449-.937,3.513-2.459-.548-4.845,1.471-6.953S1947.8,1584.192,1947.8,1584.192Z" transform="translate(-1937.219 -1521.381)" fill="#f09959"/>
      <path id="Path_2610" data-name="Path 2610" d="M2080.274,1253.364s-15.652-.409-21.857,4.683c-3.63,5.5-12.41,21.74-13.093,23.529a8.8,8.8,0,0,0,4.274,1.2c3.454-4.119,8.02-7.679,9.835-10.909,2.238-3.981,2.927-5.971,6.557-6.323s11.826-1.522,14.284-1.522S2080.274,1253.364,2080.274,1253.364Z" transform="translate(-2037.426 -1214.717)" fill="#6791c9"/>
      <path id="Path_2611" data-name="Path 2611" d="M2625.44,1463.868h-.82l-5.883-24.546h1.8Z" transform="translate(-2568.943 -1387.096)" fill="#141414"/>
      <path id="Path_2612" data-name="Path 2612" d="M2374.111,1452.859h.821l6.751-25.414h-1.8Z" transform="translate(-2342.191 -1376.087)" fill="#141414"/>
      <path id="Path_2613" data-name="Path 2613" d="M2255.3,1238.789l-9.1,1.571s-12.093.111-17.62,1.141c-5.029.937-5.77,6.651,0,14.519,3.278,4.469,6.049,8.035,11.716,12.055,1.442-1.059,1.993-1.459,2.392-4.006-.41-.562-1.472-4.082-1.8-4.771-3.134-6.552-7.318-8.935-7.376-9.58.7-1.141,18.608,5.95,22.168,1.779C2259.076,1247.513,2255.3,1238.789,2255.3,1238.789Z" transform="translate(-2203.534 -1201.214)" fill="#75a1de"/>
      <path id="Path_2614" data-name="Path 2614" d="M2503.589,955.514a9.523,9.523,0,0,0-7.12,1.772,14.319,14.319,0,0,0-4.114,10.918c.176,7.025-1.087,7.476.23,9.408,5.494,2.268,14.889,12.016,12.677,1.566-1.6-7.566,3.514-13.206-.613-21.6C2504.312,956.9,2503.892,956.233,2503.589,955.514Z" transform="translate(-2451.446 -938.54)" fill="#f37168"/>
      <path id="Path_2615" data-name="Path 2615" d="M2492.356,993.112c-.107,3.662-.624,4.741-.229,5.889,2.24.229,6.337,1.125,7.36,2.558,1.171,1.639,2.342,1.873,1.8.663s-1.99-2.927.234-8.82,3.278-9.874,1.093-13.972Z" transform="translate(-2451.448 -960.805)" fill="#d54a41"/>
      <path id="Path_2616" data-name="Path 2616" d="M2560.561,862.708a28.59,28.59,0,0,1-1.838-7.419l-3.864,1.142s2.2,4.917.088,6.673a20.153,20.153,0,0,0-1.506,1.375A9.523,9.523,0,0,1,2560.561,862.708Z" transform="translate(-2508.418 -845.734)" fill="#f09959"/>
      <path id="Path_2617" data-name="Path 2617" d="M2576.909,858.842c-.229-.2-.515-.458-.816-.724l-3.151.931-.007.017a12.861,12.861,0,0,1,.984,3.849,11.117,11.117,0,0,0,3.143-3.121C2577,859.433,2576.948,859.112,2576.909,858.842Z" transform="translate(-2526.488 -848.356)" fill="#e38540"/>
      <path id="Path_2618" data-name="Path 2618" d="M2315.924,970.463c-3.98,1.392-3.538,5.584-7.2,11.766-1.9,3.2-3.655,3.152-3.655,3.152a84.814,84.814,0,0,1-9.822-.622c-3.367-.412-3.581.591-1.239,1.428,4.723,1.688,9.624,3.506,13.575,3.067s10.709-10.521,11.058-13.145C2319.123,972.479,2317.928,969.762,2315.924,970.463Z" transform="translate(-2266.497 -952.391)" fill="#f09959"/>
      <g id="Group_214" data-name="Group 214" transform="translate(33.388 26.733)">
        <path id="Path_2619" data-name="Path 2619" d="M2408.189,1116.922q-.371,0-.76-.01a37.847,37.847,0,0,1-7.225-.889c-2.071-.421-3.212-.653-4.54-.018a1.023,1.023,0,0,1-.882-1.846c1.946-.93,3.575-.6,5.829-.141a36.06,36.06,0,0,0,6.868.849c3.428.085,5.518-.423,6.578-1.6.944-1.047,1.22-2.805.869-5.535-.12-.934-.24-1.711-.346-2.4a16.574,16.574,0,0,1-.251-5.186,60.7,60.7,0,0,1,2.241-9.014,1.023,1.023,0,0,1,1.961.583c-2.621,8.827-2.488,9.687-1.929,13.3.108.7.23,1.488.354,2.448.433,3.366-.006,5.643-1.379,7.166C2414.161,1116.208,2411.865,1116.922,2408.189,1116.922Z" transform="translate(-2394.199 -1090.406)" fill="#141414"/>
      </g>
      <path id="Path_2620" data-name="Path 2620" d="M1948.232,1704.4c-4.2,2.052-6.453,3.228-7.8,3.116-.318-.027-.581-.059-.8-.094-1.5.884-3.884,1.929-1.2,2.128,3.161.234,4.683-1.054,6.674-1.639s4.449-.937,3.512-2.458A3.2,3.2,0,0,1,1948.232,1704.4Z" transform="translate(-1937.219 -1632.806)" fill="#d54a41"/>
      <path id="Path_2621" data-name="Path 2621" d="M2459.338,1654.431c-.1,3.322-.559,6.613-2.59,7.235a3.414,3.414,0,0,1-1.464.13c-.319.4-.709.4-1.232.981-.791.878,4.479.263,5.093,0s.878-5.444,1.537-6.761C2461.223,1654.934,2460.134,1654.681,2459.338,1654.431Z" transform="translate(-2416.216 -1586.489)" fill="#d54a41"/>
      <g id="Group_215" data-name="Group 215" transform="translate(7.227 22.871)">
        <path id="Path_2622" data-name="Path 2622" d="M2055.866,1051.179h-13.328a1.023,1.023,0,0,1-.927-.592L2036.225,1039a1.023,1.023,0,0,1,1.855-.862l5.111,11h12.675a1.023,1.023,0,1,1,0,2.046Z" transform="translate(-2036.13 -1037.542)" fill="#75a1de"/>
      </g>
      <path id="Path_2623" data-name="Path 2623" d="M2194.077,1150.946c-2.693-.039-5.364-1.644-6.691-1.41s-5.659,3.239-5.113,3.356,3.981-1.663,4.1-1.69a5.775,5.775,0,0,0,2.693,1.7c1.834.463.013-1.375,5.7.343C2198.461,1154.357,2194.077,1150.946,2194.077,1150.946Z" transform="translate(-2164.325 -1118.461)" fill="#f09959"/>
      <path id="Path_2624" data-name="Path 2624" d="M2529.82,913.192l.4,3.188a15.72,15.72,0,0,0-5.218,1.183,24.608,24.608,0,0,0-4.293,3.795l2.091-3.6.3-2.3Z" transform="translate(-2478.073 -899.406)" fill="#f2e5de"/>
      <path id="Path_2625" data-name="Path 2625" d="M2367.641,965.8c-2.589-.485-3.786,1.834-5.464,5.62a54.442,54.442,0,0,1-5.113,8.977c-.57.593-9.6,0-9.6,0s-.273,2.615,0,2.927,1.834.273,1.834.273.624.5,1.21.893,5.542,1.136,7.845,1.019,4.41-.312,4.722-.664,6.6-10.03,6.986-13.5S2368.962,966.048,2367.641,965.8Z" transform="translate(-2317.377 -948.112)" fill="#f2e5de"/>
      <path id="Path_2626" data-name="Path 2626" d="M2467.783,726.276c-4.9.234-4.128,7.6-4.128,7.6a9.519,9.519,0,0,0,3.935-.047,14.688,14.688,0,0,1-.117-2.81,18.425,18.425,0,0,0,.7,2.634c.563.258,1.2.029,2.283-.232a4.818,4.818,0,0,0,3.2,3.667c1.189.374,2.448.82,3.853.117s.632-7.884-.114-9.328c-1.12-2.168-2.981-4.108-6.2-3.083A23.933,23.933,0,0,0,2467.783,726.276Z" transform="translate(-2425.152 -724.512)" fill="#303c60"/>
      <path id="Path_2627" data-name="Path 2627" d="M2637.22,861.691l2,2.923s-2.218,5.542,4.233,8.053c5.052,1.967,4.457,5.431,2.174,8.916s1.366,6.527,1.366,6.527.557-3.86,5.466-4.589c6.693-.993,8.588-9.98,3.589-14.473-4.137-3.718-5.4-.639-8.2-3.976s-8.087-1.083-8.087-1.083l-1.937-2.826Z" transform="translate(-2586.076 -851.18)" fill="#303c60"/>
      <g id="Group_216" data-name="Group 216" transform="translate(53.513 11.536)">
        <path id="Path_2628" data-name="Path 2628" d="M2688.4,897.793a.175.175,0,0,1-.085-.022.178.178,0,0,1-.071-.242c1.683-3.076.31-6.8-.381-7.812-.073-.107-.143-.215-.216-.33-.679-1.059-1.523-2.378-6.03-3.189a7.174,7.174,0,0,1-2.895-1.523c-1.922-1.411-4.1-3.01-8.833-.832a.178.178,0,1,1-.149-.323c4.923-2.266,7.191-.6,9.192.868a6.919,6.919,0,0,0,2.747,1.46c4.66.839,5.551,2.23,6.267,3.347.072.112.14.219.21.321.724,1.058,2.163,4.962.4,8.184A.179.179,0,0,1,2688.4,897.793Z" transform="translate(-2669.636 -882.409)" fill="#303c60"/>
      </g>
      <g id="Group_217" data-name="Group 217" transform="translate(44.845 6.544)">
        <path id="Path_2629" data-name="Path 2629" d="M2556.236,821.035a7.047,7.047,0,0,1-1.039-.084c-1.713-.257-4.01-1.23-4.191-6.7a.178.178,0,1,1,.356-.012,8.59,8.59,0,0,0,1.329,4.954,3.733,3.733,0,0,0,2.559,1.4c1.585.237,2.636-.055,3.122-.87a.178.178,0,1,1,.306.183A2.611,2.611,0,0,1,2556.236,821.035Z" transform="translate(-2551.006 -814.072)" fill="#303c60"/>
      </g>
    </g>
    <path id="Path_2630" data-name="Path 2630" d="M1711.333,1279.087h1.315l5.117-39.111h-2.894Z" transform="translate(-1373.918 -1032.064)" fill="#020202"/>
    <path id="Path_2631" data-name="Path 2631" d="M2240.586,1279.087h-1.315l-5.117-39.111h2.894Z" transform="translate(-1858.541 -1032.064)" fill="#020202"/>
    <g id="Group_219" data-name="Group 219" transform="translate(417.728 204.899)">
      <path id="Path_2632" data-name="Path 2632" d="M2998.011,1323.431c2.275,2.077,1.286,4.155-.4,8.014s-1.979,18.105-1.979,18.105l1.385-.2s-.2-14.643,1.682-18.6,2.671-5.936,4.353-4.65S2998.011,1323.431,2998.011,1323.431Z" transform="translate(-2982.115 -1314.32)" fill="#74b570"/>
      <path id="Path_2633" data-name="Path 2633" d="M3009.468,1205.154c.277-1.231,1.917-2.564,4.112-3.694-.326,1.816-1.373,4.785-.29,5.395,1.46.821.142-3.324.706-5.6a27.117,27.117,0,0,1,6.823-2.238l-.01.025c-1.286,3.265-2.968,4.551-2.275,5.046.521.372,2.218-3.4,4.459-5.333a6.036,6.036,0,0,1,3.947.8c1.3,1.03,2.175,1.944.866,5.081a5.88,5.88,0,0,1-2.841,1.03c-2.968.3-4.353.4-2.275,1.385,1.017.485,2.722-.027,4.105-.339-.449.827-1,1.762-1.67,2.827a10.469,10.469,0,0,1-1.391,1.77,4.388,4.388,0,0,1-2.232,0c-1.385-.594-4.947-2.473-5.838-1.682-.871.775,6.6,1.265,6.079,3.234-3.619,2.085-7.762,1.093-8.494-.822C3012.267,1209.465,3008.636,1208.86,3009.468,1205.154Z" transform="translate(-2994.822 -1198.733)" fill="#9cd499"/>
      <path id="Path_2634" data-name="Path 2634" d="M2971.371,1463.091c-3.958-2.968-8.014-.2-10.092,2.968s-.594,10.289-.594,10.289.792,0,.792-.3-2.177-8.41,2.968-12.07c3.219-2.29,5.54-1.187,5.837-.1s-1.286,3.067-1.286,3.067Z" transform="translate(-2949.242 -1442.603)" fill="#74b570"/>
      <path id="Path_2635" data-name="Path 2635" d="M2986.635,1395.649c3.957,0,5.244,6.134,4.156,9.7s-2.573,10.191-2.573,10.191l-.989-.99s3.76-9.3,2.87-13.455-3.068-4.848-3.463-4.848S2986.635,1395.649,2986.635,1395.649Z" transform="translate(-2973.608 -1381.262)" fill="#9cd499"/>
      <path id="Path_2636" data-name="Path 2636" d="M3021.7,1517.626a2.866,2.866,0,0,1,1.042-.875,7.8,7.8,0,0,1-.205.848c-.5,1.623-1.074,3.882-1.556,5.861-.044-.253-.112-.644-.216-1.247-.024-.142-.043-.3-.057-.46A38.338,38.338,0,0,0,3021.7,1517.626Z" transform="translate(-3005.35 -1493.516)" fill="#74b570"/>
      <path id="Path_2637" data-name="Path 2637" d="M3023.145,1458.368c7.52-3.166,3.558-7.51,10.187-4.641a1.154,1.154,0,1,1-.495,1.583c-1.979-.3-1.286,1.286,1.979,1.682a7.308,7.308,0,0,1,1.53.323c1.555,2.987,2.256,6.918-1.035,8.285a7.455,7.455,0,0,1-2.343.481c-1.016-.807.248-5.479-1.318-4.834-1.5.619.472,4,.2,4.858a21.675,21.675,0,0,1-4.7-.658,2.34,2.34,0,0,1-1.242-1.429c-.494-2.078,2.771-3.364,2.87-5.145.091-1.637-1.2,3.6-4.608,4.373C3021.088,1461.8,3019.63,1459.848,3023.145,1458.368Z" transform="translate(-3005.717 -1434.227)" fill="#9cd499"/>
      <path id="Path_2638" data-name="Path 2638" d="M2822.642,1361.528c.791-1.682-1.287-2.078-1.187-.792.088,1.14.1,3.91-1.072,4.664a18.339,18.339,0,0,1-6.832-2.269.837.837,0,0,1,.087-.516c.891-1.781,6.629-3.265,4.848-3.858-1.418-.473-3.9,2.318-5.906,3.723a4.26,4.26,0,0,1-2.009-3.215c0-1.644,2-3.5,4.58-4.394a10.813,10.813,0,0,1,3.929,1.708c2.491,1.412,1.915-.871-.44-2.226a7.1,7.1,0,0,1,5.557,3.05,3.468,3.468,0,0,0,.8,2.26c2.562,3.744-.395,5.93-3.929,5.788A23.263,23.263,0,0,1,2822.642,1361.528Z" transform="translate(-2810.571 -1342.986)" fill="#9cd499"/>
      <path id="Path_2639" data-name="Path 2639" d="M3098.96,1476.54a33.615,33.615,0,0,0,6.722,4.43c2.639,1.187,2.111,5.057,2.111,5.057s.4-3.342-1.8-4.486-3.65-2.506-5.321-2.77a24.217,24.217,0,0,1-2.595-.527s.528-1.056.22-1.451S3098.96,1476.54,3098.96,1476.54Z" transform="translate(-3077.069 -1456.219)" fill="#74b570"/>
      <path id="Path_2640" data-name="Path 2640" d="M3060.519,1236.565a31.027,31.027,0,0,0-13.236,7.519c-.968,1.1-.968,1.407-.968,1.407l.747,1.407.352-.176s-.572-1.187.924-2.726a27.049,27.049,0,0,1,7.871-5.673C3058.364,1237.4,3060.519,1236.565,3060.519,1236.565Z" transform="translate(-3029.091 -1233.801)" fill="#74b570"/>
      <path id="Rectangle_132" data-name="Rectangle 132" d="M4.835,0h0A4.835,4.835,0,0,1,9.67,4.835V9.7a0,0,0,0,1,0,0H0a0,0,0,0,1,0,0V4.835A4.835,4.835,0,0,1,4.835,0Z" transform="translate(18.073 41.952) rotate(180)" fill="#d7e5dd"/>
      <rect id="Rectangle_133" data-name="Rectangle 133" width="9.67" height="0.681" transform="translate(8.402 33.366)" fill="#fff"/>
      <rect id="Rectangle_134" data-name="Rectangle 134" width="9.67" height="0.4" transform="translate(8.402 34.607)" fill="#fff"/>
    </g>
    <g id="Group_220" data-name="Group 220" transform="translate(237.524 234.726)">
      <rect id="Rectangle_135" data-name="Rectangle 135" width="4.072" height="3.665" rx="1.832" transform="translate(18.879 3.665) rotate(180)" fill="#00803d"/>
      <rect id="Rectangle_136" data-name="Rectangle 136" width="4.072" height="3.665" rx="1.832" transform="translate(11.475 3.665) rotate(180)" fill="#00803d"/>
      <rect id="Rectangle_137" data-name="Rectangle 137" width="4.072" height="3.665" rx="1.832" transform="translate(4.072 3.665) rotate(180)" fill="#00803d"/>
    </g>
    <g id="Group_221" data-name="Group 221" transform="translate(445.433 166.908)">
      <path id="Rectangle_138" data-name="Rectangle 138" d="M1.832,0H2.24A1.832,1.832,0,0,1,4.072,1.832v0A1.832,1.832,0,0,1,2.24,3.665H1.832A1.832,1.832,0,0,1,0,1.832v0A1.832,1.832,0,0,1,1.832,0Z" transform="translate(3.665 0) rotate(90)" fill="#00803d"/>
      <path id="Rectangle_139" data-name="Rectangle 139" d="M1.832,0H2.24A1.832,1.832,0,0,1,4.072,1.832v0A1.833,1.833,0,0,1,2.239,3.665H1.832A1.832,1.832,0,0,1,0,1.832v0A1.832,1.832,0,0,1,1.832,0Z" transform="translate(3.665 7.403) rotate(90)" fill="#00803d"/>
      <path id="Rectangle_140" data-name="Rectangle 140" d="M1.832,0H2.24A1.832,1.832,0,0,1,4.072,1.832v0A1.832,1.832,0,0,1,2.239,3.665H1.832A1.832,1.832,0,0,1,0,1.832v0A1.832,1.832,0,0,1,1.832,0Z" transform="translate(3.665 14.807) rotate(90)" fill="#00803d"/>
    </g>
  </g>
</svg>
